G04*
G04 #@! TF.GenerationSoftware,Altium Limited,Altium Designer,19.1.8 (144)*
G04*
G04 Layer_Physical_Order=2*
G04 Layer_Color=128*
%FSLAX25Y25*%
%MOIN*%
G70*
G01*
G75*
%ADD83C,0.19748*%
%ADD84C,0.04000*%
G04:AMPARAMS|DCode=85|XSize=103.307mil|YSize=103.307mil|CornerRadius=0mil|HoleSize=0mil|Usage=FLASHONLY|Rotation=0.000|XOffset=0mil|YOffset=0mil|HoleType=Round|Shape=Relief|Width=10mil|Gap=10mil|Entries=4|*
%AMTHD85*
7,0,0,0.10331,0.08331,0.01000,45*
%
%ADD85THD85*%
%ADD86C,0.08331*%
%ADD87C,0.09512*%
G04:AMPARAMS|DCode=88|XSize=115.118mil|YSize=115.118mil|CornerRadius=0mil|HoleSize=0mil|Usage=FLASHONLY|Rotation=0.000|XOffset=0mil|YOffset=0mil|HoleType=Round|Shape=Relief|Width=10mil|Gap=10mil|Entries=4|*
%AMTHD88*
7,0,0,0.11512,0.09512,0.01000,45*
%
%ADD88THD88*%
%ADD89C,0.07937*%
G04:AMPARAMS|DCode=90|XSize=99.37mil|YSize=99.37mil|CornerRadius=0mil|HoleSize=0mil|Usage=FLASHONLY|Rotation=0.000|XOffset=0mil|YOffset=0mil|HoleType=Round|Shape=Relief|Width=10mil|Gap=10mil|Entries=4|*
%AMTHD90*
7,0,0,0.09937,0.07937,0.01000,45*
%
%ADD90THD90*%
%ADD91C,0.08000*%
%ADD92C,0.07543*%
G04:AMPARAMS|DCode=93|XSize=95.433mil|YSize=95.433mil|CornerRadius=0mil|HoleSize=0mil|Usage=FLASHONLY|Rotation=0.000|XOffset=0mil|YOffset=0mil|HoleType=Round|Shape=Relief|Width=10mil|Gap=10mil|Entries=4|*
%AMTHD93*
7,0,0,0.09543,0.07543,0.01000,45*
%
%ADD93THD93*%
%ADD94C,0.16795*%
%ADD95C,0.10299*%
%ADD96C,0.05181*%
G04:AMPARAMS|DCode=97|XSize=75.748mil|YSize=75.748mil|CornerRadius=0mil|HoleSize=0mil|Usage=FLASHONLY|Rotation=0.000|XOffset=0mil|YOffset=0mil|HoleType=Round|Shape=Relief|Width=10mil|Gap=10mil|Entries=4|*
%AMTHD97*
7,0,0,0.07575,0.05575,0.01000,45*
%
%ADD97THD97*%
%ADD98C,0.05575*%
G04:AMPARAMS|DCode=99|XSize=88mil|YSize=88mil|CornerRadius=0mil|HoleSize=0mil|Usage=FLASHONLY|Rotation=0.000|XOffset=0mil|YOffset=0mil|HoleType=Round|Shape=Relief|Width=10mil|Gap=10mil|Entries=4|*
%AMTHD99*
7,0,0,0.08800,0.06800,0.01000,45*
%
%ADD99THD99*%
G04:AMPARAMS|DCode=100|XSize=71.811mil|YSize=71.811mil|CornerRadius=0mil|HoleSize=0mil|Usage=FLASHONLY|Rotation=0.000|XOffset=0mil|YOffset=0mil|HoleType=Round|Shape=Relief|Width=10mil|Gap=10mil|Entries=4|*
%AMTHD100*
7,0,0,0.07181,0.05181,0.01000,45*
%
%ADD100THD100*%
D83*
X19685Y392795D02*
D03*
X15354Y48032D02*
D03*
X627795Y19685D02*
D03*
Y387795D02*
D03*
X19685Y19685D02*
D03*
D84*
X0Y0D02*
Y407480D01*
X645669Y407480D01*
X645669Y0D02*
X645669Y407480D01*
X0Y0D02*
X645669D01*
D85*
X510000Y50000D02*
D03*
Y38000D02*
D03*
X323071Y387165D02*
D03*
Y377165D02*
D03*
X293071Y387165D02*
D03*
Y377165D02*
D03*
X27835Y346850D02*
D03*
X17835D02*
D03*
X105591Y387165D02*
D03*
Y377165D02*
D03*
X75591Y387165D02*
D03*
Y377165D02*
D03*
X214331Y387165D02*
D03*
Y377165D02*
D03*
X184331Y387165D02*
D03*
Y377165D02*
D03*
D86*
X500000Y50000D02*
D03*
X490000D02*
D03*
X470000D02*
D03*
X450000D02*
D03*
X430000D02*
D03*
X440000D02*
D03*
X460000D02*
D03*
X480000D02*
D03*
X500000Y38000D02*
D03*
X490000D02*
D03*
X470000D02*
D03*
X450000D02*
D03*
X430000D02*
D03*
X440000D02*
D03*
X460000D02*
D03*
X480000D02*
D03*
X343071Y387165D02*
D03*
X333071D02*
D03*
X343071Y377165D02*
D03*
X333071D02*
D03*
X313071Y387165D02*
D03*
Y377165D02*
D03*
X303071Y387165D02*
D03*
Y377165D02*
D03*
X283071Y387165D02*
D03*
Y377165D02*
D03*
X27835Y336850D02*
D03*
X17835D02*
D03*
X27835Y356850D02*
D03*
X17835D02*
D03*
X125591Y387165D02*
D03*
X115591D02*
D03*
X125591Y377165D02*
D03*
X115591D02*
D03*
X95591Y387165D02*
D03*
Y377165D02*
D03*
X85591Y387165D02*
D03*
Y377165D02*
D03*
X65591Y387165D02*
D03*
Y377165D02*
D03*
X234331Y387165D02*
D03*
X224331D02*
D03*
X234331Y377165D02*
D03*
X224331D02*
D03*
X204331Y387165D02*
D03*
Y377165D02*
D03*
X194331Y387165D02*
D03*
Y377165D02*
D03*
X174331Y387165D02*
D03*
Y377165D02*
D03*
D87*
X21260Y180315D02*
D03*
Y190157D02*
D03*
Y224803D02*
D03*
Y234646D02*
D03*
X21654Y267323D02*
D03*
Y277165D02*
D03*
X24409Y108661D02*
D03*
D88*
X21260Y200000D02*
D03*
Y244488D02*
D03*
X21654Y287008D02*
D03*
X24409Y98819D02*
D03*
Y88976D02*
D03*
D89*
X199858Y100000D02*
D03*
Y120000D02*
D03*
X190142Y30000D02*
D03*
Y50000D02*
D03*
D90*
X199858Y110000D02*
D03*
X190142Y40000D02*
D03*
D91*
X603937Y346535D02*
D03*
Y336535D02*
D03*
Y326535D02*
D03*
Y316535D02*
D03*
Y306535D02*
D03*
Y296535D02*
D03*
Y286535D02*
D03*
Y276535D02*
D03*
Y266535D02*
D03*
Y256535D02*
D03*
Y246535D02*
D03*
Y236535D02*
D03*
Y226535D02*
D03*
Y216535D02*
D03*
Y206535D02*
D03*
X593937Y346535D02*
D03*
Y336535D02*
D03*
Y326535D02*
D03*
Y316535D02*
D03*
Y306535D02*
D03*
Y296535D02*
D03*
Y286535D02*
D03*
Y276535D02*
D03*
Y266535D02*
D03*
Y256535D02*
D03*
Y246535D02*
D03*
Y236535D02*
D03*
Y226535D02*
D03*
Y216535D02*
D03*
Y206535D02*
D03*
D92*
X610236Y91732D02*
D03*
Y83732D02*
D03*
X603236Y79732D02*
D03*
X610236Y67732D02*
D03*
Y129732D02*
D03*
X603236Y141732D02*
D03*
X610236Y145732D02*
D03*
Y153732D02*
D03*
D93*
X603236Y87732D02*
D03*
X610236Y75732D02*
D03*
X603236Y71732D02*
D03*
Y63732D02*
D03*
Y125732D02*
D03*
Y133732D02*
D03*
X610236Y137732D02*
D03*
X603236Y149732D02*
D03*
D94*
X620236Y52732D02*
D03*
Y164732D02*
D03*
D95*
X606736Y45732D02*
D03*
Y171732D02*
D03*
D96*
X558000Y311000D02*
D03*
X482543Y74000D02*
D03*
X553425Y179591D02*
D03*
X555425Y197591D02*
D03*
X559000Y324000D02*
D03*
X558000Y320516D02*
D03*
X479000Y74000D02*
D03*
X470000Y195000D02*
D03*
X500000Y196000D02*
D03*
X553000Y195000D02*
D03*
X551000Y177000D02*
D03*
X482000Y305000D02*
D03*
X492000D02*
D03*
X555000Y309000D02*
D03*
X485000Y258000D02*
D03*
X499394Y260394D02*
D03*
X146756Y236756D02*
D03*
X112000Y232000D02*
D03*
X415394Y260394D02*
D03*
X429000Y338000D02*
D03*
X423000Y335000D02*
D03*
X418000Y332000D02*
D03*
X400000Y323000D02*
D03*
X413000Y329000D02*
D03*
Y374000D02*
D03*
X293000Y232000D02*
D03*
Y223000D02*
D03*
X112000Y242000D02*
D03*
X567000Y123000D02*
D03*
X559000Y126000D02*
D03*
X572000Y131000D02*
D03*
X412000Y380000D02*
D03*
X411000Y389000D02*
D03*
X424000Y383000D02*
D03*
X437000Y377000D02*
D03*
X430000Y386000D02*
D03*
X258000Y326000D02*
D03*
X407000D02*
D03*
X213000Y323000D02*
D03*
X173000Y329000D02*
D03*
X233000Y332000D02*
D03*
X193000Y335000D02*
D03*
X153000Y338000D02*
D03*
X292000Y362000D02*
D03*
Y366000D02*
D03*
X213000Y358000D02*
D03*
X193000D02*
D03*
X293000Y242000D02*
D03*
Y251000D02*
D03*
X112000Y252000D02*
D03*
Y224000D02*
D03*
D97*
X506000Y168000D02*
D03*
X478000Y159000D02*
D03*
X448000Y198000D02*
D03*
X508000Y232000D02*
D03*
X480000Y220000D02*
D03*
X523213Y290488D02*
D03*
X145276Y17323D02*
D03*
X151575Y23228D02*
D03*
X220000Y237000D02*
D03*
X536221Y344882D02*
D03*
X238000Y21000D02*
D03*
X248000D02*
D03*
X230000D02*
D03*
X480000Y328000D02*
D03*
X488000D02*
D03*
X458000Y389000D02*
D03*
X450000D02*
D03*
X515213Y290488D02*
D03*
X448000Y202000D02*
D03*
X452000Y265173D02*
D03*
X452000Y269000D02*
D03*
X141000Y92000D02*
D03*
X134000D02*
D03*
X293000Y316000D02*
D03*
X318000Y270000D02*
D03*
X167000Y231000D02*
D03*
X159000D02*
D03*
D98*
X465000Y206000D02*
D03*
X461000D02*
D03*
X462756Y264878D02*
D03*
Y269756D02*
D03*
X247000Y122000D02*
D03*
Y118000D02*
D03*
X252000D02*
D03*
Y122000D02*
D03*
D99*
X246000Y84000D02*
D03*
X236000D02*
D03*
X246000Y76000D02*
D03*
X236000D02*
D03*
D100*
X350606Y74402D02*
D03*
X351000Y107000D02*
D03*
X153000Y302000D02*
D03*
X102000Y205000D02*
D03*
Y270000D02*
D03*
X112000Y300000D02*
D03*
Y160000D02*
D03*
X318000Y205000D02*
D03*
X293000Y160000D02*
D03*
M02*
