G04*
G04 #@! TF.GenerationSoftware,Altium Limited,Altium Designer,19.1.8 (144)*
G04*
G04 Layer_Color=65535*
%FSLAX25Y25*%
%MOIN*%
G70*
G01*
G75*
%ADD10C,0.00984*%
%ADD11C,0.02362*%
%ADD12C,0.00787*%
%ADD13C,0.00591*%
%ADD14C,0.01000*%
%ADD15C,0.00800*%
%ADD16C,0.03937*%
%ADD17C,0.00500*%
%ADD18C,0.00600*%
%ADD19R,0.17717X0.03150*%
%ADD20R,0.03150X0.17716*%
G36*
X337972Y74465D02*
X336268Y75449D01*
Y73480D01*
X337972Y74465D01*
D02*
G37*
G36*
X337917Y107000D02*
X336213Y107984D01*
Y106016D01*
X337917Y107000D01*
D02*
G37*
D10*
X461646Y166272D02*
X460908Y166698D01*
Y165846D01*
X461646Y166272D01*
X464291Y292421D02*
X463553Y292847D01*
Y291995D01*
X464291Y292421D01*
X462933Y345669D02*
X462195Y346095D01*
Y345243D01*
X462933Y345669D01*
X461752Y229921D02*
X461014Y230347D01*
Y229495D01*
X461752Y229921D01*
D11*
X467433Y174638D02*
X466988Y175561D01*
X465989Y175789D01*
X465188Y175150D01*
Y174125D01*
X465989Y173486D01*
X466988Y173714D01*
X467433Y174638D01*
X470079Y300787D02*
X469634Y301711D01*
X468635Y301939D01*
X467834Y301300D01*
Y300275D01*
X468635Y299636D01*
X469634Y299864D01*
X470079Y300787D01*
X468720Y354035D02*
X468276Y354959D01*
X467277Y355187D01*
X466475Y354548D01*
Y353523D01*
X467277Y352884D01*
X468276Y353112D01*
X468720Y354035D01*
X467539Y238287D02*
X467095Y239211D01*
X466095Y239439D01*
X465294Y238800D01*
Y237775D01*
X466095Y237136D01*
X467095Y237364D01*
X467539Y238287D01*
D12*
X190535Y65197D02*
X189748D01*
X190535D01*
X588343Y27803D02*
Y28197D01*
X593657Y27803D02*
Y28197D01*
X462315Y170701D02*
X501685D01*
X462315Y183299D02*
X501685D01*
X462315Y170701D02*
Y183299D01*
X501685Y170701D02*
Y183299D01*
X515590Y44705D02*
Y55295D01*
X424409D02*
X515590D01*
X424409Y44705D02*
Y55295D01*
Y44705D02*
X515590D01*
Y32705D02*
Y43295D01*
X424409D02*
X515590D01*
X424409Y32705D02*
Y43295D01*
Y32705D02*
X515590D01*
X262598Y364449D02*
Y399882D01*
Y364449D02*
X363543D01*
X262598Y399882D02*
X363543D01*
Y364449D02*
Y399882D01*
X5118Y377323D02*
X40551D01*
X5118Y316378D02*
Y377323D01*
X40551Y316378D02*
Y377323D01*
X5118Y316378D02*
X40551D01*
X45118Y364449D02*
Y399882D01*
Y364449D02*
X146063D01*
X45118Y399882D02*
X146063D01*
Y364449D02*
Y399882D01*
X153858Y364449D02*
Y399882D01*
Y364449D02*
X254803D01*
X153858Y399882D02*
X254803D01*
Y364449D02*
Y399882D01*
X304339Y16661D02*
Y55835D01*
X271661Y16661D02*
Y41169D01*
X219378Y112803D02*
Y113197D01*
X216622Y112803D02*
Y113197D01*
X231173Y96110D02*
Y113827D01*
X235110Y92173D02*
X237669D01*
X231173Y96110D02*
X235110Y92173D01*
X231173Y113827D02*
X237669D01*
X246331D02*
X252827D01*
X248890Y92173D02*
X252827Y96110D01*
X246331Y92173D02*
X248890D01*
X252827Y96110D02*
Y113827D01*
X4724Y171457D02*
Y208858D01*
Y171457D02*
X36614D01*
Y208858D01*
X4724D02*
X36614D01*
X4724Y215945D02*
Y253346D01*
Y215945D02*
X36614D01*
Y253346D01*
X4724D02*
X36614D01*
X5118Y258465D02*
Y295866D01*
Y258465D02*
X37008D01*
Y295866D01*
X5118D02*
X37008D01*
X173776Y86673D02*
X208224D01*
X173776Y133327D02*
X208224D01*
X173776Y86673D02*
Y133327D01*
X208224Y86673D02*
Y133327D01*
X135343Y102803D02*
Y103197D01*
X140657Y102803D02*
Y103197D01*
X249378Y36803D02*
Y37197D01*
X246622Y36803D02*
Y37197D01*
X224378Y36803D02*
Y37197D01*
X221622Y36803D02*
Y37197D01*
X176378Y37803D02*
Y38197D01*
X173622Y37803D02*
Y38197D01*
X153378Y37803D02*
Y38197D01*
X150622Y37803D02*
Y38197D01*
X465622Y324803D02*
Y325197D01*
X468378Y324803D02*
Y325197D01*
X504331Y296850D02*
Y309449D01*
X464961Y296850D02*
Y309449D01*
X504331D01*
X464961Y296850D02*
X504331D01*
X463622Y376803D02*
Y377197D01*
X466378Y376803D02*
Y377197D01*
X502972Y350098D02*
Y362697D01*
X463602Y350098D02*
Y362697D01*
X502972D01*
X463602Y350098D02*
X502972D01*
X457803Y198622D02*
X458197D01*
X457803Y201378D02*
X458197D01*
X501791Y234350D02*
Y246949D01*
X462421Y234350D02*
Y246949D01*
X501791D01*
X462421Y234350D02*
X501791D01*
X459803Y258622D02*
X460197D01*
X459803Y261378D02*
X460197D01*
X316622Y214803D02*
Y215197D01*
X319378Y214803D02*
Y215197D01*
X246803Y223378D02*
X247197D01*
X246803Y220622D02*
X247197D01*
X319378Y259803D02*
Y260197D01*
X316622Y259803D02*
Y260197D01*
X246803Y250622D02*
X247197D01*
X246803Y253378D02*
X247197D01*
X152047Y218378D02*
X152441D01*
X152047Y215622D02*
X152441D01*
X100622Y214803D02*
Y215197D01*
X103378Y214803D02*
Y215197D01*
X175378Y233803D02*
Y234197D01*
X172622Y233803D02*
Y234197D01*
X103378Y259559D02*
Y259953D01*
X100622Y259559D02*
Y259953D01*
X154559Y250622D02*
X154953D01*
X154559Y253378D02*
X154953D01*
X7874Y117520D02*
X39764D01*
Y80118D02*
Y117520D01*
X7874Y80118D02*
X39764D01*
X7874D02*
Y117520D01*
X91662Y16661D02*
Y41169D01*
X124338Y16661D02*
Y55835D01*
X185996Y254657D02*
X192000D01*
X193378Y219972D02*
Y254028D01*
Y219972D02*
X205976D01*
Y254028D01*
X193378D02*
X205976D01*
D13*
X575244Y32000D02*
X576000D01*
X575244Y22000D02*
Y32000D01*
Y22000D02*
X576000D01*
X580000D02*
X580756D01*
Y32000D01*
X580000D02*
X580756D01*
X575244Y27000D02*
X580756D01*
X518000Y146244D02*
Y151756D01*
X513000Y151000D02*
Y151756D01*
X523000D01*
Y151000D02*
Y151756D01*
Y146244D02*
Y147000D01*
X513000Y146244D02*
X523000D01*
X513000D02*
Y147000D01*
X518000Y139244D02*
Y144756D01*
X513000Y144000D02*
Y144756D01*
X523000D01*
Y144000D02*
Y144756D01*
Y139244D02*
Y140000D01*
X513000Y139244D02*
X523000D01*
X513000D02*
Y140000D01*
X518000Y155244D02*
Y160756D01*
X513000Y160000D02*
Y160756D01*
X523000D01*
Y160000D02*
Y160756D01*
Y155244D02*
Y156000D01*
X513000Y155244D02*
X523000D01*
X513000D02*
Y156000D01*
X518000Y162244D02*
Y167756D01*
X513000Y167000D02*
Y167756D01*
X523000D01*
Y167000D02*
Y167756D01*
Y162244D02*
Y163000D01*
X513000Y162244D02*
X523000D01*
X513000D02*
Y163000D01*
X518000Y173244D02*
Y178756D01*
X513000Y178000D02*
Y178756D01*
X523000D01*
Y178000D02*
Y178756D01*
Y173244D02*
Y174000D01*
X513000Y173244D02*
X523000D01*
X513000D02*
Y174000D01*
X518000Y180244D02*
Y185756D01*
X513000Y185000D02*
Y185756D01*
X523000D01*
Y185000D02*
Y185756D01*
Y180244D02*
Y181000D01*
X513000Y180244D02*
X523000D01*
X513000D02*
Y181000D01*
X518000Y190244D02*
Y195756D01*
X513000Y195000D02*
Y195756D01*
X523000D01*
Y195000D02*
Y195756D01*
Y190244D02*
Y191000D01*
X513000Y190244D02*
X523000D01*
X513000D02*
Y191000D01*
X518000Y197244D02*
Y202756D01*
X513000Y202000D02*
Y202756D01*
X523000D01*
Y202000D02*
Y202756D01*
Y197244D02*
Y198000D01*
X513000Y197244D02*
X523000D01*
X513000D02*
Y198000D01*
X518000Y214244D02*
Y219756D01*
X513000Y219000D02*
Y219756D01*
X523000D01*
Y219000D02*
Y219756D01*
Y214244D02*
Y215000D01*
X513000Y214244D02*
X523000D01*
X513000D02*
Y215000D01*
X518000Y207244D02*
Y212756D01*
X513000Y212000D02*
Y212756D01*
X523000D01*
Y212000D02*
Y212756D01*
Y207244D02*
Y208000D01*
X513000Y207244D02*
X523000D01*
X513000D02*
Y208000D01*
X518000Y231244D02*
Y236756D01*
X513000Y236000D02*
Y236756D01*
X523000D01*
Y236000D02*
Y236756D01*
Y231244D02*
Y232000D01*
X513000Y231244D02*
X523000D01*
X513000D02*
Y232000D01*
X518000Y224244D02*
Y229756D01*
X513000Y229000D02*
Y229756D01*
X523000D01*
Y229000D02*
Y229756D01*
Y224244D02*
Y225000D01*
X513000Y224244D02*
X523000D01*
X513000D02*
Y225000D01*
X518000Y240244D02*
Y245756D01*
X513000Y245000D02*
Y245756D01*
X523000D01*
Y245000D02*
Y245756D01*
Y240244D02*
Y241000D01*
X513000Y240244D02*
X523000D01*
X513000D02*
Y241000D01*
X518000Y247244D02*
Y252756D01*
X513000Y252000D02*
Y252756D01*
X523000D01*
Y252000D02*
Y252756D01*
Y247244D02*
Y248000D01*
X513000Y247244D02*
X523000D01*
X513000D02*
Y248000D01*
X518000Y257244D02*
Y262756D01*
X513000Y262000D02*
Y262756D01*
X523000D01*
Y262000D02*
Y262756D01*
Y257244D02*
Y258000D01*
X513000Y257244D02*
X523000D01*
X513000D02*
Y258000D01*
X518000Y264244D02*
Y269756D01*
X513000Y269000D02*
Y269756D01*
X523000D01*
Y269000D02*
Y269756D01*
Y264244D02*
Y265000D01*
X513000Y264244D02*
X523000D01*
X513000D02*
Y265000D01*
X515244Y311000D02*
X520756D01*
X515244Y306000D02*
X516000D01*
X515244D02*
Y316000D01*
X516000D01*
X520000D02*
X520756D01*
Y306000D02*
Y316000D01*
X520000Y306000D02*
X520756D01*
X526244Y322000D02*
X531756D01*
X531000Y327000D02*
X531756D01*
Y317000D02*
Y327000D01*
X531000Y317000D02*
X531756D01*
X526244D02*
X527000D01*
X526244D02*
Y327000D01*
X527000D01*
X515354Y284134D02*
X516110D01*
X515354Y274134D02*
Y284134D01*
Y274134D02*
X516110D01*
X520110D02*
X520866D01*
Y284134D01*
X520110D02*
X520866D01*
X515354Y279134D02*
X520866D01*
X526244Y305000D02*
X527000D01*
X526244Y295000D02*
Y305000D01*
Y295000D02*
X527000D01*
X531000D02*
X531756D01*
Y305000D01*
X531000D02*
X531756D01*
X526244Y300000D02*
X531756D01*
X519717Y327284D02*
X520472D01*
Y337283D01*
X519717D02*
X520472D01*
X514961D02*
X515717D01*
X514961Y327284D02*
Y337283D01*
Y327284D02*
X515717D01*
X514961Y332283D02*
X520472D01*
X531000Y353000D02*
X531756D01*
Y363000D01*
X531000D02*
X531756D01*
X526244D02*
X527000D01*
X526244Y353000D02*
Y363000D01*
Y353000D02*
X527000D01*
X526244Y358000D02*
X531756D01*
X518929Y374134D02*
X519685D01*
Y384134D01*
X518929D02*
X519685D01*
X514173D02*
X514929D01*
X514173Y374134D02*
Y384134D01*
Y374134D02*
X514929D01*
X514173Y379134D02*
X519685D01*
X484646Y397126D02*
X485402D01*
X484646Y387126D02*
Y397126D01*
Y387126D02*
X485402D01*
X489402D02*
X490158D01*
Y397126D01*
X489402D02*
X490158D01*
X484646Y392126D02*
X490158D01*
X311000Y104244D02*
Y109756D01*
X316000Y104244D02*
Y105000D01*
X306000Y104244D02*
X316000D01*
X306000D02*
Y105000D01*
Y109000D02*
Y109756D01*
X316000D01*
Y109000D02*
Y109756D01*
X331276Y104425D02*
X335425D01*
X331276D02*
Y109575D01*
X335425D01*
X341709Y104425D02*
X342724Y105441D01*
X338575Y104425D02*
X341709D01*
X342724Y105441D02*
Y108362D01*
X341512Y109575D02*
X342724Y108362D01*
X338575Y109575D02*
X341512D01*
X331331Y71890D02*
X335480D01*
X331331D02*
Y77039D01*
X335480D01*
X341764Y71890D02*
X342779Y72906D01*
X338630Y71890D02*
X341764D01*
X342779Y72906D02*
Y75827D01*
X341567Y77039D02*
X342779Y75827D01*
X338630Y77039D02*
X341567D01*
X310283Y72102D02*
Y77614D01*
X315283Y72102D02*
Y72858D01*
X305283Y72102D02*
X315283D01*
X305283D02*
Y72858D01*
Y76858D02*
Y77614D01*
X315283D01*
Y76858D02*
Y77614D01*
X255244Y315000D02*
X260756D01*
X260000Y320000D02*
X260756D01*
Y310000D02*
Y320000D01*
X260000Y310000D02*
X260756D01*
X255244D02*
X256000D01*
X255244D02*
Y320000D01*
X256000D01*
X255244Y350000D02*
X260756D01*
X260000Y355000D02*
X260756D01*
Y345000D02*
Y355000D01*
X260000Y345000D02*
X260756D01*
X255244D02*
X256000D01*
X255244D02*
Y355000D01*
X256000D01*
X230244Y315000D02*
X235756D01*
X235000Y320000D02*
X235756D01*
Y310000D02*
Y320000D01*
X235000Y310000D02*
X235756D01*
X230244D02*
X231000D01*
X230244D02*
Y320000D01*
X231000D01*
X230244Y350000D02*
X235756D01*
X235000Y355000D02*
X235756D01*
Y345000D02*
Y355000D01*
X235000Y345000D02*
X235756D01*
X230244D02*
X231000D01*
X230244D02*
Y355000D01*
X231000D01*
X210244Y315000D02*
X215756D01*
X215000Y320000D02*
X215756D01*
Y310000D02*
Y320000D01*
X215000Y310000D02*
X215756D01*
X210244D02*
X211000D01*
X210244D02*
Y320000D01*
X211000D01*
X210244Y350000D02*
X215756D01*
X215000Y355000D02*
X215756D01*
Y345000D02*
Y355000D01*
X215000Y345000D02*
X215756D01*
X210244D02*
X211000D01*
X210244D02*
Y355000D01*
X211000D01*
X190244Y315000D02*
X195756D01*
X195000Y320000D02*
X195756D01*
Y310000D02*
Y320000D01*
X195000Y310000D02*
X195756D01*
X190244D02*
X191000D01*
X190244D02*
Y320000D01*
X191000D01*
X190244Y350000D02*
X195756D01*
X195000Y355000D02*
X195756D01*
Y345000D02*
Y355000D01*
X195000Y345000D02*
X195756D01*
X190244D02*
X191000D01*
X190244D02*
Y355000D01*
X191000D01*
X170244Y315000D02*
X175756D01*
X175000Y320000D02*
X175756D01*
Y310000D02*
Y320000D01*
X175000Y310000D02*
X175756D01*
X170244D02*
X171000D01*
X170244D02*
Y320000D01*
X171000D01*
X170244Y350000D02*
X175756D01*
X175000Y355000D02*
X175756D01*
Y345000D02*
Y355000D01*
X175000Y345000D02*
X175756D01*
X170244D02*
X171000D01*
X170244D02*
Y355000D01*
X171000D01*
X150244Y315000D02*
X155756D01*
X155000Y320000D02*
X155756D01*
Y310000D02*
Y320000D01*
X155000Y310000D02*
X155756D01*
X150244D02*
X151000D01*
X150244D02*
Y320000D01*
X151000D01*
X150244Y350000D02*
X155756D01*
X155000Y355000D02*
X155756D01*
Y345000D02*
Y355000D01*
X155000Y345000D02*
X155756D01*
X150244D02*
X151000D01*
X150244D02*
Y355000D01*
X151000D01*
X319244Y355000D02*
X324756D01*
X324000Y360000D02*
X324756D01*
Y350000D02*
Y360000D01*
X324000Y350000D02*
X324756D01*
X319244D02*
X320000D01*
X319244D02*
Y360000D01*
X320000D01*
X319244Y340000D02*
X324756D01*
X324000Y345000D02*
X324756D01*
Y335000D02*
Y345000D01*
X324000Y335000D02*
X324756D01*
X319244D02*
X320000D01*
X319244D02*
Y345000D01*
X320000D01*
X304244Y340000D02*
X309756D01*
X309000Y345000D02*
X309756D01*
Y335000D02*
Y345000D01*
X309000Y335000D02*
X309756D01*
X304244D02*
X305000D01*
X304244D02*
Y345000D01*
X305000D01*
X304244Y355000D02*
X309756D01*
X309000Y360000D02*
X309756D01*
Y350000D02*
Y360000D01*
X309000Y350000D02*
X309756D01*
X304244D02*
X305000D01*
X304244D02*
Y360000D01*
X305000D01*
X334244Y340000D02*
X339756D01*
X339000Y345000D02*
X339756D01*
Y335000D02*
Y345000D01*
X339000Y335000D02*
X339756D01*
X334244D02*
X335000D01*
X334244D02*
Y345000D01*
X335000D01*
X334244Y355000D02*
X339756D01*
X339000Y360000D02*
X339756D01*
Y350000D02*
Y360000D01*
X339000Y350000D02*
X339756D01*
X334244D02*
X335000D01*
X334244D02*
Y360000D01*
X335000D01*
X349244Y340000D02*
X354756D01*
X354000Y345000D02*
X354756D01*
Y335000D02*
Y345000D01*
X354000Y335000D02*
X354756D01*
X349244D02*
X350000D01*
X349244D02*
Y345000D01*
X350000D01*
X349244Y355000D02*
X354756D01*
X354000Y360000D02*
X354756D01*
Y350000D02*
Y360000D01*
X354000Y350000D02*
X354756D01*
X349244D02*
X350000D01*
X349244D02*
Y360000D01*
X350000D01*
X290244Y170000D02*
X295756D01*
X295000Y175000D02*
X295756D01*
Y165000D02*
Y175000D01*
X295000Y165000D02*
X295756D01*
X290244D02*
X291000D01*
X290244D02*
Y175000D01*
X291000D01*
X290244Y185000D02*
X295756D01*
X295000Y190000D02*
X295756D01*
Y180000D02*
Y190000D01*
X295000Y180000D02*
X295756D01*
X290244D02*
X291000D01*
X290244D02*
Y190000D01*
X291000D01*
X290244Y200000D02*
X295756D01*
X295000Y205000D02*
X295756D01*
Y195000D02*
Y205000D01*
X295000Y195000D02*
X295756D01*
X290244D02*
X291000D01*
X290244D02*
Y205000D01*
X291000D01*
X290244Y215000D02*
X295756D01*
X295000Y220000D02*
X295756D01*
Y210000D02*
Y220000D01*
X295000Y210000D02*
X295756D01*
X290244D02*
X291000D01*
X290244D02*
Y220000D01*
X291000D01*
X270000Y209244D02*
Y214756D01*
X265000Y214000D02*
Y214756D01*
X275000D01*
Y214000D02*
Y214756D01*
Y209244D02*
Y210000D01*
X265000Y209244D02*
X275000D01*
X265000D02*
Y210000D01*
X255000Y209244D02*
Y214756D01*
X250000Y214000D02*
Y214756D01*
X260000D01*
Y214000D02*
Y214756D01*
Y209244D02*
Y210000D01*
X250000Y209244D02*
X260000D01*
X250000D02*
Y210000D01*
X225000Y209244D02*
Y214756D01*
X220000Y214000D02*
Y214756D01*
X230000D01*
Y214000D02*
Y214756D01*
Y209244D02*
Y210000D01*
X220000Y209244D02*
X230000D01*
X220000D02*
Y210000D01*
X240000Y209244D02*
Y214756D01*
X235000Y214000D02*
Y214756D01*
X245000D01*
Y214000D02*
Y214756D01*
Y209244D02*
Y210000D01*
X235000Y209244D02*
X245000D01*
X235000D02*
Y210000D01*
X290244Y305000D02*
X295756D01*
X290244Y300000D02*
X291000D01*
X290244D02*
Y310000D01*
X291000D01*
X295000D02*
X295756D01*
Y300000D02*
Y310000D01*
X295000Y300000D02*
X295756D01*
X290244Y290000D02*
X295756D01*
X290244Y285000D02*
X291000D01*
X290244D02*
Y295000D01*
X291000D01*
X295000D02*
X295756D01*
Y285000D02*
Y295000D01*
X295000Y285000D02*
X295756D01*
X290244Y275000D02*
X295756D01*
X290244Y270000D02*
X291000D01*
X290244D02*
Y280000D01*
X291000D01*
X295000D02*
X295756D01*
Y270000D02*
Y280000D01*
X295000Y270000D02*
X295756D01*
X290244Y260559D02*
X295756D01*
X290244Y255559D02*
X291000D01*
X290244D02*
Y265559D01*
X291000D01*
X295000D02*
X295756D01*
Y255559D02*
Y265559D01*
X295000Y255559D02*
X295756D01*
X270000Y260244D02*
Y265756D01*
X265000Y265000D02*
Y265756D01*
X275000D01*
Y265000D02*
Y265756D01*
Y260244D02*
Y261000D01*
X265000Y260244D02*
X275000D01*
X265000D02*
Y261000D01*
X255000Y260244D02*
Y265756D01*
X250000Y265000D02*
Y265756D01*
X260000D01*
Y265000D02*
Y265756D01*
Y260244D02*
Y261000D01*
X250000Y260244D02*
X260000D01*
X250000D02*
Y261000D01*
X240000Y260244D02*
Y265756D01*
X235000Y265000D02*
Y265756D01*
X245000D01*
Y265000D02*
Y265756D01*
Y260244D02*
Y261000D01*
X235000Y260244D02*
X245000D01*
X235000D02*
Y261000D01*
X225000Y260244D02*
Y265756D01*
X220000Y265000D02*
Y265756D01*
X230000D01*
Y265000D02*
Y265756D01*
Y260244D02*
Y261000D01*
X220000Y260244D02*
X230000D01*
X220000D02*
Y261000D01*
X109244Y185000D02*
X114756D01*
X114000Y190000D02*
X114756D01*
Y180000D02*
Y190000D01*
X114000Y180000D02*
X114756D01*
X109244D02*
X110000D01*
X109244D02*
Y190000D01*
X110000D01*
X109244Y170000D02*
X114756D01*
X114000Y175000D02*
X114756D01*
Y165000D02*
Y175000D01*
X114000Y165000D02*
X114756D01*
X109244D02*
X110000D01*
X109244D02*
Y175000D01*
X110000D01*
X109244Y200000D02*
X114756D01*
X114000Y205000D02*
X114756D01*
Y195000D02*
Y205000D01*
X114000Y195000D02*
X114756D01*
X109244D02*
X110000D01*
X109244D02*
Y205000D01*
X110000D01*
X109244Y215000D02*
X114756D01*
X114000Y220000D02*
X114756D01*
Y210000D02*
Y220000D01*
X114000Y210000D02*
X114756D01*
X109244D02*
X110000D01*
X109244D02*
Y220000D01*
X110000D01*
X130000Y205244D02*
Y210756D01*
X125000Y210000D02*
Y210756D01*
X135000D01*
Y210000D02*
Y210756D01*
Y205244D02*
Y206000D01*
X125000Y205244D02*
X135000D01*
X125000D02*
Y206000D01*
X145000Y205244D02*
Y210756D01*
X140000Y210000D02*
Y210756D01*
X150000D01*
Y210000D02*
Y210756D01*
Y205244D02*
Y206000D01*
X140000Y205244D02*
X150000D01*
X140000D02*
Y206000D01*
X160000Y205244D02*
Y210756D01*
X155000Y210000D02*
Y210756D01*
X165000D01*
Y210000D02*
Y210756D01*
Y205244D02*
Y206000D01*
X155000Y205244D02*
X165000D01*
X155000D02*
Y206000D01*
X174441Y205244D02*
Y210756D01*
X169441Y210000D02*
Y210756D01*
X179441D01*
Y210000D02*
Y210756D01*
Y205244D02*
Y206000D01*
X169441Y205244D02*
X179441D01*
X169441D02*
Y206000D01*
X65441Y310244D02*
Y315756D01*
X60441Y315000D02*
Y315756D01*
X70441D01*
Y315000D02*
Y315756D01*
Y310244D02*
Y311000D01*
X60441Y310244D02*
X70441D01*
X60441D02*
Y311000D01*
X50000Y310244D02*
Y315756D01*
X45000Y315000D02*
Y315756D01*
X55000D01*
Y315000D02*
Y315756D01*
Y310244D02*
Y311000D01*
X45000Y310244D02*
X55000D01*
X45000D02*
Y311000D01*
X65441Y295244D02*
Y300756D01*
X60441Y300000D02*
Y300756D01*
X70441D01*
Y300000D02*
Y300756D01*
Y295244D02*
Y296000D01*
X60441Y295244D02*
X70441D01*
X60441D02*
Y296000D01*
X50559Y295244D02*
Y300756D01*
X45559Y300000D02*
Y300756D01*
X55559D01*
Y300000D02*
Y300756D01*
Y295244D02*
Y296000D01*
X45559Y295244D02*
X55559D01*
X45559D02*
Y296000D01*
X109244Y260559D02*
X114756D01*
X109244Y255559D02*
X110000D01*
X109244D02*
Y265559D01*
X110000D01*
X114000D02*
X114756D01*
Y255559D02*
Y265559D01*
X114000Y255559D02*
X114756D01*
X109244Y275559D02*
X114756D01*
X109244Y270559D02*
X110000D01*
X109244D02*
Y280559D01*
X110000D01*
X114000D02*
X114756D01*
Y270559D02*
Y280559D01*
X114000Y270559D02*
X114756D01*
X109244Y290441D02*
X114756D01*
X109244Y285441D02*
X110000D01*
X109244D02*
Y295441D01*
X110000D01*
X114000D02*
X114756D01*
Y285441D02*
Y295441D01*
X114000Y285441D02*
X114756D01*
X65559Y340244D02*
Y345756D01*
X60559Y345000D02*
Y345756D01*
X70559D01*
Y345000D02*
Y345756D01*
Y340244D02*
Y341000D01*
X60559Y340244D02*
X70559D01*
X60559D02*
Y341000D01*
X50000Y340244D02*
Y345756D01*
X45000Y345000D02*
Y345756D01*
X55000D01*
Y345000D02*
Y345756D01*
Y340244D02*
Y341000D01*
X45000Y340244D02*
X55000D01*
X45000D02*
Y341000D01*
X65559Y325244D02*
Y330756D01*
X60559Y330000D02*
Y330756D01*
X70559D01*
Y330000D02*
Y330756D01*
Y325244D02*
Y326000D01*
X60559Y325244D02*
X70559D01*
X60559D02*
Y326000D01*
X50000Y325244D02*
Y330756D01*
X45000Y330000D02*
Y330756D01*
X55000D01*
Y330000D02*
Y330756D01*
Y325244D02*
Y326000D01*
X45000Y325244D02*
X55000D01*
X45000D02*
Y326000D01*
X169441Y259244D02*
Y264756D01*
X164441Y264000D02*
Y264756D01*
X174441D01*
Y264000D02*
Y264756D01*
Y259244D02*
Y260000D01*
X164441Y259244D02*
X174441D01*
X164441D02*
Y260000D01*
X154441Y259244D02*
Y264756D01*
X149441Y264000D02*
Y264756D01*
X159441D01*
Y264000D02*
Y264756D01*
Y259244D02*
Y260000D01*
X149441Y259244D02*
X159441D01*
X149441D02*
Y260000D01*
X139000Y259244D02*
Y264756D01*
X134000Y264000D02*
Y264756D01*
X144000D01*
Y264000D02*
Y264756D01*
Y259244D02*
Y260000D01*
X134000Y259244D02*
X144000D01*
X134000D02*
Y260000D01*
D14*
X607937Y356535D02*
X639937D01*
X607937Y350535D02*
Y356535D01*
X589937Y350535D02*
X607937D01*
X589937Y202535D02*
Y350535D01*
Y202535D02*
X607937D01*
Y196535D02*
Y202535D01*
Y196535D02*
X639937D01*
X298425Y88463D02*
X299425Y89463D01*
X301424D01*
X302424Y88463D01*
Y87463D01*
X301424Y86464D01*
X300425D01*
X301424D01*
X302424Y85464D01*
Y84464D01*
X301424Y83465D01*
X299425D01*
X298425Y84464D01*
X304423Y89463D02*
Y85464D01*
X306423Y83465D01*
X308422Y85464D01*
Y89463D01*
X310421Y88463D02*
X311421Y89463D01*
X313420D01*
X314420Y88463D01*
Y87463D01*
X313420Y86464D01*
X312421D01*
X313420D01*
X314420Y85464D01*
Y84464D01*
X313420Y83465D01*
X311421D01*
X310421Y84464D01*
X322417Y83465D02*
Y89463D01*
X325416D01*
X326416Y88463D01*
Y86464D01*
X325416Y85464D01*
X322417D01*
X329415Y83465D02*
X331415D01*
X332414Y84464D01*
Y86464D01*
X331415Y87463D01*
X329415D01*
X328415Y86464D01*
Y84464D01*
X329415Y83465D01*
X334414Y87463D02*
Y84464D01*
X335413Y83465D01*
X336413Y84464D01*
X337413Y83465D01*
X338412Y84464D01*
Y87463D01*
X343411Y83465D02*
X341411D01*
X340412Y84464D01*
Y86464D01*
X341411Y87463D01*
X343411D01*
X344410Y86464D01*
Y85464D01*
X340412D01*
X346410Y87463D02*
Y83465D01*
Y85464D01*
X347409Y86464D01*
X348409Y87463D01*
X349409D01*
X362404Y88463D02*
X361405Y89463D01*
X359405D01*
X358406Y88463D01*
Y87463D01*
X359405Y86464D01*
X361405D01*
X362404Y85464D01*
Y84464D01*
X361405Y83465D01*
X359405D01*
X358406Y84464D01*
X364404Y87463D02*
Y84464D01*
X365404Y83465D01*
X368403D01*
Y87463D01*
X370402Y81465D02*
Y87463D01*
X373401D01*
X374401Y86464D01*
Y84464D01*
X373401Y83465D01*
X370402D01*
X376400Y81465D02*
Y87463D01*
X379399D01*
X380399Y86464D01*
Y84464D01*
X379399Y83465D01*
X376400D01*
X382398D02*
X384397D01*
X383398D01*
Y89463D01*
X382398D01*
X387396Y87463D02*
Y84464D01*
X388396Y83465D01*
X391395D01*
Y82465D01*
X390395Y81465D01*
X389396D01*
X391395Y83465D02*
Y87463D01*
X302424Y120171D02*
X298425D01*
Y117172D01*
X300425Y118172D01*
X301424D01*
X302424Y117172D01*
Y115173D01*
X301424Y114173D01*
X299425D01*
X298425Y115173D01*
X304423Y120171D02*
Y116173D01*
X306423Y114173D01*
X308422Y116173D01*
Y120171D01*
X316419Y114173D02*
Y120171D01*
X319418D01*
X320418Y119172D01*
Y117172D01*
X319418Y116173D01*
X316419D01*
X323417Y114173D02*
X325416D01*
X326416Y115173D01*
Y117172D01*
X325416Y118172D01*
X323417D01*
X322417Y117172D01*
Y115173D01*
X323417Y114173D01*
X328415Y118172D02*
Y115173D01*
X329415Y114173D01*
X330415Y115173D01*
X331415Y114173D01*
X332414Y115173D01*
Y118172D01*
X337413Y114173D02*
X335413D01*
X334414Y115173D01*
Y117172D01*
X335413Y118172D01*
X337413D01*
X338412Y117172D01*
Y116173D01*
X334414D01*
X340412Y118172D02*
Y114173D01*
Y116173D01*
X341411Y117172D01*
X342411Y118172D01*
X343411D01*
X356406Y119172D02*
X355407Y120171D01*
X353407D01*
X352408Y119172D01*
Y118172D01*
X353407Y117172D01*
X355407D01*
X356406Y116173D01*
Y115173D01*
X355407Y114173D01*
X353407D01*
X352408Y115173D01*
X358406Y118172D02*
Y115173D01*
X359405Y114173D01*
X362404D01*
Y118172D01*
X364404Y112174D02*
Y118172D01*
X367403D01*
X368403Y117172D01*
Y115173D01*
X367403Y114173D01*
X364404D01*
X370402Y112174D02*
Y118172D01*
X373401D01*
X374401Y117172D01*
Y115173D01*
X373401Y114173D01*
X370402D01*
X376400D02*
X378399D01*
X377400D01*
Y120171D01*
X376400D01*
X381398Y118172D02*
Y115173D01*
X382398Y114173D01*
X385397D01*
Y113174D01*
X384397Y112174D01*
X383398D01*
X385397Y114173D02*
Y118172D01*
X556000Y24000D02*
Y29998D01*
X558999D01*
X559999Y28998D01*
Y26999D01*
X558999Y25999D01*
X556000D01*
X557999D02*
X559999Y24000D01*
X561998Y28998D02*
X562998Y29998D01*
X564997D01*
X565997Y28998D01*
Y27999D01*
X564997Y26999D01*
X565997Y25999D01*
Y25000D01*
X564997Y24000D01*
X562998D01*
X561998Y25000D01*
Y25999D01*
X562998Y26999D01*
X561998Y27999D01*
Y28998D01*
X562998Y26999D02*
X564997D01*
X571995Y29998D02*
X567996D01*
Y26999D01*
X569995Y27999D01*
X570995D01*
X571995Y26999D01*
Y25000D01*
X570995Y24000D01*
X568996D01*
X567996Y25000D01*
X601999Y28998D02*
X600999Y29998D01*
X599000D01*
X598000Y28998D01*
Y25000D01*
X599000Y24000D01*
X600999D01*
X601999Y25000D01*
X603998Y24000D02*
X605997D01*
X604998D01*
Y29998D01*
X603998Y28998D01*
X611996Y24000D02*
Y29998D01*
X608996Y26999D01*
X612995D01*
X449287Y179766D02*
Y174767D01*
X450287Y173768D01*
X452286D01*
X453286Y174767D01*
Y179766D01*
X455286Y178766D02*
X456285Y179766D01*
X458285D01*
X459284Y178766D01*
Y177766D01*
X458285Y176767D01*
X457285D01*
X458285D01*
X459284Y175767D01*
Y174767D01*
X458285Y173768D01*
X456285D01*
X455286Y174767D01*
X526000Y189000D02*
Y194998D01*
X528999D01*
X529999Y193998D01*
Y191999D01*
X528999Y190999D01*
X526000D01*
X527999D02*
X529999Y189000D01*
X531998Y193998D02*
X532998Y194998D01*
X534997D01*
X535997Y193998D01*
Y192999D01*
X534997Y191999D01*
X535997Y190999D01*
Y190000D01*
X534997Y189000D01*
X532998D01*
X531998Y190000D01*
Y190999D01*
X532998Y191999D01*
X531998Y192999D01*
Y193998D01*
X532998Y191999D02*
X534997D01*
X540995Y189000D02*
Y194998D01*
X537996Y191999D01*
X541995D01*
X526000Y198000D02*
Y203998D01*
X528999D01*
X529999Y202998D01*
Y200999D01*
X528999Y199999D01*
X526000D01*
X527999D02*
X529999Y198000D01*
X531998Y202998D02*
X532998Y203998D01*
X534997D01*
X535997Y202998D01*
Y201999D01*
X534997Y200999D01*
X535997Y199999D01*
Y199000D01*
X534997Y198000D01*
X532998D01*
X531998Y199000D01*
Y199999D01*
X532998Y200999D01*
X531998Y201999D01*
Y202998D01*
X532998Y200999D02*
X534997D01*
X537996Y202998D02*
X538996Y203998D01*
X540995D01*
X541995Y202998D01*
Y201999D01*
X540995Y200999D01*
X539995D01*
X540995D01*
X541995Y199999D01*
Y199000D01*
X540995Y198000D01*
X538996D01*
X537996Y199000D01*
X526000Y172000D02*
Y177998D01*
X528999D01*
X529999Y176998D01*
Y174999D01*
X528999Y173999D01*
X526000D01*
X527999D02*
X529999Y172000D01*
X531998Y176998D02*
X532998Y177998D01*
X534997D01*
X535997Y176998D01*
Y175999D01*
X534997Y174999D01*
X535997Y173999D01*
Y173000D01*
X534997Y172000D01*
X532998D01*
X531998Y173000D01*
Y173999D01*
X532998Y174999D01*
X531998Y175999D01*
Y176998D01*
X532998Y174999D02*
X534997D01*
X541995Y172000D02*
X537996D01*
X541995Y175999D01*
Y176998D01*
X540995Y177998D01*
X538996D01*
X537996Y176998D01*
X526000Y181000D02*
Y186998D01*
X528999D01*
X529999Y185998D01*
Y183999D01*
X528999Y182999D01*
X526000D01*
X527999D02*
X529999Y181000D01*
X531998Y185998D02*
X532998Y186998D01*
X534997D01*
X535997Y185998D01*
Y184999D01*
X534997Y183999D01*
X535997Y182999D01*
Y182000D01*
X534997Y181000D01*
X532998D01*
X531998Y182000D01*
Y182999D01*
X532998Y183999D01*
X531998Y184999D01*
Y185998D01*
X532998Y183999D02*
X534997D01*
X537996Y181000D02*
X539995D01*
X538996D01*
Y186998D01*
X537996Y185998D01*
X534000Y319000D02*
Y324998D01*
X536999D01*
X537999Y323998D01*
Y321999D01*
X536999Y320999D01*
X534000D01*
X535999D02*
X537999Y319000D01*
X539998Y323998D02*
X540998Y324998D01*
X542997D01*
X543997Y323998D01*
Y322999D01*
X542997Y321999D01*
X543997Y320999D01*
Y320000D01*
X542997Y319000D01*
X540998D01*
X539998Y320000D01*
Y320999D01*
X540998Y321999D01*
X539998Y322999D01*
Y323998D01*
X540998Y321999D02*
X542997D01*
X545996Y323998D02*
X546996Y324998D01*
X548995D01*
X549995Y323998D01*
Y320000D01*
X548995Y319000D01*
X546996D01*
X545996Y320000D01*
Y323998D01*
X523000Y308000D02*
Y313998D01*
X525999D01*
X526999Y312998D01*
Y310999D01*
X525999Y309999D01*
X523000D01*
X524999D02*
X526999Y308000D01*
X528998Y313998D02*
X532997D01*
Y312998D01*
X528998Y309000D01*
Y308000D01*
X534996Y309000D02*
X535996Y308000D01*
X537995D01*
X538995Y309000D01*
Y312998D01*
X537995Y313998D01*
X535996D01*
X534996Y312998D01*
Y311999D01*
X535996Y310999D01*
X538995D01*
X526000Y215000D02*
Y220998D01*
X528999D01*
X529999Y219998D01*
Y217999D01*
X528999Y216999D01*
X526000D01*
X527999D02*
X529999Y215000D01*
X531998Y220998D02*
X535997D01*
Y219998D01*
X531998Y216000D01*
Y215000D01*
X537996Y219998D02*
X538996Y220998D01*
X540995D01*
X541995Y219998D01*
Y218999D01*
X540995Y217999D01*
X541995Y216999D01*
Y216000D01*
X540995Y215000D01*
X538996D01*
X537996Y216000D01*
Y216999D01*
X538996Y217999D01*
X537996Y218999D01*
Y219998D01*
X538996Y217999D02*
X540995D01*
X526000Y206000D02*
Y211998D01*
X528999D01*
X529999Y210998D01*
Y208999D01*
X528999Y207999D01*
X526000D01*
X527999D02*
X529999Y206000D01*
X531998Y211998D02*
X535997D01*
Y210998D01*
X531998Y207000D01*
Y206000D01*
X537996Y211998D02*
X541995D01*
Y210998D01*
X537996Y207000D01*
Y206000D01*
X526000Y223000D02*
Y228998D01*
X528999D01*
X529999Y227998D01*
Y225999D01*
X528999Y224999D01*
X526000D01*
X527999D02*
X529999Y223000D01*
X531998Y228998D02*
X535997D01*
Y227998D01*
X531998Y224000D01*
Y223000D01*
X541995Y228998D02*
X539995Y227998D01*
X537996Y225999D01*
Y224000D01*
X538996Y223000D01*
X540995D01*
X541995Y224000D01*
Y224999D01*
X540995Y225999D01*
X537996D01*
X526000Y155000D02*
Y160998D01*
X528999D01*
X529999Y159998D01*
Y157999D01*
X528999Y156999D01*
X526000D01*
X527999D02*
X529999Y155000D01*
X531998Y160998D02*
X535997D01*
Y159998D01*
X531998Y156000D01*
Y155000D01*
X541995Y160998D02*
X537996D01*
Y157999D01*
X539995Y158999D01*
X540995D01*
X541995Y157999D01*
Y156000D01*
X540995Y155000D01*
X538996D01*
X537996Y156000D01*
X526000Y231000D02*
Y236998D01*
X528999D01*
X529999Y235998D01*
Y233999D01*
X528999Y232999D01*
X526000D01*
X527999D02*
X529999Y231000D01*
X531998Y236998D02*
X535997D01*
Y235998D01*
X531998Y232000D01*
Y231000D01*
X540995D02*
Y236998D01*
X537996Y233999D01*
X541995D01*
X526000Y163000D02*
Y168998D01*
X528999D01*
X529999Y167998D01*
Y165999D01*
X528999Y164999D01*
X526000D01*
X527999D02*
X529999Y163000D01*
X531998Y168998D02*
X535997D01*
Y167998D01*
X531998Y164000D01*
Y163000D01*
X537996Y167998D02*
X538996Y168998D01*
X540995D01*
X541995Y167998D01*
Y166999D01*
X540995Y165999D01*
X539995D01*
X540995D01*
X541995Y164999D01*
Y164000D01*
X540995Y163000D01*
X538996D01*
X537996Y164000D01*
X526000Y239000D02*
Y244998D01*
X528999D01*
X529999Y243998D01*
Y241999D01*
X528999Y240999D01*
X526000D01*
X527999D02*
X529999Y239000D01*
X531998Y244998D02*
X535997D01*
Y243998D01*
X531998Y240000D01*
Y239000D01*
X541995D02*
X537996D01*
X541995Y242999D01*
Y243998D01*
X540995Y244998D01*
X538996D01*
X537996Y243998D01*
X526000Y147000D02*
Y152998D01*
X528999D01*
X529999Y151998D01*
Y149999D01*
X528999Y148999D01*
X526000D01*
X527999D02*
X529999Y147000D01*
X531998Y152998D02*
X535997D01*
Y151998D01*
X531998Y148000D01*
Y147000D01*
X537996D02*
X539995D01*
X538996D01*
Y152998D01*
X537996Y151998D01*
X526000Y248000D02*
Y253998D01*
X528999D01*
X529999Y252998D01*
Y250999D01*
X528999Y249999D01*
X526000D01*
X527999D02*
X529999Y248000D01*
X531998Y253998D02*
X535997D01*
Y252998D01*
X531998Y249000D01*
Y248000D01*
X537996Y252998D02*
X538996Y253998D01*
X540995D01*
X541995Y252998D01*
Y249000D01*
X540995Y248000D01*
X538996D01*
X537996Y249000D01*
Y252998D01*
X526000Y138000D02*
Y143998D01*
X528999D01*
X529999Y142998D01*
Y140999D01*
X528999Y139999D01*
X526000D01*
X527999D02*
X529999Y138000D01*
X535997Y143998D02*
X533997Y142998D01*
X531998Y140999D01*
Y139000D01*
X532998Y138000D01*
X534997D01*
X535997Y139000D01*
Y139999D01*
X534997Y140999D01*
X531998D01*
X537996Y139000D02*
X538996Y138000D01*
X540995D01*
X541995Y139000D01*
Y142998D01*
X540995Y143998D01*
X538996D01*
X537996Y142998D01*
Y141999D01*
X538996Y140999D01*
X541995D01*
X526000Y256000D02*
Y261998D01*
X528999D01*
X529999Y260998D01*
Y258999D01*
X528999Y257999D01*
X526000D01*
X527999D02*
X529999Y256000D01*
X535997Y261998D02*
X533997Y260998D01*
X531998Y258999D01*
Y257000D01*
X532998Y256000D01*
X534997D01*
X535997Y257000D01*
Y257999D01*
X534997Y258999D01*
X531998D01*
X537996Y260998D02*
X538996Y261998D01*
X540995D01*
X541995Y260998D01*
Y259999D01*
X540995Y258999D01*
X541995Y257999D01*
Y257000D01*
X540995Y256000D01*
X538996D01*
X537996Y257000D01*
Y257999D01*
X538996Y258999D01*
X537996Y259999D01*
Y260998D01*
X538996Y258999D02*
X540995D01*
X526000Y265000D02*
Y270998D01*
X528999D01*
X529999Y269998D01*
Y267999D01*
X528999Y266999D01*
X526000D01*
X527999D02*
X529999Y265000D01*
X535997Y270998D02*
X533997Y269998D01*
X531998Y267999D01*
Y266000D01*
X532998Y265000D01*
X534997D01*
X535997Y266000D01*
Y266999D01*
X534997Y267999D01*
X531998D01*
X537996Y270998D02*
X541995D01*
Y269998D01*
X537996Y266000D01*
Y265000D01*
X405000Y40998D02*
X408999Y35000D01*
Y40998D02*
X405000Y35000D01*
X410998D02*
X412997D01*
X411998D01*
Y40998D01*
X410998Y39998D01*
X415996D02*
X416996Y40998D01*
X418996D01*
X419995Y39998D01*
Y36000D01*
X418996Y35000D01*
X416996D01*
X415996Y36000D01*
Y39998D01*
X410000Y52998D02*
X413999Y47000D01*
Y52998D02*
X410000Y47000D01*
X415998Y48000D02*
X416998Y47000D01*
X418997D01*
X419997Y48000D01*
Y51998D01*
X418997Y52998D01*
X416998D01*
X415998Y51998D01*
Y50999D01*
X416998Y49999D01*
X419997D01*
X534905Y354850D02*
Y360848D01*
X537905D01*
X538904Y359849D01*
Y357849D01*
X537905Y356850D01*
X534905D01*
X536905D02*
X538904Y354850D01*
X544902Y360848D02*
X542903Y359849D01*
X540904Y357849D01*
Y355850D01*
X541903Y354850D01*
X543903D01*
X544902Y355850D01*
Y356850D01*
X543903Y357849D01*
X540904D01*
X546902Y359849D02*
X547901Y360848D01*
X549901D01*
X550900Y359849D01*
Y358849D01*
X549901Y357849D01*
X548901D01*
X549901D01*
X550900Y356850D01*
Y355850D01*
X549901Y354850D01*
X547901D01*
X546902Y355850D01*
X522835Y329134D02*
Y335132D01*
X525834D01*
X526833Y334132D01*
Y332133D01*
X525834Y331133D01*
X522835D01*
X524834D02*
X526833Y329134D01*
X532831Y335132D02*
X530832Y334132D01*
X528833Y332133D01*
Y330134D01*
X529832Y329134D01*
X531832D01*
X532831Y330134D01*
Y331133D01*
X531832Y332133D01*
X528833D01*
X534831Y329134D02*
X536830D01*
X535830D01*
Y335132D01*
X534831Y334132D01*
X495669Y375984D02*
Y381982D01*
X498668D01*
X499668Y380983D01*
Y378983D01*
X498668Y377984D01*
X495669D01*
X497669D02*
X499668Y375984D01*
X505666Y381982D02*
X503667Y380983D01*
X501667Y378983D01*
Y376984D01*
X502667Y375984D01*
X504666D01*
X505666Y376984D01*
Y377984D01*
X504666Y378983D01*
X501667D01*
X511664Y381982D02*
X507665D01*
Y378983D01*
X509665Y379983D01*
X510664D01*
X511664Y378983D01*
Y376984D01*
X510664Y375984D01*
X508665D01*
X507665Y376984D01*
X466535Y388976D02*
Y394974D01*
X469534D01*
X470534Y393975D01*
Y391975D01*
X469534Y390976D01*
X466535D01*
X468535D02*
X470534Y388976D01*
X476532Y394974D02*
X474533Y393975D01*
X472534Y391975D01*
Y389976D01*
X473533Y388976D01*
X475532D01*
X476532Y389976D01*
Y390976D01*
X475532Y391975D01*
X472534D01*
X482530Y394974D02*
X480531Y393975D01*
X478532Y391975D01*
Y389976D01*
X479531Y388976D01*
X481531D01*
X482530Y389976D01*
Y390976D01*
X481531Y391975D01*
X478532D01*
X523622Y275590D02*
Y281589D01*
X526621D01*
X527621Y280589D01*
Y278590D01*
X526621Y277590D01*
X523622D01*
X525621D02*
X527621Y275590D01*
X533619Y281589D02*
X531620Y280589D01*
X529620Y278590D01*
Y276590D01*
X530620Y275590D01*
X532619D01*
X533619Y276590D01*
Y277590D01*
X532619Y278590D01*
X529620D01*
X538617Y275590D02*
Y281589D01*
X535618Y278590D01*
X539617D01*
X534905Y296850D02*
Y302849D01*
X537905D01*
X538904Y301849D01*
Y299849D01*
X537905Y298850D01*
X534905D01*
X536905D02*
X538904Y296850D01*
X544902Y302849D02*
X542903Y301849D01*
X540904Y299849D01*
Y297850D01*
X541903Y296850D01*
X543903D01*
X544902Y297850D01*
Y298850D01*
X543903Y299849D01*
X540904D01*
X550900Y296850D02*
X546902D01*
X550900Y300849D01*
Y301849D01*
X549901Y302849D01*
X547901D01*
X546902Y301849D01*
X173800Y143298D02*
Y138300D01*
X174800Y137300D01*
X176799D01*
X177799Y138300D01*
Y143298D01*
X179798Y137300D02*
X181797D01*
X180798D01*
Y143298D01*
X179798Y142298D01*
X303150Y95669D02*
Y101667D01*
X306149D01*
X307148Y100668D01*
Y98668D01*
X306149Y97669D01*
X303150D01*
X305149D02*
X307148Y95669D01*
X313146Y101667D02*
X311147Y100668D01*
X309148Y98668D01*
Y96669D01*
X310147Y95669D01*
X312147D01*
X313146Y96669D01*
Y97669D01*
X312147Y98668D01*
X309148D01*
X315146Y100668D02*
X316145Y101667D01*
X318145D01*
X319144Y100668D01*
Y96669D01*
X318145Y95669D01*
X316145D01*
X315146Y96669D01*
Y100668D01*
X261085Y103817D02*
X260086Y104817D01*
X258086D01*
X257087Y103817D01*
Y99819D01*
X258086Y98819D01*
X260086D01*
X261085Y99819D01*
X263085Y103817D02*
X264084Y104817D01*
X266084D01*
X267083Y103817D01*
Y102818D01*
X266084Y101818D01*
X265084D01*
X266084D01*
X267083Y100818D01*
Y99819D01*
X266084Y98819D01*
X264084D01*
X263085Y99819D01*
X217385Y104998D02*
X216385Y105998D01*
X214386D01*
X213386Y104998D01*
Y101000D01*
X214386Y100000D01*
X216385D01*
X217385Y101000D01*
X223383Y100000D02*
X219384D01*
X223383Y103999D01*
Y104998D01*
X222383Y105998D01*
X220384D01*
X219384Y104998D01*
X137799Y119798D02*
X136799Y120798D01*
X134800D01*
X133800Y119798D01*
Y115800D01*
X134800Y114800D01*
X136799D01*
X137799Y115800D01*
X139798Y114800D02*
X141797D01*
X140798D01*
Y120798D01*
X139798Y119798D01*
X589295Y366042D02*
X593294Y360044D01*
Y366042D02*
X589295Y360044D01*
X595293Y365042D02*
X596293Y366042D01*
X598292D01*
X599292Y365042D01*
Y364043D01*
X598292Y363043D01*
X599292Y362043D01*
Y361044D01*
X598292Y360044D01*
X596293D01*
X595293Y361044D01*
Y362043D01*
X596293Y363043D01*
X595293Y364043D01*
Y365042D01*
X596293Y363043D02*
X598292D01*
X3543Y385132D02*
X7542Y379134D01*
Y385132D02*
X3543Y379134D01*
X9541Y385132D02*
X13540D01*
Y384132D01*
X9541Y380134D01*
Y379134D01*
X40551Y203636D02*
X44550Y197638D01*
Y203636D02*
X40551Y197638D01*
X50548Y203636D02*
X48549Y202636D01*
X46549Y200637D01*
Y198637D01*
X47549Y197638D01*
X49548D01*
X50548Y198637D01*
Y199637D01*
X49548Y200637D01*
X46549D01*
X40551Y247730D02*
X44550Y241732D01*
Y247730D02*
X40551Y241732D01*
X50548Y247730D02*
X46549D01*
Y244731D01*
X48549Y245731D01*
X49548D01*
X50548Y244731D01*
Y242732D01*
X49548Y241732D01*
X47549D01*
X46549Y242732D01*
X40157Y291825D02*
X44156Y285827D01*
Y291825D02*
X40157Y285827D01*
X49155D02*
Y291825D01*
X46156Y288826D01*
X50154D01*
X268110Y362297D02*
X272109Y356299D01*
Y362297D02*
X268110Y356299D01*
X274108Y361298D02*
X275108Y362297D01*
X277107D01*
X278107Y361298D01*
Y360298D01*
X277107Y359298D01*
X276108D01*
X277107D01*
X278107Y358299D01*
Y357299D01*
X277107Y356299D01*
X275108D01*
X274108Y357299D01*
X157874Y362297D02*
X161873Y356299D01*
Y362297D02*
X157874Y356299D01*
X167871D02*
X163872D01*
X167871Y360298D01*
Y361298D01*
X166871Y362297D01*
X164872D01*
X163872Y361298D01*
X49213Y362297D02*
X53211Y356299D01*
Y362297D02*
X49213Y356299D01*
X55211D02*
X57210D01*
X56210D01*
Y362297D01*
X55211Y361298D01*
X452000Y304998D02*
Y300000D01*
X453000Y299000D01*
X454999D01*
X455999Y300000D01*
Y304998D01*
X461997D02*
X457998D01*
Y301999D01*
X459997Y302999D01*
X460997D01*
X461997Y301999D01*
Y300000D01*
X460997Y299000D01*
X458998D01*
X457998Y300000D01*
X450000Y358998D02*
Y354000D01*
X451000Y353000D01*
X452999D01*
X453999Y354000D01*
Y358998D01*
X458997Y353000D02*
Y358998D01*
X455998Y355999D01*
X459997D01*
X449000Y243998D02*
Y239000D01*
X450000Y238000D01*
X451999D01*
X452999Y239000D01*
Y243998D01*
X458997Y238000D02*
X454998D01*
X458997Y241999D01*
Y242998D01*
X457997Y243998D01*
X455998D01*
X454998Y242998D01*
X298000Y167000D02*
Y172998D01*
X300999D01*
X301999Y171998D01*
Y169999D01*
X300999Y168999D01*
X298000D01*
X299999D02*
X301999Y167000D01*
X307997Y172998D02*
X303998D01*
Y169999D01*
X305997Y170999D01*
X306997D01*
X307997Y169999D01*
Y168000D01*
X306997Y167000D01*
X304998D01*
X303998Y168000D01*
X309996D02*
X310996Y167000D01*
X312995D01*
X313995Y168000D01*
Y171998D01*
X312995Y172998D01*
X310996D01*
X309996Y171998D01*
Y170999D01*
X310996Y169999D01*
X313995D01*
X90000Y167000D02*
Y172998D01*
X92999D01*
X93999Y171998D01*
Y169999D01*
X92999Y168999D01*
X90000D01*
X91999D02*
X93999Y167000D01*
X99997Y172998D02*
X95998D01*
Y169999D01*
X97997Y170999D01*
X98997D01*
X99997Y169999D01*
Y168000D01*
X98997Y167000D01*
X96998D01*
X95998Y168000D01*
X101996Y171998D02*
X102996Y172998D01*
X104995D01*
X105995Y171998D01*
Y170999D01*
X104995Y169999D01*
X105995Y168999D01*
Y168000D01*
X104995Y167000D01*
X102996D01*
X101996Y168000D01*
Y168999D01*
X102996Y169999D01*
X101996Y170999D01*
Y171998D01*
X102996Y169999D02*
X104995D01*
X267000Y207000D02*
X272998D01*
Y204001D01*
X271998Y203001D01*
X269999D01*
X268999Y204001D01*
Y207000D01*
Y205001D02*
X267000Y203001D01*
X272998Y197003D02*
Y201002D01*
X269999D01*
X270999Y199003D01*
Y198003D01*
X269999Y197003D01*
X268000D01*
X267000Y198003D01*
Y200002D01*
X268000Y201002D01*
X272998Y195004D02*
Y191005D01*
X271998D01*
X268000Y195004D01*
X267000D01*
X252000Y207000D02*
X257998D01*
Y204001D01*
X256998Y203001D01*
X254999D01*
X253999Y204001D01*
Y207000D01*
Y205001D02*
X252000Y203001D01*
X257998Y197003D02*
Y201002D01*
X254999D01*
X255999Y199003D01*
Y198003D01*
X254999Y197003D01*
X253000D01*
X252000Y198003D01*
Y200002D01*
X253000Y201002D01*
X257998Y191005D02*
X256998Y193005D01*
X254999Y195004D01*
X253000D01*
X252000Y194004D01*
Y192005D01*
X253000Y191005D01*
X253999D01*
X254999Y192005D01*
Y195004D01*
X237000Y207000D02*
X242998D01*
Y204001D01*
X241998Y203001D01*
X239999D01*
X238999Y204001D01*
Y207000D01*
Y205001D02*
X237000Y203001D01*
X242998Y197003D02*
Y201002D01*
X239999D01*
X240999Y199003D01*
Y198003D01*
X239999Y197003D01*
X238000D01*
X237000Y198003D01*
Y200002D01*
X238000Y201002D01*
X242998Y191005D02*
Y195004D01*
X239999D01*
X240999Y193005D01*
Y192005D01*
X239999Y191005D01*
X238000D01*
X237000Y192005D01*
Y194004D01*
X238000Y195004D01*
X222000Y207000D02*
X227998D01*
Y204001D01*
X226998Y203001D01*
X224999D01*
X223999Y204001D01*
Y207000D01*
Y205001D02*
X222000Y203001D01*
X227998Y197003D02*
Y201002D01*
X224999D01*
X225999Y199003D01*
Y198003D01*
X224999Y197003D01*
X223000D01*
X222000Y198003D01*
Y200002D01*
X223000Y201002D01*
X222000Y192005D02*
X227998D01*
X224999Y195004D01*
Y191005D01*
X298000Y182000D02*
Y187998D01*
X300999D01*
X301999Y186998D01*
Y184999D01*
X300999Y183999D01*
X298000D01*
X299999D02*
X301999Y182000D01*
X307997Y187998D02*
X303998D01*
Y184999D01*
X305997Y185999D01*
X306997D01*
X307997Y184999D01*
Y183000D01*
X306997Y182000D01*
X304998D01*
X303998Y183000D01*
X309996Y186998D02*
X310996Y187998D01*
X312995D01*
X313995Y186998D01*
Y185999D01*
X312995Y184999D01*
X311996D01*
X312995D01*
X313995Y183999D01*
Y183000D01*
X312995Y182000D01*
X310996D01*
X309996Y183000D01*
X90000Y182000D02*
Y187998D01*
X92999D01*
X93999Y186998D01*
Y184999D01*
X92999Y183999D01*
X90000D01*
X91999D02*
X93999Y182000D01*
X99997Y187998D02*
X95998D01*
Y184999D01*
X97997Y185999D01*
X98997D01*
X99997Y184999D01*
Y183000D01*
X98997Y182000D01*
X96998D01*
X95998Y183000D01*
X105995Y182000D02*
X101996D01*
X105995Y185999D01*
Y186998D01*
X104995Y187998D01*
X102996D01*
X101996Y186998D01*
X172441Y203000D02*
X178439D01*
Y200001D01*
X177439Y199001D01*
X175440D01*
X174440Y200001D01*
Y203000D01*
Y201001D02*
X172441Y199001D01*
X178439Y193003D02*
Y197002D01*
X175440D01*
X176440Y195003D01*
Y194003D01*
X175440Y193003D01*
X173441D01*
X172441Y194003D01*
Y196002D01*
X173441Y197002D01*
X172441Y191004D02*
Y189005D01*
Y190004D01*
X178439D01*
X177439Y191004D01*
X159000Y203000D02*
X164998D01*
Y200001D01*
X163998Y199001D01*
X161999D01*
X160999Y200001D01*
Y203000D01*
Y201001D02*
X159000Y199001D01*
X164998Y193003D02*
Y197002D01*
X161999D01*
X162999Y195003D01*
Y194003D01*
X161999Y193003D01*
X160000D01*
X159000Y194003D01*
Y196002D01*
X160000Y197002D01*
X163998Y191004D02*
X164998Y190004D01*
Y188005D01*
X163998Y187005D01*
X160000D01*
X159000Y188005D01*
Y190004D01*
X160000Y191004D01*
X163998D01*
X143000Y203000D02*
X148998D01*
Y200001D01*
X147998Y199001D01*
X145999D01*
X144999Y200001D01*
Y203000D01*
Y201001D02*
X143000Y199001D01*
Y194003D02*
X148998D01*
X145999Y197002D01*
Y193003D01*
X144000Y191004D02*
X143000Y190004D01*
Y188005D01*
X144000Y187005D01*
X147998D01*
X148998Y188005D01*
Y190004D01*
X147998Y191004D01*
X146999D01*
X145999Y190004D01*
Y187005D01*
X127000Y203000D02*
X132998D01*
Y200001D01*
X131998Y199001D01*
X129999D01*
X128999Y200001D01*
Y203000D01*
Y201001D02*
X127000Y199001D01*
Y194003D02*
X132998D01*
X129999Y197002D01*
Y193003D01*
X131998Y191004D02*
X132998Y190004D01*
Y188005D01*
X131998Y187005D01*
X130999D01*
X129999Y188005D01*
X128999Y187005D01*
X128000D01*
X127000Y188005D01*
Y190004D01*
X128000Y191004D01*
X128999D01*
X129999Y190004D01*
X130999Y191004D01*
X131998D01*
X129999Y190004D02*
Y188005D01*
X298000Y198000D02*
Y203998D01*
X300999D01*
X301999Y202998D01*
Y200999D01*
X300999Y199999D01*
X298000D01*
X299999D02*
X301999Y198000D01*
X306997D02*
Y203998D01*
X303998Y200999D01*
X307997D01*
X309996Y203998D02*
X313995D01*
Y202998D01*
X309996Y199000D01*
Y198000D01*
X91000Y196000D02*
Y201998D01*
X93999D01*
X94999Y200998D01*
Y198999D01*
X93999Y197999D01*
X91000D01*
X92999D02*
X94999Y196000D01*
X99997D02*
Y201998D01*
X96998Y198999D01*
X100997D01*
X106995Y201998D02*
X104996Y200998D01*
X102996Y198999D01*
Y197000D01*
X103996Y196000D01*
X105995D01*
X106995Y197000D01*
Y197999D01*
X105995Y198999D01*
X102996D01*
X298000Y212000D02*
Y217998D01*
X300999D01*
X301999Y216998D01*
Y214999D01*
X300999Y213999D01*
X298000D01*
X299999D02*
X301999Y212000D01*
X306997D02*
Y217998D01*
X303998Y214999D01*
X307997D01*
X313995Y217998D02*
X309996D01*
Y214999D01*
X311996Y215999D01*
X312995D01*
X313995Y214999D01*
Y213000D01*
X312995Y212000D01*
X310996D01*
X309996Y213000D01*
X117323Y212992D02*
Y218990D01*
X120322D01*
X121321Y217990D01*
Y215991D01*
X120322Y214991D01*
X117323D01*
X119322D02*
X121321Y212992D01*
X126320D02*
Y218990D01*
X123321Y215991D01*
X127320D01*
X132318Y212992D02*
Y218990D01*
X129319Y215991D01*
X133318D01*
X116606Y258559D02*
Y264557D01*
X119605D01*
X120605Y263557D01*
Y261558D01*
X119605Y260558D01*
X116606D01*
X118606D02*
X120605Y258559D01*
X125603D02*
Y264557D01*
X122604Y261558D01*
X126603D01*
X128602Y263557D02*
X129602Y264557D01*
X131601D01*
X132601Y263557D01*
Y262558D01*
X131601Y261558D01*
X130602D01*
X131601D01*
X132601Y260558D01*
Y259559D01*
X131601Y258559D01*
X129602D01*
X128602Y259559D01*
X298000Y257000D02*
Y262998D01*
X300999D01*
X301999Y261998D01*
Y259999D01*
X300999Y258999D01*
X298000D01*
X299999D02*
X301999Y257000D01*
X306997D02*
Y262998D01*
X303998Y259999D01*
X307997D01*
X313995Y257000D02*
X309996D01*
X313995Y260999D01*
Y261998D01*
X312995Y262998D01*
X310996D01*
X309996Y261998D01*
X93000Y273000D02*
Y278998D01*
X95999D01*
X96999Y277998D01*
Y275999D01*
X95999Y274999D01*
X93000D01*
X94999D02*
X96999Y273000D01*
X101997D02*
Y278998D01*
X98998Y275999D01*
X102997D01*
X104996Y273000D02*
X106995D01*
X105996D01*
Y278998D01*
X104996Y277998D01*
X298000Y272000D02*
Y277998D01*
X300999D01*
X301999Y276998D01*
Y274999D01*
X300999Y273999D01*
X298000D01*
X299999D02*
X301999Y272000D01*
X306997D02*
Y277998D01*
X303998Y274999D01*
X307997D01*
X309996Y276998D02*
X310996Y277998D01*
X312995D01*
X313995Y276998D01*
Y273000D01*
X312995Y272000D01*
X310996D01*
X309996Y273000D01*
Y276998D01*
X362992Y327165D02*
X356994D01*
Y330164D01*
X357994Y331164D01*
X359993D01*
X360993Y330164D01*
Y327165D01*
Y329165D02*
X362992Y331164D01*
X357994Y333163D02*
X356994Y334163D01*
Y336162D01*
X357994Y337162D01*
X358993D01*
X359993Y336162D01*
Y335163D01*
Y336162D01*
X360993Y337162D01*
X361993D01*
X362992Y336162D01*
Y334163D01*
X361993Y333163D01*
Y339161D02*
X362992Y340161D01*
Y342161D01*
X361993Y343160D01*
X357994D01*
X356994Y342161D01*
Y340161D01*
X357994Y339161D01*
X358993D01*
X359993Y340161D01*
Y343160D01*
X362598Y346457D02*
X356600D01*
Y349456D01*
X357600Y350455D01*
X359599D01*
X360599Y349456D01*
Y346457D01*
Y348456D02*
X362598Y350455D01*
X357600Y352455D02*
X356600Y353454D01*
Y355454D01*
X357600Y356453D01*
X358600D01*
X359599Y355454D01*
Y354454D01*
Y355454D01*
X360599Y356453D01*
X361599D01*
X362598Y355454D01*
Y353454D01*
X361599Y352455D01*
X357600Y358453D02*
X356600Y359453D01*
Y361452D01*
X357600Y362452D01*
X358600D01*
X359599Y361452D01*
X360599Y362452D01*
X361599D01*
X362598Y361452D01*
Y359453D01*
X361599Y358453D01*
X360599D01*
X359599Y359453D01*
X358600Y358453D01*
X357600D01*
X359599Y359453D02*
Y361452D01*
X347638Y327165D02*
X341640D01*
Y330164D01*
X342639Y331164D01*
X344639D01*
X345638Y330164D01*
Y327165D01*
Y329165D02*
X347638Y331164D01*
X342639Y333163D02*
X341640Y334163D01*
Y336162D01*
X342639Y337162D01*
X343639D01*
X344639Y336162D01*
Y335163D01*
Y336162D01*
X345638Y337162D01*
X346638D01*
X347638Y336162D01*
Y334163D01*
X346638Y333163D01*
X341640Y339161D02*
Y343160D01*
X342639D01*
X346638Y339161D01*
X347638D01*
X347244Y346457D02*
X341246D01*
Y349456D01*
X342246Y350455D01*
X344245D01*
X345245Y349456D01*
Y346457D01*
Y348456D02*
X347244Y350455D01*
X342246Y352455D02*
X341246Y353454D01*
Y355454D01*
X342246Y356453D01*
X343245D01*
X344245Y355454D01*
Y354454D01*
Y355454D01*
X345245Y356453D01*
X346244D01*
X347244Y355454D01*
Y353454D01*
X346244Y352455D01*
X341246Y362452D02*
X342246Y360452D01*
X344245Y358453D01*
X346244D01*
X347244Y359453D01*
Y361452D01*
X346244Y362452D01*
X345245D01*
X344245Y361452D01*
Y358453D01*
X317323Y327165D02*
X311325D01*
Y330164D01*
X312324Y331164D01*
X314324D01*
X315323Y330164D01*
Y327165D01*
Y329165D02*
X317323Y331164D01*
X312324Y333163D02*
X311325Y334163D01*
Y336162D01*
X312324Y337162D01*
X313324D01*
X314324Y336162D01*
Y335163D01*
Y336162D01*
X315323Y337162D01*
X316323D01*
X317323Y336162D01*
Y334163D01*
X316323Y333163D01*
X311325Y343160D02*
Y339161D01*
X314324D01*
X313324Y341161D01*
Y342161D01*
X314324Y343160D01*
X316323D01*
X317323Y342161D01*
Y340161D01*
X316323Y339161D01*
X317323Y346850D02*
X311325D01*
Y349849D01*
X312324Y350849D01*
X314324D01*
X315323Y349849D01*
Y346850D01*
Y348850D02*
X317323Y350849D01*
X312324Y352849D02*
X311325Y353848D01*
Y355848D01*
X312324Y356847D01*
X313324D01*
X314324Y355848D01*
Y354848D01*
Y355848D01*
X315323Y356847D01*
X316323D01*
X317323Y355848D01*
Y353848D01*
X316323Y352849D01*
X317323Y361845D02*
X311325D01*
X314324Y358846D01*
Y362845D01*
X332283Y327165D02*
X326285D01*
Y330164D01*
X327285Y331164D01*
X329284D01*
X330284Y330164D01*
Y327165D01*
Y329165D02*
X332283Y331164D01*
X327285Y333163D02*
X326285Y334163D01*
Y336162D01*
X327285Y337162D01*
X328285D01*
X329284Y336162D01*
Y335163D01*
Y336162D01*
X330284Y337162D01*
X331284D01*
X332283Y336162D01*
Y334163D01*
X331284Y333163D01*
X327285Y339161D02*
X326285Y340161D01*
Y342161D01*
X327285Y343160D01*
X328285D01*
X329284Y342161D01*
Y341161D01*
Y342161D01*
X330284Y343160D01*
X331284D01*
X332283Y342161D01*
Y340161D01*
X331284Y339161D01*
X332283Y346457D02*
X326285D01*
Y349456D01*
X327285Y350455D01*
X329284D01*
X330284Y349456D01*
Y346457D01*
Y348456D02*
X332283Y350455D01*
X327285Y352455D02*
X326285Y353454D01*
Y355454D01*
X327285Y356453D01*
X328285D01*
X329284Y355454D01*
Y354454D01*
Y355454D01*
X330284Y356453D01*
X331284D01*
X332283Y355454D01*
Y353454D01*
X331284Y352455D01*
X332283Y362452D02*
Y358453D01*
X328285Y362452D01*
X327285D01*
X326285Y361452D01*
Y359453D01*
X327285Y358453D01*
X61811Y302362D02*
Y308360D01*
X64810D01*
X65810Y307361D01*
Y305361D01*
X64810Y304362D01*
X61811D01*
X63810D02*
X65810Y302362D01*
X67809Y307361D02*
X68809Y308360D01*
X70808D01*
X71808Y307361D01*
Y306361D01*
X70808Y305361D01*
X69808D01*
X70808D01*
X71808Y304362D01*
Y303362D01*
X70808Y302362D01*
X68809D01*
X67809Y303362D01*
X73807Y302362D02*
X75806D01*
X74807D01*
Y308360D01*
X73807Y307361D01*
X42913Y302362D02*
Y308360D01*
X45912D01*
X46912Y307361D01*
Y305361D01*
X45912Y304362D01*
X42913D01*
X44913D02*
X46912Y302362D01*
X48911Y307361D02*
X49911Y308360D01*
X51911D01*
X52910Y307361D01*
Y306361D01*
X51911Y305361D01*
X50911D01*
X51911D01*
X52910Y304362D01*
Y303362D01*
X51911Y302362D01*
X49911D01*
X48911Y303362D01*
X54909Y307361D02*
X55909Y308360D01*
X57908D01*
X58908Y307361D01*
Y303362D01*
X57908Y302362D01*
X55909D01*
X54909Y303362D01*
Y307361D01*
X62205Y317323D02*
Y323321D01*
X65204D01*
X66203Y322321D01*
Y320322D01*
X65204Y319322D01*
X62205D01*
X64204D02*
X66203Y317323D01*
X72202D02*
X68203D01*
X72202Y321322D01*
Y322321D01*
X71202Y323321D01*
X69203D01*
X68203Y322321D01*
X74201Y318322D02*
X75200Y317323D01*
X77200D01*
X78199Y318322D01*
Y322321D01*
X77200Y323321D01*
X75200D01*
X74201Y322321D01*
Y321322D01*
X75200Y320322D01*
X78199D01*
X43000Y317394D02*
Y323392D01*
X45999D01*
X46999Y322392D01*
Y320393D01*
X45999Y319393D01*
X43000D01*
X44999D02*
X46999Y317394D01*
X52997D02*
X48998D01*
X52997Y321392D01*
Y322392D01*
X51997Y323392D01*
X49998D01*
X48998Y322392D01*
X54996D02*
X55996Y323392D01*
X57995D01*
X58995Y322392D01*
Y321392D01*
X57995Y320393D01*
X58995Y319393D01*
Y318393D01*
X57995Y317394D01*
X55996D01*
X54996Y318393D01*
Y319393D01*
X55996Y320393D01*
X54996Y321392D01*
Y322392D01*
X55996Y320393D02*
X57995D01*
X168000Y268000D02*
Y273998D01*
X170999D01*
X171999Y272998D01*
Y270999D01*
X170999Y269999D01*
X168000D01*
X169999D02*
X171999Y268000D01*
X177997D02*
X173998D01*
X177997Y271999D01*
Y272998D01*
X176997Y273998D01*
X174998D01*
X173998Y272998D01*
X179996Y273998D02*
X183995D01*
Y272998D01*
X179996Y269000D01*
Y268000D01*
X148819Y268110D02*
Y274108D01*
X151818D01*
X152818Y273109D01*
Y271109D01*
X151818Y270110D01*
X148819D01*
X150818D02*
X152818Y268110D01*
X158816D02*
X154817D01*
X158816Y272109D01*
Y273109D01*
X157816Y274108D01*
X155817D01*
X154817Y273109D01*
X164814Y274108D02*
X162814Y273109D01*
X160815Y271109D01*
Y269110D01*
X161815Y268110D01*
X163814D01*
X164814Y269110D01*
Y270110D01*
X163814Y271109D01*
X160815D01*
X129000Y268000D02*
Y273998D01*
X131999D01*
X132999Y272998D01*
Y270999D01*
X131999Y269999D01*
X129000D01*
X130999D02*
X132999Y268000D01*
X138997D02*
X134998D01*
X138997Y271999D01*
Y272998D01*
X137997Y273998D01*
X135998D01*
X134998Y272998D01*
X144995Y273998D02*
X140996D01*
Y270999D01*
X142996Y271999D01*
X143995D01*
X144995Y270999D01*
Y269000D01*
X143995Y268000D01*
X141996D01*
X140996Y269000D01*
X271000Y268000D02*
Y273998D01*
X273999D01*
X274999Y272998D01*
Y270999D01*
X273999Y269999D01*
X271000D01*
X272999D02*
X274999Y268000D01*
X280997D02*
X276998D01*
X280997Y271999D01*
Y272998D01*
X279997Y273998D01*
X277998D01*
X276998Y272998D01*
X285995Y268000D02*
Y273998D01*
X282996Y270999D01*
X286995D01*
X251000Y268000D02*
Y273998D01*
X253999D01*
X254999Y272998D01*
Y270999D01*
X253999Y269999D01*
X251000D01*
X252999D02*
X254999Y268000D01*
X260997D02*
X256998D01*
X260997Y271999D01*
Y272998D01*
X259997Y273998D01*
X257998D01*
X256998Y272998D01*
X262996D02*
X263996Y273998D01*
X265995D01*
X266995Y272998D01*
Y271999D01*
X265995Y270999D01*
X264996D01*
X265995D01*
X266995Y269999D01*
Y269000D01*
X265995Y268000D01*
X263996D01*
X262996Y269000D01*
X232000Y268000D02*
Y273998D01*
X234999D01*
X235999Y272998D01*
Y270999D01*
X234999Y269999D01*
X232000D01*
X233999D02*
X235999Y268000D01*
X241997D02*
X237998D01*
X241997Y271999D01*
Y272998D01*
X240997Y273998D01*
X238998D01*
X237998Y272998D01*
X247995Y268000D02*
X243996D01*
X247995Y271999D01*
Y272998D01*
X246995Y273998D01*
X244996D01*
X243996Y272998D01*
X215000Y268000D02*
Y273998D01*
X217999D01*
X218999Y272998D01*
Y270999D01*
X217999Y269999D01*
X215000D01*
X216999D02*
X218999Y268000D01*
X224997D02*
X220998D01*
X224997Y271999D01*
Y272998D01*
X223997Y273998D01*
X221998D01*
X220998Y272998D01*
X226996Y268000D02*
X228995D01*
X227996D01*
Y273998D01*
X226996Y272998D01*
X298000Y287000D02*
Y292998D01*
X300999D01*
X301999Y291998D01*
Y289999D01*
X300999Y288999D01*
X298000D01*
X299999D02*
X301999Y287000D01*
X307997D02*
X303998D01*
X307997Y290999D01*
Y291998D01*
X306997Y292998D01*
X304998D01*
X303998Y291998D01*
X309996D02*
X310996Y292998D01*
X312995D01*
X313995Y291998D01*
Y288000D01*
X312995Y287000D01*
X310996D01*
X309996Y288000D01*
Y291998D01*
X91000Y288000D02*
Y293998D01*
X93999D01*
X94999Y292998D01*
Y290999D01*
X93999Y289999D01*
X91000D01*
X92999D02*
X94999Y288000D01*
X96998D02*
X98997D01*
X97998D01*
Y293998D01*
X96998Y292998D01*
X101996Y289000D02*
X102996Y288000D01*
X104996D01*
X105995Y289000D01*
Y292998D01*
X104996Y293998D01*
X102996D01*
X101996Y292998D01*
Y291999D01*
X102996Y290999D01*
X105995D01*
X298000Y302000D02*
Y307998D01*
X300999D01*
X301999Y306998D01*
Y304999D01*
X300999Y303999D01*
X298000D01*
X299999D02*
X301999Y302000D01*
X303998D02*
X305997D01*
X304998D01*
Y307998D01*
X303998Y306998D01*
X308996D02*
X309996Y307998D01*
X311996D01*
X312995Y306998D01*
Y305999D01*
X311996Y304999D01*
X312995Y303999D01*
Y303000D01*
X311996Y302000D01*
X309996D01*
X308996Y303000D01*
Y303999D01*
X309996Y304999D01*
X308996Y305999D01*
Y306998D01*
X309996Y304999D02*
X311996D01*
X62205Y347638D02*
Y353636D01*
X65204D01*
X66203Y352636D01*
Y350637D01*
X65204Y349637D01*
X62205D01*
X64204D02*
X66203Y347638D01*
X68203D02*
X70202D01*
X69203D01*
Y353636D01*
X68203Y352636D01*
X73201Y353636D02*
X77200D01*
Y352636D01*
X73201Y348638D01*
Y347638D01*
X42913D02*
Y353636D01*
X45912D01*
X46912Y352636D01*
Y350637D01*
X45912Y349637D01*
X42913D01*
X44913D02*
X46912Y347638D01*
X48911D02*
X50911D01*
X49911D01*
Y353636D01*
X48911Y352636D01*
X57908Y353636D02*
X55909Y352636D01*
X53910Y350637D01*
Y348638D01*
X54909Y347638D01*
X56909D01*
X57908Y348638D01*
Y349637D01*
X56909Y350637D01*
X53910D01*
X62205Y332283D02*
Y338281D01*
X65204D01*
X66203Y337282D01*
Y335282D01*
X65204Y334283D01*
X62205D01*
X64204D02*
X66203Y332283D01*
X68203D02*
X70202D01*
X69203D01*
Y338281D01*
X68203Y337282D01*
X77200Y338281D02*
X73201D01*
Y335282D01*
X75200Y336282D01*
X76200D01*
X77200Y335282D01*
Y333283D01*
X76200Y332283D01*
X74201D01*
X73201Y333283D01*
X43000Y332394D02*
Y338392D01*
X45999D01*
X46999Y337392D01*
Y335393D01*
X45999Y334393D01*
X43000D01*
X44999D02*
X46999Y332394D01*
X48998D02*
X50997D01*
X49998D01*
Y338392D01*
X48998Y337392D01*
X56995Y332394D02*
Y338392D01*
X53996Y335393D01*
X57995D01*
X262394Y312000D02*
Y317998D01*
X265393D01*
X266392Y316998D01*
Y314999D01*
X265393Y313999D01*
X262394D01*
X264393D02*
X266392Y312000D01*
X268392D02*
X270391D01*
X269391D01*
Y317998D01*
X268392Y316998D01*
X273390D02*
X274390Y317998D01*
X276389D01*
X277389Y316998D01*
Y315999D01*
X276389Y314999D01*
X275390D01*
X276389D01*
X277389Y313999D01*
Y313000D01*
X276389Y312000D01*
X274390D01*
X273390Y313000D01*
X262598Y347244D02*
Y353242D01*
X265598D01*
X266597Y352242D01*
Y350243D01*
X265598Y349243D01*
X262598D01*
X264598D02*
X266597Y347244D01*
X268597D02*
X270596D01*
X269596D01*
Y353242D01*
X268597Y352242D01*
X277594Y347244D02*
X273595D01*
X277594Y351243D01*
Y352242D01*
X276594Y353242D01*
X274594D01*
X273595Y352242D01*
X238976Y312205D02*
Y318203D01*
X241975D01*
X242975Y317203D01*
Y315204D01*
X241975Y314204D01*
X238976D01*
X240976D02*
X242975Y312205D01*
X244974D02*
X246974D01*
X245974D01*
Y318203D01*
X244974Y317203D01*
X249973Y312205D02*
X251972D01*
X250973D01*
Y318203D01*
X249973Y317203D01*
X237795Y347244D02*
Y353242D01*
X240794D01*
X241794Y352242D01*
Y350243D01*
X240794Y349243D01*
X237795D01*
X239795D02*
X241794Y347244D01*
X243793D02*
X245793D01*
X244793D01*
Y353242D01*
X243793Y352242D01*
X248792D02*
X249791Y353242D01*
X251791D01*
X252790Y352242D01*
Y348244D01*
X251791Y347244D01*
X249791D01*
X248792Y348244D01*
Y352242D01*
X218110Y312205D02*
Y318203D01*
X221109D01*
X222109Y317203D01*
Y315204D01*
X221109Y314204D01*
X218110D01*
X220110D02*
X222109Y312205D01*
X224108Y313204D02*
X225108Y312205D01*
X227107D01*
X228107Y313204D01*
Y317203D01*
X227107Y318203D01*
X225108D01*
X224108Y317203D01*
Y316203D01*
X225108Y315204D01*
X228107D01*
X218110Y347244D02*
Y353242D01*
X221109D01*
X222109Y352242D01*
Y350243D01*
X221109Y349243D01*
X218110D01*
X220110D02*
X222109Y347244D01*
X224108Y352242D02*
X225108Y353242D01*
X227107D01*
X228107Y352242D01*
Y351243D01*
X227107Y350243D01*
X228107Y349243D01*
Y348244D01*
X227107Y347244D01*
X225108D01*
X224108Y348244D01*
Y349243D01*
X225108Y350243D01*
X224108Y351243D01*
Y352242D01*
X225108Y350243D02*
X227107D01*
X198031Y312205D02*
Y318203D01*
X201030D01*
X202030Y317203D01*
Y315204D01*
X201030Y314204D01*
X198031D01*
X200031D02*
X202030Y312205D01*
X204030Y318203D02*
X208028D01*
Y317203D01*
X204030Y313204D01*
Y312205D01*
X198031Y347244D02*
Y353242D01*
X201030D01*
X202030Y352242D01*
Y350243D01*
X201030Y349243D01*
X198031D01*
X200031D02*
X202030Y347244D01*
X208028Y353242D02*
X206029Y352242D01*
X204030Y350243D01*
Y348244D01*
X205029Y347244D01*
X207029D01*
X208028Y348244D01*
Y349243D01*
X207029Y350243D01*
X204030D01*
X178347Y311811D02*
Y317809D01*
X181345D01*
X182345Y316809D01*
Y314810D01*
X181345Y313810D01*
X178347D01*
X180346D02*
X182345Y311811D01*
X188343Y317809D02*
X184344D01*
Y314810D01*
X186344Y315810D01*
X187344D01*
X188343Y314810D01*
Y312811D01*
X187344Y311811D01*
X185344D01*
X184344Y312811D01*
X177953Y347244D02*
Y353242D01*
X180952D01*
X181951Y352242D01*
Y350243D01*
X180952Y349243D01*
X177953D01*
X179952D02*
X181951Y347244D01*
X186950D02*
Y353242D01*
X183951Y350243D01*
X187950D01*
X157874Y311811D02*
Y317809D01*
X160873D01*
X161873Y316809D01*
Y314810D01*
X160873Y313810D01*
X157874D01*
X159873D02*
X161873Y311811D01*
X163872Y316809D02*
X164872Y317809D01*
X166871D01*
X167871Y316809D01*
Y315810D01*
X166871Y314810D01*
X165871D01*
X166871D01*
X167871Y313810D01*
Y312811D01*
X166871Y311811D01*
X164872D01*
X163872Y312811D01*
X157874Y347244D02*
Y353242D01*
X160873D01*
X161873Y352242D01*
Y350243D01*
X160873Y349243D01*
X157874D01*
X159873D02*
X161873Y347244D01*
X167871D02*
X163872D01*
X167871Y351243D01*
Y352242D01*
X166871Y353242D01*
X164872D01*
X163872Y352242D01*
X305606Y63402D02*
Y69400D01*
X308605D01*
X309605Y68400D01*
Y66401D01*
X308605Y65401D01*
X305606D01*
X307606D02*
X309605Y63402D01*
X311604D02*
X313604D01*
X312604D01*
Y69400D01*
X311604Y68400D01*
X182142Y69000D02*
Y74998D01*
X185141D01*
X186141Y73998D01*
Y71999D01*
X185141Y70999D01*
X182142D01*
X192139Y73998D02*
X191139Y74998D01*
X189139D01*
X188140Y73998D01*
Y72999D01*
X189139Y71999D01*
X191139D01*
X192139Y70999D01*
Y70000D01*
X191139Y69000D01*
X189139D01*
X188140Y70000D01*
X8033Y121445D02*
Y127443D01*
X11032D01*
X12032Y126443D01*
Y124444D01*
X11032Y123444D01*
X8033D01*
X14031Y126443D02*
X15031Y127443D01*
X17030D01*
X18030Y126443D01*
Y125444D01*
X17030Y124444D01*
X18030Y123444D01*
Y122445D01*
X17030Y121445D01*
X15031D01*
X14031Y122445D01*
Y123444D01*
X15031Y124444D01*
X14031Y125444D01*
Y126443D01*
X15031Y124444D02*
X17030D01*
X583685Y188780D02*
X581686D01*
X582685D01*
Y183782D01*
X581686Y182782D01*
X580686D01*
X579686Y183782D01*
X585684Y182782D02*
X587684D01*
X586684D01*
Y188780D01*
X585684Y187781D01*
X185927Y264348D02*
X187926D01*
X186927D01*
Y258350D01*
X185927D01*
X187926D01*
X194924Y263348D02*
X193925Y264348D01*
X191925D01*
X190926Y263348D01*
Y259350D01*
X191925Y258350D01*
X193925D01*
X194924Y259350D01*
X196924Y263348D02*
X197923Y264348D01*
X199923D01*
X200922Y263348D01*
Y262349D01*
X199923Y261349D01*
X198923D01*
X199923D01*
X200922Y260349D01*
Y259350D01*
X199923Y258350D01*
X197923D01*
X196924Y259350D01*
X64886Y109218D02*
X60887D01*
Y106219D01*
X62887D01*
X60887D01*
Y103220D01*
X70884D02*
X66886D01*
X70884Y107218D01*
Y108218D01*
X69885Y109218D01*
X67885D01*
X66886Y108218D01*
X65099Y139898D02*
X61100D01*
Y136899D01*
X63099D01*
X61100D01*
Y133900D01*
X67098D02*
X69097D01*
X68098D01*
Y139898D01*
X67098Y138898D01*
X331606Y69400D02*
Y63402D01*
X334605D01*
X335605Y64401D01*
Y68400D01*
X334605Y69400D01*
X331606D01*
X337604Y68400D02*
X338604Y69400D01*
X340603D01*
X341603Y68400D01*
Y67400D01*
X340603Y66401D01*
X339604D01*
X340603D01*
X341603Y65401D01*
Y64401D01*
X340603Y63402D01*
X338604D01*
X337604Y64401D01*
X332000Y101998D02*
Y96000D01*
X334999D01*
X335999Y97000D01*
Y100998D01*
X334999Y101998D01*
X332000D01*
X341997Y96000D02*
X337998D01*
X341997Y99999D01*
Y100998D01*
X340997Y101998D01*
X338998D01*
X337998Y100998D01*
X325999Y216998D02*
X324999Y217998D01*
X323000D01*
X322000Y216998D01*
Y213000D01*
X323000Y212000D01*
X324999D01*
X325999Y213000D01*
X331997Y212000D02*
X327998D01*
X331997Y215999D01*
Y216998D01*
X330997Y217998D01*
X328998D01*
X327998Y216998D01*
X336995Y212000D02*
Y217998D01*
X333996Y214999D01*
X337995D01*
X85999Y216998D02*
X84999Y217998D01*
X83000D01*
X82000Y216998D01*
Y213000D01*
X83000Y212000D01*
X84999D01*
X85999Y213000D01*
X91997Y212000D02*
X87998D01*
X91997Y215999D01*
Y216998D01*
X90997Y217998D01*
X88998D01*
X87998Y216998D01*
X93996D02*
X94996Y217998D01*
X96995D01*
X97995Y216998D01*
Y215999D01*
X96995Y214999D01*
X95995D01*
X96995D01*
X97995Y213999D01*
Y213000D01*
X96995Y212000D01*
X94996D01*
X93996Y213000D01*
X257999Y223998D02*
X256999Y224998D01*
X255000D01*
X254000Y223998D01*
Y220000D01*
X255000Y219000D01*
X256999D01*
X257999Y220000D01*
X263997Y219000D02*
X259998D01*
X263997Y222999D01*
Y223998D01*
X262997Y224998D01*
X260998D01*
X259998Y223998D01*
X269995Y219000D02*
X265996D01*
X269995Y222999D01*
Y223998D01*
X268995Y224998D01*
X266996D01*
X265996Y223998D01*
X149999Y225998D02*
X148999Y226998D01*
X147000D01*
X146000Y225998D01*
Y222000D01*
X147000Y221000D01*
X148999D01*
X149999Y222000D01*
X155997Y221000D02*
X151998D01*
X155997Y224999D01*
Y225998D01*
X154997Y226998D01*
X152998D01*
X151998Y225998D01*
X157996Y221000D02*
X159995D01*
X158996D01*
Y226998D01*
X157996Y225998D01*
X157542Y240825D02*
X156542Y241825D01*
X154543D01*
X153543Y240825D01*
Y236826D01*
X154543Y235827D01*
X156542D01*
X157542Y236826D01*
X163540Y235827D02*
X159541D01*
X163540Y239826D01*
Y240825D01*
X162540Y241825D01*
X160541D01*
X159541Y240825D01*
X165539D02*
X166539Y241825D01*
X168538D01*
X169538Y240825D01*
Y236826D01*
X168538Y235827D01*
X166539D01*
X165539Y236826D01*
Y240825D01*
X326999Y261998D02*
X325999Y262998D01*
X324000D01*
X323000Y261998D01*
Y258000D01*
X324000Y257000D01*
X325999D01*
X326999Y258000D01*
X328998Y257000D02*
X330997D01*
X329998D01*
Y262998D01*
X328998Y261998D01*
X333996Y258000D02*
X334996Y257000D01*
X336996D01*
X337995Y258000D01*
Y261998D01*
X336996Y262998D01*
X334996D01*
X333996Y261998D01*
Y260999D01*
X334996Y259999D01*
X337995D01*
X86999Y262754D02*
X85999Y263754D01*
X84000D01*
X83000Y262754D01*
Y258756D01*
X84000Y257756D01*
X85999D01*
X86999Y258756D01*
X88998Y257756D02*
X90997D01*
X89998D01*
Y263754D01*
X88998Y262754D01*
X93997D02*
X94996Y263754D01*
X96996D01*
X97995Y262754D01*
Y261755D01*
X96996Y260755D01*
X97995Y259755D01*
Y258756D01*
X96996Y257756D01*
X94996D01*
X93997Y258756D01*
Y259755D01*
X94996Y260755D01*
X93997Y261755D01*
Y262754D01*
X94996Y260755D02*
X96996D01*
X257999Y253998D02*
X256999Y254998D01*
X255000D01*
X254000Y253998D01*
Y250000D01*
X255000Y249000D01*
X256999D01*
X257999Y250000D01*
X259998Y249000D02*
X261997D01*
X260998D01*
Y254998D01*
X259998Y253998D01*
X264996Y254998D02*
X268995D01*
Y253998D01*
X264996Y250000D01*
Y249000D01*
X137999Y253998D02*
X136999Y254998D01*
X135000D01*
X134000Y253998D01*
Y250000D01*
X135000Y249000D01*
X136999D01*
X137999Y250000D01*
X139998Y249000D02*
X141997D01*
X140998D01*
Y254998D01*
X139998Y253998D01*
X148995Y254998D02*
X146996Y253998D01*
X144996Y251999D01*
Y250000D01*
X145996Y249000D01*
X147995D01*
X148995Y250000D01*
Y250999D01*
X147995Y251999D01*
X144996D01*
X255999Y38998D02*
X254999Y39998D01*
X253000D01*
X252000Y38998D01*
Y35000D01*
X253000Y34000D01*
X254999D01*
X255999Y35000D01*
X257998Y34000D02*
X259997D01*
X258998D01*
Y39998D01*
X257998Y38998D01*
X262996D02*
X263996Y39998D01*
X265996D01*
X266995Y38998D01*
Y37999D01*
X265996Y36999D01*
X264996D01*
X265996D01*
X266995Y35999D01*
Y35000D01*
X265996Y34000D01*
X263996D01*
X262996Y35000D01*
X230999Y38998D02*
X229999Y39998D01*
X228000D01*
X227000Y38998D01*
Y35000D01*
X228000Y34000D01*
X229999D01*
X230999Y35000D01*
X232998Y34000D02*
X234997D01*
X233998D01*
Y39998D01*
X232998Y38998D01*
X241995Y34000D02*
X237996D01*
X241995Y37999D01*
Y38998D01*
X240996Y39998D01*
X238996D01*
X237996Y38998D01*
X161999Y39998D02*
X160999Y40998D01*
X159000D01*
X158000Y39998D01*
Y36000D01*
X159000Y35000D01*
X160999D01*
X161999Y36000D01*
X163998Y35000D02*
X165997D01*
X164998D01*
Y40998D01*
X163998Y39998D01*
X168996Y35000D02*
X170996D01*
X169996D01*
Y40998D01*
X168996Y39998D01*
X136605D02*
X135605Y40998D01*
X133606D01*
X132606Y39998D01*
Y36000D01*
X133606Y35000D01*
X135605D01*
X136605Y36000D01*
X138604Y35000D02*
X140604D01*
X139604D01*
Y40998D01*
X138604Y39998D01*
X143603D02*
X144602Y40998D01*
X146602D01*
X147601Y39998D01*
Y36000D01*
X146602Y35000D01*
X144602D01*
X143603Y36000D01*
Y39998D01*
X94199Y65898D02*
X93199Y66898D01*
X91200D01*
X90200Y65898D01*
Y61900D01*
X91200Y60900D01*
X93199D01*
X94199Y61900D01*
X96198D02*
X97198Y60900D01*
X99197D01*
X100197Y61900D01*
Y65898D01*
X99197Y66898D01*
X97198D01*
X96198Y65898D01*
Y64899D01*
X97198Y63899D01*
X100197D01*
X313841Y39250D02*
X312842Y40250D01*
X310842D01*
X309842Y39250D01*
Y35252D01*
X310842Y34252D01*
X312842D01*
X313841Y35252D01*
X315841Y39250D02*
X316840Y40250D01*
X318840D01*
X319839Y39250D01*
Y38251D01*
X318840Y37251D01*
X319839Y36251D01*
Y35252D01*
X318840Y34252D01*
X316840D01*
X315841Y35252D01*
Y36251D01*
X316840Y37251D01*
X315841Y38251D01*
Y39250D01*
X316840Y37251D02*
X318840D01*
X453999Y378998D02*
X452999Y379998D01*
X451000D01*
X450000Y378998D01*
Y375000D01*
X451000Y374000D01*
X452999D01*
X453999Y375000D01*
X455998Y379998D02*
X459997D01*
Y378998D01*
X455998Y375000D01*
Y374000D01*
X457070Y326195D02*
X456070Y327195D01*
X454071D01*
X453071Y326195D01*
Y322197D01*
X454071Y321197D01*
X456070D01*
X457070Y322197D01*
X463068Y327195D02*
X461068Y326195D01*
X459069Y324196D01*
Y322197D01*
X460069Y321197D01*
X462068D01*
X463068Y322197D01*
Y323196D01*
X462068Y324196D01*
X459069D01*
X452818Y195156D02*
X451818Y196156D01*
X449819D01*
X448819Y195156D01*
Y191157D01*
X449819Y190157D01*
X451818D01*
X452818Y191157D01*
X458816Y196156D02*
X454817D01*
Y193157D01*
X456816Y194156D01*
X457816D01*
X458816Y193157D01*
Y191157D01*
X457816Y190157D01*
X455817D01*
X454817Y191157D01*
X452818Y254605D02*
X451818Y255604D01*
X449819D01*
X448819Y254605D01*
Y250606D01*
X449819Y249606D01*
X451818D01*
X452818Y250606D01*
X457816Y249606D02*
Y255604D01*
X454817Y252605D01*
X458816D01*
D15*
X641736Y44732D02*
Y172732D01*
X579736Y44732D02*
Y172732D01*
Y44732D02*
X601236D01*
X612236D02*
X641736D01*
X612236Y172732D02*
X641736D01*
X579736D02*
X601236D01*
D16*
X81303Y113500D02*
Y128500D01*
X81161Y82870D02*
Y97870D01*
D17*
X215732Y17362D02*
Y63031D01*
X182268Y17362D02*
X215732D01*
X182268D02*
Y63031D01*
X215732D01*
X26280Y74376D02*
X26936Y75032D01*
Y76344D01*
X26280Y77000D01*
X23656D01*
X23000Y76344D01*
Y75032D01*
X23656Y74376D01*
X24968D01*
Y75688D01*
X23000Y73064D02*
X26936D01*
X23000Y70440D01*
X26936D01*
Y69129D02*
X23000D01*
Y67161D01*
X23656Y66505D01*
X26280D01*
X26936Y67161D01*
Y69129D01*
X23000Y128376D02*
Y131000D01*
X25624Y128376D01*
X26280D01*
X26936Y129032D01*
Y130344D01*
X26280Y131000D01*
X23000Y125096D02*
X26936D01*
X24968Y127064D01*
Y124440D01*
X26936Y123128D02*
X24312D01*
X23000Y121817D01*
X24312Y120505D01*
X26936D01*
X431936Y30000D02*
X428656D01*
X428000Y29344D01*
Y28032D01*
X428656Y27376D01*
X431936D01*
X431280Y26064D02*
X431936Y25408D01*
Y24096D01*
X431280Y23440D01*
X430624D01*
X429968Y24096D01*
Y24752D01*
Y24096D01*
X429312Y23440D01*
X428656D01*
X428000Y24096D01*
Y25408D01*
X428656Y26064D01*
X431936Y22129D02*
X428000D01*
Y20161D01*
X428656Y19505D01*
X431280D01*
X431936Y20161D01*
Y22129D01*
X441936Y30000D02*
X438656D01*
X438000Y29344D01*
Y28032D01*
X438656Y27376D01*
X441936D01*
X441280Y26064D02*
X441936Y25408D01*
Y24096D01*
X441280Y23440D01*
X440624D01*
X439968Y24096D01*
Y24752D01*
Y24096D01*
X439312Y23440D01*
X438656D01*
X438000Y24096D01*
Y25408D01*
X438656Y26064D01*
X441280Y19505D02*
X441936Y20161D01*
Y21473D01*
X441280Y22129D01*
X438656D01*
X438000Y21473D01*
Y20161D01*
X438656Y19505D01*
X438000Y18193D02*
X441936D01*
X438000Y15569D01*
X441936D01*
X451936Y30000D02*
X448656D01*
X448000Y29344D01*
Y28032D01*
X448656Y27376D01*
X451936D01*
X451280Y26064D02*
X451936Y25408D01*
Y24096D01*
X451280Y23440D01*
X450624D01*
X449968Y24096D01*
Y24752D01*
Y24096D01*
X449312Y23440D01*
X448656D01*
X448000Y24096D01*
Y25408D01*
X448656Y26064D01*
X451936Y22129D02*
X448000D01*
Y20161D01*
X448656Y19505D01*
X451280D01*
X451936Y20161D01*
Y22129D01*
X448000Y18193D02*
X451936D01*
X448000Y15569D01*
X451936D01*
X461936Y30000D02*
X458656D01*
X458000Y29344D01*
Y28032D01*
X458656Y27376D01*
X461936D01*
Y23440D02*
Y26064D01*
X459968D01*
X460624Y24752D01*
Y24096D01*
X459968Y23440D01*
X458656D01*
X458000Y24096D01*
Y25408D01*
X458656Y26064D01*
X461936Y22129D02*
X458000D01*
Y20161D01*
X458656Y19505D01*
X461280D01*
X461936Y20161D01*
Y22129D01*
X471936Y30000D02*
X468656D01*
X468000Y29344D01*
Y28032D01*
X468656Y27376D01*
X471936D01*
Y23440D02*
Y26064D01*
X469968D01*
X470624Y24752D01*
Y24096D01*
X469968Y23440D01*
X468656D01*
X468000Y24096D01*
Y25408D01*
X468656Y26064D01*
X471280Y19505D02*
X471936Y20161D01*
Y21473D01*
X471280Y22129D01*
X468656D01*
X468000Y21473D01*
Y20161D01*
X468656Y19505D01*
X468000Y18193D02*
X471936D01*
X468000Y15569D01*
X471936D01*
X481936Y30000D02*
X478656D01*
X478000Y29344D01*
Y28032D01*
X478656Y27376D01*
X481936D01*
Y23440D02*
Y26064D01*
X479968D01*
X480624Y24752D01*
Y24096D01*
X479968Y23440D01*
X478656D01*
X478000Y24096D01*
Y25408D01*
X478656Y26064D01*
X481936Y22129D02*
X478000D01*
Y20161D01*
X478656Y19505D01*
X481280D01*
X481936Y20161D01*
Y22129D01*
X478000Y18193D02*
X481936D01*
X478000Y15569D01*
X481936D01*
X491280Y27376D02*
X491936Y28032D01*
Y29344D01*
X491280Y30000D01*
X488656D01*
X488000Y29344D01*
Y28032D01*
X488656Y27376D01*
X489968D01*
Y28688D01*
X488000Y26064D02*
X491936D01*
X488000Y23440D01*
X491936D01*
Y22129D02*
X488000D01*
Y20161D01*
X488656Y19505D01*
X491280D01*
X491936Y20161D01*
Y22129D01*
X487344Y18193D02*
Y15569D01*
X491936Y14257D02*
X489312D01*
X488000Y12945D01*
X489312Y11633D01*
X491936D01*
Y10321D02*
Y9009D01*
Y9665D01*
X488000D01*
Y10321D01*
Y9009D01*
Y7041D02*
X491936D01*
X488000Y4418D01*
X491936D01*
X501280Y27376D02*
X501936Y28032D01*
Y29344D01*
X501280Y30000D01*
X498656D01*
X498000Y29344D01*
Y28032D01*
X498656Y27376D01*
X499968D01*
Y28688D01*
X498000Y26064D02*
X501936D01*
X498000Y23440D01*
X501936D01*
Y22129D02*
X498000D01*
Y20161D01*
X498656Y19505D01*
X501280D01*
X501936Y20161D01*
Y22129D01*
X497344Y18193D02*
Y15569D01*
X498000Y14257D02*
Y12945D01*
Y13601D01*
X501936D01*
X501280Y14257D01*
X501936Y8353D02*
Y10977D01*
X499968D01*
X500624Y9665D01*
Y9009D01*
X499968Y8353D01*
X498656D01*
X498000Y9009D01*
Y10321D01*
X498656Y10977D01*
X501936Y7041D02*
X499312D01*
X498000Y5730D01*
X499312Y4418D01*
X501936D01*
X431936Y68000D02*
X428656D01*
X428000Y67344D01*
Y66032D01*
X428656Y65376D01*
X431936D01*
X431280Y64064D02*
X431936Y63408D01*
Y62096D01*
X431280Y61440D01*
X430624D01*
X429968Y62096D01*
Y62752D01*
Y62096D01*
X429312Y61440D01*
X428656D01*
X428000Y62096D01*
Y63408D01*
X428656Y64064D01*
X431280Y57505D02*
X431936Y58161D01*
Y59473D01*
X431280Y60128D01*
X428656D01*
X428000Y59473D01*
Y58161D01*
X428656Y57505D01*
X441936Y71000D02*
X438656D01*
X438000Y70344D01*
Y69032D01*
X438656Y68376D01*
X441936D01*
X441280Y67064D02*
X441936Y66408D01*
Y65096D01*
X441280Y64440D01*
X440624D01*
X439968Y65096D01*
Y65752D01*
Y65096D01*
X439312Y64440D01*
X438656D01*
X438000Y65096D01*
Y66408D01*
X438656Y67064D01*
X441280Y60505D02*
X441936Y61161D01*
Y62473D01*
X441280Y63129D01*
X438656D01*
X438000Y62473D01*
Y61161D01*
X438656Y60505D01*
X438000Y59193D02*
X441936D01*
Y57225D01*
X441280Y56569D01*
X439968D01*
X439312Y57225D01*
Y59193D01*
X451936Y71000D02*
X448656D01*
X448000Y70344D01*
Y69032D01*
X448656Y68376D01*
X451936D01*
X451280Y67064D02*
X451936Y66408D01*
Y65096D01*
X451280Y64440D01*
X450624D01*
X449968Y65096D01*
Y65752D01*
Y65096D01*
X449312Y64440D01*
X448656D01*
X448000Y65096D01*
Y66408D01*
X448656Y67064D01*
X451936Y63129D02*
X448000D01*
Y61161D01*
X448656Y60505D01*
X451280D01*
X451936Y61161D01*
Y63129D01*
X448000Y59193D02*
X451936D01*
Y57225D01*
X451280Y56569D01*
X449968D01*
X449312Y57225D01*
Y59193D01*
X461936Y68000D02*
X458656D01*
X458000Y67344D01*
Y66032D01*
X458656Y65376D01*
X461936D01*
Y61440D02*
Y64064D01*
X459968D01*
X460624Y62752D01*
Y62096D01*
X459968Y61440D01*
X458656D01*
X458000Y62096D01*
Y63408D01*
X458656Y64064D01*
X461280Y57505D02*
X461936Y58161D01*
Y59473D01*
X461280Y60128D01*
X458656D01*
X458000Y59473D01*
Y58161D01*
X458656Y57505D01*
X471936Y71000D02*
X468656D01*
X468000Y70344D01*
Y69032D01*
X468656Y68376D01*
X471936D01*
Y64440D02*
Y67064D01*
X469968D01*
X470624Y65752D01*
Y65096D01*
X469968Y64440D01*
X468656D01*
X468000Y65096D01*
Y66408D01*
X468656Y67064D01*
X471280Y60505D02*
X471936Y61161D01*
Y62473D01*
X471280Y63129D01*
X468656D01*
X468000Y62473D01*
Y61161D01*
X468656Y60505D01*
X468000Y59193D02*
X471936D01*
Y57225D01*
X471280Y56569D01*
X469968D01*
X469312Y57225D01*
Y59193D01*
X481936Y71000D02*
X478656D01*
X478000Y70344D01*
Y69032D01*
X478656Y68376D01*
X481936D01*
Y64440D02*
Y67064D01*
X479968D01*
X480624Y65752D01*
Y65096D01*
X479968Y64440D01*
X478656D01*
X478000Y65096D01*
Y66408D01*
X478656Y67064D01*
X481936Y63129D02*
X478000D01*
Y61161D01*
X478656Y60505D01*
X481280D01*
X481936Y61161D01*
Y63129D01*
X478000Y59193D02*
X481936D01*
Y57225D01*
X481280Y56569D01*
X479968D01*
X479312Y57225D01*
Y59193D01*
X491936Y68000D02*
X489312D01*
X488000Y66688D01*
X489312Y65376D01*
X491936D01*
Y64064D02*
Y62752D01*
Y63408D01*
X488000D01*
Y64064D01*
Y62752D01*
Y60785D02*
X491936D01*
X488000Y58161D01*
X491936D01*
X498000Y68000D02*
Y66688D01*
Y67344D01*
X501936D01*
X501280Y68000D01*
X501936Y62096D02*
Y64720D01*
X499968D01*
X500624Y63408D01*
Y62752D01*
X499968Y62096D01*
X498656D01*
X498000Y62752D01*
Y64064D01*
X498656Y64720D01*
X501936Y60785D02*
X499312D01*
X498000Y59473D01*
X499312Y58161D01*
X501936D01*
X511280Y27376D02*
X511936Y28032D01*
Y29344D01*
X511280Y30000D01*
X508656D01*
X508000Y29344D01*
Y28032D01*
X508656Y27376D01*
X509968D01*
Y28688D01*
X508000Y26064D02*
X511936D01*
X508000Y23440D01*
X511936D01*
Y22129D02*
X508000D01*
Y20161D01*
X508656Y19505D01*
X511280D01*
X511936Y20161D01*
Y22129D01*
X511280Y65376D02*
X511936Y66032D01*
Y67344D01*
X511280Y68000D01*
X508656D01*
X508000Y67344D01*
Y66032D01*
X508656Y65376D01*
X509968D01*
Y66688D01*
X508000Y64064D02*
X511936D01*
X508000Y61440D01*
X511936D01*
Y60128D02*
X508000D01*
Y58161D01*
X508656Y57505D01*
X511280D01*
X511936Y58161D01*
Y60128D01*
D18*
X348031Y385315D02*
X349364D01*
X348698D01*
Y389314D01*
X348031Y388647D01*
X353363Y385315D02*
Y389314D01*
X351364Y387314D01*
X354030D01*
X348031Y375315D02*
X349364D01*
X348698D01*
Y379314D01*
X348031Y378647D01*
X351364D02*
X352030Y379314D01*
X353363D01*
X354030Y378647D01*
Y377981D01*
X353363Y377314D01*
X352697D01*
X353363D01*
X354030Y376648D01*
Y375981D01*
X353363Y375315D01*
X352030D01*
X351364Y375981D01*
X278414Y385079D02*
X275748D01*
X278414Y387744D01*
Y388411D01*
X277747Y389077D01*
X276414D01*
X275748Y388411D01*
X276929Y375079D02*
X278262D01*
X277596D01*
Y379078D01*
X276929Y378411D01*
X29921Y330709D02*
Y332042D01*
Y331375D01*
X25923D01*
X26589Y330709D01*
X15686Y364477D02*
X16353Y363144D01*
X17686Y361811D01*
X19019D01*
X19685Y362477D01*
Y363810D01*
X19019Y364477D01*
X18352D01*
X17686Y363810D01*
Y361811D01*
X19921Y332193D02*
Y329528D01*
X17255Y332193D01*
X16589D01*
X15923Y331527D01*
Y330194D01*
X16589Y329528D01*
X25686Y364477D02*
Y361811D01*
X27686D01*
X27019Y363144D01*
Y363810D01*
X27686Y364477D01*
X29019D01*
X29685Y363810D01*
Y362477D01*
X29019Y361811D01*
X130551Y385315D02*
X131884D01*
X131218D01*
Y389314D01*
X130551Y388647D01*
X135883Y385315D02*
Y389314D01*
X133883Y387314D01*
X136549D01*
X130551Y375315D02*
X131884D01*
X131218D01*
Y379314D01*
X130551Y378647D01*
X133883D02*
X134550Y379314D01*
X135883D01*
X136549Y378647D01*
Y377981D01*
X135883Y377314D01*
X135216D01*
X135883D01*
X136549Y376648D01*
Y375981D01*
X135883Y375315D01*
X134550D01*
X133883Y375981D01*
X60934Y385079D02*
X58268D01*
X60934Y387744D01*
Y388411D01*
X60267Y389077D01*
X58934D01*
X58268Y388411D01*
X59449Y375079D02*
X60782D01*
X60115D01*
Y379078D01*
X59449Y378411D01*
X239291Y385315D02*
X240624D01*
X239958D01*
Y389314D01*
X239291Y388647D01*
X244623Y385315D02*
Y389314D01*
X242624Y387314D01*
X245289D01*
X239291Y375315D02*
X240624D01*
X239958D01*
Y379314D01*
X239291Y378647D01*
X242624D02*
X243290Y379314D01*
X244623D01*
X245289Y378647D01*
Y377981D01*
X244623Y377314D01*
X243956D01*
X244623D01*
X245289Y376648D01*
Y375981D01*
X244623Y375315D01*
X243290D01*
X242624Y375981D01*
X169674Y385079D02*
X167008D01*
X169674Y387744D01*
Y388411D01*
X169007Y389077D01*
X167674D01*
X167008Y388411D01*
X168189Y375079D02*
X169522D01*
X168855D01*
Y379078D01*
X168189Y378411D01*
X244145Y85195D02*
X240032D01*
X242088Y87252D02*
Y83139D01*
D19*
X313071Y366024D02*
D03*
X95591D02*
D03*
X204331D02*
D03*
D20*
X38976Y346850D02*
D03*
M02*
