M48
;Layer_Color=9474304
;FILE_FORMAT=2:5
INCH,LZ
;TYPE=PLATED
T1F00S00C0.01181
T2F00S00C0.01575
T3F00S00C0.02800
T4F00S00C0.03543
T5F00S00C0.03937
T6F00S00C0.04000
T7F00S00C0.04331
T8F00S00C0.05512
T9F00S00C0.06299
T10F00S00C0.15748
;TYPE=NON_PLATED
T11F00S00C0.12795
%
T01
X0350606Y0074402
X0351Y0107
X0479Y0074
X0482543
X0559Y0126
X0567Y0123
X0572Y0131
X0551Y0177
X0553425Y0179591
X0553Y0195
X0555425Y0197591
X05Y0196
X047Y0195
X0485Y0258
X0499394Y0260394
X0492Y0305
X0482
X0555Y0309
X0558Y0311
X0415394Y0260394
X0318Y0205
X0293Y0223
Y0232
Y0242
Y0251
X0293Y016
X0112Y016
X0102Y0205
X0112Y0224
Y0232
Y0242
Y0252
X0102Y027
X0112Y03
X0153Y0302
X0146756Y0236756
X0153Y0338
X0173Y0329
X0193Y0335
Y0358
X0213
Y0323
X0233Y0332
X0258Y0326
X0292Y0362
Y0366
X0413Y0374
X0412Y038
X0411Y0389
X0424Y0383
X043Y0386
X0437Y0377
X0429Y0338
X0423Y0335
X0418Y0332
X0413Y0329
X0407Y0326
X04Y0323
X0559Y0324
X0558Y0320516
T02
X0145276Y0017323
X0151575Y0023228
X0141Y0092
X0134
X0247Y0118
Y0122
X0252
Y0118
X0248Y0021
X0238
X023
X0478Y0159
X0506Y0168
X0508Y0232
X048Y022
X0515213Y0290488
X0523213
X0462756Y0269756
Y0264878
X0452Y0265173
X0452Y0269
X0448Y0202
Y0198
X0461Y0206
X0465
X0318Y027
X022Y0237
X0167Y0231
X0159
X0293Y0316
X045Y0389
X0458
X048Y0328
X0488
X0536221Y0344882
T03
X0236Y0076
Y0084
X0246
Y0076
T04
X0603236Y0063732
Y0071732
Y0079732
Y0087732
X0610236Y0091732
Y0083732
Y0075732
Y0067732
Y0129732
Y0137732
Y0145732
Y0153732
X0603236Y0149732
Y0141732
Y0133732
Y0125732
T05
X0190142Y003
Y004
Y005
X0199858Y01
Y011
Y012
T06
X0593937Y0206535
X0603937
Y0216535
Y0226535
Y0236535
Y0246535
Y0256535
Y0266535
Y0276535
Y0286535
Y0296535
Y0306535
X0593937
Y0296535
Y0286535
Y0276535
Y0266535
Y0256535
Y0246535
Y0236535
Y0226535
Y0216535
Y0316535
X0603937
Y0326535
Y0336535
Y0346535
X0593937
Y0336535
Y0326535
T07
X043Y0038
X044
X045
X046
Y005
X045
X044
X043
X047
X048
X049
X05
X051
Y0038
X05
X049
X048
X047
X0125591Y0377165
Y0387165
X0115591
X0105591
Y0377165
X0115591
X0095591
Y0387165
X0085591
Y0377165
X0075591
Y0387165
X0065591
Y0377165
X0027835Y035685
Y034685
Y033685
X0017835
Y034685
Y035685
X0174331Y0377165
X0184331
X0194331
X0204331
X0214331
Y0387165
X0224331
X0234331
Y0377165
X0224331
X0204331Y0387165
X0194331
X0184331
X0174331
X0283071
X0293071
X0303071
Y0377165
X0293071
X0283071
X0313071
X0323071
Y0387165
X0333071
X0343071
Y0377165
X0333071
X0313071Y0387165
T08
X0024409Y0088976
Y0098819
Y0108661
X002126Y0180315
Y0190157
Y02
Y0224803
Y0234646
Y0244488
X0021654Y0267323
Y0277165
Y0287008
T09
X0606736Y0045732
Y0171732
T10
X0019685Y0019685
X0015354Y0048032
X0627795Y0019685
X0019685Y0392795
X0627795Y0387795
T11
X0620236Y0052732
Y0164732
M30
