G04*
G04 #@! TF.GenerationSoftware,Altium Limited,Altium Designer,19.1.8 (144)*
G04*
G04 Layer_Color=32768*
%FSLAX25Y25*%
%MOIN*%
G70*
G01*
G75*
%ADD15C,0.01000*%
%ADD101C,0.00394*%
%ADD102C,0.00197*%
D15*
X194000Y40000D02*
X204000D01*
X199000Y35000D02*
Y45000D01*
D101*
X576031Y27000D02*
X579969D01*
X578000Y25032D02*
Y28969D01*
X480031Y177000D02*
X483968D01*
X482000Y175031D02*
Y178969D01*
X516032Y149000D02*
X519969D01*
X518000Y147031D02*
Y150969D01*
X516032Y142000D02*
X519969D01*
X518000Y140032D02*
Y143968D01*
X516032Y158000D02*
X519969D01*
X518000Y156032D02*
Y159968D01*
X516032Y165000D02*
X519969D01*
X518000Y163031D02*
Y166969D01*
X516032Y176000D02*
X519969D01*
X518000Y174031D02*
Y177969D01*
X516032Y183000D02*
X519969D01*
X518000Y181032D02*
Y184968D01*
X516032Y193000D02*
X519969D01*
X518000Y191032D02*
Y194968D01*
X516032Y200000D02*
X519969D01*
X518000Y198031D02*
Y201969D01*
X516032Y217000D02*
X519969D01*
X518000Y215032D02*
Y218969D01*
X516032Y210000D02*
X519969D01*
X518000Y208032D02*
Y211968D01*
X516032Y234000D02*
X519969D01*
X518000Y232031D02*
Y235968D01*
X516032Y227000D02*
X519969D01*
X518000Y225031D02*
Y228969D01*
X516032Y243000D02*
X519969D01*
X518000Y241032D02*
Y244969D01*
X516032Y250000D02*
X519969D01*
X518000Y248031D02*
Y251969D01*
X516032Y260000D02*
X519969D01*
X518000Y258032D02*
Y261968D01*
X516032Y267000D02*
X519969D01*
X518000Y265032D02*
Y268969D01*
Y309032D02*
Y312968D01*
X516032Y311000D02*
X519969D01*
X529000Y320031D02*
Y323969D01*
X527032Y322000D02*
X530969D01*
X516142Y279134D02*
X520079D01*
X518110Y277165D02*
Y281102D01*
X527032Y300000D02*
X530969D01*
X529000Y298031D02*
Y301969D01*
X515748Y332283D02*
X519685D01*
X517717Y330315D02*
Y334252D01*
X527032Y358000D02*
X530969D01*
X529000Y356031D02*
Y359968D01*
X514961Y379134D02*
X518898D01*
X516929Y377165D02*
Y381102D01*
X485433Y392126D02*
X489370D01*
X487402Y390158D02*
Y394094D01*
X340032Y106000D02*
X343969D01*
X342000Y104032D02*
Y107968D01*
X174268Y87165D02*
X207732D01*
X174268Y132835D02*
X207732D01*
X174268Y87165D02*
Y132835D01*
X207732Y87165D02*
Y132835D01*
X337315Y73858D02*
X341252D01*
X339283Y71890D02*
Y75827D01*
X484646Y301181D02*
Y305118D01*
X482677Y303150D02*
X486614D01*
X483287Y354429D02*
Y358366D01*
X481319Y356398D02*
X485256D01*
X482106Y238681D02*
Y242618D01*
X480138Y240650D02*
X484075D01*
X258000Y313032D02*
Y316969D01*
X256031Y315000D02*
X259968D01*
X258000Y348031D02*
Y351968D01*
X256031Y350000D02*
X259968D01*
X233000Y313031D02*
Y316968D01*
X231032Y315000D02*
X234969D01*
X233000Y348031D02*
Y351968D01*
X231032Y350000D02*
X234969D01*
X213000Y313032D02*
Y316968D01*
X211032Y315000D02*
X214968D01*
X213000Y348031D02*
Y351968D01*
X211031Y350000D02*
X214968D01*
X193000Y313032D02*
Y316968D01*
X191032Y315000D02*
X194969D01*
X193000Y348031D02*
Y351969D01*
X191032Y350000D02*
X194969D01*
X173000Y313031D02*
Y316968D01*
X171031Y315000D02*
X174968D01*
X173000Y348031D02*
Y351969D01*
X171031Y350000D02*
X174969D01*
X153000Y313031D02*
Y316968D01*
X151031Y315000D02*
X154969D01*
X153000Y348031D02*
Y351969D01*
X151032Y350000D02*
X154969D01*
X322000Y353031D02*
Y356968D01*
X320031Y355000D02*
X323968D01*
X322000Y338031D02*
Y341968D01*
X320031Y340000D02*
X323968D01*
X307000Y338031D02*
Y341968D01*
X305032Y340000D02*
X308969D01*
X307000Y353031D02*
Y356968D01*
X305031Y355000D02*
X308968D01*
X337000Y338032D02*
Y341968D01*
X335031Y340000D02*
X338968D01*
X337000Y353031D02*
Y356968D01*
X335031Y355000D02*
X338968D01*
X352000Y338032D02*
Y341969D01*
X350031Y340000D02*
X353969D01*
X352000Y353031D02*
Y356968D01*
X350032Y355000D02*
X353969D01*
X293000Y168032D02*
Y171968D01*
X291032Y170000D02*
X294969D01*
X293000Y183031D02*
Y186968D01*
X291032Y185000D02*
X294969D01*
X293000Y198031D02*
Y201969D01*
X291031Y200000D02*
X294968D01*
X293000Y213031D02*
Y216968D01*
X291032Y215000D02*
X294969D01*
X268032Y212000D02*
X271969D01*
X270000Y210032D02*
Y213969D01*
X253031Y212000D02*
X256968D01*
X255000Y210032D02*
Y213969D01*
X223031Y212000D02*
X226969D01*
X225000Y210032D02*
Y213968D01*
X238031Y212000D02*
X241968D01*
X240000Y210032D02*
Y213968D01*
X293000Y303031D02*
Y306968D01*
X291032Y305000D02*
X294969D01*
X293000Y288031D02*
Y291968D01*
X291031Y290000D02*
X294968D01*
X293000Y273031D02*
Y276968D01*
X291032Y275000D02*
X294969D01*
X293000Y258591D02*
Y262528D01*
X291032Y260559D02*
X294969D01*
X268031Y263000D02*
X271968D01*
X270000Y261031D02*
Y264968D01*
X253031Y263000D02*
X256968D01*
X255000Y261031D02*
Y264968D01*
X238032Y263000D02*
X241968D01*
X240000Y261031D02*
Y264968D01*
X223031Y263000D02*
X226969D01*
X225000Y261031D02*
Y264968D01*
X112000Y183032D02*
Y186969D01*
X110032Y185000D02*
X113969D01*
X112000Y168032D02*
Y171969D01*
X110032Y170000D02*
X113969D01*
X112000Y198032D02*
Y201969D01*
X110032Y200000D02*
X113969D01*
X112000Y213032D02*
Y216969D01*
X110032Y215000D02*
X113969D01*
X128032Y208000D02*
X131969D01*
X130000Y206032D02*
Y209969D01*
X143032Y208000D02*
X146969D01*
X145000Y206032D02*
Y209969D01*
X158032Y208000D02*
X161969D01*
X160000Y206032D02*
Y209969D01*
X172472Y208000D02*
X176409D01*
X174441Y206032D02*
Y209969D01*
X63472Y313000D02*
X67409D01*
X65441Y311032D02*
Y314969D01*
X48032Y313000D02*
X51969D01*
X50000Y311032D02*
Y314969D01*
X63472Y298000D02*
X67409D01*
X65441Y296032D02*
Y299969D01*
X48591Y298000D02*
X52528D01*
X50559Y296032D02*
Y299969D01*
X112000Y258591D02*
Y262528D01*
X110032Y260559D02*
X113969D01*
X112000Y273591D02*
Y277528D01*
X110032Y275559D02*
X113969D01*
X112000Y288472D02*
Y292409D01*
X110032Y290441D02*
X113969D01*
X63591Y343000D02*
X67528D01*
X65559Y341032D02*
Y344969D01*
X48032Y343000D02*
X51969D01*
X50000Y341032D02*
Y344969D01*
X63591Y328000D02*
X67528D01*
X65559Y326032D02*
Y329969D01*
X48032Y328000D02*
X51969D01*
X50000Y326032D02*
Y329969D01*
X167472Y262000D02*
X171409D01*
X169441Y260032D02*
Y263969D01*
X152472Y262000D02*
X156409D01*
X154441Y260032D02*
Y263969D01*
X137032Y262000D02*
X140969D01*
X139000Y260032D02*
Y263969D01*
X638000Y276535D02*
X645874D01*
X641937Y272598D02*
Y280472D01*
D102*
X470000Y48031D02*
Y51968D01*
X468032Y50000D02*
X471969D01*
X470000Y36031D02*
Y39968D01*
X468032Y38000D02*
X471969D01*
X311102Y382165D02*
X315039D01*
X313071Y380197D02*
Y384134D01*
X22835Y344882D02*
Y348819D01*
X20866Y346850D02*
X24803D01*
X93622Y382165D02*
X97559D01*
X95591Y380197D02*
Y384134D01*
X202362Y382165D02*
X206299D01*
X204331Y380197D02*
Y384134D01*
X216130Y113000D02*
X219870D01*
X218000Y111130D02*
Y114870D01*
X367016Y106000D02*
X368984D01*
X368000Y105016D02*
Y106984D01*
X367016Y74000D02*
X368984D01*
X368000Y73016D02*
Y74984D01*
X246130Y37000D02*
X249870D01*
X248000Y35130D02*
Y38870D01*
X221130Y37000D02*
X224870D01*
X223000Y35130D02*
Y38870D01*
X173130Y38000D02*
X176870D01*
X175000Y36130D02*
Y39870D01*
X150130Y38000D02*
X153870D01*
X152000Y36130D02*
Y39870D01*
X465130Y325000D02*
X468870D01*
X467000Y323130D02*
Y326870D01*
X463130Y377000D02*
X466870D01*
X465000Y375130D02*
Y378870D01*
X458000Y198130D02*
Y201870D01*
X456130Y200000D02*
X459870D01*
X460000Y258130D02*
Y261870D01*
X458130Y260000D02*
X461870D01*
X316130Y215000D02*
X319870D01*
X318000Y213130D02*
Y216870D01*
X247000Y220130D02*
Y223870D01*
X245130Y222000D02*
X248870D01*
X316130Y260000D02*
X319870D01*
X318000Y258130D02*
Y261870D01*
X247000Y250130D02*
Y253870D01*
X245130Y252000D02*
X248870D01*
X152244Y215130D02*
Y218870D01*
X150374Y217000D02*
X154114D01*
X100130Y215000D02*
X103870D01*
X102000Y213130D02*
Y216870D01*
X172130Y234000D02*
X175870D01*
X174000Y232130D02*
Y235870D01*
X100130Y259756D02*
X103870D01*
X102000Y257886D02*
Y261626D01*
X154756Y250130D02*
Y253870D01*
X152886Y252000D02*
X156626D01*
M02*
