M48
;Layer_Color=9474304
;FILE_FORMAT=2:4
INCH,TZ
;TYPE=PLATED
T1F00S00C0.0118
T2F00S00C0.0157
T3F00S00C0.0280
T4F00S00C0.0354
T5F00S00C0.0394
T6F00S00C0.0400
T7F00S00C0.0433
T8F00S00C0.0551
T9F00S00C0.0630
T10F00S00C0.1575
;TYPE=NON_PLATED
T11F00S00C0.1280
%
T01
X38155Y7394
X38200Y10600
X47900Y7400
X48254
X55900Y12600
X56700Y12300
X57200Y13100
X55100Y17700
X55342Y17959
X55300Y19500
X55542Y19759
X50000Y19600
X47000Y19500
X48500Y25800
X49939Y26039
X49200Y30500
X48200
X55500Y30900
X55800Y31100
X42300Y26000
X31800Y20500
X29300Y22300
Y23200
Y24200
Y25100
X29300Y16000
X11200Y16000
X10200Y20500
X11200Y22400
Y23200
Y24200
Y25200
X10200Y27000
X11200Y30000
X15300Y30200
X14676Y23676
X15300Y33800
X17300Y32900
X19300Y33500
Y35800
X21300
Y32300
X23300Y33200
X25800Y32600
X29100Y35400
Y36000
X41300Y37400
X41200Y38000
X41100Y38900
X42400Y38300
X43000Y38600
X43700Y37700
X42900Y33800
X42300Y33500
X41800Y33200
X41300Y32900
X40700Y32600
X40000Y32300
X55900Y32400
X55800Y32052
T02
X14528Y1732
X15157Y2323
X14100Y9200
X13400
X23000Y2100
X23800
X24800
X29000Y11700
Y12200
X29600
Y11700
X47800Y15900
X50600Y16800
X50800Y23200
X48000Y22000
X51521Y29049
X52321
X46276Y26976
Y26488
X45200Y26517
X45200Y26900
X44800Y20200
Y19800
X46100Y20600
X46500
X31800Y27000
X22000Y23700
X16700Y23100
X15900
X29300Y31600
X45000Y38900
X45800
X48000Y32800
X48800
X53622Y34488
T03
X23700Y7100
Y7800
X24700
Y7100
T04
X60324Y6373
Y7173
Y7973
Y8773
X61024Y9173
Y8373
Y7573
Y6773
Y12973
Y13773
Y14573
Y15373
X60324Y14973
Y14173
Y13373
Y12573
T05
X19014Y3000
Y4000
Y5000
X19986Y10000
Y11000
Y12000
T06
X59394Y20654
X60394
Y21654
Y22654
Y23654
Y24654
Y25654
Y26654
Y27654
Y28654
Y29654
Y30654
X59394
Y29654
Y28654
Y27654
Y26654
Y25654
Y24654
Y23654
Y22654
Y21654
Y31654
X60394
Y32654
Y33654
Y34654
X59394
Y33654
Y32654
T07
X43000Y3800
X44000
X45000
X46000
Y5000
X45000
X44000
X43000
X47000
X48000
X49000
X50000
X51000
Y3800
X50000
X49000
X48000
X47000
X12559Y37717
Y38717
X11559
X10559
Y37717
X11559
X9559
Y38717
X8559
Y37717
X7559
Y38717
X6559
Y37717
X2783Y35685
Y34685
Y33685
X1783
Y34685
Y35685
X17433Y37717
X18433
X19433
X20433
X21433
Y38717
X22433
X23433
Y37717
X22433
X20433Y38717
X19433
X18433
X17433
X28307
X29307
X30307
Y37717
X29307
X28307
X31307
X32307
Y38717
X33307
X34307
Y37717
X33307
X31307Y38717
T08
X2441Y8898
Y9882
Y10866
X2126Y18032
Y19016
Y20000
Y22480
Y23465
Y24449
X2165Y26732
Y27717
Y28701
T09
X60674Y4573
Y17173
T10
X1969Y1969
X1535Y4803
X62780Y1969
X1969Y39280
X62780Y38780
T11
X62024Y5273
Y16473
M30
