G04*
G04 #@! TF.GenerationSoftware,Altium Limited,Altium Designer,19.1.8 (144)*
G04*
G04 Layer_Color=16711935*
%FSLAX25Y25*%
%MOIN*%
G70*
G01*
G75*
%ADD18C,0.00600*%
%ADD101C,0.00394*%
%ADD105C,0.00400*%
D18*
X591826Y29150D02*
X592326Y29650D01*
Y30650D01*
X591826Y31150D01*
X589827D01*
X589327Y30650D01*
Y29650D01*
X589827Y29150D01*
X589327Y28150D02*
Y27151D01*
Y27651D01*
X592326D01*
X591826Y28150D01*
X589327Y24152D02*
X592326D01*
X590826Y25651D01*
Y23652D01*
X137174Y101850D02*
X136674Y101350D01*
Y100350D01*
X137174Y99850D01*
X139173D01*
X139673Y100350D01*
Y101350D01*
X139173Y101850D01*
X139673Y102849D02*
Y103849D01*
Y103349D01*
X136674D01*
X137174Y102849D01*
D101*
X588146Y23669D02*
Y32331D01*
X593854Y23669D02*
Y32331D01*
X588146Y23669D02*
X593854D01*
X588146Y32331D02*
X593854D01*
X135146Y98669D02*
X140854D01*
X135146Y107331D02*
X140854D01*
X135146Y98669D02*
Y107331D01*
X140854Y98669D02*
Y107331D01*
X641736Y44732D02*
Y172732D01*
X579736Y44732D02*
X641736D01*
X579736D02*
Y172732D01*
X641736D01*
D105*
X615618Y123526D02*
Y122193D01*
Y122860D01*
X618950D01*
X619616Y122193D01*
Y121527D01*
X618950Y120860D01*
X619616Y124859D02*
Y126192D01*
Y125525D01*
X615618D01*
X616284Y124859D01*
M02*
