G04*
G04 #@! TF.GenerationSoftware,Altium Limited,Altium Designer,19.1.8 (144)*
G04*
G04 Layer_Color=255*
%FSLAX25Y25*%
%MOIN*%
G70*
G01*
G75*
%ADD65C,0.06299*%
%ADD66R,0.06299X0.06299*%
%ADD67R,0.06299X0.06299*%
G04:AMPARAMS|DCode=68|XSize=82.68mil|YSize=82.68mil|CornerRadius=20.67mil|HoleSize=0mil|Usage=FLASHONLY|Rotation=90.000|XOffset=0mil|YOffset=0mil|HoleType=Round|Shape=RoundedRectangle|*
%AMROUNDEDRECTD68*
21,1,0.08268,0.04134,0,0,90.0*
21,1,0.04134,0.08268,0,0,90.0*
1,1,0.04134,0.02067,0.02067*
1,1,0.04134,0.02067,-0.02067*
1,1,0.04134,-0.02067,-0.02067*
1,1,0.04134,-0.02067,0.02067*
%
%ADD68ROUNDEDRECTD68*%
%ADD69C,0.08268*%
%ADD70R,0.05906X0.05906*%
%ADD71C,0.05906*%
%ADD72C,0.06000*%
%ADD73R,0.05512X0.05512*%
%ADD74C,0.05512*%
%ADD75C,0.12795*%
%ADD76C,0.09449*%
%ADD77C,0.05937*%
%ADD78R,0.05937X0.05937*%
D65*
X510000Y50000D02*
D03*
X500000D02*
D03*
X490000D02*
D03*
X470000D02*
D03*
X450000D02*
D03*
X440000D02*
D03*
X460000D02*
D03*
X480000D02*
D03*
X510000Y38000D02*
D03*
X500000D02*
D03*
X490000D02*
D03*
X470000D02*
D03*
X450000D02*
D03*
X440000D02*
D03*
X460000D02*
D03*
X480000D02*
D03*
X343071Y387165D02*
D03*
X333071D02*
D03*
X323071D02*
D03*
X343071Y377165D02*
D03*
X333071D02*
D03*
X323071D02*
D03*
X313071Y387165D02*
D03*
Y377165D02*
D03*
X303071Y387165D02*
D03*
Y377165D02*
D03*
X293071Y387165D02*
D03*
Y377165D02*
D03*
X283071Y387165D02*
D03*
X17835Y336850D02*
D03*
X27835Y346850D02*
D03*
X17835D02*
D03*
X27835Y356850D02*
D03*
X17835D02*
D03*
X125591Y387165D02*
D03*
X115591D02*
D03*
X105591D02*
D03*
X125591Y377165D02*
D03*
X115591D02*
D03*
X105591D02*
D03*
X95591Y387165D02*
D03*
Y377165D02*
D03*
X85591Y387165D02*
D03*
Y377165D02*
D03*
X75591Y387165D02*
D03*
Y377165D02*
D03*
X65591Y387165D02*
D03*
X234331D02*
D03*
X224331D02*
D03*
X214331D02*
D03*
X234331Y377165D02*
D03*
X224331D02*
D03*
X214331D02*
D03*
X204331Y387165D02*
D03*
Y377165D02*
D03*
X194331Y387165D02*
D03*
Y377165D02*
D03*
X184331Y387165D02*
D03*
Y377165D02*
D03*
X174331Y387165D02*
D03*
D66*
X430000Y50000D02*
D03*
Y38000D02*
D03*
X283071Y377165D02*
D03*
X65591D02*
D03*
X174331D02*
D03*
D67*
X27835Y336850D02*
D03*
D68*
X21260Y180315D02*
D03*
Y224803D02*
D03*
X21654Y267323D02*
D03*
X24409Y88976D02*
D03*
D69*
X21260Y200000D02*
D03*
Y190157D02*
D03*
Y244488D02*
D03*
Y234646D02*
D03*
X21654Y287008D02*
D03*
Y277165D02*
D03*
X24409Y98819D02*
D03*
Y108661D02*
D03*
D70*
X199858Y100000D02*
D03*
D71*
Y110000D02*
D03*
Y120000D02*
D03*
D72*
X603937Y346535D02*
D03*
Y336535D02*
D03*
Y326535D02*
D03*
Y316535D02*
D03*
Y306535D02*
D03*
Y296535D02*
D03*
Y286535D02*
D03*
Y276535D02*
D03*
Y266535D02*
D03*
Y256535D02*
D03*
Y246535D02*
D03*
Y236535D02*
D03*
Y226535D02*
D03*
Y216535D02*
D03*
Y206535D02*
D03*
X593937Y346535D02*
D03*
Y336535D02*
D03*
Y326535D02*
D03*
Y316535D02*
D03*
Y306535D02*
D03*
Y296535D02*
D03*
Y286535D02*
D03*
Y276535D02*
D03*
Y266535D02*
D03*
Y256535D02*
D03*
Y246535D02*
D03*
Y236535D02*
D03*
Y226535D02*
D03*
Y216535D02*
D03*
Y206535D02*
D03*
D73*
X610236Y91732D02*
D03*
Y153732D02*
D03*
D74*
X603236Y87732D02*
D03*
X610236Y83732D02*
D03*
X603236Y79732D02*
D03*
X610236Y75732D02*
D03*
X603236Y71732D02*
D03*
X610236Y67732D02*
D03*
X603236Y63732D02*
D03*
Y125732D02*
D03*
X610236Y129732D02*
D03*
X603236Y133732D02*
D03*
X610236Y137732D02*
D03*
X603236Y141732D02*
D03*
X610236Y145732D02*
D03*
X603236Y149732D02*
D03*
D75*
X620236Y52732D02*
D03*
Y164732D02*
D03*
D76*
X606736Y45732D02*
D03*
Y171732D02*
D03*
D77*
X190142Y30000D02*
D03*
Y40000D02*
D03*
D78*
Y50000D02*
D03*
M02*
