G04*
G04 #@! TF.GenerationSoftware,Altium Limited,Altium Designer,19.1.8 (144)*
G04*
G04 Layer_Color=16711935*
%FSLAX25Y25*%
%MOIN*%
G70*
G01*
G75*
%ADD32C,0.07099*%
%ADD33R,0.07099X0.07099*%
%ADD34R,0.07099X0.07099*%
G04:AMPARAMS|DCode=35|XSize=90.68mil|YSize=90.68mil|CornerRadius=24.67mil|HoleSize=0mil|Usage=FLASHONLY|Rotation=90.000|XOffset=0mil|YOffset=0mil|HoleType=Round|Shape=RoundedRectangle|*
%AMROUNDEDRECTD35*
21,1,0.09068,0.04134,0,0,90.0*
21,1,0.04134,0.09068,0,0,90.0*
1,1,0.04934,0.02067,0.02067*
1,1,0.04934,0.02067,-0.02067*
1,1,0.04934,-0.02067,-0.02067*
1,1,0.04934,-0.02067,0.02067*
%
%ADD35ROUNDEDRECTD35*%
%ADD36C,0.09068*%
%ADD37R,0.06706X0.06706*%
%ADD38C,0.06706*%
%ADD39C,0.06600*%
%ADD40R,0.06312X0.06312*%
%ADD41C,0.06312*%
%ADD42C,0.13595*%
%ADD43C,0.10249*%
%ADD44C,0.06737*%
%ADD45R,0.06737X0.06737*%
%ADD46C,0.05800*%
%ADD47C,0.03162*%
%ADD48C,0.02769*%
%ADD49C,0.16548*%
%ADD50C,0.20548*%
D32*
X510000Y50000D02*
D03*
X500000D02*
D03*
X490000D02*
D03*
X470000D02*
D03*
X450000D02*
D03*
X440000D02*
D03*
X460000D02*
D03*
X480000D02*
D03*
X510000Y38000D02*
D03*
X500000D02*
D03*
X490000D02*
D03*
X470000D02*
D03*
X450000D02*
D03*
X440000D02*
D03*
X460000D02*
D03*
X480000D02*
D03*
X343071Y387165D02*
D03*
X333071D02*
D03*
X323071D02*
D03*
X343071Y377165D02*
D03*
X333071D02*
D03*
X323071D02*
D03*
X313071Y387165D02*
D03*
Y377165D02*
D03*
X303071Y387165D02*
D03*
Y377165D02*
D03*
X293071Y387165D02*
D03*
Y377165D02*
D03*
X283071Y387165D02*
D03*
X17835Y336850D02*
D03*
X27835Y346850D02*
D03*
X17835D02*
D03*
X27835Y356850D02*
D03*
X17835D02*
D03*
X125591Y387165D02*
D03*
X115591D02*
D03*
X105591D02*
D03*
X125591Y377165D02*
D03*
X115591D02*
D03*
X105591D02*
D03*
X95591Y387165D02*
D03*
Y377165D02*
D03*
X85591Y387165D02*
D03*
Y377165D02*
D03*
X75591Y387165D02*
D03*
Y377165D02*
D03*
X65591Y387165D02*
D03*
X234331D02*
D03*
X224331D02*
D03*
X214331D02*
D03*
X234331Y377165D02*
D03*
X224331D02*
D03*
X214331D02*
D03*
X204331Y387165D02*
D03*
Y377165D02*
D03*
X194331Y387165D02*
D03*
Y377165D02*
D03*
X184331Y387165D02*
D03*
Y377165D02*
D03*
X174331Y387165D02*
D03*
D33*
X430000Y50000D02*
D03*
Y38000D02*
D03*
X283071Y377165D02*
D03*
X65591D02*
D03*
X174331D02*
D03*
D34*
X27835Y336850D02*
D03*
D35*
X21260Y180315D02*
D03*
Y224803D02*
D03*
X21654Y267323D02*
D03*
X24409Y88976D02*
D03*
D36*
X21260Y200000D02*
D03*
Y190157D02*
D03*
Y244488D02*
D03*
Y234646D02*
D03*
X21654Y287008D02*
D03*
Y277165D02*
D03*
X24409Y98819D02*
D03*
Y108661D02*
D03*
D37*
X199858Y100000D02*
D03*
D38*
Y110000D02*
D03*
Y120000D02*
D03*
D39*
X603937Y346535D02*
D03*
Y336535D02*
D03*
Y326535D02*
D03*
Y316535D02*
D03*
Y306535D02*
D03*
Y296535D02*
D03*
Y286535D02*
D03*
Y276535D02*
D03*
Y266535D02*
D03*
Y256535D02*
D03*
Y246535D02*
D03*
Y236535D02*
D03*
Y226535D02*
D03*
Y216535D02*
D03*
Y206535D02*
D03*
X593937Y346535D02*
D03*
Y336535D02*
D03*
Y326535D02*
D03*
Y316535D02*
D03*
Y306535D02*
D03*
Y296535D02*
D03*
Y286535D02*
D03*
Y276535D02*
D03*
Y266535D02*
D03*
Y256535D02*
D03*
Y246535D02*
D03*
Y236535D02*
D03*
Y226535D02*
D03*
Y216535D02*
D03*
Y206535D02*
D03*
D40*
X610236Y91732D02*
D03*
Y153732D02*
D03*
D41*
X603236Y87732D02*
D03*
X610236Y83732D02*
D03*
X603236Y79732D02*
D03*
X610236Y75732D02*
D03*
X603236Y71732D02*
D03*
X610236Y67732D02*
D03*
X603236Y63732D02*
D03*
Y125732D02*
D03*
X610236Y129732D02*
D03*
X603236Y133732D02*
D03*
X610236Y137732D02*
D03*
X603236Y141732D02*
D03*
X610236Y145732D02*
D03*
X603236Y149732D02*
D03*
D42*
X620236Y52732D02*
D03*
Y164732D02*
D03*
D43*
X606736Y45732D02*
D03*
Y171732D02*
D03*
D44*
X190142Y30000D02*
D03*
Y40000D02*
D03*
D45*
Y50000D02*
D03*
D46*
X247000Y78000D02*
D03*
X237000D02*
D03*
Y71000D02*
D03*
X247000D02*
D03*
D47*
X290000Y117000D02*
D03*
Y122000D02*
D03*
X296000D02*
D03*
Y117000D02*
D03*
X506000Y168000D02*
D03*
X478000Y159000D02*
D03*
X448000Y198000D02*
D03*
X508000Y232000D02*
D03*
X480000Y220000D02*
D03*
X523213Y290488D02*
D03*
X145276Y17323D02*
D03*
X151575Y23228D02*
D03*
X220000Y237000D02*
D03*
X536221Y344882D02*
D03*
X238000Y21000D02*
D03*
X248000D02*
D03*
X230000D02*
D03*
X480000Y328000D02*
D03*
X488000D02*
D03*
X458000Y389000D02*
D03*
X450000D02*
D03*
X515213Y290488D02*
D03*
X465000Y206000D02*
D03*
X461000D02*
D03*
X448000Y202000D02*
D03*
X462756Y264878D02*
D03*
Y269756D02*
D03*
X452000Y265173D02*
D03*
X452000Y269000D02*
D03*
X141000Y92000D02*
D03*
X134000D02*
D03*
X293000Y316000D02*
D03*
X318000Y270000D02*
D03*
X167000Y231000D02*
D03*
X159000D02*
D03*
D48*
X291000Y360000D02*
D03*
Y354000D02*
D03*
X423000Y260000D02*
D03*
X558000Y311000D02*
D03*
X482543Y74000D02*
D03*
X553425Y179591D02*
D03*
X555425Y197591D02*
D03*
X559000Y324000D02*
D03*
X558000Y320516D02*
D03*
X479000Y74000D02*
D03*
X470000Y195000D02*
D03*
X500000Y196000D02*
D03*
X553000Y195000D02*
D03*
X551000Y177000D02*
D03*
X482000Y305000D02*
D03*
X492000D02*
D03*
X555000Y309000D02*
D03*
X485000Y258000D02*
D03*
X499394Y260394D02*
D03*
X146756Y236756D02*
D03*
X112000Y232000D02*
D03*
X429000Y338000D02*
D03*
X423000Y335000D02*
D03*
X418000Y332000D02*
D03*
X400000Y323000D02*
D03*
X413000Y329000D02*
D03*
Y374000D02*
D03*
X381551Y73937D02*
D03*
X382000Y106000D02*
D03*
X153000Y302000D02*
D03*
X102000Y205000D02*
D03*
Y270000D02*
D03*
X112000Y300000D02*
D03*
Y160000D02*
D03*
X318000Y205000D02*
D03*
X293000Y160000D02*
D03*
X293000Y232000D02*
D03*
Y223000D02*
D03*
X112000Y242000D02*
D03*
X567000Y123000D02*
D03*
X559000Y126000D02*
D03*
X572000Y131000D02*
D03*
X412000Y380000D02*
D03*
X411000Y389000D02*
D03*
X424000Y383000D02*
D03*
X437000Y377000D02*
D03*
X430000Y386000D02*
D03*
X258000Y326000D02*
D03*
X407000D02*
D03*
X213000Y323000D02*
D03*
X173000Y329000D02*
D03*
X233000Y332000D02*
D03*
X193000Y335000D02*
D03*
X153000Y338000D02*
D03*
X213000Y358000D02*
D03*
X193000D02*
D03*
X293000Y242000D02*
D03*
Y251000D02*
D03*
X112000Y252000D02*
D03*
Y224000D02*
D03*
D49*
X19685Y392795D02*
D03*
D50*
X15354Y48032D02*
D03*
X627795Y19685D02*
D03*
Y387795D02*
D03*
X19685Y19685D02*
D03*
M02*
