G04*
G04 #@! TF.GenerationSoftware,Altium Limited,Altium Designer,19.1.8 (144)*
G04*
G04 Layer_Color=32768*
%FSLAX25Y25*%
%MOIN*%
G70*
G01*
G75*
%ADD15C,0.01000*%
%ADD101C,0.00394*%
%ADD102C,0.00197*%
D15*
X641891Y196614D02*
Y356485D01*
X607922Y356579D02*
X641891D01*
X607922Y350579D02*
Y356579D01*
X589922Y350579D02*
X607922D01*
X589922Y202579D02*
Y350579D01*
Y202579D02*
X607922D01*
Y196579D02*
Y202579D01*
Y196579D02*
X641891D01*
D101*
X361500Y102500D02*
X374500D01*
X361500D02*
Y109500D01*
X374500D01*
Y102500D02*
Y109500D01*
X361500Y70500D02*
X374500D01*
X361500D02*
Y77500D01*
X374500D01*
Y70500D02*
Y77500D01*
D102*
X129362Y6433D02*
Y74543D01*
X74638Y6433D02*
Y74543D01*
Y6433D02*
X129362D01*
X74638Y74543D02*
X129362D01*
X226646Y123661D02*
X257354D01*
X226646Y82717D02*
X257354D01*
X226646D02*
Y123661D01*
X257354Y82717D02*
Y123661D01*
X326362Y5945D02*
Y74055D01*
X271638Y5945D02*
Y74055D01*
Y5945D02*
X326362D01*
X271638Y74055D02*
X326362D01*
X575047Y21685D02*
Y32315D01*
X580953Y21685D02*
Y32315D01*
X575047Y21685D02*
X580953D01*
X575047Y32315D02*
X580953D01*
X461331Y162433D02*
X502669D01*
X461331Y191567D02*
X502669D01*
X461331Y162433D02*
Y191567D01*
X502669Y162433D02*
Y191567D01*
X512685Y146047D02*
Y151953D01*
X523315Y146047D02*
Y151953D01*
X512685D02*
X523315D01*
X512685Y146047D02*
X523315D01*
X512685Y139047D02*
Y144953D01*
X523315Y139047D02*
Y144953D01*
X512685D02*
X523315D01*
X512685Y139047D02*
X523315D01*
X512685Y155047D02*
Y160953D01*
X523315Y155047D02*
Y160953D01*
X512685D02*
X523315D01*
X512685Y155047D02*
X523315D01*
X512685Y162047D02*
Y167953D01*
X523315Y162047D02*
Y167953D01*
X512685D02*
X523315D01*
X512685Y162047D02*
X523315D01*
X512685Y173047D02*
Y178953D01*
X523315Y173047D02*
Y178953D01*
X512685D02*
X523315D01*
X512685Y173047D02*
X523315D01*
X512685Y180047D02*
Y185953D01*
X523315Y180047D02*
Y185953D01*
X512685D02*
X523315D01*
X512685Y180047D02*
X523315D01*
X512685Y190047D02*
Y195953D01*
X523315Y190047D02*
Y195953D01*
X512685D02*
X523315D01*
X512685Y190047D02*
X523315D01*
X512685Y197047D02*
Y202953D01*
X523315Y197047D02*
Y202953D01*
X512685D02*
X523315D01*
X512685Y197047D02*
X523315D01*
X512685Y214047D02*
Y219953D01*
X523315Y214047D02*
Y219953D01*
X512685D02*
X523315D01*
X512685Y214047D02*
X523315D01*
X512685Y207047D02*
Y212953D01*
X523315Y207047D02*
Y212953D01*
X512685D02*
X523315D01*
X512685Y207047D02*
X523315D01*
X512685Y231047D02*
Y236953D01*
X523315Y231047D02*
Y236953D01*
X512685D02*
X523315D01*
X512685Y231047D02*
X523315D01*
X512685Y224047D02*
Y229953D01*
X523315Y224047D02*
Y229953D01*
X512685D02*
X523315D01*
X512685Y224047D02*
X523315D01*
X512685Y240047D02*
Y245953D01*
X523315Y240047D02*
Y245953D01*
X512685D02*
X523315D01*
X512685Y240047D02*
X523315D01*
X512685Y247047D02*
Y252953D01*
X523315Y247047D02*
Y252953D01*
X512685D02*
X523315D01*
X512685Y247047D02*
X523315D01*
X512685Y257047D02*
Y262953D01*
X523315Y257047D02*
Y262953D01*
X512685D02*
X523315D01*
X512685Y257047D02*
X523315D01*
X512685Y264047D02*
Y269953D01*
X523315Y264047D02*
Y269953D01*
X512685D02*
X523315D01*
X512685Y264047D02*
X523315D01*
X515047Y305685D02*
X520953D01*
X515047Y316315D02*
X520953D01*
X515047Y305685D02*
Y316315D01*
X520953Y305685D02*
Y316315D01*
X526047Y327315D02*
X531953D01*
X526047Y316685D02*
X531953D01*
Y327315D01*
X526047Y316685D02*
Y327315D01*
X423622Y43917D02*
Y56083D01*
X516378Y43917D02*
Y56083D01*
X423622Y43917D02*
X516378D01*
X423622Y56083D02*
X516378D01*
X423622Y31917D02*
Y44083D01*
X516378Y31917D02*
Y44083D01*
X423622Y31917D02*
X516378D01*
X423622Y44083D02*
X516378D01*
X515158Y273819D02*
Y284449D01*
X521063Y273819D02*
Y284449D01*
X515158Y273819D02*
X521063D01*
X515158Y284449D02*
X521063D01*
X526047Y294685D02*
Y305315D01*
X531953Y294685D02*
Y305315D01*
X526047Y294685D02*
X531953D01*
X526047Y305315D02*
X531953D01*
X520669Y326969D02*
Y337598D01*
X514764Y326969D02*
Y337598D01*
X520669D01*
X514764Y326969D02*
X520669D01*
X531953Y352685D02*
Y363315D01*
X526047Y352685D02*
Y363315D01*
X531953D01*
X526047Y352685D02*
X531953D01*
X519882Y373819D02*
Y384449D01*
X513976Y373819D02*
Y384449D01*
X519882D01*
X513976Y373819D02*
X519882D01*
X484449Y386811D02*
Y397441D01*
X490354Y386811D02*
Y397441D01*
X484449Y386811D02*
X490354D01*
X484449Y397441D02*
X490354D01*
X347315Y103047D02*
Y108953D01*
X336685Y103047D02*
Y108953D01*
Y103047D02*
X347315D01*
X336685Y108953D02*
X347315D01*
X220165Y108473D02*
Y117528D01*
X215835Y108473D02*
Y117528D01*
X220165D01*
X215835Y108473D02*
X220165D01*
X3937Y170669D02*
Y209646D01*
X37402Y170669D02*
Y209646D01*
X20669Y188189D02*
Y192126D01*
X18701Y190157D02*
X22638D01*
X3937Y209646D02*
X37402D01*
X3937Y170669D02*
X37402D01*
X3937Y215157D02*
Y254134D01*
X37402Y215157D02*
Y254134D01*
X20669Y232677D02*
Y236614D01*
X18701Y234646D02*
X22638D01*
X3937Y254134D02*
X37402D01*
X3937Y215157D02*
X37402D01*
X4331Y257677D02*
Y296654D01*
X37795Y257677D02*
Y296654D01*
X21063Y275197D02*
Y279134D01*
X19094Y277165D02*
X23031D01*
X4331Y296654D02*
X37795D01*
X4331Y257677D02*
X37795D01*
X344599Y70906D02*
Y76811D01*
X333968Y70906D02*
Y76811D01*
Y70906D02*
X344599D01*
X333968Y76811D02*
X344599D01*
X250165Y32472D02*
Y41528D01*
X245835Y32472D02*
Y41528D01*
X250165D01*
X245835Y32472D02*
X250165D01*
X225165Y32473D02*
Y41528D01*
X220835Y32473D02*
Y41528D01*
X225165D01*
X220835Y32473D02*
X225165D01*
X177165Y33472D02*
Y42528D01*
X172835Y33472D02*
Y42528D01*
X177165D01*
X172835Y33472D02*
X177165D01*
X154165Y33472D02*
Y42528D01*
X149835Y33472D02*
Y42528D01*
X154165D01*
X149835Y33472D02*
X154165D01*
X464835Y320472D02*
Y329528D01*
X469165Y320472D02*
Y329528D01*
X464835Y320472D02*
X469165D01*
X464835Y329528D02*
X469165D01*
X505315Y288583D02*
Y317717D01*
X463976Y288583D02*
Y317717D01*
X505315D01*
X463976Y288583D02*
X505315D01*
X462835Y372473D02*
Y381527D01*
X467165Y372473D02*
Y381527D01*
X462835Y372473D02*
X467165D01*
X462835Y381527D02*
X467165D01*
X503957Y341831D02*
Y370965D01*
X462618Y341831D02*
Y370965D01*
X503957D01*
X462618Y341831D02*
X503957D01*
X453473Y197835D02*
X462528D01*
X453473Y202165D02*
X462528D01*
Y197835D02*
Y202165D01*
X453473Y197835D02*
Y202165D01*
X502776Y226083D02*
Y255217D01*
X461437Y226083D02*
Y255217D01*
X502776D01*
X461437Y226083D02*
X502776D01*
X455473Y257835D02*
X464528D01*
X455473Y262165D02*
X464528D01*
Y257835D02*
Y262165D01*
X455473Y257835D02*
Y262165D01*
X255047Y320315D02*
X260953D01*
X255047Y309685D02*
X260953D01*
Y320315D01*
X255047Y309685D02*
Y320315D01*
X255047Y355315D02*
X260953D01*
X255047Y344685D02*
X260953D01*
Y355315D01*
X255047Y344685D02*
Y355315D01*
X230047Y320315D02*
X235953D01*
X230047Y309685D02*
X235953D01*
Y320315D01*
X230047Y309685D02*
Y320315D01*
Y355315D02*
X235953D01*
X230047Y344685D02*
X235953D01*
Y355315D01*
X230047Y344685D02*
Y355315D01*
X210047Y320315D02*
X215953D01*
X210047Y309685D02*
X215953D01*
Y320315D01*
X210047Y309685D02*
Y320315D01*
X210047Y355315D02*
X215953D01*
X210047Y344685D02*
X215953D01*
Y355315D01*
X210047Y344685D02*
Y355315D01*
X190047Y320315D02*
X195953D01*
X190047Y309685D02*
X195953D01*
Y320315D01*
X190047Y309685D02*
Y320315D01*
Y355315D02*
X195953D01*
X190047Y344685D02*
X195953D01*
Y355315D01*
X190047Y344685D02*
Y355315D01*
X170047Y320315D02*
X175953D01*
X170047Y309685D02*
X175953D01*
Y320315D01*
X170047Y309685D02*
Y320315D01*
X170047Y355315D02*
X175953D01*
X170047Y344685D02*
X175953D01*
Y355315D01*
X170047Y344685D02*
Y355315D01*
X150047Y320315D02*
X155953D01*
X150047Y309685D02*
X155953D01*
Y320315D01*
X150047Y309685D02*
Y320315D01*
X150047Y355315D02*
X155953D01*
X150047Y344685D02*
X155953D01*
Y355315D01*
X150047Y344685D02*
Y355315D01*
X319047Y360315D02*
X324953D01*
X319047Y349685D02*
X324953D01*
Y360315D01*
X319047Y349685D02*
Y360315D01*
Y345315D02*
X324953D01*
X319047Y334685D02*
X324953D01*
Y345315D01*
X319047Y334685D02*
Y345315D01*
X304047D02*
X309953D01*
X304047Y334685D02*
X309953D01*
Y345315D01*
X304047Y334685D02*
Y345315D01*
X304047Y360315D02*
X309953D01*
X304047Y349685D02*
X309953D01*
Y360315D01*
X304047Y349685D02*
Y360315D01*
X334047Y345315D02*
X339953D01*
X334047Y334685D02*
X339953D01*
Y345315D01*
X334047Y334685D02*
Y345315D01*
Y360315D02*
X339953D01*
X334047Y349685D02*
X339953D01*
Y360315D01*
X334047Y349685D02*
Y360315D01*
X349047Y345315D02*
X354953D01*
X349047Y334685D02*
X354953D01*
Y345315D01*
X349047Y334685D02*
Y345315D01*
X349047Y360315D02*
X354953D01*
X349047Y349685D02*
X354953D01*
Y360315D01*
X349047Y349685D02*
Y360315D01*
X290047Y175315D02*
X295953D01*
X290047Y164685D02*
X295953D01*
Y175315D01*
X290047Y164685D02*
Y175315D01*
Y190315D02*
X295953D01*
X290047Y179685D02*
X295953D01*
Y190315D01*
X290047Y179685D02*
Y190315D01*
X290047Y205315D02*
X295953D01*
X290047Y194685D02*
X295953D01*
Y205315D01*
X290047Y194685D02*
Y205315D01*
X290047Y220315D02*
X295953D01*
X290047Y209685D02*
X295953D01*
Y220315D01*
X290047Y209685D02*
Y220315D01*
X315835Y210472D02*
Y219528D01*
X320165Y210472D02*
Y219528D01*
X315835Y210472D02*
X320165D01*
X315835Y219528D02*
X320165D01*
X264685Y209047D02*
Y214953D01*
X275315Y209047D02*
Y214953D01*
X264685D02*
X275315D01*
X264685Y209047D02*
X275315D01*
X249685D02*
Y214953D01*
X260315Y209047D02*
Y214953D01*
X249685D02*
X260315D01*
X249685Y209047D02*
X260315D01*
X219685Y209047D02*
Y214953D01*
X230315Y209047D02*
Y214953D01*
X219685D02*
X230315D01*
X219685Y209047D02*
X230315D01*
X234685D02*
Y214953D01*
X245315Y209047D02*
Y214953D01*
X234685D02*
X245315D01*
X234685Y209047D02*
X245315D01*
X242473Y224165D02*
X251528D01*
X242473Y219835D02*
X251528D01*
X242473D02*
Y224165D01*
X251528Y219835D02*
Y224165D01*
X290047Y299685D02*
X295953D01*
X290047Y310315D02*
X295953D01*
X290047Y299685D02*
Y310315D01*
X295953Y299685D02*
Y310315D01*
X290047Y284685D02*
X295953D01*
X290047Y295315D02*
X295953D01*
X290047Y284685D02*
Y295315D01*
X295953Y284685D02*
Y295315D01*
X290047Y269685D02*
X295953D01*
X290047Y280315D02*
X295953D01*
X290047Y269685D02*
Y280315D01*
X295953Y269685D02*
Y280315D01*
X320165Y255472D02*
Y264528D01*
X315834Y255472D02*
Y264528D01*
X320165D01*
X315834Y255472D02*
X320165D01*
X290047Y255244D02*
X295953D01*
X290047Y265874D02*
X295953D01*
X290047Y255244D02*
Y265874D01*
X295953Y255244D02*
Y265874D01*
X264685Y260047D02*
Y265953D01*
X275315Y260047D02*
Y265953D01*
X264685D02*
X275315D01*
X264685Y260047D02*
X275315D01*
X249685D02*
Y265953D01*
X260315Y260047D02*
Y265953D01*
X249685D02*
X260315D01*
X249685Y260047D02*
X260315D01*
X234685D02*
Y265953D01*
X245315Y260047D02*
Y265953D01*
X234685D02*
X245315D01*
X234685Y260047D02*
X245315D01*
X219685D02*
Y265953D01*
X230315Y260047D02*
Y265953D01*
X219685D02*
X230315D01*
X219685Y260047D02*
X230315D01*
X242473Y249835D02*
X251528D01*
X242473Y254165D02*
X251528D01*
Y249835D02*
Y254165D01*
X242473Y249835D02*
Y254165D01*
X147717Y219165D02*
X156772D01*
X147717Y214835D02*
X156772D01*
X147717D02*
Y219165D01*
X156772Y214835D02*
Y219165D01*
X109047Y190315D02*
X114953D01*
X109047Y179685D02*
X114953D01*
Y190315D01*
X109047Y179685D02*
Y190315D01*
Y175315D02*
X114953D01*
X109047Y164685D02*
X114953D01*
Y175315D01*
X109047Y164685D02*
Y175315D01*
Y205315D02*
X114953D01*
X109047Y194685D02*
X114953D01*
Y205315D01*
X109047Y194685D02*
Y205315D01*
Y220315D02*
X114953D01*
X109047Y209685D02*
X114953D01*
Y220315D01*
X109047Y209685D02*
Y220315D01*
X99835Y210472D02*
Y219528D01*
X104165Y210472D02*
Y219528D01*
X99835Y210472D02*
X104165D01*
X99835Y219528D02*
X104165D01*
X124685Y205047D02*
Y210953D01*
X135315Y205047D02*
Y210953D01*
X124685D02*
X135315D01*
X124685Y205047D02*
X135315D01*
X139685D02*
Y210953D01*
X150315Y205047D02*
Y210953D01*
X139685D02*
X150315D01*
X139685Y205047D02*
X150315D01*
X154685D02*
Y210953D01*
X165315Y205047D02*
Y210953D01*
X154685D02*
X165315D01*
X154685Y205047D02*
X165315D01*
X169126D02*
Y210953D01*
X179756Y205047D02*
Y210953D01*
X169126D02*
X179756D01*
X169126Y205047D02*
X179756D01*
X60126Y310047D02*
Y315953D01*
X70756Y310047D02*
Y315953D01*
X60126D02*
X70756D01*
X60126Y310047D02*
X70756D01*
X44685D02*
Y315953D01*
X55315Y310047D02*
Y315953D01*
X44685D02*
X55315D01*
X44685Y310047D02*
X55315D01*
X60126Y295047D02*
Y300953D01*
X70756Y295047D02*
Y300953D01*
X60126D02*
X70756D01*
X60126Y295047D02*
X70756D01*
X45244D02*
Y300953D01*
X55874Y295047D02*
Y300953D01*
X45244D02*
X55874D01*
X45244Y295047D02*
X55874D01*
X176165Y229472D02*
Y238527D01*
X171835Y229472D02*
Y238527D01*
X176165D01*
X171835Y229472D02*
X176165D01*
X109047Y255244D02*
X114953D01*
X109047Y265874D02*
X114953D01*
X109047Y255244D02*
Y265874D01*
X114953Y255244D02*
Y265874D01*
X109047Y270244D02*
X114953D01*
X109047Y280874D02*
X114953D01*
X109047Y270244D02*
Y280874D01*
X114953Y270244D02*
Y280874D01*
X104165Y255228D02*
Y264283D01*
X99835Y255228D02*
Y264283D01*
X104165D01*
X99835Y255228D02*
X104165D01*
X109047Y285126D02*
X114953D01*
X109047Y295756D02*
X114953D01*
X109047Y285126D02*
Y295756D01*
X114953Y285126D02*
Y295756D01*
X60244Y340047D02*
Y345953D01*
X70874Y340047D02*
Y345953D01*
X60244D02*
X70874D01*
X60244Y340047D02*
X70874D01*
X44685D02*
Y345953D01*
X55315Y340047D02*
Y345953D01*
X44685D02*
X55315D01*
X44685Y340047D02*
X55315D01*
X60244Y325047D02*
Y330953D01*
X70874Y325047D02*
Y330953D01*
X60244D02*
X70874D01*
X60244Y325047D02*
X70874D01*
X44685D02*
Y330953D01*
X55315Y325047D02*
Y330953D01*
X44685D02*
X55315D01*
X44685Y325047D02*
X55315D01*
X164126Y259047D02*
Y264953D01*
X174756Y259047D02*
Y264953D01*
X164126D02*
X174756D01*
X164126Y259047D02*
X174756D01*
X149126D02*
Y264953D01*
X159756Y259047D02*
Y264953D01*
X149126D02*
X159756D01*
X149126Y259047D02*
X159756D01*
X133685D02*
Y264953D01*
X144315Y259047D02*
Y264953D01*
X133685D02*
X144315D01*
X133685Y259047D02*
X144315D01*
X150228Y249835D02*
X159283D01*
X150228Y254165D02*
X159283D01*
Y249835D02*
Y254165D01*
X150228Y249835D02*
Y254165D01*
X7087Y79331D02*
X40551D01*
X7087Y118307D02*
X40551D01*
X21850Y98819D02*
X25787D01*
X23819Y96850D02*
Y100787D01*
X40551Y79331D02*
Y118307D01*
X7087Y79331D02*
Y118307D01*
X181283Y16378D02*
X216717D01*
X181283Y64016D02*
X216717D01*
X181283Y16378D02*
Y64016D01*
X216717Y16378D02*
Y64016D01*
M02*
