G04*
G04 #@! TF.GenerationSoftware,Altium Limited,Altium Designer,19.1.8 (144)*
G04*
G04 Layer_Color=8421504*
%FSLAX25Y25*%
%MOIN*%
G70*
G01*
G75*
%ADD21R,0.09252X0.25197*%
%ADD22R,0.07087X0.13386*%
%ADD23R,0.16693X0.15000*%
%ADD24R,0.06102X0.05315*%
%ADD25R,0.03740X0.03347*%
G04:AMPARAMS|DCode=26|XSize=23.62mil|YSize=57.09mil|CornerRadius=2.01mil|HoleSize=0mil|Usage=FLASHONLY|Rotation=180.000|XOffset=0mil|YOffset=0mil|HoleType=Round|Shape=RoundedRectangle|*
%AMROUNDEDRECTD26*
21,1,0.02362,0.05307,0,0,180.0*
21,1,0.01961,0.05709,0,0,180.0*
1,1,0.00402,-0.00980,0.02653*
1,1,0.00402,0.00980,0.02653*
1,1,0.00402,0.00980,-0.02653*
1,1,0.00402,-0.00980,-0.02653*
%
%ADD26ROUNDEDRECTD26*%
%ADD27R,0.03347X0.03740*%
%ADD28R,0.03543X0.02756*%
%ADD29R,0.03150X0.03150*%
%ADD30R,0.02756X0.03543*%
%ADD31R,0.06004X0.02559*%
D21*
X102000Y59976D02*
D03*
Y21000D02*
D03*
X299000Y59488D02*
D03*
Y20512D02*
D03*
D22*
X242000Y115000D02*
D03*
Y91378D02*
D03*
D23*
X93858Y90370D02*
D03*
X68661D02*
D03*
X68803Y121000D02*
D03*
X94000D02*
D03*
D24*
X591000Y24063D02*
D03*
Y31937D02*
D03*
X138000Y99063D02*
D03*
Y106937D02*
D03*
D25*
X578000Y24441D02*
D03*
Y29559D02*
D03*
X518000Y308441D02*
D03*
Y313559D02*
D03*
X529000Y319441D02*
D03*
Y324559D02*
D03*
X518110Y276575D02*
D03*
Y281693D02*
D03*
X529000Y297441D02*
D03*
Y302559D02*
D03*
X517717Y334842D02*
D03*
Y329724D02*
D03*
X529000Y360559D02*
D03*
Y355441D02*
D03*
X516929Y381693D02*
D03*
Y376575D02*
D03*
X487402Y389567D02*
D03*
Y394685D02*
D03*
X258000Y317559D02*
D03*
Y312441D02*
D03*
X258000Y352559D02*
D03*
Y347441D02*
D03*
X233000Y317559D02*
D03*
Y312441D02*
D03*
Y352559D02*
D03*
Y347441D02*
D03*
X213000Y317559D02*
D03*
Y312441D02*
D03*
X213000Y352559D02*
D03*
Y347441D02*
D03*
X193000Y317559D02*
D03*
Y312441D02*
D03*
Y352559D02*
D03*
Y347441D02*
D03*
X173000Y317559D02*
D03*
Y312441D02*
D03*
X173000Y352559D02*
D03*
Y347441D02*
D03*
X153000Y317559D02*
D03*
Y312441D02*
D03*
X153000Y352559D02*
D03*
Y347441D02*
D03*
X322000Y357559D02*
D03*
Y352441D02*
D03*
Y342559D02*
D03*
Y337441D02*
D03*
X307000Y342559D02*
D03*
Y337441D02*
D03*
X307000Y357559D02*
D03*
Y352441D02*
D03*
X337000Y342559D02*
D03*
Y337441D02*
D03*
Y357559D02*
D03*
Y352441D02*
D03*
X352000Y342559D02*
D03*
Y337441D02*
D03*
X352000Y357559D02*
D03*
Y352441D02*
D03*
X293000Y172559D02*
D03*
Y167441D02*
D03*
Y187559D02*
D03*
Y182441D02*
D03*
X293000Y202559D02*
D03*
Y197441D02*
D03*
X293000Y217559D02*
D03*
Y212441D02*
D03*
X293000Y302441D02*
D03*
Y307559D02*
D03*
X293000Y287441D02*
D03*
Y292559D02*
D03*
X293000Y272441D02*
D03*
Y277559D02*
D03*
X293000Y258000D02*
D03*
Y263118D02*
D03*
X112000Y187559D02*
D03*
Y182441D02*
D03*
Y172559D02*
D03*
Y167441D02*
D03*
Y202559D02*
D03*
Y197441D02*
D03*
Y217559D02*
D03*
Y212441D02*
D03*
Y258000D02*
D03*
Y263118D02*
D03*
Y273000D02*
D03*
Y278118D02*
D03*
Y287882D02*
D03*
Y293000D02*
D03*
D26*
X469500Y166272D02*
D03*
X474500D02*
D03*
X484500D02*
D03*
X489500D02*
D03*
Y187728D02*
D03*
X494500D02*
D03*
X474500D02*
D03*
X479500D02*
D03*
X464500Y166272D02*
D03*
X479500D02*
D03*
X494500D02*
D03*
X499500D02*
D03*
X464500Y187728D02*
D03*
X469500D02*
D03*
X484500D02*
D03*
X499500D02*
D03*
X469606Y229921D02*
D03*
X474606D02*
D03*
X484606D02*
D03*
X489606D02*
D03*
Y251378D02*
D03*
X494606D02*
D03*
X474606D02*
D03*
X479606D02*
D03*
X497146Y313878D02*
D03*
X502146D02*
D03*
X472146D02*
D03*
X477146D02*
D03*
X492146Y292421D02*
D03*
X497146D02*
D03*
X467146D02*
D03*
X472146D02*
D03*
X465787Y345669D02*
D03*
X470787D02*
D03*
X490787D02*
D03*
X495787D02*
D03*
Y367126D02*
D03*
X500787D02*
D03*
X470787D02*
D03*
X475787D02*
D03*
X492146Y313878D02*
D03*
X487146D02*
D03*
X482146D02*
D03*
X467146D02*
D03*
X502146Y292421D02*
D03*
X487146D02*
D03*
X482146D02*
D03*
X477146D02*
D03*
X490787Y367126D02*
D03*
X485787D02*
D03*
X480787D02*
D03*
X465787D02*
D03*
X500787Y345669D02*
D03*
X485787D02*
D03*
X480787D02*
D03*
X475787D02*
D03*
X499606Y251378D02*
D03*
X484606D02*
D03*
X469606D02*
D03*
X464606D02*
D03*
X499606Y229921D02*
D03*
X494606D02*
D03*
X479606D02*
D03*
X464606D02*
D03*
D27*
X515441Y149000D02*
D03*
X520559D02*
D03*
X515441Y142000D02*
D03*
X520559D02*
D03*
X515441Y158000D02*
D03*
X520559D02*
D03*
X515441Y165000D02*
D03*
X520559D02*
D03*
X515441Y176000D02*
D03*
X520559D02*
D03*
X515441Y183000D02*
D03*
X520559D02*
D03*
X515441Y193000D02*
D03*
X520559D02*
D03*
X515441Y200000D02*
D03*
X520559D02*
D03*
X515441Y217000D02*
D03*
X520559D02*
D03*
X515441Y210000D02*
D03*
X520559D02*
D03*
X515441Y234000D02*
D03*
X520559D02*
D03*
X515441Y227000D02*
D03*
X520559D02*
D03*
X515441Y243000D02*
D03*
X520559D02*
D03*
X515441Y250000D02*
D03*
X520559D02*
D03*
X515441Y260000D02*
D03*
X520559D02*
D03*
X515441Y267000D02*
D03*
X520559D02*
D03*
X344559Y106000D02*
D03*
X339441D02*
D03*
X341843Y73858D02*
D03*
X336724D02*
D03*
X267441Y212000D02*
D03*
X272559D02*
D03*
X252441D02*
D03*
X257559D02*
D03*
X222441Y212000D02*
D03*
X227559D02*
D03*
X237441D02*
D03*
X242559D02*
D03*
X267441Y263000D02*
D03*
X272559D02*
D03*
X252441D02*
D03*
X257559D02*
D03*
X237441D02*
D03*
X242559D02*
D03*
X222441D02*
D03*
X227559D02*
D03*
X127441Y208000D02*
D03*
X132559D02*
D03*
X142441D02*
D03*
X147559D02*
D03*
X157441D02*
D03*
X162559D02*
D03*
X171882D02*
D03*
X177000D02*
D03*
X62882Y313000D02*
D03*
X68000D02*
D03*
X47441D02*
D03*
X52559D02*
D03*
X62882Y298000D02*
D03*
X68000D02*
D03*
X48000D02*
D03*
X53118D02*
D03*
X63000Y343000D02*
D03*
X68118D02*
D03*
X47441D02*
D03*
X52559D02*
D03*
X63000Y328000D02*
D03*
X68118D02*
D03*
X47441D02*
D03*
X52559D02*
D03*
X166882Y262000D02*
D03*
X172000D02*
D03*
X151882D02*
D03*
X157000D02*
D03*
X136441D02*
D03*
X141559D02*
D03*
D28*
X218000Y115756D02*
D03*
Y110244D02*
D03*
X248000Y39756D02*
D03*
Y34244D02*
D03*
X223000Y39756D02*
D03*
Y34244D02*
D03*
X175000Y40756D02*
D03*
Y35244D02*
D03*
X152000Y40756D02*
D03*
Y35244D02*
D03*
X467000Y322244D02*
D03*
Y327756D02*
D03*
X465000Y374244D02*
D03*
Y379756D02*
D03*
X318000Y212244D02*
D03*
Y217756D02*
D03*
X318000Y262756D02*
D03*
Y257244D02*
D03*
X102000Y212244D02*
D03*
Y217756D02*
D03*
X174000Y236756D02*
D03*
Y231244D02*
D03*
X102000Y262512D02*
D03*
Y257000D02*
D03*
D29*
X364850Y106000D02*
D03*
X371150D02*
D03*
X364850Y74000D02*
D03*
X371150D02*
D03*
D30*
X460756Y200000D02*
D03*
X455244D02*
D03*
X462756Y260000D02*
D03*
X457244D02*
D03*
X244244Y222000D02*
D03*
X249756D02*
D03*
X249756Y252000D02*
D03*
X244244D02*
D03*
X149488Y217000D02*
D03*
X155000D02*
D03*
X157512Y252000D02*
D03*
X152000D02*
D03*
D31*
X210354D02*
D03*
Y247000D02*
D03*
Y242000D02*
D03*
Y237000D02*
D03*
Y232000D02*
D03*
Y227000D02*
D03*
Y222000D02*
D03*
X189000D02*
D03*
Y227000D02*
D03*
Y232000D02*
D03*
Y237000D02*
D03*
Y242000D02*
D03*
Y247000D02*
D03*
Y252000D02*
D03*
M02*
