G04*
G04 #@! TF.GenerationSoftware,Altium Limited,Altium Designer,19.1.8 (144)*
G04*
G04 Layer_Physical_Order=1*
G04 Layer_Color=255*
%FSLAX25Y25*%
%MOIN*%
G70*
G01*
G75*
%ADD13C,0.03937*%
%ADD14C,0.00591*%
%ADD15C,0.01000*%
%ADD51R,0.09252X0.25197*%
%ADD52R,0.07087X0.13386*%
%ADD53R,0.16693X0.15000*%
%ADD54R,0.06102X0.05315*%
%ADD55R,0.03740X0.03347*%
G04:AMPARAMS|DCode=56|XSize=23.62mil|YSize=57.09mil|CornerRadius=2.01mil|HoleSize=0mil|Usage=FLASHONLY|Rotation=180.000|XOffset=0mil|YOffset=0mil|HoleType=Round|Shape=RoundedRectangle|*
%AMROUNDEDRECTD56*
21,1,0.02362,0.05307,0,0,180.0*
21,1,0.01961,0.05709,0,0,180.0*
1,1,0.00402,-0.00980,0.02653*
1,1,0.00402,0.00980,0.02653*
1,1,0.00402,0.00980,-0.02653*
1,1,0.00402,-0.00980,-0.02653*
%
%ADD56ROUNDEDRECTD56*%
%ADD57R,0.03347X0.03740*%
%ADD58R,0.03543X0.02756*%
%ADD59R,0.03150X0.03150*%
%ADD60R,0.02756X0.03543*%
%ADD61R,0.06004X0.02559*%
%ADD62C,0.01968*%
%ADD63C,0.00396*%
%ADD64C,0.00512*%
%ADD65C,0.06299*%
%ADD66R,0.06299X0.06299*%
%ADD67R,0.06299X0.06299*%
G04:AMPARAMS|DCode=68|XSize=82.68mil|YSize=82.68mil|CornerRadius=20.67mil|HoleSize=0mil|Usage=FLASHONLY|Rotation=90.000|XOffset=0mil|YOffset=0mil|HoleType=Round|Shape=RoundedRectangle|*
%AMROUNDEDRECTD68*
21,1,0.08268,0.04134,0,0,90.0*
21,1,0.04134,0.08268,0,0,90.0*
1,1,0.04134,0.02067,0.02067*
1,1,0.04134,0.02067,-0.02067*
1,1,0.04134,-0.02067,-0.02067*
1,1,0.04134,-0.02067,0.02067*
%
%ADD68ROUNDEDRECTD68*%
%ADD69C,0.08268*%
%ADD70R,0.05906X0.05906*%
%ADD71C,0.05906*%
%ADD72C,0.06000*%
%ADD73R,0.05512X0.05512*%
%ADD74C,0.05512*%
%ADD75C,0.12795*%
%ADD76C,0.09449*%
%ADD77C,0.05937*%
%ADD78R,0.05937X0.05937*%
%ADD79C,0.05000*%
%ADD80C,0.02362*%
%ADD81C,0.01968*%
%ADD82C,0.15748*%
%ADD83C,0.19748*%
G36*
X358000Y394000D02*
Y364000D01*
X354232Y360232D01*
X353529D01*
Y371000D01*
X353413Y371585D01*
X353081Y372081D01*
X352034Y373129D01*
X351538Y373460D01*
X350953Y373577D01*
X345988D01*
X345827Y374050D01*
X346030Y374206D01*
X346695Y375073D01*
X347114Y376082D01*
X347190Y376665D01*
X338951D01*
X339028Y376082D01*
X339446Y375073D01*
X340111Y374206D01*
X340314Y374050D01*
X340154Y373577D01*
X335988D01*
X335827Y374050D01*
X336030Y374206D01*
X336696Y375073D01*
X337114Y376082D01*
X337256Y377165D01*
X337114Y378249D01*
X336696Y379258D01*
X336030Y380125D01*
X335163Y380790D01*
X334154Y381208D01*
X333071Y381351D01*
X331988Y381208D01*
X330978Y380790D01*
X330111Y380125D01*
X329446Y379258D01*
X329028Y378249D01*
X328885Y377165D01*
X329028Y376082D01*
X329446Y375073D01*
X330111Y374206D01*
X330314Y374050D01*
X330153Y373577D01*
X325988D01*
X325827Y374050D01*
X326030Y374206D01*
X326695Y375073D01*
X327114Y376082D01*
X327256Y377165D01*
X327114Y378249D01*
X326695Y379258D01*
X326030Y380125D01*
X325164Y380790D01*
X324154Y381208D01*
X323071Y381351D01*
X321988Y381208D01*
X320978Y380790D01*
X320111Y380125D01*
X319446Y379258D01*
X319028Y378249D01*
X318885Y377165D01*
X319028Y376082D01*
X319446Y375073D01*
X320111Y374206D01*
X320314Y374050D01*
X320153Y373577D01*
X315988D01*
X315827Y374050D01*
X316030Y374206D01*
X316695Y375073D01*
X317114Y376082D01*
X317256Y377165D01*
X317114Y378249D01*
X316695Y379258D01*
X316030Y380125D01*
X315163Y380790D01*
X314154Y381208D01*
X313071Y381351D01*
X311987Y381208D01*
X310978Y380790D01*
X310111Y380125D01*
X309446Y379258D01*
X309028Y378249D01*
X308885Y377165D01*
X309028Y376082D01*
X309446Y375073D01*
X310111Y374206D01*
X310314Y374050D01*
X310154Y373577D01*
X305988D01*
X305827Y374050D01*
X306030Y374206D01*
X306696Y375073D01*
X307114Y376082D01*
X307256Y377165D01*
X307114Y378249D01*
X306696Y379258D01*
X306030Y380125D01*
X305164Y380790D01*
X304154Y381208D01*
X303071Y381351D01*
X301988Y381208D01*
X300978Y380790D01*
X300111Y380125D01*
X299446Y379258D01*
X299028Y378249D01*
X298885Y377165D01*
X299028Y376082D01*
X299446Y375073D01*
X300111Y374206D01*
X300314Y374050D01*
X300153Y373577D01*
X295988D01*
X295827Y374050D01*
X296030Y374206D01*
X296695Y375073D01*
X297114Y376082D01*
X297256Y377165D01*
X297114Y378249D01*
X296695Y379258D01*
X296030Y380125D01*
X295163Y380790D01*
X294154Y381208D01*
X293071Y381351D01*
X291987Y381208D01*
X290978Y380790D01*
X290111Y380125D01*
X289821Y379746D01*
X289321Y379916D01*
Y382236D01*
X289220Y382742D01*
X288934Y383170D01*
X286794Y385310D01*
X287114Y386082D01*
X287256Y387165D01*
X287114Y388249D01*
X286696Y389258D01*
X286030Y390125D01*
X285163Y390790D01*
X284154Y391208D01*
X283071Y391351D01*
X281988Y391208D01*
X280978Y390790D01*
X280111Y390125D01*
X279446Y389258D01*
X279028Y388249D01*
X278885Y387165D01*
X279028Y386082D01*
X279446Y385073D01*
X280111Y384206D01*
X280978Y383541D01*
X281988Y383123D01*
X283071Y382980D01*
X284154Y383123D01*
X284926Y383442D01*
X286554Y381815D01*
X286376Y381315D01*
X278921D01*
Y373016D01*
X283821D01*
X286846Y369991D01*
X286654Y369529D01*
X184130D01*
X178480Y375179D01*
Y381315D01*
X171297D01*
X171105Y381777D01*
X172684Y383356D01*
X173248Y383123D01*
X174331Y382980D01*
X175414Y383123D01*
X176424Y383541D01*
X177290Y384206D01*
X177955Y385073D01*
X178374Y386082D01*
X178516Y387165D01*
X178374Y388249D01*
X177955Y389258D01*
X177290Y390125D01*
X176424Y390790D01*
X175414Y391208D01*
X174331Y391351D01*
X173248Y391208D01*
X172238Y390790D01*
X171371Y390125D01*
X170706Y389258D01*
X170288Y388249D01*
X170145Y387165D01*
X170288Y386082D01*
X170521Y385519D01*
X167186Y382184D01*
X166855Y381688D01*
X166738Y381102D01*
Y372732D01*
X166855Y372147D01*
X167186Y371651D01*
X174919Y363919D01*
X175415Y363587D01*
X176000Y363471D01*
X298729D01*
X301737Y360462D01*
X301546Y360000D01*
X293023D01*
X292869Y360774D01*
X292431Y361431D01*
X291774Y361869D01*
X291000Y362023D01*
X290226Y361869D01*
X289717Y361529D01*
X236536D01*
X235950Y361413D01*
X235454Y361081D01*
X234373Y360000D01*
X213116D01*
X213000Y360023D01*
X212884Y360000D01*
X193116D01*
X193000Y360023D01*
X192884Y360000D01*
X172163D01*
X170081Y362081D01*
X169585Y362413D01*
X169000Y362529D01*
X102634D01*
X101860Y363303D01*
Y374389D01*
X102360Y374559D01*
X102631Y374206D01*
X103498Y373541D01*
X104507Y373123D01*
X105591Y372980D01*
X106674Y373123D01*
X107683Y373541D01*
X108550Y374206D01*
X109215Y375073D01*
X109633Y376082D01*
X109776Y377165D01*
X109633Y378249D01*
X109215Y379258D01*
X108550Y380125D01*
X107683Y380790D01*
X106674Y381208D01*
X105591Y381351D01*
X104507Y381208D01*
X103498Y380790D01*
X102631Y380125D01*
X102360Y379772D01*
X101860Y379942D01*
Y382217D01*
X101760Y382722D01*
X101473Y383150D01*
X99314Y385310D01*
X99633Y386082D01*
X99776Y387165D01*
X99633Y388249D01*
X99215Y389258D01*
X98550Y390125D01*
X97683Y390790D01*
X96674Y391208D01*
X95591Y391351D01*
X94507Y391208D01*
X93498Y390790D01*
X92631Y390125D01*
X91966Y389258D01*
X91548Y388249D01*
X91405Y387165D01*
X91548Y386082D01*
X91966Y385073D01*
X92631Y384206D01*
X93498Y383541D01*
X94507Y383123D01*
X95591Y382980D01*
X96674Y383123D01*
X97446Y383442D01*
X99219Y381669D01*
Y380075D01*
X98719Y379905D01*
X98550Y380125D01*
X97683Y380790D01*
X96674Y381208D01*
X95591Y381351D01*
X94507Y381208D01*
X93498Y380790D01*
X92631Y380125D01*
X91966Y379258D01*
X91548Y378249D01*
X91405Y377165D01*
X91548Y376082D01*
X91966Y375073D01*
X92631Y374206D01*
X93498Y373541D01*
X94061Y373307D01*
Y360409D01*
X94066Y360386D01*
X93749Y360000D01*
X90000D01*
X74529Y344529D01*
X70791D01*
Y345870D01*
X60327D01*
Y344333D01*
X55232D01*
Y345870D01*
X44768D01*
Y343931D01*
X43367Y342529D01*
X33162D01*
X32811Y342881D01*
X32315Y343212D01*
X31730Y343329D01*
X30839D01*
X30678Y343802D01*
X30794Y343891D01*
X31459Y344758D01*
X31877Y345767D01*
X32020Y346850D01*
X31877Y347934D01*
X31459Y348943D01*
X30794Y349810D01*
X29927Y350475D01*
X28918Y350893D01*
X27835Y351036D01*
X26751Y350893D01*
X25742Y350475D01*
X24875Y349810D01*
X24210Y348943D01*
X23792Y347934D01*
X23649Y346850D01*
X23792Y345767D01*
X24210Y344758D01*
X24875Y343891D01*
X24991Y343802D01*
X24830Y343329D01*
X23940D01*
X23355Y343212D01*
X22858Y342881D01*
X22507Y342529D01*
X21984D01*
X21399Y342413D01*
X20903Y342081D01*
X19481Y340660D01*
X18918Y340893D01*
X17835Y341036D01*
X16751Y340893D01*
X15742Y340475D01*
X14875Y339810D01*
X14210Y338943D01*
X14029Y338507D01*
X13529Y338607D01*
Y345094D01*
X14029Y345194D01*
X14210Y344758D01*
X14875Y343891D01*
X15742Y343226D01*
X16751Y342808D01*
X17835Y342665D01*
X18918Y342808D01*
X19927Y343226D01*
X20794Y343891D01*
X21459Y344758D01*
X21877Y345767D01*
X22020Y346850D01*
X21877Y347934D01*
X21459Y348943D01*
X20794Y349810D01*
X19927Y350475D01*
X18918Y350893D01*
X17835Y351036D01*
X16751Y350893D01*
X15742Y350475D01*
X14875Y349810D01*
X14210Y348943D01*
X14029Y348507D01*
X13529Y348607D01*
Y355094D01*
X14029Y355194D01*
X14210Y354758D01*
X14875Y353891D01*
X15742Y353226D01*
X16751Y352808D01*
X17835Y352665D01*
X18918Y352808D01*
X19927Y353226D01*
X20794Y353891D01*
X21459Y354758D01*
X21877Y355767D01*
X22020Y356850D01*
X21877Y357934D01*
X21459Y358943D01*
X20794Y359810D01*
X19927Y360475D01*
X18918Y360893D01*
X17835Y361036D01*
X16751Y360893D01*
X15742Y360475D01*
X14875Y359810D01*
X14210Y358943D01*
X14029Y358507D01*
X13529Y358607D01*
Y362471D01*
X43000D01*
X43585Y362587D01*
X44081Y362919D01*
X56799Y375636D01*
X61441D01*
Y373016D01*
X69740D01*
Y381315D01*
X61643D01*
X61432Y381811D01*
X63307Y383687D01*
X63498Y383541D01*
X64507Y383123D01*
X65591Y382980D01*
X66674Y383123D01*
X67683Y383541D01*
X68550Y384206D01*
X69215Y385073D01*
X69633Y386082D01*
X69776Y387165D01*
X69633Y388249D01*
X69215Y389258D01*
X68550Y390125D01*
X67683Y390790D01*
X66674Y391208D01*
X65591Y391351D01*
X64507Y391208D01*
X63498Y390790D01*
X62631Y390125D01*
X61966Y389258D01*
X61548Y388249D01*
X61405Y387165D01*
X61528Y386233D01*
X58537Y383242D01*
X55713D01*
X55128Y383126D01*
X54631Y382794D01*
X40367Y368529D01*
X12000D01*
X11415Y368413D01*
X10919Y368081D01*
X8919Y366081D01*
X8587Y365585D01*
X8471Y365000D01*
Y320000D01*
X8587Y319415D01*
X8919Y318919D01*
X10919Y316919D01*
X11415Y316587D01*
X12000Y316471D01*
X18367D01*
X32419Y302419D01*
X31000Y301000D01*
X30000D01*
Y278695D01*
X26577D01*
X26138Y279754D01*
X25315Y280827D01*
X24243Y281650D01*
X23792Y281837D01*
Y282337D01*
X24243Y282523D01*
X25315Y283346D01*
X26138Y284419D01*
X26655Y285668D01*
X26832Y287008D01*
X26655Y288348D01*
X26138Y289597D01*
X25315Y290669D01*
X24243Y291492D01*
X22994Y292009D01*
X21654Y292186D01*
X20313Y292009D01*
X19064Y291492D01*
X17992Y290669D01*
X17169Y289597D01*
X16652Y288348D01*
X16475Y287008D01*
X16652Y285668D01*
X17169Y284419D01*
X17992Y283346D01*
X19064Y282523D01*
X19515Y282337D01*
Y281837D01*
X19064Y281650D01*
X17992Y280827D01*
X17169Y279754D01*
X16652Y278506D01*
X16475Y277165D01*
X16652Y275825D01*
X17169Y274576D01*
X17992Y273504D01*
X18800Y272884D01*
X18793Y272648D01*
X18690Y272338D01*
X18040Y272069D01*
X17399Y271577D01*
X16908Y270936D01*
X16599Y270190D01*
X16493Y269390D01*
Y265256D01*
X16599Y264455D01*
X16908Y263709D01*
X17399Y263069D01*
X18040Y262577D01*
X18786Y262268D01*
X19587Y262162D01*
X23720D01*
X24521Y262268D01*
X25267Y262577D01*
X25908Y263069D01*
X26399Y263709D01*
X26708Y264455D01*
X26814Y265256D01*
Y269390D01*
X26708Y270190D01*
X26399Y270936D01*
X25908Y271577D01*
X25267Y272069D01*
X24617Y272338D01*
X24514Y272648D01*
X24507Y272884D01*
X25315Y273504D01*
X26138Y274576D01*
X26577Y275636D01*
X30000D01*
Y236175D01*
X26183D01*
X25744Y237235D01*
X24921Y238307D01*
X23849Y239130D01*
X23398Y239317D01*
Y239817D01*
X23849Y240004D01*
X24921Y240827D01*
X25744Y241899D01*
X26261Y243148D01*
X26438Y244488D01*
X26261Y245828D01*
X25744Y247077D01*
X24921Y248150D01*
X23849Y248973D01*
X22600Y249490D01*
X21260Y249666D01*
X19920Y249490D01*
X18671Y248973D01*
X17598Y248150D01*
X16775Y247077D01*
X16258Y245828D01*
X16082Y244488D01*
X16258Y243148D01*
X16775Y241899D01*
X17598Y240827D01*
X18671Y240004D01*
X19122Y239817D01*
Y239317D01*
X18671Y239130D01*
X17598Y238307D01*
X16775Y237235D01*
X16258Y235986D01*
X16082Y234646D01*
X16258Y233305D01*
X16775Y232056D01*
X17598Y230984D01*
X18406Y230364D01*
X18400Y230128D01*
X18296Y229818D01*
X17646Y229549D01*
X17006Y229058D01*
X16514Y228417D01*
X16205Y227671D01*
X16100Y226870D01*
Y222736D01*
X16205Y221936D01*
X16514Y221190D01*
X17006Y220549D01*
X17646Y220057D01*
X18392Y219748D01*
X19193Y219643D01*
X23327D01*
X24127Y219748D01*
X24873Y220057D01*
X25514Y220549D01*
X26006Y221190D01*
X26315Y221936D01*
X26420Y222736D01*
Y226870D01*
X26315Y227671D01*
X26006Y228417D01*
X25514Y229058D01*
X24873Y229549D01*
X24223Y229818D01*
X24120Y230128D01*
X24114Y230364D01*
X24921Y230984D01*
X25744Y232056D01*
X26183Y233116D01*
X30000D01*
Y191687D01*
X26183D01*
X25744Y192746D01*
X24921Y193819D01*
X23849Y194642D01*
X23398Y194829D01*
Y195329D01*
X23849Y195516D01*
X24921Y196338D01*
X25744Y197411D01*
X26261Y198660D01*
X26438Y200000D01*
X26261Y201340D01*
X25744Y202589D01*
X24921Y203661D01*
X23849Y204484D01*
X22600Y205002D01*
X21260Y205178D01*
X19920Y205002D01*
X18671Y204484D01*
X17598Y203661D01*
X16775Y202589D01*
X16258Y201340D01*
X16082Y200000D01*
X16258Y198660D01*
X16775Y197411D01*
X17598Y196338D01*
X18671Y195516D01*
X19122Y195329D01*
Y194829D01*
X18671Y194642D01*
X17598Y193819D01*
X16775Y192746D01*
X16258Y191498D01*
X16082Y190157D01*
X16258Y188817D01*
X16775Y187568D01*
X17598Y186496D01*
X18406Y185876D01*
X18400Y185640D01*
X18296Y185330D01*
X17646Y185061D01*
X17006Y184569D01*
X16514Y183929D01*
X16205Y183183D01*
X16100Y182382D01*
Y178248D01*
X16205Y177447D01*
X16514Y176701D01*
X17006Y176061D01*
X17646Y175569D01*
X18392Y175260D01*
X19193Y175155D01*
X23327D01*
X24127Y175260D01*
X24873Y175569D01*
X25514Y176061D01*
X26006Y176701D01*
X26315Y177447D01*
X26420Y178248D01*
Y182382D01*
X26315Y183183D01*
X26006Y183929D01*
X25514Y184569D01*
X24873Y185061D01*
X24223Y185330D01*
X24120Y185640D01*
X24114Y185876D01*
X24921Y186496D01*
X25744Y187568D01*
X26183Y188628D01*
X30000D01*
Y130000D01*
X24000Y124000D01*
Y116000D01*
X24189Y115811D01*
X45000Y130000D01*
X76000D01*
X78000Y128000D01*
Y115000D01*
X75000Y112000D01*
X45000D01*
X42000Y110500D01*
Y106000D01*
X50000Y98000D01*
X76000D01*
X77000Y97000D01*
Y84000D01*
X76000Y83000D01*
X49000D01*
X27276Y104724D01*
X20276D01*
X5000Y120000D01*
Y125000D01*
X4000Y126000D01*
Y393000D01*
X11000Y400000D01*
X13734D01*
X13902Y399529D01*
X13380Y399100D01*
X12271Y397749D01*
X11447Y396208D01*
X10939Y394535D01*
X10768Y392795D01*
X10939Y391056D01*
X11447Y389383D01*
X12271Y387841D01*
X13380Y386490D01*
X14731Y385381D01*
X16273Y384557D01*
X17945Y384050D01*
X19685Y383878D01*
X21425Y384050D01*
X23097Y384557D01*
X24639Y385381D01*
X25990Y386490D01*
X27099Y387841D01*
X27923Y389383D01*
X28431Y391056D01*
X28602Y392795D01*
X28431Y394535D01*
X27923Y396208D01*
X27099Y397749D01*
X25990Y399100D01*
X25468Y399529D01*
X25636Y400000D01*
X352000D01*
X358000Y394000D01*
D02*
G37*
G36*
X300000Y123000D02*
Y116000D01*
X299000Y115000D01*
X232000D01*
X231585Y115415D01*
X200000Y116000D01*
X197000Y118000D01*
Y123000D01*
X198000Y124000D01*
X232000Y124000D01*
X232000Y124000D01*
X299000D01*
X300000Y123000D01*
D02*
G37*
G36*
X196047Y103953D02*
X204047D01*
X205000Y103000D01*
Y97000D01*
X204000Y96000D01*
X193000Y96000D01*
X174000Y115000D01*
X145000Y115000D01*
X145000Y115000D01*
X86000Y115000D01*
D01*
X145000Y115000D01*
X141000Y105000D01*
X135000D01*
Y106000D01*
Y107000D01*
X132000Y113000D01*
X88000D01*
X86000Y115000D01*
X86000D01*
X86000D01*
X86000Y115000D01*
Y127000D01*
X88000Y129000D01*
X171000D01*
X196047Y103953D01*
D02*
G37*
G36*
X643000Y4000D02*
X643538Y3462D01*
X643347Y3000D01*
X278000D01*
X277000Y4000D01*
Y16046D01*
X293374D01*
Y6913D01*
X304626D01*
Y34110D01*
X293374D01*
Y22034D01*
X277000D01*
Y59980D01*
X293374D01*
Y45890D01*
X298500D01*
Y59488D01*
Y61000D01*
X272000D01*
X262000Y51000D01*
X251000Y40000D01*
X208000D01*
X193000Y25000D01*
X189000D01*
X187000Y27000D01*
Y32000D01*
X189000Y34000D01*
X226000Y58000D01*
X251000Y58000D01*
X251000Y58000D01*
X254000D01*
X267000Y71000D01*
X298500D01*
Y73087D01*
X293374D01*
Y72020D01*
X283673D01*
X283482Y72482D01*
X314977Y103977D01*
X336768D01*
Y103130D01*
X347232D01*
Y103977D01*
X362276D01*
Y103425D01*
X367425D01*
Y108575D01*
X362276D01*
Y108023D01*
X347232D01*
Y108870D01*
X336768D01*
Y108023D01*
X319676D01*
X319485Y108485D01*
X340471Y129471D01*
X387367D01*
X410919Y105919D01*
X411415Y105587D01*
X412000Y105471D01*
X587366D01*
X588919Y103919D01*
X589415Y103587D01*
X590000Y103471D01*
X611367D01*
X614471Y100366D01*
Y95540D01*
X613992Y95488D01*
X613971Y95488D01*
X606480D01*
Y90452D01*
X606007Y90291D01*
X605915Y90411D01*
X605130Y91013D01*
X604217Y91391D01*
X603236Y91521D01*
X602256Y91391D01*
X601342Y91013D01*
X600558Y90411D01*
X599955Y89626D01*
X599577Y88713D01*
X599448Y87732D01*
X599577Y86752D01*
X599955Y85838D01*
X600558Y85053D01*
X601342Y84451D01*
X602256Y84073D01*
X602929Y83984D01*
Y83480D01*
X602256Y83391D01*
X601342Y83013D01*
X600558Y82411D01*
X599955Y81626D01*
X599577Y80713D01*
X599448Y79732D01*
X599577Y78752D01*
X599955Y77838D01*
X600558Y77053D01*
X601342Y76451D01*
X602256Y76073D01*
X602929Y75984D01*
Y75480D01*
X602256Y75391D01*
X601342Y75013D01*
X600558Y74411D01*
X599955Y73626D01*
X599577Y72713D01*
X599448Y71732D01*
X599577Y70752D01*
X599955Y69838D01*
X600558Y69054D01*
X601342Y68451D01*
X602256Y68073D01*
X602929Y67984D01*
Y67480D01*
X602256Y67391D01*
X601342Y67013D01*
X600558Y66411D01*
X599955Y65626D01*
X599577Y64713D01*
X599448Y63732D01*
X599577Y62752D01*
X599728Y62387D01*
X589919Y52577D01*
X589587Y52081D01*
X589471Y51496D01*
Y35594D01*
X586949D01*
Y33529D01*
X580638D01*
X580053Y33413D01*
X579556Y33081D01*
X578707Y32232D01*
X575130D01*
Y26886D01*
Y21768D01*
X580870D01*
Y22912D01*
X586949D01*
Y20405D01*
X595051D01*
Y22534D01*
X604063D01*
X604648Y22650D01*
X605144Y22982D01*
X607818Y25655D01*
X608149Y26151D01*
X608266Y26736D01*
Y40170D01*
X609623Y40732D01*
X609784Y40855D01*
X610186Y40587D01*
X610771Y40471D01*
X629000D01*
X629585Y40587D01*
X630081Y40919D01*
X634081Y44919D01*
X634413Y45415D01*
X634529Y46000D01*
Y171000D01*
X634413Y171585D01*
X634081Y172081D01*
X629081Y177081D01*
X628585Y177413D01*
X628000Y177529D01*
X615000D01*
X614415Y177413D01*
X613919Y177081D01*
X611883Y175046D01*
X611384Y175078D01*
X610819Y175815D01*
X609623Y176733D01*
X608231Y177309D01*
X606736Y177506D01*
X605242Y177309D01*
X603849Y176733D01*
X602654Y175815D01*
X601736Y174619D01*
X601159Y173227D01*
X600962Y171732D01*
X601159Y170238D01*
X601736Y168845D01*
X602654Y167649D01*
X603849Y166732D01*
X605242Y166155D01*
X606736Y165958D01*
X608231Y166155D01*
X609623Y166732D01*
X610819Y167649D01*
X611736Y168845D01*
X612313Y170238D01*
X612510Y171732D01*
X612507Y171754D01*
X612814Y171815D01*
X613310Y172147D01*
X615633Y174471D01*
X627366D01*
X631471Y170367D01*
Y46633D01*
X628367Y43529D01*
X612470D01*
X612192Y43945D01*
X612313Y44238D01*
X612510Y45732D01*
X612313Y47227D01*
X611736Y48619D01*
X610819Y49815D01*
X609623Y50732D01*
X608231Y51309D01*
X606736Y51506D01*
X605242Y51309D01*
X603849Y50732D01*
X602654Y49815D01*
X601736Y48619D01*
X601159Y47227D01*
X600962Y45732D01*
X601159Y44238D01*
X601736Y42845D01*
X602654Y41649D01*
X603849Y40732D01*
X605207Y40170D01*
Y27370D01*
X603430Y25592D01*
X595051D01*
Y27720D01*
X586949D01*
Y25970D01*
X580870D01*
Y30069D01*
X581271Y30471D01*
X586949D01*
Y28280D01*
X595051D01*
Y35594D01*
X592529D01*
Y50862D01*
X601891Y60224D01*
X602256Y60073D01*
X603236Y59944D01*
X604217Y60073D01*
X605130Y60451D01*
X605915Y61054D01*
X606517Y61838D01*
X606895Y62752D01*
X607024Y63732D01*
X606895Y64713D01*
X606519Y65621D01*
X606955Y65838D01*
X607557Y65053D01*
X608342Y64451D01*
X609256Y64073D01*
X610236Y63944D01*
X611217Y64073D01*
X612130Y64451D01*
X612915Y65053D01*
X613517Y65838D01*
X613895Y66752D01*
X614024Y67732D01*
X613895Y68713D01*
X613517Y69626D01*
X612915Y70411D01*
X612130Y71013D01*
X611217Y71391D01*
X610544Y71480D01*
Y71984D01*
X611217Y72073D01*
X612130Y72451D01*
X612915Y73053D01*
X613517Y73838D01*
X613895Y74752D01*
X614024Y75732D01*
X613895Y76713D01*
X613517Y77626D01*
X612915Y78411D01*
X612130Y79013D01*
X611217Y79391D01*
X610544Y79480D01*
Y79984D01*
X611217Y80073D01*
X612130Y80451D01*
X612915Y81054D01*
X613517Y81838D01*
X613668Y82203D01*
X614432D01*
X615018Y82319D01*
X615514Y82651D01*
X617081Y84218D01*
X617413Y84715D01*
X617529Y85300D01*
Y101000D01*
X617413Y101585D01*
X617081Y102081D01*
X613081Y106081D01*
X612585Y106413D01*
X612000Y106529D01*
X590633D01*
X589081Y108081D01*
X588585Y108413D01*
X588000Y108529D01*
X412634D01*
X389081Y132081D01*
X388585Y132413D01*
X388000Y132529D01*
X344183D01*
X343991Y132991D01*
X345471Y134471D01*
X390367D01*
X411919Y112919D01*
X412415Y112587D01*
X413000Y112471D01*
X558000D01*
X558585Y112587D01*
X559081Y112919D01*
X567174Y121012D01*
X567774Y121131D01*
X568431Y121569D01*
X568869Y122226D01*
X569023Y123000D01*
X568869Y123774D01*
X568431Y124431D01*
X567774Y124869D01*
X567000Y125023D01*
X566226Y124869D01*
X565569Y124431D01*
X565131Y123774D01*
X565012Y123175D01*
X557367Y115529D01*
X413633D01*
X392081Y137081D01*
X391585Y137413D01*
X391000Y137529D01*
X349183D01*
X348991Y137991D01*
X350471Y139471D01*
X395367D01*
X415918Y118919D01*
X416415Y118587D01*
X417000Y118471D01*
X550000D01*
X550585Y118587D01*
X551081Y118919D01*
X556634Y124471D01*
X557717D01*
X558226Y124131D01*
X559000Y123977D01*
X559774Y124131D01*
X560431Y124569D01*
X560869Y125226D01*
X561023Y126000D01*
X560869Y126774D01*
X560738Y126971D01*
X561005Y127471D01*
X568198D01*
X575750Y119919D01*
X576247Y119587D01*
X576832Y119471D01*
X608000D01*
X608585Y119587D01*
X609081Y119919D01*
X611081Y121919D01*
X611413Y122415D01*
X611529Y123000D01*
Y126202D01*
X612130Y126451D01*
X612915Y127053D01*
X613517Y127838D01*
X613895Y128752D01*
X614024Y129732D01*
X613895Y130713D01*
X613517Y131626D01*
X612915Y132411D01*
X612130Y133013D01*
X611217Y133391D01*
X610544Y133480D01*
Y133984D01*
X611217Y134073D01*
X612130Y134451D01*
X612915Y135054D01*
X613517Y135838D01*
X613895Y136752D01*
X614024Y137732D01*
X613895Y138713D01*
X613517Y139626D01*
X612915Y140411D01*
X612130Y141013D01*
X611217Y141391D01*
X610544Y141480D01*
Y141984D01*
X611217Y142073D01*
X612130Y142451D01*
X612915Y143053D01*
X613517Y143838D01*
X613895Y144752D01*
X614024Y145732D01*
X614010Y145847D01*
X617081Y148919D01*
X617413Y149415D01*
X617529Y150000D01*
Y156025D01*
X617413Y156610D01*
X617081Y157106D01*
X616314Y157874D01*
X616615Y158280D01*
X617392Y157865D01*
X618786Y157442D01*
X620236Y157299D01*
X621686Y157442D01*
X623081Y157865D01*
X624366Y158552D01*
X625492Y159476D01*
X626417Y160602D01*
X627104Y161888D01*
X627527Y163282D01*
X627670Y164732D01*
X627527Y166182D01*
X627104Y167577D01*
X626417Y168862D01*
X625492Y169988D01*
X624366Y170913D01*
X623081Y171600D01*
X621686Y172023D01*
X620236Y172166D01*
X618786Y172023D01*
X617392Y171600D01*
X616106Y170913D01*
X614980Y169988D01*
X614055Y168862D01*
X613369Y167577D01*
X612946Y166182D01*
X612803Y164732D01*
X612946Y163282D01*
X613369Y161888D01*
X613961Y160780D01*
X613670Y160476D01*
X613587Y160417D01*
X613025Y160529D01*
X577000D01*
X576415Y160413D01*
X575919Y160081D01*
X553367Y137529D01*
X442633D01*
X424081Y156081D01*
X423585Y156413D01*
X423000Y156529D01*
X368183D01*
X367991Y156991D01*
X392000Y181000D01*
Y385000D01*
X409055Y400000D01*
X643000D01*
Y4000D01*
D02*
G37*
G36*
X145000Y101000D02*
Y90000D01*
X144000Y89000D01*
X132000D01*
X131000Y90000D01*
Y101000D01*
X132000Y102000D01*
X144000D01*
X145000Y101000D01*
D02*
G37*
G36*
X251000Y96000D02*
Y69000D01*
X249000Y67000D01*
X234000Y67000D01*
X232000Y69000D01*
X232000Y97000D01*
X234000Y99000D01*
X248000D01*
X251000Y96000D01*
D02*
G37*
G36*
X103000Y96000D02*
X103000Y83000D01*
X127000Y59000D01*
X187000D01*
X194000Y52000D01*
Y47000D01*
X193000Y46000D01*
X178000D01*
X177000Y45000D01*
Y40000D01*
X174000D01*
X173000Y41000D01*
Y45000D01*
X172000Y46000D01*
X155000D01*
X154000Y45000D01*
Y40000D01*
X153000Y39000D01*
X151000D01*
X149000Y41000D01*
Y45000D01*
X147000Y47000D01*
X105000D01*
X86000Y66000D01*
Y96000D01*
X88000Y98000D01*
X101000D01*
X103000Y96000D01*
D02*
G37*
%LPC*%
G36*
X343571Y391285D02*
Y387665D01*
X347190D01*
X347114Y388249D01*
X346695Y389258D01*
X346030Y390125D01*
X345163Y390790D01*
X344154Y391208D01*
X343571Y391285D01*
D02*
G37*
G36*
X342571D02*
X341987Y391208D01*
X340978Y390790D01*
X340111Y390125D01*
X339446Y389258D01*
X339028Y388249D01*
X338951Y387665D01*
X342571D01*
Y391285D01*
D02*
G37*
G36*
X234831D02*
Y387665D01*
X238450D01*
X238374Y388249D01*
X237955Y389258D01*
X237290Y390125D01*
X236423Y390790D01*
X235414Y391208D01*
X234831Y391285D01*
D02*
G37*
G36*
X233831D02*
X233247Y391208D01*
X232238Y390790D01*
X231371Y390125D01*
X230706Y389258D01*
X230288Y388249D01*
X230211Y387665D01*
X233831D01*
Y391285D01*
D02*
G37*
G36*
X126091D02*
Y387665D01*
X129710D01*
X129633Y388249D01*
X129215Y389258D01*
X128550Y390125D01*
X127683Y390790D01*
X126674Y391208D01*
X126091Y391285D01*
D02*
G37*
G36*
X125091D02*
X124507Y391208D01*
X123498Y390790D01*
X122631Y390125D01*
X121966Y389258D01*
X121548Y388249D01*
X121471Y387665D01*
X125091D01*
Y391285D01*
D02*
G37*
G36*
X347190Y386665D02*
X343571D01*
Y383046D01*
X344154Y383123D01*
X345163Y383541D01*
X346030Y384206D01*
X346695Y385073D01*
X347114Y386082D01*
X347190Y386665D01*
D02*
G37*
G36*
X342571D02*
X338951D01*
X339028Y386082D01*
X339446Y385073D01*
X340111Y384206D01*
X340978Y383541D01*
X341987Y383123D01*
X342571Y383046D01*
Y386665D01*
D02*
G37*
G36*
X238450D02*
X234831D01*
Y383046D01*
X235414Y383123D01*
X236423Y383541D01*
X237290Y384206D01*
X237955Y385073D01*
X238374Y386082D01*
X238450Y386665D01*
D02*
G37*
G36*
X233831D02*
X230211D01*
X230288Y386082D01*
X230706Y385073D01*
X231371Y384206D01*
X232238Y383541D01*
X233247Y383123D01*
X233831Y383046D01*
Y386665D01*
D02*
G37*
G36*
X129710D02*
X126091D01*
Y383046D01*
X126674Y383123D01*
X127683Y383541D01*
X128550Y384206D01*
X129215Y385073D01*
X129633Y386082D01*
X129710Y386665D01*
D02*
G37*
G36*
X125091D02*
X121471D01*
X121548Y386082D01*
X121966Y385073D01*
X122631Y384206D01*
X123498Y383541D01*
X124507Y383123D01*
X125091Y383046D01*
Y386665D01*
D02*
G37*
G36*
X333071Y391351D02*
X331988Y391208D01*
X330978Y390790D01*
X330111Y390125D01*
X329446Y389258D01*
X329028Y388249D01*
X328885Y387165D01*
X329028Y386082D01*
X329446Y385073D01*
X330111Y384206D01*
X330978Y383541D01*
X331988Y383123D01*
X333071Y382980D01*
X334154Y383123D01*
X335163Y383541D01*
X336030Y384206D01*
X336696Y385073D01*
X337114Y386082D01*
X337256Y387165D01*
X337114Y388249D01*
X336696Y389258D01*
X336030Y390125D01*
X335163Y390790D01*
X334154Y391208D01*
X333071Y391351D01*
D02*
G37*
G36*
X323071D02*
X321988Y391208D01*
X320978Y390790D01*
X320111Y390125D01*
X319446Y389258D01*
X319028Y388249D01*
X318885Y387165D01*
X319028Y386082D01*
X319446Y385073D01*
X320111Y384206D01*
X320978Y383541D01*
X321988Y383123D01*
X323071Y382980D01*
X324154Y383123D01*
X325164Y383541D01*
X326030Y384206D01*
X326695Y385073D01*
X327114Y386082D01*
X327256Y387165D01*
X327114Y388249D01*
X326695Y389258D01*
X326030Y390125D01*
X325164Y390790D01*
X324154Y391208D01*
X323071Y391351D01*
D02*
G37*
G36*
X313071D02*
X311987Y391208D01*
X310978Y390790D01*
X310111Y390125D01*
X309446Y389258D01*
X309028Y388249D01*
X308885Y387165D01*
X309028Y386082D01*
X309446Y385073D01*
X310111Y384206D01*
X310978Y383541D01*
X311987Y383123D01*
X313071Y382980D01*
X314154Y383123D01*
X315163Y383541D01*
X316030Y384206D01*
X316695Y385073D01*
X317114Y386082D01*
X317256Y387165D01*
X317114Y388249D01*
X316695Y389258D01*
X316030Y390125D01*
X315163Y390790D01*
X314154Y391208D01*
X313071Y391351D01*
D02*
G37*
G36*
X303071D02*
X301988Y391208D01*
X300978Y390790D01*
X300111Y390125D01*
X299446Y389258D01*
X299028Y388249D01*
X298885Y387165D01*
X299028Y386082D01*
X299446Y385073D01*
X300111Y384206D01*
X300978Y383541D01*
X301988Y383123D01*
X303071Y382980D01*
X304154Y383123D01*
X305164Y383541D01*
X306030Y384206D01*
X306696Y385073D01*
X307114Y386082D01*
X307256Y387165D01*
X307114Y388249D01*
X306696Y389258D01*
X306030Y390125D01*
X305164Y390790D01*
X304154Y391208D01*
X303071Y391351D01*
D02*
G37*
G36*
X293071D02*
X291987Y391208D01*
X290978Y390790D01*
X290111Y390125D01*
X289446Y389258D01*
X289028Y388249D01*
X288885Y387165D01*
X289028Y386082D01*
X289446Y385073D01*
X290111Y384206D01*
X290978Y383541D01*
X291987Y383123D01*
X293071Y382980D01*
X294154Y383123D01*
X295163Y383541D01*
X296030Y384206D01*
X296695Y385073D01*
X297114Y386082D01*
X297256Y387165D01*
X297114Y388249D01*
X296695Y389258D01*
X296030Y390125D01*
X295163Y390790D01*
X294154Y391208D01*
X293071Y391351D01*
D02*
G37*
G36*
X224331D02*
X223248Y391208D01*
X222238Y390790D01*
X221371Y390125D01*
X220706Y389258D01*
X220288Y388249D01*
X220145Y387165D01*
X220288Y386082D01*
X220706Y385073D01*
X221371Y384206D01*
X222238Y383541D01*
X223248Y383123D01*
X224331Y382980D01*
X225414Y383123D01*
X226424Y383541D01*
X227290Y384206D01*
X227956Y385073D01*
X228374Y386082D01*
X228516Y387165D01*
X228374Y388249D01*
X227956Y389258D01*
X227290Y390125D01*
X226424Y390790D01*
X225414Y391208D01*
X224331Y391351D01*
D02*
G37*
G36*
X214331D02*
X213247Y391208D01*
X212238Y390790D01*
X211371Y390125D01*
X210706Y389258D01*
X210288Y388249D01*
X210145Y387165D01*
X210288Y386082D01*
X210706Y385073D01*
X211371Y384206D01*
X212238Y383541D01*
X213247Y383123D01*
X214331Y382980D01*
X215414Y383123D01*
X216424Y383541D01*
X217290Y384206D01*
X217955Y385073D01*
X218374Y386082D01*
X218516Y387165D01*
X218374Y388249D01*
X217955Y389258D01*
X217290Y390125D01*
X216424Y390790D01*
X215414Y391208D01*
X214331Y391351D01*
D02*
G37*
G36*
X204331D02*
X203247Y391208D01*
X202238Y390790D01*
X201371Y390125D01*
X200706Y389258D01*
X200288Y388249D01*
X200145Y387165D01*
X200288Y386082D01*
X200706Y385073D01*
X201371Y384206D01*
X202238Y383541D01*
X203247Y383123D01*
X204331Y382980D01*
X205414Y383123D01*
X206423Y383541D01*
X207290Y384206D01*
X207956Y385073D01*
X208374Y386082D01*
X208516Y387165D01*
X208374Y388249D01*
X207956Y389258D01*
X207290Y390125D01*
X206423Y390790D01*
X205414Y391208D01*
X204331Y391351D01*
D02*
G37*
G36*
X194331D02*
X193247Y391208D01*
X192238Y390790D01*
X191371Y390125D01*
X190706Y389258D01*
X190288Y388249D01*
X190145Y387165D01*
X190288Y386082D01*
X190706Y385073D01*
X191371Y384206D01*
X192238Y383541D01*
X193247Y383123D01*
X194331Y382980D01*
X195414Y383123D01*
X196423Y383541D01*
X197290Y384206D01*
X197956Y385073D01*
X198374Y386082D01*
X198516Y387165D01*
X198374Y388249D01*
X197956Y389258D01*
X197290Y390125D01*
X196423Y390790D01*
X195414Y391208D01*
X194331Y391351D01*
D02*
G37*
G36*
X184331D02*
X183247Y391208D01*
X182238Y390790D01*
X181371Y390125D01*
X180706Y389258D01*
X180288Y388249D01*
X180145Y387165D01*
X180288Y386082D01*
X180706Y385073D01*
X181371Y384206D01*
X182238Y383541D01*
X183247Y383123D01*
X184331Y382980D01*
X185414Y383123D01*
X186424Y383541D01*
X187290Y384206D01*
X187955Y385073D01*
X188374Y386082D01*
X188516Y387165D01*
X188374Y388249D01*
X187955Y389258D01*
X187290Y390125D01*
X186424Y390790D01*
X185414Y391208D01*
X184331Y391351D01*
D02*
G37*
G36*
X115591D02*
X114507Y391208D01*
X113498Y390790D01*
X112631Y390125D01*
X111966Y389258D01*
X111548Y388249D01*
X111405Y387165D01*
X111548Y386082D01*
X111966Y385073D01*
X112631Y384206D01*
X113498Y383541D01*
X114507Y383123D01*
X115591Y382980D01*
X116674Y383123D01*
X117683Y383541D01*
X118550Y384206D01*
X119215Y385073D01*
X119633Y386082D01*
X119776Y387165D01*
X119633Y388249D01*
X119215Y389258D01*
X118550Y390125D01*
X117683Y390790D01*
X116674Y391208D01*
X115591Y391351D01*
D02*
G37*
G36*
X105591D02*
X104507Y391208D01*
X103498Y390790D01*
X102631Y390125D01*
X101966Y389258D01*
X101548Y388249D01*
X101405Y387165D01*
X101548Y386082D01*
X101966Y385073D01*
X102631Y384206D01*
X103498Y383541D01*
X104507Y383123D01*
X105591Y382980D01*
X106674Y383123D01*
X107683Y383541D01*
X108550Y384206D01*
X109215Y385073D01*
X109633Y386082D01*
X109776Y387165D01*
X109633Y388249D01*
X109215Y389258D01*
X108550Y390125D01*
X107683Y390790D01*
X106674Y391208D01*
X105591Y391351D01*
D02*
G37*
G36*
X85591D02*
X84507Y391208D01*
X83498Y390790D01*
X82631Y390125D01*
X81966Y389258D01*
X81548Y388249D01*
X81405Y387165D01*
X81548Y386082D01*
X81966Y385073D01*
X82631Y384206D01*
X83498Y383541D01*
X84507Y383123D01*
X85591Y382980D01*
X86674Y383123D01*
X87683Y383541D01*
X88550Y384206D01*
X89215Y385073D01*
X89633Y386082D01*
X89776Y387165D01*
X89633Y388249D01*
X89215Y389258D01*
X88550Y390125D01*
X87683Y390790D01*
X86674Y391208D01*
X85591Y391351D01*
D02*
G37*
G36*
X75591D02*
X74507Y391208D01*
X73498Y390790D01*
X72631Y390125D01*
X71966Y389258D01*
X71548Y388249D01*
X71405Y387165D01*
X71548Y386082D01*
X71966Y385073D01*
X72631Y384206D01*
X73498Y383541D01*
X74507Y383123D01*
X75591Y382980D01*
X76674Y383123D01*
X77683Y383541D01*
X78550Y384206D01*
X79215Y385073D01*
X79633Y386082D01*
X79776Y387165D01*
X79633Y388249D01*
X79215Y389258D01*
X78550Y390125D01*
X77683Y390790D01*
X76674Y391208D01*
X75591Y391351D01*
D02*
G37*
G36*
X343571Y381285D02*
Y377665D01*
X347190D01*
X347114Y378249D01*
X346695Y379258D01*
X346030Y380125D01*
X345163Y380790D01*
X344154Y381208D01*
X343571Y381285D01*
D02*
G37*
G36*
X342571D02*
X341987Y381208D01*
X340978Y380790D01*
X340111Y380125D01*
X339446Y379258D01*
X339028Y378249D01*
X338951Y377665D01*
X342571D01*
Y381285D01*
D02*
G37*
G36*
X234831D02*
Y377665D01*
X238450D01*
X238374Y378249D01*
X237955Y379258D01*
X237290Y380125D01*
X236423Y380790D01*
X235414Y381208D01*
X234831Y381285D01*
D02*
G37*
G36*
X233831D02*
X233247Y381208D01*
X232238Y380790D01*
X231371Y380125D01*
X230706Y379258D01*
X230288Y378249D01*
X230211Y377665D01*
X233831D01*
Y381285D01*
D02*
G37*
G36*
X126091D02*
Y377665D01*
X129710D01*
X129633Y378249D01*
X129215Y379258D01*
X128550Y380125D01*
X127683Y380790D01*
X126674Y381208D01*
X126091Y381285D01*
D02*
G37*
G36*
X125091D02*
X124507Y381208D01*
X123498Y380790D01*
X122631Y380125D01*
X121966Y379258D01*
X121548Y378249D01*
X121471Y377665D01*
X125091D01*
Y381285D01*
D02*
G37*
G36*
X238450Y376665D02*
X234831D01*
Y373046D01*
X235414Y373123D01*
X236423Y373541D01*
X237290Y374206D01*
X237955Y375073D01*
X238374Y376082D01*
X238450Y376665D01*
D02*
G37*
G36*
X233831D02*
X230211D01*
X230288Y376082D01*
X230706Y375073D01*
X231371Y374206D01*
X232238Y373541D01*
X233247Y373123D01*
X233831Y373046D01*
Y376665D01*
D02*
G37*
G36*
X129710D02*
X126091D01*
Y373046D01*
X126674Y373123D01*
X127683Y373541D01*
X128550Y374206D01*
X129215Y375073D01*
X129633Y376082D01*
X129710Y376665D01*
D02*
G37*
G36*
X125091D02*
X121471D01*
X121548Y376082D01*
X121966Y375073D01*
X122631Y374206D01*
X123498Y373541D01*
X124507Y373123D01*
X125091Y373046D01*
Y376665D01*
D02*
G37*
G36*
X224331Y381351D02*
X223248Y381208D01*
X222238Y380790D01*
X221371Y380125D01*
X220706Y379258D01*
X220288Y378249D01*
X220145Y377165D01*
X220288Y376082D01*
X220706Y375073D01*
X221371Y374206D01*
X222238Y373541D01*
X223248Y373123D01*
X224331Y372980D01*
X225414Y373123D01*
X226424Y373541D01*
X227290Y374206D01*
X227956Y375073D01*
X228374Y376082D01*
X228516Y377165D01*
X228374Y378249D01*
X227956Y379258D01*
X227290Y380125D01*
X226424Y380790D01*
X225414Y381208D01*
X224331Y381351D01*
D02*
G37*
G36*
X214331D02*
X213247Y381208D01*
X212238Y380790D01*
X211371Y380125D01*
X210706Y379258D01*
X210288Y378249D01*
X210145Y377165D01*
X210288Y376082D01*
X210706Y375073D01*
X211371Y374206D01*
X212238Y373541D01*
X213247Y373123D01*
X214331Y372980D01*
X215414Y373123D01*
X216424Y373541D01*
X217290Y374206D01*
X217955Y375073D01*
X218374Y376082D01*
X218516Y377165D01*
X218374Y378249D01*
X217955Y379258D01*
X217290Y380125D01*
X216424Y380790D01*
X215414Y381208D01*
X214331Y381351D01*
D02*
G37*
G36*
X204331D02*
X203247Y381208D01*
X202238Y380790D01*
X201371Y380125D01*
X200706Y379258D01*
X200288Y378249D01*
X200145Y377165D01*
X200288Y376082D01*
X200706Y375073D01*
X201371Y374206D01*
X202238Y373541D01*
X203247Y373123D01*
X204331Y372980D01*
X205414Y373123D01*
X206423Y373541D01*
X207290Y374206D01*
X207956Y375073D01*
X208374Y376082D01*
X208516Y377165D01*
X208374Y378249D01*
X207956Y379258D01*
X207290Y380125D01*
X206423Y380790D01*
X205414Y381208D01*
X204331Y381351D01*
D02*
G37*
G36*
X194331D02*
X193247Y381208D01*
X192238Y380790D01*
X191371Y380125D01*
X190706Y379258D01*
X190288Y378249D01*
X190145Y377165D01*
X190288Y376082D01*
X190706Y375073D01*
X191371Y374206D01*
X192238Y373541D01*
X193247Y373123D01*
X194331Y372980D01*
X195414Y373123D01*
X196423Y373541D01*
X197290Y374206D01*
X197956Y375073D01*
X198374Y376082D01*
X198516Y377165D01*
X198374Y378249D01*
X197956Y379258D01*
X197290Y380125D01*
X196423Y380790D01*
X195414Y381208D01*
X194331Y381351D01*
D02*
G37*
G36*
X184331D02*
X183247Y381208D01*
X182238Y380790D01*
X181371Y380125D01*
X180706Y379258D01*
X180288Y378249D01*
X180145Y377165D01*
X180288Y376082D01*
X180706Y375073D01*
X181371Y374206D01*
X182238Y373541D01*
X183247Y373123D01*
X184331Y372980D01*
X185414Y373123D01*
X186424Y373541D01*
X187290Y374206D01*
X187955Y375073D01*
X188374Y376082D01*
X188516Y377165D01*
X188374Y378249D01*
X187955Y379258D01*
X187290Y380125D01*
X186424Y380790D01*
X185414Y381208D01*
X184331Y381351D01*
D02*
G37*
G36*
X115591D02*
X114507Y381208D01*
X113498Y380790D01*
X112631Y380125D01*
X111966Y379258D01*
X111548Y378249D01*
X111405Y377165D01*
X111548Y376082D01*
X111966Y375073D01*
X112631Y374206D01*
X113498Y373541D01*
X114507Y373123D01*
X115591Y372980D01*
X116674Y373123D01*
X117683Y373541D01*
X118550Y374206D01*
X119215Y375073D01*
X119633Y376082D01*
X119776Y377165D01*
X119633Y378249D01*
X119215Y379258D01*
X118550Y380125D01*
X117683Y380790D01*
X116674Y381208D01*
X115591Y381351D01*
D02*
G37*
G36*
X85591D02*
X84507Y381208D01*
X83498Y380790D01*
X82631Y380125D01*
X81966Y379258D01*
X81548Y378249D01*
X81405Y377165D01*
X81548Y376082D01*
X81966Y375073D01*
X82631Y374206D01*
X83498Y373541D01*
X84507Y373123D01*
X85591Y372980D01*
X86674Y373123D01*
X87683Y373541D01*
X88550Y374206D01*
X89215Y375073D01*
X89633Y376082D01*
X89776Y377165D01*
X89633Y378249D01*
X89215Y379258D01*
X88550Y380125D01*
X87683Y380790D01*
X86674Y381208D01*
X85591Y381351D01*
D02*
G37*
G36*
X75591D02*
X74507Y381208D01*
X73498Y380790D01*
X72631Y380125D01*
X71966Y379258D01*
X71548Y378249D01*
X71405Y377165D01*
X71548Y376082D01*
X71966Y375073D01*
X72631Y374206D01*
X73498Y373541D01*
X74507Y373123D01*
X75591Y372980D01*
X76674Y373123D01*
X77683Y373541D01*
X78550Y374206D01*
X79215Y375073D01*
X79633Y376082D01*
X79776Y377165D01*
X79633Y378249D01*
X79215Y379258D01*
X78550Y380125D01*
X77683Y380790D01*
X76674Y381208D01*
X75591Y381351D01*
D02*
G37*
G36*
X27835Y361036D02*
X26751Y360893D01*
X25742Y360475D01*
X24875Y359810D01*
X24210Y358943D01*
X23792Y357934D01*
X23649Y356850D01*
X23792Y355767D01*
X24210Y354758D01*
X24875Y353891D01*
X25742Y353226D01*
X26751Y352808D01*
X27835Y352665D01*
X28918Y352808D01*
X29927Y353226D01*
X30794Y353891D01*
X31459Y354758D01*
X31877Y355767D01*
X32020Y356850D01*
X31877Y357934D01*
X31459Y358943D01*
X30794Y359810D01*
X29927Y360475D01*
X28918Y360893D01*
X27835Y361036D01*
D02*
G37*
G36*
X458000Y391224D02*
X457149Y391055D01*
X456427Y390573D01*
X456399Y390529D01*
X451601D01*
X451573Y390573D01*
X450851Y391055D01*
X450000Y391224D01*
X449149Y391055D01*
X448427Y390573D01*
X448245Y390300D01*
X447919Y390081D01*
X447587Y389585D01*
X447471Y389000D01*
X447587Y388415D01*
X447919Y387919D01*
X448245Y387700D01*
X448427Y387427D01*
X449149Y386945D01*
X450000Y386776D01*
X450851Y386945D01*
X451573Y387427D01*
X451601Y387471D01*
X456399D01*
X456427Y387427D01*
X457149Y386945D01*
X458000Y386776D01*
X458851Y386945D01*
X459573Y387427D01*
X459601Y387471D01*
X461367D01*
X463471Y385367D01*
Y382134D01*
X462228D01*
Y377378D01*
X467772D01*
Y382134D01*
X466529D01*
Y386000D01*
X466413Y386585D01*
X466081Y387081D01*
X463081Y390081D01*
X462585Y390413D01*
X462000Y390529D01*
X459601D01*
X459573Y390573D01*
X458851Y391055D01*
X458000Y391224D01*
D02*
G37*
G36*
X627795Y398703D02*
X626089Y398569D01*
X624425Y398169D01*
X622843Y397514D01*
X621384Y396620D01*
X620082Y395508D01*
X618971Y394207D01*
X618076Y392747D01*
X617421Y391166D01*
X617022Y389502D01*
X616888Y387795D01*
X617022Y386089D01*
X617421Y384425D01*
X618076Y382843D01*
X618971Y381384D01*
X620082Y380082D01*
X621384Y378971D01*
X622843Y378076D01*
X624425Y377421D01*
X626089Y377022D01*
X627795Y376888D01*
X629501Y377022D01*
X631166Y377421D01*
X632747Y378076D01*
X634206Y378971D01*
X635508Y380082D01*
X636620Y381384D01*
X637514Y382843D01*
X638169Y384425D01*
X638568Y386089D01*
X638703Y387795D01*
X638568Y389502D01*
X638169Y391166D01*
X637514Y392747D01*
X636620Y394207D01*
X635508Y395508D01*
X634206Y396620D01*
X632747Y397514D01*
X631166Y398169D01*
X629501Y398569D01*
X627795Y398703D01*
D02*
G37*
G36*
X467772Y376622D02*
X465500D01*
Y374744D01*
X467772D01*
Y376622D01*
D02*
G37*
G36*
X464500D02*
X462228D01*
Y374744D01*
X464500D01*
Y376622D01*
D02*
G37*
G36*
X467772Y373744D02*
X465500D01*
Y371866D01*
X467772D01*
Y373744D01*
D02*
G37*
G36*
X464500D02*
X462228D01*
Y371866D01*
X464500D01*
Y373744D01*
D02*
G37*
G36*
X486768Y371004D02*
X486287D01*
Y367626D01*
X487992D01*
Y369779D01*
X487899Y370248D01*
X487633Y370645D01*
X487236Y370911D01*
X486768Y371004D01*
D02*
G37*
G36*
X466768D02*
X466287D01*
Y367626D01*
X467992D01*
Y369779D01*
X467899Y370248D01*
X467633Y370645D01*
X467236Y370911D01*
X466768Y371004D01*
D02*
G37*
G36*
X485287D02*
X484807D01*
X484339Y370911D01*
X483941Y370645D01*
X483676Y370248D01*
X483583Y369779D01*
Y367626D01*
X485287D01*
Y371004D01*
D02*
G37*
G36*
X465287D02*
X464807D01*
X464339Y370911D01*
X463941Y370645D01*
X463676Y370248D01*
X463583Y369779D01*
Y367626D01*
X465287D01*
Y371004D01*
D02*
G37*
G36*
X490272Y397358D02*
X484531D01*
Y393795D01*
X484205D01*
X483738Y393702D01*
X483342Y393437D01*
X471976Y382072D01*
X471711Y381676D01*
X471618Y381208D01*
Y371004D01*
X469807D01*
X469339Y370911D01*
X468941Y370645D01*
X468676Y370248D01*
X468583Y369779D01*
Y364473D01*
X468611Y364328D01*
X468287Y363903D01*
X467963Y364328D01*
X467992Y364473D01*
Y366626D01*
X465787D01*
X463583D01*
Y364473D01*
X463671Y364029D01*
X463672Y363998D01*
X463392Y363529D01*
X461633D01*
X438081Y387081D01*
X437585Y387413D01*
X437000Y387529D01*
X431283D01*
X430774Y387869D01*
X430000Y388023D01*
X429226Y387869D01*
X428569Y387431D01*
X428131Y386774D01*
X427977Y386000D01*
X428131Y385226D01*
X428569Y384569D01*
X429226Y384131D01*
X430000Y383977D01*
X430774Y384131D01*
X431283Y384471D01*
X436367D01*
X458846Y361991D01*
X458654Y361529D01*
X457633D01*
X441081Y378081D01*
X440585Y378413D01*
X440000Y378529D01*
X438283D01*
X437774Y378869D01*
X437000Y379023D01*
X436226Y378869D01*
X435569Y378431D01*
X435131Y377774D01*
X434977Y377000D01*
X435131Y376226D01*
X435569Y375569D01*
X436226Y375131D01*
X437000Y374977D01*
X437774Y375131D01*
X438283Y375471D01*
X439366D01*
X455595Y359242D01*
X455388Y358742D01*
X451421D01*
X426081Y384081D01*
X425585Y384413D01*
X425402Y384449D01*
X424774Y384869D01*
X424000Y385023D01*
X423226Y384869D01*
X422569Y384431D01*
X422131Y383774D01*
X421977Y383000D01*
X422003Y382867D01*
X421543Y382620D01*
X414081Y390081D01*
X413585Y390413D01*
X413000Y390529D01*
X412283D01*
X411774Y390869D01*
X411000Y391023D01*
X410226Y390869D01*
X409569Y390431D01*
X409131Y389774D01*
X408977Y389000D01*
X409131Y388226D01*
X409569Y387569D01*
X410226Y387131D01*
X411000Y386977D01*
X411774Y387131D01*
X412283Y387471D01*
X412366D01*
X447919Y351919D01*
X448415Y351587D01*
X449000Y351471D01*
X472941D01*
X474258Y350154D01*
Y349400D01*
X473941Y349188D01*
X473676Y348791D01*
X473583Y348323D01*
Y343016D01*
X473676Y342547D01*
X473941Y342150D01*
X474339Y341884D01*
X474807Y341791D01*
X476768D01*
X477236Y341884D01*
X477633Y342150D01*
X477899Y342547D01*
X477992Y343016D01*
Y348323D01*
X477899Y348791D01*
X477633Y349188D01*
X477317Y349400D01*
Y350787D01*
X477200Y351373D01*
X476869Y351869D01*
X474656Y354081D01*
X474160Y354413D01*
X473575Y354529D01*
X449634D01*
X423620Y380543D01*
X423867Y381003D01*
X424000Y380977D01*
X424718Y381120D01*
X449706Y356131D01*
X450202Y355800D01*
X450787Y355683D01*
X483154D01*
X484258Y354579D01*
Y349400D01*
X483941Y349188D01*
X483676Y348791D01*
X483583Y348323D01*
Y343016D01*
X483676Y342547D01*
X483882Y342238D01*
X483802Y341884D01*
X483708Y341705D01*
X483492Y341671D01*
X482785Y342377D01*
X482899Y342547D01*
X482992Y343016D01*
Y348323D01*
X482899Y348791D01*
X482633Y349188D01*
X482236Y349454D01*
X481768Y349547D01*
X479807D01*
X479339Y349454D01*
X478941Y349188D01*
X478676Y348791D01*
X478583Y348323D01*
Y343016D01*
X478676Y342547D01*
X478941Y342150D01*
X479321Y341896D01*
X479374Y341627D01*
X479706Y341131D01*
X481919Y338919D01*
X482415Y338587D01*
X483000Y338471D01*
X513000D01*
X513585Y338587D01*
X514081Y338919D01*
X518515Y343353D01*
X534619D01*
X534648Y343309D01*
X535369Y342827D01*
X536221Y342658D01*
X537072Y342827D01*
X537793Y343309D01*
X538275Y344031D01*
X538444Y344882D01*
X538275Y345733D01*
X537793Y346454D01*
X537072Y346936D01*
X536221Y347106D01*
X535369Y346936D01*
X534648Y346454D01*
X534619Y346411D01*
X517882D01*
X517297Y346295D01*
X516800Y345963D01*
X512366Y341529D01*
X502605D01*
X502453Y342029D01*
X502633Y342150D01*
X502899Y342547D01*
X502992Y343016D01*
Y348323D01*
X502899Y348791D01*
X502633Y349188D01*
X502236Y349454D01*
X501768Y349547D01*
X499807D01*
X499339Y349454D01*
X498941Y349188D01*
X498676Y348791D01*
X498583Y348323D01*
Y343016D01*
X498676Y342547D01*
X498941Y342150D01*
X499122Y342029D01*
X498970Y341529D01*
X497605D01*
X497453Y342029D01*
X497633Y342150D01*
X497899Y342547D01*
X497992Y343016D01*
Y348323D01*
X497899Y348791D01*
X497633Y349188D01*
X497236Y349454D01*
X496785Y349544D01*
X496660Y349728D01*
X496543Y350009D01*
X502865Y356331D01*
X526130D01*
Y352768D01*
X531870D01*
Y356331D01*
X598774D01*
X604101Y351004D01*
X603841Y350557D01*
X602893Y350432D01*
X601920Y350029D01*
X601084Y349388D01*
X600443Y348553D01*
X600040Y347580D01*
X599902Y346535D01*
X600040Y345491D01*
X600443Y344518D01*
X601084Y343683D01*
X601920Y343041D01*
X602893Y342638D01*
X603937Y342501D01*
X604981Y342638D01*
X605954Y343041D01*
X606713Y343623D01*
X607213Y343491D01*
Y339580D01*
X606713Y339447D01*
X605954Y340029D01*
X604981Y340433D01*
X603937Y340570D01*
X602893Y340433D01*
X601920Y340029D01*
X601084Y339388D01*
X600569Y338717D01*
X600066Y338618D01*
X599938Y338640D01*
X596682Y341896D01*
X596286Y342161D01*
X595818Y342254D01*
X595359D01*
X595260Y342754D01*
X595954Y343041D01*
X596790Y343683D01*
X597431Y344518D01*
X597834Y345491D01*
X597971Y346535D01*
X597834Y347580D01*
X597431Y348553D01*
X596790Y349388D01*
X595954Y350029D01*
X594981Y350432D01*
X593937Y350570D01*
X592893Y350432D01*
X591920Y350029D01*
X591084Y349388D01*
X590443Y348553D01*
X590040Y347580D01*
X589902Y346535D01*
X590040Y345491D01*
X590443Y344518D01*
X591084Y343683D01*
X591920Y343041D01*
X592614Y342754D01*
X592515Y342254D01*
X587489D01*
X587022Y342161D01*
X586626Y341896D01*
X578682Y333953D01*
X520587D01*
Y337516D01*
X514847D01*
Y333953D01*
X478920D01*
X471543Y341329D01*
X471660Y341610D01*
X471785Y341795D01*
X472236Y341884D01*
X472633Y342150D01*
X472899Y342547D01*
X472992Y343016D01*
Y348323D01*
X472899Y348791D01*
X472633Y349188D01*
X472236Y349454D01*
X471768Y349547D01*
X469807D01*
X469339Y349454D01*
X468941Y349188D01*
X468676Y348791D01*
X468583Y348323D01*
Y347459D01*
X468287Y347289D01*
X467992Y347459D01*
Y348323D01*
X467899Y348791D01*
X467633Y349188D01*
X467236Y349454D01*
X466768Y349547D01*
X464807D01*
X464339Y349454D01*
X463941Y349188D01*
X463676Y348791D01*
X463583Y348323D01*
Y343016D01*
X463676Y342547D01*
X463941Y342150D01*
X464339Y341884D01*
X464807Y341791D01*
X466668D01*
X466711Y341572D01*
X466976Y341176D01*
X477179Y330972D01*
X477576Y330707D01*
X478043Y330614D01*
X479400D01*
X479449Y330114D01*
X479149Y330055D01*
X478428Y329573D01*
X478399Y329529D01*
X469772D01*
Y330134D01*
X464228D01*
Y325378D01*
X469772D01*
Y326471D01*
X478399D01*
X478428Y326428D01*
X479149Y325945D01*
X480000Y325776D01*
X480851Y325945D01*
X481572Y326428D01*
X481601Y326471D01*
X486399D01*
X486427Y326428D01*
X487149Y325945D01*
X488000Y325776D01*
X488851Y325945D01*
X489572Y326428D01*
X490055Y327149D01*
X490224Y328000D01*
X490055Y328851D01*
X489572Y329573D01*
X488851Y330055D01*
X488551Y330114D01*
X488600Y330614D01*
X514847D01*
Y327051D01*
X520587D01*
Y330614D01*
X579559D01*
X580026Y330707D01*
X580423Y330972D01*
X588366Y338915D01*
X590153D01*
X590386Y338415D01*
X590040Y337580D01*
X589902Y336535D01*
X590040Y335491D01*
X590443Y334518D01*
X591084Y333683D01*
X591920Y333041D01*
X592893Y332638D01*
X593937Y332501D01*
X594981Y332638D01*
X595954Y333041D01*
X596790Y333683D01*
X597431Y334518D01*
X597761Y335314D01*
X598257D01*
X598725Y335407D01*
X598937Y335549D01*
X599149Y335407D01*
X599617Y335314D01*
X600113D01*
X600443Y334518D01*
X601084Y333683D01*
X601920Y333041D01*
X601955Y333027D01*
X601945Y332624D01*
X601920Y332500D01*
X601546Y332250D01*
X597936Y328640D01*
X597808Y328618D01*
X597305Y328716D01*
X596790Y329388D01*
X595954Y330029D01*
X594981Y330433D01*
X593937Y330570D01*
X592893Y330433D01*
X591920Y330029D01*
X591084Y329388D01*
X590443Y328553D01*
X590040Y327580D01*
X589902Y326535D01*
X590040Y325491D01*
X590443Y324518D01*
X591084Y323683D01*
X591920Y323041D01*
X592893Y322638D01*
X593937Y322501D01*
X594981Y322638D01*
X595954Y323041D01*
X596790Y323683D01*
X597431Y324518D01*
X597761Y325314D01*
X598257D01*
X598725Y325407D01*
X598937Y325549D01*
X599149Y325407D01*
X599617Y325314D01*
X600113D01*
X600443Y324518D01*
X601084Y323683D01*
X601756Y323167D01*
X601855Y322665D01*
X601832Y322536D01*
X597936Y318640D01*
X597808Y318618D01*
X597305Y318717D01*
X596790Y319388D01*
X595954Y320029D01*
X594981Y320432D01*
X593937Y320570D01*
X592893Y320432D01*
X591920Y320029D01*
X591084Y319388D01*
X590443Y318553D01*
X590040Y317580D01*
X589902Y316535D01*
X590040Y315491D01*
X590443Y314518D01*
X591084Y313683D01*
X591920Y313041D01*
X592893Y312638D01*
X593937Y312501D01*
X594981Y312638D01*
X595954Y313041D01*
X596790Y313683D01*
X597431Y314518D01*
X597761Y315314D01*
X598257D01*
X598725Y315407D01*
X598937Y315549D01*
X599149Y315407D01*
X599617Y315314D01*
X600113D01*
X600443Y314518D01*
X601084Y313683D01*
X601920Y313041D01*
X602893Y312638D01*
X603937Y312501D01*
X604981Y312638D01*
X605954Y313041D01*
X606790Y313683D01*
X607431Y314518D01*
X607834Y315491D01*
X607971Y316535D01*
X607834Y317580D01*
X607431Y318553D01*
X606790Y319388D01*
X606638Y319504D01*
X606638Y319708D01*
X606722Y320070D01*
X607034Y320279D01*
X622822Y336067D01*
X623087Y336463D01*
X623180Y336931D01*
Y347025D01*
X623087Y347492D01*
X622822Y347888D01*
X590265Y380445D01*
X589869Y380710D01*
X589401Y380803D01*
X519799D01*
Y384366D01*
X514059D01*
Y380803D01*
X507219D01*
X506752Y380710D01*
X506356Y380445D01*
X496976Y371066D01*
X496915Y370974D01*
X496768Y371004D01*
X494807D01*
X494339Y370911D01*
X493941Y370645D01*
X493676Y370248D01*
X493583Y369779D01*
Y364473D01*
X493676Y364004D01*
X493941Y363607D01*
X494339Y363341D01*
X494807Y363248D01*
X496768D01*
X497236Y363341D01*
X497633Y363607D01*
X497899Y364004D01*
X497992Y364473D01*
Y365336D01*
X498287Y365507D01*
X498583Y365336D01*
Y364473D01*
X498676Y364004D01*
X498941Y363607D01*
X499339Y363341D01*
X499807Y363248D01*
X501768D01*
X502236Y363341D01*
X502633Y363607D01*
X502899Y364004D01*
X502992Y364473D01*
Y369779D01*
X502899Y370248D01*
X502633Y370645D01*
X502236Y370911D01*
X502082Y371451D01*
X508096Y377465D01*
X514059D01*
Y373902D01*
X519799D01*
Y377465D01*
X588525D01*
X619842Y346148D01*
Y337807D01*
X608406Y326372D01*
X607959Y326632D01*
X607834Y327580D01*
X607431Y328553D01*
X606790Y329388D01*
X606725Y329438D01*
X606692Y329937D01*
X610193Y333438D01*
X610458Y333834D01*
X610551Y334302D01*
Y348769D01*
X610458Y349236D01*
X610193Y349633D01*
X600515Y359312D01*
X600118Y359576D01*
X599651Y359669D01*
X531870D01*
Y363232D01*
X526130D01*
Y359669D01*
X501988D01*
X501521Y359576D01*
X501125Y359312D01*
X491976Y350163D01*
X491711Y349767D01*
X491668Y349547D01*
X489807D01*
X489339Y349454D01*
X488941Y349188D01*
X488676Y348791D01*
X488583Y348323D01*
Y343016D01*
X488676Y342547D01*
X488941Y342150D01*
X489122Y342029D01*
X488970Y341529D01*
X487605D01*
X487453Y342029D01*
X487633Y342150D01*
X487899Y342547D01*
X487992Y343016D01*
Y348323D01*
X487899Y348791D01*
X487633Y349188D01*
X487317Y349400D01*
Y355213D01*
X487200Y355798D01*
X486869Y356294D01*
X485192Y357971D01*
X485399Y358471D01*
X490000D01*
X490585Y358587D01*
X491081Y358919D01*
X491869Y359706D01*
X492200Y360202D01*
X492317Y360787D01*
Y363395D01*
X492633Y363607D01*
X492899Y364004D01*
X492992Y364473D01*
Y369779D01*
X492899Y370248D01*
X492633Y370645D01*
X492236Y370911D01*
X491768Y371004D01*
X489807D01*
X489339Y370911D01*
X488941Y370645D01*
X488676Y370248D01*
X488583Y369779D01*
Y364473D01*
X488676Y364004D01*
X488941Y363607D01*
X489258Y363395D01*
Y361529D01*
X482352D01*
X482085Y362029D01*
X482200Y362202D01*
X482317Y362787D01*
Y363395D01*
X482633Y363607D01*
X482899Y364004D01*
X482992Y364473D01*
Y369779D01*
X482899Y370248D01*
X482633Y370645D01*
X482236Y370911D01*
X481768Y371004D01*
X479807D01*
X479339Y370911D01*
X478941Y370645D01*
X478676Y370248D01*
X478583Y369779D01*
Y364473D01*
X478612Y364328D01*
X478287Y363903D01*
X477963Y364328D01*
X477992Y364473D01*
Y369779D01*
X477899Y370248D01*
X477633Y370645D01*
X477236Y370911D01*
X476768Y371004D01*
X474957D01*
Y380331D01*
X484069Y389444D01*
X484531Y389253D01*
Y386894D01*
X490272D01*
Y390457D01*
X593951D01*
X634260Y350148D01*
Y322159D01*
X616256Y304155D01*
X607722D01*
X607488Y304655D01*
X607834Y305491D01*
X607971Y306535D01*
X607834Y307580D01*
X607431Y308553D01*
X606790Y309388D01*
X605954Y310029D01*
X604981Y310433D01*
X603937Y310570D01*
X602893Y310433D01*
X601920Y310029D01*
X601084Y309388D01*
X600443Y308553D01*
X600113Y307757D01*
X599617D01*
X599149Y307664D01*
X598937Y307522D01*
X598725Y307664D01*
X598257Y307757D01*
X597761D01*
X597431Y308553D01*
X596790Y309388D01*
X595954Y310029D01*
X594981Y310433D01*
X593937Y310570D01*
X592893Y310433D01*
X591920Y310029D01*
X591084Y309388D01*
X590443Y308553D01*
X590040Y307580D01*
X589902Y306535D01*
X590040Y305491D01*
X590443Y304518D01*
X591084Y303683D01*
X591920Y303041D01*
X592893Y302638D01*
X593937Y302501D01*
X594981Y302638D01*
X595954Y303041D01*
X596790Y303683D01*
X597305Y304354D01*
X597808Y304453D01*
X597936Y304431D01*
X601192Y301175D01*
X601588Y300910D01*
X602056Y300817D01*
X602515D01*
X602614Y300317D01*
X601920Y300029D01*
X601084Y299388D01*
X600443Y298553D01*
X600113Y297757D01*
X599617D01*
X599149Y297664D01*
X598937Y297522D01*
X598725Y297664D01*
X598257Y297757D01*
X597761D01*
X597431Y298553D01*
X596790Y299388D01*
X595954Y300029D01*
X594981Y300432D01*
X593937Y300570D01*
X592893Y300432D01*
X591920Y300029D01*
X591084Y299388D01*
X590443Y298553D01*
X590040Y297580D01*
X589902Y296535D01*
X590040Y295491D01*
X590386Y294655D01*
X590153Y294155D01*
X567431D01*
X560275Y301311D01*
X559879Y301576D01*
X559412Y301669D01*
X531870D01*
Y305232D01*
X526130D01*
Y301669D01*
X473594D01*
X473127Y301576D01*
X472731Y301311D01*
X468334Y296915D01*
X468069Y296519D01*
X468026Y296299D01*
X466165D01*
X465697Y296206D01*
X465300Y295940D01*
X465034Y295543D01*
X464941Y295075D01*
Y290229D01*
X464441Y290022D01*
X451527Y302936D01*
X450529Y303933D01*
Y342832D01*
X450413Y343417D01*
X450081Y343913D01*
X414018Y379976D01*
X414023Y380000D01*
X413869Y380774D01*
X413431Y381431D01*
X412774Y381869D01*
X412000Y382023D01*
X411226Y381869D01*
X410569Y381431D01*
X410131Y380774D01*
X409977Y380000D01*
X410131Y379226D01*
X410569Y378569D01*
X411226Y378131D01*
X411616Y378053D01*
X413170Y376499D01*
X413062Y376196D01*
X412949Y376013D01*
X412226Y375869D01*
X411569Y375431D01*
X411131Y374774D01*
X410977Y374000D01*
X411131Y373226D01*
X411569Y372569D01*
X412226Y372131D01*
X412825Y372012D01*
X444471Y340367D01*
Y302000D01*
X444587Y301415D01*
X444919Y300919D01*
X466919Y278919D01*
X467415Y278587D01*
X468000Y278471D01*
X483000D01*
X483585Y278587D01*
X484081Y278919D01*
X488227Y283064D01*
X488559Y283560D01*
X488675Y284146D01*
Y288690D01*
X488992Y288902D01*
X489257Y289299D01*
X489350Y289768D01*
Y295075D01*
X489257Y295543D01*
X488992Y295940D01*
X488946Y295971D01*
X489098Y296471D01*
X490193D01*
X490345Y295971D01*
X490300Y295940D01*
X490034Y295543D01*
X489941Y295075D01*
Y289768D01*
X490034Y289299D01*
X490300Y288902D01*
X490697Y288636D01*
X491165Y288543D01*
X493026D01*
X493069Y288324D01*
X493334Y287928D01*
X503439Y277822D01*
X503835Y277558D01*
X504303Y277465D01*
X515240D01*
Y273902D01*
X520980D01*
Y277465D01*
X555026D01*
X555493Y277558D01*
X555889Y277822D01*
X557878Y279811D01*
X590893D01*
X591025Y279311D01*
X590443Y278553D01*
X590040Y277580D01*
X589902Y276535D01*
X590040Y275491D01*
X590443Y274518D01*
X591084Y273683D01*
X591920Y273041D01*
X592614Y272754D01*
X592515Y272254D01*
X561855D01*
X561387Y272161D01*
X560991Y271896D01*
X554264Y265169D01*
X523232D01*
Y269870D01*
X512768D01*
Y265169D01*
X507323D01*
X507061Y265117D01*
X485546D01*
X485079Y265024D01*
X484683Y264759D01*
X475795Y255872D01*
X475530Y255475D01*
X475487Y255256D01*
X473626D01*
X473158Y255163D01*
X472760Y254897D01*
X472495Y254500D01*
X472402Y254031D01*
Y248725D01*
X472495Y248256D01*
X472760Y247859D01*
X473158Y247593D01*
X473626Y247500D01*
X475587D01*
X476055Y247593D01*
X476452Y247859D01*
X476718Y248256D01*
X476811Y248725D01*
Y249588D01*
X477106Y249759D01*
X477402Y249588D01*
Y248725D01*
X477495Y248256D01*
X477760Y247859D01*
X478158Y247593D01*
X478626Y247500D01*
X480587D01*
X481055Y247593D01*
X481452Y247859D01*
X481718Y248256D01*
X481811Y248725D01*
Y254031D01*
X481718Y254500D01*
X481452Y254897D01*
X481055Y255163D01*
X480604Y255252D01*
X480479Y255437D01*
X480362Y255718D01*
X482497Y257852D01*
X483039Y257687D01*
X483131Y257226D01*
X483569Y256569D01*
X483679Y256496D01*
Y255256D01*
X483626D01*
X483158Y255163D01*
X482760Y254897D01*
X482495Y254500D01*
X482402Y254031D01*
Y248725D01*
X482495Y248256D01*
X482760Y247859D01*
X483158Y247593D01*
X483626Y247500D01*
X485587D01*
X486055Y247593D01*
X486452Y247859D01*
X486718Y248256D01*
X486811Y248725D01*
Y254031D01*
X486718Y254500D01*
X486452Y254897D01*
X486321Y254985D01*
Y256496D01*
X486431Y256569D01*
X486869Y257226D01*
X487023Y258000D01*
X486869Y258774D01*
X486431Y259431D01*
X485774Y259869D01*
X485313Y259961D01*
X485148Y260504D01*
X486423Y261779D01*
X497402D01*
X497638Y261338D01*
X497524Y261168D01*
X497370Y260394D01*
X497524Y259619D01*
X497963Y258963D01*
X498286Y258747D01*
Y255188D01*
X498158Y255163D01*
X497760Y254897D01*
X497495Y254500D01*
X497402Y254031D01*
Y248725D01*
X497194Y248671D01*
X496811Y249082D01*
Y254031D01*
X496718Y254500D01*
X496452Y254897D01*
X496055Y255163D01*
X495587Y255256D01*
X493626D01*
X493158Y255163D01*
X492760Y254897D01*
X492495Y254500D01*
X492402Y254031D01*
Y253168D01*
X492106Y252997D01*
X491811Y253168D01*
Y254031D01*
X491718Y254500D01*
X491452Y254897D01*
X491055Y255163D01*
X490587Y255256D01*
X488626D01*
X488158Y255163D01*
X487760Y254897D01*
X487495Y254500D01*
X487402Y254031D01*
Y248725D01*
X487495Y248256D01*
X487760Y247859D01*
X488158Y247593D01*
X488626Y247500D01*
X490587D01*
X490734Y247530D01*
X490795Y247438D01*
X493045Y245188D01*
X493441Y244924D01*
X493908Y244831D01*
X512744D01*
Y244475D01*
X512768Y244357D01*
Y240130D01*
X523232D01*
Y244357D01*
X523256Y244475D01*
Y244831D01*
X557147D01*
X557614Y244924D01*
X558010Y245188D01*
X561737Y248915D01*
X590153D01*
X590386Y248415D01*
X590040Y247580D01*
X589902Y246535D01*
X590040Y245491D01*
X590443Y244518D01*
X591084Y243683D01*
X591920Y243041D01*
X592614Y242754D01*
X592515Y242254D01*
X562790D01*
X562323Y242161D01*
X561927Y241896D01*
X552200Y232169D01*
X523232D01*
Y236870D01*
X512768D01*
Y232169D01*
X510312D01*
X510195Y232146D01*
X510055Y232851D01*
X509573Y233573D01*
X508851Y234055D01*
X508000Y234224D01*
X507149Y234055D01*
X506427Y233573D01*
X506259Y233321D01*
X501533D01*
X501452Y233440D01*
X501055Y233706D01*
X500587Y233799D01*
X498626D01*
X498158Y233706D01*
X497760Y233440D01*
X497495Y233043D01*
X497402Y232575D01*
Y227303D01*
X496811D01*
Y232575D01*
X496718Y233043D01*
X496452Y233440D01*
X496136Y233652D01*
Y234394D01*
X496019Y234979D01*
X495688Y235475D01*
X490081Y241081D01*
X489585Y241413D01*
X489000Y241529D01*
X418634D01*
X418529Y241634D01*
Y269367D01*
X419081Y269919D01*
X419413Y270415D01*
X419529Y271000D01*
Y330717D01*
X419869Y331226D01*
X420023Y332000D01*
X419869Y332774D01*
X419431Y333431D01*
X418774Y333869D01*
X418000Y334023D01*
X417226Y333869D01*
X416569Y333431D01*
X416131Y332774D01*
X415977Y332000D01*
X416131Y331226D01*
X416471Y330717D01*
Y271634D01*
X415919Y271081D01*
X415587Y270585D01*
X415471Y270000D01*
Y241000D01*
X415587Y240415D01*
X415919Y239919D01*
X416919Y238919D01*
X417415Y238587D01*
X418000Y238471D01*
X488367D01*
X492781Y234056D01*
X492760Y233440D01*
X492495Y233043D01*
X492402Y232575D01*
Y227303D01*
X491811D01*
Y232575D01*
X491718Y233043D01*
X491452Y233440D01*
X491055Y233706D01*
X490587Y233799D01*
X488626D01*
X488158Y233706D01*
X487760Y233440D01*
X487495Y233043D01*
X487402Y232575D01*
Y231711D01*
X487106Y231541D01*
X486811Y231711D01*
Y232575D01*
X486718Y233043D01*
X486452Y233440D01*
X486055Y233706D01*
X485587Y233799D01*
X483626D01*
X483158Y233706D01*
X482760Y233440D01*
X482495Y233043D01*
X482402Y232575D01*
Y227268D01*
X482495Y226799D01*
X482760Y226402D01*
X483158Y226136D01*
X483626Y226043D01*
X485587D01*
X485734Y226073D01*
X485795Y225981D01*
X487454Y224322D01*
X487850Y224058D01*
X488318Y223965D01*
X505817D01*
X506284Y224058D01*
X506681Y224322D01*
X511189Y228831D01*
X512768D01*
Y224130D01*
X523232D01*
Y228831D01*
X553077D01*
X553544Y228924D01*
X553940Y229188D01*
X563667Y238915D01*
X590153D01*
X590386Y238415D01*
X590040Y237580D01*
X589902Y236535D01*
X590040Y235491D01*
X590443Y234518D01*
X591084Y233683D01*
X591920Y233041D01*
X592893Y232638D01*
X593937Y232501D01*
X594981Y232638D01*
X595954Y233041D01*
X596790Y233683D01*
X597431Y234518D01*
X597761Y235314D01*
X598257D01*
X598725Y235407D01*
X598937Y235549D01*
X599149Y235407D01*
X599617Y235314D01*
X600113D01*
X600443Y234518D01*
X601084Y233683D01*
X601920Y233041D01*
X602893Y232638D01*
X603937Y232501D01*
X604981Y232638D01*
X605954Y233041D01*
X606790Y233683D01*
X607431Y234518D01*
X607834Y235491D01*
X607971Y236535D01*
X607834Y237580D01*
X607431Y238553D01*
X606790Y239388D01*
X605954Y240029D01*
X604981Y240433D01*
X603937Y240570D01*
X602893Y240433D01*
X601920Y240029D01*
X601084Y239388D01*
X600569Y238717D01*
X600066Y238618D01*
X599938Y238640D01*
X596682Y241896D01*
X596286Y242161D01*
X595818Y242254D01*
X595359D01*
X595260Y242754D01*
X595954Y243041D01*
X596790Y243683D01*
X597431Y244518D01*
X597761Y245314D01*
X598257D01*
X598725Y245407D01*
X598937Y245549D01*
X599149Y245407D01*
X599617Y245314D01*
X600113D01*
X600443Y244518D01*
X601084Y243683D01*
X601920Y243041D01*
X602893Y242638D01*
X603937Y242501D01*
X604981Y242638D01*
X605954Y243041D01*
X606790Y243683D01*
X607431Y244518D01*
X607834Y245491D01*
X607971Y246535D01*
X607834Y247580D01*
X607431Y248553D01*
X606790Y249388D01*
X605954Y250029D01*
X604981Y250432D01*
X603937Y250570D01*
X602893Y250432D01*
X601920Y250029D01*
X601084Y249388D01*
X600569Y248716D01*
X600066Y248618D01*
X599938Y248640D01*
X596682Y251896D01*
X596286Y252161D01*
X595818Y252254D01*
X595359D01*
X595260Y252754D01*
X595954Y253041D01*
X596790Y253683D01*
X597431Y254518D01*
X597834Y255491D01*
X597971Y256535D01*
X597834Y257580D01*
X597431Y258553D01*
X596790Y259388D01*
X595954Y260029D01*
X594981Y260433D01*
X593937Y260570D01*
X592893Y260433D01*
X591920Y260029D01*
X591084Y259388D01*
X590443Y258553D01*
X590040Y257580D01*
X589902Y256535D01*
X590040Y255491D01*
X590443Y254518D01*
X591084Y253683D01*
X591920Y253041D01*
X592614Y252754D01*
X592515Y252254D01*
X560860D01*
X560393Y252161D01*
X559997Y251896D01*
X556270Y248169D01*
X523256D01*
Y248525D01*
X523232Y248643D01*
Y252870D01*
X512768D01*
Y248643D01*
X512744Y248525D01*
Y248169D01*
X502210D01*
X501800Y248669D01*
X501811Y248725D01*
Y254031D01*
X501718Y254500D01*
X501452Y254897D01*
X501055Y255163D01*
X500927Y255188D01*
Y259117D01*
X501263Y259619D01*
X501417Y260394D01*
X501263Y261168D01*
X501149Y261338D01*
X501385Y261779D01*
X507642D01*
X507904Y261831D01*
X512768D01*
Y257130D01*
X523232D01*
Y261831D01*
X555141D01*
X555608Y261924D01*
X556005Y262189D01*
X562732Y268915D01*
X590153D01*
X590386Y268415D01*
X590040Y267580D01*
X589902Y266535D01*
X590040Y265491D01*
X590443Y264518D01*
X591084Y263683D01*
X591920Y263041D01*
X592893Y262638D01*
X593937Y262501D01*
X594981Y262638D01*
X595954Y263041D01*
X596790Y263683D01*
X597431Y264518D01*
X597761Y265314D01*
X598257D01*
X598725Y265407D01*
X598937Y265549D01*
X599149Y265407D01*
X599617Y265314D01*
X600113D01*
X600443Y264518D01*
X601084Y263683D01*
X601920Y263041D01*
X602893Y262638D01*
X603937Y262501D01*
X604981Y262638D01*
X605954Y263041D01*
X606790Y263683D01*
X607431Y264518D01*
X607834Y265491D01*
X607971Y266535D01*
X607834Y267580D01*
X607431Y268553D01*
X606790Y269388D01*
X605954Y270029D01*
X604981Y270432D01*
X603937Y270570D01*
X602893Y270432D01*
X601920Y270029D01*
X601084Y269388D01*
X600569Y268717D01*
X600066Y268618D01*
X599938Y268640D01*
X596682Y271896D01*
X596286Y272161D01*
X595818Y272254D01*
X595359D01*
X595260Y272754D01*
X595954Y273041D01*
X596790Y273683D01*
X597431Y274518D01*
X597834Y275491D01*
X597971Y276535D01*
X597834Y277580D01*
X597431Y278553D01*
X596790Y279388D01*
X596118Y279904D01*
X596020Y280406D01*
X596042Y280534D01*
X599938Y284431D01*
X600066Y284453D01*
X600569Y284354D01*
X601084Y283683D01*
X601920Y283041D01*
X602893Y282638D01*
X603937Y282501D01*
X604981Y282638D01*
X605954Y283041D01*
X606790Y283683D01*
X607431Y284518D01*
X607834Y285491D01*
X607971Y286535D01*
X607834Y287580D01*
X607431Y288553D01*
X606790Y289388D01*
X605954Y290029D01*
X604981Y290433D01*
X603937Y290570D01*
X602893Y290433D01*
X601920Y290029D01*
X601084Y289388D01*
X600443Y288553D01*
X600113Y287757D01*
X599617D01*
X599149Y287664D01*
X598937Y287522D01*
X598725Y287664D01*
X598257Y287757D01*
X597761D01*
X597431Y288553D01*
X596790Y289388D01*
X595954Y290029D01*
X595260Y290317D01*
X595359Y290817D01*
X595818D01*
X596286Y290910D01*
X596682Y291175D01*
X599938Y294431D01*
X600066Y294453D01*
X600569Y294354D01*
X601084Y293683D01*
X601920Y293041D01*
X602893Y292638D01*
X603937Y292501D01*
X604981Y292638D01*
X605954Y293041D01*
X606790Y293683D01*
X607431Y294518D01*
X607834Y295491D01*
X607971Y296535D01*
X607834Y297580D01*
X607431Y298553D01*
X606790Y299388D01*
X605954Y300029D01*
X605260Y300317D01*
X605359Y300817D01*
X617133D01*
X617600Y300910D01*
X617997Y301175D01*
X637241Y320419D01*
X637505Y320815D01*
X637599Y321283D01*
Y351024D01*
X637505Y351492D01*
X637241Y351888D01*
X595691Y393437D01*
X595295Y393702D01*
X594828Y393795D01*
X490272D01*
Y397358D01*
D02*
G37*
G36*
X487992Y366626D02*
X486287D01*
Y363248D01*
X486768D01*
X487236Y363341D01*
X487633Y363607D01*
X487899Y364004D01*
X487992Y364473D01*
Y366626D01*
D02*
G37*
G36*
X485287D02*
X483583D01*
Y364473D01*
X483676Y364004D01*
X483941Y363607D01*
X484339Y363341D01*
X484807Y363248D01*
X485287D01*
Y366626D01*
D02*
G37*
G36*
X531870Y327232D02*
X526130D01*
Y323669D01*
X524678D01*
X524587Y323759D01*
X524191Y324024D01*
X523724Y324117D01*
X475722D01*
X475255Y324024D01*
X474859Y323759D01*
X473334Y322235D01*
X473069Y321838D01*
X472976Y321371D01*
Y317756D01*
X471165D01*
X470697Y317663D01*
X470300Y317397D01*
X470034Y317000D01*
X469941Y316531D01*
Y311225D01*
X470034Y310756D01*
X470300Y310359D01*
X470697Y310093D01*
X471165Y310000D01*
X473126D01*
X473594Y310093D01*
X473992Y310359D01*
X474257Y310756D01*
X474350Y311225D01*
Y312088D01*
X474646Y312259D01*
X474941Y312088D01*
Y311225D01*
X475034Y310756D01*
X475300Y310359D01*
X475697Y310093D01*
X476165Y310000D01*
X478126D01*
X478594Y310093D01*
X478992Y310359D01*
X479257Y310756D01*
X479350Y311225D01*
Y316531D01*
X479257Y317000D01*
X478992Y317397D01*
X478594Y317663D01*
X478126Y317756D01*
X476315D01*
Y320494D01*
X476599Y320779D01*
X522847D01*
X522937Y320689D01*
X523333Y320424D01*
X523801Y320331D01*
X526130D01*
Y316768D01*
X531870D01*
Y320331D01*
X542423D01*
X542423Y320331D01*
X556014D01*
X556131Y319742D01*
X556569Y319085D01*
X557226Y318647D01*
X558000Y318493D01*
X558774Y318647D01*
X559431Y319085D01*
X559869Y319742D01*
X560023Y320516D01*
X559869Y321290D01*
X559663Y321599D01*
X559774Y322131D01*
X560431Y322569D01*
X560869Y323226D01*
X561023Y324000D01*
X560869Y324774D01*
X560431Y325431D01*
X559774Y325869D01*
X559000Y326023D01*
X558226Y325869D01*
X557569Y325431D01*
X557131Y324774D01*
X556999Y324109D01*
X556838D01*
X556370Y324016D01*
X555974Y323752D01*
X555892Y323669D01*
X542052D01*
X542052Y323669D01*
X531870D01*
Y327232D01*
D02*
G37*
G36*
X469772Y324622D02*
X467500D01*
Y322744D01*
X469772D01*
Y324622D01*
D02*
G37*
G36*
X466500D02*
X464228D01*
Y322744D01*
X466500D01*
Y324622D01*
D02*
G37*
G36*
X469772Y321744D02*
X467500D01*
Y319866D01*
X469772D01*
Y321744D01*
D02*
G37*
G36*
X466500D02*
X464228D01*
Y319866D01*
X466500D01*
Y321744D01*
D02*
G37*
G36*
X468126Y317756D02*
X467646D01*
Y314378D01*
X469350D01*
Y316531D01*
X469257Y317000D01*
X468992Y317397D01*
X468594Y317663D01*
X468126Y317756D01*
D02*
G37*
G36*
X488126D02*
X487646D01*
Y314378D01*
X489350D01*
Y316531D01*
X489257Y317000D01*
X488992Y317397D01*
X488594Y317663D01*
X488126Y317756D01*
D02*
G37*
G36*
X466646D02*
X466165D01*
X465697Y317663D01*
X465300Y317397D01*
X465034Y317000D01*
X464941Y316531D01*
Y314378D01*
X466646D01*
Y317756D01*
D02*
G37*
G36*
X486646D02*
X486165D01*
X485697Y317663D01*
X485300Y317397D01*
X485034Y317000D01*
X484941Y316531D01*
Y314378D01*
X486646D01*
Y317756D01*
D02*
G37*
G36*
X489350Y313378D02*
X487646D01*
Y310000D01*
X488126D01*
X488594Y310093D01*
X488992Y310359D01*
X489257Y310756D01*
X489350Y311225D01*
Y313378D01*
D02*
G37*
G36*
X486646D02*
X484941D01*
Y311225D01*
X485034Y310756D01*
X485300Y310359D01*
X485697Y310093D01*
X486165Y310000D01*
X486646D01*
Y313378D01*
D02*
G37*
G36*
X469350D02*
X467646D01*
Y310000D01*
X468126D01*
X468594Y310093D01*
X468992Y310359D01*
X469257Y310756D01*
X469350Y311225D01*
Y313378D01*
D02*
G37*
G36*
X466646D02*
X464941D01*
Y311225D01*
X465034Y310756D01*
X465300Y310359D01*
X465697Y310093D01*
X466165Y310000D01*
X466646D01*
Y313378D01*
D02*
G37*
G36*
X508139Y320117D02*
X499954D01*
X499487Y320024D01*
X499091Y319759D01*
X498334Y319003D01*
X498069Y318607D01*
X497976Y318139D01*
Y317756D01*
X496165D01*
X495697Y317663D01*
X495300Y317397D01*
X495034Y317000D01*
X494941Y316531D01*
Y311225D01*
X495034Y310756D01*
X495300Y310359D01*
X495697Y310093D01*
X496165Y310000D01*
X498126D01*
X498594Y310093D01*
X498992Y310359D01*
X499257Y310756D01*
X499350Y311225D01*
Y312088D01*
X499646Y312259D01*
X499941Y312088D01*
Y311225D01*
X500034Y310756D01*
X500300Y310359D01*
X500697Y310093D01*
X501165Y310000D01*
X503126D01*
X503594Y310093D01*
X503992Y310359D01*
X504257Y310756D01*
X504350Y311225D01*
Y316531D01*
X504553Y316779D01*
X506779D01*
Y313000D01*
X506872Y312533D01*
X507136Y312136D01*
X509584Y309688D01*
X509980Y309424D01*
X510448Y309331D01*
X515130D01*
Y305768D01*
X520870D01*
Y309331D01*
X552705D01*
X552977Y309000D01*
X553131Y308226D01*
X553569Y307569D01*
X554226Y307131D01*
X555000Y306977D01*
X555774Y307131D01*
X556431Y307569D01*
X556869Y308226D01*
X556966Y308712D01*
X557157Y309021D01*
X557509Y309075D01*
X558000Y308977D01*
X558774Y309131D01*
X559431Y309569D01*
X559869Y310226D01*
X560023Y311000D01*
X559869Y311774D01*
X559431Y312431D01*
X558774Y312869D01*
X558000Y313023D01*
X557226Y312869D01*
X556833Y312607D01*
X556521Y312669D01*
X520870D01*
Y316232D01*
X515130D01*
Y312669D01*
X511325D01*
X510117Y313877D01*
Y318139D01*
X510024Y318607D01*
X509759Y319003D01*
X509003Y319759D01*
X508607Y320024D01*
X508139Y320117D01*
D02*
G37*
G36*
X493126Y317756D02*
X491165D01*
X490697Y317663D01*
X490300Y317397D01*
X490034Y317000D01*
X489941Y316531D01*
Y311225D01*
X490034Y310756D01*
X490300Y310359D01*
X490697Y310093D01*
X490865Y310060D01*
Y306628D01*
X490569Y306431D01*
X490131Y305774D01*
X489977Y305000D01*
X490131Y304226D01*
X490569Y303569D01*
X491226Y303131D01*
X492000Y302977D01*
X492774Y303131D01*
X493431Y303569D01*
X493869Y304226D01*
X494023Y305000D01*
X493869Y305774D01*
X493431Y306431D01*
X493426Y306434D01*
Y310060D01*
X493594Y310093D01*
X493992Y310359D01*
X494257Y310756D01*
X494350Y311225D01*
Y316531D01*
X494257Y317000D01*
X493992Y317397D01*
X493594Y317663D01*
X493126Y317756D01*
D02*
G37*
G36*
X483126D02*
X481165D01*
X480697Y317663D01*
X480300Y317397D01*
X480034Y317000D01*
X479941Y316531D01*
Y311225D01*
X480034Y310756D01*
X480300Y310359D01*
X480697Y310093D01*
X480865Y310060D01*
Y306628D01*
X480569Y306431D01*
X480131Y305774D01*
X479977Y305000D01*
X480131Y304226D01*
X480569Y303569D01*
X481226Y303131D01*
X482000Y302977D01*
X482774Y303131D01*
X483431Y303569D01*
X483869Y304226D01*
X484023Y305000D01*
X483869Y305774D01*
X483431Y306431D01*
X483426Y306434D01*
Y310060D01*
X483594Y310093D01*
X483992Y310359D01*
X484257Y310756D01*
X484350Y311225D01*
Y316531D01*
X484257Y317000D01*
X483992Y317397D01*
X483594Y317663D01*
X483126Y317756D01*
D02*
G37*
G36*
X603937Y280570D02*
X602893Y280433D01*
X601920Y280029D01*
X601084Y279388D01*
X600443Y278553D01*
X600040Y277580D01*
X599902Y276535D01*
X600040Y275491D01*
X600443Y274518D01*
X601084Y273683D01*
X601920Y273041D01*
X602893Y272638D01*
X603937Y272501D01*
X604981Y272638D01*
X605954Y273041D01*
X606790Y273683D01*
X607431Y274518D01*
X607834Y275491D01*
X607971Y276535D01*
X607834Y277580D01*
X607431Y278553D01*
X606790Y279388D01*
X605954Y280029D01*
X604981Y280433D01*
X603937Y280570D01*
D02*
G37*
G36*
X423000Y337023D02*
X422226Y336869D01*
X421569Y336431D01*
X421131Y335774D01*
X420977Y335000D01*
X421131Y334226D01*
X421471Y333717D01*
Y261283D01*
X421131Y260774D01*
X420977Y260000D01*
X421131Y259226D01*
X421569Y258569D01*
X422226Y258131D01*
X423000Y257977D01*
X423774Y258131D01*
X424431Y258569D01*
X424869Y259226D01*
X425023Y260000D01*
X424869Y260774D01*
X424529Y261283D01*
Y333717D01*
X424869Y334226D01*
X425023Y335000D01*
X424869Y335774D01*
X424431Y336431D01*
X423774Y336869D01*
X423000Y337023D01*
D02*
G37*
G36*
X452000Y271321D02*
X451495Y271220D01*
X451288Y271082D01*
X451149Y271055D01*
X450427Y270572D01*
X449945Y269851D01*
X449776Y269000D01*
X449945Y268149D01*
X450427Y267427D01*
X450535Y267356D01*
Y266817D01*
X450428Y266745D01*
X449945Y266024D01*
X449776Y265173D01*
X449945Y264322D01*
X450428Y263600D01*
X450679Y263432D01*
Y260346D01*
X450780Y259841D01*
X451066Y259412D01*
X451412Y259066D01*
X451841Y258780D01*
X452346Y258679D01*
X454866D01*
Y257228D01*
X459622D01*
Y262772D01*
X454866D01*
Y261321D01*
X453321D01*
Y263432D01*
X453573Y263600D01*
X454055Y264322D01*
X454224Y265173D01*
X454055Y266024D01*
X453573Y266745D01*
X453465Y266817D01*
Y267356D01*
X453573Y267427D01*
X454055Y268149D01*
X454224Y269000D01*
X454055Y269851D01*
X453573Y270572D01*
X452851Y271055D01*
X452712Y271082D01*
X452505Y271220D01*
X452000Y271321D01*
D02*
G37*
G36*
X603937Y260570D02*
X602893Y260433D01*
X601920Y260029D01*
X601084Y259388D01*
X600443Y258553D01*
X600040Y257580D01*
X599902Y256535D01*
X600040Y255491D01*
X600443Y254518D01*
X601084Y253683D01*
X601920Y253041D01*
X602893Y252638D01*
X603937Y252501D01*
X604981Y252638D01*
X605954Y253041D01*
X606790Y253683D01*
X607431Y254518D01*
X607834Y255491D01*
X607971Y256535D01*
X607834Y257580D01*
X607431Y258553D01*
X606790Y259388D01*
X605954Y260029D01*
X604981Y260433D01*
X603937Y260570D01*
D02*
G37*
G36*
X462756Y271980D02*
X461905Y271811D01*
X461183Y271328D01*
X460701Y270607D01*
X460532Y269756D01*
X460701Y268905D01*
X461183Y268183D01*
X461435Y268015D01*
Y266619D01*
X461183Y266451D01*
X460701Y265729D01*
X460532Y264878D01*
X460701Y264027D01*
X461183Y263305D01*
X461234Y263272D01*
X461082Y262772D01*
X460378D01*
Y257228D01*
X462547D01*
X462618Y256869D01*
X462905Y256440D01*
X463286Y256059D01*
Y255188D01*
X463158Y255163D01*
X462760Y254897D01*
X462495Y254500D01*
X462402Y254031D01*
Y248725D01*
X462495Y248256D01*
X462760Y247859D01*
X463158Y247593D01*
X463626Y247500D01*
X465587D01*
X466055Y247593D01*
X466452Y247859D01*
X466718Y248256D01*
X466811Y248725D01*
Y254031D01*
X466718Y254500D01*
X466452Y254897D01*
X466055Y255163D01*
X465927Y255188D01*
Y256606D01*
X465827Y257112D01*
X465540Y257540D01*
X465159Y257921D01*
Y258917D01*
X465134Y259045D01*
Y262772D01*
X464430D01*
X464278Y263272D01*
X464328Y263305D01*
X464811Y264027D01*
X464980Y264878D01*
X464811Y265729D01*
X464328Y266451D01*
X464077Y266619D01*
Y268015D01*
X464328Y268183D01*
X464811Y268905D01*
X464980Y269756D01*
X464811Y270607D01*
X464328Y271328D01*
X463607Y271811D01*
X462756Y271980D01*
D02*
G37*
G36*
X429000Y340023D02*
X428226Y339869D01*
X427569Y339431D01*
X427131Y338774D01*
X426977Y338000D01*
X427131Y337226D01*
X427471Y336717D01*
Y254000D01*
X427587Y253415D01*
X427919Y252919D01*
X436919Y243919D01*
X437415Y243587D01*
X438000Y243471D01*
X469000D01*
X469585Y243587D01*
X470081Y243919D01*
X470688Y244525D01*
X471019Y245021D01*
X471136Y245606D01*
Y247647D01*
X471452Y247859D01*
X471718Y248256D01*
X471811Y248725D01*
Y254031D01*
X471718Y254500D01*
X471452Y254897D01*
X471055Y255163D01*
X470587Y255256D01*
X468626D01*
X468158Y255163D01*
X467760Y254897D01*
X467495Y254500D01*
X467402Y254031D01*
Y248725D01*
X467495Y248256D01*
X467760Y247859D01*
X468077Y247647D01*
Y246529D01*
X438633D01*
X430529Y254633D01*
Y336717D01*
X430869Y337226D01*
X431023Y338000D01*
X430869Y338774D01*
X430431Y339431D01*
X429774Y339869D01*
X429000Y340023D01*
D02*
G37*
G36*
X413000Y331023D02*
X412226Y330869D01*
X411569Y330431D01*
X411131Y329774D01*
X410977Y329000D01*
X411131Y328226D01*
X411471Y327717D01*
Y236000D01*
X411587Y235415D01*
X411919Y234919D01*
X412415Y234587D01*
X413000Y234471D01*
X462366D01*
X462781Y234056D01*
X462760Y233440D01*
X462495Y233043D01*
X462402Y232575D01*
Y227268D01*
X462495Y226799D01*
X462760Y226402D01*
X463158Y226136D01*
X463626Y226043D01*
X465587D01*
X466055Y226136D01*
X466452Y226402D01*
X466718Y226799D01*
X466811Y227268D01*
Y232575D01*
X466718Y233043D01*
X466452Y233440D01*
X466136Y233652D01*
Y234394D01*
X466019Y234979D01*
X465688Y235475D01*
X464081Y237081D01*
X463585Y237413D01*
X463000Y237529D01*
X414529D01*
Y327717D01*
X414869Y328226D01*
X415023Y329000D01*
X414869Y329774D01*
X414431Y330431D01*
X413774Y330869D01*
X413000Y331023D01*
D02*
G37*
G36*
X407000Y328023D02*
X406226Y327869D01*
X405569Y327431D01*
X405131Y326774D01*
X404977Y326000D01*
X405131Y325226D01*
X405471Y324717D01*
Y231000D01*
X405587Y230415D01*
X405919Y229919D01*
X457919Y177919D01*
X458415Y177587D01*
X459000Y177471D01*
X482811D01*
X489671Y170612D01*
X489479Y170150D01*
X488520D01*
X488051Y170056D01*
X487654Y169791D01*
X487389Y169394D01*
X487295Y168925D01*
Y168062D01*
X487000Y167891D01*
X486705Y168062D01*
Y168925D01*
X486611Y169394D01*
X486346Y169791D01*
X485949Y170056D01*
X485480Y170150D01*
X483520D01*
X483051Y170056D01*
X482654Y169791D01*
X482389Y169394D01*
X482295Y168925D01*
Y163618D01*
X482389Y163150D01*
X482654Y162752D01*
X483051Y162487D01*
X483520Y162394D01*
X485380D01*
X485424Y162174D01*
X485689Y161778D01*
X487278Y160189D01*
X487674Y159924D01*
X488142Y159831D01*
X512768D01*
Y155130D01*
X523232D01*
Y159831D01*
X546371D01*
X546838Y159924D01*
X547235Y160189D01*
X581929Y194883D01*
X609371D01*
X609838Y194976D01*
X610235Y195241D01*
X615759Y200765D01*
X616024Y201162D01*
X616117Y201629D01*
Y205503D01*
X616579Y205694D01*
X617779Y204494D01*
Y200506D01*
X610494Y193221D01*
X590052D01*
X589585Y193128D01*
X589189Y192864D01*
X543494Y147169D01*
X523232D01*
Y151870D01*
X512768D01*
Y147169D01*
X510404D01*
X510142Y147221D01*
X477954D01*
X473669Y151506D01*
Y162394D01*
X475480D01*
X475949Y162487D01*
X476346Y162752D01*
X476611Y163150D01*
X476705Y163618D01*
Y168925D01*
X476611Y169394D01*
X476346Y169791D01*
X475949Y170056D01*
X475480Y170150D01*
X473520D01*
X473051Y170056D01*
X472654Y169791D01*
X472389Y169394D01*
X472295Y168925D01*
Y168062D01*
X472000Y167891D01*
X471705Y168062D01*
Y168925D01*
X471611Y169394D01*
X471346Y169791D01*
X470949Y170056D01*
X470480Y170150D01*
X468520D01*
X468051Y170056D01*
X467654Y169791D01*
X467389Y169394D01*
X467295Y168925D01*
Y163618D01*
X467389Y163150D01*
X467654Y162752D01*
X468051Y162487D01*
X468520Y162394D01*
X470331D01*
Y150629D01*
X470424Y150162D01*
X470689Y149765D01*
X476213Y144241D01*
X476610Y143976D01*
X477077Y143883D01*
X509561D01*
X509823Y143831D01*
X512768D01*
Y139130D01*
X523232D01*
Y143831D01*
X544371D01*
X544838Y143924D01*
X545235Y144189D01*
X590929Y189883D01*
X611371D01*
X611838Y189976D01*
X612235Y190241D01*
X620759Y198765D01*
X621024Y199162D01*
X621117Y199629D01*
Y205371D01*
X621024Y205838D01*
X620759Y206235D01*
X613196Y213798D01*
X612800Y214062D01*
X612333Y214155D01*
X607722D01*
X607488Y214655D01*
X607834Y215491D01*
X607971Y216535D01*
X607834Y217580D01*
X607431Y218553D01*
X606790Y219388D01*
X605954Y220029D01*
X604981Y220432D01*
X603937Y220570D01*
X602893Y220432D01*
X601920Y220029D01*
X601084Y219388D01*
X600443Y218553D01*
X600113Y217757D01*
X599617D01*
X599149Y217664D01*
X598937Y217522D01*
X598725Y217664D01*
X598257Y217757D01*
X597761D01*
X597431Y218553D01*
X596790Y219388D01*
X596118Y219904D01*
X596020Y220406D01*
X596042Y220534D01*
X599938Y224431D01*
X600066Y224453D01*
X600569Y224354D01*
X601084Y223683D01*
X601920Y223041D01*
X602893Y222638D01*
X603937Y222501D01*
X604981Y222638D01*
X605954Y223041D01*
X606790Y223683D01*
X607431Y224518D01*
X607834Y225491D01*
X607971Y226535D01*
X607834Y227580D01*
X607431Y228553D01*
X606790Y229388D01*
X605954Y230029D01*
X604981Y230433D01*
X603937Y230570D01*
X602893Y230433D01*
X601920Y230029D01*
X601084Y229388D01*
X600443Y228553D01*
X600113Y227757D01*
X599617D01*
X599149Y227664D01*
X598937Y227522D01*
X598725Y227664D01*
X598257Y227757D01*
X597761D01*
X597431Y228553D01*
X596790Y229388D01*
X595954Y230029D01*
X594981Y230433D01*
X593937Y230570D01*
X592893Y230433D01*
X591920Y230029D01*
X591084Y229388D01*
X590443Y228553D01*
X590040Y227580D01*
X589902Y226535D01*
X590040Y225491D01*
X590443Y224518D01*
X591084Y223683D01*
X591162Y223623D01*
X591001Y223149D01*
X561280D01*
X560813Y223057D01*
X560417Y222792D01*
X552794Y215169D01*
X523256D01*
Y215525D01*
X523232Y215643D01*
Y219870D01*
X512768D01*
Y215169D01*
X495404D01*
X495142Y215221D01*
X474060D01*
X473776Y215506D01*
Y226043D01*
X475587D01*
X476055Y226136D01*
X476452Y226402D01*
X476718Y226799D01*
X476811Y227268D01*
Y232575D01*
X476718Y233043D01*
X476452Y233440D01*
X476055Y233706D01*
X475587Y233799D01*
X473626D01*
X473158Y233706D01*
X472760Y233440D01*
X472495Y233043D01*
X472402Y232575D01*
Y231711D01*
X472106Y231541D01*
X471811Y231711D01*
Y232575D01*
X471718Y233043D01*
X471452Y233440D01*
X471055Y233706D01*
X470587Y233799D01*
X468626D01*
X468158Y233706D01*
X467760Y233440D01*
X467495Y233043D01*
X467402Y232575D01*
Y227268D01*
X467495Y226799D01*
X467760Y226402D01*
X468158Y226136D01*
X468626Y226043D01*
X470437D01*
Y214629D01*
X470530Y214162D01*
X470795Y213765D01*
X472320Y212241D01*
X472716Y211976D01*
X473183Y211883D01*
X494561D01*
X494823Y211831D01*
X512768D01*
Y207130D01*
X523232D01*
Y211357D01*
X523256Y211475D01*
Y211831D01*
X553671D01*
X554138Y211924D01*
X554535Y212189D01*
X562157Y219811D01*
X590893D01*
X591025Y219311D01*
X590443Y218553D01*
X590040Y217580D01*
X589902Y216535D01*
X590040Y215491D01*
X590443Y214518D01*
X591084Y213683D01*
X591920Y213041D01*
X592893Y212638D01*
X593937Y212501D01*
X594981Y212638D01*
X595954Y213041D01*
X596790Y213683D01*
X597305Y214354D01*
X597808Y214453D01*
X597936Y214431D01*
X600831Y211535D01*
X597936Y208640D01*
X597808Y208618D01*
X597305Y208717D01*
X596790Y209388D01*
X595954Y210029D01*
X594981Y210433D01*
X593937Y210570D01*
X592893Y210433D01*
X591920Y210029D01*
X591084Y209388D01*
X590443Y208553D01*
X590040Y207580D01*
X589902Y206535D01*
X590040Y205491D01*
X590443Y204518D01*
X591084Y203683D01*
X591920Y203041D01*
X592893Y202638D01*
X593937Y202501D01*
X594981Y202638D01*
X595954Y203041D01*
X596790Y203683D01*
X597431Y204518D01*
X597761Y205314D01*
X598257D01*
X598725Y205407D01*
X598937Y205549D01*
X599149Y205407D01*
X599617Y205314D01*
X600113D01*
X600443Y204518D01*
X601084Y203683D01*
X601920Y203041D01*
X602893Y202638D01*
X603937Y202501D01*
X604981Y202638D01*
X605954Y203041D01*
X606790Y203683D01*
X607431Y204518D01*
X607834Y205491D01*
X607971Y206535D01*
X607834Y207580D01*
X607431Y208553D01*
X607412Y208577D01*
X607633Y209026D01*
X609247D01*
X612779Y205494D01*
Y202506D01*
X608494Y198221D01*
X581052D01*
X580585Y198128D01*
X580189Y197864D01*
X545494Y163169D01*
X523232D01*
Y167870D01*
X512768D01*
Y163169D01*
X502009D01*
X501692Y163556D01*
X501705Y163618D01*
Y166719D01*
X504232D01*
X504427Y166428D01*
X505149Y165945D01*
X506000Y165776D01*
X506851Y165945D01*
X507573Y166428D01*
X508055Y167149D01*
X508224Y168000D01*
X508055Y168851D01*
X507573Y169572D01*
X506851Y170054D01*
X506000Y170224D01*
X505149Y170054D01*
X504427Y169572D01*
X504232Y169281D01*
X501634D01*
X501611Y169394D01*
X501346Y169791D01*
X500949Y170056D01*
X500480Y170150D01*
X498520D01*
X498051Y170056D01*
X497654Y169791D01*
X497389Y169394D01*
X497295Y168925D01*
Y163618D01*
X497081Y163559D01*
X496705Y163967D01*
Y168925D01*
X496611Y169394D01*
X496346Y169791D01*
X495949Y170056D01*
X495480Y170150D01*
X494458D01*
X484699Y179909D01*
X484860Y180443D01*
X488168Y180994D01*
X488276Y181035D01*
X488390Y181058D01*
X488460Y181105D01*
X488540Y181135D01*
X488624Y181214D01*
X488721Y181279D01*
X488768Y181349D01*
X488830Y181407D01*
X488877Y181513D01*
X488942Y181610D01*
X488959Y181693D01*
X488993Y181770D01*
X488997Y181886D01*
X489020Y182000D01*
Y183851D01*
X490380D01*
X490424Y183631D01*
X490689Y183235D01*
X495735Y178189D01*
X496131Y177924D01*
X496598Y177831D01*
X512768D01*
Y173130D01*
X523232D01*
Y177831D01*
X548632D01*
X549043Y177331D01*
X548977Y177000D01*
X549131Y176226D01*
X549569Y175569D01*
X550226Y175131D01*
X551000Y174977D01*
X551774Y175131D01*
X552431Y175569D01*
X552869Y176226D01*
X553023Y177000D01*
X552977Y177233D01*
X553330Y177587D01*
X553425Y177568D01*
X554199Y177722D01*
X554855Y178161D01*
X555294Y178817D01*
X555448Y179591D01*
X555294Y180365D01*
X554855Y181022D01*
X554199Y181460D01*
X553425Y181614D01*
X552651Y181460D01*
X551994Y181022D01*
X551414Y180968D01*
X551252Y181076D01*
X550785Y181169D01*
X523232D01*
Y185870D01*
X512768D01*
Y181169D01*
X497475D01*
X495256Y183388D01*
X495372Y183670D01*
X495498Y183854D01*
X495949Y183944D01*
X496346Y184209D01*
X496611Y184606D01*
X496705Y185075D01*
Y190382D01*
X496611Y190850D01*
X496346Y191248D01*
X495949Y191513D01*
X495480Y191606D01*
X493520D01*
X493051Y191513D01*
X492654Y191248D01*
X492389Y190850D01*
X492295Y190382D01*
Y189518D01*
X492000Y189348D01*
X491705Y189518D01*
Y190382D01*
X491611Y190850D01*
X491346Y191248D01*
X490949Y191513D01*
X490480Y191606D01*
X489020D01*
Y194000D01*
X489007Y194061D01*
X489012Y194124D01*
X488969Y194255D01*
X488942Y194390D01*
X488907Y194442D01*
X488888Y194502D01*
X488798Y194606D01*
X488721Y194721D01*
X488669Y194756D01*
X488628Y194803D01*
X487349Y195803D01*
X487226Y195865D01*
X487111Y195942D01*
X487050Y195954D01*
X486994Y195982D01*
X486856Y195993D01*
X486721Y196020D01*
X478669D01*
Y199494D01*
X479954Y200779D01*
X503494D01*
X509399Y194874D01*
X509795Y194609D01*
X510262Y194516D01*
X512532D01*
X512768Y194323D01*
Y190130D01*
X523232D01*
Y194831D01*
X550926D01*
X551007Y194847D01*
X551131Y194226D01*
X551569Y193569D01*
X552226Y193131D01*
X553000Y192977D01*
X553774Y193131D01*
X554431Y193569D01*
X554869Y194226D01*
X555023Y195000D01*
X554977Y195233D01*
X555330Y195587D01*
X555425Y195568D01*
X556199Y195722D01*
X556855Y196160D01*
X557294Y196817D01*
X557448Y197591D01*
X557294Y198365D01*
X556855Y199022D01*
X556199Y199460D01*
X555425Y199614D01*
X554651Y199460D01*
X553994Y199022D01*
X553855Y198812D01*
X553484D01*
X553056Y198898D01*
X551284D01*
X550816Y198805D01*
X550420Y198540D01*
X550049Y198169D01*
X523232D01*
Y202870D01*
X512768D01*
Y198169D01*
X512475D01*
X512008Y198076D01*
X511677Y197855D01*
X511139D01*
X505235Y203759D01*
X504838Y204024D01*
X504371Y204117D01*
X479077D01*
X478610Y204024D01*
X478213Y203759D01*
X475689Y201235D01*
X475424Y200838D01*
X475331Y200371D01*
Y196020D01*
X472023D01*
X471925Y196000D01*
X471824D01*
X471741Y195966D01*
X471431Y196431D01*
X470774Y196869D01*
X470000Y197023D01*
X469226Y196869D01*
X468834Y196608D01*
X468020Y197422D01*
Y204236D01*
X468008Y204293D01*
X468013Y204352D01*
X467970Y204487D01*
X467942Y204626D01*
X467909Y204675D01*
X467892Y204730D01*
X467800Y204839D01*
X467721Y204957D01*
X467672Y204989D01*
X467634Y205034D01*
X467508Y205099D01*
X467390Y205178D01*
X467149Y205624D01*
X467224Y206000D01*
X467055Y206851D01*
X466573Y207573D01*
X465851Y208055D01*
X465000Y208224D01*
X464149Y208055D01*
X463427Y207573D01*
X463250Y207307D01*
X462750D01*
X462572Y207573D01*
X461851Y208055D01*
X461000Y208224D01*
X460149Y208055D01*
X459427Y207573D01*
X458945Y206851D01*
X458776Y206000D01*
X458851Y205624D01*
X458610Y205178D01*
X458492Y205099D01*
X458365Y205034D01*
X458328Y204989D01*
X458279Y204957D01*
X458200Y204839D01*
X458108Y204730D01*
X458090Y204675D01*
X458058Y204626D01*
X458030Y204487D01*
X457987Y204352D01*
X457992Y204293D01*
X457980Y204236D01*
Y203114D01*
X457622Y202772D01*
X457520Y202772D01*
X457020Y202866D01*
Y203000D01*
X456942Y203390D01*
X456721Y203721D01*
X455721Y204721D01*
X455390Y204942D01*
X455000Y205020D01*
X447000D01*
X446610Y204942D01*
X446279Y204721D01*
X445279Y203721D01*
X445058Y203390D01*
X444980Y203000D01*
Y197000D01*
X445058Y196610D01*
X445279Y196279D01*
X446279Y195279D01*
X446610Y195058D01*
X447000Y194980D01*
X455000D01*
X455390Y195058D01*
X455721Y195279D01*
X456721Y196279D01*
X456942Y196610D01*
X457020Y197000D01*
Y197134D01*
X457520Y197228D01*
X457622Y197228D01*
X457980Y196887D01*
Y182836D01*
X457518Y182644D01*
X408529Y231633D01*
Y324717D01*
X408869Y325226D01*
X409023Y326000D01*
X408869Y326774D01*
X408431Y327431D01*
X407774Y327869D01*
X407000Y328023D01*
D02*
G37*
G36*
X480587Y233799D02*
X478626D01*
X478158Y233706D01*
X477760Y233440D01*
X477495Y233043D01*
X477402Y232575D01*
Y227268D01*
X477495Y226799D01*
X477760Y226402D01*
X478158Y226136D01*
X478626Y226043D01*
X478679D01*
Y221741D01*
X478428Y221572D01*
X477945Y220851D01*
X477776Y220000D01*
X477945Y219149D01*
X478428Y218427D01*
X479149Y217945D01*
X480000Y217776D01*
X480851Y217945D01*
X481572Y218427D01*
X482055Y219149D01*
X482224Y220000D01*
X482055Y220851D01*
X481572Y221572D01*
X481321Y221741D01*
Y226314D01*
X481452Y226402D01*
X481718Y226799D01*
X481811Y227268D01*
Y232575D01*
X481718Y233043D01*
X481452Y233440D01*
X481055Y233706D01*
X480587Y233799D01*
D02*
G37*
G36*
X500000Y198023D02*
X499226Y197869D01*
X498569Y197431D01*
X498131Y196774D01*
X497977Y196000D01*
X498131Y195226D01*
X498219Y195093D01*
Y191546D01*
X498051Y191513D01*
X497654Y191248D01*
X497389Y190850D01*
X497295Y190382D01*
Y185075D01*
X497389Y184606D01*
X497654Y184209D01*
X498051Y183944D01*
X498520Y183851D01*
X500480D01*
X500949Y183944D01*
X501346Y184209D01*
X501611Y184606D01*
X501705Y185075D01*
Y190382D01*
X501611Y190850D01*
X501346Y191248D01*
X500949Y191513D01*
X500780Y191546D01*
Y194135D01*
X501431Y194569D01*
X501869Y195226D01*
X502023Y196000D01*
X501869Y196774D01*
X501431Y197431D01*
X500774Y197869D01*
X500000Y198023D01*
D02*
G37*
G36*
X400000Y325023D02*
X399226Y324869D01*
X398569Y324431D01*
X398131Y323774D01*
X397977Y323000D01*
X398131Y322226D01*
X398471Y321717D01*
Y229000D01*
X398587Y228415D01*
X398919Y227919D01*
X461647Y165190D01*
X462143Y164859D01*
X462295Y164828D01*
Y163618D01*
X462389Y163150D01*
X462654Y162752D01*
X463051Y162487D01*
X463520Y162394D01*
X465480D01*
X465949Y162487D01*
X466346Y162752D01*
X466611Y163150D01*
X466705Y163618D01*
Y168925D01*
X466611Y169394D01*
X466346Y169791D01*
X465949Y170056D01*
X465480Y170150D01*
X463520D01*
X463051Y170056D01*
X462654Y169791D01*
X462424Y169446D01*
X462294Y169377D01*
X461861Y169302D01*
X401529Y229633D01*
Y321717D01*
X401869Y322226D01*
X402023Y323000D01*
X401869Y323774D01*
X401431Y324431D01*
X400774Y324869D01*
X400000Y325023D01*
D02*
G37*
G36*
X480480Y170150D02*
X478520D01*
X478051Y170056D01*
X477654Y169791D01*
X477389Y169394D01*
X477295Y168925D01*
Y163618D01*
X477389Y163150D01*
X477494Y162991D01*
Y161123D01*
X477149Y161055D01*
X476428Y160573D01*
X475945Y159851D01*
X475776Y159000D01*
X475945Y158149D01*
X476428Y157428D01*
X477149Y156946D01*
X478000Y156776D01*
X478851Y156946D01*
X479572Y157428D01*
X480055Y158149D01*
X480224Y159000D01*
X480055Y159851D01*
X480049Y159859D01*
X480136Y160294D01*
Y162394D01*
X480480D01*
X480949Y162487D01*
X481346Y162752D01*
X481611Y163150D01*
X481705Y163618D01*
Y168925D01*
X481611Y169394D01*
X481346Y169791D01*
X480949Y170056D01*
X480480Y170150D01*
D02*
G37*
G36*
X373725Y108575D02*
X368575D01*
Y103425D01*
X373725D01*
Y103977D01*
X382000D01*
X382000Y103977D01*
X382774Y104131D01*
X383431Y104569D01*
X383869Y105226D01*
X384023Y106000D01*
X383869Y106774D01*
X383431Y107431D01*
X383431Y107431D01*
X383431Y107431D01*
X382774Y107869D01*
X382000Y108023D01*
X373725D01*
Y108575D01*
D02*
G37*
G36*
X482543Y76023D02*
X481769Y75869D01*
X481112Y75431D01*
X481021Y75295D01*
X480521D01*
X480431Y75431D01*
X479774Y75869D01*
X479000Y76023D01*
X478226Y75869D01*
X477569Y75431D01*
X477131Y74774D01*
X476977Y74000D01*
X477131Y73226D01*
X477569Y72569D01*
X478226Y72131D01*
X478831Y72010D01*
Y68986D01*
X478924Y68519D01*
X479189Y68123D01*
X479847Y67465D01*
Y56636D01*
X479940Y56169D01*
X480204Y55773D01*
X481612Y54365D01*
X481329Y53941D01*
X481083Y54043D01*
X480000Y54185D01*
X478917Y54043D01*
X477907Y53625D01*
X477040Y52960D01*
X476375Y52093D01*
X475957Y51083D01*
X475815Y50000D01*
X475957Y48917D01*
X476375Y47907D01*
X477040Y47041D01*
X477907Y46375D01*
X478779Y46014D01*
Y44680D01*
X478872Y44212D01*
X479013Y44000D01*
X478872Y43788D01*
X478779Y43320D01*
Y41986D01*
X477907Y41625D01*
X477040Y40960D01*
X476375Y40093D01*
X475957Y39083D01*
X475815Y38000D01*
X475957Y36917D01*
X476375Y35907D01*
X477040Y35041D01*
X477907Y34375D01*
X478917Y33957D01*
X480000Y33815D01*
X481083Y33957D01*
X482093Y34375D01*
X482960Y35041D01*
X483625Y35907D01*
X484043Y36917D01*
X484185Y38000D01*
X484043Y39083D01*
X483625Y40093D01*
X482960Y40960D01*
X482093Y41625D01*
X481395Y41914D01*
X481397Y42290D01*
X481426Y42442D01*
X481794Y42689D01*
X485510Y46405D01*
X485775Y46801D01*
X485868Y47268D01*
Y47826D01*
X486368Y47925D01*
X486375Y47907D01*
X487041Y47041D01*
X487907Y46375D01*
X488917Y45957D01*
X490000Y45815D01*
X491083Y45957D01*
X492093Y46375D01*
X492959Y47041D01*
X493625Y47907D01*
X494043Y48917D01*
X494185Y50000D01*
X494043Y51083D01*
X493625Y52093D01*
X492959Y52960D01*
X492093Y53625D01*
X491083Y54043D01*
X490000Y54185D01*
X488917Y54043D01*
X487907Y53625D01*
X487041Y52960D01*
X486375Y52093D01*
X486368Y52075D01*
X485868Y52174D01*
Y54324D01*
X485775Y54792D01*
X485510Y55188D01*
X483185Y57513D01*
Y68342D01*
X483092Y68809D01*
X482827Y69205D01*
X482169Y69863D01*
Y71670D01*
X482543Y71977D01*
X483317Y72131D01*
X483974Y72569D01*
X484412Y73226D01*
X484566Y74000D01*
X484412Y74774D01*
X483974Y75431D01*
X483317Y75869D01*
X482543Y76023D01*
D02*
G37*
G36*
X336225Y76728D02*
X334051D01*
Y74358D01*
X336225D01*
Y76728D01*
D02*
G37*
G36*
X373724Y76575D02*
X368575D01*
Y71425D01*
X373724D01*
Y71977D01*
X381235D01*
X381551Y71914D01*
X382325Y72068D01*
X382982Y72506D01*
X383420Y73163D01*
X383574Y73937D01*
X383420Y74711D01*
X382982Y75368D01*
X382944Y75393D01*
X382919Y75431D01*
X382262Y75869D01*
X381488Y76023D01*
X373724D01*
Y76575D01*
D02*
G37*
G36*
X344516Y76728D02*
X337225D01*
Y73858D01*
Y70988D01*
X344516D01*
Y71906D01*
X362276D01*
Y71425D01*
X367425D01*
Y76575D01*
X362276D01*
Y75952D01*
X344516D01*
Y76728D01*
D02*
G37*
G36*
X336225Y73358D02*
X334051D01*
Y70988D01*
X336225D01*
Y73358D01*
D02*
G37*
G36*
X304626Y73087D02*
X299500D01*
Y71000D01*
X304000D01*
X305000Y70000D01*
Y62000D01*
X304000Y61000D01*
X299500D01*
Y59988D01*
X304626D01*
Y60216D01*
X304721Y60279D01*
X305721Y61279D01*
X305942Y61610D01*
X306020Y62000D01*
Y70000D01*
X305942Y70390D01*
X305721Y70721D01*
X304721Y71721D01*
X304626Y71784D01*
Y73087D01*
D02*
G37*
G36*
Y58988D02*
X299500D01*
Y45890D01*
X304626D01*
Y58988D01*
D02*
G37*
G36*
X434150Y54150D02*
X425850D01*
Y45850D01*
X434150D01*
Y54150D01*
D02*
G37*
G36*
X510000Y54185D02*
X508917Y54043D01*
X507907Y53625D01*
X507041Y52960D01*
X506375Y52093D01*
X505957Y51083D01*
X505815Y50000D01*
X505957Y48917D01*
X506375Y47907D01*
X507041Y47041D01*
X507907Y46375D01*
X508917Y45957D01*
X510000Y45815D01*
X511083Y45957D01*
X512093Y46375D01*
X512959Y47041D01*
X513625Y47907D01*
X514043Y48917D01*
X514185Y50000D01*
X514043Y51083D01*
X513625Y52093D01*
X512959Y52960D01*
X512093Y53625D01*
X511083Y54043D01*
X510000Y54185D01*
D02*
G37*
G36*
X500000D02*
X498917Y54043D01*
X497907Y53625D01*
X497041Y52960D01*
X496375Y52093D01*
X495957Y51083D01*
X495815Y50000D01*
X495957Y48917D01*
X496375Y47907D01*
X497041Y47041D01*
X497907Y46375D01*
X498917Y45957D01*
X500000Y45815D01*
X501083Y45957D01*
X502093Y46375D01*
X502959Y47041D01*
X503625Y47907D01*
X504043Y48917D01*
X504185Y50000D01*
X504043Y51083D01*
X503625Y52093D01*
X502959Y52960D01*
X502093Y53625D01*
X501083Y54043D01*
X500000Y54185D01*
D02*
G37*
G36*
X470000D02*
X468917Y54043D01*
X467907Y53625D01*
X467040Y52960D01*
X466375Y52093D01*
X465957Y51083D01*
X465815Y50000D01*
X465957Y48917D01*
X466375Y47907D01*
X467040Y47041D01*
X467907Y46375D01*
X468917Y45957D01*
X470000Y45815D01*
X471083Y45957D01*
X472093Y46375D01*
X472960Y47041D01*
X473625Y47907D01*
X474043Y48917D01*
X474185Y50000D01*
X474043Y51083D01*
X473625Y52093D01*
X472960Y52960D01*
X472093Y53625D01*
X471083Y54043D01*
X470000Y54185D01*
D02*
G37*
G36*
X460000D02*
X458917Y54043D01*
X457907Y53625D01*
X457041Y52960D01*
X456375Y52093D01*
X455957Y51083D01*
X455815Y50000D01*
X455957Y48917D01*
X456375Y47907D01*
X457041Y47041D01*
X457907Y46375D01*
X458917Y45957D01*
X460000Y45815D01*
X461083Y45957D01*
X462093Y46375D01*
X462959Y47041D01*
X463625Y47907D01*
X464043Y48917D01*
X464185Y50000D01*
X464043Y51083D01*
X463625Y52093D01*
X462959Y52960D01*
X462093Y53625D01*
X461083Y54043D01*
X460000Y54185D01*
D02*
G37*
G36*
X450000D02*
X448917Y54043D01*
X447907Y53625D01*
X447041Y52960D01*
X446375Y52093D01*
X445957Y51083D01*
X445815Y50000D01*
X445957Y48917D01*
X446375Y47907D01*
X447041Y47041D01*
X447907Y46375D01*
X448917Y45957D01*
X450000Y45815D01*
X451083Y45957D01*
X452093Y46375D01*
X452959Y47041D01*
X453625Y47907D01*
X454043Y48917D01*
X454185Y50000D01*
X454043Y51083D01*
X453625Y52093D01*
X452959Y52960D01*
X452093Y53625D01*
X451083Y54043D01*
X450000Y54185D01*
D02*
G37*
G36*
X440000D02*
X438917Y54043D01*
X437907Y53625D01*
X437041Y52960D01*
X436375Y52093D01*
X435957Y51083D01*
X435815Y50000D01*
X435957Y48917D01*
X436375Y47907D01*
X437041Y47041D01*
X437907Y46375D01*
X438917Y45957D01*
X440000Y45815D01*
X441083Y45957D01*
X442093Y46375D01*
X442959Y47041D01*
X443625Y47907D01*
X444043Y48917D01*
X444185Y50000D01*
X444043Y51083D01*
X443625Y52093D01*
X442959Y52960D01*
X442093Y53625D01*
X441083Y54043D01*
X440000Y54185D01*
D02*
G37*
G36*
X620236Y60166D02*
X618786Y60023D01*
X617392Y59600D01*
X616106Y58913D01*
X614980Y57988D01*
X614055Y56862D01*
X613369Y55577D01*
X612946Y54182D01*
X612803Y52732D01*
X612946Y51282D01*
X613369Y49887D01*
X614055Y48602D01*
X614980Y47476D01*
X616106Y46551D01*
X617392Y45865D01*
X618786Y45442D01*
X620236Y45299D01*
X621686Y45442D01*
X623081Y45865D01*
X624366Y46551D01*
X625492Y47476D01*
X626417Y48602D01*
X627104Y49887D01*
X627527Y51282D01*
X627670Y52732D01*
X627527Y54182D01*
X627104Y55577D01*
X626417Y56862D01*
X625492Y57988D01*
X624366Y58913D01*
X623081Y59600D01*
X621686Y60023D01*
X620236Y60166D01*
D02*
G37*
G36*
X434150Y42150D02*
X425850D01*
Y33850D01*
X434150D01*
Y42150D01*
D02*
G37*
G36*
X510000Y42185D02*
X508917Y42043D01*
X507907Y41625D01*
X507041Y40960D01*
X506375Y40093D01*
X505957Y39083D01*
X505815Y38000D01*
X505957Y36917D01*
X506375Y35907D01*
X507041Y35041D01*
X507907Y34375D01*
X508917Y33957D01*
X510000Y33815D01*
X511083Y33957D01*
X512093Y34375D01*
X512959Y35041D01*
X513625Y35907D01*
X514043Y36917D01*
X514185Y38000D01*
X514043Y39083D01*
X513625Y40093D01*
X512959Y40960D01*
X512093Y41625D01*
X511083Y42043D01*
X510000Y42185D01*
D02*
G37*
G36*
X500000D02*
X498917Y42043D01*
X497907Y41625D01*
X497041Y40960D01*
X496375Y40093D01*
X495957Y39083D01*
X495815Y38000D01*
X495957Y36917D01*
X496375Y35907D01*
X497041Y35041D01*
X497907Y34375D01*
X498917Y33957D01*
X500000Y33815D01*
X501083Y33957D01*
X502093Y34375D01*
X502959Y35041D01*
X503625Y35907D01*
X504043Y36917D01*
X504185Y38000D01*
X504043Y39083D01*
X503625Y40093D01*
X502959Y40960D01*
X502093Y41625D01*
X501083Y42043D01*
X500000Y42185D01*
D02*
G37*
G36*
X490000D02*
X488917Y42043D01*
X487907Y41625D01*
X487041Y40960D01*
X486375Y40093D01*
X485957Y39083D01*
X485815Y38000D01*
X485957Y36917D01*
X486375Y35907D01*
X487041Y35041D01*
X487907Y34375D01*
X488917Y33957D01*
X490000Y33815D01*
X491083Y33957D01*
X492093Y34375D01*
X492959Y35041D01*
X493625Y35907D01*
X494043Y36917D01*
X494185Y38000D01*
X494043Y39083D01*
X493625Y40093D01*
X492959Y40960D01*
X492093Y41625D01*
X491083Y42043D01*
X490000Y42185D01*
D02*
G37*
G36*
X470000D02*
X468917Y42043D01*
X467907Y41625D01*
X467040Y40960D01*
X466375Y40093D01*
X465957Y39083D01*
X465815Y38000D01*
X465957Y36917D01*
X466375Y35907D01*
X467040Y35041D01*
X467907Y34375D01*
X468917Y33957D01*
X470000Y33815D01*
X471083Y33957D01*
X472093Y34375D01*
X472960Y35041D01*
X473625Y35907D01*
X474043Y36917D01*
X474185Y38000D01*
X474043Y39083D01*
X473625Y40093D01*
X472960Y40960D01*
X472093Y41625D01*
X471083Y42043D01*
X470000Y42185D01*
D02*
G37*
G36*
X460000D02*
X458917Y42043D01*
X457907Y41625D01*
X457041Y40960D01*
X456375Y40093D01*
X455957Y39083D01*
X455815Y38000D01*
X455957Y36917D01*
X456375Y35907D01*
X457041Y35041D01*
X457907Y34375D01*
X458917Y33957D01*
X460000Y33815D01*
X461083Y33957D01*
X462093Y34375D01*
X462959Y35041D01*
X463625Y35907D01*
X464043Y36917D01*
X464185Y38000D01*
X464043Y39083D01*
X463625Y40093D01*
X462959Y40960D01*
X462093Y41625D01*
X461083Y42043D01*
X460000Y42185D01*
D02*
G37*
G36*
X450000D02*
X448917Y42043D01*
X447907Y41625D01*
X447041Y40960D01*
X446375Y40093D01*
X445957Y39083D01*
X445815Y38000D01*
X445957Y36917D01*
X446375Y35907D01*
X447041Y35041D01*
X447907Y34375D01*
X448917Y33957D01*
X450000Y33815D01*
X451083Y33957D01*
X452093Y34375D01*
X452959Y35041D01*
X453625Y35907D01*
X454043Y36917D01*
X454185Y38000D01*
X454043Y39083D01*
X453625Y40093D01*
X452959Y40960D01*
X452093Y41625D01*
X451083Y42043D01*
X450000Y42185D01*
D02*
G37*
G36*
X440000D02*
X438917Y42043D01*
X437907Y41625D01*
X437041Y40960D01*
X436375Y40093D01*
X435957Y39083D01*
X435815Y38000D01*
X435957Y36917D01*
X436375Y35907D01*
X437041Y35041D01*
X437907Y34375D01*
X438917Y33957D01*
X440000Y33815D01*
X441083Y33957D01*
X442093Y34375D01*
X442959Y35041D01*
X443625Y35907D01*
X444043Y36917D01*
X444185Y38000D01*
X444043Y39083D01*
X443625Y40093D01*
X442959Y40960D01*
X442093Y41625D01*
X441083Y42043D01*
X440000Y42185D01*
D02*
G37*
G36*
X627795Y30593D02*
X626089Y30458D01*
X624425Y30059D01*
X622843Y29404D01*
X621384Y28510D01*
X620082Y27398D01*
X618971Y26096D01*
X618076Y24637D01*
X617421Y23056D01*
X617022Y21391D01*
X616888Y19685D01*
X617022Y17979D01*
X617421Y16314D01*
X618076Y14733D01*
X618971Y13274D01*
X620082Y11972D01*
X621384Y10860D01*
X622843Y9966D01*
X624425Y9311D01*
X626089Y8912D01*
X627795Y8777D01*
X629501Y8912D01*
X631166Y9311D01*
X632747Y9966D01*
X634206Y10860D01*
X635508Y11972D01*
X636620Y13274D01*
X637514Y14733D01*
X638169Y16314D01*
X638568Y17979D01*
X638703Y19685D01*
X638568Y21391D01*
X638169Y23056D01*
X637514Y24637D01*
X636620Y26096D01*
X635508Y27398D01*
X634206Y28510D01*
X632747Y29404D01*
X631166Y30059D01*
X629501Y30458D01*
X627795Y30593D01*
D02*
G37*
%LPD*%
G36*
X465500Y203876D02*
X465851Y203945D01*
X466500Y204379D01*
X467000Y204236D01*
Y197000D01*
X468169Y195831D01*
X468131Y195774D01*
X467977Y195000D01*
X468131Y194226D01*
X468220Y194093D01*
Y191546D01*
X468051Y191513D01*
X467654Y191248D01*
X467389Y190850D01*
X467295Y190382D01*
Y185075D01*
X467389Y184606D01*
X467654Y184209D01*
X468051Y183944D01*
X468520Y183851D01*
X470480D01*
X470949Y183944D01*
X471346Y184209D01*
X471611Y184606D01*
X471705Y185075D01*
Y190382D01*
X471611Y190850D01*
X471346Y191248D01*
X470949Y191513D01*
X470781Y191546D01*
Y193135D01*
X471431Y193569D01*
X471869Y194226D01*
X472023Y195000D01*
X475331D01*
Y191606D01*
X473520D01*
X473051Y191513D01*
X472654Y191248D01*
X472389Y190850D01*
X472295Y190382D01*
Y185075D01*
X472389Y184606D01*
X472654Y184209D01*
X473051Y183944D01*
X473520Y183851D01*
X475480D01*
X475949Y183944D01*
X476346Y184209D01*
X476611Y184606D01*
X476705Y185075D01*
Y185938D01*
X477000Y186109D01*
X477295Y185939D01*
Y185075D01*
X477389Y184606D01*
X477654Y184209D01*
X478051Y183944D01*
X478520Y183851D01*
X480480D01*
X480949Y183944D01*
X481346Y184209D01*
X481611Y184606D01*
X481705Y185075D01*
Y190382D01*
X481611Y190850D01*
X481346Y191248D01*
X480949Y191513D01*
X480480Y191606D01*
X478669D01*
Y195000D01*
X486721D01*
X488000Y194000D01*
Y191479D01*
X487654Y191248D01*
X487389Y190850D01*
X487295Y190382D01*
Y185075D01*
X487389Y184606D01*
X487654Y184209D01*
X488000Y183978D01*
Y182000D01*
X482000Y181000D01*
X465000D01*
X459000Y182000D01*
Y197228D01*
X460256D01*
Y200000D01*
Y202772D01*
X459000D01*
Y204236D01*
X459500Y204379D01*
X460149Y203945D01*
X460500Y203876D01*
Y206000D01*
X461500D01*
Y203876D01*
X461851Y203945D01*
X462572Y204428D01*
X462750Y204693D01*
X463250D01*
X463427Y204428D01*
X464149Y203945D01*
X464500Y203876D01*
Y206000D01*
X465500D01*
Y203876D01*
D02*
G37*
G36*
X456000Y203000D02*
Y197000D01*
X455000Y196000D01*
X447000D01*
X446000Y197000D01*
Y203000D01*
X447000Y204000D01*
X455000D01*
X456000Y203000D01*
D02*
G37*
%LPC*%
G36*
X463134Y202772D02*
X461256D01*
Y200500D01*
X463134D01*
Y202772D01*
D02*
G37*
G36*
Y199500D02*
X461256D01*
Y197228D01*
X463134D01*
Y199500D01*
D02*
G37*
G36*
X465480Y191606D02*
X465000D01*
Y188228D01*
X466705D01*
Y190382D01*
X466611Y190850D01*
X466346Y191248D01*
X465949Y191513D01*
X465480Y191606D01*
D02*
G37*
G36*
X485480D02*
X485000D01*
Y188228D01*
X486705D01*
Y190382D01*
X486611Y190850D01*
X486346Y191248D01*
X485949Y191513D01*
X485480Y191606D01*
D02*
G37*
G36*
X464000D02*
X463520D01*
X463051Y191513D01*
X462654Y191248D01*
X462389Y190850D01*
X462295Y190382D01*
Y188228D01*
X464000D01*
Y191606D01*
D02*
G37*
G36*
X484000D02*
X483520D01*
X483051Y191513D01*
X482654Y191248D01*
X482389Y190850D01*
X482295Y190382D01*
Y188228D01*
X484000D01*
Y191606D01*
D02*
G37*
G36*
X486705Y187228D02*
X485000D01*
Y183851D01*
X485480D01*
X485949Y183944D01*
X486346Y184209D01*
X486611Y184606D01*
X486705Y185075D01*
Y187228D01*
D02*
G37*
G36*
X484000D02*
X482295D01*
Y185075D01*
X482389Y184606D01*
X482654Y184209D01*
X483051Y183944D01*
X483520Y183851D01*
X484000D01*
Y187228D01*
D02*
G37*
G36*
X466705D02*
X465000D01*
Y183851D01*
X465480D01*
X465949Y183944D01*
X466346Y184209D01*
X466611Y184606D01*
X466705Y185075D01*
Y187228D01*
D02*
G37*
G36*
X464000D02*
X462295D01*
Y185075D01*
X462389Y184606D01*
X462654Y184209D01*
X463051Y183944D01*
X463520Y183851D01*
X464000D01*
Y187228D01*
D02*
G37*
%LPD*%
D13*
X104657Y17323D02*
X145276D01*
X102000Y19980D02*
X104657Y17323D01*
X102000Y19980D02*
Y21000D01*
X250306Y19040D02*
X297528D01*
X299000Y20512D01*
X248000Y21346D02*
X250306Y19040D01*
X151529Y23274D02*
X151575Y23228D01*
X151529Y23274D02*
X163500Y35244D01*
X145427Y17171D02*
X151529Y23274D01*
X247654Y21000D02*
X248000Y21346D01*
X238000Y21000D02*
X247654D01*
X230000D02*
X238000D01*
X229000D02*
X230000D01*
X163500Y35244D02*
X175000D01*
X152000D02*
X163500D01*
X175000Y35244D02*
X185386D01*
X190142Y40000D01*
X175000Y35244D02*
X175000Y35244D01*
X248000Y21346D02*
Y34244D01*
X248000Y34244D01*
X223000Y27000D02*
X229000Y21000D01*
X223000Y27000D02*
Y34244D01*
D14*
X452000Y265173D02*
Y270000D01*
X95591Y387165D02*
X100539Y382217D01*
Y362461D02*
Y382217D01*
X288000Y375000D02*
X290953Y372047D01*
X288000Y375000D02*
Y382236D01*
X293000Y202559D02*
X293000Y202559D01*
X478000Y159000D02*
Y159479D01*
X478815Y160294D01*
Y165587D01*
X479500Y166272D01*
X500492Y232000D02*
X508000D01*
X499606Y231114D02*
X500492Y232000D01*
X499606Y229921D02*
Y231114D01*
X462756Y260000D02*
X463839Y258917D01*
Y257374D02*
Y258917D01*
X464606Y251378D02*
Y256606D01*
X463839Y257374D02*
X464606Y256606D01*
X484606Y251378D02*
X485000Y251772D01*
Y258000D01*
X480000Y220000D02*
Y229528D01*
X499606Y251378D02*
Y259181D01*
X499394Y260394D02*
X499606Y259181D01*
X479606Y229921D02*
X480000Y229528D01*
X452000Y260346D02*
Y265173D01*
X462756Y264878D02*
Y269756D01*
Y260000D02*
Y264878D01*
X452000Y270000D02*
X452000Y270000D01*
Y260346D02*
X452346Y260000D01*
X457244D01*
X174000Y236756D02*
X174244Y237000D01*
X217756Y110000D02*
X218000Y110244D01*
X199858Y110000D02*
X217756D01*
X381488Y74000D02*
X381551Y73937D01*
X382000Y106000D02*
X382000Y106000D01*
X364457Y74394D02*
X364850Y74000D01*
X102000Y205000D02*
X102000Y205000D01*
X102000Y262512D02*
Y270000D01*
X112000Y293000D02*
Y300000D01*
X293000Y187559D02*
X293000Y187559D01*
X293000Y223000D02*
X293000Y223000D01*
X318000Y217756D02*
X318000Y217756D01*
X293000Y217559D02*
Y223000D01*
X283071Y387165D02*
X288000Y382236D01*
D15*
X616000Y150000D02*
Y156025D01*
X613025Y159000D02*
X616000Y156025D01*
X577000Y159000D02*
X613025D01*
X487559Y328000D02*
X488000Y327559D01*
X159000Y231244D02*
X174000D01*
X502146Y297291D02*
X502854Y298000D01*
X482146D02*
X502854D01*
X482146Y292421D02*
Y298000D01*
X502854D02*
X507000D01*
X514512Y290488D02*
X515213D01*
X507000Y298000D02*
X514512Y290488D01*
X490000Y360000D02*
X490787Y360787D01*
X457000Y360000D02*
X490000D01*
X440000Y377000D02*
X457000Y360000D01*
X450787Y357213D02*
X483787D01*
X485787Y355213D01*
Y345669D02*
Y355213D01*
X425000Y383000D02*
X450787Y357213D01*
X473575Y353000D02*
X475787Y350787D01*
Y345669D02*
Y350787D01*
X449000Y353000D02*
X473575D01*
X413000Y389000D02*
X449000Y353000D01*
X100539Y362461D02*
X102000Y361000D01*
X179000Y223000D02*
X183000Y227000D01*
X352000Y238000D02*
Y337441D01*
X341000Y227000D02*
X352000Y238000D01*
X278000Y227000D02*
X341000D01*
X210570Y232215D02*
X333215D01*
X346000Y245000D02*
Y323000D01*
X333215Y232215D02*
X346000Y245000D01*
X329000Y242000D02*
X339000Y252000D01*
Y320638D01*
X337000Y332000D02*
X346000Y323000D01*
X293000Y242000D02*
X329000D01*
X322197Y337441D02*
X339000Y320638D01*
X319000Y247000D02*
X332000Y260000D01*
X277677Y247000D02*
X319000D01*
X307197Y337441D02*
X332000Y312638D01*
Y260000D02*
Y312638D01*
X290953Y372047D02*
X350953D01*
X289000Y370000D02*
X336000D01*
X283071Y375929D02*
X289000Y370000D01*
X283071Y375929D02*
Y377165D01*
X336000Y370000D02*
X337000Y369000D01*
X311362Y368000D02*
X321803Y357559D01*
X183496Y368000D02*
X311362D01*
X176000Y365000D02*
X299362D01*
X306803Y357559D01*
X307000D01*
X174331Y377165D02*
X183496Y368000D01*
X168268Y372732D02*
X176000Y365000D01*
X236536Y360000D02*
X291000D01*
X233000Y356464D02*
X236536Y360000D01*
X233000Y352559D02*
Y356464D01*
X258000Y352559D02*
X260559D01*
X262488Y354488D01*
X290512D01*
X291000Y354000D01*
X102000Y361000D02*
X169000D01*
X173000Y357000D01*
X46000Y343000D02*
X47441D01*
X44000Y341000D02*
X46000Y343000D01*
X32529Y341000D02*
X44000D01*
X31730Y341799D02*
X32529Y341000D01*
X23940Y341799D02*
X31730D01*
X23141Y341000D02*
X23940Y341799D01*
X21984Y341000D02*
X23141D01*
X17835Y336850D02*
X21984Y341000D01*
X183000Y227000D02*
X189000D01*
X182000Y232000D02*
X189000D01*
X177279Y227279D02*
X182000Y232000D01*
X130720Y227279D02*
X177279D01*
X64075Y386617D02*
Y387165D01*
X39000Y298000D02*
X48000D01*
X19000Y318000D02*
X39000Y298000D01*
X12000Y318000D02*
X19000D01*
X424000Y383000D02*
X425000D01*
X461000Y362000D02*
X480000D01*
X437000Y386000D02*
X461000Y362000D01*
X430000Y386000D02*
X437000D01*
X213000Y317559D02*
Y347441D01*
X462728Y166272D02*
X464500D01*
X400000Y229000D02*
X462728Y166272D01*
X400000Y229000D02*
Y323000D01*
X173000Y317559D02*
Y347441D01*
X413000Y236000D02*
Y329000D01*
Y236000D02*
X463000D01*
X233000Y317559D02*
Y347441D01*
X489000Y240000D02*
X494606Y234394D01*
X418000Y240000D02*
X489000D01*
X417000Y241000D02*
X418000Y240000D01*
X417000Y270000D02*
X418000Y271000D01*
X417000Y241000D02*
Y270000D01*
X193000Y317559D02*
Y347441D01*
X423000Y260000D02*
Y335000D01*
X153000Y317559D02*
Y347441D01*
X438000Y245000D02*
X469000D01*
X429000Y254000D02*
X438000Y245000D01*
X55713Y381713D02*
X59171D01*
X41000Y367000D02*
X55713Y381713D01*
X12000Y367000D02*
X41000D01*
X59171Y381713D02*
X64075Y386617D01*
X10000Y365000D02*
X12000Y367000D01*
X10000Y320000D02*
Y365000D01*
Y320000D02*
X12000Y318000D01*
X77000Y233988D02*
X79000Y231988D01*
Y232000D01*
X112000D01*
X68000Y312803D02*
X77000Y303803D01*
Y233988D02*
Y303803D01*
X81000Y247000D02*
X86000Y242000D01*
X112000D01*
X73000Y328000D02*
X81000Y320000D01*
Y247000D02*
Y320000D01*
X95000Y247000D02*
X130000D01*
X86000Y256000D02*
X95000Y247000D01*
X75000Y343000D02*
X86000Y332000D01*
Y256000D02*
Y332000D01*
X229000Y151000D02*
X244000Y136000D01*
X80000Y151000D02*
X229000D01*
X58000Y173000D02*
X80000Y151000D01*
X50000Y190000D02*
Y190157D01*
Y190000D02*
X53000Y187000D01*
Y161000D02*
Y187000D01*
X86000Y155000D02*
X234000D01*
X65500Y175500D02*
X86000Y155000D01*
X65500Y175500D02*
Y259500D01*
X58000Y173000D02*
Y233000D01*
X56354Y234646D02*
X58000Y233000D01*
X21260Y234646D02*
X56354D01*
X571976Y131000D02*
X571988Y131012D01*
X189000Y252000D02*
X200000D01*
X202000Y249700D02*
X204300Y252000D01*
X202000Y206000D02*
Y249700D01*
Y206000D02*
X256000Y152000D01*
X200000Y202000D02*
Y252000D01*
Y202000D02*
X253000Y149000D01*
X189000Y222000D02*
X197000D01*
Y199000D02*
Y222000D01*
Y199000D02*
X251000Y145000D01*
X256000Y152000D02*
X417000D01*
X436000Y133000D01*
X253000Y149000D02*
X410000D01*
X429988Y129012D01*
X251000Y145000D02*
X401000D01*
X421000Y125000D01*
X248000Y141000D02*
X396000D01*
X234000Y155000D02*
X248000Y141000D01*
X244000Y136000D02*
X391000D01*
X396000Y141000D02*
X417000Y120000D01*
X391000Y136000D02*
X413000Y114000D01*
X388000Y131000D02*
X412000Y107000D01*
X240000Y131000D02*
X388000D01*
X225000Y146000D02*
X240000Y131000D01*
X436000Y133000D02*
X557000D01*
X442000Y136000D02*
X554000D01*
X423000Y155000D02*
X442000Y136000D01*
X259000Y155000D02*
X423000D01*
X554000Y136000D02*
X577000Y159000D01*
X566000Y142000D02*
X602968D01*
X557000Y133000D02*
X566000Y142000D01*
X546012Y129012D02*
X548000Y131000D01*
X571976D01*
X429988Y129012D02*
X546012D01*
X421000Y125000D02*
X548000D01*
X417000Y120000D02*
X550000D01*
X413000Y114000D02*
X558000D01*
X568832Y129000D02*
X576832Y121000D01*
X548000Y125000D02*
X552000Y129000D01*
X568832D01*
X571988Y131012D02*
X572000Y131000D01*
X550000Y120000D02*
X556000Y126000D01*
X558000Y114000D02*
X567000Y123000D01*
X412000Y107000D02*
X588000D01*
X590000Y105000D01*
X68000Y146000D02*
X225000D01*
X53000Y161000D02*
X68000Y146000D01*
X21260Y190157D02*
X50000D01*
X307000Y342559D02*
Y352441D01*
X307000Y342559D02*
X307000Y342559D01*
X293000Y202559D02*
Y212441D01*
X591000Y51496D02*
X603236Y63732D01*
X591000Y31937D02*
Y51496D01*
X580638Y32000D02*
X590937D01*
X591000Y31937D01*
X578197Y29559D02*
X580638Y32000D01*
X578000Y29559D02*
X578197D01*
X578000Y24441D02*
X590622D01*
X591000Y24063D01*
X604063D02*
X606736Y26736D01*
X591000Y24063D02*
X604063D01*
X606736Y26736D02*
Y45732D01*
X610771Y42000D02*
X629000D01*
X607039Y45732D02*
X610771Y42000D01*
X606736Y45732D02*
X607039D01*
X629000Y42000D02*
X633000Y46000D01*
Y171000D01*
X628000Y176000D02*
X633000Y171000D01*
X615000Y176000D02*
X628000D01*
X612228Y173228D02*
X615000Y176000D01*
X608232Y173228D02*
X612228D01*
X606736Y171732D02*
X608232Y173228D01*
X258000Y317559D02*
Y347441D01*
X459000Y179000D02*
X483445D01*
X407000Y231000D02*
X459000Y179000D01*
X407000Y231000D02*
Y326000D01*
X483445Y179000D02*
X494500Y167945D01*
Y166272D02*
Y167945D01*
X429000Y254000D02*
Y338000D01*
X418000Y271000D02*
Y332000D01*
X469606Y245606D02*
Y251378D01*
X469000Y245000D02*
X469606Y245606D01*
X494606Y229921D02*
Y234394D01*
X464606Y229921D02*
Y234394D01*
X463000Y236000D02*
X464606Y234394D01*
X515213Y290488D02*
X523213D01*
X210354Y237000D02*
X220000D01*
X517882Y344882D02*
X536221D01*
X513000Y340000D02*
X517882Y344882D01*
X322000Y342559D02*
Y352441D01*
X53118Y298000D02*
X62882D01*
X52559Y313000D02*
X62882D01*
X350953Y372047D02*
X352000Y371000D01*
X168268Y372732D02*
Y381102D01*
X174331Y387165D01*
X611732Y145732D02*
X616000Y150000D01*
X610236Y145732D02*
X611732D01*
X12039Y364000D02*
X43000D01*
X56165Y377165D01*
X12000Y321802D02*
Y364000D01*
X64075Y387165D02*
X65591D01*
X56165Y377165D02*
X65591D01*
X12790Y321012D02*
X21419D01*
X12395Y321407D02*
X12790Y321012D01*
X12000Y321802D02*
X12395Y321407D01*
X480000Y328000D02*
X487559D01*
X467244D02*
X480000D01*
X458000Y389000D02*
X462000D01*
X450000D02*
X458000D01*
X449000D02*
X450000D01*
X467000Y327756D02*
X467244Y328000D01*
X462000Y389000D02*
X465000Y386000D01*
Y379756D02*
Y386000D01*
X502146Y292421D02*
Y297291D01*
X146756Y236756D02*
X174000D01*
X174244Y237000D02*
X189000D01*
X500684Y340000D02*
X513000D01*
X483000D02*
X500684D01*
X500787Y340104D01*
Y345669D01*
X480787Y342213D02*
Y345669D01*
Y342213D02*
X483000Y340000D01*
X293000Y307559D02*
Y316000D01*
X318000Y262756D02*
Y270000D01*
X124000Y223000D02*
X179000D01*
X126000Y232000D02*
X130720Y227279D01*
X147559Y208000D02*
X157441D01*
X112000Y232000D02*
X126000D01*
X75000Y227000D02*
X124000D01*
Y223000D02*
Y227000D01*
X72000Y230000D02*
X75000Y227000D01*
X72000Y230000D02*
Y297000D01*
X124000Y217000D02*
Y223000D01*
X477000Y285000D02*
Y292276D01*
X487146Y284146D02*
Y292421D01*
X483000Y280000D02*
X487146Y284146D01*
X468000Y280000D02*
X483000D01*
X446000Y302000D02*
X468000Y280000D01*
X446000Y302000D02*
Y341000D01*
X413000Y374000D02*
X446000Y341000D01*
X412000Y379832D02*
X449000Y342832D01*
X412000Y379832D02*
Y380000D01*
X449000Y303300D02*
Y342832D01*
X450445Y301854D02*
X469300Y283000D01*
X475000D01*
X477000Y285000D01*
Y292276D02*
X477146Y292421D01*
X449000Y303300D02*
X450445Y301854D01*
X490787Y360787D02*
Y367126D01*
X231000Y302000D02*
X256000D01*
X211000D02*
X231000D01*
Y302000D01*
X233000Y304000D01*
Y312441D01*
X191000Y302000D02*
X211000D01*
Y302000D01*
X213000Y304000D01*
Y312441D01*
X171000Y302000D02*
X191000D01*
Y302000D01*
X193000Y304000D01*
Y312441D01*
X256000Y302000D02*
X258000Y304000D01*
Y312441D01*
X153000Y302000D02*
X171000D01*
X173000Y304000D01*
Y312441D01*
X153000Y302000D02*
X153000Y302000D01*
Y312441D01*
X102000Y205000D02*
Y212244D01*
X112000Y160000D02*
Y167441D01*
X318000Y205000D02*
Y212244D01*
X293000Y160000D02*
Y167441D01*
Y172559D02*
Y182441D01*
X293000Y187559D02*
Y197441D01*
Y223000D02*
X316000D01*
X318000Y221000D01*
Y217756D02*
Y221000D01*
X610236Y83732D02*
X614432D01*
X616000Y85300D01*
Y101000D01*
X612000Y105000D02*
X616000Y101000D01*
X590000Y105000D02*
X612000D01*
X556000Y126000D02*
X559000D01*
X104000Y222000D02*
X112000D01*
X102000Y220000D02*
X104000Y222000D01*
X112000D02*
Y224000D01*
Y217559D02*
Y222000D01*
X47835Y277165D02*
X65500Y259500D01*
X21654Y277165D02*
X47835D01*
X610000Y123000D02*
Y129496D01*
X610236Y129732D01*
X608000Y121000D02*
X610000Y123000D01*
X576832Y121000D02*
X608000D01*
X205300Y222000D02*
X210354D01*
X205000Y221700D02*
X205300Y222000D01*
X205000Y209000D02*
Y221700D01*
Y209000D02*
X259000Y155000D01*
X602968Y142000D02*
X603236Y141732D01*
X204300Y252000D02*
X210354D01*
X411000Y389000D02*
X413000D01*
X437000Y377000D02*
X440000D01*
X480000Y362000D02*
X480787Y362787D01*
Y367126D01*
X173000Y317559D02*
X173000Y317559D01*
X153000Y317559D02*
X153000Y317559D01*
X213000Y317559D02*
X213000Y317559D01*
X258000Y317559D02*
X258000Y317559D01*
X258000Y352559D02*
X258000Y352559D01*
X233000Y352559D02*
X233000Y352559D01*
X213000Y352559D02*
Y358000D01*
X213000Y358000D02*
X213000Y358000D01*
X193000Y352559D02*
X193000Y352559D01*
Y358000D01*
X173000Y352559D02*
Y357000D01*
X173000Y352559D02*
X173000Y352559D01*
X153000D02*
Y357000D01*
X153000Y352559D02*
X153000Y352559D01*
X152000Y358000D02*
X153000Y357000D01*
X98000Y358000D02*
X152000D01*
X95591Y360409D02*
X98000Y358000D01*
X95591Y360409D02*
Y377165D01*
X278000Y252000D02*
X278000Y252000D01*
X249756Y252000D02*
X278000D01*
X217700D02*
X244244D01*
X217000Y222000D02*
X244244D01*
X244244Y222000D01*
X278000D02*
X278000Y222000D01*
X249756Y222000D02*
X278000D01*
X278000Y222000D02*
Y227000D01*
Y213000D02*
Y222000D01*
X210354Y227000D02*
X278000D01*
X277000Y212000D02*
X278000Y213000D01*
X272559Y212000D02*
X277000D01*
X272559Y212000D02*
X272559Y212000D01*
X257559Y212000D02*
X267441D01*
X242559Y212000D02*
X252441D01*
X227559D02*
X237441D01*
X210354Y222000D02*
X217000D01*
Y214000D02*
Y222000D01*
Y214000D02*
X219000Y212000D01*
X222441D01*
X321803Y357559D02*
X322000D01*
X293000Y292559D02*
Y302441D01*
X293000Y277559D02*
Y287441D01*
X293000Y263118D02*
Y272441D01*
Y254000D02*
X317000D01*
X210354Y242000D02*
X293000D01*
X278000Y252000D02*
Y262000D01*
Y247323D02*
Y252000D01*
X210354Y247000D02*
X277677D01*
X278000Y247323D01*
X277000Y263000D02*
X278000Y262000D01*
X272559Y263000D02*
X277000D01*
X307000Y337441D02*
X307197D01*
X210354Y232000D02*
X210570Y232215D01*
X322000Y337441D02*
X322197D01*
X337000Y332000D02*
Y337441D01*
Y357559D02*
Y369000D01*
Y342559D02*
Y352441D01*
X352000Y342559D02*
X352000Y342559D01*
X352000Y342559D02*
Y352441D01*
X352000Y357559D02*
Y371000D01*
X352000Y357559D02*
X352000Y357559D01*
X217700Y252000D02*
X218000Y252300D01*
X217700Y252000D02*
X217700Y252000D01*
X257559Y263000D02*
X267441D01*
X242559D02*
X252441D01*
X227559D02*
X237441D01*
X210354Y252000D02*
X217700D01*
X218000Y252300D02*
Y262000D01*
X219000Y263000D01*
X222441D01*
X130000Y247000D02*
Y252000D01*
X177000D02*
X189000D01*
X112000Y172559D02*
Y182441D01*
Y187559D02*
Y197441D01*
Y202559D02*
Y212441D01*
Y242000D02*
X189000D01*
X102000Y217756D02*
Y220000D01*
X124000Y209000D02*
Y217000D01*
X149488D01*
X124000Y209000D02*
X125000Y208000D01*
X127441D01*
X182000Y217000D02*
Y220000D01*
Y210000D02*
Y217000D01*
X155000D02*
X182000D01*
X132559Y208000D02*
X142441D01*
X162559D02*
X171882D01*
X177000D02*
X180000D01*
X182000Y210000D01*
Y220000D02*
X184000Y222000D01*
X189000D01*
X130000Y247000D02*
X189000D01*
X68118Y343000D02*
X75000D01*
X68118Y328000D02*
X73000D01*
X68000Y312803D02*
Y313000D01*
X71000Y298000D02*
X72000Y297000D01*
X68000Y298000D02*
X71000D01*
X29215Y313215D02*
X47225D01*
X47441Y313000D01*
X21419Y321012D02*
X29215Y313215D01*
X52559Y342803D02*
X63000D01*
X52559Y327803D02*
X63000D01*
X44900Y328000D02*
X47441D01*
X36049Y336850D02*
X44900Y328000D01*
X27835Y336850D02*
X36049D01*
X63000Y327803D02*
Y328000D01*
X52559Y327803D02*
Y328000D01*
X68118D02*
X69535Y326583D01*
X52559Y342803D02*
Y343000D01*
X63000Y342803D02*
Y343000D01*
X130000Y252000D02*
Y262000D01*
Y252000D02*
X152000D01*
X130000Y262000D02*
X136441D01*
X177000Y252000D02*
Y261700D01*
X157512Y252000D02*
X177000D01*
X176700Y262000D02*
X177000Y261700D01*
X172000Y262000D02*
X176700D01*
X157000D02*
X166882D01*
X141559D02*
X151882D01*
D51*
X102000Y59976D02*
D03*
Y21000D02*
D03*
X299000Y59488D02*
D03*
Y20512D02*
D03*
D52*
X242000Y115000D02*
D03*
Y91378D02*
D03*
D53*
X93858Y90370D02*
D03*
X68661D02*
D03*
X68803Y121000D02*
D03*
X94000D02*
D03*
D54*
X591000Y24063D02*
D03*
Y31937D02*
D03*
X138000Y99063D02*
D03*
Y106937D02*
D03*
D55*
X578000Y24441D02*
D03*
Y29559D02*
D03*
X518000Y308441D02*
D03*
Y313559D02*
D03*
X529000Y319441D02*
D03*
Y324559D02*
D03*
X518110Y276575D02*
D03*
Y281693D02*
D03*
X529000Y297441D02*
D03*
Y302559D02*
D03*
X517717Y334842D02*
D03*
Y329724D02*
D03*
X529000Y360559D02*
D03*
Y355441D02*
D03*
X516929Y381693D02*
D03*
Y376575D02*
D03*
X487402Y389567D02*
D03*
Y394685D02*
D03*
X258000Y317559D02*
D03*
Y312441D02*
D03*
X258000Y352559D02*
D03*
Y347441D02*
D03*
X233000Y317559D02*
D03*
Y312441D02*
D03*
Y352559D02*
D03*
Y347441D02*
D03*
X213000Y317559D02*
D03*
Y312441D02*
D03*
X213000Y352559D02*
D03*
Y347441D02*
D03*
X193000Y317559D02*
D03*
Y312441D02*
D03*
Y352559D02*
D03*
Y347441D02*
D03*
X173000Y317559D02*
D03*
Y312441D02*
D03*
X173000Y352559D02*
D03*
Y347441D02*
D03*
X153000Y317559D02*
D03*
Y312441D02*
D03*
X153000Y352559D02*
D03*
Y347441D02*
D03*
X322000Y357559D02*
D03*
Y352441D02*
D03*
Y342559D02*
D03*
Y337441D02*
D03*
X307000Y342559D02*
D03*
Y337441D02*
D03*
X307000Y357559D02*
D03*
Y352441D02*
D03*
X337000Y342559D02*
D03*
Y337441D02*
D03*
Y357559D02*
D03*
Y352441D02*
D03*
X352000Y342559D02*
D03*
Y337441D02*
D03*
X352000Y357559D02*
D03*
Y352441D02*
D03*
X293000Y172559D02*
D03*
Y167441D02*
D03*
Y187559D02*
D03*
Y182441D02*
D03*
X293000Y202559D02*
D03*
Y197441D02*
D03*
X293000Y217559D02*
D03*
Y212441D02*
D03*
X293000Y302441D02*
D03*
Y307559D02*
D03*
X293000Y287441D02*
D03*
Y292559D02*
D03*
X293000Y272441D02*
D03*
Y277559D02*
D03*
X293000Y258000D02*
D03*
Y263118D02*
D03*
X112000Y187559D02*
D03*
Y182441D02*
D03*
Y172559D02*
D03*
Y167441D02*
D03*
Y202559D02*
D03*
Y197441D02*
D03*
Y217559D02*
D03*
Y212441D02*
D03*
Y258000D02*
D03*
Y263118D02*
D03*
Y273000D02*
D03*
Y278118D02*
D03*
Y287882D02*
D03*
Y293000D02*
D03*
D56*
X469500Y166272D02*
D03*
X474500D02*
D03*
X484500D02*
D03*
X489500D02*
D03*
Y187728D02*
D03*
X494500D02*
D03*
X474500D02*
D03*
X479500D02*
D03*
X464500Y166272D02*
D03*
X479500D02*
D03*
X494500D02*
D03*
X499500D02*
D03*
X464500Y187728D02*
D03*
X469500D02*
D03*
X484500D02*
D03*
X499500D02*
D03*
X469606Y229921D02*
D03*
X474606D02*
D03*
X484606D02*
D03*
X489606D02*
D03*
Y251378D02*
D03*
X494606D02*
D03*
X474606D02*
D03*
X479606D02*
D03*
X497146Y313878D02*
D03*
X502146D02*
D03*
X472146D02*
D03*
X477146D02*
D03*
X492146Y292421D02*
D03*
X497146D02*
D03*
X467146D02*
D03*
X472146D02*
D03*
X465787Y345669D02*
D03*
X470787D02*
D03*
X490787D02*
D03*
X495787D02*
D03*
Y367126D02*
D03*
X500787D02*
D03*
X470787D02*
D03*
X475787D02*
D03*
X492146Y313878D02*
D03*
X487146D02*
D03*
X482146D02*
D03*
X467146D02*
D03*
X502146Y292421D02*
D03*
X487146D02*
D03*
X482146D02*
D03*
X477146D02*
D03*
X490787Y367126D02*
D03*
X485787D02*
D03*
X480787D02*
D03*
X465787D02*
D03*
X500787Y345669D02*
D03*
X485787D02*
D03*
X480787D02*
D03*
X475787D02*
D03*
X499606Y251378D02*
D03*
X484606D02*
D03*
X469606D02*
D03*
X464606D02*
D03*
X499606Y229921D02*
D03*
X494606D02*
D03*
X479606D02*
D03*
X464606D02*
D03*
D57*
X515441Y149000D02*
D03*
X520559D02*
D03*
X515441Y142000D02*
D03*
X520559D02*
D03*
X515441Y158000D02*
D03*
X520559D02*
D03*
X515441Y165000D02*
D03*
X520559D02*
D03*
X515441Y176000D02*
D03*
X520559D02*
D03*
X515441Y183000D02*
D03*
X520559D02*
D03*
X515441Y193000D02*
D03*
X520559D02*
D03*
X515441Y200000D02*
D03*
X520559D02*
D03*
X515441Y217000D02*
D03*
X520559D02*
D03*
X515441Y210000D02*
D03*
X520559D02*
D03*
X515441Y234000D02*
D03*
X520559D02*
D03*
X515441Y227000D02*
D03*
X520559D02*
D03*
X515441Y243000D02*
D03*
X520559D02*
D03*
X515441Y250000D02*
D03*
X520559D02*
D03*
X515441Y260000D02*
D03*
X520559D02*
D03*
X515441Y267000D02*
D03*
X520559D02*
D03*
X344559Y106000D02*
D03*
X339441D02*
D03*
X341843Y73858D02*
D03*
X336724D02*
D03*
X267441Y212000D02*
D03*
X272559D02*
D03*
X252441D02*
D03*
X257559D02*
D03*
X222441Y212000D02*
D03*
X227559D02*
D03*
X237441D02*
D03*
X242559D02*
D03*
X267441Y263000D02*
D03*
X272559D02*
D03*
X252441D02*
D03*
X257559D02*
D03*
X237441D02*
D03*
X242559D02*
D03*
X222441D02*
D03*
X227559D02*
D03*
X127441Y208000D02*
D03*
X132559D02*
D03*
X142441D02*
D03*
X147559D02*
D03*
X157441D02*
D03*
X162559D02*
D03*
X171882D02*
D03*
X177000D02*
D03*
X62882Y313000D02*
D03*
X68000D02*
D03*
X47441D02*
D03*
X52559D02*
D03*
X62882Y298000D02*
D03*
X68000D02*
D03*
X48000D02*
D03*
X53118D02*
D03*
X63000Y343000D02*
D03*
X68118D02*
D03*
X47441D02*
D03*
X52559D02*
D03*
X63000Y328000D02*
D03*
X68118D02*
D03*
X47441D02*
D03*
X52559D02*
D03*
X166882Y262000D02*
D03*
X172000D02*
D03*
X151882D02*
D03*
X157000D02*
D03*
X136441D02*
D03*
X141559D02*
D03*
D58*
X218000Y115756D02*
D03*
Y110244D02*
D03*
X248000Y39756D02*
D03*
Y34244D02*
D03*
X223000Y39756D02*
D03*
Y34244D02*
D03*
X175000Y40756D02*
D03*
Y35244D02*
D03*
X152000Y40756D02*
D03*
Y35244D02*
D03*
X467000Y322244D02*
D03*
Y327756D02*
D03*
X465000Y374244D02*
D03*
Y379756D02*
D03*
X318000Y212244D02*
D03*
Y217756D02*
D03*
X318000Y262756D02*
D03*
Y257244D02*
D03*
X102000Y212244D02*
D03*
Y217756D02*
D03*
X174000Y236756D02*
D03*
Y231244D02*
D03*
X102000Y262512D02*
D03*
Y257000D02*
D03*
D59*
X364850Y106000D02*
D03*
X371150D02*
D03*
X364850Y74000D02*
D03*
X371150D02*
D03*
D60*
X460756Y200000D02*
D03*
X455244D02*
D03*
X462756Y260000D02*
D03*
X457244D02*
D03*
X244244Y222000D02*
D03*
X249756D02*
D03*
X249756Y252000D02*
D03*
X244244D02*
D03*
X149488Y217000D02*
D03*
X155000D02*
D03*
X157512Y252000D02*
D03*
X152000D02*
D03*
D61*
X210354D02*
D03*
Y247000D02*
D03*
Y242000D02*
D03*
Y237000D02*
D03*
Y232000D02*
D03*
Y227000D02*
D03*
Y222000D02*
D03*
X189000D02*
D03*
Y227000D02*
D03*
Y232000D02*
D03*
Y237000D02*
D03*
Y242000D02*
D03*
Y247000D02*
D03*
Y252000D02*
D03*
D62*
X301000Y106000D02*
X339244D01*
X339441Y106197D01*
X290000Y117000D02*
X301000Y106000D01*
X364386Y73929D02*
X364654Y74197D01*
X341913Y73929D02*
X364386D01*
X341843Y73858D02*
X341913Y73929D01*
X339441Y106000D02*
Y106197D01*
X371150Y74000D02*
X381488D01*
X371150Y106000D02*
X382000D01*
X344559D02*
X364850D01*
D63*
X473965Y299552D02*
X527096D01*
X473594Y300448D02*
X527096D01*
X522034Y247180D02*
Y248525D01*
X520559Y250000D02*
X522034Y248525D01*
X522266Y246948D02*
X556776D01*
X560860Y251032D01*
X522034Y247180D02*
X522266Y246948D01*
X560860Y251032D02*
X595818D01*
X522034Y244475D02*
Y245820D01*
X520559Y243000D02*
X522034Y244475D01*
Y245820D02*
X522266Y246052D01*
X557147D01*
X561231Y250137D01*
X595447D01*
X513966Y248525D02*
X515441Y250000D01*
X492554Y248673D02*
Y251146D01*
X513734Y246948D02*
X513966Y247180D01*
X492554Y248673D02*
X494279Y246948D01*
X513734D01*
X513966Y247180D02*
Y248525D01*
Y244475D02*
Y245820D01*
X491659Y248302D02*
Y251146D01*
X493908Y246052D02*
X513734D01*
X491659Y248302D02*
X493908Y246052D01*
X513734D02*
X513966Y245820D01*
X492786Y251378D02*
X494606D01*
X492554Y251146D02*
X492786Y251378D01*
X599617Y246535D02*
X603937D01*
X599385Y246767D02*
X599617Y246535D01*
X599385Y246767D02*
Y247466D01*
X595818Y251032D02*
X599385Y247466D01*
X556968Y311000D02*
X558000D01*
X556521Y311448D02*
X556968Y311000D01*
X482086Y74000D02*
X482543D01*
X480948Y72862D02*
X482086Y74000D01*
X551141Y179591D02*
X553425D01*
X550785Y179948D02*
X551141Y179591D01*
X550414Y179052D02*
X550917Y178549D01*
Y177083D02*
Y178549D01*
X553141Y197591D02*
X555425D01*
X553056Y197676D02*
X553141Y197591D01*
X552685Y196781D02*
X552917Y196549D01*
Y195083D02*
Y196549D01*
X559000Y323769D02*
Y324000D01*
X558119Y322888D02*
X559000Y323769D01*
X556838Y322888D02*
X558119D01*
X529000Y324559D02*
X529121D01*
X530596Y323084D01*
X528879Y324559D02*
X529000D01*
X527404Y323084D02*
X528879Y324559D01*
X530596Y322680D02*
Y323084D01*
X527404Y322680D02*
Y323084D01*
X556397Y322448D02*
X556838Y322888D01*
X542052Y322448D02*
X556397D01*
X542052Y322448D02*
X542052Y322448D01*
X527172Y322448D02*
X527404Y322680D01*
X530596D02*
X530828Y322448D01*
X523724Y322896D02*
X524172Y322448D01*
X530828D02*
X542052D01*
X524172D02*
X527172D01*
X475722Y322896D02*
X523724D01*
X474198Y321371D02*
X475722Y322896D01*
X474198Y314110D02*
Y321371D01*
X473966Y313878D02*
X474198Y314110D01*
X472146Y313878D02*
X473966D01*
X481964Y57007D02*
Y68342D01*
Y57007D02*
X484647Y54324D01*
Y47268D02*
Y54324D01*
X480931Y43552D02*
X484647Y47268D01*
X480948Y69357D02*
Y72862D01*
Y69357D02*
X481964Y68342D01*
X480232Y43552D02*
X480931D01*
X480000Y38000D02*
Y43320D01*
X480232Y43552D01*
X557209Y321992D02*
X557573D01*
X557805Y321761D01*
X556768Y321552D02*
X557209Y321992D01*
X542423Y321552D02*
X556768D01*
X542423Y321552D02*
X542423Y321552D01*
X530828Y321552D02*
X542423D01*
X530596Y321320D02*
X530828Y321552D01*
X523801D02*
X527172D01*
X527404Y320916D02*
Y321320D01*
X530596Y320916D02*
Y321320D01*
X527172Y321552D02*
X527404Y321320D01*
X557805Y320711D02*
X558000Y320516D01*
X557805Y320711D02*
Y321761D01*
X529121Y319441D02*
X530596Y320916D01*
X528879Y319441D02*
X529000D01*
X529121D01*
X527404Y320916D02*
X528879Y319441D01*
X523353Y322000D02*
X523801Y321552D01*
X476093Y322000D02*
X523353D01*
X475094Y314110D02*
Y321000D01*
X476093Y322000D01*
X475325Y313878D02*
X477146D01*
X475094Y314110D02*
X475325Y313878D01*
X479000Y73914D02*
Y74000D01*
Y73914D02*
X480052Y72862D01*
X481068Y56636D02*
Y67971D01*
Y56636D02*
X483751Y53953D01*
Y47639D02*
Y53953D01*
X480560Y44448D02*
X483751Y47639D01*
X480052Y68986D02*
Y72862D01*
Y68986D02*
X481068Y67971D01*
X480000Y44680D02*
Y50000D01*
X480232Y44448D02*
X480560D01*
X480000Y44680D02*
X480232Y44448D01*
X520791Y179052D02*
X550414D01*
X550917Y177083D02*
X551000Y177000D01*
X520559Y178820D02*
X520791Y179052D01*
X520559Y176000D02*
Y178820D01*
X520791Y179948D02*
X550785D01*
X520559Y180180D02*
X520791Y179948D01*
X520559Y180180D02*
Y183000D01*
X552917Y195083D02*
X553000Y195000D01*
X551655Y196781D02*
X552685D01*
X550926Y196052D02*
X551655Y196781D01*
X520791Y196052D02*
X550926D01*
X551284Y197676D02*
X553056D01*
X550555Y196948D02*
X551284Y197676D01*
X520791Y196948D02*
X550555D01*
X520559Y195820D02*
X520791Y196052D01*
X520559Y193000D02*
Y195820D01*
Y197180D02*
X520791Y196948D01*
X520559Y197180D02*
Y200000D01*
X514221Y194220D02*
X515441Y193000D01*
X514221Y194220D02*
Y195820D01*
X513989Y196052D02*
X514221Y195820D01*
X512847Y196052D02*
X513989D01*
X512532Y195738D02*
X512847Y196052D01*
X510262Y195738D02*
X512532D01*
X504000Y202000D02*
X510262Y195738D01*
X514221Y198779D02*
X515441Y200000D01*
X514221Y197180D02*
Y198779D01*
X513989Y196948D02*
X514221Y197180D01*
X512475Y196948D02*
X513989D01*
X512161Y196633D02*
X512475Y196948D01*
X510633Y196633D02*
X512161D01*
X504371Y202896D02*
X510633Y196633D01*
X479077Y202896D02*
X504371D01*
X479448Y202000D02*
X504000D01*
X477448Y200000D02*
X479448Y202000D01*
X476552Y200371D02*
X479077Y202896D01*
X476552Y187960D02*
Y200371D01*
X477448Y187960D02*
Y200000D01*
Y187960D02*
X477680Y187728D01*
X479500D01*
X476320D02*
X476552Y187960D01*
X474500Y187728D02*
X476320D01*
X510142Y146000D02*
X510194Y145948D01*
X515209D01*
X515441Y146180D01*
Y149000D01*
X509771Y145104D02*
X509823Y145052D01*
X515209D01*
X515441Y144820D01*
Y142000D02*
Y144820D01*
X472448Y151000D02*
X477448Y146000D01*
X510142D01*
X471552Y150629D02*
X477077Y145104D01*
X509771D01*
X472680Y166272D02*
X474500D01*
X472448Y166040D02*
X472680Y166272D01*
X472448Y151000D02*
Y166040D01*
X469500Y166272D02*
X471320D01*
X471552Y166040D01*
Y150629D02*
Y166040D01*
X514977Y176464D02*
X515441Y176000D01*
X514977Y176464D02*
Y178820D01*
X514746Y179052D02*
X514977Y178820D01*
X496598Y179052D02*
X514746D01*
X491552Y184098D02*
X496598Y179052D01*
X491552Y184098D02*
Y187496D01*
X491320Y187728D02*
X491552Y187496D01*
X489500Y187728D02*
X491320D01*
X514977Y182536D02*
X515441Y183000D01*
X514977Y180180D02*
Y182536D01*
X514746Y179948D02*
X514977Y180180D01*
X496969Y179948D02*
X514746D01*
X492448Y184469D02*
X496969Y179948D01*
X492448Y184469D02*
Y187496D01*
X492680Y187728D01*
X494500D01*
X514514Y158927D02*
X515441Y158000D01*
X514514Y158927D02*
Y160820D01*
X514282Y161052D02*
X514514Y160820D01*
X488142Y161052D02*
X514282D01*
X486552Y162642D02*
X488142Y161052D01*
X486552Y162642D02*
Y166040D01*
X486320Y166272D02*
X486552Y166040D01*
X484500Y166272D02*
X486320D01*
X514514Y164073D02*
X515441Y165000D01*
X514514Y162180D02*
Y164073D01*
X514282Y161948D02*
X514514Y162180D01*
X488513Y161948D02*
X514282D01*
X487448Y163013D02*
X488513Y161948D01*
X487448Y163013D02*
Y166040D01*
X487680Y166272D01*
X489500D01*
X603041Y216535D02*
X603937Y217431D01*
X610124Y211143D02*
X614896Y206371D01*
X611962Y212038D02*
X619000Y205000D01*
X602056Y212038D02*
X611962D01*
X598489Y215605D02*
X602056Y212038D01*
X598489Y215605D02*
Y216304D01*
X598257Y216535D02*
X598489Y216304D01*
X593937Y216535D02*
X598257D01*
X619896Y199629D02*
Y205371D01*
X612333Y212934D02*
X619896Y205371D01*
X602427Y212934D02*
X612333D01*
X599385Y215976D02*
X602427Y212934D01*
X599385Y215976D02*
Y216304D01*
X599617Y216535D01*
X603041D01*
X598489Y206767D02*
Y207466D01*
X602166Y211143D01*
X610124D01*
X599385Y206767D02*
Y207095D01*
X602537Y210247D01*
X609753D01*
X614000Y206000D01*
X611000Y192000D02*
X619000Y200000D01*
Y205000D01*
X590423Y191104D02*
X611371D01*
X619896Y199629D01*
X544000Y145948D02*
X590052Y192000D01*
X611000D01*
X520791Y145052D02*
X544371D01*
X590423Y191104D01*
X520559Y146180D02*
Y149000D01*
Y146180D02*
X520791Y145948D01*
X544000D01*
X520559Y142000D02*
Y144820D01*
X520791Y145052D01*
X593937Y206535D02*
X598257D01*
X598489Y206767D01*
X599617Y206535D02*
X603937D01*
X599385Y206767D02*
X599617Y206535D01*
X614896Y201629D02*
Y206371D01*
X609371Y196104D02*
X614896Y201629D01*
X614000Y202000D02*
Y206000D01*
X581423Y196104D02*
X609371D01*
X609000Y197000D02*
X614000Y202000D01*
X581052Y197000D02*
X609000D01*
X546371Y161052D02*
X581423Y196104D01*
X520791Y161052D02*
X546371D01*
X546000Y161948D02*
X581052Y197000D01*
X520559Y160820D02*
X520791Y161052D01*
X520559Y158000D02*
Y160820D01*
X520791Y161948D02*
X546000D01*
X520559Y162180D02*
X520791Y161948D01*
X520559Y162180D02*
Y165000D01*
X495142Y214000D02*
X495194Y213948D01*
X515209D01*
X515441Y214180D01*
Y217000D01*
X494771Y213104D02*
X494823Y213052D01*
X515209D01*
X515441Y212820D01*
Y210000D02*
Y212820D01*
X522266Y213948D02*
X553300D01*
X522034Y214180D02*
X522266Y213948D01*
X522034Y214180D02*
Y215525D01*
X522266Y213052D02*
X553671D01*
X522034Y212820D02*
X522266Y213052D01*
X522034Y211475D02*
Y212820D01*
X520559Y217000D02*
X522034Y215525D01*
X520559Y210000D02*
X522034Y211475D01*
X553671Y213052D02*
X561651Y221033D01*
X553300Y213948D02*
X561280Y221928D01*
X472554Y215000D02*
X473554Y214000D01*
X495142D01*
X471659Y214629D02*
X473183Y213104D01*
X494771D01*
X472554Y215000D02*
Y229689D01*
X471659Y214629D02*
Y229689D01*
X472786Y229921D02*
X474606D01*
X472554Y229689D02*
X472786Y229921D01*
X469606D02*
X471427D01*
X471659Y229689D01*
X599617Y226535D02*
X603937D01*
X599385Y226304D02*
X599617Y226535D01*
X599385Y225605D02*
Y226304D01*
X594812Y221033D02*
X599385Y225605D01*
X561651Y221033D02*
X594812D01*
X593937Y226535D02*
X598257D01*
X598489Y226304D01*
Y225976D02*
Y226304D01*
X594442Y221928D02*
X598489Y225976D01*
X561280Y221928D02*
X594442D01*
X563161Y240137D02*
X595447D01*
X553077Y230052D02*
X563161Y240137D01*
X520127Y230052D02*
X553077D01*
X519895Y229820D02*
X520127Y230052D01*
X519895Y227664D02*
Y229820D01*
Y227664D02*
X520559Y227000D01*
X562790Y241033D02*
X595818D01*
X552706Y230948D02*
X562790Y241033D01*
X520127Y230948D02*
X552706D01*
X519895Y231180D02*
X520127Y230948D01*
X519895Y231180D02*
Y233336D01*
X520559Y234000D01*
X599617Y236535D02*
X603937D01*
X599385Y236767D02*
X599617Y236535D01*
X599385Y236767D02*
Y237466D01*
X595818Y241033D02*
X599385Y237466D01*
X593937Y236535D02*
X598257D01*
X598489Y236767D01*
Y237095D01*
X595447Y240137D02*
X598489Y237095D01*
X515441Y227000D02*
X516105Y227664D01*
Y229820D01*
X515873Y230052D02*
X516105Y229820D01*
X510683Y230052D02*
X515873D01*
X505817Y225186D02*
X510683Y230052D01*
X488318Y225186D02*
X505817D01*
X486659Y226845D02*
X488318Y225186D01*
X486659Y226845D02*
Y229689D01*
X515441Y234000D02*
X516105Y233336D01*
Y231180D02*
Y233336D01*
X515873Y230948D02*
X516105Y231180D01*
X510312Y230948D02*
X515873D01*
X505446Y226082D02*
X510312Y230948D01*
X488689Y226082D02*
X505446D01*
X487554Y227216D02*
X488689Y226082D01*
X487554Y227216D02*
Y229689D01*
X487786Y229921D02*
X489606D01*
X487554Y229689D02*
X487786Y229921D01*
X486427D02*
X486659Y229689D01*
X484606Y229921D02*
X486427D01*
X513966Y244475D02*
X515441Y243000D01*
X491427Y251378D02*
X491659Y251146D01*
X489606Y251378D02*
X491427D01*
X593937Y246535D02*
X598257D01*
X598489Y246767D01*
Y247095D01*
X595447Y250137D02*
X598489Y247095D01*
X515441Y260000D02*
Y262820D01*
X515209Y263052D02*
X515441Y262820D01*
X507694Y263052D02*
X515209D01*
X507642Y263000D02*
X507694Y263052D01*
X515441Y264180D02*
Y267000D01*
X515209Y263948D02*
X515441Y264180D01*
X507323Y263948D02*
X515209D01*
X507271Y263896D02*
X507323Y263948D01*
X485917Y263000D02*
X507642D01*
X485546Y263896D02*
X507271D01*
X477554Y254637D02*
X485917Y263000D01*
X477554Y251610D02*
Y254637D01*
Y251610D02*
X477786Y251378D01*
X479606D01*
X476659Y255008D02*
X485546Y263896D01*
X476659Y251610D02*
Y255008D01*
X476427Y251378D02*
X476659Y251610D01*
X474606Y251378D02*
X476427D01*
X593937Y266535D02*
X598257D01*
X598489Y266767D01*
Y267095D01*
X595447Y270137D02*
X598489Y267095D01*
X562226Y270137D02*
X595447D01*
X555141Y263052D02*
X562226Y270137D01*
X521255Y263052D02*
X555141D01*
X521024Y262820D02*
X521255Y263052D01*
X521024Y260465D02*
Y262820D01*
X520559Y260000D02*
X521024Y260465D01*
X599617Y266535D02*
X603937D01*
X599385Y266767D02*
X599617Y266535D01*
X599385Y266767D02*
Y267466D01*
X595818Y271033D02*
X599385Y267466D01*
X561855Y271033D02*
X595818D01*
X554770Y263948D02*
X561855Y271033D01*
X521255Y263948D02*
X554770D01*
X521024Y264180D02*
X521255Y263948D01*
X521024Y264180D02*
Y266535D01*
X520559Y267000D02*
X521024Y266535D01*
X516172Y310552D02*
X516404Y310320D01*
X510448Y310552D02*
X516172D01*
X516404Y309916D02*
Y310320D01*
X508000Y313000D02*
Y317768D01*
Y313000D02*
X510448Y310552D01*
X517879Y308441D02*
X518000D01*
X516404Y309916D02*
X517879Y308441D01*
X507768Y318000D02*
X508000Y317768D01*
X500325Y318000D02*
X507768D01*
X500325Y313878D02*
X502146D01*
X500094Y317768D02*
X500325Y318000D01*
X500094Y314110D02*
Y317768D01*
Y314110D02*
X500325Y313878D01*
X517879Y313559D02*
X518000D01*
X516404Y312084D02*
X517879Y313559D01*
X508896Y313371D02*
Y318139D01*
X516404Y311680D02*
Y312084D01*
X516172Y311448D02*
X516404Y311680D01*
X508896Y313371D02*
X510819Y311448D01*
X516172D01*
X499954Y318896D02*
X508139D01*
X499198Y318139D02*
X499954Y318896D01*
X508139D02*
X508896Y318139D01*
X499198Y314110D02*
Y318139D01*
X498966Y313878D02*
X499198Y314110D01*
X497146Y313878D02*
X498966D01*
X554768Y309232D02*
X555000Y309000D01*
X554768Y309232D02*
Y310552D01*
X519828Y311448D02*
X556521D01*
X519828Y310552D02*
X554768D01*
X519596Y310320D02*
X519828Y310552D01*
X519596Y309916D02*
Y310320D01*
X518121Y308441D02*
X519596Y309916D01*
X518000Y308441D02*
X518121D01*
X519596Y311680D02*
X519828Y311448D01*
X519596Y311680D02*
Y312084D01*
X518121Y313559D02*
X519596Y312084D01*
X518000Y313559D02*
X518121D01*
X528803Y297441D02*
X529197D01*
X528803Y302559D02*
X529197D01*
X469198Y296051D02*
X473594Y300448D01*
X527096D02*
X527328Y300680D01*
Y301084D01*
X528803Y302559D01*
X470093Y295680D02*
X473965Y299552D01*
X527096D02*
X527328Y299320D01*
Y298916D02*
Y299320D01*
Y298916D02*
X528803Y297441D01*
X469198Y292653D02*
Y296051D01*
X468966Y292421D02*
X469198Y292653D01*
X467146Y292421D02*
X468966D01*
X470093Y292653D02*
Y295680D01*
Y292653D02*
X470325Y292421D01*
X472146D01*
X529197Y302559D02*
X530672Y301084D01*
Y300680D02*
Y301084D01*
Y300680D02*
X530904Y300448D01*
X559412D01*
X566925Y292934D01*
X595447D01*
X529197Y297441D02*
X530672Y298916D01*
Y299320D01*
X530904Y299552D01*
X559040D01*
X566554Y292038D01*
X595818D01*
X599617Y296535D02*
X603937D01*
X599385Y296304D02*
X599617Y296535D01*
X599385Y295605D02*
Y296304D01*
X595818Y292038D02*
X599385Y295605D01*
X593937Y296535D02*
X598257D01*
X598489Y296304D01*
Y295976D02*
Y296304D01*
X595447Y292934D02*
X598489Y295976D01*
X528803Y355441D02*
X529121D01*
X528803Y360559D02*
X529121D01*
X598489Y327466D02*
X602409Y331386D01*
X605147D01*
X608434Y334673D01*
Y348398D01*
X599280Y357552D02*
X608434Y348398D01*
X530828Y357552D02*
X599280D01*
X530596Y357320D02*
X530828Y357552D01*
X530596Y356916D02*
Y357320D01*
X529121Y355441D02*
X530596Y356916D01*
X599385Y327095D02*
X602780Y330490D01*
X605518D01*
X609330Y334302D01*
Y348769D01*
X599651Y358448D02*
X609330Y348769D01*
X530828Y358448D02*
X599651D01*
X530596Y358680D02*
X530828Y358448D01*
X530596Y358680D02*
Y359084D01*
X529121Y360559D02*
X530596Y359084D01*
X593937Y326535D02*
X598257D01*
X598489Y326767D01*
Y327466D01*
X599617Y326535D02*
X603937D01*
X599385Y326767D02*
X599617Y326535D01*
X599385Y326767D02*
Y327095D01*
X527328Y356916D02*
X528803Y355441D01*
X527328Y356916D02*
Y357320D01*
X527096Y357552D02*
X527328Y357320D01*
X502359Y357552D02*
X527096D01*
X493735Y348928D02*
X502359Y357552D01*
X493735Y345901D02*
Y348928D01*
X527328Y359084D02*
X528803Y360559D01*
X527328Y358680D02*
Y359084D01*
X527096Y358448D02*
X527328Y358680D01*
X501988Y358448D02*
X527096D01*
X492839Y349299D02*
X501988Y358448D01*
X492839Y345901D02*
Y349299D01*
X493735Y345901D02*
X493967Y345669D01*
X495787D01*
X492608D02*
X492839Y345901D01*
X490787Y345669D02*
X492608D01*
X516282Y278686D02*
X516514Y278454D01*
Y278050D02*
Y278454D01*
Y278050D02*
X517990Y276575D01*
X518110D01*
X493966Y292421D02*
X494198Y292189D01*
Y288791D02*
Y292189D01*
X492146Y292421D02*
X493966D01*
X504303Y278686D02*
X516282D01*
X494198Y288791D02*
X504303Y278686D01*
X517990Y281693D02*
X518110D01*
X516514Y280218D02*
X517990Y281693D01*
X516514Y279814D02*
Y280218D01*
X516282Y279582D02*
X516514Y279814D01*
X495325Y292421D02*
X497146D01*
X495093Y292189D02*
X495325Y292421D01*
X495093Y289162D02*
Y292189D01*
X504674Y279582D02*
X516282D01*
X495093Y289162D02*
X504674Y279582D01*
X518110Y281693D02*
X518231D01*
X519706Y280218D01*
Y279814D02*
Y280218D01*
Y279814D02*
X519938Y279582D01*
X554655D01*
X557001Y281928D01*
X594442D01*
X598489Y285976D01*
Y286304D01*
X598257Y286535D02*
X598489Y286304D01*
X593937Y286535D02*
X598257D01*
X518110Y276575D02*
X518231D01*
X519706Y278050D01*
Y278454D01*
X519938Y278686D01*
X555026D01*
X557372Y281032D01*
X594812D01*
X599385Y285605D01*
Y286304D01*
X599617Y286535D01*
X603937D01*
X517596Y334842D02*
X517717D01*
X516120Y333367D02*
X517596Y334842D01*
X516120Y332963D02*
Y333367D01*
X515889Y332731D02*
X516120Y332963D01*
X468967Y345669D02*
X470787D01*
X468735Y345437D02*
X468967Y345669D01*
X468735Y342410D02*
Y345437D01*
X478414Y332731D02*
X515889D01*
X468735Y342410D02*
X478414Y332731D01*
X515889Y331836D02*
X516120Y331604D01*
Y331200D02*
Y331604D01*
Y331200D02*
X517596Y329724D01*
X517717D01*
X467608Y345669D02*
X467839Y345437D01*
Y342039D02*
Y345437D01*
X465787Y345669D02*
X467608D01*
X478043Y331836D02*
X515889D01*
X467839Y342039D02*
X478043Y331836D01*
X593937Y336535D02*
X598257D01*
X598489Y336767D01*
Y337095D01*
X595447Y340137D02*
X598489Y337095D01*
X587860Y340137D02*
X595447D01*
X579559Y331836D02*
X587860Y340137D01*
X599617Y336535D02*
X603937D01*
X599385Y336767D02*
X599617Y336535D01*
X599385Y336767D02*
Y337466D01*
X595818Y341033D02*
X599385Y337466D01*
X587489Y341033D02*
X595818D01*
X579188Y332731D02*
X587489Y341033D01*
X519544Y331836D02*
X579559D01*
X519312Y331604D02*
X519544Y331836D01*
X519312Y331200D02*
Y331604D01*
X517837Y329724D02*
X519312Y331200D01*
X517717Y329724D02*
X517837D01*
X519544Y332731D02*
X579188D01*
X519313Y332963D02*
X519544Y332731D01*
X519313Y332963D02*
Y333367D01*
X517837Y334842D02*
X519313Y333367D01*
X517717Y334842D02*
X517837D01*
X605800Y322038D02*
X621063Y337302D01*
X606171Y321143D02*
X621959Y336931D01*
Y347025D01*
X603061Y322038D02*
X605800D01*
X603433Y321143D02*
X606171D01*
X621063Y337302D02*
Y346654D01*
X599385Y317095D02*
X603433Y321143D01*
X598489Y317466D02*
X603061Y322038D01*
X515333Y380218D02*
X516809Y381693D01*
X516929D01*
X515333Y379814D02*
Y380218D01*
X515101Y379582D02*
X515333Y379814D01*
X507219Y379582D02*
X515101D01*
X497839Y370202D02*
X507219Y379582D01*
X497839Y367358D02*
Y370202D01*
X497608Y367126D02*
X497839Y367358D01*
X495787Y367126D02*
X497608D01*
X516809Y376575D02*
X516929D01*
X515101Y378686D02*
X515333Y378454D01*
Y378050D02*
Y378454D01*
Y378050D02*
X516809Y376575D01*
X507590Y378686D02*
X515101D01*
X498735Y369831D02*
X507590Y378686D01*
X498735Y367358D02*
Y369831D01*
X498967Y367126D02*
X500787D01*
X498735Y367358D02*
X498967Y367126D01*
X593937Y316535D02*
X598257D01*
X598489Y316767D01*
Y317466D01*
X599617Y316535D02*
X603937D01*
X599385Y316767D02*
X599617Y316535D01*
X599385Y316767D02*
Y317095D01*
X589401Y379582D02*
X621959Y347025D01*
X589031Y378686D02*
X621063Y346654D01*
X518757Y378686D02*
X589031D01*
X518525Y378454D02*
X518757Y378686D01*
X518525Y378050D02*
Y378454D01*
X517050Y376575D02*
X518525Y378050D01*
X516929Y376575D02*
X517050D01*
X518757Y379582D02*
X589401D01*
X518525Y379814D02*
X518757Y379582D01*
X518525Y379814D02*
Y380218D01*
X517050Y381693D02*
X518525Y380218D01*
X516929Y381693D02*
X517050D01*
X488998Y392806D02*
X489229Y392574D01*
X487522Y394685D02*
X488998Y393210D01*
X489229Y392574D02*
X594828D01*
X487402Y394685D02*
X487522D01*
X487281D02*
X487402D01*
X488998Y392806D02*
Y393210D01*
X636377Y321283D02*
Y351024D01*
X594828Y392574D02*
X636377Y351024D01*
X485806Y393210D02*
X487281Y394685D01*
X485806Y392806D02*
Y393210D01*
X485574Y392574D02*
X485806Y392806D01*
X484205Y392574D02*
X485574D01*
X472839Y367358D02*
Y381208D01*
X484205Y392574D01*
X472608Y367126D02*
X472839Y367358D01*
X470787Y367126D02*
X472608D01*
X489229Y391678D02*
X594457D01*
X488998Y391446D02*
X489229Y391678D01*
X488998Y391042D02*
Y391446D01*
X487522Y389567D02*
X488998Y391042D01*
X487402Y389567D02*
X487522D01*
X487281D02*
X487402D01*
X635482Y321654D02*
Y350653D01*
X594457Y391678D02*
X635482Y350653D01*
X485806Y391042D02*
Y391446D01*
Y391042D02*
X487281Y389567D01*
X484576Y391678D02*
X485574D01*
X485806Y391446D01*
X473735Y380837D02*
X484576Y391678D01*
X473967Y367126D02*
X475787D01*
X473735Y367358D02*
Y380837D01*
Y367358D02*
X473967Y367126D01*
X617133Y302038D02*
X636377Y321283D01*
X602056Y302038D02*
X617133D01*
X598489Y305605D02*
X602056Y302038D01*
X598489Y305605D02*
Y306304D01*
X598257Y306535D02*
X598489Y306304D01*
X593937Y306535D02*
X598257D01*
X616762Y302934D02*
X635482Y321654D01*
X602427Y302934D02*
X616762D01*
X599385Y305976D02*
X602427Y302934D01*
X599385Y305976D02*
Y306304D01*
X599617Y306535D01*
X603937D01*
D64*
X500425Y168000D02*
X506000D01*
X499500Y167075D02*
X500425Y168000D01*
X499500Y166272D02*
Y167075D01*
X469500Y194500D02*
X470000Y195000D01*
X469500Y187728D02*
Y194500D01*
X499500Y195500D02*
X500000Y196000D01*
X499500Y187728D02*
Y195500D01*
X482000Y305000D02*
X482146Y305146D01*
Y313878D01*
X492000Y305000D02*
X492146Y305146D01*
Y313878D01*
X252441Y212000D02*
X252441Y212000D01*
X293000Y302441D02*
X293000Y302441D01*
X293000Y287441D02*
X293000Y287441D01*
X293000Y272441D02*
X293000Y272441D01*
Y254000D02*
Y258000D01*
Y251000D02*
Y254000D01*
X317000D02*
X318000Y255000D01*
Y257244D01*
X112000Y254000D02*
Y258000D01*
Y252000D02*
Y254000D01*
X102000Y255000D02*
Y257000D01*
Y255000D02*
X103000Y254000D01*
X112000D01*
Y278118D02*
Y287882D01*
Y263118D02*
Y273000D01*
D65*
X510000Y50000D02*
D03*
X500000D02*
D03*
X490000D02*
D03*
X470000D02*
D03*
X450000D02*
D03*
X440000D02*
D03*
X460000D02*
D03*
X480000D02*
D03*
X510000Y38000D02*
D03*
X500000D02*
D03*
X490000D02*
D03*
X470000D02*
D03*
X450000D02*
D03*
X440000D02*
D03*
X460000D02*
D03*
X480000D02*
D03*
X343071Y387165D02*
D03*
X333071D02*
D03*
X323071D02*
D03*
X343071Y377165D02*
D03*
X333071D02*
D03*
X323071D02*
D03*
X313071Y387165D02*
D03*
Y377165D02*
D03*
X303071Y387165D02*
D03*
Y377165D02*
D03*
X293071Y387165D02*
D03*
Y377165D02*
D03*
X283071Y387165D02*
D03*
X17835Y336850D02*
D03*
X27835Y346850D02*
D03*
X17835D02*
D03*
X27835Y356850D02*
D03*
X17835D02*
D03*
X125591Y387165D02*
D03*
X115591D02*
D03*
X105591D02*
D03*
X125591Y377165D02*
D03*
X115591D02*
D03*
X105591D02*
D03*
X95591Y387165D02*
D03*
Y377165D02*
D03*
X85591Y387165D02*
D03*
Y377165D02*
D03*
X75591Y387165D02*
D03*
Y377165D02*
D03*
X65591Y387165D02*
D03*
X234331D02*
D03*
X224331D02*
D03*
X214331D02*
D03*
X234331Y377165D02*
D03*
X224331D02*
D03*
X214331D02*
D03*
X204331Y387165D02*
D03*
Y377165D02*
D03*
X194331Y387165D02*
D03*
Y377165D02*
D03*
X184331Y387165D02*
D03*
Y377165D02*
D03*
X174331Y387165D02*
D03*
D66*
X430000Y50000D02*
D03*
Y38000D02*
D03*
X283071Y377165D02*
D03*
X65591D02*
D03*
X174331D02*
D03*
D67*
X27835Y336850D02*
D03*
D68*
X21260Y180315D02*
D03*
Y224803D02*
D03*
X21654Y267323D02*
D03*
X24409Y88976D02*
D03*
D69*
X21260Y200000D02*
D03*
Y190157D02*
D03*
Y244488D02*
D03*
Y234646D02*
D03*
X21654Y287008D02*
D03*
Y277165D02*
D03*
X24409Y98819D02*
D03*
Y108661D02*
D03*
D70*
X199858Y100000D02*
D03*
D71*
Y110000D02*
D03*
Y120000D02*
D03*
D72*
X603937Y346535D02*
D03*
Y336535D02*
D03*
Y326535D02*
D03*
Y316535D02*
D03*
Y306535D02*
D03*
Y296535D02*
D03*
Y286535D02*
D03*
Y276535D02*
D03*
Y266535D02*
D03*
Y256535D02*
D03*
Y246535D02*
D03*
Y236535D02*
D03*
Y226535D02*
D03*
Y216535D02*
D03*
Y206535D02*
D03*
X593937Y346535D02*
D03*
Y336535D02*
D03*
Y326535D02*
D03*
Y316535D02*
D03*
Y306535D02*
D03*
Y296535D02*
D03*
Y286535D02*
D03*
Y276535D02*
D03*
Y266535D02*
D03*
Y256535D02*
D03*
Y246535D02*
D03*
Y236535D02*
D03*
Y226535D02*
D03*
Y216535D02*
D03*
Y206535D02*
D03*
D73*
X610236Y91732D02*
D03*
Y153732D02*
D03*
D74*
X603236Y87732D02*
D03*
X610236Y83732D02*
D03*
X603236Y79732D02*
D03*
X610236Y75732D02*
D03*
X603236Y71732D02*
D03*
X610236Y67732D02*
D03*
X603236Y63732D02*
D03*
Y125732D02*
D03*
X610236Y129732D02*
D03*
X603236Y133732D02*
D03*
X610236Y137732D02*
D03*
X603236Y141732D02*
D03*
X610236Y145732D02*
D03*
X603236Y149732D02*
D03*
D75*
X620236Y52732D02*
D03*
Y164732D02*
D03*
D76*
X606736Y45732D02*
D03*
Y171732D02*
D03*
D77*
X190142Y30000D02*
D03*
Y40000D02*
D03*
D78*
Y50000D02*
D03*
D79*
X247000Y78000D02*
D03*
X237000D02*
D03*
Y71000D02*
D03*
X247000D02*
D03*
D80*
X290000Y117000D02*
D03*
Y122000D02*
D03*
X296000D02*
D03*
Y117000D02*
D03*
X506000Y168000D02*
D03*
X478000Y159000D02*
D03*
X448000Y198000D02*
D03*
X508000Y232000D02*
D03*
X480000Y220000D02*
D03*
X523213Y290488D02*
D03*
X145276Y17323D02*
D03*
X151575Y23228D02*
D03*
X220000Y237000D02*
D03*
X536221Y344882D02*
D03*
X238000Y21000D02*
D03*
X248000D02*
D03*
X230000D02*
D03*
X480000Y328000D02*
D03*
X488000D02*
D03*
X458000Y389000D02*
D03*
X450000D02*
D03*
X515213Y290488D02*
D03*
X465000Y206000D02*
D03*
X461000D02*
D03*
X448000Y202000D02*
D03*
X462756Y264878D02*
D03*
Y269756D02*
D03*
X452000Y265173D02*
D03*
X452000Y269000D02*
D03*
X141000Y92000D02*
D03*
X134000D02*
D03*
X293000Y316000D02*
D03*
X318000Y270000D02*
D03*
X167000Y231000D02*
D03*
X159000D02*
D03*
D81*
X291000Y360000D02*
D03*
Y354000D02*
D03*
X423000Y260000D02*
D03*
X558000Y311000D02*
D03*
X482543Y74000D02*
D03*
X553425Y179591D02*
D03*
X555425Y197591D02*
D03*
X559000Y324000D02*
D03*
X558000Y320516D02*
D03*
X479000Y74000D02*
D03*
X470000Y195000D02*
D03*
X500000Y196000D02*
D03*
X553000Y195000D02*
D03*
X551000Y177000D02*
D03*
X482000Y305000D02*
D03*
X492000D02*
D03*
X555000Y309000D02*
D03*
X485000Y258000D02*
D03*
X499394Y260394D02*
D03*
X146756Y236756D02*
D03*
X112000Y232000D02*
D03*
X429000Y338000D02*
D03*
X423000Y335000D02*
D03*
X418000Y332000D02*
D03*
X400000Y323000D02*
D03*
X413000Y329000D02*
D03*
Y374000D02*
D03*
X381551Y73937D02*
D03*
X382000Y106000D02*
D03*
X153000Y302000D02*
D03*
X102000Y205000D02*
D03*
Y270000D02*
D03*
X112000Y300000D02*
D03*
Y160000D02*
D03*
X318000Y205000D02*
D03*
X293000Y160000D02*
D03*
X293000Y232000D02*
D03*
Y223000D02*
D03*
X112000Y242000D02*
D03*
X567000Y123000D02*
D03*
X559000Y126000D02*
D03*
X572000Y131000D02*
D03*
X412000Y380000D02*
D03*
X411000Y389000D02*
D03*
X424000Y383000D02*
D03*
X437000Y377000D02*
D03*
X430000Y386000D02*
D03*
X258000Y326000D02*
D03*
X407000D02*
D03*
X213000Y323000D02*
D03*
X173000Y329000D02*
D03*
X233000Y332000D02*
D03*
X193000Y335000D02*
D03*
X153000Y338000D02*
D03*
X213000Y358000D02*
D03*
X193000D02*
D03*
X293000Y242000D02*
D03*
Y251000D02*
D03*
X112000Y252000D02*
D03*
Y224000D02*
D03*
D82*
X19685Y392795D02*
D03*
D83*
X15354Y48032D02*
D03*
X627795Y19685D02*
D03*
Y387795D02*
D03*
X19685Y19685D02*
D03*
M02*
