G04*
G04 #@! TF.GenerationSoftware,Altium Limited,Altium Designer,19.1.8 (144)*
G04*
G04 Layer_Physical_Order=4*
G04 Layer_Color=16711680*
%FSLAX25Y25*%
%MOIN*%
G70*
G01*
G75*
%ADD14C,0.00591*%
%ADD15C,0.01000*%
%ADD63C,0.00396*%
%ADD64C,0.00512*%
%ADD65C,0.06299*%
%ADD66R,0.06299X0.06299*%
%ADD67R,0.06299X0.06299*%
G04:AMPARAMS|DCode=68|XSize=82.68mil|YSize=82.68mil|CornerRadius=20.67mil|HoleSize=0mil|Usage=FLASHONLY|Rotation=90.000|XOffset=0mil|YOffset=0mil|HoleType=Round|Shape=RoundedRectangle|*
%AMROUNDEDRECTD68*
21,1,0.08268,0.04134,0,0,90.0*
21,1,0.04134,0.08268,0,0,90.0*
1,1,0.04134,0.02067,0.02067*
1,1,0.04134,0.02067,-0.02067*
1,1,0.04134,-0.02067,-0.02067*
1,1,0.04134,-0.02067,0.02067*
%
%ADD68ROUNDEDRECTD68*%
%ADD69C,0.08268*%
%ADD70R,0.05906X0.05906*%
%ADD71C,0.05906*%
%ADD72C,0.06000*%
%ADD73R,0.05512X0.05512*%
%ADD74C,0.05512*%
%ADD75C,0.12795*%
%ADD76C,0.09449*%
%ADD77C,0.05937*%
%ADD78R,0.05937X0.05937*%
%ADD79C,0.05000*%
%ADD80C,0.02362*%
%ADD81C,0.01968*%
%ADD82C,0.15748*%
%ADD83C,0.19748*%
G36*
X644000Y2000D02*
X2000D01*
Y402000D01*
X17737D01*
X17811Y401500D01*
X16273Y401033D01*
X14731Y400209D01*
X13380Y399100D01*
X12271Y397749D01*
X11447Y396208D01*
X10939Y394535D01*
X10768Y392795D01*
X10939Y391056D01*
X11447Y389383D01*
X12271Y387841D01*
X13380Y386490D01*
X14731Y385381D01*
X16273Y384557D01*
X17945Y384050D01*
X19685Y383878D01*
X21425Y384050D01*
X23097Y384557D01*
X24639Y385381D01*
X25990Y386490D01*
X27099Y387841D01*
X27923Y389383D01*
X28431Y391056D01*
X28602Y392795D01*
X28431Y394535D01*
X27923Y396208D01*
X27099Y397749D01*
X25990Y399100D01*
X24639Y400209D01*
X23097Y401033D01*
X21559Y401500D01*
X21633Y402000D01*
X644000D01*
Y2000D01*
D02*
G37*
%LPC*%
G36*
X393976Y401304D02*
X82024D01*
X81534Y401207D01*
X81118Y400929D01*
X79803Y399614D01*
X79526Y399199D01*
X79428Y398709D01*
Y389802D01*
X78928Y389632D01*
X78550Y390125D01*
X77683Y390790D01*
X76674Y391208D01*
X75591Y391351D01*
X74507Y391208D01*
X73498Y390790D01*
X72631Y390125D01*
X71966Y389258D01*
X71548Y388249D01*
X71405Y387165D01*
X71548Y386082D01*
X71966Y385073D01*
X72631Y384206D01*
X73498Y383541D01*
X74507Y383123D01*
X75591Y382980D01*
X76674Y383123D01*
X77683Y383541D01*
X78550Y384206D01*
X78928Y384699D01*
X79428Y384529D01*
Y382047D01*
X79526Y381557D01*
X79803Y381142D01*
X81884Y379061D01*
X81548Y378249D01*
X81405Y377165D01*
X81548Y376082D01*
X81966Y375073D01*
X82631Y374206D01*
X83498Y373541D01*
X84507Y373123D01*
X85591Y372980D01*
X86674Y373123D01*
X87683Y373541D01*
X88550Y374206D01*
X89215Y375073D01*
X89633Y376082D01*
X89776Y377165D01*
X89633Y378249D01*
X89215Y379258D01*
X88550Y380125D01*
X87683Y380790D01*
X86674Y381208D01*
X85591Y381351D01*
X84507Y381208D01*
X83695Y380872D01*
X81989Y382578D01*
Y384265D01*
X82463Y384425D01*
X82631Y384206D01*
X83498Y383541D01*
X84507Y383123D01*
X85591Y382980D01*
X86674Y383123D01*
X87683Y383541D01*
X88550Y384206D01*
X89215Y385073D01*
X89633Y386082D01*
X89776Y387165D01*
X89633Y388249D01*
X89215Y389258D01*
X88550Y390125D01*
X87683Y390790D01*
X86871Y391126D01*
Y397731D01*
X189267D01*
X189459Y397269D01*
X188130Y395941D01*
X187853Y395526D01*
X187755Y395036D01*
Y390283D01*
X187506Y390198D01*
X187255Y390152D01*
X186424Y390790D01*
X185414Y391208D01*
X184331Y391351D01*
X183247Y391208D01*
X182238Y390790D01*
X181371Y390125D01*
X180706Y389258D01*
X180288Y388249D01*
X180145Y387165D01*
X180288Y386082D01*
X180706Y385073D01*
X181371Y384206D01*
X182238Y383541D01*
X183247Y383123D01*
X184331Y382980D01*
X185414Y383123D01*
X186424Y383541D01*
X187255Y384179D01*
X187506Y384133D01*
X187755Y384048D01*
Y382461D01*
X187853Y381971D01*
X188130Y381555D01*
X190624Y379061D01*
X190288Y378249D01*
X190145Y377165D01*
X190288Y376082D01*
X190706Y375073D01*
X191371Y374206D01*
X192238Y373541D01*
X193247Y373123D01*
X194331Y372980D01*
X195414Y373123D01*
X196423Y373541D01*
X197290Y374206D01*
X197956Y375073D01*
X198374Y376082D01*
X198516Y377165D01*
X198374Y378249D01*
X197956Y379258D01*
X197290Y380125D01*
X196423Y380790D01*
X195414Y381208D01*
X194331Y381351D01*
X193247Y381208D01*
X192435Y380872D01*
X190316Y382991D01*
Y384760D01*
X190816Y384929D01*
X191371Y384206D01*
X192238Y383541D01*
X193247Y383123D01*
X194331Y382980D01*
X195414Y383123D01*
X196423Y383541D01*
X197290Y384206D01*
X197956Y385073D01*
X198374Y386082D01*
X198516Y387165D01*
X198374Y388249D01*
X197956Y389258D01*
X197290Y390125D01*
X196423Y390790D01*
X195611Y391126D01*
Y393800D01*
X196530Y394720D01*
X297255D01*
X297447Y394258D01*
X297094Y393905D01*
X296817Y393490D01*
X296720Y393000D01*
Y390048D01*
X296219Y389878D01*
X296030Y390125D01*
X295163Y390790D01*
X294154Y391208D01*
X293071Y391351D01*
X291987Y391208D01*
X290978Y390790D01*
X290111Y390125D01*
X289446Y389258D01*
X289028Y388249D01*
X288885Y387165D01*
X289028Y386082D01*
X289446Y385073D01*
X290111Y384206D01*
X290978Y383541D01*
X291987Y383123D01*
X293071Y382980D01*
X294154Y383123D01*
X295163Y383541D01*
X296030Y384206D01*
X296219Y384452D01*
X296720Y384283D01*
Y381000D01*
X296817Y380510D01*
X297094Y380095D01*
X299018Y378171D01*
X298885Y377165D01*
X299028Y376082D01*
X299446Y375073D01*
X300111Y374206D01*
X300978Y373541D01*
X301717Y373235D01*
X301850Y372661D01*
X291177Y361988D01*
X291000Y362023D01*
X290226Y361869D01*
X289569Y361431D01*
X289131Y360774D01*
X288977Y360000D01*
X289131Y359226D01*
X289569Y358569D01*
X290226Y358131D01*
X291000Y357977D01*
X291774Y358131D01*
X292431Y358569D01*
X292869Y359226D01*
X293023Y360000D01*
X292988Y360177D01*
X303530Y370720D01*
X305255D01*
X305447Y370258D01*
X291177Y355988D01*
X291000Y356023D01*
X290226Y355869D01*
X289569Y355431D01*
X289131Y354774D01*
X288977Y354000D01*
X289131Y353226D01*
X289569Y352569D01*
X290226Y352131D01*
X291000Y351977D01*
X291774Y352131D01*
X292431Y352569D01*
X292869Y353226D01*
X293023Y354000D01*
X292988Y354177D01*
X307530Y368720D01*
X312559D01*
X313049Y368817D01*
X313464Y369094D01*
X318681Y374311D01*
X318959Y374727D01*
X318988Y374877D01*
X319174Y374956D01*
X319518Y374978D01*
X320111Y374206D01*
X320978Y373541D01*
X321988Y373123D01*
X323071Y372980D01*
X324154Y373123D01*
X325164Y373541D01*
X326030Y374206D01*
X326695Y375073D01*
X327114Y376082D01*
X327256Y377165D01*
X327114Y378249D01*
X326695Y379258D01*
X326030Y380125D01*
X325164Y380790D01*
X324154Y381208D01*
X323071Y381351D01*
X321988Y381208D01*
X320978Y380790D01*
X320111Y380125D01*
X319556Y379401D01*
X319056Y379571D01*
Y382461D01*
X318959Y382951D01*
X318681Y383366D01*
X316777Y385270D01*
X317114Y386082D01*
X317256Y387165D01*
X317114Y388249D01*
X316695Y389258D01*
X316030Y390125D01*
X315873Y390246D01*
X316033Y390720D01*
X320108D01*
X320269Y390246D01*
X320111Y390125D01*
X319446Y389258D01*
X319028Y388249D01*
X318885Y387165D01*
X319028Y386082D01*
X319446Y385073D01*
X320111Y384206D01*
X320978Y383541D01*
X321988Y383123D01*
X323071Y382980D01*
X324154Y383123D01*
X325164Y383541D01*
X326030Y384206D01*
X326695Y385073D01*
X327114Y386082D01*
X327256Y387165D01*
X327114Y388249D01*
X326695Y389258D01*
X326030Y390125D01*
X325872Y390246D01*
X326033Y390720D01*
X330108D01*
X330269Y390246D01*
X330111Y390125D01*
X329446Y389258D01*
X329028Y388249D01*
X328951Y387665D01*
X337190D01*
X337114Y388249D01*
X336696Y389258D01*
X336030Y390125D01*
X335873Y390246D01*
X336033Y390720D01*
X340108D01*
X340269Y390246D01*
X340111Y390125D01*
X339446Y389258D01*
X339028Y388249D01*
X338885Y387165D01*
X339028Y386082D01*
X339446Y385073D01*
X340111Y384206D01*
X340978Y383541D01*
X341987Y383123D01*
X343071Y382980D01*
X344154Y383123D01*
X345163Y383541D01*
X346030Y384206D01*
X346695Y385073D01*
X347114Y386082D01*
X347256Y387165D01*
X347114Y388249D01*
X346695Y389258D01*
X346030Y390125D01*
X345872Y390246D01*
X346033Y390720D01*
X374470D01*
X392094Y373095D01*
X392510Y372817D01*
X393000Y372720D01*
X411469D01*
X411569Y372569D01*
X412226Y372131D01*
X413000Y371977D01*
X413774Y372131D01*
X414431Y372569D01*
X414869Y373226D01*
X415023Y374000D01*
X414869Y374774D01*
X414572Y375219D01*
X414830Y375719D01*
X435469D01*
X435569Y375569D01*
X436226Y375131D01*
X437000Y374977D01*
X437774Y375131D01*
X438431Y375569D01*
X438869Y376226D01*
X439023Y377000D01*
X438869Y377774D01*
X438431Y378431D01*
X437774Y378869D01*
X437000Y379023D01*
X436226Y378869D01*
X435569Y378431D01*
X435469Y378280D01*
X413830D01*
X413572Y378781D01*
X413869Y379226D01*
X414023Y380000D01*
X413869Y380774D01*
X413572Y381220D01*
X413830Y381719D01*
X422469D01*
X422569Y381569D01*
X423226Y381131D01*
X424000Y380977D01*
X424774Y381131D01*
X425431Y381569D01*
X425869Y382226D01*
X426023Y383000D01*
X425869Y383774D01*
X425572Y384220D01*
X425830Y384719D01*
X428469D01*
X428569Y384569D01*
X429226Y384131D01*
X430000Y383977D01*
X430774Y384131D01*
X431431Y384569D01*
X431869Y385226D01*
X432023Y386000D01*
X431869Y386774D01*
X431431Y387431D01*
X430774Y387869D01*
X430000Y388023D01*
X429226Y387869D01*
X428569Y387431D01*
X428469Y387281D01*
X412830D01*
X412572Y387780D01*
X412869Y388226D01*
X413023Y389000D01*
X412869Y389774D01*
X412431Y390431D01*
X411774Y390869D01*
X411000Y391023D01*
X410226Y390869D01*
X409569Y390431D01*
X409469Y390281D01*
X405530D01*
X394882Y400929D01*
X394466Y401207D01*
X393976Y401304D01*
D02*
G37*
G36*
X224831Y391285D02*
Y387665D01*
X228450D01*
X228374Y388249D01*
X227956Y389258D01*
X227290Y390125D01*
X226424Y390790D01*
X225414Y391208D01*
X224831Y391285D01*
D02*
G37*
G36*
X223831D02*
X223248Y391208D01*
X222238Y390790D01*
X221371Y390125D01*
X220706Y389258D01*
X220288Y388249D01*
X220211Y387665D01*
X223831D01*
Y391285D01*
D02*
G37*
G36*
X116091D02*
Y387665D01*
X119710D01*
X119633Y388249D01*
X119215Y389258D01*
X118550Y390125D01*
X117683Y390790D01*
X116674Y391208D01*
X116091Y391285D01*
D02*
G37*
G36*
X115091D02*
X114507Y391208D01*
X113498Y390790D01*
X112631Y390125D01*
X111966Y389258D01*
X111548Y388249D01*
X111471Y387665D01*
X115091D01*
Y391285D01*
D02*
G37*
G36*
X458000Y391224D02*
X457149Y391055D01*
X456427Y390573D01*
X455945Y389851D01*
X455776Y389000D01*
X455945Y388149D01*
X456427Y387427D01*
X457149Y386945D01*
X458000Y386776D01*
X458851Y386945D01*
X459573Y387427D01*
X460055Y388149D01*
X460224Y389000D01*
X460055Y389851D01*
X459573Y390573D01*
X458851Y391055D01*
X458000Y391224D01*
D02*
G37*
G36*
X450000D02*
X449149Y391055D01*
X448427Y390573D01*
X447945Y389851D01*
X447776Y389000D01*
X447945Y388149D01*
X448427Y387427D01*
X449149Y386945D01*
X450000Y386776D01*
X450851Y386945D01*
X451573Y387427D01*
X452055Y388149D01*
X452224Y389000D01*
X452055Y389851D01*
X451573Y390573D01*
X450851Y391055D01*
X450000Y391224D01*
D02*
G37*
G36*
X337190Y386665D02*
X333571D01*
Y383046D01*
X334154Y383123D01*
X335163Y383541D01*
X336030Y384206D01*
X336696Y385073D01*
X337114Y386082D01*
X337190Y386665D01*
D02*
G37*
G36*
X332571D02*
X328951D01*
X329028Y386082D01*
X329446Y385073D01*
X330111Y384206D01*
X330978Y383541D01*
X331988Y383123D01*
X332571Y383046D01*
Y386665D01*
D02*
G37*
G36*
X228450D02*
X224831D01*
Y383046D01*
X225414Y383123D01*
X226424Y383541D01*
X227290Y384206D01*
X227956Y385073D01*
X228374Y386082D01*
X228450Y386665D01*
D02*
G37*
G36*
X223831D02*
X220211D01*
X220288Y386082D01*
X220706Y385073D01*
X221371Y384206D01*
X222238Y383541D01*
X223248Y383123D01*
X223831Y383046D01*
Y386665D01*
D02*
G37*
G36*
X119710D02*
X116091D01*
Y383046D01*
X116674Y383123D01*
X117683Y383541D01*
X118550Y384206D01*
X119215Y385073D01*
X119633Y386082D01*
X119710Y386665D01*
D02*
G37*
G36*
X115091D02*
X111471D01*
X111548Y386082D01*
X111966Y385073D01*
X112631Y384206D01*
X113498Y383541D01*
X114507Y383123D01*
X115091Y383046D01*
Y386665D01*
D02*
G37*
G36*
X283071Y391351D02*
X281988Y391208D01*
X280978Y390790D01*
X280111Y390125D01*
X279446Y389258D01*
X279028Y388249D01*
X278885Y387165D01*
X279028Y386082D01*
X279446Y385073D01*
X280111Y384206D01*
X280978Y383541D01*
X281988Y383123D01*
X283071Y382980D01*
X284154Y383123D01*
X285163Y383541D01*
X286030Y384206D01*
X286696Y385073D01*
X287114Y386082D01*
X287256Y387165D01*
X287114Y388249D01*
X286696Y389258D01*
X286030Y390125D01*
X285163Y390790D01*
X284154Y391208D01*
X283071Y391351D01*
D02*
G37*
G36*
X234331D02*
X233247Y391208D01*
X232238Y390790D01*
X231371Y390125D01*
X230706Y389258D01*
X230288Y388249D01*
X230145Y387165D01*
X230288Y386082D01*
X230706Y385073D01*
X231371Y384206D01*
X232238Y383541D01*
X233247Y383123D01*
X234331Y382980D01*
X235414Y383123D01*
X236423Y383541D01*
X237290Y384206D01*
X237955Y385073D01*
X238374Y386082D01*
X238516Y387165D01*
X238374Y388249D01*
X237955Y389258D01*
X237290Y390125D01*
X236423Y390790D01*
X235414Y391208D01*
X234331Y391351D01*
D02*
G37*
G36*
X214331D02*
X213247Y391208D01*
X212238Y390790D01*
X211371Y390125D01*
X210706Y389258D01*
X210288Y388249D01*
X210145Y387165D01*
X210288Y386082D01*
X210706Y385073D01*
X211371Y384206D01*
X212238Y383541D01*
X213247Y383123D01*
X214331Y382980D01*
X215414Y383123D01*
X216424Y383541D01*
X217290Y384206D01*
X217955Y385073D01*
X218374Y386082D01*
X218516Y387165D01*
X218374Y388249D01*
X217955Y389258D01*
X217290Y390125D01*
X216424Y390790D01*
X215414Y391208D01*
X214331Y391351D01*
D02*
G37*
G36*
X174331D02*
X173248Y391208D01*
X172238Y390790D01*
X171371Y390125D01*
X170706Y389258D01*
X170288Y388249D01*
X170145Y387165D01*
X170288Y386082D01*
X170706Y385073D01*
X171371Y384206D01*
X172238Y383541D01*
X173248Y383123D01*
X174331Y382980D01*
X175414Y383123D01*
X176424Y383541D01*
X177290Y384206D01*
X177955Y385073D01*
X178374Y386082D01*
X178516Y387165D01*
X178374Y388249D01*
X177955Y389258D01*
X177290Y390125D01*
X176424Y390790D01*
X175414Y391208D01*
X174331Y391351D01*
D02*
G37*
G36*
X125591D02*
X124507Y391208D01*
X123498Y390790D01*
X122631Y390125D01*
X121966Y389258D01*
X121548Y388249D01*
X121405Y387165D01*
X121548Y386082D01*
X121966Y385073D01*
X122631Y384206D01*
X123498Y383541D01*
X124507Y383123D01*
X125591Y382980D01*
X126674Y383123D01*
X127683Y383541D01*
X128550Y384206D01*
X129215Y385073D01*
X129633Y386082D01*
X129776Y387165D01*
X129633Y388249D01*
X129215Y389258D01*
X128550Y390125D01*
X127683Y390790D01*
X126674Y391208D01*
X125591Y391351D01*
D02*
G37*
G36*
X105591D02*
X104507Y391208D01*
X103498Y390790D01*
X102631Y390125D01*
X101966Y389258D01*
X101548Y388249D01*
X101405Y387165D01*
X101548Y386082D01*
X101966Y385073D01*
X102631Y384206D01*
X103498Y383541D01*
X104507Y383123D01*
X105591Y382980D01*
X106674Y383123D01*
X107683Y383541D01*
X108550Y384206D01*
X109215Y385073D01*
X109633Y386082D01*
X109776Y387165D01*
X109633Y388249D01*
X109215Y389258D01*
X108550Y390125D01*
X107683Y390790D01*
X106674Y391208D01*
X105591Y391351D01*
D02*
G37*
G36*
X95591D02*
X94507Y391208D01*
X93498Y390790D01*
X92631Y390125D01*
X91966Y389258D01*
X91548Y388249D01*
X91405Y387165D01*
X91548Y386082D01*
X91966Y385073D01*
X92631Y384206D01*
X93498Y383541D01*
X94507Y383123D01*
X95591Y382980D01*
X96674Y383123D01*
X97683Y383541D01*
X98550Y384206D01*
X99215Y385073D01*
X99633Y386082D01*
X99776Y387165D01*
X99633Y388249D01*
X99215Y389258D01*
X98550Y390125D01*
X97683Y390790D01*
X96674Y391208D01*
X95591Y391351D01*
D02*
G37*
G36*
X65591D02*
X64507Y391208D01*
X63498Y390790D01*
X62631Y390125D01*
X61966Y389258D01*
X61548Y388249D01*
X61405Y387165D01*
X61548Y386082D01*
X61966Y385073D01*
X62631Y384206D01*
X63498Y383541D01*
X64507Y383123D01*
X65591Y382980D01*
X66674Y383123D01*
X67683Y383541D01*
X68550Y384206D01*
X69215Y385073D01*
X69633Y386082D01*
X69776Y387165D01*
X69633Y388249D01*
X69215Y389258D01*
X68550Y390125D01*
X67683Y390790D01*
X66674Y391208D01*
X65591Y391351D01*
D02*
G37*
G36*
X204331D02*
X203247Y391208D01*
X202238Y390790D01*
X201371Y390125D01*
X200706Y389258D01*
X200288Y388249D01*
X200145Y387165D01*
X200288Y386082D01*
X200706Y385073D01*
X201371Y384206D01*
X202238Y383541D01*
X203247Y383123D01*
X204331Y382980D01*
X205107Y383082D01*
X207937Y380252D01*
X207911Y380138D01*
X207370Y380021D01*
X207290Y380125D01*
X206423Y380790D01*
X205414Y381208D01*
X204331Y381351D01*
X203247Y381208D01*
X202238Y380790D01*
X201371Y380125D01*
X200706Y379258D01*
X200288Y378249D01*
X200145Y377165D01*
X200288Y376082D01*
X200624Y375270D01*
X197635Y372281D01*
X195000D01*
X194510Y372183D01*
X194095Y371905D01*
X192095Y369905D01*
X191817Y369490D01*
X191719Y369000D01*
Y359531D01*
X191569Y359431D01*
X191131Y358774D01*
X190977Y358000D01*
X191131Y357226D01*
X191569Y356569D01*
X192226Y356131D01*
X193000Y355977D01*
X193774Y356131D01*
X194431Y356569D01*
X194869Y357226D01*
X195023Y358000D01*
X194869Y358774D01*
X194431Y359431D01*
X194281Y359531D01*
Y368470D01*
X195530Y369720D01*
X198165D01*
X198655Y369817D01*
X199071Y370094D01*
X202435Y373459D01*
X203247Y373123D01*
X204331Y372980D01*
X205414Y373123D01*
X206423Y373541D01*
X207290Y374206D01*
X207668Y374698D01*
X208168Y374529D01*
Y365551D01*
X208266Y365061D01*
X208543Y364646D01*
X211719Y361470D01*
Y359531D01*
X211569Y359431D01*
X211131Y358774D01*
X210977Y358000D01*
X211131Y357226D01*
X211569Y356569D01*
X212226Y356131D01*
X213000Y355977D01*
X213774Y356131D01*
X214431Y356569D01*
X214869Y357226D01*
X215023Y358000D01*
X214869Y358774D01*
X214431Y359431D01*
X214281Y359531D01*
Y362000D01*
X214183Y362490D01*
X213906Y362906D01*
X210729Y366082D01*
Y374265D01*
X211203Y374425D01*
X211371Y374206D01*
X212238Y373541D01*
X213247Y373123D01*
X214331Y372980D01*
X215414Y373123D01*
X216424Y373541D01*
X217290Y374206D01*
X217955Y375073D01*
X218374Y376082D01*
X218516Y377165D01*
X218374Y378249D01*
X217955Y379258D01*
X217290Y380125D01*
X216424Y380790D01*
X215414Y381208D01*
X214331Y381351D01*
X213247Y381208D01*
X212238Y380790D01*
X211371Y380125D01*
X211203Y379905D01*
X210729Y380066D01*
Y380551D01*
X210632Y381041D01*
X210354Y381457D01*
X207427Y384384D01*
X207956Y385073D01*
X208374Y386082D01*
X208516Y387165D01*
X208374Y388249D01*
X207956Y389258D01*
X207290Y390125D01*
X206423Y390790D01*
X205414Y391208D01*
X204331Y391351D01*
D02*
G37*
G36*
X333571Y381285D02*
Y377665D01*
X337190D01*
X337114Y378249D01*
X336696Y379258D01*
X336030Y380125D01*
X335163Y380790D01*
X334154Y381208D01*
X333571Y381285D01*
D02*
G37*
G36*
X332571D02*
X331988Y381208D01*
X330978Y380790D01*
X330111Y380125D01*
X329446Y379258D01*
X329028Y378249D01*
X328951Y377665D01*
X332571D01*
Y381285D01*
D02*
G37*
G36*
X224831D02*
Y377665D01*
X228450D01*
X228374Y378249D01*
X227956Y379258D01*
X227290Y380125D01*
X226424Y380790D01*
X225414Y381208D01*
X224831Y381285D01*
D02*
G37*
G36*
X223831D02*
X223248Y381208D01*
X222238Y380790D01*
X221371Y380125D01*
X220706Y379258D01*
X220288Y378249D01*
X220211Y377665D01*
X223831D01*
Y381285D01*
D02*
G37*
G36*
X116091D02*
Y377665D01*
X119710D01*
X119633Y378249D01*
X119215Y379258D01*
X118550Y380125D01*
X117683Y380790D01*
X116674Y381208D01*
X116091Y381285D01*
D02*
G37*
G36*
X115091D02*
X114507Y381208D01*
X113498Y380790D01*
X112631Y380125D01*
X111966Y379258D01*
X111548Y378249D01*
X111471Y377665D01*
X115091D01*
Y381285D01*
D02*
G37*
G36*
X627795Y398703D02*
X626089Y398569D01*
X624425Y398169D01*
X622843Y397514D01*
X621384Y396620D01*
X620082Y395508D01*
X618971Y394207D01*
X618076Y392747D01*
X617421Y391166D01*
X617022Y389502D01*
X616888Y387795D01*
X617022Y386089D01*
X617421Y384425D01*
X618076Y382843D01*
X618971Y381384D01*
X620082Y380082D01*
X621384Y378971D01*
X622843Y378076D01*
X624425Y377421D01*
X626089Y377022D01*
X627795Y376888D01*
X629501Y377022D01*
X631166Y377421D01*
X632747Y378076D01*
X634206Y378971D01*
X635508Y380082D01*
X636620Y381384D01*
X637514Y382843D01*
X638169Y384425D01*
X638568Y386089D01*
X638703Y387795D01*
X638568Y389502D01*
X638169Y391166D01*
X637514Y392747D01*
X636620Y394207D01*
X635508Y395508D01*
X634206Y396620D01*
X632747Y397514D01*
X631166Y398169D01*
X629501Y398569D01*
X627795Y398703D01*
D02*
G37*
G36*
X337190Y376665D02*
X333571D01*
Y373046D01*
X334154Y373123D01*
X335163Y373541D01*
X336030Y374206D01*
X336696Y375073D01*
X337114Y376082D01*
X337190Y376665D01*
D02*
G37*
G36*
X332571D02*
X328951D01*
X329028Y376082D01*
X329446Y375073D01*
X330111Y374206D01*
X330978Y373541D01*
X331988Y373123D01*
X332571Y373046D01*
Y376665D01*
D02*
G37*
G36*
X228450D02*
X224831D01*
Y373046D01*
X225414Y373123D01*
X226424Y373541D01*
X227290Y374206D01*
X227956Y375073D01*
X228374Y376082D01*
X228450Y376665D01*
D02*
G37*
G36*
X223831D02*
X220211D01*
X220288Y376082D01*
X220706Y375073D01*
X221371Y374206D01*
X222238Y373541D01*
X223248Y373123D01*
X223831Y373046D01*
Y376665D01*
D02*
G37*
G36*
X119710D02*
X116091D01*
Y373046D01*
X116674Y373123D01*
X117683Y373541D01*
X118550Y374206D01*
X119215Y375073D01*
X119633Y376082D01*
X119710Y376665D01*
D02*
G37*
G36*
X115091D02*
X111471D01*
X111548Y376082D01*
X111966Y375073D01*
X112631Y374206D01*
X113498Y373541D01*
X114507Y373123D01*
X115091Y373046D01*
Y376665D01*
D02*
G37*
G36*
X287220Y381315D02*
X278921D01*
Y373016D01*
X287220D01*
Y381315D01*
D02*
G37*
G36*
X178480D02*
X170181D01*
Y373016D01*
X178480D01*
Y381315D01*
D02*
G37*
G36*
X69740D02*
X61441D01*
Y373016D01*
X69740D01*
Y381315D01*
D02*
G37*
G36*
X343071Y381351D02*
X341987Y381208D01*
X340978Y380790D01*
X340111Y380125D01*
X339446Y379258D01*
X339028Y378249D01*
X338885Y377165D01*
X339028Y376082D01*
X339446Y375073D01*
X340111Y374206D01*
X340978Y373541D01*
X341987Y373123D01*
X343071Y372980D01*
X344154Y373123D01*
X345163Y373541D01*
X346030Y374206D01*
X346695Y375073D01*
X347114Y376082D01*
X347256Y377165D01*
X347114Y378249D01*
X346695Y379258D01*
X346030Y380125D01*
X345163Y380790D01*
X344154Y381208D01*
X343071Y381351D01*
D02*
G37*
G36*
X293071D02*
X291987Y381208D01*
X290978Y380790D01*
X290111Y380125D01*
X289446Y379258D01*
X289028Y378249D01*
X288885Y377165D01*
X289028Y376082D01*
X289446Y375073D01*
X290111Y374206D01*
X290978Y373541D01*
X291987Y373123D01*
X293071Y372980D01*
X294154Y373123D01*
X295163Y373541D01*
X296030Y374206D01*
X296695Y375073D01*
X297114Y376082D01*
X297256Y377165D01*
X297114Y378249D01*
X296695Y379258D01*
X296030Y380125D01*
X295163Y380790D01*
X294154Y381208D01*
X293071Y381351D01*
D02*
G37*
G36*
X234331D02*
X233247Y381208D01*
X232238Y380790D01*
X231371Y380125D01*
X230706Y379258D01*
X230288Y378249D01*
X230145Y377165D01*
X230288Y376082D01*
X230706Y375073D01*
X231371Y374206D01*
X232238Y373541D01*
X233247Y373123D01*
X234331Y372980D01*
X235414Y373123D01*
X236423Y373541D01*
X237290Y374206D01*
X237955Y375073D01*
X238374Y376082D01*
X238516Y377165D01*
X238374Y378249D01*
X237955Y379258D01*
X237290Y380125D01*
X236423Y380790D01*
X235414Y381208D01*
X234331Y381351D01*
D02*
G37*
G36*
X184331D02*
X183247Y381208D01*
X182238Y380790D01*
X181371Y380125D01*
X180706Y379258D01*
X180288Y378249D01*
X180145Y377165D01*
X180288Y376082D01*
X180706Y375073D01*
X181371Y374206D01*
X182238Y373541D01*
X183247Y373123D01*
X184331Y372980D01*
X185414Y373123D01*
X186424Y373541D01*
X187290Y374206D01*
X187955Y375073D01*
X188374Y376082D01*
X188516Y377165D01*
X188374Y378249D01*
X187955Y379258D01*
X187290Y380125D01*
X186424Y380790D01*
X185414Y381208D01*
X184331Y381351D01*
D02*
G37*
G36*
X125591D02*
X124507Y381208D01*
X123498Y380790D01*
X122631Y380125D01*
X121966Y379258D01*
X121548Y378249D01*
X121405Y377165D01*
X121548Y376082D01*
X121966Y375073D01*
X122631Y374206D01*
X123498Y373541D01*
X124507Y373123D01*
X125591Y372980D01*
X126674Y373123D01*
X127683Y373541D01*
X128550Y374206D01*
X129215Y375073D01*
X129633Y376082D01*
X129776Y377165D01*
X129633Y378249D01*
X129215Y379258D01*
X128550Y380125D01*
X127683Y380790D01*
X126674Y381208D01*
X125591Y381351D01*
D02*
G37*
G36*
X105591D02*
X104507Y381208D01*
X103498Y380790D01*
X102631Y380125D01*
X101966Y379258D01*
X101548Y378249D01*
X101405Y377165D01*
X101548Y376082D01*
X101966Y375073D01*
X102631Y374206D01*
X103498Y373541D01*
X104507Y373123D01*
X105591Y372980D01*
X106674Y373123D01*
X107683Y373541D01*
X108550Y374206D01*
X109215Y375073D01*
X109633Y376082D01*
X109776Y377165D01*
X109633Y378249D01*
X109215Y379258D01*
X108550Y380125D01*
X107683Y380790D01*
X106674Y381208D01*
X105591Y381351D01*
D02*
G37*
G36*
X95591D02*
X94507Y381208D01*
X93498Y380790D01*
X92631Y380125D01*
X91966Y379258D01*
X91548Y378249D01*
X91405Y377165D01*
X91548Y376082D01*
X91966Y375073D01*
X92631Y374206D01*
X93498Y373541D01*
X94507Y373123D01*
X95591Y372980D01*
X96674Y373123D01*
X97683Y373541D01*
X98550Y374206D01*
X99215Y375073D01*
X99633Y376082D01*
X99776Y377165D01*
X99633Y378249D01*
X99215Y379258D01*
X98550Y380125D01*
X97683Y380790D01*
X96674Y381208D01*
X95591Y381351D01*
D02*
G37*
G36*
X75591D02*
X74507Y381208D01*
X73498Y380790D01*
X72631Y380125D01*
X71966Y379258D01*
X71548Y378249D01*
X71405Y377165D01*
X71548Y376082D01*
X71966Y375073D01*
X72631Y374206D01*
X73498Y373541D01*
X74507Y373123D01*
X75591Y372980D01*
X76674Y373123D01*
X77683Y373541D01*
X78550Y374206D01*
X79215Y375073D01*
X79633Y376082D01*
X79776Y377165D01*
X79633Y378249D01*
X79215Y379258D01*
X78550Y380125D01*
X77683Y380790D01*
X76674Y381208D01*
X75591Y381351D01*
D02*
G37*
G36*
X27835Y361036D02*
X26751Y360893D01*
X25742Y360475D01*
X24875Y359810D01*
X24210Y358943D01*
X23792Y357934D01*
X23649Y356850D01*
X23792Y355767D01*
X24210Y354758D01*
X24875Y353891D01*
X25742Y353226D01*
X26751Y352808D01*
X27835Y352665D01*
X28918Y352808D01*
X29927Y353226D01*
X30794Y353891D01*
X31459Y354758D01*
X31877Y355767D01*
X32020Y356850D01*
X31877Y357934D01*
X31459Y358943D01*
X30794Y359810D01*
X29927Y360475D01*
X28918Y360893D01*
X27835Y361036D01*
D02*
G37*
G36*
X17835D02*
X16751Y360893D01*
X15742Y360475D01*
X14875Y359810D01*
X14210Y358943D01*
X13792Y357934D01*
X13649Y356850D01*
X13792Y355767D01*
X14210Y354758D01*
X14875Y353891D01*
X15742Y353226D01*
X16751Y352808D01*
X17835Y352665D01*
X18918Y352808D01*
X19927Y353226D01*
X20794Y353891D01*
X21459Y354758D01*
X21877Y355767D01*
X22020Y356850D01*
X21877Y357934D01*
X21459Y358943D01*
X20794Y359810D01*
X19927Y360475D01*
X18918Y360893D01*
X17835Y361036D01*
D02*
G37*
G36*
X603937Y350570D02*
X602893Y350432D01*
X601920Y350029D01*
X601084Y349388D01*
X600443Y348553D01*
X600040Y347581D01*
X599679Y347509D01*
X599264Y347231D01*
X598407Y346374D01*
X597959Y346633D01*
X597834Y347580D01*
X597431Y348553D01*
X596790Y349388D01*
X595954Y350029D01*
X594981Y350432D01*
X593937Y350570D01*
X592893Y350432D01*
X591920Y350029D01*
X591084Y349388D01*
X590443Y348553D01*
X590138Y347816D01*
X589535D01*
X589045Y347718D01*
X588630Y347441D01*
X580094Y338906D01*
X579817Y338490D01*
X579719Y338000D01*
Y304675D01*
X579258Y304484D01*
X560727Y323014D01*
X560869Y323226D01*
X561023Y324000D01*
X560869Y324774D01*
X560431Y325431D01*
X559774Y325869D01*
X559000Y326023D01*
X558226Y325869D01*
X557569Y325431D01*
X557131Y324774D01*
X556977Y324000D01*
X557131Y323226D01*
X557337Y322917D01*
X557226Y322385D01*
X556569Y321946D01*
X556131Y321290D01*
X555977Y320516D01*
X556131Y319742D01*
X556569Y319085D01*
X557226Y318647D01*
X558000Y318493D01*
X558774Y318647D01*
X559431Y319085D01*
X559890Y319130D01*
X576779Y302241D01*
Y290973D01*
X576317Y290781D01*
X558860Y308239D01*
Y308738D01*
X558864Y308742D01*
X559128Y309138D01*
X559181Y309403D01*
X559431Y309569D01*
X559869Y310226D01*
X560023Y311000D01*
X559869Y311774D01*
X559431Y312431D01*
X558774Y312869D01*
X558000Y313023D01*
X557226Y312869D01*
X556569Y312431D01*
X556131Y311774D01*
X556034Y311288D01*
X555843Y310979D01*
X555491Y310925D01*
X555000Y311023D01*
X554226Y310869D01*
X553569Y310431D01*
X553131Y309774D01*
X552977Y309000D01*
X553131Y308226D01*
X553569Y307569D01*
X554226Y307131D01*
X555000Y306977D01*
X555393Y307055D01*
X555537Y306840D01*
X573883Y288494D01*
Y287896D01*
X573976Y287428D01*
X574241Y287032D01*
X574779Y286494D01*
Y224686D01*
X574317Y224494D01*
X493988Y304823D01*
X494023Y305000D01*
X493869Y305774D01*
X493431Y306431D01*
X492774Y306869D01*
X492000Y307023D01*
X491226Y306869D01*
X490569Y306431D01*
X490131Y305774D01*
X489977Y305000D01*
X490131Y304226D01*
X490569Y303569D01*
X491226Y303131D01*
X492000Y302977D01*
X492177Y303012D01*
X572731Y222458D01*
Y216733D01*
X572269Y216542D01*
X483988Y304823D01*
X484023Y305000D01*
X483869Y305774D01*
X483431Y306431D01*
X482774Y306869D01*
X482000Y307023D01*
X481226Y306869D01*
X480569Y306431D01*
X480131Y305774D01*
X479977Y305000D01*
X480131Y304226D01*
X480569Y303569D01*
X481226Y303131D01*
X482000Y302977D01*
X482177Y303012D01*
X570719Y214470D01*
Y182447D01*
X570220Y182240D01*
X556866Y195593D01*
X556855Y196160D01*
X557294Y196817D01*
X557448Y197591D01*
X557294Y198365D01*
X556855Y199022D01*
X556199Y199460D01*
X555425Y199614D01*
X554651Y199460D01*
X553994Y199022D01*
X553556Y198365D01*
X553402Y197591D01*
X553448Y197358D01*
X553095Y197004D01*
X553000Y197023D01*
X552226Y196869D01*
X551569Y196431D01*
X551131Y195774D01*
X550977Y195000D01*
X551131Y194226D01*
X551569Y193569D01*
X552226Y193131D01*
X553000Y192977D01*
X553774Y193131D01*
X554274Y193465D01*
X567621Y180118D01*
X567704Y179701D01*
X567968Y179304D01*
X568273Y179000D01*
X559812Y170539D01*
X559350Y170730D01*
Y172604D01*
X559257Y173071D01*
X558992Y173468D01*
X554866Y177593D01*
X554855Y178161D01*
X555294Y178817D01*
X555448Y179591D01*
X555294Y180365D01*
X554855Y181022D01*
X554199Y181460D01*
X553425Y181614D01*
X552651Y181460D01*
X551994Y181022D01*
X551556Y180365D01*
X551402Y179591D01*
X551448Y179358D01*
X551095Y179004D01*
X551000Y179023D01*
X550226Y178869D01*
X549569Y178431D01*
X549131Y177774D01*
X548977Y177000D01*
X549131Y176226D01*
X549569Y175569D01*
X550226Y175131D01*
X551000Y174977D01*
X551774Y175131D01*
X552274Y175465D01*
X556011Y171727D01*
Y169272D01*
X541781Y155041D01*
X541281Y155248D01*
Y156000D01*
X541183Y156490D01*
X540906Y156905D01*
X501988Y195823D01*
X502023Y196000D01*
X501869Y196774D01*
X501431Y197431D01*
X500774Y197869D01*
X500000Y198023D01*
X499226Y197869D01*
X498569Y197431D01*
X498131Y196774D01*
X497977Y196000D01*
X498131Y195226D01*
X498569Y194569D01*
X499226Y194131D01*
X500000Y193977D01*
X500177Y194012D01*
X538689Y155500D01*
X532742Y149553D01*
X532280Y149745D01*
Y152000D01*
X532183Y152490D01*
X531906Y152905D01*
X488905Y195905D01*
X488490Y196183D01*
X488000Y196281D01*
X471531D01*
X471431Y196431D01*
X470774Y196869D01*
X470000Y197023D01*
X469226Y196869D01*
X468569Y196431D01*
X468131Y195774D01*
X467977Y195000D01*
X468131Y194226D01*
X468569Y193569D01*
X469226Y193131D01*
X470000Y192977D01*
X470774Y193131D01*
X471431Y193569D01*
X471531Y193719D01*
X487470D01*
X529719Y151470D01*
Y149530D01*
X494470Y114280D01*
X489000D01*
X488510Y114183D01*
X488095Y113905D01*
X455367Y81177D01*
X451398D01*
X450908Y81080D01*
X450493Y80802D01*
X422094Y52404D01*
X421817Y51989D01*
X421720Y51499D01*
Y45000D01*
X421817Y44510D01*
X422094Y44094D01*
X425850Y40339D01*
Y33850D01*
X434150D01*
Y42150D01*
X427661D01*
X424281Y45530D01*
Y50968D01*
X425388Y52076D01*
X425850Y51885D01*
Y45850D01*
X434150D01*
Y46038D01*
X434650Y46245D01*
X438206Y42689D01*
X438574Y42442D01*
X438603Y42290D01*
X438605Y41914D01*
X437907Y41625D01*
X437041Y40960D01*
X436375Y40093D01*
X435957Y39083D01*
X435815Y38000D01*
X435957Y36917D01*
X436375Y35907D01*
X437041Y35041D01*
X437907Y34375D01*
X438917Y33957D01*
X440000Y33815D01*
X441083Y33957D01*
X442093Y34375D01*
X442959Y35041D01*
X443625Y35907D01*
X444043Y36917D01*
X444185Y38000D01*
X444043Y39083D01*
X443625Y40093D01*
X442959Y40960D01*
X442093Y41625D01*
X441221Y41986D01*
Y43320D01*
X441128Y43788D01*
X440986Y44000D01*
X441128Y44212D01*
X441221Y44680D01*
Y46014D01*
X442093Y46375D01*
X442959Y47041D01*
X443625Y47907D01*
X443632Y47925D01*
X444132Y47826D01*
Y47268D01*
X444225Y46801D01*
X444490Y46405D01*
X448206Y42689D01*
X448574Y42442D01*
X448603Y42290D01*
X448605Y41914D01*
X447907Y41625D01*
X447041Y40960D01*
X446375Y40093D01*
X445957Y39083D01*
X445815Y38000D01*
X445957Y36917D01*
X446375Y35907D01*
X447041Y35041D01*
X447907Y34375D01*
X448917Y33957D01*
X450000Y33815D01*
X451083Y33957D01*
X452093Y34375D01*
X452959Y35041D01*
X453625Y35907D01*
X454043Y36917D01*
X454185Y38000D01*
X454043Y39083D01*
X453625Y40093D01*
X452959Y40960D01*
X452093Y41625D01*
X451221Y41986D01*
Y43320D01*
X451128Y43788D01*
X450986Y44000D01*
X451128Y44212D01*
X451221Y44680D01*
Y46014D01*
X452093Y46375D01*
X452959Y47041D01*
X453552Y47813D01*
X453897Y47791D01*
X454082Y47712D01*
X454112Y47561D01*
X454390Y47146D01*
X458719Y42816D01*
Y41961D01*
X457907Y41625D01*
X457041Y40960D01*
X456375Y40093D01*
X455957Y39083D01*
X455815Y38000D01*
X455957Y36917D01*
X456375Y35907D01*
X457041Y35041D01*
X457907Y34375D01*
X458917Y33957D01*
X460000Y33815D01*
X461083Y33957D01*
X462093Y34375D01*
X462959Y35041D01*
X463625Y35907D01*
X464043Y36917D01*
X464185Y38000D01*
X464043Y39083D01*
X463625Y40093D01*
X462959Y40960D01*
X462093Y41625D01*
X461280Y41961D01*
Y43347D01*
X461183Y43837D01*
X460906Y44252D01*
X459783Y45375D01*
X459899Y45610D01*
X460044Y45820D01*
X461083Y45957D01*
X462093Y46375D01*
X462959Y47041D01*
X463625Y47907D01*
X463632Y47925D01*
X464132Y47826D01*
Y47268D01*
X464225Y46801D01*
X464490Y46405D01*
X468206Y42689D01*
X468574Y42442D01*
X468603Y42290D01*
X468605Y41914D01*
X467907Y41625D01*
X467040Y40960D01*
X466375Y40093D01*
X465957Y39083D01*
X465815Y38000D01*
X465957Y36917D01*
X466375Y35907D01*
X467040Y35041D01*
X467907Y34375D01*
X468917Y33957D01*
X470000Y33815D01*
X471083Y33957D01*
X472093Y34375D01*
X472960Y35041D01*
X473625Y35907D01*
X474043Y36917D01*
X474185Y38000D01*
X474043Y39083D01*
X473625Y40093D01*
X472960Y40960D01*
X472093Y41625D01*
X471221Y41986D01*
Y43320D01*
X471128Y43788D01*
X470987Y44000D01*
X471128Y44212D01*
X471221Y44680D01*
Y46014D01*
X472093Y46375D01*
X472960Y47041D01*
X473625Y47907D01*
X474043Y48917D01*
X474185Y50000D01*
X474043Y51083D01*
X473625Y52093D01*
X472960Y52960D01*
X472093Y53625D01*
X471083Y54043D01*
X470000Y54185D01*
X468917Y54043D01*
X467970Y53651D01*
X467470Y53841D01*
Y64476D01*
X476605Y73611D01*
X477083Y73466D01*
X477131Y73226D01*
X477569Y72569D01*
X478226Y72131D01*
X479000Y71977D01*
X479774Y72131D01*
X480431Y72569D01*
X480521Y72706D01*
X481021D01*
X481112Y72569D01*
X481769Y72131D01*
X482543Y71977D01*
X483317Y72131D01*
X483515Y72263D01*
X484015Y71996D01*
Y52406D01*
X483515Y52236D01*
X482960Y52960D01*
X482093Y53625D01*
X481083Y54043D01*
X480000Y54185D01*
X478917Y54043D01*
X477907Y53625D01*
X477040Y52960D01*
X476375Y52093D01*
X475957Y51083D01*
X475815Y50000D01*
X475957Y48917D01*
X476375Y47907D01*
X477040Y47041D01*
X477907Y46375D01*
X478917Y45957D01*
X480000Y45815D01*
X481083Y45957D01*
X482093Y46375D01*
X482960Y47041D01*
X483515Y47764D01*
X484015Y47594D01*
Y42705D01*
X484112Y42215D01*
X484390Y41799D01*
X486294Y39895D01*
X485957Y39083D01*
X485815Y38000D01*
X485957Y36917D01*
X486375Y35907D01*
X487041Y35041D01*
X487907Y34375D01*
X488917Y33957D01*
X490000Y33815D01*
X491083Y33957D01*
X492093Y34375D01*
X492959Y35041D01*
X493625Y35907D01*
X494043Y36917D01*
X494138Y37643D01*
X494666Y37823D01*
X495177Y37312D01*
X495593Y37034D01*
X495951Y36963D01*
X495957Y36917D01*
X496375Y35907D01*
X497041Y35041D01*
X497907Y34375D01*
X498917Y33957D01*
X500000Y33815D01*
X501083Y33957D01*
X502093Y34375D01*
X502959Y35041D01*
X503625Y35907D01*
X504043Y36917D01*
X504185Y38000D01*
X504043Y39083D01*
X503625Y40093D01*
X502959Y40960D01*
X502093Y41625D01*
X501083Y42043D01*
X500000Y42185D01*
X498917Y42043D01*
X497907Y41625D01*
X497076Y40987D01*
X496825Y41033D01*
X496576Y41117D01*
Y46883D01*
X496825Y46967D01*
X497076Y47013D01*
X497907Y46375D01*
X498917Y45957D01*
X500000Y45815D01*
X501083Y45957D01*
X502093Y46375D01*
X502959Y47041D01*
X503625Y47907D01*
X504043Y48917D01*
X504185Y50000D01*
X504043Y51083D01*
X503625Y52093D01*
X502959Y52960D01*
X502093Y53625D01*
X501280Y53961D01*
Y85470D01*
X587886Y172075D01*
X588163Y172490D01*
X588261Y172980D01*
Y250700D01*
X592232D01*
X592331Y250200D01*
X591920Y250029D01*
X591084Y249388D01*
X590443Y248553D01*
X590040Y247580D01*
X589902Y246535D01*
X590040Y245491D01*
X590443Y244518D01*
X591084Y243683D01*
X591920Y243041D01*
X592893Y242638D01*
X593937Y242501D01*
X594981Y242638D01*
X595954Y243041D01*
X596790Y243683D01*
X597431Y244518D01*
X597834Y245491D01*
X597971Y246535D01*
X597834Y247580D01*
X597431Y248553D01*
X596790Y249388D01*
X595954Y250029D01*
X595543Y250200D01*
X595642Y250700D01*
X599382D01*
X599872Y250797D01*
X600287Y251075D01*
X602156Y252943D01*
X602893Y252638D01*
X603937Y252501D01*
X604981Y252638D01*
X605954Y253041D01*
X606790Y253683D01*
X607431Y254518D01*
X607834Y255491D01*
X607971Y256535D01*
X607834Y257580D01*
X607431Y258553D01*
X606790Y259388D01*
X605954Y260029D01*
X604981Y260433D01*
X603937Y260570D01*
X602893Y260433D01*
X601920Y260029D01*
X601084Y259388D01*
X600443Y258553D01*
X600040Y257580D01*
X599902Y256535D01*
X600040Y255491D01*
X600345Y254754D01*
X598851Y253261D01*
X596983D01*
X596850Y253761D01*
X597431Y254518D01*
X597834Y255491D01*
X597971Y256535D01*
X597834Y257580D01*
X597431Y258553D01*
X596790Y259388D01*
X595954Y260029D01*
X594981Y260433D01*
X593937Y260570D01*
X592893Y260433D01*
X591920Y260029D01*
X591084Y259388D01*
X590443Y258553D01*
X590138Y257816D01*
X587535D01*
X587045Y257718D01*
X586630Y257441D01*
X584742Y255553D01*
X584280Y255745D01*
Y337470D01*
X587273Y340462D01*
X591699D01*
X591774Y340315D01*
X591832Y339962D01*
X591084Y339388D01*
X590443Y338553D01*
X590040Y337580D01*
X589902Y336535D01*
X590040Y335491D01*
X590443Y334518D01*
X591084Y333683D01*
X591920Y333041D01*
X592893Y332638D01*
X593937Y332501D01*
X594981Y332638D01*
X595954Y333041D01*
X596790Y333683D01*
X597431Y334518D01*
X597834Y335491D01*
X597971Y336535D01*
X597834Y337580D01*
X597431Y338553D01*
X596790Y339388D01*
X595958Y340026D01*
X595956Y340044D01*
X596012Y340547D01*
X596076Y340560D01*
X596492Y340837D01*
X600009Y344354D01*
X600633Y344271D01*
X601084Y343683D01*
X601920Y343041D01*
X602893Y342638D01*
X603937Y342501D01*
X604981Y342638D01*
X605954Y343041D01*
X606790Y343683D01*
X607431Y344518D01*
X607834Y345491D01*
X607971Y346535D01*
X607834Y347580D01*
X607431Y348553D01*
X606790Y349388D01*
X605954Y350029D01*
X604981Y350432D01*
X603937Y350570D01*
D02*
G37*
G36*
X27835Y351036D02*
X26751Y350893D01*
X25742Y350475D01*
X24875Y349810D01*
X24210Y348943D01*
X23792Y347934D01*
X23649Y346850D01*
X23792Y345767D01*
X24210Y344758D01*
X24875Y343891D01*
X25742Y343226D01*
X26751Y342808D01*
X27835Y342665D01*
X28918Y342808D01*
X29927Y343226D01*
X30794Y343891D01*
X31459Y344758D01*
X31877Y345767D01*
X32020Y346850D01*
X31877Y347934D01*
X31459Y348943D01*
X30794Y349810D01*
X29927Y350475D01*
X28918Y350893D01*
X27835Y351036D01*
D02*
G37*
G36*
X17835D02*
X16751Y350893D01*
X15742Y350475D01*
X14875Y349810D01*
X14210Y348943D01*
X13792Y347934D01*
X13649Y346850D01*
X13792Y345767D01*
X14210Y344758D01*
X14875Y343891D01*
X15742Y343226D01*
X16751Y342808D01*
X17835Y342665D01*
X18918Y342808D01*
X19927Y343226D01*
X20794Y343891D01*
X21459Y344758D01*
X21877Y345767D01*
X22020Y346850D01*
X21877Y347934D01*
X21459Y348943D01*
X20794Y349810D01*
X19927Y350475D01*
X18918Y350893D01*
X17835Y351036D01*
D02*
G37*
G36*
X536221Y347106D02*
X535369Y346936D01*
X534648Y346454D01*
X534166Y345733D01*
X533997Y344882D01*
X534166Y344031D01*
X534648Y343309D01*
X535369Y342827D01*
X536221Y342658D01*
X537072Y342827D01*
X537793Y343309D01*
X538275Y344031D01*
X538444Y344882D01*
X538275Y345733D01*
X537793Y346454D01*
X537072Y346936D01*
X536221Y347106D01*
D02*
G37*
G36*
X429000Y340023D02*
X428226Y339869D01*
X427717Y339529D01*
X154283D01*
X153774Y339869D01*
X153000Y340023D01*
X152226Y339869D01*
X151569Y339431D01*
X151131Y338774D01*
X150977Y338000D01*
X151131Y337226D01*
X151569Y336569D01*
X152226Y336131D01*
X153000Y335977D01*
X153774Y336131D01*
X154283Y336471D01*
X190995D01*
X191262Y335971D01*
X191131Y335774D01*
X190977Y335000D01*
X191131Y334226D01*
X191569Y333569D01*
X192226Y333131D01*
X193000Y332977D01*
X193774Y333131D01*
X194283Y333471D01*
X230995D01*
X231262Y332971D01*
X231131Y332774D01*
X230977Y332000D01*
X231131Y331226D01*
X231262Y331029D01*
X230995Y330529D01*
X174283D01*
X173774Y330869D01*
X173000Y331023D01*
X172226Y330869D01*
X171569Y330431D01*
X171131Y329774D01*
X170977Y329000D01*
X171131Y328226D01*
X171569Y327569D01*
X172226Y327131D01*
X173000Y326977D01*
X173774Y327131D01*
X174283Y327471D01*
X255995D01*
X256262Y326971D01*
X256131Y326774D01*
X255977Y326000D01*
X256131Y325226D01*
X256262Y325029D01*
X255995Y324529D01*
X214283D01*
X213774Y324869D01*
X213000Y325023D01*
X212226Y324869D01*
X211569Y324431D01*
X211131Y323774D01*
X210977Y323000D01*
X211131Y322226D01*
X211569Y321569D01*
X212226Y321131D01*
X213000Y320977D01*
X213774Y321131D01*
X214283Y321471D01*
X398717D01*
X399226Y321131D01*
X400000Y320977D01*
X400774Y321131D01*
X401431Y321569D01*
X401869Y322226D01*
X402023Y323000D01*
X401869Y323774D01*
X401738Y323971D01*
X402005Y324471D01*
X405717D01*
X406226Y324131D01*
X407000Y323977D01*
X407774Y324131D01*
X408431Y324569D01*
X408869Y325226D01*
X409023Y326000D01*
X408869Y326774D01*
X408738Y326971D01*
X409005Y327471D01*
X411717D01*
X412226Y327131D01*
X413000Y326977D01*
X413774Y327131D01*
X414431Y327569D01*
X414869Y328226D01*
X415023Y329000D01*
X414869Y329774D01*
X414738Y329971D01*
X415005Y330471D01*
X416717D01*
X417226Y330131D01*
X418000Y329977D01*
X418774Y330131D01*
X419431Y330569D01*
X419869Y331226D01*
X420023Y332000D01*
X419869Y332774D01*
X419738Y332971D01*
X420005Y333471D01*
X421717D01*
X422226Y333131D01*
X423000Y332977D01*
X423774Y333131D01*
X424431Y333569D01*
X424869Y334226D01*
X425023Y335000D01*
X424869Y335774D01*
X424738Y335971D01*
X425005Y336471D01*
X427717D01*
X428226Y336131D01*
X429000Y335977D01*
X429774Y336131D01*
X430431Y336569D01*
X430869Y337226D01*
X431023Y338000D01*
X430869Y338774D01*
X430431Y339431D01*
X429774Y339869D01*
X429000Y340023D01*
D02*
G37*
G36*
X31984Y341000D02*
X23685D01*
Y332701D01*
X31984D01*
Y341000D01*
D02*
G37*
G36*
X17835Y341036D02*
X16751Y340893D01*
X15742Y340475D01*
X14875Y339810D01*
X14210Y338943D01*
X13792Y337934D01*
X13649Y336850D01*
X13792Y335767D01*
X14210Y334758D01*
X14875Y333891D01*
X15742Y333226D01*
X16751Y332808D01*
X17835Y332665D01*
X18918Y332808D01*
X19927Y333226D01*
X20794Y333891D01*
X21459Y334758D01*
X21877Y335767D01*
X22020Y336850D01*
X21877Y337934D01*
X21459Y338943D01*
X20794Y339810D01*
X19927Y340475D01*
X18918Y340893D01*
X17835Y341036D01*
D02*
G37*
G36*
X603937Y340570D02*
X602893Y340433D01*
X601920Y340029D01*
X601084Y339388D01*
X600443Y338553D01*
X600040Y337580D01*
X599902Y336535D01*
X600040Y335491D01*
X600443Y334518D01*
X601084Y333683D01*
X601920Y333041D01*
X602893Y332638D01*
X603937Y332501D01*
X604981Y332638D01*
X605954Y333041D01*
X606790Y333683D01*
X607431Y334518D01*
X607834Y335491D01*
X607971Y336535D01*
X607834Y337580D01*
X607431Y338553D01*
X606790Y339388D01*
X605954Y340029D01*
X604981Y340433D01*
X603937Y340570D01*
D02*
G37*
G36*
X488000Y330224D02*
X487149Y330055D01*
X486427Y329573D01*
X485945Y328851D01*
X485776Y328000D01*
X485945Y327149D01*
X486427Y326428D01*
X487149Y325945D01*
X488000Y325776D01*
X488851Y325945D01*
X489572Y326428D01*
X490055Y327149D01*
X490224Y328000D01*
X490055Y328851D01*
X489572Y329573D01*
X488851Y330055D01*
X488000Y330224D01*
D02*
G37*
G36*
X480000D02*
X479149Y330055D01*
X478428Y329573D01*
X477945Y328851D01*
X477776Y328000D01*
X477945Y327149D01*
X478428Y326428D01*
X479149Y325945D01*
X480000Y325776D01*
X480851Y325945D01*
X481572Y326428D01*
X482055Y327149D01*
X482224Y328000D01*
X482055Y328851D01*
X481572Y329573D01*
X480851Y330055D01*
X480000Y330224D01*
D02*
G37*
G36*
X603937Y330570D02*
X602893Y330433D01*
X601920Y330029D01*
X601084Y329388D01*
X600443Y328553D01*
X600040Y327580D01*
X599902Y326535D01*
X600040Y325491D01*
X600443Y324518D01*
X601084Y323683D01*
X601920Y323041D01*
X602893Y322638D01*
X603937Y322501D01*
X604981Y322638D01*
X605954Y323041D01*
X606790Y323683D01*
X607431Y324518D01*
X607834Y325491D01*
X607971Y326535D01*
X607834Y327580D01*
X607431Y328553D01*
X606790Y329388D01*
X605954Y330029D01*
X604981Y330433D01*
X603937Y330570D01*
D02*
G37*
G36*
X593937D02*
X592893Y330433D01*
X591920Y330029D01*
X591084Y329388D01*
X590443Y328553D01*
X590040Y327580D01*
X589902Y326535D01*
X590040Y325491D01*
X590443Y324518D01*
X591084Y323683D01*
X591920Y323041D01*
X592893Y322638D01*
X593937Y322501D01*
X594981Y322638D01*
X595954Y323041D01*
X596790Y323683D01*
X597431Y324518D01*
X597834Y325491D01*
X597971Y326535D01*
X597834Y327580D01*
X597431Y328553D01*
X596790Y329388D01*
X595954Y330029D01*
X594981Y330433D01*
X593937Y330570D01*
D02*
G37*
G36*
X293000Y318224D02*
X292149Y318055D01*
X291427Y317572D01*
X290945Y316851D01*
X290776Y316000D01*
X290945Y315149D01*
X291427Y314427D01*
X292149Y313945D01*
X293000Y313776D01*
X293851Y313945D01*
X294572Y314427D01*
X295055Y315149D01*
X295224Y316000D01*
X295055Y316851D01*
X294572Y317572D01*
X293851Y318055D01*
X293000Y318224D01*
D02*
G37*
G36*
X603937Y320570D02*
X602893Y320432D01*
X601920Y320029D01*
X601084Y319388D01*
X600443Y318553D01*
X600040Y317580D01*
X599902Y316535D01*
X600040Y315491D01*
X600443Y314518D01*
X601084Y313683D01*
X601920Y313041D01*
X602893Y312638D01*
X603937Y312501D01*
X604981Y312638D01*
X605954Y313041D01*
X606790Y313683D01*
X607431Y314518D01*
X607834Y315491D01*
X607971Y316535D01*
X607834Y317580D01*
X607431Y318553D01*
X606790Y319388D01*
X605954Y320029D01*
X604981Y320432D01*
X603937Y320570D01*
D02*
G37*
G36*
X593937D02*
X592893Y320432D01*
X591920Y320029D01*
X591084Y319388D01*
X590443Y318553D01*
X590040Y317580D01*
X589902Y316535D01*
X590040Y315491D01*
X590443Y314518D01*
X591084Y313683D01*
X591920Y313041D01*
X592893Y312638D01*
X593937Y312501D01*
X594981Y312638D01*
X595954Y313041D01*
X596790Y313683D01*
X597431Y314518D01*
X597834Y315491D01*
X597971Y316535D01*
X597834Y317580D01*
X597431Y318553D01*
X596790Y319388D01*
X595954Y320029D01*
X594981Y320432D01*
X593937Y320570D01*
D02*
G37*
G36*
X603937Y310570D02*
X602893Y310433D01*
X601920Y310029D01*
X601084Y309388D01*
X600443Y308553D01*
X600040Y307580D01*
X599902Y306535D01*
X600040Y305491D01*
X600443Y304518D01*
X601084Y303683D01*
X601920Y303041D01*
X602893Y302638D01*
X603937Y302501D01*
X604981Y302638D01*
X605954Y303041D01*
X606790Y303683D01*
X607431Y304518D01*
X607834Y305491D01*
X607971Y306535D01*
X607834Y307580D01*
X607431Y308553D01*
X606790Y309388D01*
X605954Y310029D01*
X604981Y310433D01*
X603937Y310570D01*
D02*
G37*
G36*
X593937D02*
X592893Y310433D01*
X591920Y310029D01*
X591084Y309388D01*
X590443Y308553D01*
X590040Y307580D01*
X589902Y306535D01*
X590040Y305491D01*
X590443Y304518D01*
X591084Y303683D01*
X591920Y303041D01*
X592893Y302638D01*
X593937Y302501D01*
X594981Y302638D01*
X595954Y303041D01*
X596790Y303683D01*
X597431Y304518D01*
X597834Y305491D01*
X597971Y306535D01*
X597834Y307580D01*
X597431Y308553D01*
X596790Y309388D01*
X595954Y310029D01*
X594981Y310433D01*
X593937Y310570D01*
D02*
G37*
G36*
X153000Y304023D02*
X152226Y303869D01*
X151569Y303431D01*
X151131Y302774D01*
X150977Y302000D01*
X151131Y301226D01*
X151569Y300569D01*
X152226Y300131D01*
X153000Y299977D01*
X153774Y300131D01*
X154431Y300569D01*
X154869Y301226D01*
X155023Y302000D01*
X154869Y302774D01*
X154431Y303431D01*
X153774Y303869D01*
X153000Y304023D01*
D02*
G37*
G36*
X112000Y302023D02*
X111226Y301869D01*
X110569Y301431D01*
X110131Y300774D01*
X109977Y300000D01*
X110131Y299226D01*
X110569Y298569D01*
X111226Y298131D01*
X112000Y297977D01*
X112774Y298131D01*
X113431Y298569D01*
X113869Y299226D01*
X114023Y300000D01*
X113869Y300774D01*
X113431Y301431D01*
X112774Y301869D01*
X112000Y302023D01*
D02*
G37*
G36*
X603937Y300570D02*
X602893Y300432D01*
X601920Y300029D01*
X601084Y299388D01*
X600443Y298553D01*
X600040Y297580D01*
X599902Y296535D01*
X600040Y295491D01*
X600443Y294518D01*
X601084Y293683D01*
X601920Y293041D01*
X602893Y292638D01*
X603937Y292501D01*
X604981Y292638D01*
X605954Y293041D01*
X606790Y293683D01*
X607431Y294518D01*
X607834Y295491D01*
X607971Y296535D01*
X607834Y297580D01*
X607431Y298553D01*
X606790Y299388D01*
X605954Y300029D01*
X604981Y300432D01*
X603937Y300570D01*
D02*
G37*
G36*
X593937D02*
X592893Y300432D01*
X591920Y300029D01*
X591084Y299388D01*
X590443Y298553D01*
X590040Y297580D01*
X589902Y296535D01*
X590040Y295491D01*
X590443Y294518D01*
X591084Y293683D01*
X591920Y293041D01*
X592893Y292638D01*
X593937Y292501D01*
X594981Y292638D01*
X595954Y293041D01*
X596790Y293683D01*
X597431Y294518D01*
X597834Y295491D01*
X597971Y296535D01*
X597834Y297580D01*
X597431Y298553D01*
X596790Y299388D01*
X595954Y300029D01*
X594981Y300432D01*
X593937Y300570D01*
D02*
G37*
G36*
X523213Y292712D02*
X522362Y292543D01*
X521640Y292061D01*
X521158Y291339D01*
X520989Y290488D01*
X521158Y289637D01*
X521640Y288916D01*
X522362Y288434D01*
X523213Y288264D01*
X524064Y288434D01*
X524785Y288916D01*
X525267Y289637D01*
X525436Y290488D01*
X525267Y291339D01*
X524785Y292061D01*
X524064Y292543D01*
X523213Y292712D01*
D02*
G37*
G36*
X515213D02*
X514362Y292543D01*
X513640Y292061D01*
X513158Y291339D01*
X512989Y290488D01*
X513158Y289637D01*
X513640Y288916D01*
X514362Y288434D01*
X515213Y288264D01*
X516064Y288434D01*
X516785Y288916D01*
X517267Y289637D01*
X517436Y290488D01*
X517267Y291339D01*
X516785Y292061D01*
X516064Y292543D01*
X515213Y292712D01*
D02*
G37*
G36*
X603937Y290570D02*
X602893Y290433D01*
X601920Y290029D01*
X601084Y289388D01*
X600443Y288553D01*
X600040Y287580D01*
X599902Y286535D01*
X600040Y285491D01*
X600443Y284518D01*
X601084Y283683D01*
X601920Y283041D01*
X602893Y282638D01*
X603937Y282501D01*
X604981Y282638D01*
X605954Y283041D01*
X606790Y283683D01*
X607431Y284518D01*
X607834Y285491D01*
X607971Y286535D01*
X607834Y287580D01*
X607431Y288553D01*
X606790Y289388D01*
X605954Y290029D01*
X604981Y290433D01*
X603937Y290570D01*
D02*
G37*
G36*
X593937D02*
X592893Y290433D01*
X591920Y290029D01*
X591084Y289388D01*
X590443Y288553D01*
X590040Y287580D01*
X589902Y286535D01*
X590040Y285491D01*
X590443Y284518D01*
X591084Y283683D01*
X591920Y283041D01*
X592893Y282638D01*
X593937Y282501D01*
X594981Y282638D01*
X595954Y283041D01*
X596790Y283683D01*
X597431Y284518D01*
X597834Y285491D01*
X597971Y286535D01*
X597834Y287580D01*
X597431Y288553D01*
X596790Y289388D01*
X595954Y290029D01*
X594981Y290433D01*
X593937Y290570D01*
D02*
G37*
G36*
X603937Y280570D02*
X602893Y280433D01*
X601920Y280029D01*
X601084Y279388D01*
X600443Y278553D01*
X600040Y277580D01*
X599902Y276535D01*
X600040Y275491D01*
X600443Y274518D01*
X601084Y273683D01*
X601920Y273041D01*
X602893Y272638D01*
X603937Y272501D01*
X604981Y272638D01*
X605954Y273041D01*
X606790Y273683D01*
X607431Y274518D01*
X607834Y275491D01*
X607971Y276535D01*
X607834Y277580D01*
X607431Y278553D01*
X606790Y279388D01*
X605954Y280029D01*
X604981Y280433D01*
X603937Y280570D01*
D02*
G37*
G36*
X593937D02*
X592893Y280433D01*
X591920Y280029D01*
X591084Y279388D01*
X590443Y278553D01*
X590040Y277580D01*
X589902Y276535D01*
X590040Y275491D01*
X590443Y274518D01*
X591084Y273683D01*
X591920Y273041D01*
X592893Y272638D01*
X593937Y272501D01*
X594981Y272638D01*
X595954Y273041D01*
X596790Y273683D01*
X597431Y274518D01*
X597834Y275491D01*
X597971Y276535D01*
X597834Y277580D01*
X597431Y278553D01*
X596790Y279388D01*
X595954Y280029D01*
X594981Y280433D01*
X593937Y280570D01*
D02*
G37*
G36*
X463256Y271880D02*
Y270256D01*
X464880D01*
X464811Y270607D01*
X464328Y271328D01*
X463607Y271811D01*
X463256Y271880D01*
D02*
G37*
G36*
X462256D02*
X461905Y271811D01*
X461183Y271328D01*
X460701Y270607D01*
X460632Y270256D01*
X462256D01*
Y271880D01*
D02*
G37*
G36*
X102000Y272023D02*
X101226Y271869D01*
X100569Y271431D01*
X100131Y270774D01*
X99977Y270000D01*
X100131Y269226D01*
X100569Y268569D01*
X101226Y268131D01*
X102000Y267977D01*
X102774Y268131D01*
X103431Y268569D01*
X103869Y269226D01*
X104023Y270000D01*
X103869Y270774D01*
X103431Y271431D01*
X102774Y271869D01*
X102000Y272023D01*
D02*
G37*
G36*
X21654Y292186D02*
X20313Y292009D01*
X19064Y291492D01*
X17992Y290669D01*
X17169Y289597D01*
X16652Y288348D01*
X16475Y287008D01*
X16652Y285668D01*
X17169Y284419D01*
X17992Y283346D01*
X19064Y282523D01*
X19515Y282337D01*
Y281837D01*
X19064Y281650D01*
X17992Y280827D01*
X17169Y279754D01*
X16652Y278506D01*
X16475Y277165D01*
X16652Y275825D01*
X17169Y274576D01*
X17992Y273504D01*
X18800Y272884D01*
X18793Y272648D01*
X18690Y272338D01*
X18040Y272069D01*
X17399Y271577D01*
X16908Y270936D01*
X16599Y270190D01*
X16493Y269390D01*
Y267823D01*
X21654D01*
X26814D01*
Y269390D01*
X26708Y270190D01*
X26399Y270936D01*
X25908Y271577D01*
X25267Y272069D01*
X24617Y272338D01*
X24514Y272648D01*
X24507Y272884D01*
X25315Y273504D01*
X26138Y274576D01*
X26655Y275825D01*
X26832Y277165D01*
X26655Y278506D01*
X26138Y279754D01*
X25315Y280827D01*
X24243Y281650D01*
X23792Y281837D01*
Y282337D01*
X24243Y282523D01*
X25315Y283346D01*
X26138Y284419D01*
X26655Y285668D01*
X26832Y287008D01*
X26655Y288348D01*
X26138Y289597D01*
X25315Y290669D01*
X24243Y291492D01*
X22994Y292009D01*
X21654Y292186D01*
D02*
G37*
G36*
X318000Y272224D02*
X317149Y272055D01*
X316427Y271572D01*
X315945Y270851D01*
X315776Y270000D01*
X315945Y269149D01*
X316427Y268427D01*
X317149Y267945D01*
X318000Y267776D01*
X318851Y267945D01*
X319572Y268427D01*
X320055Y269149D01*
X320224Y270000D01*
X320055Y270851D01*
X319572Y271572D01*
X318851Y272055D01*
X318000Y272224D01*
D02*
G37*
G36*
X464880Y269256D02*
X460632D01*
X460701Y268905D01*
X461183Y268183D01*
X461905Y267701D01*
X462464Y267590D01*
X462556Y267572D01*
Y267062D01*
X462464Y267044D01*
X461905Y266933D01*
X461183Y266451D01*
X460701Y265729D01*
X460632Y265378D01*
X464880D01*
X464811Y265729D01*
X464328Y266451D01*
X463607Y266933D01*
X463048Y267044D01*
X462956Y267062D01*
Y267572D01*
X463048Y267590D01*
X463607Y267701D01*
X464328Y268183D01*
X464811Y268905D01*
X464880Y269256D01*
D02*
G37*
G36*
X452000Y271224D02*
X451149Y271055D01*
X450427Y270572D01*
X449945Y269851D01*
X449776Y269000D01*
X449945Y268149D01*
X450427Y267427D01*
X450564Y267337D01*
Y266837D01*
X450428Y266745D01*
X449945Y266024D01*
X449776Y265173D01*
X449945Y264322D01*
X450428Y263600D01*
X451149Y263118D01*
X452000Y262949D01*
X452851Y263118D01*
X453573Y263600D01*
X454055Y264322D01*
X454224Y265173D01*
X454055Y266024D01*
X453573Y266745D01*
X453436Y266837D01*
Y267337D01*
X453573Y267427D01*
X454055Y268149D01*
X454224Y269000D01*
X454055Y269851D01*
X453573Y270572D01*
X452851Y271055D01*
X452000Y271224D01*
D02*
G37*
G36*
X464880Y264378D02*
X463256D01*
Y262754D01*
X463607Y262824D01*
X464328Y263305D01*
X464811Y264027D01*
X464880Y264378D01*
D02*
G37*
G36*
X462256D02*
X460632D01*
X460701Y264027D01*
X461183Y263305D01*
X461905Y262824D01*
X462256Y262754D01*
Y264378D01*
D02*
G37*
G36*
X603937Y270570D02*
X602893Y270432D01*
X601920Y270029D01*
X601084Y269388D01*
X600443Y268553D01*
X600040Y267580D01*
X599902Y266535D01*
X600040Y265491D01*
X600443Y264518D01*
X601084Y263683D01*
X601920Y263041D01*
X602893Y262638D01*
X603937Y262501D01*
X604981Y262638D01*
X605954Y263041D01*
X606790Y263683D01*
X607431Y264518D01*
X607834Y265491D01*
X607971Y266535D01*
X607834Y267580D01*
X607431Y268553D01*
X606790Y269388D01*
X605954Y270029D01*
X604981Y270432D01*
X603937Y270570D01*
D02*
G37*
G36*
X593937D02*
X592893Y270432D01*
X591920Y270029D01*
X591084Y269388D01*
X590443Y268553D01*
X590040Y267580D01*
X589902Y266535D01*
X590040Y265491D01*
X590443Y264518D01*
X591084Y263683D01*
X591920Y263041D01*
X592893Y262638D01*
X593937Y262501D01*
X594981Y262638D01*
X595954Y263041D01*
X596790Y263683D01*
X597431Y264518D01*
X597834Y265491D01*
X597971Y266535D01*
X597834Y267580D01*
X597431Y268553D01*
X596790Y269388D01*
X595954Y270029D01*
X594981Y270432D01*
X593937Y270570D01*
D02*
G37*
G36*
X26814Y266823D02*
X22154D01*
Y262162D01*
X23720D01*
X24521Y262268D01*
X25267Y262577D01*
X25908Y263069D01*
X26399Y263709D01*
X26708Y264455D01*
X26814Y265256D01*
Y266823D01*
D02*
G37*
G36*
X21154D02*
X16493D01*
Y265256D01*
X16599Y264455D01*
X16908Y263709D01*
X17399Y263069D01*
X18040Y262577D01*
X18786Y262268D01*
X19587Y262162D01*
X21154D01*
Y266823D01*
D02*
G37*
G36*
X499394Y262417D02*
X498619Y262263D01*
X497963Y261824D01*
X497813Y261600D01*
X424177D01*
X423774Y261869D01*
X423000Y262023D01*
X422226Y261869D01*
X421569Y261431D01*
X421131Y260774D01*
X420977Y260000D01*
X421131Y259226D01*
X421569Y258569D01*
X422226Y258131D01*
X423000Y257977D01*
X423774Y258131D01*
X424431Y258569D01*
X424691Y258959D01*
X482699D01*
X483038Y258500D01*
X486962D01*
X487301Y258959D01*
X497969D01*
X498619Y258524D01*
X499394Y258370D01*
X500168Y258524D01*
X500824Y258963D01*
X501263Y259619D01*
X501417Y260394D01*
X501263Y261168D01*
X500824Y261824D01*
X500168Y262263D01*
X499394Y262417D01*
D02*
G37*
G36*
X486924Y257500D02*
X485500D01*
Y256076D01*
X485774Y256131D01*
X486431Y256569D01*
X486869Y257226D01*
X486924Y257500D01*
D02*
G37*
G36*
X484500D02*
X483076D01*
X483131Y257226D01*
X483569Y256569D01*
X484226Y256131D01*
X484500Y256076D01*
Y257500D01*
D02*
G37*
G36*
X603937Y250570D02*
X602893Y250432D01*
X601920Y250029D01*
X601084Y249388D01*
X600443Y248553D01*
X600040Y247580D01*
X599902Y246535D01*
X600040Y245491D01*
X600443Y244518D01*
X601084Y243683D01*
X601920Y243041D01*
X602893Y242638D01*
X603937Y242501D01*
X604981Y242638D01*
X605954Y243041D01*
X606790Y243683D01*
X607431Y244518D01*
X607834Y245491D01*
X607971Y246535D01*
X607834Y247580D01*
X607431Y248553D01*
X606790Y249388D01*
X605954Y250029D01*
X604981Y250432D01*
X603937Y250570D01*
D02*
G37*
G36*
X293000Y253023D02*
X292226Y252869D01*
X291569Y252431D01*
X291131Y251774D01*
X290977Y251000D01*
X291131Y250226D01*
X291569Y249569D01*
X291720Y249469D01*
Y243531D01*
X291569Y243431D01*
X291131Y242774D01*
X290977Y242000D01*
X291131Y241226D01*
X291569Y240569D01*
X292226Y240131D01*
X293000Y239977D01*
X293774Y240131D01*
X294431Y240569D01*
X294869Y241226D01*
X295023Y242000D01*
X294869Y242774D01*
X294431Y243431D01*
X294281Y243531D01*
Y249469D01*
X294431Y249569D01*
X294869Y250226D01*
X295023Y251000D01*
X294869Y251774D01*
X294431Y252431D01*
X293774Y252869D01*
X293000Y253023D01*
D02*
G37*
G36*
X112000Y254023D02*
X111226Y253869D01*
X110569Y253431D01*
X110131Y252774D01*
X109977Y252000D01*
X110131Y251226D01*
X110569Y250569D01*
X110720Y250469D01*
Y243531D01*
X110569Y243431D01*
X110131Y242774D01*
X109977Y242000D01*
X110131Y241226D01*
X110569Y240569D01*
X111226Y240131D01*
X112000Y239977D01*
X112774Y240131D01*
X113431Y240569D01*
X113869Y241226D01*
X114023Y242000D01*
X113869Y242774D01*
X113431Y243431D01*
X113280Y243531D01*
Y250469D01*
X113431Y250569D01*
X113869Y251226D01*
X114023Y252000D01*
X113869Y252774D01*
X113431Y253431D01*
X112774Y253869D01*
X112000Y254023D01*
D02*
G37*
G36*
X147256Y238680D02*
Y237256D01*
X148680D01*
X148625Y237530D01*
X148187Y238187D01*
X147530Y238625D01*
X147256Y238680D01*
D02*
G37*
G36*
X146256D02*
X145982Y238625D01*
X145325Y238187D01*
X144887Y237530D01*
X144832Y237256D01*
X146256D01*
Y238680D01*
D02*
G37*
G36*
X148680Y236256D02*
X147256D01*
Y234832D01*
X147530Y234887D01*
X148187Y235325D01*
X148625Y235982D01*
X148680Y236256D01*
D02*
G37*
G36*
X146256D02*
X144832D01*
X144887Y235982D01*
X145325Y235325D01*
X145982Y234887D01*
X146256Y234832D01*
Y236256D01*
D02*
G37*
G36*
X220000Y239224D02*
X219149Y239055D01*
X218427Y238573D01*
X217945Y237851D01*
X217776Y237000D01*
X217945Y236149D01*
X218427Y235427D01*
X219149Y234945D01*
X220000Y234776D01*
X220851Y234945D01*
X221572Y235427D01*
X222055Y236149D01*
X222224Y237000D01*
X222055Y237851D01*
X221572Y238573D01*
X220851Y239055D01*
X220000Y239224D01*
D02*
G37*
G36*
X603937Y240570D02*
X602893Y240433D01*
X601920Y240029D01*
X601084Y239388D01*
X600443Y238553D01*
X600040Y237580D01*
X599902Y236535D01*
X600040Y235491D01*
X600443Y234518D01*
X601084Y233683D01*
X601920Y233041D01*
X602893Y232638D01*
X603937Y232501D01*
X604981Y232638D01*
X605954Y233041D01*
X606790Y233683D01*
X607431Y234518D01*
X607834Y235491D01*
X607971Y236535D01*
X607834Y237580D01*
X607431Y238553D01*
X606790Y239388D01*
X605954Y240029D01*
X604981Y240433D01*
X603937Y240570D01*
D02*
G37*
G36*
X593937D02*
X592893Y240433D01*
X591920Y240029D01*
X591084Y239388D01*
X590443Y238553D01*
X590040Y237580D01*
X589902Y236535D01*
X590040Y235491D01*
X590443Y234518D01*
X591084Y233683D01*
X591920Y233041D01*
X592893Y232638D01*
X593937Y232501D01*
X594981Y232638D01*
X595954Y233041D01*
X596790Y233683D01*
X597431Y234518D01*
X597834Y235491D01*
X597971Y236535D01*
X597834Y237580D01*
X597431Y238553D01*
X596790Y239388D01*
X595954Y240029D01*
X594981Y240433D01*
X593937Y240570D01*
D02*
G37*
G36*
X508000Y234224D02*
X507149Y234055D01*
X506427Y233573D01*
X505945Y232851D01*
X505776Y232000D01*
X505945Y231149D01*
X506427Y230428D01*
X507149Y229945D01*
X508000Y229776D01*
X508851Y229945D01*
X509573Y230428D01*
X510055Y231149D01*
X510224Y232000D01*
X510055Y232851D01*
X509573Y233573D01*
X508851Y234055D01*
X508000Y234224D01*
D02*
G37*
G36*
X167000Y233224D02*
X166149Y233055D01*
X165427Y232573D01*
X164945Y231851D01*
X164776Y231000D01*
X164945Y230149D01*
X165427Y229428D01*
X166149Y228945D01*
X167000Y228776D01*
X167851Y228945D01*
X168572Y229428D01*
X169054Y230149D01*
X169224Y231000D01*
X169054Y231851D01*
X168572Y232573D01*
X167851Y233055D01*
X167000Y233224D01*
D02*
G37*
G36*
X159000D02*
X158149Y233055D01*
X157428Y232573D01*
X156946Y231851D01*
X156776Y231000D01*
X156946Y230149D01*
X157428Y229428D01*
X158149Y228945D01*
X159000Y228776D01*
X159851Y228945D01*
X160573Y229428D01*
X161055Y230149D01*
X161224Y231000D01*
X161055Y231851D01*
X160573Y232573D01*
X159851Y233055D01*
X159000Y233224D01*
D02*
G37*
G36*
X21260Y249666D02*
X19920Y249490D01*
X18671Y248973D01*
X17598Y248150D01*
X16775Y247077D01*
X16258Y245828D01*
X16082Y244488D01*
X16258Y243148D01*
X16775Y241899D01*
X17598Y240827D01*
X18671Y240004D01*
X19122Y239817D01*
Y239317D01*
X18671Y239130D01*
X17598Y238307D01*
X16775Y237235D01*
X16258Y235986D01*
X16082Y234646D01*
X16258Y233305D01*
X16775Y232056D01*
X17598Y230984D01*
X18406Y230364D01*
X18400Y230128D01*
X18296Y229818D01*
X17646Y229549D01*
X17006Y229058D01*
X16514Y228417D01*
X16205Y227671D01*
X16100Y226870D01*
Y225303D01*
X21260D01*
X26420D01*
Y226870D01*
X26315Y227671D01*
X26006Y228417D01*
X25514Y229058D01*
X24873Y229549D01*
X24223Y229818D01*
X24120Y230128D01*
X24114Y230364D01*
X24921Y230984D01*
X25744Y232056D01*
X26261Y233305D01*
X26438Y234646D01*
X26261Y235986D01*
X25744Y237235D01*
X24921Y238307D01*
X23849Y239130D01*
X23398Y239317D01*
Y239817D01*
X23849Y240004D01*
X24921Y240827D01*
X25744Y241899D01*
X26261Y243148D01*
X26438Y244488D01*
X26261Y245828D01*
X25744Y247077D01*
X24921Y248150D01*
X23849Y248973D01*
X22600Y249490D01*
X21260Y249666D01*
D02*
G37*
G36*
X603937Y230570D02*
X602893Y230433D01*
X601920Y230029D01*
X601084Y229388D01*
X600443Y228553D01*
X600040Y227580D01*
X599902Y226535D01*
X600040Y225491D01*
X600443Y224518D01*
X601084Y223683D01*
X601920Y223041D01*
X602893Y222638D01*
X603937Y222501D01*
X604981Y222638D01*
X605954Y223041D01*
X606790Y223683D01*
X607431Y224518D01*
X607834Y225491D01*
X607971Y226535D01*
X607834Y227580D01*
X607431Y228553D01*
X606790Y229388D01*
X605954Y230029D01*
X604981Y230433D01*
X603937Y230570D01*
D02*
G37*
G36*
X593937D02*
X592893Y230433D01*
X591920Y230029D01*
X591084Y229388D01*
X590443Y228553D01*
X590040Y227580D01*
X589902Y226535D01*
X590040Y225491D01*
X590443Y224518D01*
X591084Y223683D01*
X591920Y223041D01*
X592893Y222638D01*
X593937Y222501D01*
X594981Y222638D01*
X595954Y223041D01*
X596790Y223683D01*
X597431Y224518D01*
X597834Y225491D01*
X597971Y226535D01*
X597834Y227580D01*
X597431Y228553D01*
X596790Y229388D01*
X595954Y230029D01*
X594981Y230433D01*
X593937Y230570D01*
D02*
G37*
G36*
X112000Y234023D02*
X111226Y233869D01*
X110569Y233431D01*
X110131Y232774D01*
X109977Y232000D01*
X110131Y231226D01*
X110569Y230569D01*
X110720Y230469D01*
Y225531D01*
X110569Y225431D01*
X110131Y224774D01*
X109977Y224000D01*
X110131Y223226D01*
X110569Y222569D01*
X111226Y222131D01*
X112000Y221977D01*
X112774Y222131D01*
X113431Y222569D01*
X113869Y223226D01*
X114023Y224000D01*
X113869Y224774D01*
X113431Y225431D01*
X113280Y225531D01*
Y230469D01*
X113431Y230569D01*
X113869Y231226D01*
X114023Y232000D01*
X113869Y232774D01*
X113431Y233431D01*
X112774Y233869D01*
X112000Y234023D01*
D02*
G37*
G36*
X293000D02*
X292226Y233869D01*
X291569Y233431D01*
X291131Y232774D01*
X290977Y232000D01*
X291131Y231226D01*
X291569Y230569D01*
X291679Y230496D01*
Y224504D01*
X291569Y224431D01*
X291131Y223774D01*
X290977Y223000D01*
X291131Y222226D01*
X291569Y221569D01*
X292226Y221131D01*
X293000Y220977D01*
X293774Y221131D01*
X294431Y221569D01*
X294869Y222226D01*
X295023Y223000D01*
X294869Y223774D01*
X294431Y224431D01*
X294321Y224504D01*
Y230496D01*
X294431Y230569D01*
X294869Y231226D01*
X295023Y232000D01*
X294869Y232774D01*
X294431Y233431D01*
X293774Y233869D01*
X293000Y234023D01*
D02*
G37*
G36*
X26420Y224303D02*
X21760D01*
Y219643D01*
X23327D01*
X24127Y219748D01*
X24873Y220057D01*
X25514Y220549D01*
X26006Y221190D01*
X26315Y221936D01*
X26420Y222736D01*
Y224303D01*
D02*
G37*
G36*
X20760D02*
X16100D01*
Y222736D01*
X16205Y221936D01*
X16514Y221190D01*
X17006Y220549D01*
X17646Y220057D01*
X18392Y219748D01*
X19193Y219643D01*
X20760D01*
Y224303D01*
D02*
G37*
G36*
X480000Y222224D02*
X479149Y222055D01*
X478428Y221572D01*
X477945Y220851D01*
X477776Y220000D01*
X477945Y219149D01*
X478428Y218427D01*
X479149Y217945D01*
X480000Y217776D01*
X480851Y217945D01*
X481572Y218427D01*
X482055Y219149D01*
X482224Y220000D01*
X482055Y220851D01*
X481572Y221572D01*
X480851Y222055D01*
X480000Y222224D01*
D02*
G37*
G36*
X603937Y220570D02*
X602893Y220432D01*
X601920Y220029D01*
X601084Y219388D01*
X600443Y218553D01*
X600040Y217580D01*
X599902Y216535D01*
X600040Y215491D01*
X600443Y214518D01*
X601084Y213683D01*
X601920Y213041D01*
X602893Y212638D01*
X603937Y212501D01*
X604981Y212638D01*
X605954Y213041D01*
X606790Y213683D01*
X607431Y214518D01*
X607834Y215491D01*
X607971Y216535D01*
X607834Y217580D01*
X607431Y218553D01*
X606790Y219388D01*
X605954Y220029D01*
X604981Y220432D01*
X603937Y220570D01*
D02*
G37*
G36*
X593937D02*
X592893Y220432D01*
X591920Y220029D01*
X591084Y219388D01*
X590443Y218553D01*
X590040Y217580D01*
X589902Y216535D01*
X590040Y215491D01*
X590443Y214518D01*
X591084Y213683D01*
X591920Y213041D01*
X592893Y212638D01*
X593937Y212501D01*
X594981Y212638D01*
X595954Y213041D01*
X596790Y213683D01*
X597431Y214518D01*
X597834Y215491D01*
X597971Y216535D01*
X597834Y217580D01*
X597431Y218553D01*
X596790Y219388D01*
X595954Y220029D01*
X594981Y220432D01*
X593937Y220570D01*
D02*
G37*
G36*
X464500Y208124D02*
X464149Y208055D01*
X463427Y207573D01*
X463250Y207307D01*
X462750D01*
X462572Y207573D01*
X461851Y208055D01*
X461500Y208124D01*
Y206000D01*
Y203876D01*
X461851Y203945D01*
X462572Y204428D01*
X462750Y204693D01*
X463250D01*
X463427Y204428D01*
X464149Y203945D01*
X464500Y203876D01*
Y206000D01*
Y208124D01*
D02*
G37*
G36*
X465500D02*
Y206500D01*
X467124D01*
X467055Y206851D01*
X466573Y207573D01*
X465851Y208055D01*
X465500Y208124D01*
D02*
G37*
G36*
X460500D02*
X460149Y208055D01*
X459427Y207573D01*
X458945Y206851D01*
X458876Y206500D01*
X460500D01*
Y208124D01*
D02*
G37*
G36*
X467124Y205500D02*
X465500D01*
Y203876D01*
X465851Y203945D01*
X466573Y204428D01*
X467055Y205149D01*
X467124Y205500D01*
D02*
G37*
G36*
X460500D02*
X458876D01*
X458945Y205149D01*
X459427Y204428D01*
X460149Y203945D01*
X460500Y203876D01*
Y205500D01*
D02*
G37*
G36*
X318000Y207023D02*
X317226Y206869D01*
X316569Y206431D01*
X316131Y205774D01*
X315977Y205000D01*
X316131Y204226D01*
X316569Y203569D01*
X317226Y203131D01*
X318000Y202977D01*
X318774Y203131D01*
X319431Y203569D01*
X319869Y204226D01*
X320023Y205000D01*
X319869Y205774D01*
X319431Y206431D01*
X318774Y206869D01*
X318000Y207023D01*
D02*
G37*
G36*
X102000D02*
X101226Y206869D01*
X100569Y206431D01*
X100131Y205774D01*
X99977Y205000D01*
X100131Y204226D01*
X100569Y203569D01*
X101226Y203131D01*
X102000Y202977D01*
X102774Y203131D01*
X103431Y203569D01*
X103869Y204226D01*
X104023Y205000D01*
X103869Y205774D01*
X103431Y206431D01*
X102774Y206869D01*
X102000Y207023D01*
D02*
G37*
G36*
X603937Y210570D02*
X602893Y210433D01*
X601920Y210029D01*
X601084Y209388D01*
X600443Y208553D01*
X600040Y207580D01*
X599902Y206535D01*
X600040Y205491D01*
X600443Y204518D01*
X601084Y203683D01*
X601920Y203041D01*
X602893Y202638D01*
X603937Y202501D01*
X604981Y202638D01*
X605954Y203041D01*
X606790Y203683D01*
X607431Y204518D01*
X607834Y205491D01*
X607971Y206535D01*
X607834Y207580D01*
X607431Y208553D01*
X606790Y209388D01*
X605954Y210029D01*
X604981Y210433D01*
X603937Y210570D01*
D02*
G37*
G36*
X593937D02*
X592893Y210433D01*
X591920Y210029D01*
X591084Y209388D01*
X590443Y208553D01*
X590040Y207580D01*
X589902Y206535D01*
X590040Y205491D01*
X590443Y204518D01*
X591084Y203683D01*
X591920Y203041D01*
X592893Y202638D01*
X593937Y202501D01*
X594981Y202638D01*
X595954Y203041D01*
X596790Y203683D01*
X597431Y204518D01*
X597834Y205491D01*
X597971Y206535D01*
X597834Y207580D01*
X597431Y208553D01*
X596790Y209388D01*
X595954Y210029D01*
X594981Y210433D01*
X593937Y210570D01*
D02*
G37*
G36*
X448000Y204224D02*
X447149Y204054D01*
X446427Y203573D01*
X445945Y202851D01*
X445776Y202000D01*
X445945Y201149D01*
X446427Y200428D01*
X446693Y200250D01*
Y199750D01*
X446427Y199573D01*
X445945Y198851D01*
X445776Y198000D01*
X445945Y197149D01*
X446427Y196428D01*
X447149Y195946D01*
X448000Y195776D01*
X448851Y195946D01*
X449573Y196428D01*
X450055Y197149D01*
X450224Y198000D01*
X450055Y198851D01*
X449573Y199573D01*
X449307Y199750D01*
Y200250D01*
X449573Y200428D01*
X450055Y201149D01*
X450224Y202000D01*
X450055Y202851D01*
X449573Y203573D01*
X448851Y204054D01*
X448000Y204224D01*
D02*
G37*
G36*
X21260Y205178D02*
X19920Y205002D01*
X18671Y204484D01*
X17598Y203661D01*
X16775Y202589D01*
X16258Y201340D01*
X16082Y200000D01*
X16258Y198660D01*
X16775Y197411D01*
X17598Y196338D01*
X18671Y195516D01*
X19122Y195329D01*
Y194829D01*
X18671Y194642D01*
X17598Y193819D01*
X16775Y192746D01*
X16258Y191498D01*
X16082Y190157D01*
X16258Y188817D01*
X16775Y187568D01*
X17598Y186496D01*
X18406Y185876D01*
X18400Y185640D01*
X18296Y185330D01*
X17646Y185061D01*
X17006Y184569D01*
X16514Y183929D01*
X16205Y183183D01*
X16100Y182382D01*
Y180815D01*
X21260D01*
X26420D01*
Y182382D01*
X26315Y183183D01*
X26006Y183929D01*
X25514Y184569D01*
X24873Y185061D01*
X24223Y185330D01*
X24120Y185640D01*
X24114Y185876D01*
X24921Y186496D01*
X25744Y187568D01*
X26261Y188817D01*
X26438Y190157D01*
X26261Y191498D01*
X25744Y192746D01*
X24921Y193819D01*
X23849Y194642D01*
X23398Y194829D01*
Y195329D01*
X23849Y195516D01*
X24921Y196338D01*
X25744Y197411D01*
X26261Y198660D01*
X26438Y200000D01*
X26261Y201340D01*
X25744Y202589D01*
X24921Y203661D01*
X23849Y204484D01*
X22600Y205002D01*
X21260Y205178D01*
D02*
G37*
G36*
X26420Y179815D02*
X21760D01*
Y175155D01*
X23327D01*
X24127Y175260D01*
X24873Y175569D01*
X25514Y176061D01*
X26006Y176701D01*
X26315Y177447D01*
X26420Y178248D01*
Y179815D01*
D02*
G37*
G36*
X20760D02*
X16100D01*
Y178248D01*
X16205Y177447D01*
X16514Y176701D01*
X17006Y176061D01*
X17646Y175569D01*
X18392Y175260D01*
X19193Y175155D01*
X20760D01*
Y179815D01*
D02*
G37*
G36*
X606736Y177506D02*
X605242Y177309D01*
X603849Y176733D01*
X602654Y175815D01*
X601736Y174619D01*
X601159Y173227D01*
X600962Y171732D01*
X601159Y170238D01*
X601736Y168845D01*
X602654Y167649D01*
X603849Y166732D01*
X605242Y166155D01*
X606736Y165958D01*
X608231Y166155D01*
X609623Y166732D01*
X610819Y167649D01*
X611736Y168845D01*
X612313Y170238D01*
X612510Y171732D01*
X612313Y173227D01*
X611736Y174619D01*
X610819Y175815D01*
X609623Y176733D01*
X608231Y177309D01*
X606736Y177506D01*
D02*
G37*
G36*
X506000Y170224D02*
X505149Y170054D01*
X504427Y169572D01*
X503945Y168851D01*
X503776Y168000D01*
X503945Y167149D01*
X504427Y166428D01*
X505149Y165945D01*
X506000Y165776D01*
X506851Y165945D01*
X507573Y166428D01*
X508055Y167149D01*
X508224Y168000D01*
X508055Y168851D01*
X507573Y169572D01*
X506851Y170054D01*
X506000Y170224D01*
D02*
G37*
G36*
X293000Y162023D02*
X292226Y161869D01*
X291569Y161431D01*
X291131Y160774D01*
X290977Y160000D01*
X291131Y159226D01*
X291569Y158570D01*
X292226Y158131D01*
X293000Y157977D01*
X293774Y158131D01*
X294430Y158570D01*
X294869Y159226D01*
X295023Y160000D01*
X294869Y160774D01*
X294430Y161431D01*
X293774Y161869D01*
X293000Y162023D01*
D02*
G37*
G36*
X112000Y162023D02*
X111226Y161869D01*
X110569Y161431D01*
X110131Y160774D01*
X109977Y160000D01*
X110131Y159226D01*
X110569Y158569D01*
X111226Y158131D01*
X112000Y157977D01*
X112774Y158131D01*
X113431Y158569D01*
X113869Y159226D01*
X114023Y160000D01*
X113869Y160774D01*
X113431Y161431D01*
X112774Y161869D01*
X112000Y162023D01*
D02*
G37*
G36*
X620236Y172166D02*
X618786Y172023D01*
X617392Y171600D01*
X616106Y170913D01*
X614980Y169988D01*
X614055Y168862D01*
X613369Y167577D01*
X612946Y166182D01*
X612803Y164732D01*
X612946Y163282D01*
X613369Y161888D01*
X614055Y160602D01*
X614980Y159476D01*
X616106Y158552D01*
X617392Y157865D01*
X618786Y157442D01*
X620236Y157299D01*
X621686Y157442D01*
X623081Y157865D01*
X624366Y158552D01*
X625492Y159476D01*
X626417Y160602D01*
X627104Y161888D01*
X627527Y163282D01*
X627670Y164732D01*
X627527Y166182D01*
X627104Y167577D01*
X626417Y168862D01*
X625492Y169988D01*
X624366Y170913D01*
X623081Y171600D01*
X621686Y172023D01*
X620236Y172166D01*
D02*
G37*
G36*
X478000Y161224D02*
X477149Y161055D01*
X476428Y160573D01*
X475945Y159851D01*
X475776Y159000D01*
X475945Y158149D01*
X476428Y157428D01*
X477149Y156946D01*
X478000Y156776D01*
X478851Y156946D01*
X479572Y157428D01*
X480055Y158149D01*
X480224Y159000D01*
X480055Y159851D01*
X479572Y160573D01*
X478851Y161055D01*
X478000Y161224D01*
D02*
G37*
G36*
X613992Y157488D02*
X606480D01*
Y152452D01*
X606007Y152291D01*
X605915Y152411D01*
X605130Y153013D01*
X604217Y153391D01*
X603236Y153521D01*
X602256Y153391D01*
X601342Y153013D01*
X600558Y152411D01*
X599955Y151626D01*
X599577Y150713D01*
X599448Y149732D01*
X599577Y148752D01*
X599955Y147838D01*
X600558Y147054D01*
X601342Y146451D01*
X602256Y146073D01*
X602929Y145984D01*
Y145480D01*
X602256Y145391D01*
X601342Y145013D01*
X600558Y144411D01*
X599955Y143626D01*
X599577Y142713D01*
X599448Y141732D01*
X599577Y140752D01*
X599955Y139838D01*
X600558Y139053D01*
X601342Y138451D01*
X602256Y138073D01*
X602929Y137984D01*
Y137480D01*
X602256Y137391D01*
X601342Y137013D01*
X600558Y136411D01*
X599955Y135626D01*
X599577Y134713D01*
X599448Y133732D01*
X599577Y132752D01*
X599955Y131838D01*
X600558Y131053D01*
X601342Y130451D01*
X602256Y130073D01*
X602929Y129984D01*
Y129480D01*
X602256Y129391D01*
X601342Y129013D01*
X600558Y128411D01*
X599955Y127626D01*
X599577Y126713D01*
X599448Y125732D01*
X599577Y124752D01*
X599955Y123838D01*
X600558Y123054D01*
X601342Y122451D01*
X602256Y122073D01*
X603236Y121944D01*
X604217Y122073D01*
X605130Y122451D01*
X605915Y123054D01*
X606517Y123838D01*
X606895Y124752D01*
X607024Y125732D01*
X606895Y126713D01*
X606703Y127176D01*
X606519Y127621D01*
X606878Y127800D01*
X607224Y127488D01*
X607239Y127468D01*
X607557Y127053D01*
X608342Y126451D01*
X609256Y126073D01*
X610236Y125944D01*
X611217Y126073D01*
X612130Y126451D01*
X612915Y127053D01*
X613517Y127838D01*
X613895Y128752D01*
X614024Y129732D01*
X613895Y130713D01*
X613517Y131626D01*
X612915Y132411D01*
X612130Y133013D01*
X611217Y133391D01*
X610544Y133480D01*
Y133984D01*
X611217Y134073D01*
X612130Y134451D01*
X612915Y135054D01*
X613517Y135838D01*
X613895Y136752D01*
X614024Y137732D01*
X613895Y138713D01*
X613517Y139626D01*
X612915Y140411D01*
X612130Y141013D01*
X611217Y141391D01*
X610544Y141480D01*
Y141984D01*
X611217Y142073D01*
X612130Y142451D01*
X612915Y143053D01*
X613517Y143838D01*
X613895Y144752D01*
X614024Y145732D01*
X613895Y146713D01*
X613517Y147626D01*
X612915Y148411D01*
X612130Y149013D01*
X611217Y149391D01*
X610572Y149476D01*
X610605Y149976D01*
X613992D01*
Y157488D01*
D02*
G37*
G36*
X296500Y124124D02*
Y122500D01*
X298124D01*
X298055Y122851D01*
X297572Y123573D01*
X296851Y124055D01*
X296500Y124124D01*
D02*
G37*
G36*
X295500D02*
X295149Y124055D01*
X294427Y123573D01*
X293945Y122851D01*
X293876Y122500D01*
X295500D01*
Y124124D01*
D02*
G37*
G36*
X290500D02*
Y122500D01*
X292124D01*
X292055Y122851D01*
X291572Y123573D01*
X290851Y124055D01*
X290500Y124124D01*
D02*
G37*
G36*
X289500D02*
X289149Y124055D01*
X288427Y123573D01*
X287945Y122851D01*
X287876Y122500D01*
X289500D01*
Y124124D01*
D02*
G37*
G36*
X200358Y123921D02*
Y120500D01*
X203779D01*
X203709Y121032D01*
X203311Y121993D01*
X202677Y122819D01*
X201852Y123453D01*
X200890Y123851D01*
X200358Y123921D01*
D02*
G37*
G36*
X199358D02*
X198826Y123851D01*
X197865Y123453D01*
X197039Y122819D01*
X196405Y121993D01*
X196007Y121032D01*
X195937Y120500D01*
X199358D01*
Y123921D01*
D02*
G37*
G36*
X298124Y121500D02*
X296500D01*
Y119876D01*
X296851Y119946D01*
X297572Y120428D01*
X298055Y121149D01*
X298124Y121500D01*
D02*
G37*
G36*
X295500D02*
X293876D01*
X293945Y121149D01*
X294427Y120428D01*
X295149Y119946D01*
X295500Y119876D01*
Y121500D01*
D02*
G37*
G36*
X292124D02*
X290500D01*
Y119876D01*
X290851Y119946D01*
X291572Y120428D01*
X292055Y121149D01*
X292124Y121500D01*
D02*
G37*
G36*
X289500D02*
X287876D01*
X287945Y121149D01*
X288427Y120428D01*
X289149Y119946D01*
X289500Y119876D01*
Y121500D01*
D02*
G37*
G36*
X296500Y119124D02*
Y117500D01*
X298124D01*
X298055Y117851D01*
X297572Y118572D01*
X296851Y119054D01*
X296500Y119124D01*
D02*
G37*
G36*
X295500D02*
X295149Y119054D01*
X294427Y118572D01*
X293945Y117851D01*
X293876Y117500D01*
X295500D01*
Y119124D01*
D02*
G37*
G36*
X290500D02*
Y117500D01*
X292124D01*
X292055Y117851D01*
X291572Y118572D01*
X290851Y119054D01*
X290500Y119124D01*
D02*
G37*
G36*
X289500D02*
X289149Y119054D01*
X288427Y118572D01*
X287945Y117851D01*
X287876Y117500D01*
X289500D01*
Y119124D01*
D02*
G37*
G36*
X203779Y119500D02*
X200358D01*
Y116079D01*
X200890Y116149D01*
X201852Y116547D01*
X202677Y117181D01*
X203311Y118007D01*
X203709Y118968D01*
X203779Y119500D01*
D02*
G37*
G36*
X199358D02*
X195937D01*
X196007Y118968D01*
X196405Y118007D01*
X197039Y117181D01*
X197865Y116547D01*
X198826Y116149D01*
X199358Y116079D01*
Y119500D01*
D02*
G37*
G36*
X298124Y116500D02*
X296500D01*
Y114876D01*
X296851Y114945D01*
X297572Y115427D01*
X298055Y116149D01*
X298124Y116500D01*
D02*
G37*
G36*
X295500D02*
X293876D01*
X293945Y116149D01*
X294427Y115427D01*
X295149Y114945D01*
X295500Y114876D01*
Y116500D01*
D02*
G37*
G36*
X292124D02*
X290500D01*
Y114876D01*
X290851Y114945D01*
X291572Y115427D01*
X292055Y116149D01*
X292124Y116500D01*
D02*
G37*
G36*
X289500D02*
X287876D01*
X287945Y116149D01*
X288427Y115427D01*
X289149Y114945D01*
X289500Y114876D01*
Y116500D01*
D02*
G37*
G36*
X199858Y113987D02*
X198826Y113851D01*
X197865Y113453D01*
X197039Y112819D01*
X196405Y111993D01*
X196007Y111032D01*
X195871Y110000D01*
X196007Y108968D01*
X196405Y108007D01*
X197039Y107181D01*
X197865Y106547D01*
X198826Y106149D01*
X199858Y106013D01*
X200890Y106149D01*
X201852Y106547D01*
X202677Y107181D01*
X203311Y108007D01*
X203709Y108968D01*
X203845Y110000D01*
X203709Y111032D01*
X203311Y111993D01*
X202677Y112819D01*
X201852Y113453D01*
X200890Y113851D01*
X199858Y113987D01*
D02*
G37*
G36*
X382000Y108023D02*
X381226Y107869D01*
X380569Y107431D01*
X380131Y106774D01*
X379977Y106000D01*
X380131Y105226D01*
X380569Y104569D01*
X381226Y104131D01*
X382000Y103977D01*
X382774Y104131D01*
X383431Y104569D01*
X383869Y105226D01*
X384023Y106000D01*
X383869Y106774D01*
X383431Y107431D01*
X382774Y107869D01*
X382000Y108023D01*
D02*
G37*
G36*
X203811Y103953D02*
X195905D01*
Y96047D01*
X203811D01*
Y103953D01*
D02*
G37*
G36*
X572000Y133023D02*
X571226Y132869D01*
X570569Y132431D01*
X570131Y131774D01*
X569977Y131000D01*
X570131Y130226D01*
X570569Y129569D01*
X571226Y129131D01*
X572000Y128977D01*
X572774Y129131D01*
X573431Y129569D01*
X573531Y129719D01*
X581470D01*
X608719Y102470D01*
Y95488D01*
X606480D01*
Y90452D01*
X606007Y90291D01*
X605915Y90411D01*
X605130Y91013D01*
X604217Y91391D01*
X603236Y91521D01*
X602256Y91391D01*
X601342Y91013D01*
X600558Y90411D01*
X599955Y89626D01*
X599577Y88713D01*
X599448Y87732D01*
X599577Y86752D01*
X599955Y85838D01*
X600558Y85053D01*
X601342Y84451D01*
X602256Y84073D01*
X602929Y83984D01*
Y83480D01*
X602256Y83391D01*
X601342Y83013D01*
X600558Y82411D01*
X599955Y81626D01*
X599812Y81280D01*
X592530D01*
X591281Y82530D01*
Y100000D01*
X591183Y100490D01*
X590906Y100905D01*
X568988Y122823D01*
X569023Y123000D01*
X568869Y123774D01*
X568431Y124431D01*
X567774Y124869D01*
X567000Y125023D01*
X566226Y124869D01*
X565569Y124431D01*
X565131Y123774D01*
X564977Y123000D01*
X565091Y122427D01*
X564630Y122181D01*
X560988Y125823D01*
X561023Y126000D01*
X560869Y126774D01*
X560431Y127431D01*
X559774Y127869D01*
X559000Y128023D01*
X558226Y127869D01*
X557569Y127431D01*
X557131Y126774D01*
X556977Y126000D01*
X557131Y125226D01*
X557569Y124569D01*
X558226Y124131D01*
X559000Y123977D01*
X559177Y124012D01*
X583719Y99470D01*
Y72000D01*
X583817Y71510D01*
X584094Y71095D01*
X598095Y57095D01*
X598510Y56817D01*
X599000Y56719D01*
X609000D01*
X609490Y56817D01*
X609905Y57095D01*
X610906Y58095D01*
X611183Y58510D01*
X611280Y59000D01*
Y64099D01*
X612130Y64451D01*
X612915Y65053D01*
X613517Y65838D01*
X613895Y66752D01*
X614024Y67732D01*
X613895Y68713D01*
X613517Y69626D01*
X612915Y70411D01*
X612130Y71013D01*
X611217Y71391D01*
X610544Y71480D01*
Y71984D01*
X611217Y72073D01*
X612130Y72451D01*
X612915Y73053D01*
X613517Y73838D01*
X613895Y74752D01*
X614024Y75732D01*
X613895Y76713D01*
X613517Y77626D01*
X612915Y78411D01*
X612130Y79013D01*
X611217Y79391D01*
X610544Y79480D01*
Y79984D01*
X611217Y80073D01*
X612130Y80451D01*
X612915Y81054D01*
X613517Y81838D01*
X613895Y82752D01*
X614024Y83732D01*
X613895Y84713D01*
X613517Y85626D01*
X612915Y86411D01*
X612130Y87013D01*
X611217Y87391D01*
X610572Y87476D01*
X610605Y87976D01*
X613992D01*
Y95488D01*
X611280D01*
Y103000D01*
X611183Y103490D01*
X610906Y103905D01*
X582905Y131905D01*
X582490Y132183D01*
X582000Y132281D01*
X573531D01*
X573431Y132431D01*
X572774Y132869D01*
X572000Y133023D01*
D02*
G37*
G36*
X141000Y94224D02*
X140149Y94055D01*
X139427Y93572D01*
X138945Y92851D01*
X138776Y92000D01*
X138945Y91149D01*
X139427Y90428D01*
X140149Y89946D01*
X141000Y89776D01*
X141851Y89946D01*
X142572Y90428D01*
X143054Y91149D01*
X143224Y92000D01*
X143054Y92851D01*
X142572Y93572D01*
X141851Y94055D01*
X141000Y94224D01*
D02*
G37*
G36*
X134000D02*
X133149Y94055D01*
X132428Y93572D01*
X131946Y92851D01*
X131776Y92000D01*
X131946Y91149D01*
X132428Y90428D01*
X133149Y89946D01*
X134000Y89776D01*
X134851Y89946D01*
X135573Y90428D01*
X136055Y91149D01*
X136224Y92000D01*
X136055Y92851D01*
X135573Y93572D01*
X134851Y94055D01*
X134000Y94224D01*
D02*
G37*
G36*
X24409Y113840D02*
X23069Y113663D01*
X21820Y113146D01*
X20748Y112323D01*
X19925Y111250D01*
X19408Y110002D01*
X19231Y108661D01*
X19408Y107321D01*
X19925Y106072D01*
X20748Y105000D01*
X21820Y104177D01*
X22271Y103990D01*
Y103490D01*
X21820Y103303D01*
X20748Y102480D01*
X19925Y101408D01*
X19408Y100159D01*
X19231Y98819D01*
X19408Y97479D01*
X19925Y96230D01*
X20748Y95157D01*
X21556Y94538D01*
X21549Y94301D01*
X21446Y93992D01*
X20796Y93722D01*
X20155Y93231D01*
X19663Y92590D01*
X19354Y91844D01*
X19249Y91043D01*
Y86910D01*
X19354Y86109D01*
X19663Y85363D01*
X20155Y84722D01*
X20796Y84231D01*
X21542Y83921D01*
X22343Y83816D01*
X26476D01*
X27277Y83921D01*
X28023Y84231D01*
X28664Y84722D01*
X29155Y85363D01*
X29464Y86109D01*
X29570Y86910D01*
Y91043D01*
X29464Y91844D01*
X29155Y92590D01*
X28664Y93231D01*
X28023Y93722D01*
X27373Y93992D01*
X27270Y94301D01*
X27263Y94538D01*
X28071Y95157D01*
X28894Y96230D01*
X29411Y97479D01*
X29588Y98819D01*
X29411Y100159D01*
X28894Y101408D01*
X28071Y102480D01*
X26998Y103303D01*
X26548Y103490D01*
Y103990D01*
X26998Y104177D01*
X28071Y105000D01*
X28894Y106072D01*
X29411Y107321D01*
X29588Y108661D01*
X29411Y110002D01*
X28894Y111250D01*
X28071Y112323D01*
X26998Y113146D01*
X25750Y113663D01*
X24409Y113840D01*
D02*
G37*
G36*
X381551Y75960D02*
X380777Y75806D01*
X380121Y75368D01*
X379682Y74711D01*
X379528Y73937D01*
X379682Y73163D01*
X380121Y72506D01*
X380777Y72068D01*
X381551Y71914D01*
X382325Y72068D01*
X382982Y72506D01*
X383420Y73163D01*
X383574Y73937D01*
X383420Y74711D01*
X382982Y75368D01*
X382325Y75806D01*
X381551Y75960D01*
D02*
G37*
G36*
X247000Y81530D02*
X246086Y81410D01*
X245235Y81057D01*
X244504Y80496D01*
X243943Y79765D01*
X243590Y78914D01*
X243470Y78000D01*
X243590Y77086D01*
X243943Y76235D01*
X244504Y75504D01*
X245235Y74943D01*
X245651Y74771D01*
Y74229D01*
X245235Y74057D01*
X244504Y73496D01*
X243943Y72765D01*
X243590Y71914D01*
X243470Y71000D01*
X243590Y70086D01*
X243943Y69235D01*
X244504Y68504D01*
X245235Y67943D01*
X246086Y67590D01*
X247000Y67470D01*
X247914Y67590D01*
X248765Y67943D01*
X249496Y68504D01*
X250057Y69235D01*
X250410Y70086D01*
X250530Y71000D01*
X250410Y71914D01*
X250057Y72765D01*
X249496Y73496D01*
X248765Y74057D01*
X248349Y74229D01*
Y74771D01*
X248765Y74943D01*
X249496Y75504D01*
X250057Y76235D01*
X250410Y77086D01*
X250530Y78000D01*
X250410Y78914D01*
X250057Y79765D01*
X249496Y80496D01*
X248765Y81057D01*
X247914Y81410D01*
X247000Y81530D01*
D02*
G37*
G36*
X237000D02*
X236086Y81410D01*
X235235Y81057D01*
X234504Y80496D01*
X233943Y79765D01*
X233590Y78914D01*
X233470Y78000D01*
X233590Y77086D01*
X233943Y76235D01*
X234504Y75504D01*
X235235Y74943D01*
X235650Y74771D01*
Y74229D01*
X235235Y74057D01*
X234504Y73496D01*
X233943Y72765D01*
X233590Y71914D01*
X233470Y71000D01*
X233590Y70086D01*
X233943Y69235D01*
X234504Y68504D01*
X235235Y67943D01*
X236086Y67590D01*
X237000Y67470D01*
X237914Y67590D01*
X238765Y67943D01*
X239496Y68504D01*
X240057Y69235D01*
X240410Y70086D01*
X240530Y71000D01*
X240410Y71914D01*
X240057Y72765D01*
X239496Y73496D01*
X238765Y74057D01*
X238350Y74229D01*
Y74771D01*
X238765Y74943D01*
X239496Y75504D01*
X240057Y76235D01*
X240410Y77086D01*
X240530Y78000D01*
X240410Y78914D01*
X240057Y79765D01*
X239496Y80496D01*
X238765Y81057D01*
X237914Y81410D01*
X237000Y81530D01*
D02*
G37*
G36*
X194110Y53969D02*
X186173D01*
Y46031D01*
X194110D01*
Y53969D01*
D02*
G37*
G36*
X510000Y54185D02*
X508917Y54043D01*
X507907Y53625D01*
X507041Y52960D01*
X506375Y52093D01*
X505957Y51083D01*
X505815Y50000D01*
X505957Y48917D01*
X506375Y47907D01*
X507041Y47041D01*
X507907Y46375D01*
X508917Y45957D01*
X510000Y45815D01*
X511083Y45957D01*
X512093Y46375D01*
X512959Y47041D01*
X513625Y47907D01*
X514043Y48917D01*
X514185Y50000D01*
X514043Y51083D01*
X513625Y52093D01*
X512959Y52960D01*
X512093Y53625D01*
X511083Y54043D01*
X510000Y54185D01*
D02*
G37*
G36*
X620236Y60166D02*
X618786Y60023D01*
X617392Y59600D01*
X616106Y58913D01*
X614980Y57988D01*
X614055Y56862D01*
X613369Y55577D01*
X612946Y54182D01*
X612803Y52732D01*
X612946Y51282D01*
X613369Y49887D01*
X614055Y48602D01*
X614980Y47476D01*
X616106Y46551D01*
X617392Y45865D01*
X618786Y45442D01*
X620236Y45299D01*
X621686Y45442D01*
X623081Y45865D01*
X624366Y46551D01*
X625492Y47476D01*
X626417Y48602D01*
X627104Y49887D01*
X627527Y51282D01*
X627670Y52732D01*
X627527Y54182D01*
X627104Y55577D01*
X626417Y56862D01*
X625492Y57988D01*
X624366Y58913D01*
X623081Y59600D01*
X621686Y60023D01*
X620236Y60166D01*
D02*
G37*
G36*
X606736Y51506D02*
X605242Y51309D01*
X603849Y50732D01*
X602654Y49815D01*
X601736Y48619D01*
X601159Y47227D01*
X600962Y45732D01*
X601159Y44238D01*
X601736Y42845D01*
X602654Y41649D01*
X603849Y40732D01*
X605242Y40155D01*
X606736Y39958D01*
X608231Y40155D01*
X609623Y40732D01*
X610819Y41649D01*
X611736Y42845D01*
X612313Y44238D01*
X612510Y45732D01*
X612313Y47227D01*
X611736Y48619D01*
X610819Y49815D01*
X609623Y50732D01*
X608231Y51309D01*
X606736Y51506D01*
D02*
G37*
G36*
X15354Y58939D02*
X13648Y58805D01*
X11984Y58405D01*
X10402Y57750D01*
X8943Y56856D01*
X7642Y55744D01*
X6530Y54443D01*
X5636Y52984D01*
X4981Y51402D01*
X4581Y49738D01*
X4447Y48032D01*
X4581Y46325D01*
X4981Y44661D01*
X5636Y43080D01*
X6530Y41620D01*
X7642Y40319D01*
X8943Y39207D01*
X10402Y38313D01*
X11984Y37658D01*
X13648Y37258D01*
X15354Y37124D01*
X17061Y37258D01*
X18725Y37658D01*
X20306Y38313D01*
X21766Y39207D01*
X23067Y40319D01*
X24179Y41620D01*
X25073Y43080D01*
X25728Y44661D01*
X26128Y46325D01*
X26262Y48032D01*
X26128Y49738D01*
X25728Y51402D01*
X25073Y52984D01*
X24179Y54443D01*
X23067Y55744D01*
X21766Y56856D01*
X20306Y57750D01*
X18725Y58405D01*
X17061Y58805D01*
X15354Y58939D01*
D02*
G37*
G36*
X190142Y44003D02*
X189106Y43866D01*
X188140Y43466D01*
X187311Y42830D01*
X186675Y42001D01*
X186275Y41036D01*
X186139Y40000D01*
X186275Y38964D01*
X186675Y37999D01*
X187311Y37170D01*
X188140Y36533D01*
X189106Y36134D01*
X190142Y35997D01*
X191178Y36134D01*
X192143Y36533D01*
X192972Y37170D01*
X193608Y37999D01*
X194008Y38964D01*
X194144Y40000D01*
X194008Y41036D01*
X193608Y42001D01*
X192972Y42830D01*
X192143Y43466D01*
X191178Y43866D01*
X190142Y44003D01*
D02*
G37*
G36*
X510000Y42185D02*
X508917Y42043D01*
X507907Y41625D01*
X507041Y40960D01*
X506375Y40093D01*
X505957Y39083D01*
X505815Y38000D01*
X505957Y36917D01*
X506375Y35907D01*
X507041Y35041D01*
X507907Y34375D01*
X508917Y33957D01*
X510000Y33815D01*
X511083Y33957D01*
X512093Y34375D01*
X512959Y35041D01*
X513625Y35907D01*
X514043Y36917D01*
X514185Y38000D01*
X514043Y39083D01*
X513625Y40093D01*
X512959Y40960D01*
X512093Y41625D01*
X511083Y42043D01*
X510000Y42185D01*
D02*
G37*
G36*
X480000D02*
X478917Y42043D01*
X477907Y41625D01*
X477040Y40960D01*
X476375Y40093D01*
X475957Y39083D01*
X475815Y38000D01*
X475957Y36917D01*
X476375Y35907D01*
X477040Y35041D01*
X477907Y34375D01*
X478917Y33957D01*
X480000Y33815D01*
X481083Y33957D01*
X482093Y34375D01*
X482960Y35041D01*
X483625Y35907D01*
X484043Y36917D01*
X484185Y38000D01*
X484043Y39083D01*
X483625Y40093D01*
X482960Y40960D01*
X482093Y41625D01*
X481083Y42043D01*
X480000Y42185D01*
D02*
G37*
G36*
X190142Y34003D02*
X189106Y33866D01*
X188140Y33467D01*
X187311Y32830D01*
X186675Y32001D01*
X186275Y31036D01*
X186139Y30000D01*
X186275Y28964D01*
X186675Y27999D01*
X187311Y27170D01*
X188140Y26533D01*
X189106Y26134D01*
X190142Y25997D01*
X191178Y26134D01*
X192143Y26533D01*
X192972Y27170D01*
X193608Y27999D01*
X194008Y28964D01*
X194144Y30000D01*
X194008Y31036D01*
X193608Y32001D01*
X192972Y32830D01*
X192143Y33467D01*
X191178Y33866D01*
X190142Y34003D01*
D02*
G37*
G36*
X151575Y25452D02*
X150724Y25283D01*
X150002Y24801D01*
X149520Y24079D01*
X149351Y23228D01*
X149520Y22377D01*
X150002Y21656D01*
X150724Y21174D01*
X151575Y21004D01*
X152426Y21174D01*
X153147Y21656D01*
X153629Y22377D01*
X153799Y23228D01*
X153629Y24079D01*
X153147Y24801D01*
X152426Y25283D01*
X151575Y25452D01*
D02*
G37*
G36*
X248000Y23224D02*
X247149Y23055D01*
X246427Y22572D01*
X245945Y21851D01*
X245776Y21000D01*
X245945Y20149D01*
X246427Y19428D01*
X247149Y18945D01*
X248000Y18776D01*
X248851Y18945D01*
X249572Y19428D01*
X250055Y20149D01*
X250224Y21000D01*
X250055Y21851D01*
X249572Y22572D01*
X248851Y23055D01*
X248000Y23224D01*
D02*
G37*
G36*
X238000D02*
X237149Y23055D01*
X236427Y22572D01*
X235945Y21851D01*
X235776Y21000D01*
X235945Y20149D01*
X236427Y19428D01*
X237149Y18945D01*
X238000Y18776D01*
X238851Y18945D01*
X239573Y19428D01*
X240055Y20149D01*
X240224Y21000D01*
X240055Y21851D01*
X239573Y22572D01*
X238851Y23055D01*
X238000Y23224D01*
D02*
G37*
G36*
X230000D02*
X229149Y23055D01*
X228428Y22572D01*
X227945Y21851D01*
X227776Y21000D01*
X227945Y20149D01*
X228428Y19428D01*
X229149Y18945D01*
X230000Y18776D01*
X230851Y18945D01*
X231573Y19428D01*
X232055Y20149D01*
X232224Y21000D01*
X232055Y21851D01*
X231573Y22572D01*
X230851Y23055D01*
X230000Y23224D01*
D02*
G37*
G36*
X145276Y19547D02*
X144425Y19377D01*
X143703Y18895D01*
X143221Y18174D01*
X143052Y17323D01*
X143221Y16472D01*
X143703Y15750D01*
X144425Y15268D01*
X145276Y15099D01*
X146127Y15268D01*
X146848Y15750D01*
X147330Y16472D01*
X147499Y17323D01*
X147330Y18174D01*
X146848Y18895D01*
X146127Y19377D01*
X145276Y19547D01*
D02*
G37*
G36*
X627795Y30593D02*
X626089Y30458D01*
X624425Y30059D01*
X622843Y29404D01*
X621384Y28510D01*
X620082Y27398D01*
X618971Y26096D01*
X618076Y24637D01*
X617421Y23056D01*
X617022Y21391D01*
X616888Y19685D01*
X617022Y17979D01*
X617421Y16314D01*
X618076Y14733D01*
X618971Y13274D01*
X620082Y11972D01*
X621384Y10860D01*
X622843Y9966D01*
X624425Y9311D01*
X626089Y8912D01*
X627795Y8777D01*
X629501Y8912D01*
X631166Y9311D01*
X632747Y9966D01*
X634206Y10860D01*
X635508Y11972D01*
X636620Y13274D01*
X637514Y14733D01*
X638169Y16314D01*
X638568Y17979D01*
X638703Y19685D01*
X638568Y21391D01*
X638169Y23056D01*
X637514Y24637D01*
X636620Y26096D01*
X635508Y27398D01*
X634206Y28510D01*
X632747Y29404D01*
X631166Y30059D01*
X629501Y30458D01*
X627795Y30593D01*
D02*
G37*
G36*
X19685D02*
X17979Y30458D01*
X16314Y30059D01*
X14733Y29404D01*
X13274Y28510D01*
X11972Y27398D01*
X10860Y26096D01*
X9966Y24637D01*
X9311Y23056D01*
X8912Y21391D01*
X8777Y19685D01*
X8912Y17979D01*
X9311Y16314D01*
X9966Y14733D01*
X10860Y13274D01*
X11972Y11972D01*
X13274Y10860D01*
X14733Y9966D01*
X16314Y9311D01*
X17979Y8912D01*
X19685Y8777D01*
X21391Y8912D01*
X23056Y9311D01*
X24637Y9966D01*
X26096Y10860D01*
X27398Y11972D01*
X28510Y13274D01*
X29404Y14733D01*
X30059Y16314D01*
X30458Y17979D01*
X30593Y19685D01*
X30458Y21391D01*
X30059Y23056D01*
X29404Y24637D01*
X28510Y26096D01*
X27398Y27398D01*
X26096Y28510D01*
X24637Y29404D01*
X23056Y30059D01*
X21391Y30458D01*
X19685Y30593D01*
D02*
G37*
%LPD*%
D14*
X423279Y260279D02*
X499279D01*
X423000Y260000D02*
X423279Y260279D01*
X499279D02*
X499394Y260394D01*
X293000Y223000D02*
Y232000D01*
D15*
X258000Y326000D02*
X407000D01*
X153000Y338000D02*
X429000D01*
X193000Y335000D02*
X423000D01*
X233000Y332000D02*
X418000D01*
X213000Y323000D02*
X400000D01*
X173000Y329000D02*
X413000D01*
D63*
X466249Y64982D02*
X576896Y175629D01*
X465353Y65353D02*
X576000Y176000D01*
X557296Y308902D02*
X558000Y309606D01*
Y311000D01*
X557296Y308075D02*
Y308902D01*
X576000Y288267D02*
Y289371D01*
X576896Y175629D02*
Y287371D01*
X557296Y308075D02*
X576000Y289371D01*
Y288267D02*
X576896Y287371D01*
X466249Y47639D02*
Y64982D01*
X556066Y308699D02*
X556401Y308364D01*
X555000Y309000D02*
X555301Y308699D01*
X556401Y307704D02*
X575104Y289000D01*
X555301Y308699D02*
X556066D01*
X575104Y287896D02*
X576000Y287000D01*
Y176000D02*
Y287000D01*
X556401Y307704D02*
Y308364D01*
X575104Y287896D02*
Y289000D01*
X465353Y47268D02*
Y65353D01*
X480052Y76052D02*
X578000Y174000D01*
X480948Y75681D02*
X578896Y173629D01*
X555425Y195308D02*
X569767Y180966D01*
X554549Y194917D02*
X568832Y180634D01*
X555425Y195308D02*
Y197591D01*
X446249Y47639D02*
Y53982D01*
X553000Y195000D02*
X553083Y194917D01*
X445353Y47268D02*
Y54353D01*
X552549Y176917D02*
X557233Y172233D01*
X553425Y177307D02*
Y179591D01*
X440000Y49104D02*
X440896Y50000D01*
X440000Y44680D02*
Y49104D01*
X439768Y44448D02*
X440000Y44680D01*
X439440Y44448D02*
X439768D01*
X436249Y47639D02*
X439440Y44448D01*
X436249Y47639D02*
Y51554D01*
X440000Y38000D02*
Y43320D01*
X439768Y43552D02*
X440000Y43320D01*
X439069Y43552D02*
X439768D01*
X435353Y47268D02*
X439069Y43552D01*
X435353Y47268D02*
Y51925D01*
X436249Y51554D02*
X493222Y108527D01*
X498260D01*
X558128Y168395D01*
Y172604D01*
X553425Y177307D02*
X558128Y172604D01*
X446249Y53982D02*
X570732Y178465D01*
Y179535D01*
X569767Y180500D02*
X570732Y179535D01*
X569767Y180500D02*
Y180966D01*
X445353Y54353D02*
X569836Y178836D01*
Y179164D01*
X568832Y180168D02*
X569836Y179164D01*
X568832Y180168D02*
Y180634D01*
X553083Y194917D02*
X554549D01*
X435353Y51925D02*
X492851Y109423D01*
X497889D01*
X557233Y168766D01*
Y172233D01*
X551083Y176917D02*
X552549D01*
X551000Y177000D02*
X551083Y176917D01*
X558000Y320516D02*
Y320903D01*
X558758Y321661D01*
X559086D01*
X578000Y302747D01*
Y174000D02*
Y302747D01*
X559000Y324000D02*
X559227Y323773D01*
Y322787D02*
Y323773D01*
Y322787D02*
X578896Y303118D01*
Y173629D02*
Y303118D01*
X465353Y47268D02*
X469069Y43552D01*
X482086Y74000D02*
X482543D01*
X480948Y75138D02*
X482086Y74000D01*
X480948Y75138D02*
Y75681D01*
X480052Y75138D02*
Y76052D01*
X479000Y74086D02*
X480052Y75138D01*
X479000Y74000D02*
Y74086D01*
X450000Y38000D02*
Y43320D01*
X449768Y43552D02*
X450000Y43320D01*
X449069Y43552D02*
X449768D01*
X445353Y47268D02*
X449069Y43552D01*
X450000Y44680D02*
Y50000D01*
X449768Y44448D02*
X450000Y44680D01*
X449440Y44448D02*
X449768D01*
X446249Y47639D02*
X449440Y44448D01*
X466249Y47639D02*
X469440Y44448D01*
X470000Y38000D02*
Y43320D01*
X469768Y43552D02*
X470000Y43320D01*
X469069Y43552D02*
X469768D01*
X470000Y44680D02*
Y50000D01*
X469768Y44448D02*
X470000Y44680D01*
X469440Y44448D02*
X469768D01*
D64*
X495295Y83295D02*
X585000Y173000D01*
X500000Y196000D02*
X540000Y156000D01*
X492000Y305000D02*
X574012Y222988D01*
X460000Y50000D02*
Y63000D01*
X500000Y50000D02*
Y86000D01*
X485295Y77295D02*
X581000Y173000D01*
X482000Y305000D02*
X572000Y215000D01*
X488000Y195000D02*
X531000Y152000D01*
X490000Y80000D02*
X583000Y173000D01*
X460000Y63000D02*
X574012Y177012D01*
Y222988D01*
X430000Y50000D02*
X487000Y107000D01*
X488000D01*
X492000Y111000D01*
X496000D01*
X540000Y155000D01*
Y156000D01*
X455295Y61295D02*
X572000Y178000D01*
Y215000D01*
X455897Y79897D02*
X489000Y113000D01*
X495000D01*
X531000Y149000D01*
Y152000D01*
X603727Y346326D02*
X603937Y346535D01*
X600169Y346326D02*
X603727D01*
X595586Y341743D02*
X600169Y346326D01*
X586743Y341743D02*
X595586D01*
X583000Y338000D02*
X586743Y341743D01*
X583000Y173000D02*
Y338000D01*
X470000Y195000D02*
X488000D01*
X589535Y346535D02*
X593937D01*
X581000Y338000D02*
X589535Y346535D01*
X581000Y173000D02*
Y338000D01*
X599382Y251980D02*
X603937Y256535D01*
X587280Y251980D02*
X599382D01*
X586980Y251680D02*
X587280Y251980D01*
X586980Y172980D02*
Y251680D01*
X500000Y86000D02*
X586980Y172980D01*
X587535Y256535D02*
X593937D01*
X585000Y254000D02*
X587535Y256535D01*
X585000Y173000D02*
Y254000D01*
X495295Y39004D02*
Y83295D01*
X490000Y50000D02*
Y80000D01*
X485295Y42705D02*
Y77295D01*
X303000Y372000D02*
X307905D01*
X291000Y360000D02*
X303000Y372000D01*
X307000Y370000D02*
X312559D01*
X291000Y354000D02*
X307000Y370000D01*
X423000Y45000D02*
X430000Y38000D01*
X423000Y45000D02*
Y51499D01*
X451398Y79897D01*
X455897D01*
X455295Y48051D02*
Y61295D01*
Y48051D02*
X460000Y43347D01*
Y38000D02*
Y43347D01*
X485295Y42705D02*
X490000Y38000D01*
X495295Y39004D02*
X496083Y38217D01*
X499783D01*
X500000Y38000D01*
X393976Y400024D02*
X405000Y389000D01*
X82024Y400024D02*
X393976D01*
X80709Y398709D02*
X82024Y400024D01*
X390976Y399012D02*
X403988Y386000D01*
X86024Y399012D02*
X390976D01*
X85591Y398579D02*
X86024Y399012D01*
X312559Y370000D02*
X317776Y375217D01*
Y382461D01*
X313071Y387165D02*
X317776Y382461D01*
X204331Y385669D02*
X209449Y380551D01*
Y365551D02*
Y380551D01*
Y365551D02*
X213000Y362000D01*
X189035Y382461D02*
Y395036D01*
Y382461D02*
X194331Y377165D01*
X189035Y395036D02*
X192000Y398000D01*
X80709Y382047D02*
Y398709D01*
Y382047D02*
X85591Y377165D01*
X112000Y224000D02*
Y232000D01*
X299000Y394000D02*
X380000D01*
X298000Y393000D02*
X299000Y394000D01*
X298000Y381000D02*
Y393000D01*
Y381000D02*
X301835Y377165D01*
X303071D01*
X196000Y396000D02*
X384000D01*
X194331Y394331D02*
X196000Y396000D01*
X194331Y387165D02*
Y394331D01*
X192000Y398000D02*
X387000D01*
X85591Y387165D02*
Y398579D01*
X307905Y372000D02*
X313071Y377165D01*
X213000Y358000D02*
Y362000D01*
X204331Y385669D02*
Y387165D01*
X193000Y358000D02*
Y369000D01*
X195000Y371000D01*
X198165D01*
X204331Y377165D01*
X293000Y242000D02*
Y251000D01*
X393000Y374000D02*
X413000D01*
X397000Y377000D02*
X437000D01*
X380000Y394000D02*
X397000Y377000D01*
X375000Y392000D02*
X393000Y374000D01*
X112000Y242000D02*
Y252000D01*
X610000Y91968D02*
Y103000D01*
Y91968D02*
X610236Y91732D01*
X572000Y131000D02*
X582000D01*
X610000Y103000D01*
X592000Y80000D02*
X602968D01*
X603236Y79732D01*
X590000Y82000D02*
X592000Y80000D01*
X590000Y82000D02*
Y100000D01*
X567000Y123000D02*
X590000Y100000D01*
X610000Y67496D02*
X610236Y67732D01*
X610000Y59000D02*
Y67496D01*
X609000Y58000D02*
X610000Y59000D01*
X599000Y58000D02*
X609000D01*
X585000Y72000D02*
X599000Y58000D01*
X585000Y72000D02*
Y100000D01*
X559000Y126000D02*
X585000Y100000D01*
X400000Y380000D02*
X412000D01*
X402000Y383000D02*
X424000D01*
X384000Y396000D02*
X400000Y380000D01*
X387000Y398000D02*
X402000Y383000D01*
X403988Y386000D02*
X430000D01*
X405000Y389000D02*
X411000D01*
X304000Y392000D02*
X375000D01*
X303000Y391000D02*
X304000Y392000D01*
X303000Y387236D02*
Y391000D01*
Y387236D02*
X303071Y387165D01*
D65*
X510000Y50000D02*
D03*
X500000D02*
D03*
X490000D02*
D03*
X470000D02*
D03*
X450000D02*
D03*
X440000D02*
D03*
X460000D02*
D03*
X480000D02*
D03*
X510000Y38000D02*
D03*
X500000D02*
D03*
X490000D02*
D03*
X470000D02*
D03*
X450000D02*
D03*
X440000D02*
D03*
X460000D02*
D03*
X480000D02*
D03*
X343071Y387165D02*
D03*
X333071D02*
D03*
X323071D02*
D03*
X343071Y377165D02*
D03*
X333071D02*
D03*
X323071D02*
D03*
X313071Y387165D02*
D03*
Y377165D02*
D03*
X303071Y387165D02*
D03*
Y377165D02*
D03*
X293071Y387165D02*
D03*
Y377165D02*
D03*
X283071Y387165D02*
D03*
X17835Y336850D02*
D03*
X27835Y346850D02*
D03*
X17835D02*
D03*
X27835Y356850D02*
D03*
X17835D02*
D03*
X125591Y387165D02*
D03*
X115591D02*
D03*
X105591D02*
D03*
X125591Y377165D02*
D03*
X115591D02*
D03*
X105591D02*
D03*
X95591Y387165D02*
D03*
Y377165D02*
D03*
X85591Y387165D02*
D03*
Y377165D02*
D03*
X75591Y387165D02*
D03*
Y377165D02*
D03*
X65591Y387165D02*
D03*
X234331D02*
D03*
X224331D02*
D03*
X214331D02*
D03*
X234331Y377165D02*
D03*
X224331D02*
D03*
X214331D02*
D03*
X204331Y387165D02*
D03*
Y377165D02*
D03*
X194331Y387165D02*
D03*
Y377165D02*
D03*
X184331Y387165D02*
D03*
Y377165D02*
D03*
X174331Y387165D02*
D03*
D66*
X430000Y50000D02*
D03*
Y38000D02*
D03*
X283071Y377165D02*
D03*
X65591D02*
D03*
X174331D02*
D03*
D67*
X27835Y336850D02*
D03*
D68*
X21260Y180315D02*
D03*
Y224803D02*
D03*
X21654Y267323D02*
D03*
X24409Y88976D02*
D03*
D69*
X21260Y200000D02*
D03*
Y190157D02*
D03*
Y244488D02*
D03*
Y234646D02*
D03*
X21654Y287008D02*
D03*
Y277165D02*
D03*
X24409Y98819D02*
D03*
Y108661D02*
D03*
D70*
X199858Y100000D02*
D03*
D71*
Y110000D02*
D03*
Y120000D02*
D03*
D72*
X603937Y346535D02*
D03*
Y336535D02*
D03*
Y326535D02*
D03*
Y316535D02*
D03*
Y306535D02*
D03*
Y296535D02*
D03*
Y286535D02*
D03*
Y276535D02*
D03*
Y266535D02*
D03*
Y256535D02*
D03*
Y246535D02*
D03*
Y236535D02*
D03*
Y226535D02*
D03*
Y216535D02*
D03*
Y206535D02*
D03*
X593937Y346535D02*
D03*
Y336535D02*
D03*
Y326535D02*
D03*
Y316535D02*
D03*
Y306535D02*
D03*
Y296535D02*
D03*
Y286535D02*
D03*
Y276535D02*
D03*
Y266535D02*
D03*
Y256535D02*
D03*
Y246535D02*
D03*
Y236535D02*
D03*
Y226535D02*
D03*
Y216535D02*
D03*
Y206535D02*
D03*
D73*
X610236Y91732D02*
D03*
Y153732D02*
D03*
D74*
X603236Y87732D02*
D03*
X610236Y83732D02*
D03*
X603236Y79732D02*
D03*
X610236Y75732D02*
D03*
X603236Y71732D02*
D03*
X610236Y67732D02*
D03*
X603236Y63732D02*
D03*
Y125732D02*
D03*
X610236Y129732D02*
D03*
X603236Y133732D02*
D03*
X610236Y137732D02*
D03*
X603236Y141732D02*
D03*
X610236Y145732D02*
D03*
X603236Y149732D02*
D03*
D75*
X620236Y52732D02*
D03*
Y164732D02*
D03*
D76*
X606736Y45732D02*
D03*
Y171732D02*
D03*
D77*
X190142Y30000D02*
D03*
Y40000D02*
D03*
D78*
Y50000D02*
D03*
D79*
X247000Y78000D02*
D03*
X237000D02*
D03*
Y71000D02*
D03*
X247000D02*
D03*
D80*
X290000Y117000D02*
D03*
Y122000D02*
D03*
X296000D02*
D03*
Y117000D02*
D03*
X506000Y168000D02*
D03*
X478000Y159000D02*
D03*
X448000Y198000D02*
D03*
X508000Y232000D02*
D03*
X480000Y220000D02*
D03*
X523213Y290488D02*
D03*
X145276Y17323D02*
D03*
X151575Y23228D02*
D03*
X220000Y237000D02*
D03*
X536221Y344882D02*
D03*
X238000Y21000D02*
D03*
X248000D02*
D03*
X230000D02*
D03*
X480000Y328000D02*
D03*
X488000D02*
D03*
X458000Y389000D02*
D03*
X450000D02*
D03*
X515213Y290488D02*
D03*
X465000Y206000D02*
D03*
X461000D02*
D03*
X448000Y202000D02*
D03*
X462756Y264878D02*
D03*
Y269756D02*
D03*
X452000Y265173D02*
D03*
X452000Y269000D02*
D03*
X141000Y92000D02*
D03*
X134000D02*
D03*
X293000Y316000D02*
D03*
X318000Y270000D02*
D03*
X167000Y231000D02*
D03*
X159000D02*
D03*
D81*
X291000Y360000D02*
D03*
Y354000D02*
D03*
X423000Y260000D02*
D03*
X558000Y311000D02*
D03*
X482543Y74000D02*
D03*
X553425Y179591D02*
D03*
X555425Y197591D02*
D03*
X559000Y324000D02*
D03*
X558000Y320516D02*
D03*
X479000Y74000D02*
D03*
X470000Y195000D02*
D03*
X500000Y196000D02*
D03*
X553000Y195000D02*
D03*
X551000Y177000D02*
D03*
X482000Y305000D02*
D03*
X492000D02*
D03*
X555000Y309000D02*
D03*
X485000Y258000D02*
D03*
X499394Y260394D02*
D03*
X146756Y236756D02*
D03*
X112000Y232000D02*
D03*
X429000Y338000D02*
D03*
X423000Y335000D02*
D03*
X418000Y332000D02*
D03*
X400000Y323000D02*
D03*
X413000Y329000D02*
D03*
Y374000D02*
D03*
X381551Y73937D02*
D03*
X382000Y106000D02*
D03*
X153000Y302000D02*
D03*
X102000Y205000D02*
D03*
Y270000D02*
D03*
X112000Y300000D02*
D03*
Y160000D02*
D03*
X318000Y205000D02*
D03*
X293000Y160000D02*
D03*
X293000Y232000D02*
D03*
Y223000D02*
D03*
X112000Y242000D02*
D03*
X567000Y123000D02*
D03*
X559000Y126000D02*
D03*
X572000Y131000D02*
D03*
X412000Y380000D02*
D03*
X411000Y389000D02*
D03*
X424000Y383000D02*
D03*
X437000Y377000D02*
D03*
X430000Y386000D02*
D03*
X258000Y326000D02*
D03*
X407000D02*
D03*
X213000Y323000D02*
D03*
X173000Y329000D02*
D03*
X233000Y332000D02*
D03*
X193000Y335000D02*
D03*
X153000Y338000D02*
D03*
X213000Y358000D02*
D03*
X193000D02*
D03*
X293000Y242000D02*
D03*
Y251000D02*
D03*
X112000Y252000D02*
D03*
Y224000D02*
D03*
D82*
X19685Y392795D02*
D03*
D83*
X15354Y48032D02*
D03*
X627795Y19685D02*
D03*
Y387795D02*
D03*
X19685Y19685D02*
D03*
M02*
