G04*
G04 #@! TF.GenerationSoftware,Altium Limited,Altium Designer,19.1.8 (144)*
G04*
G04 Layer_Color=16711935*
%FSLAX25Y25*%
%MOIN*%
G70*
G01*
G75*
%ADD15C,0.01000*%
%ADD18C,0.00600*%
D15*
X639669Y434221D02*
X645669Y436221D01*
X639669Y438221D02*
X645669Y436221D01*
X0D02*
X6000Y438221D01*
X0Y436221D02*
X6000Y434221D01*
X339329Y436221D02*
X645669D01*
X0D02*
X303140D01*
X645669Y1000D02*
Y437220D01*
X0Y1000D02*
Y437220D01*
X675591Y407480D02*
X677591Y401480D01*
X673591D02*
X675591Y407480D01*
X673591Y6000D02*
X675591Y0D01*
X677591Y6000D01*
X675591Y220235D02*
Y407480D01*
Y0D02*
Y184046D01*
X646669Y407480D02*
X676590D01*
X646669Y0D02*
X676590D01*
D18*
X304740Y431622D02*
X306739D01*
X305740D01*
Y437620D01*
X304740Y436620D01*
X313737Y437620D02*
X311738Y436620D01*
X309738Y434621D01*
Y432621D01*
X310738Y431622D01*
X312737D01*
X313737Y432621D01*
Y433621D01*
X312737Y434621D01*
X309738D01*
X318735Y431622D02*
Y437620D01*
X315736Y434621D01*
X319735D01*
X322734Y430622D02*
X323734Y431622D01*
Y432621D01*
X322734D01*
Y431622D01*
X323734D01*
X322734Y430622D01*
X321734Y429622D01*
X327732Y436620D02*
X328732Y437620D01*
X330732D01*
X331731Y436620D01*
Y432621D01*
X330732Y431622D01*
X328732D01*
X327732Y432621D01*
Y436620D01*
X333731D02*
X334730Y437620D01*
X336730D01*
X337729Y436620D01*
Y432621D01*
X336730Y431622D01*
X334730D01*
X333731Y432621D01*
Y436620D01*
X680189Y185645D02*
Y187645D01*
Y186645D01*
X674191D01*
X675191Y185645D01*
Y190644D02*
X674191Y191644D01*
Y193643D01*
X675191Y194643D01*
X679190D01*
X680189Y193643D01*
Y191644D01*
X679190Y190644D01*
X675191D01*
Y196642D02*
X674191Y197642D01*
Y199641D01*
X675191Y200641D01*
X676191D01*
X677190Y199641D01*
Y198641D01*
Y199641D01*
X678190Y200641D01*
X679190D01*
X680189Y199641D01*
Y197642D01*
X679190Y196642D01*
X681189Y203640D02*
X680189Y204639D01*
X679190D01*
Y203640D01*
X680189D01*
Y204639D01*
X681189Y203640D01*
X682189Y202640D01*
X674191Y212637D02*
Y208638D01*
X677190D01*
X676191Y210637D01*
Y211637D01*
X677190Y212637D01*
X679190D01*
X680189Y211637D01*
Y209638D01*
X679190Y208638D01*
X675191Y214636D02*
X674191Y215636D01*
Y217635D01*
X675191Y218635D01*
X679190D01*
X680189Y217635D01*
Y215636D01*
X679190Y214636D01*
X675191D01*
M02*
