G04*
G04 #@! TF.GenerationSoftware,Altium Limited,Altium Designer,19.1.8 (144)*
G04*
G04 Layer_Color=65535*
%FSLAX25Y25*%
%MOIN*%
G70*
G01*
G75*
%ADD10C,0.00984*%
%ADD11C,0.02362*%
%ADD12C,0.00787*%
%ADD13C,0.03937*%
%ADD14C,0.00591*%
%ADD15C,0.01000*%
%ADD16C,0.00800*%
%ADD17C,0.00500*%
%ADD18C,0.00600*%
%ADD19R,0.17717X0.03150*%
%ADD20R,0.03150X0.17716*%
G36*
X368917Y74000D02*
X367213Y74984D01*
Y73016D01*
X368917Y74000D01*
D02*
G37*
G36*
Y106000D02*
X367213Y106984D01*
Y105016D01*
X368917Y106000D01*
D02*
G37*
G36*
X516274Y108390D02*
X515377D01*
Y108923D01*
X515370Y108908D01*
X515341Y108871D01*
X515290Y108813D01*
X515224Y108748D01*
X515151Y108675D01*
X515057Y108595D01*
X514955Y108522D01*
X514845Y108456D01*
X514831Y108449D01*
X514794Y108434D01*
X514729Y108412D01*
X514656Y108383D01*
X514561Y108354D01*
X514452Y108332D01*
X514342Y108317D01*
X514226Y108310D01*
X514167D01*
X514123Y108317D01*
X514065Y108325D01*
X514007Y108339D01*
X513934Y108354D01*
X513854Y108376D01*
X513774Y108398D01*
X513686Y108434D01*
X513599Y108470D01*
X513504Y108522D01*
X513416Y108580D01*
X513322Y108645D01*
X513234Y108726D01*
X513147Y108813D01*
X513139Y108820D01*
X513125Y108835D01*
X513103Y108864D01*
X513081Y108908D01*
X513045Y108959D01*
X513008Y109025D01*
X512964Y109098D01*
X512928Y109185D01*
X512884Y109280D01*
X512841Y109382D01*
X512804Y109498D01*
X512775Y109622D01*
X512746Y109761D01*
X512724Y109907D01*
X512709Y110060D01*
X512702Y110227D01*
Y110235D01*
Y110271D01*
Y110315D01*
X512709Y110380D01*
X512716Y110461D01*
X512724Y110548D01*
X512738Y110650D01*
X512753Y110752D01*
X512804Y110986D01*
X512841Y111102D01*
X512884Y111219D01*
X512935Y111336D01*
X512993Y111445D01*
X513059Y111547D01*
X513132Y111642D01*
X513139Y111649D01*
X513154Y111664D01*
X513176Y111685D01*
X513212Y111722D01*
X513256Y111758D01*
X513307Y111795D01*
X513365Y111838D01*
X513438Y111890D01*
X513511Y111933D01*
X513599Y111977D01*
X513781Y112057D01*
X513890Y112086D01*
X514000Y112108D01*
X514116Y112123D01*
X514240Y112130D01*
X514298D01*
X514342Y112123D01*
X514393Y112116D01*
X514459Y112101D01*
X514524Y112086D01*
X514605Y112065D01*
X514685Y112043D01*
X514772Y112006D01*
X514860Y111962D01*
X514947Y111919D01*
X515042Y111853D01*
X515130Y111787D01*
X515217Y111707D01*
X515305Y111620D01*
Y113435D01*
X516274D01*
Y108390D01*
D02*
G37*
G36*
X566918Y112123D02*
X567012Y112108D01*
X567122Y112086D01*
X567231Y112057D01*
X567348Y112021D01*
X567457Y111962D01*
X567472Y111955D01*
X567501Y111933D01*
X567552Y111897D01*
X567618Y111846D01*
X567683Y111773D01*
X567756Y111693D01*
X567822Y111598D01*
X567880Y111481D01*
X567887Y111474D01*
X567895Y111438D01*
X567909Y111379D01*
X567931Y111299D01*
X567953Y111197D01*
X567967Y111066D01*
X567975Y110905D01*
X567982Y110723D01*
Y108390D01*
X567012D01*
Y110475D01*
Y110483D01*
Y110497D01*
Y110526D01*
Y110563D01*
X567005Y110658D01*
X566998Y110767D01*
X566991Y110883D01*
X566969Y111000D01*
X566947Y111102D01*
X566925Y111139D01*
X566910Y111175D01*
X566903Y111182D01*
X566881Y111212D01*
X566852Y111241D01*
X566808Y111284D01*
X566750Y111321D01*
X566677Y111357D01*
X566590Y111379D01*
X566495Y111387D01*
X566458D01*
X566422Y111379D01*
X566371Y111372D01*
X566313Y111357D01*
X566247Y111336D01*
X566174Y111306D01*
X566109Y111263D01*
X566101Y111255D01*
X566079Y111241D01*
X566050Y111212D01*
X566014Y111168D01*
X565970Y111117D01*
X565926Y111058D01*
X565890Y110986D01*
X565853Y110898D01*
Y110883D01*
X565839Y110854D01*
X565832Y110796D01*
X565817Y110716D01*
X565802Y110607D01*
X565795Y110475D01*
X565780Y110322D01*
Y110140D01*
Y108390D01*
X564811D01*
Y110388D01*
Y110395D01*
Y110410D01*
Y110439D01*
Y110475D01*
Y110563D01*
X564804Y110672D01*
X564796Y110789D01*
X564789Y110898D01*
X564774Y111000D01*
X564760Y111044D01*
X564752Y111073D01*
Y111080D01*
X564745Y111102D01*
X564731Y111131D01*
X564716Y111161D01*
X564665Y111241D01*
X564629Y111277D01*
X564592Y111306D01*
X564585Y111314D01*
X564570Y111321D01*
X564548Y111336D01*
X564519Y111350D01*
X564475Y111365D01*
X564425Y111372D01*
X564366Y111387D01*
X564264D01*
X564220Y111379D01*
X564169Y111372D01*
X564104Y111357D01*
X564038Y111336D01*
X563973Y111306D01*
X563900Y111263D01*
X563892Y111255D01*
X563870Y111241D01*
X563841Y111212D01*
X563805Y111175D01*
X563761Y111124D01*
X563717Y111066D01*
X563681Y110993D01*
X563645Y110913D01*
Y110905D01*
X563630Y110869D01*
X563623Y110811D01*
X563608Y110738D01*
X563593Y110628D01*
X563586Y110504D01*
X563572Y110344D01*
Y110162D01*
Y108390D01*
X562602D01*
Y112050D01*
X563491D01*
Y111547D01*
X563499Y111554D01*
X563513Y111569D01*
X563542Y111598D01*
X563579Y111642D01*
X563623Y111685D01*
X563674Y111729D01*
X563739Y111787D01*
X563812Y111838D01*
X563892Y111890D01*
X563980Y111948D01*
X564169Y112043D01*
X564279Y112079D01*
X564388Y112108D01*
X564505Y112123D01*
X564629Y112130D01*
X564687D01*
X564752Y112123D01*
X564833Y112116D01*
X564927Y112094D01*
X565030Y112072D01*
X565132Y112035D01*
X565234Y111984D01*
X565248Y111977D01*
X565277Y111955D01*
X565329Y111926D01*
X565387Y111875D01*
X565452Y111809D01*
X565525Y111737D01*
X565598Y111642D01*
X565664Y111540D01*
X565678Y111554D01*
X565707Y111591D01*
X565751Y111642D01*
X565817Y111707D01*
X565897Y111780D01*
X565985Y111853D01*
X566079Y111926D01*
X566181Y111984D01*
X566196Y111992D01*
X566232Y112006D01*
X566291Y112028D01*
X566364Y112057D01*
X566451Y112086D01*
X566553Y112108D01*
X566663Y112123D01*
X566779Y112130D01*
X566845D01*
X566918Y112123D01*
D02*
G37*
G36*
X545667Y112123D02*
X545748Y112108D01*
X545850Y112086D01*
X545959Y112050D01*
X546068Y112006D01*
X546185Y111941D01*
X545879Y111102D01*
X545871Y111109D01*
X545835Y111124D01*
X545791Y111153D01*
X545733Y111182D01*
X545660Y111212D01*
X545587Y111241D01*
X545507Y111255D01*
X545427Y111263D01*
X545398D01*
X545354Y111255D01*
X545310Y111248D01*
X545259Y111233D01*
X545201Y111212D01*
X545143Y111182D01*
X545084Y111146D01*
X545077Y111139D01*
X545062Y111124D01*
X545033Y111095D01*
X545004Y111051D01*
X544968Y111000D01*
X544931Y110927D01*
X544895Y110840D01*
X544865Y110738D01*
Y110723D01*
X544858Y110701D01*
X544851Y110679D01*
Y110643D01*
X544844Y110599D01*
X544836Y110541D01*
X544829Y110475D01*
X544822Y110402D01*
X544814Y110308D01*
X544807Y110213D01*
Y110096D01*
X544800Y109972D01*
X544793Y109834D01*
Y109681D01*
Y109513D01*
Y108390D01*
X543823D01*
Y112050D01*
X544720D01*
Y111532D01*
X544727Y111540D01*
X544756Y111583D01*
X544800Y111649D01*
X544858Y111729D01*
X544916Y111809D01*
X544989Y111890D01*
X545055Y111962D01*
X545128Y112013D01*
X545135Y112021D01*
X545157Y112035D01*
X545201Y112050D01*
X545252Y112072D01*
X545310Y112094D01*
X545383Y112116D01*
X545456Y112123D01*
X545543Y112130D01*
X545602D01*
X545667Y112123D01*
D02*
G37*
G36*
X533530D02*
X533610Y112108D01*
X533712Y112086D01*
X533821Y112050D01*
X533930Y112006D01*
X534047Y111941D01*
X533741Y111102D01*
X533734Y111109D01*
X533697Y111124D01*
X533653Y111153D01*
X533595Y111182D01*
X533522Y111212D01*
X533449Y111241D01*
X533369Y111255D01*
X533289Y111263D01*
X533260D01*
X533216Y111255D01*
X533172Y111248D01*
X533121Y111233D01*
X533063Y111212D01*
X533005Y111182D01*
X532946Y111146D01*
X532939Y111139D01*
X532924Y111124D01*
X532895Y111095D01*
X532866Y111051D01*
X532830Y111000D01*
X532793Y110927D01*
X532757Y110840D01*
X532728Y110738D01*
Y110723D01*
X532720Y110701D01*
X532713Y110679D01*
Y110643D01*
X532706Y110599D01*
X532698Y110541D01*
X532691Y110475D01*
X532684Y110402D01*
X532677Y110308D01*
X532669Y110213D01*
Y110096D01*
X532662Y109972D01*
X532655Y109834D01*
Y109681D01*
Y109513D01*
Y108390D01*
X531685D01*
Y112050D01*
X532582D01*
Y111532D01*
X532589Y111540D01*
X532618Y111583D01*
X532662Y111649D01*
X532720Y111729D01*
X532779Y111809D01*
X532852Y111890D01*
X532917Y111962D01*
X532990Y112013D01*
X532997Y112021D01*
X533019Y112035D01*
X533063Y112050D01*
X533114Y112072D01*
X533172Y112094D01*
X533245Y112116D01*
X533318Y112123D01*
X533406Y112130D01*
X533464D01*
X533530Y112123D01*
D02*
G37*
G36*
X502970D02*
X503050Y112108D01*
X503152Y112086D01*
X503261Y112050D01*
X503371Y112006D01*
X503487Y111941D01*
X503181Y111102D01*
X503174Y111109D01*
X503137Y111124D01*
X503094Y111153D01*
X503035Y111182D01*
X502962Y111212D01*
X502890Y111241D01*
X502809Y111255D01*
X502729Y111263D01*
X502700D01*
X502656Y111255D01*
X502613Y111248D01*
X502562Y111233D01*
X502503Y111212D01*
X502445Y111182D01*
X502387Y111146D01*
X502379Y111139D01*
X502365Y111124D01*
X502336Y111095D01*
X502306Y111051D01*
X502270Y111000D01*
X502234Y110927D01*
X502197Y110840D01*
X502168Y110738D01*
Y110723D01*
X502161Y110701D01*
X502153Y110679D01*
Y110643D01*
X502146Y110599D01*
X502139Y110541D01*
X502132Y110475D01*
X502124Y110402D01*
X502117Y110308D01*
X502110Y110213D01*
Y110096D01*
X502102Y109972D01*
X502095Y109834D01*
Y109681D01*
Y109513D01*
Y108390D01*
X501125D01*
Y112050D01*
X502022D01*
Y111532D01*
X502029Y111540D01*
X502059Y111583D01*
X502102Y111649D01*
X502161Y111729D01*
X502219Y111809D01*
X502292Y111890D01*
X502357Y111962D01*
X502430Y112013D01*
X502438Y112021D01*
X502459Y112035D01*
X502503Y112050D01*
X502554Y112072D01*
X502613Y112094D01*
X502685Y112116D01*
X502758Y112123D01*
X502846Y112130D01*
X502904D01*
X502970Y112123D01*
D02*
G37*
G36*
X482208Y112123D02*
X482288Y112108D01*
X482390Y112086D01*
X482500Y112050D01*
X482609Y112006D01*
X482725Y111941D01*
X482419Y111102D01*
X482412Y111109D01*
X482376Y111124D01*
X482332Y111153D01*
X482273Y111182D01*
X482201Y111212D01*
X482128Y111241D01*
X482048Y111255D01*
X481967Y111263D01*
X481938D01*
X481894Y111255D01*
X481851Y111248D01*
X481800Y111233D01*
X481741Y111212D01*
X481683Y111182D01*
X481625Y111146D01*
X481617Y111139D01*
X481603Y111124D01*
X481574Y111095D01*
X481544Y111051D01*
X481508Y111000D01*
X481472Y110927D01*
X481435Y110840D01*
X481406Y110738D01*
Y110723D01*
X481399Y110701D01*
X481391Y110679D01*
Y110643D01*
X481384Y110599D01*
X481377Y110541D01*
X481369Y110475D01*
X481362Y110402D01*
X481355Y110308D01*
X481348Y110213D01*
Y110096D01*
X481340Y109972D01*
X481333Y109834D01*
Y109681D01*
Y109513D01*
Y108390D01*
X480364D01*
Y112050D01*
X481260D01*
Y111532D01*
X481267Y111540D01*
X481297Y111583D01*
X481340Y111649D01*
X481399Y111729D01*
X481457Y111809D01*
X481530Y111890D01*
X481596Y111962D01*
X481668Y112013D01*
X481676Y112021D01*
X481698Y112035D01*
X481741Y112050D01*
X481792Y112072D01*
X481851Y112094D01*
X481924Y112116D01*
X481996Y112123D01*
X482084Y112130D01*
X482142D01*
X482208Y112123D01*
D02*
G37*
G36*
X523273Y112123D02*
X523323Y112116D01*
X523389Y112101D01*
X523462Y112086D01*
X523535Y112065D01*
X523622Y112043D01*
X523703Y112006D01*
X523797Y111970D01*
X523885Y111919D01*
X523980Y111860D01*
X524067Y111795D01*
X524155Y111715D01*
X524242Y111627D01*
X524249Y111620D01*
X524264Y111605D01*
X524286Y111576D01*
X524315Y111532D01*
X524344Y111489D01*
X524380Y111423D01*
X524424Y111350D01*
X524468Y111270D01*
X524505Y111175D01*
X524548Y111073D01*
X524585Y110956D01*
X524621Y110833D01*
X524643Y110694D01*
X524665Y110556D01*
X524679Y110395D01*
X524687Y110235D01*
Y110227D01*
Y110198D01*
Y110147D01*
X524679Y110082D01*
X524672Y110009D01*
X524665Y109921D01*
X524650Y109819D01*
X524628Y109717D01*
X524577Y109484D01*
X524541Y109367D01*
X524497Y109251D01*
X524446Y109134D01*
X524380Y109025D01*
X524315Y108915D01*
X524235Y108813D01*
X524227Y108806D01*
X524213Y108791D01*
X524191Y108769D01*
X524155Y108733D01*
X524111Y108696D01*
X524060Y108653D01*
X524002Y108609D01*
X523936Y108565D01*
X523856Y108514D01*
X523775Y108470D01*
X523593Y108390D01*
X523491Y108354D01*
X523382Y108332D01*
X523273Y108317D01*
X523156Y108310D01*
X523105D01*
X523046Y108317D01*
X522974Y108325D01*
X522886Y108339D01*
X522791Y108361D01*
X522696Y108390D01*
X522602Y108427D01*
X522594Y108434D01*
X522558Y108449D01*
X522514Y108485D01*
X522449Y108529D01*
X522368Y108580D01*
X522288Y108653D01*
X522193Y108740D01*
X522091Y108842D01*
Y106991D01*
X521122D01*
Y112050D01*
X522026D01*
Y111511D01*
X522033Y111525D01*
X522055Y111554D01*
X522099Y111605D01*
X522150Y111671D01*
X522215Y111744D01*
X522303Y111817D01*
X522390Y111890D01*
X522500Y111955D01*
X522514Y111962D01*
X522551Y111984D01*
X522616Y112013D01*
X522696Y112043D01*
X522791Y112072D01*
X522908Y112101D01*
X523032Y112123D01*
X523163Y112130D01*
X523221D01*
X523273Y112123D01*
D02*
G37*
G36*
X495556Y108390D02*
X494623D01*
X493996Y110738D01*
X493376Y108390D01*
X492436D01*
X491284Y112050D01*
X492217D01*
X492902Y109652D01*
X493537Y112050D01*
X494470D01*
X495075Y109652D01*
X495775Y112050D01*
X496730D01*
X495556Y108390D01*
D02*
G37*
G36*
X474794Y108390D02*
X473861D01*
X473234Y110738D01*
X472614Y108390D01*
X471674D01*
X470522Y112050D01*
X471455D01*
X472140Y109652D01*
X472775Y112050D01*
X473708D01*
X474313Y109652D01*
X475013Y112050D01*
X475968D01*
X474794Y108390D01*
D02*
G37*
G36*
X538487Y110774D02*
Y110767D01*
Y110738D01*
Y110687D01*
Y110628D01*
Y110556D01*
X538479Y110468D01*
Y110373D01*
Y110278D01*
X538465Y110067D01*
X538450Y109848D01*
X538443Y109754D01*
X538428Y109659D01*
X538414Y109571D01*
X538399Y109491D01*
Y109484D01*
X538392Y109476D01*
Y109455D01*
X538385Y109433D01*
X538363Y109360D01*
X538334Y109272D01*
X538290Y109170D01*
X538239Y109068D01*
X538173Y108959D01*
X538093Y108857D01*
X538086Y108842D01*
X538057Y108813D01*
X538005Y108769D01*
X537940Y108711D01*
X537852Y108645D01*
X537750Y108580D01*
X537634Y108507D01*
X537502Y108449D01*
X537495D01*
X537488Y108441D01*
X537466Y108434D01*
X537437Y108427D01*
X537400Y108412D01*
X537357Y108398D01*
X537298Y108383D01*
X537240Y108376D01*
X537102Y108347D01*
X536934Y108317D01*
X536744Y108303D01*
X536533Y108296D01*
X536416D01*
X536351Y108303D01*
X536285D01*
X536205Y108310D01*
X536125Y108317D01*
X535950Y108332D01*
X535768Y108361D01*
X535585Y108405D01*
X535505Y108427D01*
X535432Y108456D01*
X535425D01*
X535418Y108463D01*
X535374Y108485D01*
X535301Y108522D01*
X535221Y108573D01*
X535126Y108638D01*
X535024Y108711D01*
X534929Y108799D01*
X534842Y108893D01*
X534834Y108908D01*
X534805Y108937D01*
X534769Y108995D01*
X534725Y109068D01*
X534681Y109149D01*
X534630Y109243D01*
X534594Y109345D01*
X534557Y109455D01*
Y109462D01*
X534550Y109476D01*
Y109498D01*
X534543Y109535D01*
X534536Y109579D01*
X534528Y109637D01*
X534521Y109703D01*
X534514Y109775D01*
X534499Y109863D01*
X534492Y109958D01*
X534484Y110060D01*
X534477Y110176D01*
X534470Y110300D01*
Y110439D01*
X534463Y110585D01*
Y110738D01*
Y113435D01*
X535483D01*
Y110694D01*
Y110687D01*
Y110665D01*
Y110636D01*
Y110592D01*
Y110534D01*
Y110475D01*
X535491Y110344D01*
Y110198D01*
X535498Y110060D01*
X535505Y109994D01*
Y109936D01*
X535512Y109892D01*
X535520Y109848D01*
Y109834D01*
X535534Y109797D01*
X535556Y109739D01*
X535585Y109666D01*
X535622Y109586D01*
X535680Y109506D01*
X535746Y109418D01*
X535826Y109345D01*
X535840Y109338D01*
X535870Y109316D01*
X535928Y109287D01*
X536001Y109258D01*
X536103Y109221D01*
X536220Y109192D01*
X536351Y109170D01*
X536504Y109163D01*
X536577D01*
X536650Y109170D01*
X536744Y109185D01*
X536854Y109207D01*
X536956Y109236D01*
X537065Y109280D01*
X537153Y109338D01*
X537160Y109345D01*
X537189Y109367D01*
X537225Y109404D01*
X537269Y109455D01*
X537313Y109520D01*
X537357Y109593D01*
X537393Y109673D01*
X537415Y109768D01*
Y109783D01*
X537422Y109819D01*
X537430Y109885D01*
X537444Y109972D01*
Y110031D01*
X537452Y110096D01*
Y110169D01*
X537459Y110242D01*
Y110329D01*
X537466Y110424D01*
Y110526D01*
Y110636D01*
Y113435D01*
X538487D01*
Y110774D01*
D02*
G37*
G36*
X559321Y111569D02*
X559329Y111576D01*
X559343Y111591D01*
X559373Y111620D01*
X559402Y111656D01*
X559453Y111700D01*
X559504Y111744D01*
X559569Y111795D01*
X559635Y111853D01*
X559715Y111904D01*
X559803Y111955D01*
X559992Y112043D01*
X560094Y112079D01*
X560204Y112108D01*
X560320Y112123D01*
X560437Y112130D01*
X560495D01*
X560561Y112123D01*
X560641Y112116D01*
X560736Y112101D01*
X560830Y112072D01*
X560940Y112043D01*
X561042Y111999D01*
X561057Y111992D01*
X561086Y111977D01*
X561137Y111948D01*
X561195Y111911D01*
X561261Y111868D01*
X561326Y111817D01*
X561392Y111751D01*
X561450Y111685D01*
X561457Y111678D01*
X561472Y111649D01*
X561494Y111612D01*
X561523Y111562D01*
X561559Y111496D01*
X561589Y111423D01*
X561618Y111343D01*
X561640Y111255D01*
Y111248D01*
X561647Y111212D01*
X561654Y111153D01*
X561669Y111080D01*
X561676Y110978D01*
X561684Y110854D01*
X561691Y110709D01*
Y110534D01*
Y108390D01*
X560721D01*
Y110315D01*
Y110322D01*
Y110337D01*
Y110366D01*
Y110410D01*
Y110453D01*
Y110504D01*
X560714Y110621D01*
X560707Y110745D01*
X560699Y110869D01*
X560685Y110971D01*
X560670Y111007D01*
X560663Y111044D01*
Y111051D01*
X560648Y111073D01*
X560634Y111095D01*
X560619Y111131D01*
X560554Y111212D01*
X560517Y111255D01*
X560466Y111292D01*
X560459Y111299D01*
X560444Y111306D01*
X560408Y111321D01*
X560371Y111343D01*
X560320Y111357D01*
X560262Y111372D01*
X560189Y111379D01*
X560116Y111387D01*
X560072D01*
X560029Y111379D01*
X559970Y111372D01*
X559905Y111357D01*
X559832Y111336D01*
X559759Y111306D01*
X559686Y111263D01*
X559679Y111255D01*
X559657Y111241D01*
X559620Y111212D01*
X559584Y111175D01*
X559533Y111124D01*
X559489Y111066D01*
X559445Y110993D01*
X559409Y110913D01*
Y110905D01*
X559394Y110869D01*
X559380Y110818D01*
X559365Y110738D01*
X559351Y110643D01*
X559336Y110519D01*
X559329Y110380D01*
X559321Y110220D01*
Y108390D01*
X558352D01*
Y113435D01*
X559321D01*
Y111569D01*
D02*
G37*
G36*
X553293Y111365D02*
X551893Y109754D01*
X551405Y109221D01*
X551441D01*
X551470Y109229D01*
X551536D01*
X551616Y109236D01*
X551703D01*
X551784Y109243D01*
X553402D01*
Y108390D01*
X550136D01*
Y109156D01*
X551499Y110723D01*
X551507Y110730D01*
X551514Y110738D01*
X551558Y110789D01*
X551616Y110854D01*
X551689Y110935D01*
X551769Y111022D01*
X551857Y111117D01*
X551929Y111197D01*
X552002Y111270D01*
X551973D01*
X551929Y111263D01*
X551820D01*
X551740Y111255D01*
X551558D01*
X550267Y111248D01*
Y112050D01*
X553293D01*
Y111365D01*
D02*
G37*
G36*
X548190Y112123D02*
X548248D01*
X548394Y112108D01*
X548547Y112094D01*
X548707Y112065D01*
X548860Y112021D01*
X548926Y111999D01*
X548992Y111970D01*
X548999D01*
X549006Y111962D01*
X549043Y111941D01*
X549101Y111911D01*
X549166Y111868D01*
X549247Y111809D01*
X549320Y111744D01*
X549385Y111664D01*
X549443Y111583D01*
X549451Y111569D01*
X549465Y111540D01*
X549487Y111474D01*
X549495Y111438D01*
X549509Y111387D01*
X549524Y111336D01*
X549531Y111270D01*
X549546Y111197D01*
X549553Y111117D01*
X549560Y111029D01*
X549568Y110935D01*
X549575Y110833D01*
Y110716D01*
X549560Y109586D01*
Y109579D01*
Y109564D01*
Y109542D01*
Y109506D01*
Y109418D01*
X549568Y109316D01*
Y109200D01*
X549582Y109083D01*
X549589Y108966D01*
X549604Y108871D01*
Y108864D01*
X549611Y108835D01*
X549626Y108784D01*
X549640Y108726D01*
X549670Y108653D01*
X549699Y108573D01*
X549735Y108485D01*
X549779Y108390D01*
X548824D01*
Y108398D01*
X548817Y108405D01*
X548809Y108434D01*
X548795Y108463D01*
X548780Y108500D01*
X548766Y108551D01*
X548751Y108609D01*
X548729Y108675D01*
Y108682D01*
X548722Y108689D01*
X548714Y108718D01*
X548700Y108755D01*
X548693Y108784D01*
X548678Y108777D01*
X548649Y108748D01*
X548598Y108704D01*
X548532Y108653D01*
X548452Y108595D01*
X548365Y108529D01*
X548263Y108478D01*
X548161Y108427D01*
X548146Y108420D01*
X548109Y108412D01*
X548051Y108390D01*
X547978Y108369D01*
X547891Y108347D01*
X547789Y108332D01*
X547672Y108317D01*
X547555Y108310D01*
X547504D01*
X547461Y108317D01*
X547417D01*
X547359Y108325D01*
X547235Y108347D01*
X547089Y108383D01*
X546943Y108434D01*
X546797Y108507D01*
X546666Y108609D01*
Y108616D01*
X546652Y108624D01*
X546615Y108667D01*
X546564Y108733D01*
X546506Y108820D01*
X546447Y108930D01*
X546396Y109061D01*
X546360Y109214D01*
X546353Y109294D01*
X546345Y109382D01*
Y109396D01*
Y109433D01*
X546353Y109491D01*
X546367Y109564D01*
X546382Y109652D01*
X546404Y109739D01*
X546440Y109834D01*
X546491Y109929D01*
X546498Y109943D01*
X546520Y109972D01*
X546549Y110016D01*
X546600Y110067D01*
X546652Y110125D01*
X546724Y110191D01*
X546805Y110249D01*
X546899Y110300D01*
X546914Y110308D01*
X546950Y110322D01*
X547009Y110344D01*
X547096Y110380D01*
X547205Y110417D01*
X547337Y110453D01*
X547497Y110490D01*
X547672Y110526D01*
X547679D01*
X547701Y110534D01*
X547738Y110541D01*
X547781Y110548D01*
X547840Y110556D01*
X547905Y110570D01*
X548051Y110607D01*
X548204Y110643D01*
X548365Y110679D01*
X548503Y110723D01*
X548569Y110745D01*
X548620Y110767D01*
Y110862D01*
Y110876D01*
Y110905D01*
X548612Y110956D01*
X548605Y111022D01*
X548583Y111088D01*
X548561Y111153D01*
X548525Y111212D01*
X548474Y111263D01*
X548467Y111270D01*
X548445Y111284D01*
X548408Y111299D01*
X548357Y111328D01*
X548284Y111350D01*
X548197Y111365D01*
X548088Y111379D01*
X547956Y111387D01*
X547913D01*
X547869Y111379D01*
X547811Y111372D01*
X547745Y111357D01*
X547672Y111343D01*
X547607Y111314D01*
X547548Y111277D01*
X547541Y111270D01*
X547526Y111255D01*
X547497Y111233D01*
X547468Y111197D01*
X547424Y111146D01*
X547388Y111080D01*
X547351Y111007D01*
X547315Y110920D01*
X546447Y111080D01*
Y111088D01*
X546455Y111102D01*
X546462Y111131D01*
X546477Y111168D01*
X546491Y111212D01*
X546513Y111263D01*
X546564Y111379D01*
X546637Y111503D01*
X546724Y111634D01*
X546826Y111758D01*
X546950Y111868D01*
X546958D01*
X546965Y111882D01*
X546987Y111890D01*
X547016Y111911D01*
X547060Y111926D01*
X547104Y111948D01*
X547162Y111977D01*
X547220Y111999D01*
X547293Y112021D01*
X547373Y112050D01*
X547461Y112072D01*
X547563Y112086D01*
X547665Y112108D01*
X547781Y112116D01*
X547898Y112130D01*
X548139D01*
X548190Y112123D01*
D02*
G37*
G36*
X540521Y108390D02*
X539551D01*
Y113435D01*
X540521D01*
Y108390D01*
D02*
G37*
G36*
X518811Y112123D02*
X518869D01*
X519015Y112108D01*
X519168Y112094D01*
X519329Y112065D01*
X519482Y112021D01*
X519547Y111999D01*
X519613Y111970D01*
X519620D01*
X519628Y111962D01*
X519664Y111941D01*
X519722Y111911D01*
X519788Y111868D01*
X519868Y111809D01*
X519941Y111744D01*
X520007Y111664D01*
X520065Y111583D01*
X520072Y111569D01*
X520087Y111540D01*
X520109Y111474D01*
X520116Y111438D01*
X520130Y111387D01*
X520145Y111336D01*
X520152Y111270D01*
X520167Y111197D01*
X520174Y111117D01*
X520182Y111029D01*
X520189Y110934D01*
X520196Y110833D01*
Y110716D01*
X520182Y109586D01*
Y109579D01*
Y109564D01*
Y109542D01*
Y109506D01*
Y109418D01*
X520189Y109316D01*
Y109200D01*
X520203Y109083D01*
X520211Y108966D01*
X520225Y108871D01*
Y108864D01*
X520232Y108835D01*
X520247Y108784D01*
X520262Y108726D01*
X520291Y108653D01*
X520320Y108573D01*
X520357Y108485D01*
X520400Y108390D01*
X519445D01*
Y108398D01*
X519438Y108405D01*
X519431Y108434D01*
X519416Y108463D01*
X519402Y108500D01*
X519387Y108551D01*
X519372Y108609D01*
X519350Y108675D01*
Y108682D01*
X519343Y108689D01*
X519336Y108718D01*
X519321Y108755D01*
X519314Y108784D01*
X519299Y108777D01*
X519270Y108748D01*
X519219Y108704D01*
X519154Y108653D01*
X519073Y108595D01*
X518986Y108529D01*
X518884Y108478D01*
X518782Y108427D01*
X518767Y108420D01*
X518731Y108412D01*
X518673Y108390D01*
X518600Y108369D01*
X518512Y108347D01*
X518410Y108332D01*
X518293Y108317D01*
X518177Y108310D01*
X518126D01*
X518082Y108317D01*
X518038D01*
X517980Y108325D01*
X517856Y108347D01*
X517710Y108383D01*
X517564Y108434D01*
X517419Y108507D01*
X517287Y108609D01*
Y108616D01*
X517273Y108624D01*
X517236Y108667D01*
X517185Y108733D01*
X517127Y108820D01*
X517069Y108930D01*
X517018Y109061D01*
X516981Y109214D01*
X516974Y109294D01*
X516967Y109382D01*
Y109396D01*
Y109433D01*
X516974Y109491D01*
X516989Y109564D01*
X517003Y109652D01*
X517025Y109739D01*
X517061Y109834D01*
X517112Y109929D01*
X517120Y109943D01*
X517142Y109972D01*
X517171Y110016D01*
X517222Y110067D01*
X517273Y110125D01*
X517346Y110191D01*
X517426Y110249D01*
X517521Y110300D01*
X517535Y110308D01*
X517572Y110322D01*
X517630Y110344D01*
X517718Y110380D01*
X517827Y110417D01*
X517958Y110453D01*
X518118Y110490D01*
X518293Y110526D01*
X518301D01*
X518323Y110534D01*
X518359Y110541D01*
X518403Y110548D01*
X518461Y110556D01*
X518527Y110570D01*
X518673Y110607D01*
X518826Y110643D01*
X518986Y110679D01*
X519124Y110723D01*
X519190Y110745D01*
X519241Y110767D01*
Y110862D01*
Y110876D01*
Y110905D01*
X519234Y110956D01*
X519227Y111022D01*
X519205Y111088D01*
X519183Y111153D01*
X519146Y111212D01*
X519095Y111263D01*
X519088Y111270D01*
X519066Y111284D01*
X519030Y111299D01*
X518979Y111328D01*
X518906Y111350D01*
X518818Y111365D01*
X518709Y111379D01*
X518578Y111387D01*
X518534D01*
X518490Y111379D01*
X518432Y111372D01*
X518366Y111357D01*
X518293Y111343D01*
X518228Y111314D01*
X518169Y111277D01*
X518162Y111270D01*
X518148Y111255D01*
X518118Y111233D01*
X518089Y111197D01*
X518046Y111146D01*
X518009Y111080D01*
X517973Y111007D01*
X517936Y110920D01*
X517069Y111080D01*
Y111088D01*
X517076Y111102D01*
X517083Y111131D01*
X517098Y111168D01*
X517112Y111212D01*
X517134Y111263D01*
X517185Y111379D01*
X517258Y111503D01*
X517346Y111634D01*
X517448Y111758D01*
X517572Y111868D01*
X517579D01*
X517586Y111882D01*
X517608Y111890D01*
X517637Y111911D01*
X517681Y111926D01*
X517725Y111948D01*
X517783Y111977D01*
X517841Y111999D01*
X517914Y112021D01*
X517994Y112050D01*
X518082Y112072D01*
X518184Y112086D01*
X518286Y112108D01*
X518403Y112116D01*
X518519Y112130D01*
X518760D01*
X518811Y112123D01*
D02*
G37*
G36*
X512381Y108390D02*
X511280D01*
X510843Y109535D01*
X508816D01*
X508401Y108390D01*
X507322D01*
X509276Y113435D01*
X510355D01*
X512381Y108390D01*
D02*
G37*
G36*
X486801Y112582D02*
X485313D01*
Y108390D01*
X484293D01*
Y112582D01*
X482798D01*
Y113435D01*
X486801D01*
Y112582D01*
D02*
G37*
G36*
X463939Y113428D02*
X464129D01*
X464333Y113413D01*
X464537Y113399D01*
X464624Y113391D01*
X464712Y113384D01*
X464785Y113369D01*
X464843Y113355D01*
X464850D01*
X464865Y113347D01*
X464887Y113340D01*
X464916Y113333D01*
X464996Y113296D01*
X465098Y113253D01*
X465208Y113187D01*
X465332Y113100D01*
X465448Y112990D01*
X465565Y112859D01*
Y112852D01*
X465579Y112845D01*
X465594Y112823D01*
X465609Y112794D01*
X465638Y112750D01*
X465660Y112706D01*
X465689Y112655D01*
X465718Y112597D01*
X465769Y112451D01*
X465820Y112291D01*
X465849Y112094D01*
X465864Y111882D01*
Y111875D01*
Y111860D01*
Y111838D01*
Y111802D01*
X465856Y111766D01*
Y111715D01*
X465842Y111612D01*
X465820Y111489D01*
X465791Y111350D01*
X465747Y111219D01*
X465689Y111095D01*
X465682Y111080D01*
X465660Y111044D01*
X465623Y110986D01*
X465572Y110913D01*
X465514Y110840D01*
X465434Y110752D01*
X465353Y110672D01*
X465259Y110599D01*
X465244Y110592D01*
X465215Y110570D01*
X465164Y110541D01*
X465098Y110504D01*
X465018Y110461D01*
X464931Y110424D01*
X464836Y110388D01*
X464734Y110359D01*
X464719D01*
X464697Y110351D01*
X464668D01*
X464632Y110344D01*
X464581Y110337D01*
X464530Y110329D01*
X464464D01*
X464398Y110322D01*
X464318Y110315D01*
X464231Y110308D01*
X464136Y110300D01*
X464034D01*
X463925Y110293D01*
X463021D01*
Y108390D01*
X462000D01*
Y113435D01*
X463859D01*
X463939Y113428D01*
D02*
G37*
G36*
X555852Y112123D02*
X555924Y112116D01*
X556005Y112101D01*
X556099Y112086D01*
X556194Y112065D01*
X556303Y112035D01*
X556413Y111999D01*
X556522Y111955D01*
X556639Y111904D01*
X556755Y111838D01*
X556865Y111766D01*
X556974Y111685D01*
X557076Y111591D01*
X557084Y111583D01*
X557098Y111569D01*
X557127Y111532D01*
X557156Y111496D01*
X557200Y111438D01*
X557244Y111379D01*
X557295Y111299D01*
X557346Y111219D01*
X557390Y111124D01*
X557441Y111022D01*
X557484Y110905D01*
X557528Y110789D01*
X557557Y110658D01*
X557586Y110526D01*
X557601Y110380D01*
X557608Y110227D01*
Y110220D01*
Y110191D01*
Y110147D01*
X557601Y110089D01*
X557594Y110016D01*
X557579Y109936D01*
X557565Y109841D01*
X557543Y109746D01*
X557514Y109637D01*
X557477Y109528D01*
X557433Y109411D01*
X557382Y109294D01*
X557317Y109178D01*
X557244Y109068D01*
X557164Y108959D01*
X557069Y108850D01*
X557062Y108842D01*
X557047Y108828D01*
X557018Y108799D01*
X556974Y108762D01*
X556923Y108726D01*
X556857Y108682D01*
X556785Y108631D01*
X556704Y108580D01*
X556610Y108529D01*
X556508Y108478D01*
X556398Y108434D01*
X556274Y108398D01*
X556150Y108361D01*
X556012Y108332D01*
X555873Y108317D01*
X555720Y108310D01*
X555669D01*
X555633Y108317D01*
X555589D01*
X555538Y108325D01*
X555414Y108339D01*
X555261Y108369D01*
X555101Y108405D01*
X554933Y108463D01*
X554758Y108536D01*
X554751D01*
X554736Y108543D01*
X554714Y108558D01*
X554685Y108580D01*
X554605Y108631D01*
X554503Y108704D01*
X554393Y108799D01*
X554277Y108915D01*
X554168Y109046D01*
X554065Y109200D01*
Y109207D01*
X554058Y109221D01*
X554043Y109243D01*
X554029Y109280D01*
X554014Y109324D01*
X553993Y109374D01*
X553971Y109433D01*
X553949Y109498D01*
X553927Y109571D01*
X553905Y109652D01*
X553869Y109834D01*
X553839Y110045D01*
X553832Y110271D01*
Y110278D01*
Y110293D01*
Y110322D01*
X553839Y110351D01*
Y110395D01*
X553847Y110446D01*
X553861Y110570D01*
X553890Y110709D01*
X553934Y110862D01*
X553985Y111029D01*
X554065Y111197D01*
Y111204D01*
X554080Y111219D01*
X554087Y111241D01*
X554109Y111270D01*
X554168Y111350D01*
X554240Y111452D01*
X554335Y111562D01*
X554452Y111678D01*
X554583Y111787D01*
X554736Y111890D01*
X554743D01*
X554758Y111897D01*
X554780Y111911D01*
X554816Y111926D01*
X554853Y111948D01*
X554904Y111962D01*
X554962Y111984D01*
X555020Y112013D01*
X555166Y112057D01*
X555334Y112094D01*
X555516Y112123D01*
X555713Y112130D01*
X555793D01*
X555852Y112123D01*
D02*
G37*
G36*
X542533Y112050D02*
X543196D01*
Y111277D01*
X542533D01*
Y109797D01*
Y109790D01*
Y109775D01*
Y109754D01*
Y109724D01*
Y109652D01*
Y109564D01*
X542540Y109476D01*
Y109389D01*
Y109324D01*
X542547Y109294D01*
Y109280D01*
X542555Y109265D01*
X542569Y109236D01*
X542591Y109200D01*
X542635Y109156D01*
X542649Y109149D01*
X542678Y109134D01*
X542730Y109119D01*
X542795Y109112D01*
X542824D01*
X542853Y109119D01*
X542897Y109127D01*
X542955Y109134D01*
X543021Y109149D01*
X543101Y109170D01*
X543189Y109200D01*
X543276Y108449D01*
X543269D01*
X543262Y108441D01*
X543218Y108427D01*
X543145Y108405D01*
X543050Y108383D01*
X542941Y108354D01*
X542810Y108332D01*
X542664Y108317D01*
X542511Y108310D01*
X542467D01*
X542416Y108317D01*
X542350Y108325D01*
X542277Y108332D01*
X542197Y108347D01*
X542117Y108369D01*
X542037Y108398D01*
X542030Y108405D01*
X542000Y108412D01*
X541964Y108434D01*
X541920Y108456D01*
X541818Y108529D01*
X541767Y108573D01*
X541723Y108624D01*
X541716Y108631D01*
X541709Y108653D01*
X541694Y108682D01*
X541672Y108726D01*
X541650Y108777D01*
X541629Y108842D01*
X541607Y108915D01*
X541592Y108995D01*
Y109003D01*
X541585Y109032D01*
Y109076D01*
X541578Y109149D01*
X541570Y109243D01*
Y109360D01*
X541563Y109425D01*
Y109506D01*
Y109586D01*
Y109681D01*
Y111277D01*
X541118D01*
Y112050D01*
X541563D01*
Y112779D01*
X542533Y113347D01*
Y112050D01*
D02*
G37*
G36*
X529330Y112123D02*
X529396Y112116D01*
X529476Y112101D01*
X529564Y112086D01*
X529659Y112065D01*
X529761Y112035D01*
X529863Y111999D01*
X529972Y111955D01*
X530081Y111897D01*
X530183Y111838D01*
X530285Y111766D01*
X530387Y111678D01*
X530475Y111583D01*
X530482Y111576D01*
X530497Y111562D01*
X530519Y111525D01*
X530548Y111481D01*
X530584Y111423D01*
X530621Y111357D01*
X530664Y111270D01*
X530708Y111175D01*
X530752Y111066D01*
X530796Y110942D01*
X530832Y110811D01*
X530869Y110658D01*
X530898Y110497D01*
X530920Y110322D01*
X530934Y110140D01*
Y109936D01*
X528514D01*
Y109929D01*
Y109914D01*
Y109892D01*
X528521Y109863D01*
X528528Y109790D01*
X528543Y109688D01*
X528572Y109586D01*
X528616Y109469D01*
X528667Y109360D01*
X528740Y109265D01*
X528747Y109258D01*
X528784Y109229D01*
X528827Y109192D01*
X528893Y109149D01*
X528973Y109105D01*
X529075Y109068D01*
X529185Y109039D01*
X529301Y109032D01*
X529338D01*
X529382Y109039D01*
X529432Y109046D01*
X529491Y109061D01*
X529556Y109083D01*
X529622Y109112D01*
X529680Y109156D01*
X529688Y109163D01*
X529709Y109178D01*
X529739Y109207D01*
X529768Y109251D01*
X529812Y109309D01*
X529848Y109374D01*
X529884Y109462D01*
X529921Y109557D01*
X530883Y109396D01*
Y109389D01*
X530876Y109374D01*
X530861Y109345D01*
X530847Y109309D01*
X530825Y109265D01*
X530803Y109214D01*
X530737Y109098D01*
X530657Y108966D01*
X530555Y108828D01*
X530431Y108704D01*
X530293Y108587D01*
X530285D01*
X530278Y108573D01*
X530249Y108565D01*
X530220Y108543D01*
X530183Y108522D01*
X530132Y108500D01*
X530081Y108478D01*
X530016Y108449D01*
X529870Y108398D01*
X529702Y108354D01*
X529505Y108325D01*
X529294Y108310D01*
X529250D01*
X529207Y108317D01*
X529141D01*
X529061Y108332D01*
X528966Y108347D01*
X528864Y108361D01*
X528762Y108390D01*
X528645Y108420D01*
X528528Y108463D01*
X528412Y108514D01*
X528295Y108573D01*
X528179Y108645D01*
X528069Y108726D01*
X527975Y108820D01*
X527880Y108930D01*
X527872Y108937D01*
X527865Y108952D01*
X527851Y108981D01*
X527821Y109017D01*
X527800Y109068D01*
X527770Y109127D01*
X527734Y109192D01*
X527705Y109272D01*
X527668Y109360D01*
X527639Y109455D01*
X527603Y109557D01*
X527581Y109673D01*
X527559Y109790D01*
X527537Y109914D01*
X527530Y110053D01*
X527523Y110191D01*
Y110198D01*
Y110227D01*
Y110278D01*
X527530Y110344D01*
X527537Y110417D01*
X527544Y110504D01*
X527559Y110599D01*
X527581Y110709D01*
X527639Y110934D01*
X527676Y111051D01*
X527719Y111175D01*
X527778Y111292D01*
X527843Y111401D01*
X527916Y111511D01*
X527996Y111612D01*
X528004Y111620D01*
X528018Y111634D01*
X528047Y111664D01*
X528084Y111693D01*
X528128Y111729D01*
X528186Y111773D01*
X528252Y111824D01*
X528324Y111875D01*
X528405Y111919D01*
X528499Y111970D01*
X528594Y112013D01*
X528703Y112050D01*
X528813Y112079D01*
X528937Y112108D01*
X529061Y112123D01*
X529192Y112130D01*
X529272D01*
X529330Y112123D01*
D02*
G37*
G36*
X526473Y112050D02*
X527136D01*
Y111277D01*
X526473D01*
Y109797D01*
Y109790D01*
Y109775D01*
Y109754D01*
Y109724D01*
Y109652D01*
Y109564D01*
X526480Y109476D01*
Y109389D01*
Y109324D01*
X526487Y109294D01*
Y109280D01*
X526495Y109265D01*
X526509Y109236D01*
X526531Y109200D01*
X526575Y109156D01*
X526589Y109149D01*
X526619Y109134D01*
X526670Y109119D01*
X526735Y109112D01*
X526764D01*
X526793Y109119D01*
X526837Y109127D01*
X526896Y109134D01*
X526961Y109149D01*
X527041Y109170D01*
X527129Y109200D01*
X527216Y108449D01*
X527209D01*
X527202Y108441D01*
X527158Y108427D01*
X527085Y108405D01*
X526990Y108383D01*
X526881Y108354D01*
X526750Y108332D01*
X526604Y108317D01*
X526451Y108310D01*
X526407D01*
X526356Y108317D01*
X526291Y108325D01*
X526218Y108332D01*
X526137Y108347D01*
X526057Y108369D01*
X525977Y108398D01*
X525970Y108405D01*
X525941Y108412D01*
X525904Y108434D01*
X525860Y108456D01*
X525758Y108529D01*
X525707Y108573D01*
X525664Y108624D01*
X525656Y108631D01*
X525649Y108653D01*
X525634Y108682D01*
X525612Y108726D01*
X525591Y108777D01*
X525569Y108842D01*
X525547Y108915D01*
X525532Y108995D01*
Y109003D01*
X525525Y109032D01*
Y109076D01*
X525518Y109149D01*
X525511Y109243D01*
Y109360D01*
X525503Y109425D01*
Y109506D01*
Y109586D01*
Y109681D01*
Y111277D01*
X525059D01*
Y112050D01*
X525503D01*
Y112779D01*
X526473Y113347D01*
Y112050D01*
D02*
G37*
G36*
X498771Y112123D02*
X498836Y112116D01*
X498917Y112101D01*
X499004Y112086D01*
X499099Y112065D01*
X499201Y112035D01*
X499303Y111999D01*
X499412Y111955D01*
X499522Y111897D01*
X499624Y111838D01*
X499726Y111766D01*
X499828Y111678D01*
X499915Y111583D01*
X499923Y111576D01*
X499937Y111562D01*
X499959Y111525D01*
X499988Y111481D01*
X500025Y111423D01*
X500061Y111357D01*
X500105Y111270D01*
X500149Y111175D01*
X500192Y111066D01*
X500236Y110942D01*
X500273Y110811D01*
X500309Y110658D01*
X500338Y110497D01*
X500360Y110322D01*
X500375Y110140D01*
Y109936D01*
X497954D01*
Y109929D01*
Y109914D01*
Y109892D01*
X497962Y109863D01*
X497969Y109790D01*
X497983Y109688D01*
X498013Y109586D01*
X498056Y109469D01*
X498107Y109360D01*
X498180Y109265D01*
X498188Y109258D01*
X498224Y109229D01*
X498268Y109192D01*
X498333Y109149D01*
X498414Y109105D01*
X498516Y109068D01*
X498625Y109039D01*
X498742Y109032D01*
X498778D01*
X498822Y109039D01*
X498873Y109046D01*
X498931Y109061D01*
X498997Y109083D01*
X499062Y109112D01*
X499121Y109156D01*
X499128Y109163D01*
X499150Y109178D01*
X499179Y109207D01*
X499208Y109251D01*
X499252Y109309D01*
X499288Y109374D01*
X499325Y109462D01*
X499361Y109557D01*
X500323Y109396D01*
Y109389D01*
X500316Y109374D01*
X500302Y109345D01*
X500287Y109309D01*
X500265Y109265D01*
X500243Y109214D01*
X500178Y109098D01*
X500098Y108966D01*
X499996Y108828D01*
X499872Y108704D01*
X499733Y108587D01*
X499726D01*
X499719Y108573D01*
X499689Y108565D01*
X499660Y108543D01*
X499624Y108522D01*
X499573Y108500D01*
X499522Y108478D01*
X499456Y108449D01*
X499310Y108398D01*
X499143Y108354D01*
X498946Y108325D01*
X498734Y108310D01*
X498691D01*
X498647Y108317D01*
X498581D01*
X498501Y108332D01*
X498406Y108347D01*
X498304Y108361D01*
X498202Y108390D01*
X498085Y108420D01*
X497969Y108463D01*
X497852Y108514D01*
X497736Y108573D01*
X497619Y108645D01*
X497510Y108726D01*
X497415Y108820D01*
X497320Y108930D01*
X497313Y108937D01*
X497305Y108952D01*
X497291Y108981D01*
X497262Y109017D01*
X497240Y109068D01*
X497211Y109127D01*
X497174Y109192D01*
X497145Y109272D01*
X497109Y109360D01*
X497080Y109455D01*
X497043Y109557D01*
X497021Y109673D01*
X496999Y109790D01*
X496977Y109914D01*
X496970Y110053D01*
X496963Y110191D01*
Y110198D01*
Y110227D01*
Y110278D01*
X496970Y110344D01*
X496977Y110417D01*
X496985Y110504D01*
X496999Y110599D01*
X497021Y110709D01*
X497080Y110934D01*
X497116Y111051D01*
X497160Y111175D01*
X497218Y111292D01*
X497284Y111401D01*
X497357Y111511D01*
X497437Y111612D01*
X497444Y111620D01*
X497459Y111634D01*
X497488Y111664D01*
X497524Y111693D01*
X497568Y111729D01*
X497626Y111773D01*
X497692Y111824D01*
X497765Y111875D01*
X497845Y111919D01*
X497940Y111970D01*
X498034Y112013D01*
X498144Y112050D01*
X498253Y112079D01*
X498377Y112108D01*
X498501Y112123D01*
X498632Y112130D01*
X498712D01*
X498771Y112123D01*
D02*
G37*
G36*
X489250Y112123D02*
X489323Y112116D01*
X489403Y112101D01*
X489498Y112086D01*
X489593Y112065D01*
X489702Y112035D01*
X489811Y111999D01*
X489921Y111955D01*
X490037Y111904D01*
X490154Y111838D01*
X490263Y111766D01*
X490373Y111685D01*
X490475Y111591D01*
X490482Y111583D01*
X490497Y111569D01*
X490526Y111532D01*
X490555Y111496D01*
X490599Y111438D01*
X490642Y111379D01*
X490693Y111299D01*
X490744Y111219D01*
X490788Y111124D01*
X490839Y111022D01*
X490883Y110905D01*
X490927Y110789D01*
X490956Y110658D01*
X490985Y110526D01*
X491000Y110380D01*
X491007Y110227D01*
Y110220D01*
Y110191D01*
Y110147D01*
X491000Y110089D01*
X490992Y110016D01*
X490978Y109936D01*
X490963Y109841D01*
X490941Y109746D01*
X490912Y109637D01*
X490876Y109528D01*
X490832Y109411D01*
X490781Y109294D01*
X490715Y109178D01*
X490642Y109068D01*
X490562Y108959D01*
X490468Y108850D01*
X490460Y108842D01*
X490446Y108828D01*
X490416Y108799D01*
X490373Y108762D01*
X490322Y108726D01*
X490256Y108682D01*
X490183Y108631D01*
X490103Y108580D01*
X490008Y108529D01*
X489906Y108478D01*
X489797Y108434D01*
X489673Y108398D01*
X489549Y108361D01*
X489410Y108332D01*
X489272Y108317D01*
X489119Y108310D01*
X489068D01*
X489031Y108317D01*
X488988D01*
X488937Y108325D01*
X488813Y108339D01*
X488659Y108369D01*
X488499Y108405D01*
X488332Y108463D01*
X488157Y108536D01*
X488149D01*
X488135Y108543D01*
X488113Y108558D01*
X488084Y108580D01*
X488003Y108631D01*
X487901Y108704D01*
X487792Y108799D01*
X487675Y108915D01*
X487566Y109046D01*
X487464Y109200D01*
Y109207D01*
X487457Y109221D01*
X487442Y109243D01*
X487428Y109280D01*
X487413Y109324D01*
X487391Y109374D01*
X487369Y109433D01*
X487347Y109498D01*
X487325Y109571D01*
X487304Y109652D01*
X487267Y109834D01*
X487238Y110045D01*
X487231Y110271D01*
Y110278D01*
Y110293D01*
Y110322D01*
X487238Y110351D01*
Y110395D01*
X487245Y110446D01*
X487260Y110570D01*
X487289Y110708D01*
X487333Y110862D01*
X487384Y111029D01*
X487464Y111197D01*
Y111204D01*
X487478Y111219D01*
X487486Y111241D01*
X487508Y111270D01*
X487566Y111350D01*
X487639Y111452D01*
X487734Y111562D01*
X487850Y111678D01*
X487982Y111787D01*
X488135Y111890D01*
X488142D01*
X488157Y111897D01*
X488178Y111911D01*
X488215Y111926D01*
X488251Y111948D01*
X488302Y111962D01*
X488361Y111984D01*
X488419Y112013D01*
X488565Y112057D01*
X488732Y112094D01*
X488915Y112123D01*
X489112Y112130D01*
X489192D01*
X489250Y112123D01*
D02*
G37*
G36*
X478009D02*
X478074Y112116D01*
X478155Y112101D01*
X478242Y112086D01*
X478337Y112065D01*
X478439Y112035D01*
X478541Y111999D01*
X478650Y111955D01*
X478760Y111897D01*
X478862Y111838D01*
X478964Y111766D01*
X479066Y111678D01*
X479153Y111583D01*
X479161Y111576D01*
X479175Y111562D01*
X479197Y111525D01*
X479226Y111481D01*
X479263Y111423D01*
X479299Y111357D01*
X479343Y111270D01*
X479387Y111175D01*
X479430Y111066D01*
X479474Y110942D01*
X479511Y110811D01*
X479547Y110658D01*
X479576Y110497D01*
X479598Y110322D01*
X479613Y110140D01*
Y109936D01*
X477192D01*
Y109929D01*
Y109914D01*
Y109892D01*
X477200Y109863D01*
X477207Y109790D01*
X477221Y109688D01*
X477251Y109586D01*
X477294Y109469D01*
X477345Y109360D01*
X477418Y109265D01*
X477426Y109258D01*
X477462Y109229D01*
X477506Y109192D01*
X477571Y109149D01*
X477652Y109105D01*
X477754Y109068D01*
X477863Y109039D01*
X477980Y109032D01*
X478016D01*
X478060Y109039D01*
X478111Y109046D01*
X478169Y109061D01*
X478235Y109083D01*
X478300Y109112D01*
X478359Y109156D01*
X478366Y109163D01*
X478388Y109178D01*
X478417Y109207D01*
X478446Y109250D01*
X478490Y109309D01*
X478526Y109374D01*
X478563Y109462D01*
X478599Y109557D01*
X479562Y109396D01*
Y109389D01*
X479554Y109374D01*
X479540Y109345D01*
X479525Y109309D01*
X479503Y109265D01*
X479481Y109214D01*
X479416Y109098D01*
X479336Y108966D01*
X479234Y108828D01*
X479110Y108704D01*
X478971Y108587D01*
X478964D01*
X478957Y108573D01*
X478927Y108565D01*
X478898Y108543D01*
X478862Y108522D01*
X478811Y108500D01*
X478760Y108478D01*
X478694Y108449D01*
X478548Y108398D01*
X478381Y108354D01*
X478184Y108325D01*
X477972Y108310D01*
X477929D01*
X477885Y108317D01*
X477819D01*
X477739Y108332D01*
X477644Y108347D01*
X477542Y108361D01*
X477440Y108390D01*
X477324Y108420D01*
X477207Y108463D01*
X477090Y108514D01*
X476974Y108573D01*
X476857Y108645D01*
X476748Y108726D01*
X476653Y108820D01*
X476558Y108930D01*
X476551Y108937D01*
X476544Y108952D01*
X476529Y108981D01*
X476500Y109017D01*
X476478Y109068D01*
X476449Y109127D01*
X476412Y109192D01*
X476383Y109272D01*
X476347Y109360D01*
X476318Y109455D01*
X476281Y109557D01*
X476259Y109673D01*
X476237Y109790D01*
X476216Y109914D01*
X476208Y110052D01*
X476201Y110191D01*
Y110198D01*
Y110227D01*
Y110278D01*
X476208Y110344D01*
X476216Y110417D01*
X476223Y110504D01*
X476237Y110599D01*
X476259Y110708D01*
X476318Y110934D01*
X476354Y111051D01*
X476398Y111175D01*
X476456Y111292D01*
X476522Y111401D01*
X476595Y111510D01*
X476675Y111612D01*
X476682Y111620D01*
X476697Y111634D01*
X476726Y111663D01*
X476762Y111693D01*
X476806Y111729D01*
X476864Y111773D01*
X476930Y111824D01*
X477003Y111875D01*
X477083Y111919D01*
X477178Y111970D01*
X477273Y112013D01*
X477382Y112050D01*
X477491Y112079D01*
X477615Y112108D01*
X477739Y112123D01*
X477870Y112130D01*
X477950D01*
X478009Y112123D01*
D02*
G37*
G36*
X468488D02*
X468561Y112116D01*
X468641Y112101D01*
X468736Y112086D01*
X468831Y112065D01*
X468940Y112035D01*
X469049Y111999D01*
X469159Y111955D01*
X469275Y111904D01*
X469392Y111838D01*
X469501Y111766D01*
X469611Y111685D01*
X469713Y111591D01*
X469720Y111583D01*
X469735Y111569D01*
X469764Y111532D01*
X469793Y111496D01*
X469837Y111438D01*
X469880Y111379D01*
X469932Y111299D01*
X469982Y111219D01*
X470026Y111124D01*
X470077Y111022D01*
X470121Y110905D01*
X470165Y110789D01*
X470194Y110658D01*
X470223Y110526D01*
X470238Y110380D01*
X470245Y110227D01*
Y110220D01*
Y110191D01*
Y110147D01*
X470238Y110089D01*
X470230Y110016D01*
X470216Y109936D01*
X470201Y109841D01*
X470179Y109746D01*
X470150Y109637D01*
X470114Y109528D01*
X470070Y109411D01*
X470019Y109294D01*
X469953Y109178D01*
X469880Y109068D01*
X469800Y108959D01*
X469705Y108850D01*
X469698Y108842D01*
X469684Y108828D01*
X469655Y108799D01*
X469611Y108762D01*
X469560Y108726D01*
X469494Y108682D01*
X469421Y108631D01*
X469341Y108580D01*
X469246Y108529D01*
X469144Y108478D01*
X469035Y108434D01*
X468911Y108398D01*
X468787Y108361D01*
X468648Y108332D01*
X468510Y108317D01*
X468357Y108310D01*
X468306D01*
X468269Y108317D01*
X468226D01*
X468175Y108325D01*
X468051Y108339D01*
X467898Y108369D01*
X467737Y108405D01*
X467570Y108463D01*
X467395Y108536D01*
X467387D01*
X467373Y108543D01*
X467351Y108558D01*
X467322Y108580D01*
X467241Y108631D01*
X467139Y108704D01*
X467030Y108799D01*
X466914Y108915D01*
X466804Y109046D01*
X466702Y109200D01*
Y109207D01*
X466695Y109221D01*
X466680Y109243D01*
X466666Y109280D01*
X466651Y109324D01*
X466629Y109374D01*
X466607Y109433D01*
X466585Y109498D01*
X466564Y109571D01*
X466542Y109652D01*
X466505Y109834D01*
X466476Y110045D01*
X466469Y110271D01*
Y110278D01*
Y110293D01*
Y110322D01*
X466476Y110351D01*
Y110395D01*
X466483Y110446D01*
X466498Y110570D01*
X466527Y110708D01*
X466571Y110862D01*
X466622Y111029D01*
X466702Y111197D01*
Y111204D01*
X466717Y111219D01*
X466724Y111241D01*
X466746Y111270D01*
X466804Y111350D01*
X466877Y111452D01*
X466972Y111562D01*
X467088Y111678D01*
X467220Y111787D01*
X467373Y111890D01*
X467380D01*
X467395Y111897D01*
X467416Y111911D01*
X467453Y111926D01*
X467489Y111948D01*
X467540Y111962D01*
X467599Y111984D01*
X467657Y112013D01*
X467803Y112057D01*
X467971Y112094D01*
X468153Y112123D01*
X468350Y112130D01*
X468430D01*
X468488Y112123D01*
D02*
G37*
G36*
X507358Y106998D02*
X503334D01*
Y107625D01*
X507358D01*
Y106998D01*
D02*
G37*
G36*
X480582Y105974D02*
X480684Y105967D01*
X480808Y105953D01*
X480947Y105931D01*
X481093Y105902D01*
X481246Y105858D01*
X481114Y105180D01*
X481107D01*
X481078Y105187D01*
X481027Y105202D01*
X480969Y105209D01*
X480903Y105224D01*
X480830Y105231D01*
X480670Y105238D01*
X480633D01*
X480597Y105231D01*
X480553Y105224D01*
X480451Y105194D01*
X480407Y105173D01*
X480364Y105136D01*
Y105129D01*
X480349Y105114D01*
X480334Y105092D01*
X480320Y105049D01*
X480305Y104998D01*
X480291Y104932D01*
X480283Y104852D01*
X480276Y104757D01*
Y104502D01*
X480998D01*
Y103744D01*
X480276D01*
Y100842D01*
X479307D01*
Y103744D01*
X478767D01*
Y104502D01*
X479307D01*
Y104772D01*
Y104779D01*
Y104793D01*
Y104815D01*
Y104852D01*
X479314Y104932D01*
X479321Y105034D01*
X479328Y105143D01*
X479350Y105260D01*
X479372Y105369D01*
X479401Y105464D01*
X479409Y105471D01*
X479423Y105501D01*
X479445Y105544D01*
X479481Y105595D01*
X479532Y105654D01*
X479591Y105719D01*
X479671Y105778D01*
X479758Y105836D01*
X479773Y105843D01*
X479810Y105858D01*
X479868Y105880D01*
X479941Y105909D01*
X480043Y105938D01*
X480152Y105960D01*
X480283Y105974D01*
X480429Y105982D01*
X480502D01*
X480582Y105974D01*
D02*
G37*
G36*
X484468Y104990D02*
X483498D01*
Y105887D01*
X484468D01*
Y104990D01*
D02*
G37*
G36*
X476237D02*
X475268D01*
Y105887D01*
X476237D01*
Y104990D01*
D02*
G37*
G36*
X487668Y104575D02*
X487748Y104568D01*
X487836Y104553D01*
X487930Y104531D01*
X488033Y104502D01*
X488135Y104465D01*
X488149Y104458D01*
X488178Y104444D01*
X488229Y104422D01*
X488288Y104385D01*
X488353Y104341D01*
X488419Y104290D01*
X488485Y104232D01*
X488543Y104166D01*
X488550Y104159D01*
X488565Y104137D01*
X488587Y104101D01*
X488616Y104050D01*
X488652Y103991D01*
X488681Y103919D01*
X488711Y103846D01*
X488732Y103758D01*
Y103751D01*
X488740Y103715D01*
X488754Y103664D01*
X488762Y103591D01*
X488776Y103503D01*
X488784Y103386D01*
X488791Y103262D01*
Y103109D01*
Y100842D01*
X487821D01*
Y102701D01*
Y102708D01*
Y102730D01*
Y102760D01*
Y102796D01*
Y102847D01*
Y102898D01*
X487814Y103022D01*
X487807Y103146D01*
X487792Y103277D01*
X487777Y103386D01*
X487770Y103430D01*
X487756Y103467D01*
Y103474D01*
X487741Y103496D01*
X487726Y103525D01*
X487705Y103569D01*
X487639Y103656D01*
X487603Y103700D01*
X487551Y103736D01*
X487544Y103744D01*
X487530Y103751D01*
X487500Y103766D01*
X487457Y103787D01*
X487406Y103809D01*
X487355Y103824D01*
X487289Y103831D01*
X487216Y103838D01*
X487172D01*
X487129Y103831D01*
X487070Y103824D01*
X486997Y103802D01*
X486925Y103780D01*
X486844Y103744D01*
X486764Y103700D01*
X486757Y103693D01*
X486735Y103678D01*
X486698Y103642D01*
X486655Y103605D01*
X486611Y103547D01*
X486567Y103489D01*
X486524Y103408D01*
X486494Y103328D01*
Y103321D01*
X486480Y103284D01*
X486473Y103226D01*
X486458Y103139D01*
X486451Y103088D01*
X486443Y103022D01*
X486436Y102956D01*
Y102876D01*
X486429Y102796D01*
X486421Y102701D01*
Y102599D01*
Y102490D01*
Y100842D01*
X485452D01*
Y104502D01*
X486349D01*
Y103962D01*
X486356Y103970D01*
X486371Y103991D01*
X486400Y104021D01*
X486436Y104057D01*
X486480Y104108D01*
X486538Y104159D01*
X486604Y104218D01*
X486677Y104276D01*
X486757Y104327D01*
X486852Y104385D01*
X486946Y104436D01*
X487056Y104487D01*
X487172Y104524D01*
X487289Y104553D01*
X487420Y104575D01*
X487551Y104582D01*
X487603D01*
X487668Y104575D01*
D02*
G37*
G36*
X473533Y100842D02*
X472432D01*
X471441Y104611D01*
X470435Y100842D01*
X469326D01*
X468131Y105887D01*
X469173D01*
X469932Y102417D01*
X470850Y105887D01*
X472075D01*
X472950Y102359D01*
X473722Y105887D01*
X474750D01*
X473533Y100842D01*
D02*
G37*
G36*
X484468D02*
X483498D01*
Y104502D01*
X484468D01*
Y100842D01*
D02*
G37*
G36*
X482507D02*
X481537D01*
Y105887D01*
X482507D01*
Y100842D01*
D02*
G37*
G36*
X478198D02*
X477229D01*
Y105887D01*
X478198D01*
Y100842D01*
D02*
G37*
G36*
X476237D02*
X475268D01*
Y104502D01*
X476237D01*
Y100842D01*
D02*
G37*
G36*
X467621D02*
X466651D01*
Y101812D01*
X467621D01*
Y100842D01*
D02*
G37*
G36*
X466002Y105034D02*
X464515D01*
Y100842D01*
X463494D01*
Y105034D01*
X462000D01*
Y105887D01*
X466002D01*
Y105034D01*
D02*
G37*
G36*
X491160Y104575D02*
X491211D01*
X491262Y104560D01*
X491335Y104553D01*
X491408Y104531D01*
X491488Y104509D01*
X491575Y104473D01*
X491663Y104436D01*
X491758Y104385D01*
X491853Y104327D01*
X491947Y104261D01*
X492042Y104174D01*
X492130Y104086D01*
X492217Y103977D01*
Y104502D01*
X493121D01*
Y101214D01*
Y101207D01*
Y101185D01*
Y101156D01*
Y101112D01*
Y101054D01*
X493114Y100995D01*
X493106Y100857D01*
X493092Y100697D01*
X493077Y100536D01*
X493048Y100383D01*
X493034Y100317D01*
X493012Y100252D01*
X493004Y100237D01*
X492990Y100201D01*
X492968Y100142D01*
X492932Y100069D01*
X492888Y99989D01*
X492837Y99902D01*
X492778Y99822D01*
X492705Y99749D01*
X492698Y99742D01*
X492669Y99720D01*
X492625Y99683D01*
X492574Y99647D01*
X492501Y99603D01*
X492414Y99552D01*
X492312Y99508D01*
X492195Y99464D01*
X492181Y99457D01*
X492137Y99450D01*
X492071Y99428D01*
X491976Y99413D01*
X491853Y99392D01*
X491714Y99370D01*
X491554Y99362D01*
X491379Y99355D01*
X491291D01*
X491226Y99362D01*
X491153D01*
X491065Y99370D01*
X490971Y99384D01*
X490868Y99399D01*
X490650Y99435D01*
X490431Y99494D01*
X490329Y99530D01*
X490227Y99574D01*
X490139Y99617D01*
X490059Y99676D01*
X490052Y99683D01*
X490045Y99690D01*
X490001Y99734D01*
X489935Y99800D01*
X489870Y99895D01*
X489797Y100011D01*
X489731Y100150D01*
X489687Y100310D01*
X489680Y100398D01*
X489673Y100485D01*
Y100492D01*
Y100522D01*
Y100558D01*
X489680Y100602D01*
X490788Y100470D01*
Y100463D01*
X490796Y100441D01*
X490803Y100405D01*
X490810Y100368D01*
X490846Y100281D01*
X490876Y100237D01*
X490912Y100208D01*
X490919Y100201D01*
X490941Y100194D01*
X490971Y100172D01*
X491021Y100157D01*
X491080Y100135D01*
X491153Y100113D01*
X491240Y100106D01*
X491342Y100099D01*
X491408D01*
X491473Y100106D01*
X491554Y100113D01*
X491648Y100128D01*
X491743Y100150D01*
X491831Y100179D01*
X491911Y100215D01*
X491918Y100223D01*
X491933Y100230D01*
X491955Y100244D01*
X491984Y100274D01*
X492013Y100310D01*
X492042Y100354D01*
X492071Y100405D01*
X492100Y100463D01*
Y100470D01*
X492108Y100485D01*
X492115Y100514D01*
X492130Y100565D01*
X492137Y100624D01*
X492144Y100697D01*
X492151Y100791D01*
Y100901D01*
Y101433D01*
X492144Y101426D01*
X492130Y101411D01*
X492108Y101382D01*
X492071Y101338D01*
X492035Y101294D01*
X491984Y101243D01*
X491918Y101192D01*
X491853Y101141D01*
X491780Y101083D01*
X491692Y101032D01*
X491510Y100937D01*
X491408Y100901D01*
X491298Y100871D01*
X491182Y100850D01*
X491058Y100842D01*
X491029D01*
X490985Y100850D01*
X490934D01*
X490876Y100864D01*
X490803Y100879D01*
X490723Y100893D01*
X490635Y100923D01*
X490548Y100952D01*
X490453Y100995D01*
X490351Y101046D01*
X490256Y101105D01*
X490161Y101178D01*
X490066Y101258D01*
X489979Y101353D01*
X489891Y101462D01*
Y101469D01*
X489877Y101484D01*
X489862Y101513D01*
X489841Y101549D01*
X489811Y101600D01*
X489782Y101659D01*
X489753Y101724D01*
X489724Y101804D01*
X489695Y101885D01*
X489666Y101979D01*
X489636Y102082D01*
X489607Y102191D01*
X489571Y102424D01*
X489564Y102555D01*
X489556Y102687D01*
Y102694D01*
Y102730D01*
Y102774D01*
X489564Y102840D01*
X489571Y102913D01*
X489578Y103000D01*
X489593Y103102D01*
X489614Y103204D01*
X489666Y103437D01*
X489702Y103554D01*
X489739Y103671D01*
X489789Y103780D01*
X489848Y103897D01*
X489913Y103999D01*
X489994Y104094D01*
X490001Y104101D01*
X490016Y104115D01*
X490037Y104137D01*
X490074Y104174D01*
X490118Y104210D01*
X490169Y104247D01*
X490227Y104290D01*
X490300Y104341D01*
X490373Y104385D01*
X490460Y104429D01*
X490642Y104509D01*
X490752Y104538D01*
X490861Y104560D01*
X490978Y104575D01*
X491094Y104582D01*
X491123D01*
X491160Y104575D01*
D02*
G37*
G36*
X472869Y93272D02*
X471995D01*
X470522Y96932D01*
X471535D01*
X472228Y95058D01*
X472425Y94439D01*
X472432Y94446D01*
X472439Y94475D01*
X472454Y94519D01*
X472468Y94563D01*
X472505Y94672D01*
X472519Y94716D01*
X472527Y94752D01*
Y94760D01*
X472534Y94781D01*
X472541Y94810D01*
X472556Y94847D01*
X472585Y94949D01*
X472629Y95058D01*
X473329Y96932D01*
X474320D01*
X472869Y93272D01*
D02*
G37*
G36*
X483732D02*
X482762D01*
Y94242D01*
X483732D01*
Y93272D01*
D02*
G37*
G36*
X481107D02*
X480137D01*
Y96925D01*
X480130Y96917D01*
X480116Y96903D01*
X480087Y96881D01*
X480043Y96844D01*
X479992Y96801D01*
X479933Y96757D01*
X479860Y96706D01*
X479780Y96648D01*
X479693Y96589D01*
X479598Y96531D01*
X479496Y96465D01*
X479387Y96407D01*
X479153Y96298D01*
X478891Y96196D01*
Y97070D01*
X478898D01*
X478905Y97078D01*
X478927Y97085D01*
X478957Y97092D01*
X479029Y97129D01*
X479132Y97172D01*
X479255Y97231D01*
X479394Y97311D01*
X479547Y97413D01*
X479707Y97530D01*
X479715Y97537D01*
X479729Y97544D01*
X479751Y97566D01*
X479780Y97595D01*
X479860Y97668D01*
X479948Y97763D01*
X480050Y97880D01*
X480152Y98025D01*
X480247Y98178D01*
X480320Y98346D01*
X481107D01*
Y93272D01*
D02*
G37*
G36*
X475887D02*
X474918D01*
Y94242D01*
X475887D01*
Y93272D01*
D02*
G37*
G36*
X464340Y98310D02*
X464420D01*
X464501Y98302D01*
X464595D01*
X464785Y98281D01*
X464982Y98259D01*
X465164Y98222D01*
X465244Y98200D01*
X465317Y98178D01*
X465324D01*
X465332Y98171D01*
X465375Y98149D01*
X465441Y98113D01*
X465528Y98069D01*
X465623Y97996D01*
X465718Y97916D01*
X465813Y97814D01*
X465900Y97690D01*
Y97683D01*
X465907Y97676D01*
X465922Y97654D01*
X465937Y97632D01*
X465973Y97559D01*
X466017Y97464D01*
X466053Y97347D01*
X466090Y97216D01*
X466119Y97063D01*
X466126Y96903D01*
Y96895D01*
Y96881D01*
Y96844D01*
X466119Y96808D01*
Y96757D01*
X466112Y96706D01*
X466082Y96575D01*
X466046Y96422D01*
X465988Y96268D01*
X465900Y96108D01*
X465849Y96035D01*
X465791Y95962D01*
X465784Y95955D01*
X465776Y95948D01*
X465754Y95926D01*
X465725Y95904D01*
X465696Y95875D01*
X465652Y95838D01*
X465601Y95802D01*
X465543Y95766D01*
X465477Y95722D01*
X465397Y95685D01*
X465317Y95649D01*
X465230Y95612D01*
X465127Y95576D01*
X465025Y95547D01*
X464916Y95518D01*
X464792Y95496D01*
X464799D01*
X464807Y95489D01*
X464850Y95459D01*
X464909Y95423D01*
X464982Y95372D01*
X465069Y95306D01*
X465157Y95241D01*
X465251Y95160D01*
X465332Y95073D01*
X465339Y95066D01*
X465375Y95029D01*
X465419Y94971D01*
X465485Y94883D01*
X465572Y94774D01*
X465616Y94701D01*
X465667Y94628D01*
X465725Y94548D01*
X465784Y94461D01*
X465849Y94358D01*
X465915Y94257D01*
X466534Y93272D01*
X465310D01*
X464581Y94366D01*
X464573Y94373D01*
X464566Y94395D01*
X464544Y94424D01*
X464515Y94461D01*
X464486Y94504D01*
X464449Y94563D01*
X464369Y94679D01*
X464275Y94810D01*
X464187Y94927D01*
X464107Y95037D01*
X464070Y95073D01*
X464041Y95109D01*
X464034Y95117D01*
X464019Y95131D01*
X463990Y95160D01*
X463954Y95197D01*
X463903Y95226D01*
X463852Y95262D01*
X463793Y95292D01*
X463735Y95321D01*
X463728D01*
X463706Y95328D01*
X463669Y95343D01*
X463611Y95350D01*
X463538Y95364D01*
X463451Y95372D01*
X463349Y95379D01*
X463021D01*
Y93272D01*
X462000D01*
Y98317D01*
X464275D01*
X464340Y98310D01*
D02*
G37*
G36*
X468605Y97005D02*
X468670Y96997D01*
X468750Y96983D01*
X468838Y96968D01*
X468933Y96947D01*
X469035Y96917D01*
X469137Y96881D01*
X469246Y96837D01*
X469356Y96779D01*
X469458Y96720D01*
X469560Y96648D01*
X469662Y96560D01*
X469749Y96465D01*
X469757Y96458D01*
X469771Y96443D01*
X469793Y96407D01*
X469822Y96363D01*
X469859Y96305D01*
X469895Y96239D01*
X469939Y96152D01*
X469982Y96057D01*
X470026Y95948D01*
X470070Y95824D01*
X470107Y95693D01*
X470143Y95539D01*
X470172Y95379D01*
X470194Y95204D01*
X470209Y95022D01*
Y94818D01*
X467788D01*
Y94810D01*
Y94796D01*
Y94774D01*
X467796Y94745D01*
X467803Y94672D01*
X467817Y94570D01*
X467847Y94468D01*
X467890Y94351D01*
X467941Y94242D01*
X468014Y94147D01*
X468021Y94140D01*
X468058Y94111D01*
X468102Y94074D01*
X468167Y94030D01*
X468248Y93987D01*
X468350Y93950D01*
X468459Y93921D01*
X468576Y93914D01*
X468612D01*
X468656Y93921D01*
X468707Y93928D01*
X468765Y93943D01*
X468831Y93965D01*
X468896Y93994D01*
X468955Y94038D01*
X468962Y94045D01*
X468984Y94060D01*
X469013Y94089D01*
X469042Y94133D01*
X469086Y94191D01*
X469122Y94257D01*
X469159Y94344D01*
X469195Y94439D01*
X470157Y94278D01*
Y94271D01*
X470150Y94257D01*
X470136Y94227D01*
X470121Y94191D01*
X470099Y94147D01*
X470077Y94096D01*
X470012Y93979D01*
X469932Y93848D01*
X469830Y93710D01*
X469705Y93586D01*
X469567Y93469D01*
X469560D01*
X469552Y93455D01*
X469523Y93447D01*
X469494Y93425D01*
X469458Y93404D01*
X469407Y93382D01*
X469356Y93360D01*
X469290Y93331D01*
X469144Y93280D01*
X468976Y93236D01*
X468780Y93207D01*
X468568Y93192D01*
X468525D01*
X468481Y93199D01*
X468415D01*
X468335Y93214D01*
X468240Y93229D01*
X468138Y93243D01*
X468036Y93272D01*
X467919Y93301D01*
X467803Y93345D01*
X467686Y93396D01*
X467570Y93455D01*
X467453Y93528D01*
X467344Y93608D01*
X467249Y93702D01*
X467154Y93812D01*
X467147Y93819D01*
X467139Y93834D01*
X467125Y93863D01*
X467096Y93899D01*
X467074Y93950D01*
X467045Y94009D01*
X467008Y94074D01*
X466979Y94154D01*
X466943Y94242D01*
X466914Y94337D01*
X466877Y94439D01*
X466855Y94555D01*
X466833Y94672D01*
X466811Y94796D01*
X466804Y94934D01*
X466797Y95073D01*
Y95080D01*
Y95109D01*
Y95160D01*
X466804Y95226D01*
X466811Y95299D01*
X466819Y95386D01*
X466833Y95481D01*
X466855Y95591D01*
X466914Y95816D01*
X466950Y95933D01*
X466994Y96057D01*
X467052Y96174D01*
X467118Y96283D01*
X467191Y96392D01*
X467271Y96495D01*
X467278Y96502D01*
X467292Y96516D01*
X467322Y96545D01*
X467358Y96575D01*
X467402Y96611D01*
X467460Y96655D01*
X467526Y96706D01*
X467599Y96757D01*
X467679Y96801D01*
X467774Y96852D01*
X467869Y96895D01*
X467978Y96932D01*
X468087Y96961D01*
X468211Y96990D01*
X468335Y97005D01*
X468466Y97012D01*
X468546D01*
X468605Y97005D01*
D02*
G37*
G36*
X486276Y98339D02*
X486334Y98332D01*
X486407Y98317D01*
X486480Y98302D01*
X486567Y98281D01*
X486662Y98251D01*
X486750Y98215D01*
X486844Y98178D01*
X486939Y98128D01*
X487034Y98062D01*
X487129Y97996D01*
X487216Y97916D01*
X487296Y97821D01*
X487304Y97814D01*
X487318Y97792D01*
X487340Y97756D01*
X487376Y97705D01*
X487413Y97632D01*
X487457Y97544D01*
X487500Y97449D01*
X487544Y97326D01*
X487588Y97194D01*
X487639Y97041D01*
X487675Y96874D01*
X487712Y96684D01*
X487748Y96480D01*
X487770Y96261D01*
X487785Y96021D01*
X487792Y95758D01*
Y95751D01*
Y95744D01*
Y95722D01*
Y95693D01*
Y95620D01*
X487785Y95525D01*
X487777Y95408D01*
X487763Y95270D01*
X487748Y95124D01*
X487734Y94964D01*
X487705Y94796D01*
X487668Y94621D01*
X487632Y94453D01*
X487581Y94286D01*
X487530Y94118D01*
X487457Y93965D01*
X487384Y93819D01*
X487296Y93695D01*
X487289Y93688D01*
X487274Y93673D01*
X487253Y93644D01*
X487223Y93615D01*
X487180Y93578D01*
X487129Y93535D01*
X487063Y93484D01*
X486997Y93440D01*
X486917Y93389D01*
X486837Y93338D01*
X486742Y93294D01*
X486640Y93258D01*
X486531Y93229D01*
X486407Y93199D01*
X486283Y93185D01*
X486152Y93177D01*
X486123D01*
X486079Y93185D01*
X486028D01*
X485969Y93192D01*
X485897Y93207D01*
X485816Y93221D01*
X485729Y93251D01*
X485634Y93280D01*
X485539Y93316D01*
X485437Y93360D01*
X485343Y93418D01*
X485241Y93476D01*
X485146Y93557D01*
X485051Y93637D01*
X484964Y93739D01*
X484956Y93746D01*
X484942Y93768D01*
X484920Y93805D01*
X484898Y93848D01*
X484861Y93914D01*
X484825Y93994D01*
X484781Y94096D01*
X484745Y94205D01*
X484701Y94337D01*
X484657Y94482D01*
X484621Y94650D01*
X484592Y94832D01*
X484563Y95037D01*
X484541Y95262D01*
X484526Y95503D01*
X484519Y95766D01*
Y95773D01*
Y95780D01*
Y95802D01*
Y95831D01*
Y95904D01*
X484526Y95999D01*
X484533Y96115D01*
X484548Y96254D01*
X484563Y96400D01*
X484577Y96560D01*
X484606Y96728D01*
X484635Y96895D01*
X484679Y97070D01*
X484723Y97238D01*
X484781Y97399D01*
X484847Y97552D01*
X484920Y97697D01*
X485007Y97821D01*
X485014Y97829D01*
X485029Y97843D01*
X485051Y97872D01*
X485087Y97901D01*
X485124Y97945D01*
X485175Y97989D01*
X485241Y98033D01*
X485306Y98084D01*
X485386Y98135D01*
X485466Y98178D01*
X485561Y98222D01*
X485663Y98266D01*
X485773Y98295D01*
X485897Y98324D01*
X486021Y98339D01*
X486152Y98346D01*
X486225D01*
X486276Y98339D01*
D02*
G37*
G36*
X463742Y92161D02*
X463808Y92154D01*
X463873Y92147D01*
X463954Y92132D01*
X464034Y92110D01*
X464216Y92059D01*
X464311Y92023D01*
X464413Y91972D01*
X464508Y91921D01*
X464595Y91862D01*
X464690Y91790D01*
X464770Y91709D01*
X464778Y91702D01*
X464785Y91695D01*
X464807Y91673D01*
X464828Y91644D01*
X464887Y91571D01*
X464953Y91469D01*
X465018Y91345D01*
X465069Y91199D01*
X465113Y91039D01*
X465120Y90958D01*
X465127Y90871D01*
Y90864D01*
Y90842D01*
X465120Y90805D01*
X465113Y90762D01*
X465105Y90703D01*
X465091Y90638D01*
X465069Y90565D01*
X465040Y90485D01*
X464996Y90404D01*
X464953Y90317D01*
X464894Y90229D01*
X464821Y90142D01*
X464734Y90055D01*
X464639Y89967D01*
X464530Y89887D01*
X464398Y89807D01*
X464406D01*
X464420Y89799D01*
X464442D01*
X464471Y89785D01*
X464551Y89763D01*
X464646Y89719D01*
X464756Y89661D01*
X464872Y89588D01*
X464989Y89493D01*
X465091Y89384D01*
X465105Y89369D01*
X465135Y89325D01*
X465171Y89260D01*
X465222Y89165D01*
X465273Y89056D01*
X465310Y88917D01*
X465339Y88771D01*
X465353Y88604D01*
Y88596D01*
Y88575D01*
Y88538D01*
X465346Y88494D01*
X465339Y88436D01*
X465324Y88371D01*
X465310Y88290D01*
X465295Y88210D01*
X465237Y88035D01*
X465193Y87940D01*
X465149Y87838D01*
X465091Y87744D01*
X465025Y87649D01*
X464953Y87554D01*
X464865Y87467D01*
X464858Y87459D01*
X464843Y87445D01*
X464814Y87423D01*
X464778Y87394D01*
X464726Y87357D01*
X464675Y87321D01*
X464603Y87277D01*
X464530Y87233D01*
X464449Y87190D01*
X464355Y87146D01*
X464253Y87109D01*
X464151Y87073D01*
X464034Y87044D01*
X463917Y87022D01*
X463786Y87007D01*
X463655Y87000D01*
X463589D01*
X463538Y87007D01*
X463480Y87015D01*
X463414Y87022D01*
X463341Y87037D01*
X463254Y87051D01*
X463079Y87095D01*
X462889Y87168D01*
X462787Y87211D01*
X462700Y87262D01*
X462605Y87328D01*
X462518Y87394D01*
X462510Y87401D01*
X462496Y87415D01*
X462474Y87437D01*
X462445Y87467D01*
X462408Y87503D01*
X462372Y87554D01*
X462328Y87605D01*
X462284Y87671D01*
X462241Y87744D01*
X462189Y87817D01*
X462109Y87991D01*
X462044Y88196D01*
X462015Y88305D01*
X462000Y88422D01*
X462933Y88538D01*
Y88531D01*
Y88524D01*
X462940Y88480D01*
X462955Y88414D01*
X462977Y88334D01*
X463013Y88247D01*
X463050Y88152D01*
X463108Y88064D01*
X463174Y87984D01*
X463181Y87977D01*
X463210Y87955D01*
X463254Y87926D01*
X463305Y87897D01*
X463378Y87860D01*
X463458Y87831D01*
X463546Y87809D01*
X463648Y87802D01*
X463662D01*
X463699Y87809D01*
X463750Y87817D01*
X463823Y87831D01*
X463903Y87860D01*
X463983Y87897D01*
X464070Y87955D01*
X464151Y88028D01*
X464158Y88035D01*
X464187Y88072D01*
X464216Y88123D01*
X464260Y88188D01*
X464296Y88276D01*
X464333Y88385D01*
X464355Y88509D01*
X464362Y88648D01*
Y88655D01*
Y88662D01*
Y88706D01*
X464355Y88771D01*
X464340Y88859D01*
X464311Y88954D01*
X464275Y89048D01*
X464223Y89143D01*
X464158Y89231D01*
X464151Y89238D01*
X464121Y89267D01*
X464078Y89304D01*
X464027Y89340D01*
X463954Y89384D01*
X463873Y89413D01*
X463786Y89442D01*
X463684Y89449D01*
X463611D01*
X463560Y89442D01*
X463494Y89435D01*
X463414Y89420D01*
X463334Y89398D01*
X463239Y89376D01*
X463341Y90157D01*
X463407D01*
X463480Y90164D01*
X463567Y90171D01*
X463662Y90193D01*
X463764Y90222D01*
X463859Y90266D01*
X463946Y90324D01*
X463954Y90332D01*
X463983Y90361D01*
X464012Y90397D01*
X464056Y90456D01*
X464092Y90521D01*
X464129Y90601D01*
X464151Y90696D01*
X464158Y90805D01*
Y90820D01*
Y90849D01*
X464151Y90893D01*
X464136Y90951D01*
X464121Y91017D01*
X464092Y91082D01*
X464056Y91155D01*
X464005Y91214D01*
X463998Y91221D01*
X463976Y91236D01*
X463946Y91265D01*
X463895Y91294D01*
X463837Y91316D01*
X463771Y91345D01*
X463684Y91359D01*
X463596Y91367D01*
X463553D01*
X463509Y91359D01*
X463451Y91345D01*
X463385Y91323D01*
X463312Y91294D01*
X463239Y91250D01*
X463174Y91192D01*
X463166Y91185D01*
X463144Y91163D01*
X463115Y91119D01*
X463079Y91061D01*
X463042Y90995D01*
X463013Y90907D01*
X462984Y90805D01*
X462962Y90689D01*
X462073Y90834D01*
Y90842D01*
X462080Y90856D01*
Y90878D01*
X462087Y90915D01*
X462109Y90995D01*
X462139Y91104D01*
X462182Y91221D01*
X462226Y91345D01*
X462284Y91461D01*
X462350Y91571D01*
X462357Y91585D01*
X462386Y91615D01*
X462430Y91666D01*
X462488Y91731D01*
X462561Y91797D01*
X462649Y91870D01*
X462758Y91943D01*
X462875Y92008D01*
X462882D01*
X462889Y92015D01*
X462933Y92030D01*
X463006Y92059D01*
X463094Y92088D01*
X463203Y92118D01*
X463334Y92147D01*
X463473Y92161D01*
X463626Y92169D01*
X463691D01*
X463742Y92161D01*
D02*
G37*
G36*
X478949Y91170D02*
X477119D01*
X476966Y90310D01*
X476974D01*
X476981Y90317D01*
X477025Y90339D01*
X477090Y90361D01*
X477171Y90397D01*
X477273Y90426D01*
X477382Y90448D01*
X477506Y90470D01*
X477630Y90477D01*
X477695D01*
X477739Y90470D01*
X477790Y90463D01*
X477856Y90456D01*
X477929Y90441D01*
X478009Y90419D01*
X478176Y90361D01*
X478271Y90324D01*
X478359Y90280D01*
X478453Y90222D01*
X478548Y90157D01*
X478636Y90084D01*
X478723Y90004D01*
X478731Y89996D01*
X478745Y89982D01*
X478767Y89952D01*
X478796Y89916D01*
X478825Y89872D01*
X478869Y89814D01*
X478905Y89748D01*
X478949Y89675D01*
X478993Y89595D01*
X479029Y89500D01*
X479073Y89398D01*
X479102Y89296D01*
X479132Y89180D01*
X479153Y89056D01*
X479168Y88925D01*
X479175Y88786D01*
Y88779D01*
Y88757D01*
Y88728D01*
X479168Y88684D01*
Y88626D01*
X479153Y88560D01*
X479146Y88487D01*
X479132Y88414D01*
X479088Y88239D01*
X479022Y88050D01*
X478978Y87948D01*
X478935Y87853D01*
X478876Y87758D01*
X478811Y87663D01*
X478803Y87656D01*
X478789Y87634D01*
X478760Y87605D01*
X478723Y87561D01*
X478672Y87510D01*
X478607Y87452D01*
X478534Y87394D01*
X478453Y87335D01*
X478359Y87270D01*
X478257Y87211D01*
X478147Y87153D01*
X478023Y87102D01*
X477892Y87058D01*
X477754Y87029D01*
X477601Y87007D01*
X477440Y87000D01*
X477375D01*
X477324Y87007D01*
X477265Y87015D01*
X477192Y87022D01*
X477119Y87029D01*
X477032Y87044D01*
X476857Y87088D01*
X476660Y87160D01*
X476565Y87197D01*
X476471Y87248D01*
X476383Y87306D01*
X476296Y87372D01*
X476288Y87379D01*
X476274Y87386D01*
X476252Y87408D01*
X476223Y87437D01*
X476194Y87481D01*
X476150Y87525D01*
X476113Y87576D01*
X476070Y87634D01*
X476019Y87707D01*
X475975Y87780D01*
X475895Y87955D01*
X475822Y88152D01*
X475800Y88261D01*
X475778Y88378D01*
X476740Y88480D01*
Y88465D01*
X476748Y88429D01*
X476762Y88363D01*
X476784Y88290D01*
X476813Y88210D01*
X476857Y88123D01*
X476915Y88042D01*
X476981Y87962D01*
X476988Y87955D01*
X477017Y87933D01*
X477061Y87904D01*
X477119Y87867D01*
X477185Y87831D01*
X477265Y87802D01*
X477360Y87780D01*
X477455Y87773D01*
X477469D01*
X477506Y87780D01*
X477564Y87787D01*
X477637Y87802D01*
X477717Y87831D01*
X477805Y87875D01*
X477892Y87940D01*
X477972Y88021D01*
X477980Y88035D01*
X478009Y88064D01*
X478038Y88123D01*
X478082Y88210D01*
X478118Y88312D01*
X478155Y88436D01*
X478176Y88589D01*
X478184Y88764D01*
Y88771D01*
Y88786D01*
Y88808D01*
Y88844D01*
X478176Y88925D01*
X478155Y89027D01*
X478133Y89143D01*
X478096Y89260D01*
X478045Y89369D01*
X477972Y89464D01*
X477965Y89471D01*
X477936Y89500D01*
X477885Y89537D01*
X477827Y89588D01*
X477746Y89632D01*
X477652Y89668D01*
X477542Y89697D01*
X477426Y89705D01*
X477382D01*
X477353Y89697D01*
X477280Y89683D01*
X477178Y89661D01*
X477061Y89617D01*
X476937Y89552D01*
X476872Y89508D01*
X476806Y89457D01*
X476740Y89398D01*
X476675Y89333D01*
X475895Y89442D01*
X476391Y92074D01*
X478949D01*
Y91170D01*
D02*
G37*
G36*
X495884Y87095D02*
X494914D01*
Y90747D01*
X494907Y90740D01*
X494893Y90725D01*
X494863Y90703D01*
X494820Y90667D01*
X494768Y90623D01*
X494710Y90579D01*
X494637Y90528D01*
X494557Y90470D01*
X494470Y90412D01*
X494375Y90353D01*
X494273Y90288D01*
X494164Y90229D01*
X493930Y90120D01*
X493668Y90018D01*
Y90893D01*
X493675D01*
X493682Y90900D01*
X493704Y90907D01*
X493733Y90915D01*
X493806Y90951D01*
X493908Y90995D01*
X494032Y91053D01*
X494171Y91133D01*
X494324Y91236D01*
X494484Y91352D01*
X494491Y91359D01*
X494506Y91367D01*
X494528Y91389D01*
X494557Y91418D01*
X494637Y91491D01*
X494725Y91585D01*
X494827Y91702D01*
X494929Y91848D01*
X495024Y92001D01*
X495097Y92169D01*
X495884D01*
Y87095D01*
D02*
G37*
G36*
X491277Y92161D02*
X491342Y92154D01*
X491415Y92147D01*
X491495Y92132D01*
X491583Y92118D01*
X491772Y92067D01*
X491962Y91994D01*
X492064Y91950D01*
X492151Y91899D01*
X492246Y91833D01*
X492326Y91760D01*
X492334Y91753D01*
X492348Y91746D01*
X492363Y91717D01*
X492392Y91688D01*
X492428Y91651D01*
X492465Y91600D01*
X492501Y91549D01*
X492545Y91483D01*
X492618Y91338D01*
X492691Y91170D01*
X492720Y91075D01*
X492735Y90973D01*
X492749Y90864D01*
X492757Y90754D01*
Y90740D01*
Y90696D01*
X492749Y90630D01*
X492742Y90550D01*
X492727Y90448D01*
X492705Y90339D01*
X492676Y90222D01*
X492633Y90106D01*
X492625Y90091D01*
X492611Y90055D01*
X492582Y89989D01*
X492538Y89909D01*
X492487Y89814D01*
X492421Y89705D01*
X492341Y89588D01*
X492246Y89464D01*
X492239Y89457D01*
X492210Y89420D01*
X492166Y89369D01*
X492100Y89296D01*
X492013Y89209D01*
X491904Y89092D01*
X491772Y88968D01*
X491612Y88815D01*
X491605Y88808D01*
X491590Y88801D01*
X491568Y88779D01*
X491539Y88750D01*
X491459Y88677D01*
X491364Y88589D01*
X491269Y88494D01*
X491175Y88400D01*
X491087Y88319D01*
X491058Y88283D01*
X491029Y88254D01*
X491021Y88247D01*
X491007Y88232D01*
X490985Y88203D01*
X490956Y88166D01*
X490890Y88086D01*
X490832Y87991D01*
X492757D01*
Y87095D01*
X489367Y87095D01*
Y87102D01*
Y87117D01*
X489374Y87146D01*
X489381Y87182D01*
X489389Y87226D01*
X489396Y87277D01*
X489425Y87408D01*
X489469Y87554D01*
X489527Y87714D01*
X489600Y87889D01*
X489695Y88057D01*
Y88064D01*
X489709Y88079D01*
X489724Y88108D01*
X489753Y88137D01*
X489782Y88188D01*
X489826Y88239D01*
X489877Y88305D01*
X489935Y88378D01*
X490001Y88465D01*
X490081Y88553D01*
X490169Y88655D01*
X490271Y88764D01*
X490380Y88873D01*
X490504Y88998D01*
X490635Y89129D01*
X490781Y89267D01*
X490788Y89275D01*
X490810Y89296D01*
X490839Y89325D01*
X490883Y89369D01*
X490941Y89413D01*
X491000Y89471D01*
X491131Y89603D01*
X491262Y89741D01*
X491393Y89880D01*
X491452Y89938D01*
X491510Y90004D01*
X491554Y90055D01*
X491583Y90098D01*
X491590Y90113D01*
X491612Y90149D01*
X491648Y90208D01*
X491685Y90288D01*
X491721Y90375D01*
X491758Y90477D01*
X491780Y90579D01*
X491787Y90689D01*
Y90696D01*
Y90703D01*
Y90740D01*
X491780Y90805D01*
X491765Y90878D01*
X491743Y90958D01*
X491714Y91039D01*
X491670Y91119D01*
X491612Y91192D01*
X491605Y91199D01*
X491583Y91221D01*
X491539Y91250D01*
X491488Y91279D01*
X491415Y91308D01*
X491335Y91338D01*
X491240Y91359D01*
X491131Y91367D01*
X491080D01*
X491021Y91359D01*
X490956Y91345D01*
X490876Y91323D01*
X490796Y91286D01*
X490715Y91243D01*
X490642Y91185D01*
X490635Y91177D01*
X490613Y91148D01*
X490584Y91104D01*
X490555Y91039D01*
X490519Y90958D01*
X490489Y90849D01*
X490460Y90725D01*
X490446Y90579D01*
X489483Y90674D01*
Y90681D01*
X489491Y90711D01*
Y90747D01*
X489505Y90805D01*
X489512Y90871D01*
X489534Y90944D01*
X489556Y91024D01*
X489578Y91119D01*
X489651Y91301D01*
X489739Y91491D01*
X489797Y91585D01*
X489862Y91673D01*
X489935Y91746D01*
X490016Y91819D01*
X490023Y91826D01*
X490037Y91833D01*
X490059Y91848D01*
X490096Y91877D01*
X490139Y91899D01*
X490198Y91928D01*
X490256Y91965D01*
X490329Y91994D01*
X490409Y92030D01*
X490497Y92059D01*
X490686Y92118D01*
X490912Y92154D01*
X491029Y92161D01*
X491153Y92169D01*
X491226D01*
X491277Y92161D01*
D02*
G37*
G36*
X483433Y92161D02*
X483498Y92154D01*
X483571Y92147D01*
X483651Y92132D01*
X483739Y92118D01*
X483928Y92067D01*
X484118Y91994D01*
X484220Y91950D01*
X484307Y91899D01*
X484402Y91833D01*
X484482Y91760D01*
X484490Y91753D01*
X484504Y91746D01*
X484519Y91717D01*
X484548Y91688D01*
X484584Y91651D01*
X484621Y91600D01*
X484657Y91549D01*
X484701Y91483D01*
X484774Y91338D01*
X484847Y91170D01*
X484876Y91075D01*
X484891Y90973D01*
X484905Y90864D01*
X484912Y90754D01*
Y90740D01*
Y90696D01*
X484905Y90630D01*
X484898Y90550D01*
X484883Y90448D01*
X484861Y90339D01*
X484832Y90222D01*
X484789Y90105D01*
X484781Y90091D01*
X484767Y90055D01*
X484737Y89989D01*
X484694Y89909D01*
X484643Y89814D01*
X484577Y89705D01*
X484497Y89588D01*
X484402Y89464D01*
X484395Y89457D01*
X484366Y89420D01*
X484322Y89369D01*
X484256Y89296D01*
X484169Y89209D01*
X484059Y89092D01*
X483928Y88968D01*
X483768Y88815D01*
X483761Y88808D01*
X483746Y88801D01*
X483724Y88779D01*
X483695Y88750D01*
X483615Y88677D01*
X483520Y88589D01*
X483425Y88494D01*
X483330Y88400D01*
X483243Y88319D01*
X483214Y88283D01*
X483185Y88254D01*
X483178Y88247D01*
X483163Y88232D01*
X483141Y88203D01*
X483112Y88166D01*
X483046Y88086D01*
X482988Y87991D01*
X484912D01*
Y87095D01*
X481523D01*
Y87102D01*
Y87117D01*
X481530Y87146D01*
X481537Y87182D01*
X481544Y87226D01*
X481552Y87277D01*
X481581Y87408D01*
X481625Y87554D01*
X481683Y87714D01*
X481756Y87889D01*
X481851Y88057D01*
Y88064D01*
X481865Y88079D01*
X481880Y88108D01*
X481909Y88137D01*
X481938Y88188D01*
X481982Y88239D01*
X482033Y88305D01*
X482091Y88378D01*
X482157Y88465D01*
X482237Y88553D01*
X482325Y88655D01*
X482427Y88764D01*
X482536Y88873D01*
X482660Y88998D01*
X482791Y89129D01*
X482937Y89267D01*
X482944Y89275D01*
X482966Y89296D01*
X482995Y89325D01*
X483039Y89369D01*
X483097Y89413D01*
X483156Y89471D01*
X483287Y89603D01*
X483418Y89741D01*
X483549Y89880D01*
X483608Y89938D01*
X483666Y90004D01*
X483710Y90055D01*
X483739Y90098D01*
X483746Y90113D01*
X483768Y90149D01*
X483804Y90208D01*
X483841Y90288D01*
X483877Y90375D01*
X483914Y90477D01*
X483936Y90579D01*
X483943Y90689D01*
Y90696D01*
Y90703D01*
Y90740D01*
X483936Y90805D01*
X483921Y90878D01*
X483899Y90958D01*
X483870Y91039D01*
X483826Y91119D01*
X483768Y91192D01*
X483761Y91199D01*
X483739Y91221D01*
X483695Y91250D01*
X483644Y91279D01*
X483571Y91308D01*
X483491Y91338D01*
X483396Y91359D01*
X483287Y91367D01*
X483236D01*
X483178Y91359D01*
X483112Y91345D01*
X483032Y91323D01*
X482951Y91286D01*
X482871Y91243D01*
X482798Y91185D01*
X482791Y91177D01*
X482769Y91148D01*
X482740Y91104D01*
X482711Y91039D01*
X482674Y90958D01*
X482645Y90849D01*
X482616Y90725D01*
X482601Y90579D01*
X481639Y90674D01*
Y90681D01*
X481647Y90711D01*
Y90747D01*
X481661Y90805D01*
X481668Y90871D01*
X481690Y90944D01*
X481712Y91024D01*
X481734Y91119D01*
X481807Y91301D01*
X481894Y91491D01*
X481953Y91585D01*
X482018Y91673D01*
X482091Y91746D01*
X482171Y91819D01*
X482179Y91826D01*
X482193Y91833D01*
X482215Y91848D01*
X482252Y91877D01*
X482295Y91899D01*
X482354Y91928D01*
X482412Y91965D01*
X482485Y91994D01*
X482565Y92030D01*
X482653Y92059D01*
X482842Y92118D01*
X483068Y92154D01*
X483185Y92161D01*
X483309Y92169D01*
X483382D01*
X483433Y92161D01*
D02*
G37*
G36*
X480859Y87095D02*
X479890D01*
Y88064D01*
X480859D01*
Y87095D01*
D02*
G37*
G36*
X471054D02*
X470085D01*
Y88064D01*
X471054D01*
Y87095D01*
D02*
G37*
G36*
X487325Y92161D02*
X487384Y92154D01*
X487457Y92139D01*
X487530Y92125D01*
X487617Y92103D01*
X487712Y92074D01*
X487799Y92037D01*
X487894Y92001D01*
X487989Y91950D01*
X488084Y91884D01*
X488178Y91819D01*
X488266Y91738D01*
X488346Y91644D01*
X488353Y91636D01*
X488368Y91615D01*
X488390Y91578D01*
X488426Y91527D01*
X488463Y91454D01*
X488506Y91367D01*
X488550Y91272D01*
X488594Y91148D01*
X488638Y91017D01*
X488689Y90864D01*
X488725Y90696D01*
X488762Y90507D01*
X488798Y90302D01*
X488820Y90084D01*
X488834Y89843D01*
X488842Y89581D01*
Y89573D01*
Y89566D01*
Y89544D01*
Y89515D01*
Y89442D01*
X488834Y89347D01*
X488827Y89231D01*
X488813Y89092D01*
X488798Y88946D01*
X488784Y88786D01*
X488754Y88618D01*
X488718Y88443D01*
X488681Y88276D01*
X488630Y88108D01*
X488579Y87940D01*
X488506Y87787D01*
X488434Y87642D01*
X488346Y87518D01*
X488339Y87510D01*
X488324Y87496D01*
X488302Y87467D01*
X488273Y87437D01*
X488229Y87401D01*
X488178Y87357D01*
X488113Y87306D01*
X488047Y87262D01*
X487967Y87211D01*
X487887Y87160D01*
X487792Y87117D01*
X487690Y87080D01*
X487581Y87051D01*
X487457Y87022D01*
X487333Y87007D01*
X487201Y87000D01*
X487172D01*
X487129Y87007D01*
X487078D01*
X487019Y87015D01*
X486946Y87029D01*
X486866Y87044D01*
X486779Y87073D01*
X486684Y87102D01*
X486589Y87138D01*
X486487Y87182D01*
X486392Y87241D01*
X486290Y87299D01*
X486196Y87379D01*
X486101Y87459D01*
X486013Y87561D01*
X486006Y87569D01*
X485991Y87590D01*
X485969Y87627D01*
X485948Y87671D01*
X485911Y87736D01*
X485875Y87817D01*
X485831Y87919D01*
X485795Y88028D01*
X485751Y88159D01*
X485707Y88305D01*
X485671Y88473D01*
X485641Y88655D01*
X485612Y88859D01*
X485590Y89085D01*
X485576Y89325D01*
X485569Y89588D01*
Y89595D01*
Y89603D01*
Y89624D01*
Y89654D01*
Y89727D01*
X485576Y89821D01*
X485583Y89938D01*
X485598Y90076D01*
X485612Y90222D01*
X485627Y90383D01*
X485656Y90550D01*
X485685Y90718D01*
X485729Y90893D01*
X485773Y91061D01*
X485831Y91221D01*
X485897Y91374D01*
X485969Y91520D01*
X486057Y91644D01*
X486064Y91651D01*
X486079Y91666D01*
X486101Y91695D01*
X486137Y91724D01*
X486174Y91768D01*
X486225Y91811D01*
X486290Y91855D01*
X486356Y91906D01*
X486436Y91957D01*
X486516Y92001D01*
X486611Y92045D01*
X486713Y92088D01*
X486823Y92118D01*
X486946Y92147D01*
X487070Y92161D01*
X487201Y92169D01*
X487274D01*
X487325Y92161D01*
D02*
G37*
G36*
X473598D02*
X473657Y92154D01*
X473730Y92139D01*
X473803Y92125D01*
X473890Y92103D01*
X473985Y92074D01*
X474072Y92037D01*
X474167Y92001D01*
X474262Y91950D01*
X474357Y91884D01*
X474451Y91819D01*
X474539Y91738D01*
X474619Y91644D01*
X474626Y91636D01*
X474641Y91615D01*
X474663Y91578D01*
X474699Y91527D01*
X474736Y91454D01*
X474779Y91367D01*
X474823Y91272D01*
X474867Y91148D01*
X474911Y91017D01*
X474962Y90864D01*
X474998Y90696D01*
X475035Y90507D01*
X475071Y90302D01*
X475093Y90084D01*
X475107Y89843D01*
X475115Y89581D01*
Y89573D01*
Y89566D01*
Y89544D01*
Y89515D01*
Y89442D01*
X475107Y89347D01*
X475100Y89231D01*
X475085Y89092D01*
X475071Y88946D01*
X475056Y88786D01*
X475027Y88618D01*
X474991Y88443D01*
X474954Y88276D01*
X474903Y88108D01*
X474852Y87940D01*
X474779Y87787D01*
X474707Y87642D01*
X474619Y87518D01*
X474612Y87510D01*
X474597Y87496D01*
X474575Y87467D01*
X474546Y87437D01*
X474502Y87401D01*
X474451Y87357D01*
X474386Y87306D01*
X474320Y87262D01*
X474240Y87211D01*
X474160Y87160D01*
X474065Y87117D01*
X473963Y87080D01*
X473853Y87051D01*
X473730Y87022D01*
X473606Y87007D01*
X473475Y87000D01*
X473445D01*
X473402Y87007D01*
X473350D01*
X473292Y87015D01*
X473219Y87029D01*
X473139Y87044D01*
X473052Y87073D01*
X472957Y87102D01*
X472862Y87138D01*
X472760Y87182D01*
X472665Y87241D01*
X472563Y87299D01*
X472468Y87379D01*
X472374Y87459D01*
X472286Y87561D01*
X472279Y87569D01*
X472264Y87590D01*
X472242Y87627D01*
X472221Y87671D01*
X472184Y87736D01*
X472148Y87817D01*
X472104Y87919D01*
X472067Y88028D01*
X472024Y88159D01*
X471980Y88305D01*
X471944Y88473D01*
X471914Y88655D01*
X471885Y88859D01*
X471863Y89085D01*
X471849Y89325D01*
X471841Y89588D01*
Y89595D01*
Y89603D01*
Y89624D01*
Y89654D01*
Y89727D01*
X471849Y89821D01*
X471856Y89938D01*
X471871Y90076D01*
X471885Y90222D01*
X471900Y90383D01*
X471929Y90550D01*
X471958Y90718D01*
X472002Y90893D01*
X472046Y91061D01*
X472104Y91221D01*
X472169Y91374D01*
X472242Y91520D01*
X472330Y91644D01*
X472337Y91651D01*
X472352Y91666D01*
X472374Y91695D01*
X472410Y91724D01*
X472447Y91768D01*
X472498Y91811D01*
X472563Y91855D01*
X472629Y91906D01*
X472709Y91957D01*
X472789Y92001D01*
X472884Y92045D01*
X472986Y92088D01*
X473095Y92118D01*
X473219Y92147D01*
X473343Y92161D01*
X473475Y92169D01*
X473547D01*
X473598Y92161D01*
D02*
G37*
G36*
X467715D02*
X467774Y92154D01*
X467847Y92139D01*
X467919Y92125D01*
X468007Y92103D01*
X468102Y92074D01*
X468189Y92037D01*
X468284Y92001D01*
X468379Y91950D01*
X468473Y91884D01*
X468568Y91819D01*
X468656Y91738D01*
X468736Y91644D01*
X468743Y91636D01*
X468758Y91615D01*
X468780Y91578D01*
X468816Y91527D01*
X468853Y91454D01*
X468896Y91367D01*
X468940Y91272D01*
X468984Y91148D01*
X469028Y91017D01*
X469079Y90864D01*
X469115Y90696D01*
X469151Y90507D01*
X469188Y90302D01*
X469210Y90084D01*
X469224Y89843D01*
X469232Y89581D01*
Y89573D01*
Y89566D01*
Y89544D01*
Y89515D01*
Y89442D01*
X469224Y89347D01*
X469217Y89231D01*
X469203Y89092D01*
X469188Y88946D01*
X469173Y88786D01*
X469144Y88618D01*
X469108Y88443D01*
X469071Y88276D01*
X469020Y88108D01*
X468969Y87940D01*
X468896Y87787D01*
X468823Y87642D01*
X468736Y87518D01*
X468729Y87510D01*
X468714Y87496D01*
X468692Y87467D01*
X468663Y87437D01*
X468619Y87401D01*
X468568Y87357D01*
X468503Y87306D01*
X468437Y87262D01*
X468357Y87211D01*
X468277Y87160D01*
X468182Y87117D01*
X468080Y87080D01*
X467971Y87051D01*
X467847Y87022D01*
X467723Y87007D01*
X467591Y87000D01*
X467562D01*
X467519Y87007D01*
X467467D01*
X467409Y87015D01*
X467336Y87029D01*
X467256Y87044D01*
X467169Y87073D01*
X467074Y87102D01*
X466979Y87138D01*
X466877Y87182D01*
X466782Y87241D01*
X466680Y87299D01*
X466585Y87379D01*
X466491Y87459D01*
X466403Y87561D01*
X466396Y87569D01*
X466381Y87590D01*
X466359Y87627D01*
X466338Y87671D01*
X466301Y87736D01*
X466265Y87817D01*
X466221Y87919D01*
X466185Y88028D01*
X466141Y88159D01*
X466097Y88305D01*
X466060Y88473D01*
X466031Y88655D01*
X466002Y88859D01*
X465980Y89085D01*
X465966Y89325D01*
X465958Y89588D01*
Y89595D01*
Y89603D01*
Y89624D01*
Y89654D01*
Y89727D01*
X465966Y89821D01*
X465973Y89938D01*
X465988Y90076D01*
X466002Y90222D01*
X466017Y90383D01*
X466046Y90550D01*
X466075Y90718D01*
X466119Y90893D01*
X466163Y91061D01*
X466221Y91221D01*
X466287Y91374D01*
X466359Y91520D01*
X466447Y91644D01*
X466454Y91651D01*
X466469Y91666D01*
X466491Y91695D01*
X466527Y91724D01*
X466564Y91768D01*
X466615Y91811D01*
X466680Y91855D01*
X466746Y91906D01*
X466826Y91957D01*
X466906Y92001D01*
X467001Y92045D01*
X467103Y92088D01*
X467212Y92118D01*
X467336Y92147D01*
X467460Y92161D01*
X467591Y92169D01*
X467664D01*
X467715Y92161D01*
D02*
G37*
%LPC*%
G36*
X514495Y111387D02*
X514481D01*
X514437Y111379D01*
X514371Y111372D01*
X514298Y111350D01*
X514204Y111321D01*
X514109Y111270D01*
X514014Y111204D01*
X513919Y111109D01*
X513912Y111095D01*
X513883Y111058D01*
X513846Y110993D01*
X513810Y110905D01*
X513766Y110789D01*
X513730Y110650D01*
X513701Y110483D01*
X513693Y110293D01*
Y110286D01*
Y110271D01*
Y110235D01*
Y110198D01*
X513701Y110147D01*
Y110096D01*
X513715Y109972D01*
X513730Y109834D01*
X513759Y109688D01*
X513803Y109557D01*
X513825Y109498D01*
X513854Y109447D01*
Y109440D01*
X513868Y109433D01*
X513898Y109389D01*
X513948Y109331D01*
X514021Y109265D01*
X514116Y109192D01*
X514226Y109134D01*
X514357Y109090D01*
X514430Y109083D01*
X514503Y109076D01*
X514517D01*
X514561Y109083D01*
X514619Y109090D01*
X514699Y109112D01*
X514787Y109141D01*
X514882Y109192D01*
X514976Y109258D01*
X515071Y109353D01*
X515078Y109367D01*
X515108Y109404D01*
X515144Y109469D01*
X515188Y109564D01*
X515232Y109681D01*
X515268Y109827D01*
X515297Y110001D01*
X515305Y110198D01*
Y110205D01*
Y110227D01*
Y110257D01*
Y110300D01*
X515297Y110351D01*
X515290Y110417D01*
X515275Y110548D01*
X515246Y110701D01*
X515210Y110847D01*
X515151Y110993D01*
X515115Y111051D01*
X515071Y111109D01*
X515064Y111124D01*
X515028Y111153D01*
X514984Y111197D01*
X514918Y111248D01*
X514831Y111299D01*
X514736Y111343D01*
X514619Y111372D01*
X514495Y111387D01*
D02*
G37*
G36*
X522893Y111365D02*
X522879D01*
X522835Y111357D01*
X522769Y111350D01*
X522689Y111328D01*
X522594Y111299D01*
X522492Y111248D01*
X522398Y111182D01*
X522303Y111088D01*
X522296Y111073D01*
X522266Y111037D01*
X522230Y110971D01*
X522193Y110883D01*
X522150Y110767D01*
X522113Y110628D01*
X522084Y110468D01*
X522077Y110278D01*
Y110271D01*
Y110249D01*
Y110220D01*
X522084Y110176D01*
Y110125D01*
X522091Y110067D01*
X522106Y109936D01*
X522135Y109783D01*
X522179Y109630D01*
X522237Y109491D01*
X522274Y109425D01*
X522318Y109367D01*
X522332Y109353D01*
X522361Y109324D01*
X522412Y109272D01*
X522485Y109221D01*
X522565Y109170D01*
X522667Y109119D01*
X522784Y109090D01*
X522908Y109076D01*
X522923D01*
X522966Y109083D01*
X523025Y109090D01*
X523105Y109112D01*
X523192Y109141D01*
X523287Y109192D01*
X523382Y109258D01*
X523469Y109345D01*
X523477Y109360D01*
X523506Y109396D01*
X523542Y109462D01*
X523586Y109557D01*
X523600Y109615D01*
X523622Y109681D01*
X523644Y109754D01*
X523659Y109834D01*
X523673Y109921D01*
X523688Y110016D01*
X523695Y110118D01*
Y110227D01*
Y110235D01*
Y110257D01*
Y110286D01*
Y110322D01*
X523688Y110373D01*
X523681Y110424D01*
X523666Y110548D01*
X523637Y110687D01*
X523600Y110833D01*
X523542Y110964D01*
X523462Y111080D01*
X523455Y111095D01*
X523418Y111124D01*
X523367Y111168D01*
X523302Y111226D01*
X523221Y111277D01*
X523127Y111321D01*
X523017Y111350D01*
X522893Y111365D01*
D02*
G37*
G36*
X548620Y110140D02*
X548612D01*
X548583Y110125D01*
X548540Y110118D01*
X548474Y110096D01*
X548394Y110074D01*
X548284Y110045D01*
X548168Y110016D01*
X548022Y109987D01*
X548007D01*
X547986Y109980D01*
X547956Y109972D01*
X547891Y109958D01*
X547803Y109936D01*
X547716Y109914D01*
X547628Y109885D01*
X547555Y109848D01*
X547497Y109819D01*
X547490Y109812D01*
X547468Y109797D01*
X547439Y109768D01*
X547410Y109732D01*
X547373Y109681D01*
X547344Y109622D01*
X547322Y109557D01*
X547315Y109484D01*
Y109476D01*
Y109447D01*
X547322Y109411D01*
X547337Y109367D01*
X547351Y109309D01*
X547373Y109251D01*
X547410Y109192D01*
X547461Y109134D01*
X547468Y109127D01*
X547490Y109112D01*
X547519Y109090D01*
X547570Y109061D01*
X547621Y109032D01*
X547687Y109010D01*
X547767Y108995D01*
X547847Y108988D01*
X547891D01*
X547942Y108995D01*
X548007Y109010D01*
X548088Y109032D01*
X548168Y109061D01*
X548263Y109098D01*
X548350Y109156D01*
X548357Y109163D01*
X548379Y109178D01*
X548408Y109207D01*
X548445Y109243D01*
X548481Y109294D01*
X548518Y109345D01*
X548554Y109411D01*
X548576Y109477D01*
Y109484D01*
X548583Y109498D01*
X548591Y109535D01*
X548598Y109579D01*
X548605Y109644D01*
X548612Y109724D01*
X548620Y109827D01*
Y109943D01*
Y110140D01*
D02*
G37*
G36*
X519241Y110140D02*
X519234D01*
X519205Y110125D01*
X519161Y110118D01*
X519095Y110096D01*
X519015Y110074D01*
X518906Y110045D01*
X518789Y110016D01*
X518643Y109987D01*
X518629D01*
X518607Y109980D01*
X518578Y109972D01*
X518512Y109958D01*
X518425Y109936D01*
X518337Y109914D01*
X518250Y109885D01*
X518177Y109848D01*
X518118Y109819D01*
X518111Y109812D01*
X518089Y109797D01*
X518060Y109768D01*
X518031Y109732D01*
X517994Y109681D01*
X517965Y109622D01*
X517943Y109557D01*
X517936Y109484D01*
Y109476D01*
Y109447D01*
X517943Y109411D01*
X517958Y109367D01*
X517973Y109309D01*
X517994Y109251D01*
X518031Y109192D01*
X518082Y109134D01*
X518089Y109127D01*
X518111Y109112D01*
X518140Y109090D01*
X518191Y109061D01*
X518242Y109032D01*
X518308Y109010D01*
X518388Y108995D01*
X518468Y108988D01*
X518512D01*
X518563Y108995D01*
X518629Y109010D01*
X518709Y109032D01*
X518789Y109061D01*
X518884Y109098D01*
X518971Y109156D01*
X518979Y109163D01*
X519000Y109178D01*
X519030Y109207D01*
X519066Y109243D01*
X519103Y109294D01*
X519139Y109345D01*
X519175Y109411D01*
X519197Y109476D01*
Y109484D01*
X519205Y109498D01*
X519212Y109535D01*
X519219Y109579D01*
X519227Y109644D01*
X519234Y109724D01*
X519241Y109827D01*
Y109943D01*
Y110140D01*
D02*
G37*
G36*
X509808Y112261D02*
X509123Y110388D01*
X510515D01*
X509808Y112261D01*
D02*
G37*
G36*
X463779Y112582D02*
X463021D01*
Y111146D01*
X463720D01*
X463771Y111153D01*
X463903D01*
X464034Y111161D01*
X464165Y111175D01*
X464282Y111197D01*
X464333Y111204D01*
X464376Y111219D01*
X464384Y111226D01*
X464413Y111233D01*
X464449Y111255D01*
X464493Y111277D01*
X464544Y111314D01*
X464595Y111357D01*
X464654Y111408D01*
X464697Y111467D01*
X464705Y111474D01*
X464719Y111496D01*
X464734Y111532D01*
X464756Y111583D01*
X464778Y111642D01*
X464799Y111707D01*
X464807Y111780D01*
X464814Y111860D01*
Y111875D01*
Y111904D01*
X464807Y111955D01*
X464792Y112021D01*
X464770Y112094D01*
X464741Y112174D01*
X464705Y112247D01*
X464646Y112320D01*
X464639Y112327D01*
X464617Y112349D01*
X464581Y112378D01*
X464537Y112414D01*
X464479Y112458D01*
X464406Y112495D01*
X464326Y112524D01*
X464238Y112546D01*
X464231D01*
X464202Y112553D01*
X464151Y112560D01*
X464078Y112567D01*
X463983D01*
X463917Y112575D01*
X463852D01*
X463779Y112582D01*
D02*
G37*
G36*
X555720Y111343D02*
X555684D01*
X555655Y111336D01*
X555589Y111328D01*
X555502Y111306D01*
X555400Y111270D01*
X555290Y111219D01*
X555181Y111146D01*
X555079Y111051D01*
X555071Y111037D01*
X555042Y111000D01*
X554998Y110927D01*
X554955Y110840D01*
X554904Y110723D01*
X554867Y110577D01*
X554838Y110410D01*
X554824Y110220D01*
Y110213D01*
Y110198D01*
Y110169D01*
X554831Y110133D01*
Y110082D01*
X554838Y110031D01*
X554853Y109914D01*
X554889Y109775D01*
X554933Y109637D01*
X554991Y109498D01*
X555079Y109382D01*
X555093Y109367D01*
X555123Y109338D01*
X555181Y109294D01*
X555261Y109243D01*
X555348Y109185D01*
X555458Y109141D01*
X555582Y109112D01*
X555720Y109098D01*
X555757D01*
X555786Y109105D01*
X555852Y109112D01*
X555939Y109134D01*
X556041Y109170D01*
X556150Y109214D01*
X556252Y109287D01*
X556355Y109382D01*
X556369Y109396D01*
X556398Y109433D01*
X556435Y109506D01*
X556486Y109593D01*
X556537Y109717D01*
X556573Y109856D01*
X556602Y110031D01*
X556617Y110220D01*
Y110227D01*
Y110242D01*
Y110271D01*
X556610Y110308D01*
Y110351D01*
X556602Y110410D01*
X556588Y110526D01*
X556551Y110658D01*
X556508Y110796D01*
X556442Y110935D01*
X556355Y111051D01*
X556340Y111066D01*
X556311Y111095D01*
X556252Y111146D01*
X556180Y111197D01*
X556085Y111248D01*
X555983Y111299D01*
X555859Y111328D01*
X555720Y111343D01*
D02*
G37*
G36*
X529250Y111387D02*
X529199D01*
X529141Y111372D01*
X529068Y111357D01*
X528988Y111328D01*
X528900Y111292D01*
X528813Y111233D01*
X528733Y111153D01*
X528725Y111146D01*
X528703Y111109D01*
X528667Y111058D01*
X528631Y110986D01*
X528587Y110898D01*
X528558Y110789D01*
X528536Y110665D01*
X528528Y110526D01*
X529972D01*
Y110534D01*
Y110548D01*
Y110563D01*
X529965Y110592D01*
X529957Y110672D01*
X529943Y110760D01*
X529914Y110862D01*
X529877Y110971D01*
X529819Y111073D01*
X529753Y111161D01*
X529746Y111168D01*
X529717Y111197D01*
X529673Y111233D01*
X529615Y111277D01*
X529542Y111314D01*
X529454Y111350D01*
X529360Y111379D01*
X529250Y111387D01*
D02*
G37*
G36*
X498691D02*
X498639D01*
X498581Y111372D01*
X498508Y111357D01*
X498428Y111328D01*
X498341Y111292D01*
X498253Y111233D01*
X498173Y111153D01*
X498166Y111146D01*
X498144Y111109D01*
X498107Y111058D01*
X498071Y110986D01*
X498027Y110898D01*
X497998Y110789D01*
X497976Y110665D01*
X497969Y110526D01*
X499412D01*
Y110534D01*
Y110548D01*
Y110563D01*
X499405Y110592D01*
X499398Y110672D01*
X499383Y110760D01*
X499354Y110862D01*
X499318Y110971D01*
X499259Y111073D01*
X499194Y111161D01*
X499186Y111168D01*
X499157Y111197D01*
X499113Y111233D01*
X499055Y111277D01*
X498982Y111314D01*
X498895Y111350D01*
X498800Y111379D01*
X498691Y111387D01*
D02*
G37*
G36*
X489119Y111343D02*
X489082D01*
X489053Y111336D01*
X488988Y111328D01*
X488900Y111306D01*
X488798Y111270D01*
X488689Y111219D01*
X488579Y111146D01*
X488477Y111051D01*
X488470Y111037D01*
X488441Y111000D01*
X488397Y110927D01*
X488353Y110840D01*
X488302Y110723D01*
X488266Y110577D01*
X488237Y110410D01*
X488222Y110220D01*
Y110213D01*
Y110198D01*
Y110169D01*
X488229Y110133D01*
Y110082D01*
X488237Y110031D01*
X488251Y109914D01*
X488288Y109775D01*
X488332Y109637D01*
X488390Y109498D01*
X488477Y109382D01*
X488492Y109367D01*
X488521Y109338D01*
X488579Y109294D01*
X488659Y109243D01*
X488747Y109185D01*
X488856Y109141D01*
X488980Y109112D01*
X489119Y109098D01*
X489155D01*
X489184Y109105D01*
X489250Y109112D01*
X489337Y109134D01*
X489440Y109170D01*
X489549Y109214D01*
X489651Y109287D01*
X489753Y109382D01*
X489768Y109396D01*
X489797Y109433D01*
X489833Y109506D01*
X489884Y109593D01*
X489935Y109717D01*
X489972Y109856D01*
X490001Y110031D01*
X490016Y110220D01*
Y110227D01*
Y110242D01*
Y110271D01*
X490008Y110308D01*
Y110351D01*
X490001Y110410D01*
X489986Y110526D01*
X489950Y110658D01*
X489906Y110796D01*
X489841Y110934D01*
X489753Y111051D01*
X489739Y111066D01*
X489709Y111095D01*
X489651Y111146D01*
X489578Y111197D01*
X489483Y111248D01*
X489381Y111299D01*
X489257Y111328D01*
X489119Y111343D01*
D02*
G37*
G36*
X477929Y111387D02*
X477878D01*
X477819Y111372D01*
X477746Y111357D01*
X477666Y111328D01*
X477579Y111292D01*
X477491Y111233D01*
X477411Y111153D01*
X477404Y111146D01*
X477382Y111109D01*
X477345Y111058D01*
X477309Y110986D01*
X477265Y110898D01*
X477236Y110789D01*
X477214Y110665D01*
X477207Y110526D01*
X478650D01*
Y110534D01*
Y110548D01*
Y110563D01*
X478643Y110592D01*
X478636Y110672D01*
X478621Y110760D01*
X478592Y110862D01*
X478556Y110971D01*
X478497Y111073D01*
X478432Y111161D01*
X478424Y111168D01*
X478395Y111197D01*
X478351Y111233D01*
X478293Y111277D01*
X478220Y111314D01*
X478133Y111350D01*
X478038Y111379D01*
X477929Y111387D01*
D02*
G37*
G36*
X468357Y111343D02*
X468320D01*
X468291Y111336D01*
X468226Y111328D01*
X468138Y111306D01*
X468036Y111270D01*
X467927Y111219D01*
X467817Y111146D01*
X467715Y111051D01*
X467708Y111037D01*
X467679Y111000D01*
X467635Y110927D01*
X467591Y110840D01*
X467540Y110723D01*
X467504Y110577D01*
X467475Y110410D01*
X467460Y110220D01*
Y110213D01*
Y110198D01*
Y110169D01*
X467467Y110133D01*
Y110082D01*
X467475Y110031D01*
X467489Y109914D01*
X467526Y109775D01*
X467570Y109637D01*
X467628Y109498D01*
X467715Y109382D01*
X467730Y109367D01*
X467759Y109338D01*
X467817Y109294D01*
X467898Y109243D01*
X467985Y109185D01*
X468094Y109141D01*
X468218Y109112D01*
X468357Y109098D01*
X468393D01*
X468423Y109105D01*
X468488Y109112D01*
X468576Y109134D01*
X468678Y109170D01*
X468787Y109214D01*
X468889Y109287D01*
X468991Y109382D01*
X469006Y109396D01*
X469035Y109433D01*
X469071Y109506D01*
X469122Y109593D01*
X469173Y109717D01*
X469210Y109856D01*
X469239Y110031D01*
X469253Y110220D01*
Y110227D01*
Y110242D01*
Y110271D01*
X469246Y110308D01*
Y110351D01*
X469239Y110410D01*
X469224Y110526D01*
X469188Y110658D01*
X469144Y110796D01*
X469079Y110934D01*
X468991Y111051D01*
X468976Y111066D01*
X468947Y111095D01*
X468889Y111146D01*
X468816Y111197D01*
X468721Y111248D01*
X468619Y111299D01*
X468495Y111328D01*
X468357Y111343D01*
D02*
G37*
G36*
X491342Y103839D02*
X491328D01*
X491284Y103831D01*
X491218Y103824D01*
X491138Y103802D01*
X491051Y103773D01*
X490949Y103722D01*
X490854Y103656D01*
X490766Y103561D01*
X490759Y103547D01*
X490730Y103510D01*
X490701Y103445D01*
X490657Y103357D01*
X490621Y103241D01*
X490584Y103102D01*
X490555Y102935D01*
X490548Y102738D01*
Y102730D01*
Y102716D01*
Y102679D01*
X490555Y102643D01*
Y102599D01*
X490562Y102541D01*
X490577Y102417D01*
X490599Y102278D01*
X490642Y102140D01*
X490693Y102009D01*
X490766Y101892D01*
X490774Y101877D01*
X490810Y101848D01*
X490854Y101804D01*
X490919Y101761D01*
X491000Y101710D01*
X491094Y101666D01*
X491204Y101637D01*
X491320Y101622D01*
X491335D01*
X491379Y101630D01*
X491444Y101637D01*
X491532Y101659D01*
X491627Y101688D01*
X491721Y101739D01*
X491823Y101804D01*
X491918Y101899D01*
X491925Y101914D01*
X491955Y101950D01*
X491998Y102016D01*
X492042Y102103D01*
X492086Y102220D01*
X492130Y102359D01*
X492159Y102526D01*
X492166Y102716D01*
Y102723D01*
Y102738D01*
Y102767D01*
Y102811D01*
X492159Y102854D01*
X492151Y102913D01*
X492137Y103037D01*
X492108Y103175D01*
X492071Y103314D01*
X492013Y103445D01*
X491933Y103561D01*
X491925Y103576D01*
X491889Y103605D01*
X491838Y103649D01*
X491772Y103700D01*
X491685Y103751D01*
X491583Y103795D01*
X491473Y103824D01*
X491342Y103839D01*
D02*
G37*
G36*
X464187Y97464D02*
X463021D01*
Y96181D01*
X464012D01*
X464158Y96188D01*
X464311Y96196D01*
X464464Y96203D01*
X464530Y96210D01*
X464588Y96218D01*
X464646Y96232D01*
X464683Y96239D01*
X464690D01*
X464712Y96254D01*
X464748Y96268D01*
X464785Y96290D01*
X464880Y96356D01*
X464923Y96400D01*
X464967Y96451D01*
X464974Y96458D01*
X464982Y96480D01*
X465003Y96509D01*
X465025Y96553D01*
X465040Y96611D01*
X465062Y96677D01*
X465069Y96750D01*
X465076Y96830D01*
Y96844D01*
Y96874D01*
X465069Y96917D01*
X465062Y96976D01*
X465040Y97041D01*
X465018Y97107D01*
X464982Y97180D01*
X464938Y97238D01*
X464931Y97245D01*
X464916Y97267D01*
X464880Y97289D01*
X464836Y97326D01*
X464785Y97362D01*
X464719Y97391D01*
X464639Y97420D01*
X464551Y97442D01*
X464544D01*
X464522Y97449D01*
X464479D01*
X464413Y97457D01*
X464253D01*
X464187Y97464D01*
D02*
G37*
G36*
X468525Y96268D02*
X468473D01*
X468415Y96254D01*
X468342Y96239D01*
X468262Y96210D01*
X468175Y96174D01*
X468087Y96115D01*
X468007Y96035D01*
X468000Y96028D01*
X467978Y95991D01*
X467941Y95941D01*
X467905Y95868D01*
X467861Y95780D01*
X467832Y95671D01*
X467810Y95547D01*
X467803Y95408D01*
X469246D01*
Y95416D01*
Y95430D01*
Y95445D01*
X469239Y95474D01*
X469232Y95554D01*
X469217Y95642D01*
X469188Y95744D01*
X469151Y95853D01*
X469093Y95955D01*
X469028Y96043D01*
X469020Y96050D01*
X468991Y96079D01*
X468947Y96115D01*
X468889Y96159D01*
X468816Y96196D01*
X468729Y96232D01*
X468634Y96261D01*
X468525Y96268D01*
D02*
G37*
G36*
X486152Y97544D02*
X486123D01*
X486086Y97537D01*
X486050Y97530D01*
X485999Y97515D01*
X485948Y97493D01*
X485889Y97464D01*
X485838Y97428D01*
X485831Y97420D01*
X485816Y97406D01*
X485795Y97377D01*
X485765Y97340D01*
X485729Y97282D01*
X485700Y97216D01*
X485663Y97129D01*
X485634Y97027D01*
Y97019D01*
X485627Y97012D01*
Y96983D01*
X485620Y96954D01*
X485612Y96910D01*
X485605Y96859D01*
X485598Y96801D01*
X485590Y96728D01*
X485576Y96640D01*
X485569Y96553D01*
X485561Y96443D01*
X485554Y96334D01*
X485547Y96203D01*
Y96072D01*
X485539Y95919D01*
Y95758D01*
Y95751D01*
Y95722D01*
Y95671D01*
Y95612D01*
Y95539D01*
X485547Y95459D01*
Y95364D01*
X485554Y95270D01*
X485561Y95066D01*
X485576Y94862D01*
X485583Y94767D01*
X485598Y94679D01*
X485612Y94599D01*
X485627Y94526D01*
X485634Y94512D01*
X485641Y94475D01*
X485663Y94417D01*
X485685Y94351D01*
X485722Y94278D01*
X485758Y94205D01*
X485802Y94140D01*
X485846Y94089D01*
X485853Y94081D01*
X485868Y94074D01*
X485897Y94052D01*
X485933Y94038D01*
X485977Y94016D01*
X486028Y93994D01*
X486086Y93987D01*
X486152Y93979D01*
X486181D01*
X486217Y93987D01*
X486254Y93994D01*
X486305Y94009D01*
X486356Y94023D01*
X486407Y94052D01*
X486458Y94089D01*
X486465Y94096D01*
X486480Y94111D01*
X486509Y94140D01*
X486538Y94184D01*
X486567Y94235D01*
X486604Y94308D01*
X486640Y94388D01*
X486669Y94490D01*
Y94497D01*
X486677Y94504D01*
Y94533D01*
X486684Y94563D01*
X486691Y94606D01*
X486698Y94657D01*
X486713Y94716D01*
X486720Y94789D01*
X486728Y94869D01*
X486742Y94964D01*
X486750Y95066D01*
X486757Y95182D01*
X486764Y95306D01*
Y95445D01*
X486771Y95598D01*
Y95758D01*
Y95766D01*
Y95795D01*
Y95846D01*
Y95904D01*
Y95977D01*
X486764Y96057D01*
Y96152D01*
X486757Y96247D01*
X486750Y96451D01*
X486735Y96648D01*
X486720Y96742D01*
X486706Y96837D01*
X486691Y96917D01*
X486677Y96983D01*
Y96990D01*
X486669Y96997D01*
X486662Y97034D01*
X486640Y97092D01*
X486618Y97165D01*
X486582Y97238D01*
X486545Y97311D01*
X486502Y97377D01*
X486458Y97428D01*
X486451Y97435D01*
X486436Y97449D01*
X486407Y97464D01*
X486371Y97486D01*
X486327Y97508D01*
X486276Y97530D01*
X486217Y97537D01*
X486152Y97544D01*
D02*
G37*
G36*
X487201Y91367D02*
X487172D01*
X487136Y91359D01*
X487100Y91352D01*
X487048Y91338D01*
X486997Y91316D01*
X486939Y91286D01*
X486888Y91250D01*
X486881Y91243D01*
X486866Y91228D01*
X486844Y91199D01*
X486815Y91163D01*
X486779Y91104D01*
X486750Y91039D01*
X486713Y90951D01*
X486684Y90849D01*
Y90842D01*
X486677Y90834D01*
Y90805D01*
X486669Y90776D01*
X486662Y90733D01*
X486655Y90681D01*
X486648Y90623D01*
X486640Y90550D01*
X486626Y90463D01*
X486618Y90375D01*
X486611Y90266D01*
X486604Y90157D01*
X486596Y90025D01*
Y89894D01*
X486589Y89741D01*
Y89581D01*
Y89573D01*
Y89544D01*
Y89493D01*
Y89435D01*
Y89362D01*
X486596Y89282D01*
Y89187D01*
X486604Y89092D01*
X486611Y88888D01*
X486626Y88684D01*
X486633Y88589D01*
X486648Y88502D01*
X486662Y88422D01*
X486677Y88349D01*
X486684Y88334D01*
X486691Y88298D01*
X486713Y88239D01*
X486735Y88174D01*
X486771Y88101D01*
X486808Y88028D01*
X486852Y87962D01*
X486895Y87911D01*
X486903Y87904D01*
X486917Y87897D01*
X486946Y87875D01*
X486983Y87860D01*
X487027Y87838D01*
X487078Y87817D01*
X487136Y87809D01*
X487201Y87802D01*
X487231D01*
X487267Y87809D01*
X487304Y87817D01*
X487355Y87831D01*
X487406Y87846D01*
X487457Y87875D01*
X487508Y87911D01*
X487515Y87919D01*
X487530Y87933D01*
X487559Y87962D01*
X487588Y88006D01*
X487617Y88057D01*
X487653Y88130D01*
X487690Y88210D01*
X487719Y88312D01*
Y88319D01*
X487726Y88327D01*
Y88356D01*
X487734Y88385D01*
X487741Y88429D01*
X487748Y88480D01*
X487763Y88538D01*
X487770Y88611D01*
X487777Y88691D01*
X487792Y88786D01*
X487799Y88888D01*
X487807Y89005D01*
X487814Y89129D01*
Y89267D01*
X487821Y89420D01*
Y89581D01*
Y89588D01*
Y89617D01*
Y89668D01*
Y89727D01*
Y89799D01*
X487814Y89880D01*
Y89974D01*
X487807Y90069D01*
X487799Y90273D01*
X487785Y90470D01*
X487770Y90565D01*
X487756Y90660D01*
X487741Y90740D01*
X487726Y90805D01*
Y90813D01*
X487719Y90820D01*
X487712Y90856D01*
X487690Y90915D01*
X487668Y90988D01*
X487632Y91061D01*
X487595Y91133D01*
X487551Y91199D01*
X487508Y91250D01*
X487500Y91257D01*
X487486Y91272D01*
X487457Y91286D01*
X487420Y91308D01*
X487376Y91330D01*
X487325Y91352D01*
X487267Y91359D01*
X487201Y91367D01*
D02*
G37*
G36*
X473475D02*
X473445D01*
X473409Y91359D01*
X473372Y91352D01*
X473321Y91338D01*
X473270Y91316D01*
X473212Y91286D01*
X473161Y91250D01*
X473154Y91243D01*
X473139Y91228D01*
X473117Y91199D01*
X473088Y91163D01*
X473052Y91104D01*
X473023Y91039D01*
X472986Y90951D01*
X472957Y90849D01*
Y90842D01*
X472950Y90834D01*
Y90805D01*
X472942Y90776D01*
X472935Y90733D01*
X472928Y90681D01*
X472920Y90623D01*
X472913Y90550D01*
X472898Y90463D01*
X472891Y90375D01*
X472884Y90266D01*
X472877Y90157D01*
X472869Y90025D01*
Y89894D01*
X472862Y89741D01*
Y89581D01*
Y89573D01*
Y89544D01*
Y89493D01*
Y89435D01*
Y89362D01*
X472869Y89282D01*
Y89187D01*
X472877Y89092D01*
X472884Y88888D01*
X472898Y88684D01*
X472906Y88589D01*
X472920Y88502D01*
X472935Y88422D01*
X472950Y88349D01*
X472957Y88334D01*
X472964Y88298D01*
X472986Y88239D01*
X473008Y88174D01*
X473044Y88101D01*
X473081Y88028D01*
X473125Y87962D01*
X473168Y87911D01*
X473176Y87904D01*
X473190Y87897D01*
X473219Y87875D01*
X473256Y87860D01*
X473300Y87838D01*
X473350Y87817D01*
X473409Y87809D01*
X473475Y87802D01*
X473504D01*
X473540Y87809D01*
X473576Y87817D01*
X473628Y87831D01*
X473679Y87846D01*
X473730Y87875D01*
X473781Y87911D01*
X473788Y87919D01*
X473803Y87933D01*
X473832Y87962D01*
X473861Y88006D01*
X473890Y88057D01*
X473926Y88130D01*
X473963Y88210D01*
X473992Y88312D01*
Y88319D01*
X473999Y88327D01*
Y88356D01*
X474007Y88385D01*
X474014Y88429D01*
X474021Y88480D01*
X474036Y88538D01*
X474043Y88611D01*
X474050Y88691D01*
X474065Y88786D01*
X474072Y88888D01*
X474080Y89005D01*
X474087Y89129D01*
Y89267D01*
X474094Y89420D01*
Y89581D01*
Y89588D01*
Y89617D01*
Y89668D01*
Y89727D01*
Y89799D01*
X474087Y89880D01*
Y89974D01*
X474080Y90069D01*
X474072Y90273D01*
X474058Y90470D01*
X474043Y90565D01*
X474028Y90660D01*
X474014Y90740D01*
X473999Y90805D01*
Y90813D01*
X473992Y90820D01*
X473985Y90856D01*
X473963Y90915D01*
X473941Y90988D01*
X473905Y91061D01*
X473868Y91133D01*
X473824Y91199D01*
X473781Y91250D01*
X473773Y91257D01*
X473759Y91272D01*
X473730Y91286D01*
X473693Y91308D01*
X473649Y91330D01*
X473598Y91352D01*
X473540Y91359D01*
X473475Y91367D01*
D02*
G37*
G36*
X467591D02*
X467562D01*
X467526Y91359D01*
X467489Y91352D01*
X467438Y91338D01*
X467387Y91316D01*
X467329Y91286D01*
X467278Y91250D01*
X467271Y91243D01*
X467256Y91228D01*
X467234Y91199D01*
X467205Y91163D01*
X467169Y91104D01*
X467139Y91039D01*
X467103Y90951D01*
X467074Y90849D01*
Y90842D01*
X467067Y90834D01*
Y90805D01*
X467059Y90776D01*
X467052Y90733D01*
X467045Y90681D01*
X467037Y90623D01*
X467030Y90550D01*
X467016Y90463D01*
X467008Y90375D01*
X467001Y90266D01*
X466994Y90157D01*
X466986Y90025D01*
Y89894D01*
X466979Y89741D01*
Y89581D01*
Y89573D01*
Y89544D01*
Y89493D01*
Y89435D01*
Y89362D01*
X466986Y89282D01*
Y89187D01*
X466994Y89092D01*
X467001Y88888D01*
X467016Y88684D01*
X467023Y88589D01*
X467037Y88502D01*
X467052Y88422D01*
X467067Y88349D01*
X467074Y88334D01*
X467081Y88298D01*
X467103Y88239D01*
X467125Y88174D01*
X467161Y88101D01*
X467198Y88028D01*
X467241Y87962D01*
X467285Y87911D01*
X467292Y87904D01*
X467307Y87897D01*
X467336Y87875D01*
X467373Y87860D01*
X467416Y87838D01*
X467467Y87817D01*
X467526Y87809D01*
X467591Y87802D01*
X467621D01*
X467657Y87809D01*
X467694Y87817D01*
X467744Y87831D01*
X467796Y87846D01*
X467847Y87875D01*
X467898Y87911D01*
X467905Y87919D01*
X467919Y87933D01*
X467949Y87962D01*
X467978Y88006D01*
X468007Y88057D01*
X468043Y88130D01*
X468080Y88210D01*
X468109Y88312D01*
Y88319D01*
X468116Y88327D01*
Y88356D01*
X468124Y88385D01*
X468131Y88429D01*
X468138Y88480D01*
X468153Y88538D01*
X468160Y88611D01*
X468167Y88691D01*
X468182Y88786D01*
X468189Y88888D01*
X468196Y89005D01*
X468204Y89129D01*
Y89267D01*
X468211Y89420D01*
Y89581D01*
Y89588D01*
Y89617D01*
Y89668D01*
Y89727D01*
Y89799D01*
X468204Y89880D01*
Y89974D01*
X468196Y90069D01*
X468189Y90273D01*
X468175Y90470D01*
X468160Y90565D01*
X468146Y90660D01*
X468131Y90740D01*
X468116Y90805D01*
Y90813D01*
X468109Y90820D01*
X468102Y90856D01*
X468080Y90915D01*
X468058Y90988D01*
X468021Y91061D01*
X467985Y91133D01*
X467941Y91199D01*
X467898Y91250D01*
X467890Y91257D01*
X467876Y91272D01*
X467847Y91286D01*
X467810Y91308D01*
X467766Y91330D01*
X467715Y91352D01*
X467657Y91359D01*
X467591Y91367D01*
D02*
G37*
%LPD*%
D10*
X461646Y166272D02*
X460908Y166698D01*
Y165846D01*
X461646Y166272D01*
X464291Y292421D02*
X463553Y292847D01*
Y291995D01*
X464291Y292421D01*
X462933Y345669D02*
X462195Y346095D01*
Y345243D01*
X462933Y345669D01*
X461752Y229921D02*
X461014Y230347D01*
Y229495D01*
X461752Y229921D01*
D11*
X467433Y174638D02*
X466988Y175561D01*
X465989Y175789D01*
X465188Y175150D01*
Y174125D01*
X465989Y173486D01*
X466988Y173714D01*
X467433Y174638D01*
X470079Y300787D02*
X469634Y301711D01*
X468635Y301939D01*
X467834Y301300D01*
Y300275D01*
X468635Y299636D01*
X469634Y299864D01*
X470079Y300787D01*
X468720Y354035D02*
X468276Y354959D01*
X467277Y355187D01*
X466475Y354548D01*
Y353523D01*
X467277Y352884D01*
X468276Y353112D01*
X468720Y354035D01*
X467539Y238287D02*
X467095Y239211D01*
X466095Y239439D01*
X465294Y238800D01*
Y237775D01*
X466095Y237136D01*
X467095Y237364D01*
X467539Y238287D01*
D12*
X190535Y65197D02*
X189748D01*
X190535D01*
X127000Y15488D02*
Y72575D01*
X77000Y15488D02*
Y52988D01*
X254992Y90197D02*
Y121693D01*
X229008Y90197D02*
Y109685D01*
X324000Y15000D02*
Y72087D01*
X274000Y15000D02*
Y52500D01*
X588343Y27803D02*
Y28197D01*
X593657Y27803D02*
Y28197D01*
X462315Y170701D02*
X501685D01*
X462315Y183299D02*
X501685D01*
X462315Y170701D02*
Y183299D01*
X501685Y170701D02*
Y183299D01*
X515590Y44705D02*
Y55295D01*
X424409D02*
X515590D01*
X424409Y44705D02*
Y55295D01*
Y44705D02*
X515590D01*
Y32705D02*
Y43295D01*
X424409D02*
X515590D01*
X424409Y32705D02*
Y43295D01*
Y32705D02*
X515590D01*
X262598Y364449D02*
Y399882D01*
Y364449D02*
X363543D01*
X262598Y399882D02*
X363543D01*
Y364449D02*
Y399882D01*
X5118Y377323D02*
X40551D01*
X5118Y316378D02*
Y377323D01*
X40551Y316378D02*
Y377323D01*
X5118Y316378D02*
X40551D01*
X45118Y364449D02*
Y399882D01*
Y364449D02*
X146063D01*
X45118Y399882D02*
X146063D01*
Y364449D02*
Y399882D01*
X153858Y364449D02*
Y399882D01*
Y364449D02*
X254803D01*
X153858Y399882D02*
X254803D01*
Y364449D02*
Y399882D01*
X219378Y112803D02*
Y113197D01*
X216622Y112803D02*
Y113197D01*
X4724Y171457D02*
Y208858D01*
Y171457D02*
X36614D01*
Y208858D01*
X4724D02*
X36614D01*
X4724Y215945D02*
Y253346D01*
Y215945D02*
X36614D01*
Y253346D01*
X4724D02*
X36614D01*
X5118Y258465D02*
Y295866D01*
Y258465D02*
X37008D01*
Y295866D01*
X5118D02*
X37008D01*
X173776Y86673D02*
X208224D01*
X173776Y133327D02*
X208224D01*
X173776Y86673D02*
Y133327D01*
X208224Y86673D02*
Y133327D01*
X135343Y102803D02*
Y103197D01*
X140657Y102803D02*
Y103197D01*
X249378Y36803D02*
Y37197D01*
X246622Y36803D02*
Y37197D01*
X224378Y36803D02*
Y37197D01*
X221622Y36803D02*
Y37197D01*
X176378Y37803D02*
Y38197D01*
X173622Y37803D02*
Y38197D01*
X153378Y37803D02*
Y38197D01*
X150622Y37803D02*
Y38197D01*
X465622Y324803D02*
Y325197D01*
X468378Y324803D02*
Y325197D01*
X504331Y296850D02*
Y309449D01*
X464961Y296850D02*
Y309449D01*
X504331D01*
X464961Y296850D02*
X504331D01*
X463622Y376803D02*
Y377197D01*
X466378Y376803D02*
Y377197D01*
X502972Y350098D02*
Y362697D01*
X463602Y350098D02*
Y362697D01*
X502972D01*
X463602Y350098D02*
X502972D01*
X457803Y198622D02*
X458197D01*
X457803Y201378D02*
X458197D01*
X501791Y234350D02*
Y246949D01*
X462421Y234350D02*
Y246949D01*
X501791D01*
X462421Y234350D02*
X501791D01*
X459803Y258622D02*
X460197D01*
X459803Y261378D02*
X460197D01*
X316622Y214803D02*
Y215197D01*
X319378Y214803D02*
Y215197D01*
X246803Y223378D02*
X247197D01*
X246803Y220622D02*
X247197D01*
X319378Y259803D02*
Y260197D01*
X316622Y259803D02*
Y260197D01*
X246803Y250622D02*
X247197D01*
X246803Y253378D02*
X247197D01*
X152047Y218378D02*
X152441D01*
X152047Y215622D02*
X152441D01*
X100622Y214803D02*
Y215197D01*
X103378Y214803D02*
Y215197D01*
X175378Y233803D02*
Y234197D01*
X172622Y233803D02*
Y234197D01*
X103378Y259559D02*
Y259953D01*
X100622Y259559D02*
Y259953D01*
X154559Y250622D02*
X154953D01*
X154559Y253378D02*
X154953D01*
X7874Y117520D02*
X39764D01*
Y80118D02*
Y117520D01*
X7874Y80118D02*
X39764D01*
X7874D02*
Y117520D01*
X185996Y254657D02*
X192000D01*
X193378Y219972D02*
Y254028D01*
Y219972D02*
X205976D01*
Y254028D01*
X193378D02*
X205976D01*
D13*
X81161Y82870D02*
Y97870D01*
X81303Y113500D02*
Y128500D01*
D14*
X575244Y32000D02*
X576000D01*
X575244Y22000D02*
Y32000D01*
Y22000D02*
X576000D01*
X580000D02*
X580756D01*
Y32000D01*
X580000D02*
X580756D01*
X575244Y27000D02*
X580756D01*
X518000Y146244D02*
Y151756D01*
X513000Y151000D02*
Y151756D01*
X523000D01*
Y151000D02*
Y151756D01*
Y146244D02*
Y147000D01*
X513000Y146244D02*
X523000D01*
X513000D02*
Y147000D01*
X518000Y139244D02*
Y144756D01*
X513000Y144000D02*
Y144756D01*
X523000D01*
Y144000D02*
Y144756D01*
Y139244D02*
Y140000D01*
X513000Y139244D02*
X523000D01*
X513000D02*
Y140000D01*
X518000Y155244D02*
Y160756D01*
X513000Y160000D02*
Y160756D01*
X523000D01*
Y160000D02*
Y160756D01*
Y155244D02*
Y156000D01*
X513000Y155244D02*
X523000D01*
X513000D02*
Y156000D01*
X518000Y162244D02*
Y167756D01*
X513000Y167000D02*
Y167756D01*
X523000D01*
Y167000D02*
Y167756D01*
Y162244D02*
Y163000D01*
X513000Y162244D02*
X523000D01*
X513000D02*
Y163000D01*
X518000Y173244D02*
Y178756D01*
X513000Y178000D02*
Y178756D01*
X523000D01*
Y178000D02*
Y178756D01*
Y173244D02*
Y174000D01*
X513000Y173244D02*
X523000D01*
X513000D02*
Y174000D01*
X518000Y180244D02*
Y185756D01*
X513000Y185000D02*
Y185756D01*
X523000D01*
Y185000D02*
Y185756D01*
Y180244D02*
Y181000D01*
X513000Y180244D02*
X523000D01*
X513000D02*
Y181000D01*
X518000Y190244D02*
Y195756D01*
X513000Y195000D02*
Y195756D01*
X523000D01*
Y195000D02*
Y195756D01*
Y190244D02*
Y191000D01*
X513000Y190244D02*
X523000D01*
X513000D02*
Y191000D01*
X518000Y197244D02*
Y202756D01*
X513000Y202000D02*
Y202756D01*
X523000D01*
Y202000D02*
Y202756D01*
Y197244D02*
Y198000D01*
X513000Y197244D02*
X523000D01*
X513000D02*
Y198000D01*
X518000Y214244D02*
Y219756D01*
X513000Y219000D02*
Y219756D01*
X523000D01*
Y219000D02*
Y219756D01*
Y214244D02*
Y215000D01*
X513000Y214244D02*
X523000D01*
X513000D02*
Y215000D01*
X518000Y207244D02*
Y212756D01*
X513000Y212000D02*
Y212756D01*
X523000D01*
Y212000D02*
Y212756D01*
Y207244D02*
Y208000D01*
X513000Y207244D02*
X523000D01*
X513000D02*
Y208000D01*
X518000Y231244D02*
Y236756D01*
X513000Y236000D02*
Y236756D01*
X523000D01*
Y236000D02*
Y236756D01*
Y231244D02*
Y232000D01*
X513000Y231244D02*
X523000D01*
X513000D02*
Y232000D01*
X518000Y224244D02*
Y229756D01*
X513000Y229000D02*
Y229756D01*
X523000D01*
Y229000D02*
Y229756D01*
Y224244D02*
Y225000D01*
X513000Y224244D02*
X523000D01*
X513000D02*
Y225000D01*
X518000Y240244D02*
Y245756D01*
X513000Y245000D02*
Y245756D01*
X523000D01*
Y245000D02*
Y245756D01*
Y240244D02*
Y241000D01*
X513000Y240244D02*
X523000D01*
X513000D02*
Y241000D01*
X518000Y247244D02*
Y252756D01*
X513000Y252000D02*
Y252756D01*
X523000D01*
Y252000D02*
Y252756D01*
Y247244D02*
Y248000D01*
X513000Y247244D02*
X523000D01*
X513000D02*
Y248000D01*
X518000Y257244D02*
Y262756D01*
X513000Y262000D02*
Y262756D01*
X523000D01*
Y262000D02*
Y262756D01*
Y257244D02*
Y258000D01*
X513000Y257244D02*
X523000D01*
X513000D02*
Y258000D01*
X518000Y264244D02*
Y269756D01*
X513000Y269000D02*
Y269756D01*
X523000D01*
Y269000D02*
Y269756D01*
Y264244D02*
Y265000D01*
X513000Y264244D02*
X523000D01*
X513000D02*
Y265000D01*
X515244Y311000D02*
X520756D01*
X515244Y306000D02*
X516000D01*
X515244D02*
Y316000D01*
X516000D01*
X520000D02*
X520756D01*
Y306000D02*
Y316000D01*
X520000Y306000D02*
X520756D01*
X526244Y322000D02*
X531756D01*
X531000Y327000D02*
X531756D01*
Y317000D02*
Y327000D01*
X531000Y317000D02*
X531756D01*
X526244D02*
X527000D01*
X526244D02*
Y327000D01*
X527000D01*
X515354Y284134D02*
X516110D01*
X515354Y274134D02*
Y284134D01*
Y274134D02*
X516110D01*
X520110D02*
X520866D01*
Y284134D01*
X520110D02*
X520866D01*
X515354Y279134D02*
X520866D01*
X526244Y305000D02*
X527000D01*
X526244Y295000D02*
Y305000D01*
Y295000D02*
X527000D01*
X531000D02*
X531756D01*
Y305000D01*
X531000D02*
X531756D01*
X526244Y300000D02*
X531756D01*
X519717Y327284D02*
X520472D01*
Y337283D01*
X519717D02*
X520472D01*
X514961D02*
X515717D01*
X514961Y327284D02*
Y337283D01*
Y327284D02*
X515717D01*
X514961Y332283D02*
X520472D01*
X531000Y353000D02*
X531756D01*
Y363000D01*
X531000D02*
X531756D01*
X526244D02*
X527000D01*
X526244Y353000D02*
Y363000D01*
Y353000D02*
X527000D01*
X526244Y358000D02*
X531756D01*
X518929Y374134D02*
X519685D01*
Y384134D01*
X518929D02*
X519685D01*
X514173D02*
X514929D01*
X514173Y374134D02*
Y384134D01*
Y374134D02*
X514929D01*
X514173Y379134D02*
X519685D01*
X484646Y397126D02*
X485402D01*
X484646Y387126D02*
Y397126D01*
Y387126D02*
X485402D01*
X489402D02*
X490158D01*
Y397126D01*
X489402D02*
X490158D01*
X484646Y392126D02*
X490158D01*
X342000Y103244D02*
Y108756D01*
X347000Y103244D02*
Y104000D01*
X337000Y103244D02*
X347000D01*
X337000D02*
Y104000D01*
Y108000D02*
Y108756D01*
X347000D01*
Y108000D02*
Y108756D01*
X362276Y103425D02*
X366425D01*
X362276D02*
Y108575D01*
X366425D01*
X372709Y103425D02*
X373725Y104441D01*
X369575Y103425D02*
X372709D01*
X373725Y104441D02*
Y107362D01*
X372512Y108575D02*
X373725Y107362D01*
X369575Y108575D02*
X372512D01*
X362276Y71425D02*
X366425D01*
X362276D02*
Y76575D01*
X366425D01*
X372709Y71425D02*
X373724Y72441D01*
X369575Y71425D02*
X372709D01*
X373724Y72441D02*
Y75362D01*
X372512Y76575D02*
X373724Y75362D01*
X369575Y76575D02*
X372512D01*
X339283Y71102D02*
Y76614D01*
X344284Y71102D02*
Y71858D01*
X334283Y71102D02*
X344284D01*
X334283D02*
Y71858D01*
Y75858D02*
Y76614D01*
X344284D01*
Y75858D02*
Y76614D01*
X255244Y315000D02*
X260756D01*
X260000Y320000D02*
X260756D01*
Y310000D02*
Y320000D01*
X260000Y310000D02*
X260756D01*
X255244D02*
X256000D01*
X255244D02*
Y320000D01*
X256000D01*
X255244Y350000D02*
X260756D01*
X260000Y355000D02*
X260756D01*
Y345000D02*
Y355000D01*
X260000Y345000D02*
X260756D01*
X255244D02*
X256000D01*
X255244D02*
Y355000D01*
X256000D01*
X230244Y315000D02*
X235756D01*
X235000Y320000D02*
X235756D01*
Y310000D02*
Y320000D01*
X235000Y310000D02*
X235756D01*
X230244D02*
X231000D01*
X230244D02*
Y320000D01*
X231000D01*
X230244Y350000D02*
X235756D01*
X235000Y355000D02*
X235756D01*
Y345000D02*
Y355000D01*
X235000Y345000D02*
X235756D01*
X230244D02*
X231000D01*
X230244D02*
Y355000D01*
X231000D01*
X210244Y315000D02*
X215756D01*
X215000Y320000D02*
X215756D01*
Y310000D02*
Y320000D01*
X215000Y310000D02*
X215756D01*
X210244D02*
X211000D01*
X210244D02*
Y320000D01*
X211000D01*
X210244Y350000D02*
X215756D01*
X215000Y355000D02*
X215756D01*
Y345000D02*
Y355000D01*
X215000Y345000D02*
X215756D01*
X210244D02*
X211000D01*
X210244D02*
Y355000D01*
X211000D01*
X190244Y315000D02*
X195756D01*
X195000Y320000D02*
X195756D01*
Y310000D02*
Y320000D01*
X195000Y310000D02*
X195756D01*
X190244D02*
X191000D01*
X190244D02*
Y320000D01*
X191000D01*
X190244Y350000D02*
X195756D01*
X195000Y355000D02*
X195756D01*
Y345000D02*
Y355000D01*
X195000Y345000D02*
X195756D01*
X190244D02*
X191000D01*
X190244D02*
Y355000D01*
X191000D01*
X170244Y315000D02*
X175756D01*
X175000Y320000D02*
X175756D01*
Y310000D02*
Y320000D01*
X175000Y310000D02*
X175756D01*
X170244D02*
X171000D01*
X170244D02*
Y320000D01*
X171000D01*
X170244Y350000D02*
X175756D01*
X175000Y355000D02*
X175756D01*
Y345000D02*
Y355000D01*
X175000Y345000D02*
X175756D01*
X170244D02*
X171000D01*
X170244D02*
Y355000D01*
X171000D01*
X150244Y315000D02*
X155756D01*
X155000Y320000D02*
X155756D01*
Y310000D02*
Y320000D01*
X155000Y310000D02*
X155756D01*
X150244D02*
X151000D01*
X150244D02*
Y320000D01*
X151000D01*
X150244Y350000D02*
X155756D01*
X155000Y355000D02*
X155756D01*
Y345000D02*
Y355000D01*
X155000Y345000D02*
X155756D01*
X150244D02*
X151000D01*
X150244D02*
Y355000D01*
X151000D01*
X319244Y355000D02*
X324756D01*
X324000Y360000D02*
X324756D01*
Y350000D02*
Y360000D01*
X324000Y350000D02*
X324756D01*
X319244D02*
X320000D01*
X319244D02*
Y360000D01*
X320000D01*
X319244Y340000D02*
X324756D01*
X324000Y345000D02*
X324756D01*
Y335000D02*
Y345000D01*
X324000Y335000D02*
X324756D01*
X319244D02*
X320000D01*
X319244D02*
Y345000D01*
X320000D01*
X304244Y340000D02*
X309756D01*
X309000Y345000D02*
X309756D01*
Y335000D02*
Y345000D01*
X309000Y335000D02*
X309756D01*
X304244D02*
X305000D01*
X304244D02*
Y345000D01*
X305000D01*
X304244Y355000D02*
X309756D01*
X309000Y360000D02*
X309756D01*
Y350000D02*
Y360000D01*
X309000Y350000D02*
X309756D01*
X304244D02*
X305000D01*
X304244D02*
Y360000D01*
X305000D01*
X334244Y340000D02*
X339756D01*
X339000Y345000D02*
X339756D01*
Y335000D02*
Y345000D01*
X339000Y335000D02*
X339756D01*
X334244D02*
X335000D01*
X334244D02*
Y345000D01*
X335000D01*
X334244Y355000D02*
X339756D01*
X339000Y360000D02*
X339756D01*
Y350000D02*
Y360000D01*
X339000Y350000D02*
X339756D01*
X334244D02*
X335000D01*
X334244D02*
Y360000D01*
X335000D01*
X349244Y340000D02*
X354756D01*
X354000Y345000D02*
X354756D01*
Y335000D02*
Y345000D01*
X354000Y335000D02*
X354756D01*
X349244D02*
X350000D01*
X349244D02*
Y345000D01*
X350000D01*
X349244Y355000D02*
X354756D01*
X354000Y360000D02*
X354756D01*
Y350000D02*
Y360000D01*
X354000Y350000D02*
X354756D01*
X349244D02*
X350000D01*
X349244D02*
Y360000D01*
X350000D01*
X290244Y170000D02*
X295756D01*
X295000Y175000D02*
X295756D01*
Y165000D02*
Y175000D01*
X295000Y165000D02*
X295756D01*
X290244D02*
X291000D01*
X290244D02*
Y175000D01*
X291000D01*
X290244Y185000D02*
X295756D01*
X295000Y190000D02*
X295756D01*
Y180000D02*
Y190000D01*
X295000Y180000D02*
X295756D01*
X290244D02*
X291000D01*
X290244D02*
Y190000D01*
X291000D01*
X290244Y200000D02*
X295756D01*
X295000Y205000D02*
X295756D01*
Y195000D02*
Y205000D01*
X295000Y195000D02*
X295756D01*
X290244D02*
X291000D01*
X290244D02*
Y205000D01*
X291000D01*
X290244Y215000D02*
X295756D01*
X295000Y220000D02*
X295756D01*
Y210000D02*
Y220000D01*
X295000Y210000D02*
X295756D01*
X290244D02*
X291000D01*
X290244D02*
Y220000D01*
X291000D01*
X270000Y209244D02*
Y214756D01*
X265000Y214000D02*
Y214756D01*
X275000D01*
Y214000D02*
Y214756D01*
Y209244D02*
Y210000D01*
X265000Y209244D02*
X275000D01*
X265000D02*
Y210000D01*
X255000Y209244D02*
Y214756D01*
X250000Y214000D02*
Y214756D01*
X260000D01*
Y214000D02*
Y214756D01*
Y209244D02*
Y210000D01*
X250000Y209244D02*
X260000D01*
X250000D02*
Y210000D01*
X225000Y209244D02*
Y214756D01*
X220000Y214000D02*
Y214756D01*
X230000D01*
Y214000D02*
Y214756D01*
Y209244D02*
Y210000D01*
X220000Y209244D02*
X230000D01*
X220000D02*
Y210000D01*
X240000Y209244D02*
Y214756D01*
X235000Y214000D02*
Y214756D01*
X245000D01*
Y214000D02*
Y214756D01*
Y209244D02*
Y210000D01*
X235000Y209244D02*
X245000D01*
X235000D02*
Y210000D01*
X290244Y305000D02*
X295756D01*
X290244Y300000D02*
X291000D01*
X290244D02*
Y310000D01*
X291000D01*
X295000D02*
X295756D01*
Y300000D02*
Y310000D01*
X295000Y300000D02*
X295756D01*
X290244Y290000D02*
X295756D01*
X290244Y285000D02*
X291000D01*
X290244D02*
Y295000D01*
X291000D01*
X295000D02*
X295756D01*
Y285000D02*
Y295000D01*
X295000Y285000D02*
X295756D01*
X290244Y275000D02*
X295756D01*
X290244Y270000D02*
X291000D01*
X290244D02*
Y280000D01*
X291000D01*
X295000D02*
X295756D01*
Y270000D02*
Y280000D01*
X295000Y270000D02*
X295756D01*
X290244Y260559D02*
X295756D01*
X290244Y255559D02*
X291000D01*
X290244D02*
Y265559D01*
X291000D01*
X295000D02*
X295756D01*
Y255559D02*
Y265559D01*
X295000Y255559D02*
X295756D01*
X270000Y260244D02*
Y265756D01*
X265000Y265000D02*
Y265756D01*
X275000D01*
Y265000D02*
Y265756D01*
Y260244D02*
Y261000D01*
X265000Y260244D02*
X275000D01*
X265000D02*
Y261000D01*
X255000Y260244D02*
Y265756D01*
X250000Y265000D02*
Y265756D01*
X260000D01*
Y265000D02*
Y265756D01*
Y260244D02*
Y261000D01*
X250000Y260244D02*
X260000D01*
X250000D02*
Y261000D01*
X240000Y260244D02*
Y265756D01*
X235000Y265000D02*
Y265756D01*
X245000D01*
Y265000D02*
Y265756D01*
Y260244D02*
Y261000D01*
X235000Y260244D02*
X245000D01*
X235000D02*
Y261000D01*
X225000Y260244D02*
Y265756D01*
X220000Y265000D02*
Y265756D01*
X230000D01*
Y265000D02*
Y265756D01*
Y260244D02*
Y261000D01*
X220000Y260244D02*
X230000D01*
X220000D02*
Y261000D01*
X109244Y185000D02*
X114756D01*
X114000Y190000D02*
X114756D01*
Y180000D02*
Y190000D01*
X114000Y180000D02*
X114756D01*
X109244D02*
X110000D01*
X109244D02*
Y190000D01*
X110000D01*
X109244Y170000D02*
X114756D01*
X114000Y175000D02*
X114756D01*
Y165000D02*
Y175000D01*
X114000Y165000D02*
X114756D01*
X109244D02*
X110000D01*
X109244D02*
Y175000D01*
X110000D01*
X109244Y200000D02*
X114756D01*
X114000Y205000D02*
X114756D01*
Y195000D02*
Y205000D01*
X114000Y195000D02*
X114756D01*
X109244D02*
X110000D01*
X109244D02*
Y205000D01*
X110000D01*
X109244Y215000D02*
X114756D01*
X114000Y220000D02*
X114756D01*
Y210000D02*
Y220000D01*
X114000Y210000D02*
X114756D01*
X109244D02*
X110000D01*
X109244D02*
Y220000D01*
X110000D01*
X130000Y205244D02*
Y210756D01*
X125000Y210000D02*
Y210756D01*
X135000D01*
Y210000D02*
Y210756D01*
Y205244D02*
Y206000D01*
X125000Y205244D02*
X135000D01*
X125000D02*
Y206000D01*
X145000Y205244D02*
Y210756D01*
X140000Y210000D02*
Y210756D01*
X150000D01*
Y210000D02*
Y210756D01*
Y205244D02*
Y206000D01*
X140000Y205244D02*
X150000D01*
X140000D02*
Y206000D01*
X160000Y205244D02*
Y210756D01*
X155000Y210000D02*
Y210756D01*
X165000D01*
Y210000D02*
Y210756D01*
Y205244D02*
Y206000D01*
X155000Y205244D02*
X165000D01*
X155000D02*
Y206000D01*
X174441Y205244D02*
Y210756D01*
X169441Y210000D02*
Y210756D01*
X179441D01*
Y210000D02*
Y210756D01*
Y205244D02*
Y206000D01*
X169441Y205244D02*
X179441D01*
X169441D02*
Y206000D01*
X65441Y310244D02*
Y315756D01*
X60441Y315000D02*
Y315756D01*
X70441D01*
Y315000D02*
Y315756D01*
Y310244D02*
Y311000D01*
X60441Y310244D02*
X70441D01*
X60441D02*
Y311000D01*
X50000Y310244D02*
Y315756D01*
X45000Y315000D02*
Y315756D01*
X55000D01*
Y315000D02*
Y315756D01*
Y310244D02*
Y311000D01*
X45000Y310244D02*
X55000D01*
X45000D02*
Y311000D01*
X65441Y295244D02*
Y300756D01*
X60441Y300000D02*
Y300756D01*
X70441D01*
Y300000D02*
Y300756D01*
Y295244D02*
Y296000D01*
X60441Y295244D02*
X70441D01*
X60441D02*
Y296000D01*
X50559Y295244D02*
Y300756D01*
X45559Y300000D02*
Y300756D01*
X55559D01*
Y300000D02*
Y300756D01*
Y295244D02*
Y296000D01*
X45559Y295244D02*
X55559D01*
X45559D02*
Y296000D01*
X109244Y260559D02*
X114756D01*
X109244Y255559D02*
X110000D01*
X109244D02*
Y265559D01*
X110000D01*
X114000D02*
X114756D01*
Y255559D02*
Y265559D01*
X114000Y255559D02*
X114756D01*
X109244Y275559D02*
X114756D01*
X109244Y270559D02*
X110000D01*
X109244D02*
Y280559D01*
X110000D01*
X114000D02*
X114756D01*
Y270559D02*
Y280559D01*
X114000Y270559D02*
X114756D01*
X109244Y290441D02*
X114756D01*
X109244Y285441D02*
X110000D01*
X109244D02*
Y295441D01*
X110000D01*
X114000D02*
X114756D01*
Y285441D02*
Y295441D01*
X114000Y285441D02*
X114756D01*
X65559Y340244D02*
Y345756D01*
X60559Y345000D02*
Y345756D01*
X70559D01*
Y345000D02*
Y345756D01*
Y340244D02*
Y341000D01*
X60559Y340244D02*
X70559D01*
X60559D02*
Y341000D01*
X50000Y340244D02*
Y345756D01*
X45000Y345000D02*
Y345756D01*
X55000D01*
Y345000D02*
Y345756D01*
Y340244D02*
Y341000D01*
X45000Y340244D02*
X55000D01*
X45000D02*
Y341000D01*
X65559Y325244D02*
Y330756D01*
X60559Y330000D02*
Y330756D01*
X70559D01*
Y330000D02*
Y330756D01*
Y325244D02*
Y326000D01*
X60559Y325244D02*
X70559D01*
X60559D02*
Y326000D01*
X50000Y325244D02*
Y330756D01*
X45000Y330000D02*
Y330756D01*
X55000D01*
Y330000D02*
Y330756D01*
Y325244D02*
Y326000D01*
X45000Y325244D02*
X55000D01*
X45000D02*
Y326000D01*
X169441Y259244D02*
Y264756D01*
X164441Y264000D02*
Y264756D01*
X174441D01*
Y264000D02*
Y264756D01*
Y259244D02*
Y260000D01*
X164441Y259244D02*
X174441D01*
X164441D02*
Y260000D01*
X154441Y259244D02*
Y264756D01*
X149441Y264000D02*
Y264756D01*
X159441D01*
Y264000D02*
Y264756D01*
Y259244D02*
Y260000D01*
X149441Y259244D02*
X159441D01*
X149441D02*
Y260000D01*
X139000Y259244D02*
Y264756D01*
X134000Y264000D02*
Y264756D01*
X144000D01*
Y264000D02*
Y264756D01*
Y259244D02*
Y260000D01*
X134000Y259244D02*
X144000D01*
X134000D02*
Y260000D01*
D15*
X607937Y356535D02*
X639937D01*
X607937Y350535D02*
Y356535D01*
X589937Y350535D02*
X607937D01*
X589937Y202535D02*
Y350535D01*
Y202535D02*
X607937D01*
Y196535D02*
Y202535D01*
Y196535D02*
X639937D01*
X91000Y102000D02*
X92999D01*
X92000D01*
Y107998D01*
X91000Y106998D01*
X95998Y102000D02*
Y105999D01*
X97998Y107998D01*
X99997Y105999D01*
Y102000D01*
Y104999D01*
X95998D01*
X90000Y134000D02*
X91999D01*
X91000D01*
Y139998D01*
X90000Y138998D01*
X94998Y134000D02*
Y137999D01*
X96998Y139998D01*
X98997Y137999D01*
Y134000D01*
Y136999D01*
X94998D01*
X41624Y268936D02*
X39000D01*
Y266968D01*
X40312Y267624D01*
X40968D01*
X41624Y266968D01*
Y265656D01*
X40968Y265000D01*
X39656D01*
X39000Y265656D01*
X42936Y268936D02*
Y266312D01*
X44248Y265000D01*
X45560Y266312D01*
Y268936D01*
X41624Y225936D02*
X39000D01*
Y223968D01*
X40312Y224624D01*
X40968D01*
X41624Y223968D01*
Y222656D01*
X40968Y222000D01*
X39656D01*
X39000Y222656D01*
X42936Y225936D02*
Y223312D01*
X44248Y222000D01*
X45560Y223312D01*
Y225936D01*
X41624Y181936D02*
X39000D01*
Y179968D01*
X40312Y180624D01*
X40968D01*
X41624Y179968D01*
Y178656D01*
X40968Y178000D01*
X39656D01*
X39000Y178656D01*
X42936Y181936D02*
Y179312D01*
X44248Y178000D01*
X45560Y179312D01*
Y181936D01*
X26280Y74376D02*
X26936Y75032D01*
Y76344D01*
X26280Y77000D01*
X23656D01*
X23000Y76344D01*
Y75032D01*
X23656Y74376D01*
X24968D01*
Y75688D01*
X23000Y73064D02*
X26936D01*
X23000Y70440D01*
X26936D01*
Y69129D02*
X23000D01*
Y67161D01*
X23656Y66505D01*
X26280D01*
X26936Y67161D01*
Y69129D01*
X23000Y128376D02*
Y131000D01*
X25624Y128376D01*
X26280D01*
X26936Y129032D01*
Y130344D01*
X26280Y131000D01*
X23000Y125096D02*
X26936D01*
X24968Y127064D01*
Y124440D01*
X26936Y123128D02*
X24312D01*
X23000Y121817D01*
X24312Y120505D01*
X26936D01*
X309000Y88998D02*
X310000Y89998D01*
X311999D01*
X312999Y88998D01*
Y87999D01*
X311999Y86999D01*
X310999D01*
X311999D01*
X312999Y85999D01*
Y85000D01*
X311999Y84000D01*
X310000D01*
X309000Y85000D01*
X314998Y89998D02*
Y85999D01*
X316997Y84000D01*
X318997Y85999D01*
Y89998D01*
X320996Y88998D02*
X321996Y89998D01*
X323995D01*
X324995Y88998D01*
Y87999D01*
X323995Y86999D01*
X322995D01*
X323995D01*
X324995Y85999D01*
Y85000D01*
X323995Y84000D01*
X321996D01*
X320996Y85000D01*
X332992Y84000D02*
Y89998D01*
X335991D01*
X336991Y88998D01*
Y86999D01*
X335991Y85999D01*
X332992D01*
X339990Y84000D02*
X341989D01*
X342989Y85000D01*
Y86999D01*
X341989Y87999D01*
X339990D01*
X338990Y86999D01*
Y85000D01*
X339990Y84000D01*
X344988Y87999D02*
Y85000D01*
X345988Y84000D01*
X346988Y85000D01*
X347987Y84000D01*
X348987Y85000D01*
Y87999D01*
X353985Y84000D02*
X351986D01*
X350986Y85000D01*
Y86999D01*
X351986Y87999D01*
X353985D01*
X354985Y86999D01*
Y85999D01*
X350986D01*
X356984Y87999D02*
Y84000D01*
Y85999D01*
X357984Y86999D01*
X358984Y87999D01*
X359983D01*
X372979Y88998D02*
X371980Y89998D01*
X369980D01*
X368981Y88998D01*
Y87999D01*
X369980Y86999D01*
X371980D01*
X372979Y85999D01*
Y85000D01*
X371980Y84000D01*
X369980D01*
X368981Y85000D01*
X374979Y87999D02*
Y85000D01*
X375978Y84000D01*
X378977D01*
Y87999D01*
X380977Y82001D02*
Y87999D01*
X383976D01*
X384975Y86999D01*
Y85000D01*
X383976Y84000D01*
X380977D01*
X386975Y82001D02*
Y87999D01*
X389974D01*
X390973Y86999D01*
Y85000D01*
X389974Y84000D01*
X386975D01*
X392973D02*
X394972D01*
X393972D01*
Y89998D01*
X392973D01*
X397971Y87999D02*
Y85000D01*
X398971Y84000D01*
X401970D01*
Y83000D01*
X400970Y82001D01*
X399971D01*
X401970Y84000D02*
Y87999D01*
X312999Y118998D02*
X309000D01*
Y115999D01*
X310999Y116999D01*
X311999D01*
X312999Y115999D01*
Y114000D01*
X311999Y113000D01*
X310000D01*
X309000Y114000D01*
X314998Y118998D02*
Y114999D01*
X316997Y113000D01*
X318997Y114999D01*
Y118998D01*
X326994Y113000D02*
Y118998D01*
X329993D01*
X330993Y117998D01*
Y115999D01*
X329993Y114999D01*
X326994D01*
X333992Y113000D02*
X335991D01*
X336991Y114000D01*
Y115999D01*
X335991Y116999D01*
X333992D01*
X332992Y115999D01*
Y114000D01*
X333992Y113000D01*
X338990Y116999D02*
Y114000D01*
X339990Y113000D01*
X340990Y114000D01*
X341989Y113000D01*
X342989Y114000D01*
Y116999D01*
X347987Y113000D02*
X345988D01*
X344988Y114000D01*
Y115999D01*
X345988Y116999D01*
X347987D01*
X348987Y115999D01*
Y114999D01*
X344988D01*
X350986Y116999D02*
Y113000D01*
Y114999D01*
X351986Y115999D01*
X352986Y116999D01*
X353985D01*
X366981Y117998D02*
X365982Y118998D01*
X363982D01*
X362983Y117998D01*
Y116999D01*
X363982Y115999D01*
X365982D01*
X366981Y114999D01*
Y114000D01*
X365982Y113000D01*
X363982D01*
X362983Y114000D01*
X368981Y116999D02*
Y114000D01*
X369980Y113000D01*
X372979D01*
Y116999D01*
X374979Y111001D02*
Y116999D01*
X377978D01*
X378977Y115999D01*
Y114000D01*
X377978Y113000D01*
X374979D01*
X380977Y111001D02*
Y116999D01*
X383976D01*
X384975Y115999D01*
Y114000D01*
X383976Y113000D01*
X380977D01*
X386975D02*
X388974D01*
X387975D01*
Y118998D01*
X386975D01*
X391973Y116999D02*
Y114000D01*
X392973Y113000D01*
X395972D01*
Y112000D01*
X394972Y111001D01*
X393972D01*
X395972Y113000D02*
Y116999D01*
X556000Y24000D02*
Y29998D01*
X558999D01*
X559999Y28998D01*
Y26999D01*
X558999Y25999D01*
X556000D01*
X557999D02*
X559999Y24000D01*
X561998Y28998D02*
X562998Y29998D01*
X564997D01*
X565997Y28998D01*
Y27999D01*
X564997Y26999D01*
X565997Y25999D01*
Y25000D01*
X564997Y24000D01*
X562998D01*
X561998Y25000D01*
Y25999D01*
X562998Y26999D01*
X561998Y27999D01*
Y28998D01*
X562998Y26999D02*
X564997D01*
X571995Y29998D02*
X567996D01*
Y26999D01*
X569995Y27999D01*
X570995D01*
X571995Y26999D01*
Y25000D01*
X570995Y24000D01*
X568996D01*
X567996Y25000D01*
X601999Y28998D02*
X600999Y29998D01*
X599000D01*
X598000Y28998D01*
Y25000D01*
X599000Y24000D01*
X600999D01*
X601999Y25000D01*
X603998Y24000D02*
X605997D01*
X604998D01*
Y29998D01*
X603998Y28998D01*
X611996Y24000D02*
Y29998D01*
X608996Y26999D01*
X612995D01*
X449287Y179766D02*
Y174767D01*
X450287Y173768D01*
X452286D01*
X453286Y174767D01*
Y179766D01*
X455286Y178766D02*
X456285Y179766D01*
X458285D01*
X459284Y178766D01*
Y177766D01*
X458285Y176767D01*
X457285D01*
X458285D01*
X459284Y175767D01*
Y174767D01*
X458285Y173768D01*
X456285D01*
X455286Y174767D01*
X526000Y189000D02*
Y194998D01*
X528999D01*
X529999Y193998D01*
Y191999D01*
X528999Y190999D01*
X526000D01*
X527999D02*
X529999Y189000D01*
X531998Y193998D02*
X532998Y194998D01*
X534997D01*
X535997Y193998D01*
Y192999D01*
X534997Y191999D01*
X535997Y190999D01*
Y190000D01*
X534997Y189000D01*
X532998D01*
X531998Y190000D01*
Y190999D01*
X532998Y191999D01*
X531998Y192999D01*
Y193998D01*
X532998Y191999D02*
X534997D01*
X540995Y189000D02*
Y194998D01*
X537996Y191999D01*
X541995D01*
X526000Y198000D02*
Y203998D01*
X528999D01*
X529999Y202998D01*
Y200999D01*
X528999Y199999D01*
X526000D01*
X527999D02*
X529999Y198000D01*
X531998Y202998D02*
X532998Y203998D01*
X534997D01*
X535997Y202998D01*
Y201999D01*
X534997Y200999D01*
X535997Y199999D01*
Y199000D01*
X534997Y198000D01*
X532998D01*
X531998Y199000D01*
Y199999D01*
X532998Y200999D01*
X531998Y201999D01*
Y202998D01*
X532998Y200999D02*
X534997D01*
X537996Y202998D02*
X538996Y203998D01*
X540995D01*
X541995Y202998D01*
Y201999D01*
X540995Y200999D01*
X539995D01*
X540995D01*
X541995Y199999D01*
Y199000D01*
X540995Y198000D01*
X538996D01*
X537996Y199000D01*
X526000Y172000D02*
Y177998D01*
X528999D01*
X529999Y176998D01*
Y174999D01*
X528999Y173999D01*
X526000D01*
X527999D02*
X529999Y172000D01*
X531998Y176998D02*
X532998Y177998D01*
X534997D01*
X535997Y176998D01*
Y175999D01*
X534997Y174999D01*
X535997Y173999D01*
Y173000D01*
X534997Y172000D01*
X532998D01*
X531998Y173000D01*
Y173999D01*
X532998Y174999D01*
X531998Y175999D01*
Y176998D01*
X532998Y174999D02*
X534997D01*
X541995Y172000D02*
X537996D01*
X541995Y175999D01*
Y176998D01*
X540995Y177998D01*
X538996D01*
X537996Y176998D01*
X526000Y181000D02*
Y186998D01*
X528999D01*
X529999Y185998D01*
Y183999D01*
X528999Y182999D01*
X526000D01*
X527999D02*
X529999Y181000D01*
X531998Y185998D02*
X532998Y186998D01*
X534997D01*
X535997Y185998D01*
Y184999D01*
X534997Y183999D01*
X535997Y182999D01*
Y182000D01*
X534997Y181000D01*
X532998D01*
X531998Y182000D01*
Y182999D01*
X532998Y183999D01*
X531998Y184999D01*
Y185998D01*
X532998Y183999D02*
X534997D01*
X537996Y181000D02*
X539995D01*
X538996D01*
Y186998D01*
X537996Y185998D01*
X534000Y319000D02*
Y324998D01*
X536999D01*
X537999Y323998D01*
Y321999D01*
X536999Y320999D01*
X534000D01*
X535999D02*
X537999Y319000D01*
X539998Y323998D02*
X540998Y324998D01*
X542997D01*
X543997Y323998D01*
Y322999D01*
X542997Y321999D01*
X543997Y320999D01*
Y320000D01*
X542997Y319000D01*
X540998D01*
X539998Y320000D01*
Y320999D01*
X540998Y321999D01*
X539998Y322999D01*
Y323998D01*
X540998Y321999D02*
X542997D01*
X545996Y323998D02*
X546996Y324998D01*
X548995D01*
X549995Y323998D01*
Y320000D01*
X548995Y319000D01*
X546996D01*
X545996Y320000D01*
Y323998D01*
X523000Y308000D02*
Y313998D01*
X525999D01*
X526999Y312998D01*
Y310999D01*
X525999Y309999D01*
X523000D01*
X524999D02*
X526999Y308000D01*
X528998Y313998D02*
X532997D01*
Y312998D01*
X528998Y309000D01*
Y308000D01*
X534996Y309000D02*
X535996Y308000D01*
X537995D01*
X538995Y309000D01*
Y312998D01*
X537995Y313998D01*
X535996D01*
X534996Y312998D01*
Y311999D01*
X535996Y310999D01*
X538995D01*
X526000Y215000D02*
Y220998D01*
X528999D01*
X529999Y219998D01*
Y217999D01*
X528999Y216999D01*
X526000D01*
X527999D02*
X529999Y215000D01*
X531998Y220998D02*
X535997D01*
Y219998D01*
X531998Y216000D01*
Y215000D01*
X537996Y219998D02*
X538996Y220998D01*
X540995D01*
X541995Y219998D01*
Y218999D01*
X540995Y217999D01*
X541995Y216999D01*
Y216000D01*
X540995Y215000D01*
X538996D01*
X537996Y216000D01*
Y216999D01*
X538996Y217999D01*
X537996Y218999D01*
Y219998D01*
X538996Y217999D02*
X540995D01*
X526000Y206000D02*
Y211998D01*
X528999D01*
X529999Y210998D01*
Y208999D01*
X528999Y207999D01*
X526000D01*
X527999D02*
X529999Y206000D01*
X531998Y211998D02*
X535997D01*
Y210998D01*
X531998Y207000D01*
Y206000D01*
X537996Y211998D02*
X541995D01*
Y210998D01*
X537996Y207000D01*
Y206000D01*
X526000Y223000D02*
Y228998D01*
X528999D01*
X529999Y227998D01*
Y225999D01*
X528999Y224999D01*
X526000D01*
X527999D02*
X529999Y223000D01*
X531998Y228998D02*
X535997D01*
Y227998D01*
X531998Y224000D01*
Y223000D01*
X541995Y228998D02*
X539995Y227998D01*
X537996Y225999D01*
Y224000D01*
X538996Y223000D01*
X540995D01*
X541995Y224000D01*
Y224999D01*
X540995Y225999D01*
X537996D01*
X526000Y155000D02*
Y160998D01*
X528999D01*
X529999Y159998D01*
Y157999D01*
X528999Y156999D01*
X526000D01*
X527999D02*
X529999Y155000D01*
X531998Y160998D02*
X535997D01*
Y159998D01*
X531998Y156000D01*
Y155000D01*
X541995Y160998D02*
X537996D01*
Y157999D01*
X539995Y158999D01*
X540995D01*
X541995Y157999D01*
Y156000D01*
X540995Y155000D01*
X538996D01*
X537996Y156000D01*
X526000Y231000D02*
Y236998D01*
X528999D01*
X529999Y235998D01*
Y233999D01*
X528999Y232999D01*
X526000D01*
X527999D02*
X529999Y231000D01*
X531998Y236998D02*
X535997D01*
Y235998D01*
X531998Y232000D01*
Y231000D01*
X540995D02*
Y236998D01*
X537996Y233999D01*
X541995D01*
X526000Y163000D02*
Y168998D01*
X528999D01*
X529999Y167998D01*
Y165999D01*
X528999Y164999D01*
X526000D01*
X527999D02*
X529999Y163000D01*
X531998Y168998D02*
X535997D01*
Y167998D01*
X531998Y164000D01*
Y163000D01*
X537996Y167998D02*
X538996Y168998D01*
X540995D01*
X541995Y167998D01*
Y166999D01*
X540995Y165999D01*
X539995D01*
X540995D01*
X541995Y164999D01*
Y164000D01*
X540995Y163000D01*
X538996D01*
X537996Y164000D01*
X526000Y239000D02*
Y244998D01*
X528999D01*
X529999Y243998D01*
Y241999D01*
X528999Y240999D01*
X526000D01*
X527999D02*
X529999Y239000D01*
X531998Y244998D02*
X535997D01*
Y243998D01*
X531998Y240000D01*
Y239000D01*
X541995D02*
X537996D01*
X541995Y242999D01*
Y243998D01*
X540995Y244998D01*
X538996D01*
X537996Y243998D01*
X526000Y147000D02*
Y152998D01*
X528999D01*
X529999Y151998D01*
Y149999D01*
X528999Y148999D01*
X526000D01*
X527999D02*
X529999Y147000D01*
X531998Y152998D02*
X535997D01*
Y151998D01*
X531998Y148000D01*
Y147000D01*
X537996D02*
X539995D01*
X538996D01*
Y152998D01*
X537996Y151998D01*
X526000Y248000D02*
Y253998D01*
X528999D01*
X529999Y252998D01*
Y250999D01*
X528999Y249999D01*
X526000D01*
X527999D02*
X529999Y248000D01*
X531998Y253998D02*
X535997D01*
Y252998D01*
X531998Y249000D01*
Y248000D01*
X537996Y252998D02*
X538996Y253998D01*
X540995D01*
X541995Y252998D01*
Y249000D01*
X540995Y248000D01*
X538996D01*
X537996Y249000D01*
Y252998D01*
X526000Y138000D02*
Y143998D01*
X528999D01*
X529999Y142998D01*
Y140999D01*
X528999Y139999D01*
X526000D01*
X527999D02*
X529999Y138000D01*
X535997Y143998D02*
X533997Y142998D01*
X531998Y140999D01*
Y139000D01*
X532998Y138000D01*
X534997D01*
X535997Y139000D01*
Y139999D01*
X534997Y140999D01*
X531998D01*
X537996Y139000D02*
X538996Y138000D01*
X540995D01*
X541995Y139000D01*
Y142998D01*
X540995Y143998D01*
X538996D01*
X537996Y142998D01*
Y141999D01*
X538996Y140999D01*
X541995D01*
X526000Y256000D02*
Y261998D01*
X528999D01*
X529999Y260998D01*
Y258999D01*
X528999Y257999D01*
X526000D01*
X527999D02*
X529999Y256000D01*
X535997Y261998D02*
X533997Y260998D01*
X531998Y258999D01*
Y257000D01*
X532998Y256000D01*
X534997D01*
X535997Y257000D01*
Y257999D01*
X534997Y258999D01*
X531998D01*
X537996Y260998D02*
X538996Y261998D01*
X540995D01*
X541995Y260998D01*
Y259999D01*
X540995Y258999D01*
X541995Y257999D01*
Y257000D01*
X540995Y256000D01*
X538996D01*
X537996Y257000D01*
Y257999D01*
X538996Y258999D01*
X537996Y259999D01*
Y260998D01*
X538996Y258999D02*
X540995D01*
X526000Y265000D02*
Y270998D01*
X528999D01*
X529999Y269998D01*
Y267999D01*
X528999Y266999D01*
X526000D01*
X527999D02*
X529999Y265000D01*
X535997Y270998D02*
X533997Y269998D01*
X531998Y267999D01*
Y266000D01*
X532998Y265000D01*
X534997D01*
X535997Y266000D01*
Y266999D01*
X534997Y267999D01*
X531998D01*
X537996Y270998D02*
X541995D01*
Y269998D01*
X537996Y266000D01*
Y265000D01*
X405000Y40998D02*
X408999Y35000D01*
Y40998D02*
X405000Y35000D01*
X410998D02*
X412997D01*
X411998D01*
Y40998D01*
X410998Y39998D01*
X415996D02*
X416996Y40998D01*
X418996D01*
X419995Y39998D01*
Y36000D01*
X418996Y35000D01*
X416996D01*
X415996Y36000D01*
Y39998D01*
X410000Y52998D02*
X413999Y47000D01*
Y52998D02*
X410000Y47000D01*
X415998Y48000D02*
X416998Y47000D01*
X418997D01*
X419997Y48000D01*
Y51998D01*
X418997Y52998D01*
X416998D01*
X415998Y51998D01*
Y50999D01*
X416998Y49999D01*
X419997D01*
X534905Y354850D02*
Y360848D01*
X537905D01*
X538904Y359849D01*
Y357849D01*
X537905Y356850D01*
X534905D01*
X536905D02*
X538904Y354850D01*
X544902Y360848D02*
X542903Y359849D01*
X540904Y357849D01*
Y355850D01*
X541903Y354850D01*
X543903D01*
X544902Y355850D01*
Y356850D01*
X543903Y357849D01*
X540904D01*
X546902Y359849D02*
X547901Y360848D01*
X549901D01*
X550900Y359849D01*
Y358849D01*
X549901Y357849D01*
X548901D01*
X549901D01*
X550900Y356850D01*
Y355850D01*
X549901Y354850D01*
X547901D01*
X546902Y355850D01*
X522835Y329134D02*
Y335132D01*
X525834D01*
X526833Y334132D01*
Y332133D01*
X525834Y331133D01*
X522835D01*
X524834D02*
X526833Y329134D01*
X532831Y335132D02*
X530832Y334132D01*
X528833Y332133D01*
Y330134D01*
X529832Y329134D01*
X531832D01*
X532831Y330134D01*
Y331133D01*
X531832Y332133D01*
X528833D01*
X534831Y329134D02*
X536830D01*
X535830D01*
Y335132D01*
X534831Y334132D01*
X495669Y375984D02*
Y381982D01*
X498668D01*
X499668Y380983D01*
Y378983D01*
X498668Y377984D01*
X495669D01*
X497669D02*
X499668Y375984D01*
X505666Y381982D02*
X503667Y380983D01*
X501667Y378983D01*
Y376984D01*
X502667Y375984D01*
X504666D01*
X505666Y376984D01*
Y377984D01*
X504666Y378983D01*
X501667D01*
X511664Y381982D02*
X507665D01*
Y378983D01*
X509665Y379983D01*
X510664D01*
X511664Y378983D01*
Y376984D01*
X510664Y375984D01*
X508665D01*
X507665Y376984D01*
X466535Y388976D02*
Y394974D01*
X469534D01*
X470534Y393975D01*
Y391975D01*
X469534Y390976D01*
X466535D01*
X468535D02*
X470534Y388976D01*
X476532Y394974D02*
X474533Y393975D01*
X472534Y391975D01*
Y389976D01*
X473533Y388976D01*
X475532D01*
X476532Y389976D01*
Y390976D01*
X475532Y391975D01*
X472534D01*
X482530Y394974D02*
X480531Y393975D01*
X478532Y391975D01*
Y389976D01*
X479531Y388976D01*
X481531D01*
X482530Y389976D01*
Y390976D01*
X481531Y391975D01*
X478532D01*
X523622Y275590D02*
Y281589D01*
X526621D01*
X527621Y280589D01*
Y278590D01*
X526621Y277590D01*
X523622D01*
X525621D02*
X527621Y275590D01*
X533619Y281589D02*
X531620Y280589D01*
X529620Y278590D01*
Y276590D01*
X530620Y275590D01*
X532619D01*
X533619Y276590D01*
Y277590D01*
X532619Y278590D01*
X529620D01*
X538617Y275590D02*
Y281589D01*
X535618Y278590D01*
X539617D01*
X534905Y296850D02*
Y302849D01*
X537905D01*
X538904Y301849D01*
Y299849D01*
X537905Y298850D01*
X534905D01*
X536905D02*
X538904Y296850D01*
X544902Y302849D02*
X542903Y301849D01*
X540904Y299849D01*
Y297850D01*
X541903Y296850D01*
X543903D01*
X544902Y297850D01*
Y298850D01*
X543903Y299849D01*
X540904D01*
X550900Y296850D02*
X546902D01*
X550900Y300849D01*
Y301849D01*
X549901Y302849D01*
X547901D01*
X546902Y301849D01*
X173800Y143298D02*
Y138300D01*
X174800Y137300D01*
X176799D01*
X177799Y138300D01*
Y143298D01*
X179798Y137300D02*
X181797D01*
X180798D01*
Y143298D01*
X179798Y142298D01*
X334150Y94669D02*
Y100667D01*
X337149D01*
X338148Y99668D01*
Y97668D01*
X337149Y96669D01*
X334150D01*
X336149D02*
X338148Y94669D01*
X344146Y100667D02*
X342147Y99668D01*
X340148Y97668D01*
Y95669D01*
X341147Y94669D01*
X343147D01*
X344146Y95669D01*
Y96669D01*
X343147Y97668D01*
X340148D01*
X346146Y99668D02*
X347145Y100667D01*
X349145D01*
X350144Y99668D01*
Y95669D01*
X349145Y94669D01*
X347145D01*
X346146Y95669D01*
Y99668D01*
X263999Y103998D02*
X262999Y104998D01*
X261000D01*
X260000Y103998D01*
Y100000D01*
X261000Y99000D01*
X262999D01*
X263999Y100000D01*
X265998Y103998D02*
X266998Y104998D01*
X268997D01*
X269997Y103998D01*
Y102999D01*
X268997Y101999D01*
X267997D01*
X268997D01*
X269997Y100999D01*
Y100000D01*
X268997Y99000D01*
X266998D01*
X265998Y100000D01*
X217385Y104998D02*
X216385Y105998D01*
X214386D01*
X213386Y104998D01*
Y101000D01*
X214386Y100000D01*
X216385D01*
X217385Y101000D01*
X223383Y100000D02*
X219384D01*
X223383Y103999D01*
Y104998D01*
X222383Y105998D01*
X220384D01*
X219384Y104998D01*
X137799Y119798D02*
X136799Y120798D01*
X134800D01*
X133800Y119798D01*
Y115800D01*
X134800Y114800D01*
X136799D01*
X137799Y115800D01*
X139798Y114800D02*
X141797D01*
X140798D01*
Y120798D01*
X139798Y119798D01*
X589295Y366042D02*
X593294Y360044D01*
Y366042D02*
X589295Y360044D01*
X595293Y365042D02*
X596293Y366042D01*
X598292D01*
X599292Y365042D01*
Y364043D01*
X598292Y363043D01*
X599292Y362043D01*
Y361044D01*
X598292Y360044D01*
X596293D01*
X595293Y361044D01*
Y362043D01*
X596293Y363043D01*
X595293Y364043D01*
Y365042D01*
X596293Y363043D02*
X598292D01*
X3543Y385132D02*
X7542Y379134D01*
Y385132D02*
X3543Y379134D01*
X9541Y385132D02*
X13540D01*
Y384132D01*
X9541Y380134D01*
Y379134D01*
X40551Y203636D02*
X44550Y197638D01*
Y203636D02*
X40551Y197638D01*
X50548Y203636D02*
X48549Y202636D01*
X46549Y200637D01*
Y198637D01*
X47549Y197638D01*
X49548D01*
X50548Y198637D01*
Y199637D01*
X49548Y200637D01*
X46549D01*
X40551Y247730D02*
X44550Y241732D01*
Y247730D02*
X40551Y241732D01*
X50548Y247730D02*
X46549D01*
Y244731D01*
X48549Y245731D01*
X49548D01*
X50548Y244731D01*
Y242732D01*
X49548Y241732D01*
X47549D01*
X46549Y242732D01*
X40157Y291825D02*
X44156Y285827D01*
Y291825D02*
X40157Y285827D01*
X49155D02*
Y291825D01*
X46156Y288826D01*
X50154D01*
X268110Y362297D02*
X272109Y356299D01*
Y362297D02*
X268110Y356299D01*
X274108Y361298D02*
X275108Y362297D01*
X277107D01*
X278107Y361298D01*
Y360298D01*
X277107Y359298D01*
X276108D01*
X277107D01*
X278107Y358299D01*
Y357299D01*
X277107Y356299D01*
X275108D01*
X274108Y357299D01*
X157874Y362297D02*
X161873Y356299D01*
Y362297D02*
X157874Y356299D01*
X167871D02*
X163872D01*
X167871Y360298D01*
Y361298D01*
X166871Y362297D01*
X164872D01*
X163872Y361298D01*
X49213Y362297D02*
X53211Y356299D01*
Y362297D02*
X49213Y356299D01*
X55211D02*
X57210D01*
X56210D01*
Y362297D01*
X55211Y361298D01*
X452000Y304998D02*
Y300000D01*
X453000Y299000D01*
X454999D01*
X455999Y300000D01*
Y304998D01*
X461997D02*
X457998D01*
Y301999D01*
X459997Y302999D01*
X460997D01*
X461997Y301999D01*
Y300000D01*
X460997Y299000D01*
X458998D01*
X457998Y300000D01*
X450000Y358998D02*
Y354000D01*
X451000Y353000D01*
X452999D01*
X453999Y354000D01*
Y358998D01*
X458997Y353000D02*
Y358998D01*
X455998Y355999D01*
X459997D01*
X449000Y243998D02*
Y239000D01*
X450000Y238000D01*
X451999D01*
X452999Y239000D01*
Y243998D01*
X458997Y238000D02*
X454998D01*
X458997Y241999D01*
Y242998D01*
X457997Y243998D01*
X455998D01*
X454998Y242998D01*
X298000Y167000D02*
Y172998D01*
X300999D01*
X301999Y171998D01*
Y169999D01*
X300999Y168999D01*
X298000D01*
X299999D02*
X301999Y167000D01*
X307997Y172998D02*
X303998D01*
Y169999D01*
X305997Y170999D01*
X306997D01*
X307997Y169999D01*
Y168000D01*
X306997Y167000D01*
X304998D01*
X303998Y168000D01*
X309996D02*
X310996Y167000D01*
X312995D01*
X313995Y168000D01*
Y171998D01*
X312995Y172998D01*
X310996D01*
X309996Y171998D01*
Y170999D01*
X310996Y169999D01*
X313995D01*
X90000Y167000D02*
Y172998D01*
X92999D01*
X93999Y171998D01*
Y169999D01*
X92999Y168999D01*
X90000D01*
X91999D02*
X93999Y167000D01*
X99997Y172998D02*
X95998D01*
Y169999D01*
X97997Y170999D01*
X98997D01*
X99997Y169999D01*
Y168000D01*
X98997Y167000D01*
X96998D01*
X95998Y168000D01*
X101996Y171998D02*
X102996Y172998D01*
X104995D01*
X105995Y171998D01*
Y170999D01*
X104995Y169999D01*
X105995Y168999D01*
Y168000D01*
X104995Y167000D01*
X102996D01*
X101996Y168000D01*
Y168999D01*
X102996Y169999D01*
X101996Y170999D01*
Y171998D01*
X102996Y169999D02*
X104995D01*
X267000Y207000D02*
X272998D01*
Y204001D01*
X271998Y203001D01*
X269999D01*
X268999Y204001D01*
Y207000D01*
Y205001D02*
X267000Y203001D01*
X272998Y197003D02*
Y201002D01*
X269999D01*
X270999Y199003D01*
Y198003D01*
X269999Y197003D01*
X268000D01*
X267000Y198003D01*
Y200002D01*
X268000Y201002D01*
X272998Y195004D02*
Y191005D01*
X271998D01*
X268000Y195004D01*
X267000D01*
X252000Y207000D02*
X257998D01*
Y204001D01*
X256998Y203001D01*
X254999D01*
X253999Y204001D01*
Y207000D01*
Y205001D02*
X252000Y203001D01*
X257998Y197003D02*
Y201002D01*
X254999D01*
X255999Y199003D01*
Y198003D01*
X254999Y197003D01*
X253000D01*
X252000Y198003D01*
Y200002D01*
X253000Y201002D01*
X257998Y191005D02*
X256998Y193005D01*
X254999Y195004D01*
X253000D01*
X252000Y194004D01*
Y192005D01*
X253000Y191005D01*
X253999D01*
X254999Y192005D01*
Y195004D01*
X237000Y207000D02*
X242998D01*
Y204001D01*
X241998Y203001D01*
X239999D01*
X238999Y204001D01*
Y207000D01*
Y205001D02*
X237000Y203001D01*
X242998Y197003D02*
Y201002D01*
X239999D01*
X240999Y199003D01*
Y198003D01*
X239999Y197003D01*
X238000D01*
X237000Y198003D01*
Y200002D01*
X238000Y201002D01*
X242998Y191005D02*
Y195004D01*
X239999D01*
X240999Y193005D01*
Y192005D01*
X239999Y191005D01*
X238000D01*
X237000Y192005D01*
Y194004D01*
X238000Y195004D01*
X222000Y207000D02*
X227998D01*
Y204001D01*
X226998Y203001D01*
X224999D01*
X223999Y204001D01*
Y207000D01*
Y205001D02*
X222000Y203001D01*
X227998Y197003D02*
Y201002D01*
X224999D01*
X225999Y199003D01*
Y198003D01*
X224999Y197003D01*
X223000D01*
X222000Y198003D01*
Y200002D01*
X223000Y201002D01*
X222000Y192005D02*
X227998D01*
X224999Y195004D01*
Y191005D01*
X298000Y182000D02*
Y187998D01*
X300999D01*
X301999Y186998D01*
Y184999D01*
X300999Y183999D01*
X298000D01*
X299999D02*
X301999Y182000D01*
X307997Y187998D02*
X303998D01*
Y184999D01*
X305997Y185999D01*
X306997D01*
X307997Y184999D01*
Y183000D01*
X306997Y182000D01*
X304998D01*
X303998Y183000D01*
X309996Y186998D02*
X310996Y187998D01*
X312995D01*
X313995Y186998D01*
Y185999D01*
X312995Y184999D01*
X311996D01*
X312995D01*
X313995Y183999D01*
Y183000D01*
X312995Y182000D01*
X310996D01*
X309996Y183000D01*
X90000Y182000D02*
Y187998D01*
X92999D01*
X93999Y186998D01*
Y184999D01*
X92999Y183999D01*
X90000D01*
X91999D02*
X93999Y182000D01*
X99997Y187998D02*
X95998D01*
Y184999D01*
X97997Y185999D01*
X98997D01*
X99997Y184999D01*
Y183000D01*
X98997Y182000D01*
X96998D01*
X95998Y183000D01*
X105995Y182000D02*
X101996D01*
X105995Y185999D01*
Y186998D01*
X104995Y187998D01*
X102996D01*
X101996Y186998D01*
X172441Y203000D02*
X178439D01*
Y200001D01*
X177439Y199001D01*
X175440D01*
X174440Y200001D01*
Y203000D01*
Y201001D02*
X172441Y199001D01*
X178439Y193003D02*
Y197002D01*
X175440D01*
X176440Y195003D01*
Y194003D01*
X175440Y193003D01*
X173441D01*
X172441Y194003D01*
Y196002D01*
X173441Y197002D01*
X172441Y191004D02*
Y189005D01*
Y190004D01*
X178439D01*
X177439Y191004D01*
X159000Y203000D02*
X164998D01*
Y200001D01*
X163998Y199001D01*
X161999D01*
X160999Y200001D01*
Y203000D01*
Y201001D02*
X159000Y199001D01*
X164998Y193003D02*
Y197002D01*
X161999D01*
X162999Y195003D01*
Y194003D01*
X161999Y193003D01*
X160000D01*
X159000Y194003D01*
Y196002D01*
X160000Y197002D01*
X163998Y191004D02*
X164998Y190004D01*
Y188005D01*
X163998Y187005D01*
X160000D01*
X159000Y188005D01*
Y190004D01*
X160000Y191004D01*
X163998D01*
X143000Y203000D02*
X148998D01*
Y200001D01*
X147998Y199001D01*
X145999D01*
X144999Y200001D01*
Y203000D01*
Y201001D02*
X143000Y199001D01*
Y194003D02*
X148998D01*
X145999Y197002D01*
Y193003D01*
X144000Y191004D02*
X143000Y190004D01*
Y188005D01*
X144000Y187005D01*
X147998D01*
X148998Y188005D01*
Y190004D01*
X147998Y191004D01*
X146999D01*
X145999Y190004D01*
Y187005D01*
X127000Y203000D02*
X132998D01*
Y200001D01*
X131998Y199001D01*
X129999D01*
X128999Y200001D01*
Y203000D01*
Y201001D02*
X127000Y199001D01*
Y194003D02*
X132998D01*
X129999Y197002D01*
Y193003D01*
X131998Y191004D02*
X132998Y190004D01*
Y188005D01*
X131998Y187005D01*
X130999D01*
X129999Y188005D01*
X128999Y187005D01*
X128000D01*
X127000Y188005D01*
Y190004D01*
X128000Y191004D01*
X128999D01*
X129999Y190004D01*
X130999Y191004D01*
X131998D01*
X129999Y190004D02*
Y188005D01*
X298000Y198000D02*
Y203998D01*
X300999D01*
X301999Y202998D01*
Y200999D01*
X300999Y199999D01*
X298000D01*
X299999D02*
X301999Y198000D01*
X306997D02*
Y203998D01*
X303998Y200999D01*
X307997D01*
X309996Y203998D02*
X313995D01*
Y202998D01*
X309996Y199000D01*
Y198000D01*
X91000Y196000D02*
Y201998D01*
X93999D01*
X94999Y200998D01*
Y198999D01*
X93999Y197999D01*
X91000D01*
X92999D02*
X94999Y196000D01*
X99997D02*
Y201998D01*
X96998Y198999D01*
X100997D01*
X106995Y201998D02*
X104996Y200998D01*
X102996Y198999D01*
Y197000D01*
X103996Y196000D01*
X105995D01*
X106995Y197000D01*
Y197999D01*
X105995Y198999D01*
X102996D01*
X298000Y212000D02*
Y217998D01*
X300999D01*
X301999Y216998D01*
Y214999D01*
X300999Y213999D01*
X298000D01*
X299999D02*
X301999Y212000D01*
X306997D02*
Y217998D01*
X303998Y214999D01*
X307997D01*
X313995Y217998D02*
X309996D01*
Y214999D01*
X311996Y215999D01*
X312995D01*
X313995Y214999D01*
Y213000D01*
X312995Y212000D01*
X310996D01*
X309996Y213000D01*
X117323Y212992D02*
Y218990D01*
X120322D01*
X121321Y217990D01*
Y215991D01*
X120322Y214991D01*
X117323D01*
X119322D02*
X121321Y212992D01*
X126320D02*
Y218990D01*
X123321Y215991D01*
X127320D01*
X132318Y212992D02*
Y218990D01*
X129319Y215991D01*
X133318D01*
X116606Y258559D02*
Y264557D01*
X119605D01*
X120605Y263557D01*
Y261558D01*
X119605Y260558D01*
X116606D01*
X118606D02*
X120605Y258559D01*
X125603D02*
Y264557D01*
X122604Y261558D01*
X126603D01*
X128602Y263557D02*
X129602Y264557D01*
X131601D01*
X132601Y263557D01*
Y262558D01*
X131601Y261558D01*
X130602D01*
X131601D01*
X132601Y260558D01*
Y259559D01*
X131601Y258559D01*
X129602D01*
X128602Y259559D01*
X298000Y257000D02*
Y262998D01*
X300999D01*
X301999Y261998D01*
Y259999D01*
X300999Y258999D01*
X298000D01*
X299999D02*
X301999Y257000D01*
X306997D02*
Y262998D01*
X303998Y259999D01*
X307997D01*
X313995Y257000D02*
X309996D01*
X313995Y260999D01*
Y261998D01*
X312995Y262998D01*
X310996D01*
X309996Y261998D01*
X93000Y273000D02*
Y278998D01*
X95999D01*
X96999Y277998D01*
Y275999D01*
X95999Y274999D01*
X93000D01*
X94999D02*
X96999Y273000D01*
X101997D02*
Y278998D01*
X98998Y275999D01*
X102997D01*
X104996Y273000D02*
X106995D01*
X105996D01*
Y278998D01*
X104996Y277998D01*
X298000Y272000D02*
Y277998D01*
X300999D01*
X301999Y276998D01*
Y274999D01*
X300999Y273999D01*
X298000D01*
X299999D02*
X301999Y272000D01*
X306997D02*
Y277998D01*
X303998Y274999D01*
X307997D01*
X309996Y276998D02*
X310996Y277998D01*
X312995D01*
X313995Y276998D01*
Y273000D01*
X312995Y272000D01*
X310996D01*
X309996Y273000D01*
Y276998D01*
X362992Y327165D02*
X356994D01*
Y330164D01*
X357994Y331164D01*
X359993D01*
X360993Y330164D01*
Y327165D01*
Y329165D02*
X362992Y331164D01*
X357994Y333163D02*
X356994Y334163D01*
Y336162D01*
X357994Y337162D01*
X358993D01*
X359993Y336162D01*
Y335163D01*
Y336162D01*
X360993Y337162D01*
X361993D01*
X362992Y336162D01*
Y334163D01*
X361993Y333163D01*
Y339161D02*
X362992Y340161D01*
Y342161D01*
X361993Y343160D01*
X357994D01*
X356994Y342161D01*
Y340161D01*
X357994Y339161D01*
X358993D01*
X359993Y340161D01*
Y343160D01*
X362598Y346457D02*
X356600D01*
Y349456D01*
X357600Y350455D01*
X359599D01*
X360599Y349456D01*
Y346457D01*
Y348456D02*
X362598Y350455D01*
X357600Y352455D02*
X356600Y353454D01*
Y355454D01*
X357600Y356453D01*
X358600D01*
X359599Y355454D01*
Y354454D01*
Y355454D01*
X360599Y356453D01*
X361599D01*
X362598Y355454D01*
Y353454D01*
X361599Y352455D01*
X357600Y358453D02*
X356600Y359453D01*
Y361452D01*
X357600Y362452D01*
X358600D01*
X359599Y361452D01*
X360599Y362452D01*
X361599D01*
X362598Y361452D01*
Y359453D01*
X361599Y358453D01*
X360599D01*
X359599Y359453D01*
X358600Y358453D01*
X357600D01*
X359599Y359453D02*
Y361452D01*
X347638Y327165D02*
X341640D01*
Y330164D01*
X342639Y331164D01*
X344639D01*
X345638Y330164D01*
Y327165D01*
Y329165D02*
X347638Y331164D01*
X342639Y333163D02*
X341640Y334163D01*
Y336162D01*
X342639Y337162D01*
X343639D01*
X344639Y336162D01*
Y335163D01*
Y336162D01*
X345638Y337162D01*
X346638D01*
X347638Y336162D01*
Y334163D01*
X346638Y333163D01*
X341640Y339161D02*
Y343160D01*
X342639D01*
X346638Y339161D01*
X347638D01*
X347244Y346457D02*
X341246D01*
Y349456D01*
X342246Y350455D01*
X344245D01*
X345245Y349456D01*
Y346457D01*
Y348456D02*
X347244Y350455D01*
X342246Y352455D02*
X341246Y353454D01*
Y355454D01*
X342246Y356453D01*
X343245D01*
X344245Y355454D01*
Y354454D01*
Y355454D01*
X345245Y356453D01*
X346244D01*
X347244Y355454D01*
Y353454D01*
X346244Y352455D01*
X341246Y362452D02*
X342246Y360452D01*
X344245Y358453D01*
X346244D01*
X347244Y359453D01*
Y361452D01*
X346244Y362452D01*
X345245D01*
X344245Y361452D01*
Y358453D01*
X317323Y327165D02*
X311325D01*
Y330164D01*
X312324Y331164D01*
X314324D01*
X315323Y330164D01*
Y327165D01*
Y329165D02*
X317323Y331164D01*
X312324Y333163D02*
X311325Y334163D01*
Y336162D01*
X312324Y337162D01*
X313324D01*
X314324Y336162D01*
Y335163D01*
Y336162D01*
X315323Y337162D01*
X316323D01*
X317323Y336162D01*
Y334163D01*
X316323Y333163D01*
X311325Y343160D02*
Y339161D01*
X314324D01*
X313324Y341161D01*
Y342161D01*
X314324Y343160D01*
X316323D01*
X317323Y342161D01*
Y340161D01*
X316323Y339161D01*
X317323Y346850D02*
X311325D01*
Y349849D01*
X312324Y350849D01*
X314324D01*
X315323Y349849D01*
Y346850D01*
Y348850D02*
X317323Y350849D01*
X312324Y352849D02*
X311325Y353848D01*
Y355848D01*
X312324Y356847D01*
X313324D01*
X314324Y355848D01*
Y354848D01*
Y355848D01*
X315323Y356847D01*
X316323D01*
X317323Y355848D01*
Y353848D01*
X316323Y352849D01*
X317323Y361845D02*
X311325D01*
X314324Y358846D01*
Y362845D01*
X332283Y327165D02*
X326285D01*
Y330164D01*
X327285Y331164D01*
X329284D01*
X330284Y330164D01*
Y327165D01*
Y329165D02*
X332283Y331164D01*
X327285Y333163D02*
X326285Y334163D01*
Y336162D01*
X327285Y337162D01*
X328285D01*
X329284Y336162D01*
Y335163D01*
Y336162D01*
X330284Y337162D01*
X331284D01*
X332283Y336162D01*
Y334163D01*
X331284Y333163D01*
X327285Y339161D02*
X326285Y340161D01*
Y342161D01*
X327285Y343160D01*
X328285D01*
X329284Y342161D01*
Y341161D01*
Y342161D01*
X330284Y343160D01*
X331284D01*
X332283Y342161D01*
Y340161D01*
X331284Y339161D01*
X332283Y346457D02*
X326285D01*
Y349456D01*
X327285Y350455D01*
X329284D01*
X330284Y349456D01*
Y346457D01*
Y348456D02*
X332283Y350455D01*
X327285Y352455D02*
X326285Y353454D01*
Y355454D01*
X327285Y356453D01*
X328285D01*
X329284Y355454D01*
Y354454D01*
Y355454D01*
X330284Y356453D01*
X331284D01*
X332283Y355454D01*
Y353454D01*
X331284Y352455D01*
X332283Y362452D02*
Y358453D01*
X328285Y362452D01*
X327285D01*
X326285Y361452D01*
Y359453D01*
X327285Y358453D01*
X61811Y302362D02*
Y308360D01*
X64810D01*
X65810Y307361D01*
Y305361D01*
X64810Y304362D01*
X61811D01*
X63810D02*
X65810Y302362D01*
X67809Y307361D02*
X68809Y308360D01*
X70808D01*
X71808Y307361D01*
Y306361D01*
X70808Y305361D01*
X69808D01*
X70808D01*
X71808Y304362D01*
Y303362D01*
X70808Y302362D01*
X68809D01*
X67809Y303362D01*
X73807Y302362D02*
X75806D01*
X74807D01*
Y308360D01*
X73807Y307361D01*
X42913Y302362D02*
Y308360D01*
X45912D01*
X46912Y307361D01*
Y305361D01*
X45912Y304362D01*
X42913D01*
X44913D02*
X46912Y302362D01*
X48911Y307361D02*
X49911Y308360D01*
X51911D01*
X52910Y307361D01*
Y306361D01*
X51911Y305361D01*
X50911D01*
X51911D01*
X52910Y304362D01*
Y303362D01*
X51911Y302362D01*
X49911D01*
X48911Y303362D01*
X54909Y307361D02*
X55909Y308360D01*
X57908D01*
X58908Y307361D01*
Y303362D01*
X57908Y302362D01*
X55909D01*
X54909Y303362D01*
Y307361D01*
X62205Y317323D02*
Y323321D01*
X65204D01*
X66203Y322321D01*
Y320322D01*
X65204Y319322D01*
X62205D01*
X64204D02*
X66203Y317323D01*
X72202D02*
X68203D01*
X72202Y321322D01*
Y322321D01*
X71202Y323321D01*
X69203D01*
X68203Y322321D01*
X74201Y318322D02*
X75200Y317323D01*
X77200D01*
X78199Y318322D01*
Y322321D01*
X77200Y323321D01*
X75200D01*
X74201Y322321D01*
Y321322D01*
X75200Y320322D01*
X78199D01*
X43000Y317394D02*
Y323392D01*
X45999D01*
X46999Y322392D01*
Y320393D01*
X45999Y319393D01*
X43000D01*
X44999D02*
X46999Y317394D01*
X52997D02*
X48998D01*
X52997Y321392D01*
Y322392D01*
X51997Y323392D01*
X49998D01*
X48998Y322392D01*
X54996D02*
X55996Y323392D01*
X57995D01*
X58995Y322392D01*
Y321392D01*
X57995Y320393D01*
X58995Y319393D01*
Y318393D01*
X57995Y317394D01*
X55996D01*
X54996Y318393D01*
Y319393D01*
X55996Y320393D01*
X54996Y321392D01*
Y322392D01*
X55996Y320393D02*
X57995D01*
X168000Y268000D02*
Y273998D01*
X170999D01*
X171999Y272998D01*
Y270999D01*
X170999Y269999D01*
X168000D01*
X169999D02*
X171999Y268000D01*
X177997D02*
X173998D01*
X177997Y271999D01*
Y272998D01*
X176997Y273998D01*
X174998D01*
X173998Y272998D01*
X179996Y273998D02*
X183995D01*
Y272998D01*
X179996Y269000D01*
Y268000D01*
X148819Y268110D02*
Y274108D01*
X151818D01*
X152818Y273109D01*
Y271109D01*
X151818Y270110D01*
X148819D01*
X150818D02*
X152818Y268110D01*
X158816D02*
X154817D01*
X158816Y272109D01*
Y273109D01*
X157816Y274108D01*
X155817D01*
X154817Y273109D01*
X164814Y274108D02*
X162814Y273109D01*
X160815Y271109D01*
Y269110D01*
X161815Y268110D01*
X163814D01*
X164814Y269110D01*
Y270110D01*
X163814Y271109D01*
X160815D01*
X129000Y268000D02*
Y273998D01*
X131999D01*
X132999Y272998D01*
Y270999D01*
X131999Y269999D01*
X129000D01*
X130999D02*
X132999Y268000D01*
X138997D02*
X134998D01*
X138997Y271999D01*
Y272998D01*
X137997Y273998D01*
X135998D01*
X134998Y272998D01*
X144995Y273998D02*
X140996D01*
Y270999D01*
X142996Y271999D01*
X143995D01*
X144995Y270999D01*
Y269000D01*
X143995Y268000D01*
X141996D01*
X140996Y269000D01*
X271000Y268000D02*
Y273998D01*
X273999D01*
X274999Y272998D01*
Y270999D01*
X273999Y269999D01*
X271000D01*
X272999D02*
X274999Y268000D01*
X280997D02*
X276998D01*
X280997Y271999D01*
Y272998D01*
X279997Y273998D01*
X277998D01*
X276998Y272998D01*
X285995Y268000D02*
Y273998D01*
X282996Y270999D01*
X286995D01*
X251000Y268000D02*
Y273998D01*
X253999D01*
X254999Y272998D01*
Y270999D01*
X253999Y269999D01*
X251000D01*
X252999D02*
X254999Y268000D01*
X260997D02*
X256998D01*
X260997Y271999D01*
Y272998D01*
X259997Y273998D01*
X257998D01*
X256998Y272998D01*
X262996D02*
X263996Y273998D01*
X265995D01*
X266995Y272998D01*
Y271999D01*
X265995Y270999D01*
X264996D01*
X265995D01*
X266995Y269999D01*
Y269000D01*
X265995Y268000D01*
X263996D01*
X262996Y269000D01*
X232000Y268000D02*
Y273998D01*
X234999D01*
X235999Y272998D01*
Y270999D01*
X234999Y269999D01*
X232000D01*
X233999D02*
X235999Y268000D01*
X241997D02*
X237998D01*
X241997Y271999D01*
Y272998D01*
X240997Y273998D01*
X238998D01*
X237998Y272998D01*
X247995Y268000D02*
X243996D01*
X247995Y271999D01*
Y272998D01*
X246995Y273998D01*
X244996D01*
X243996Y272998D01*
X215000Y268000D02*
Y273998D01*
X217999D01*
X218999Y272998D01*
Y270999D01*
X217999Y269999D01*
X215000D01*
X216999D02*
X218999Y268000D01*
X224997D02*
X220998D01*
X224997Y271999D01*
Y272998D01*
X223997Y273998D01*
X221998D01*
X220998Y272998D01*
X226996Y268000D02*
X228995D01*
X227996D01*
Y273998D01*
X226996Y272998D01*
X298000Y287000D02*
Y292998D01*
X300999D01*
X301999Y291998D01*
Y289999D01*
X300999Y288999D01*
X298000D01*
X299999D02*
X301999Y287000D01*
X307997D02*
X303998D01*
X307997Y290999D01*
Y291998D01*
X306997Y292998D01*
X304998D01*
X303998Y291998D01*
X309996D02*
X310996Y292998D01*
X312995D01*
X313995Y291998D01*
Y288000D01*
X312995Y287000D01*
X310996D01*
X309996Y288000D01*
Y291998D01*
X91000Y288000D02*
Y293998D01*
X93999D01*
X94999Y292998D01*
Y290999D01*
X93999Y289999D01*
X91000D01*
X92999D02*
X94999Y288000D01*
X96998D02*
X98997D01*
X97998D01*
Y293998D01*
X96998Y292998D01*
X101996Y289000D02*
X102996Y288000D01*
X104996D01*
X105995Y289000D01*
Y292998D01*
X104996Y293998D01*
X102996D01*
X101996Y292998D01*
Y291999D01*
X102996Y290999D01*
X105995D01*
X298000Y302000D02*
Y307998D01*
X300999D01*
X301999Y306998D01*
Y304999D01*
X300999Y303999D01*
X298000D01*
X299999D02*
X301999Y302000D01*
X303998D02*
X305997D01*
X304998D01*
Y307998D01*
X303998Y306998D01*
X308996D02*
X309996Y307998D01*
X311996D01*
X312995Y306998D01*
Y305999D01*
X311996Y304999D01*
X312995Y303999D01*
Y303000D01*
X311996Y302000D01*
X309996D01*
X308996Y303000D01*
Y303999D01*
X309996Y304999D01*
X308996Y305999D01*
Y306998D01*
X309996Y304999D02*
X311996D01*
X62205Y347638D02*
Y353636D01*
X65204D01*
X66203Y352636D01*
Y350637D01*
X65204Y349637D01*
X62205D01*
X64204D02*
X66203Y347638D01*
X68203D02*
X70202D01*
X69203D01*
Y353636D01*
X68203Y352636D01*
X73201Y353636D02*
X77200D01*
Y352636D01*
X73201Y348638D01*
Y347638D01*
X42913D02*
Y353636D01*
X45912D01*
X46912Y352636D01*
Y350637D01*
X45912Y349637D01*
X42913D01*
X44913D02*
X46912Y347638D01*
X48911D02*
X50911D01*
X49911D01*
Y353636D01*
X48911Y352636D01*
X57908Y353636D02*
X55909Y352636D01*
X53910Y350637D01*
Y348638D01*
X54909Y347638D01*
X56909D01*
X57908Y348638D01*
Y349637D01*
X56909Y350637D01*
X53910D01*
X62205Y332283D02*
Y338281D01*
X65204D01*
X66203Y337282D01*
Y335282D01*
X65204Y334283D01*
X62205D01*
X64204D02*
X66203Y332283D01*
X68203D02*
X70202D01*
X69203D01*
Y338281D01*
X68203Y337282D01*
X77200Y338281D02*
X73201D01*
Y335282D01*
X75200Y336282D01*
X76200D01*
X77200Y335282D01*
Y333283D01*
X76200Y332283D01*
X74201D01*
X73201Y333283D01*
X43000Y332394D02*
Y338392D01*
X45999D01*
X46999Y337392D01*
Y335393D01*
X45999Y334393D01*
X43000D01*
X44999D02*
X46999Y332394D01*
X48998D02*
X50997D01*
X49998D01*
Y338392D01*
X48998Y337392D01*
X56995Y332394D02*
Y338392D01*
X53996Y335393D01*
X57995D01*
X262394Y312000D02*
Y317998D01*
X265393D01*
X266392Y316998D01*
Y314999D01*
X265393Y313999D01*
X262394D01*
X264393D02*
X266392Y312000D01*
X268392D02*
X270391D01*
X269391D01*
Y317998D01*
X268392Y316998D01*
X273390D02*
X274390Y317998D01*
X276389D01*
X277389Y316998D01*
Y315999D01*
X276389Y314999D01*
X275390D01*
X276389D01*
X277389Y313999D01*
Y313000D01*
X276389Y312000D01*
X274390D01*
X273390Y313000D01*
X262598Y347244D02*
Y353242D01*
X265598D01*
X266597Y352242D01*
Y350243D01*
X265598Y349243D01*
X262598D01*
X264598D02*
X266597Y347244D01*
X268597D02*
X270596D01*
X269596D01*
Y353242D01*
X268597Y352242D01*
X277594Y347244D02*
X273595D01*
X277594Y351243D01*
Y352242D01*
X276594Y353242D01*
X274594D01*
X273595Y352242D01*
X238976Y312205D02*
Y318203D01*
X241975D01*
X242975Y317203D01*
Y315204D01*
X241975Y314204D01*
X238976D01*
X240976D02*
X242975Y312205D01*
X244974D02*
X246974D01*
X245974D01*
Y318203D01*
X244974Y317203D01*
X249973Y312205D02*
X251972D01*
X250973D01*
Y318203D01*
X249973Y317203D01*
X237795Y347244D02*
Y353242D01*
X240794D01*
X241794Y352242D01*
Y350243D01*
X240794Y349243D01*
X237795D01*
X239795D02*
X241794Y347244D01*
X243793D02*
X245793D01*
X244793D01*
Y353242D01*
X243793Y352242D01*
X248792D02*
X249791Y353242D01*
X251791D01*
X252790Y352242D01*
Y348244D01*
X251791Y347244D01*
X249791D01*
X248792Y348244D01*
Y352242D01*
X218110Y312205D02*
Y318203D01*
X221109D01*
X222109Y317203D01*
Y315204D01*
X221109Y314204D01*
X218110D01*
X220110D02*
X222109Y312205D01*
X224108Y313204D02*
X225108Y312205D01*
X227107D01*
X228107Y313204D01*
Y317203D01*
X227107Y318203D01*
X225108D01*
X224108Y317203D01*
Y316203D01*
X225108Y315204D01*
X228107D01*
X218110Y347244D02*
Y353242D01*
X221109D01*
X222109Y352242D01*
Y350243D01*
X221109Y349243D01*
X218110D01*
X220110D02*
X222109Y347244D01*
X224108Y352242D02*
X225108Y353242D01*
X227107D01*
X228107Y352242D01*
Y351243D01*
X227107Y350243D01*
X228107Y349243D01*
Y348244D01*
X227107Y347244D01*
X225108D01*
X224108Y348244D01*
Y349243D01*
X225108Y350243D01*
X224108Y351243D01*
Y352242D01*
X225108Y350243D02*
X227107D01*
X198031Y312205D02*
Y318203D01*
X201030D01*
X202030Y317203D01*
Y315204D01*
X201030Y314204D01*
X198031D01*
X200031D02*
X202030Y312205D01*
X204030Y318203D02*
X208028D01*
Y317203D01*
X204030Y313204D01*
Y312205D01*
X198031Y347244D02*
Y353242D01*
X201030D01*
X202030Y352242D01*
Y350243D01*
X201030Y349243D01*
X198031D01*
X200031D02*
X202030Y347244D01*
X208028Y353242D02*
X206029Y352242D01*
X204030Y350243D01*
Y348244D01*
X205029Y347244D01*
X207029D01*
X208028Y348244D01*
Y349243D01*
X207029Y350243D01*
X204030D01*
X178347Y311811D02*
Y317809D01*
X181345D01*
X182345Y316809D01*
Y314810D01*
X181345Y313810D01*
X178347D01*
X180346D02*
X182345Y311811D01*
X188343Y317809D02*
X184344D01*
Y314810D01*
X186344Y315810D01*
X187344D01*
X188343Y314810D01*
Y312811D01*
X187344Y311811D01*
X185344D01*
X184344Y312811D01*
X177953Y347244D02*
Y353242D01*
X180952D01*
X181951Y352242D01*
Y350243D01*
X180952Y349243D01*
X177953D01*
X179952D02*
X181951Y347244D01*
X186950D02*
Y353242D01*
X183951Y350243D01*
X187950D01*
X157874Y311811D02*
Y317809D01*
X160873D01*
X161873Y316809D01*
Y314810D01*
X160873Y313810D01*
X157874D01*
X159873D02*
X161873Y311811D01*
X163872Y316809D02*
X164872Y317809D01*
X166871D01*
X167871Y316809D01*
Y315810D01*
X166871Y314810D01*
X165871D01*
X166871D01*
X167871Y313810D01*
Y312811D01*
X166871Y311811D01*
X164872D01*
X163872Y312811D01*
X157874Y347244D02*
Y353242D01*
X160873D01*
X161873Y352242D01*
Y350243D01*
X160873Y349243D01*
X157874D01*
X159873D02*
X161873Y347244D01*
X167871D02*
X163872D01*
X167871Y351243D01*
Y352242D01*
X166871Y353242D01*
X164872D01*
X163872Y352242D01*
X334606Y62402D02*
Y68400D01*
X337605D01*
X338605Y67400D01*
Y65401D01*
X337605Y64401D01*
X334606D01*
X336606D02*
X338605Y62402D01*
X340604D02*
X342604D01*
X341604D01*
Y68400D01*
X340604Y67400D01*
X182142Y69000D02*
Y74998D01*
X185141D01*
X186141Y73998D01*
Y71999D01*
X185141Y70999D01*
X182142D01*
X192139Y73998D02*
X191139Y74998D01*
X189139D01*
X188140Y73998D01*
Y72999D01*
X189139Y71999D01*
X191139D01*
X192139Y70999D01*
Y70000D01*
X191139Y69000D01*
X189139D01*
X188140Y70000D01*
X8033Y121445D02*
Y127443D01*
X11032D01*
X12032Y126443D01*
Y124444D01*
X11032Y123444D01*
X8033D01*
X14031Y126443D02*
X15031Y127443D01*
X17030D01*
X18030Y126443D01*
Y125444D01*
X17030Y124444D01*
X18030Y123444D01*
Y122445D01*
X17030Y121445D01*
X15031D01*
X14031Y122445D01*
Y123444D01*
X15031Y124444D01*
X14031Y125444D01*
Y126443D01*
X15031Y124444D02*
X17030D01*
X583685Y188780D02*
X581686D01*
X582685D01*
Y183782D01*
X581686Y182782D01*
X580686D01*
X579686Y183782D01*
X585684Y182782D02*
X587684D01*
X586684D01*
Y188780D01*
X585684Y187781D01*
X185927Y264348D02*
X187926D01*
X186927D01*
Y258350D01*
X185927D01*
X187926D01*
X194924Y263348D02*
X193925Y264348D01*
X191925D01*
X190926Y263348D01*
Y259350D01*
X191925Y258350D01*
X193925D01*
X194924Y259350D01*
X196924Y263348D02*
X197923Y264348D01*
X199923D01*
X200922Y263348D01*
Y262349D01*
X199923Y261349D01*
X198923D01*
X199923D01*
X200922Y260349D01*
Y259350D01*
X199923Y258350D01*
X197923D01*
X196924Y259350D01*
X64999Y107998D02*
X61000D01*
Y104999D01*
X62999D01*
X61000D01*
Y102000D01*
X70997D02*
X66998D01*
X70997Y105999D01*
Y106998D01*
X69997Y107998D01*
X67998D01*
X66998Y106998D01*
X65099Y139898D02*
X61100D01*
Y136899D01*
X63099D01*
X61100D01*
Y133900D01*
X67098D02*
X69097D01*
X68098D01*
Y139898D01*
X67098Y138898D01*
X362551Y68935D02*
Y62937D01*
X365550D01*
X366550Y63937D01*
Y67935D01*
X365550Y68935D01*
X362551D01*
X368549Y67935D02*
X369549Y68935D01*
X371548D01*
X372548Y67935D01*
Y66936D01*
X371548Y65936D01*
X370549D01*
X371548D01*
X372548Y64936D01*
Y63937D01*
X371548Y62937D01*
X369549D01*
X368549Y63937D01*
X363000Y100998D02*
Y95000D01*
X365999D01*
X366999Y96000D01*
Y99998D01*
X365999Y100998D01*
X363000D01*
X372997Y95000D02*
X368998D01*
X372997Y98999D01*
Y99998D01*
X371997Y100998D01*
X369998D01*
X368998Y99998D01*
X325999Y216998D02*
X324999Y217998D01*
X323000D01*
X322000Y216998D01*
Y213000D01*
X323000Y212000D01*
X324999D01*
X325999Y213000D01*
X331997Y212000D02*
X327998D01*
X331997Y215999D01*
Y216998D01*
X330997Y217998D01*
X328998D01*
X327998Y216998D01*
X336995Y212000D02*
Y217998D01*
X333996Y214999D01*
X337995D01*
X85999Y216998D02*
X84999Y217998D01*
X83000D01*
X82000Y216998D01*
Y213000D01*
X83000Y212000D01*
X84999D01*
X85999Y213000D01*
X91997Y212000D02*
X87998D01*
X91997Y215999D01*
Y216998D01*
X90997Y217998D01*
X88998D01*
X87998Y216998D01*
X93996D02*
X94996Y217998D01*
X96995D01*
X97995Y216998D01*
Y215999D01*
X96995Y214999D01*
X95995D01*
X96995D01*
X97995Y213999D01*
Y213000D01*
X96995Y212000D01*
X94996D01*
X93996Y213000D01*
X257999Y223998D02*
X256999Y224998D01*
X255000D01*
X254000Y223998D01*
Y220000D01*
X255000Y219000D01*
X256999D01*
X257999Y220000D01*
X263997Y219000D02*
X259998D01*
X263997Y222999D01*
Y223998D01*
X262997Y224998D01*
X260998D01*
X259998Y223998D01*
X269995Y219000D02*
X265996D01*
X269995Y222999D01*
Y223998D01*
X268995Y224998D01*
X266996D01*
X265996Y223998D01*
X149999Y225998D02*
X148999Y226998D01*
X147000D01*
X146000Y225998D01*
Y222000D01*
X147000Y221000D01*
X148999D01*
X149999Y222000D01*
X155997Y221000D02*
X151998D01*
X155997Y224999D01*
Y225998D01*
X154997Y226998D01*
X152998D01*
X151998Y225998D01*
X157996Y221000D02*
X159995D01*
X158996D01*
Y226998D01*
X157996Y225998D01*
X157542Y240825D02*
X156542Y241825D01*
X154543D01*
X153543Y240825D01*
Y236826D01*
X154543Y235827D01*
X156542D01*
X157542Y236826D01*
X163540Y235827D02*
X159541D01*
X163540Y239826D01*
Y240825D01*
X162540Y241825D01*
X160541D01*
X159541Y240825D01*
X165539D02*
X166539Y241825D01*
X168538D01*
X169538Y240825D01*
Y236826D01*
X168538Y235827D01*
X166539D01*
X165539Y236826D01*
Y240825D01*
X326999Y261998D02*
X325999Y262998D01*
X324000D01*
X323000Y261998D01*
Y258000D01*
X324000Y257000D01*
X325999D01*
X326999Y258000D01*
X328998Y257000D02*
X330997D01*
X329998D01*
Y262998D01*
X328998Y261998D01*
X333996Y258000D02*
X334996Y257000D01*
X336996D01*
X337995Y258000D01*
Y261998D01*
X336996Y262998D01*
X334996D01*
X333996Y261998D01*
Y260999D01*
X334996Y259999D01*
X337995D01*
X86999Y262754D02*
X85999Y263754D01*
X84000D01*
X83000Y262754D01*
Y258756D01*
X84000Y257756D01*
X85999D01*
X86999Y258756D01*
X88998Y257756D02*
X90997D01*
X89998D01*
Y263754D01*
X88998Y262754D01*
X93997D02*
X94996Y263754D01*
X96996D01*
X97995Y262754D01*
Y261755D01*
X96996Y260755D01*
X97995Y259755D01*
Y258756D01*
X96996Y257756D01*
X94996D01*
X93997Y258756D01*
Y259755D01*
X94996Y260755D01*
X93997Y261755D01*
Y262754D01*
X94996Y260755D02*
X96996D01*
X257999Y253998D02*
X256999Y254998D01*
X255000D01*
X254000Y253998D01*
Y250000D01*
X255000Y249000D01*
X256999D01*
X257999Y250000D01*
X259998Y249000D02*
X261997D01*
X260998D01*
Y254998D01*
X259998Y253998D01*
X264996Y254998D02*
X268995D01*
Y253998D01*
X264996Y250000D01*
Y249000D01*
X137999Y253998D02*
X136999Y254998D01*
X135000D01*
X134000Y253998D01*
Y250000D01*
X135000Y249000D01*
X136999D01*
X137999Y250000D01*
X139998Y249000D02*
X141997D01*
X140998D01*
Y254998D01*
X139998Y253998D01*
X148995Y254998D02*
X146996Y253998D01*
X144996Y251999D01*
Y250000D01*
X145996Y249000D01*
X147995D01*
X148995Y250000D01*
Y250999D01*
X147995Y251999D01*
X144996D01*
X255999Y38998D02*
X254999Y39998D01*
X253000D01*
X252000Y38998D01*
Y35000D01*
X253000Y34000D01*
X254999D01*
X255999Y35000D01*
X257998Y34000D02*
X259997D01*
X258998D01*
Y39998D01*
X257998Y38998D01*
X262996D02*
X263996Y39998D01*
X265996D01*
X266995Y38998D01*
Y37999D01*
X265996Y36999D01*
X264996D01*
X265996D01*
X266995Y35999D01*
Y35000D01*
X265996Y34000D01*
X263996D01*
X262996Y35000D01*
X230999Y38998D02*
X229999Y39998D01*
X228000D01*
X227000Y38998D01*
Y35000D01*
X228000Y34000D01*
X229999D01*
X230999Y35000D01*
X232998Y34000D02*
X234997D01*
X233998D01*
Y39998D01*
X232998Y38998D01*
X241995Y34000D02*
X237996D01*
X241995Y37999D01*
Y38998D01*
X240996Y39998D01*
X238996D01*
X237996Y38998D01*
X161999Y39998D02*
X160999Y40998D01*
X159000D01*
X158000Y39998D01*
Y36000D01*
X159000Y35000D01*
X160999D01*
X161999Y36000D01*
X163998Y35000D02*
X165997D01*
X164998D01*
Y40998D01*
X163998Y39998D01*
X168996Y35000D02*
X170996D01*
X169996D01*
Y40998D01*
X168996Y39998D01*
X136605D02*
X135605Y40998D01*
X133606D01*
X132606Y39998D01*
Y36000D01*
X133606Y35000D01*
X135605D01*
X136605Y36000D01*
X138604Y35000D02*
X140604D01*
X139604D01*
Y40998D01*
X138604Y39998D01*
X143603D02*
X144602Y40998D01*
X146602D01*
X147601Y39998D01*
Y36000D01*
X146602Y35000D01*
X144602D01*
X143603Y36000D01*
Y39998D01*
X65999Y38998D02*
X64999Y39998D01*
X63000D01*
X62000Y38998D01*
Y35000D01*
X63000Y34000D01*
X64999D01*
X65999Y35000D01*
X67998D02*
X68998Y34000D01*
X70997D01*
X71997Y35000D01*
Y38998D01*
X70997Y39998D01*
X68998D01*
X67998Y38998D01*
Y37999D01*
X68998Y36999D01*
X71997D01*
X332999Y38998D02*
X331999Y39998D01*
X330000D01*
X329000Y38998D01*
Y35000D01*
X330000Y34000D01*
X331999D01*
X332999Y35000D01*
X334998Y38998D02*
X335998Y39998D01*
X337997D01*
X338997Y38998D01*
Y37999D01*
X337997Y36999D01*
X338997Y35999D01*
Y35000D01*
X337997Y34000D01*
X335998D01*
X334998Y35000D01*
Y35999D01*
X335998Y36999D01*
X334998Y37999D01*
Y38998D01*
X335998Y36999D02*
X337997D01*
X453999Y378998D02*
X452999Y379998D01*
X451000D01*
X450000Y378998D01*
Y375000D01*
X451000Y374000D01*
X452999D01*
X453999Y375000D01*
X455998Y379998D02*
X459997D01*
Y378998D01*
X455998Y375000D01*
Y374000D01*
X457070Y326195D02*
X456070Y327195D01*
X454071D01*
X453071Y326195D01*
Y322197D01*
X454071Y321197D01*
X456070D01*
X457070Y322197D01*
X463068Y327195D02*
X461068Y326195D01*
X459069Y324196D01*
Y322197D01*
X460069Y321197D01*
X462068D01*
X463068Y322197D01*
Y323196D01*
X462068Y324196D01*
X459069D01*
X452818Y195156D02*
X451818Y196156D01*
X449819D01*
X448819Y195156D01*
Y191157D01*
X449819Y190157D01*
X451818D01*
X452818Y191157D01*
X458816Y196156D02*
X454817D01*
Y193157D01*
X456816Y194156D01*
X457816D01*
X458816Y193157D01*
Y191157D01*
X457816Y190157D01*
X455817D01*
X454817Y191157D01*
X452818Y254605D02*
X451818Y255604D01*
X449819D01*
X448819Y254605D01*
Y250606D01*
X449819Y249606D01*
X451818D01*
X452818Y250606D01*
X457816Y249606D02*
Y255604D01*
X454817Y252605D01*
X458816D01*
D16*
X641736Y44732D02*
Y172732D01*
X579736Y44732D02*
Y172732D01*
Y44732D02*
X601236D01*
X612236D02*
X641736D01*
X612236Y172732D02*
X641736D01*
X579736D02*
X601236D01*
D17*
X215732Y17362D02*
Y63031D01*
X182268Y17362D02*
X215732D01*
X182268D02*
Y63031D01*
X215732D01*
X431936Y30000D02*
X428656D01*
X428000Y29344D01*
Y28032D01*
X428656Y27376D01*
X431936D01*
X431280Y26064D02*
X431936Y25408D01*
Y24096D01*
X431280Y23440D01*
X430624D01*
X429968Y24096D01*
Y24752D01*
Y24096D01*
X429312Y23440D01*
X428656D01*
X428000Y24096D01*
Y25408D01*
X428656Y26064D01*
X431936Y22129D02*
X428000D01*
Y20161D01*
X428656Y19505D01*
X431280D01*
X431936Y20161D01*
Y22129D01*
X441936Y30000D02*
X438656D01*
X438000Y29344D01*
Y28032D01*
X438656Y27376D01*
X441936D01*
X441280Y26064D02*
X441936Y25408D01*
Y24096D01*
X441280Y23440D01*
X440624D01*
X439968Y24096D01*
Y24752D01*
Y24096D01*
X439312Y23440D01*
X438656D01*
X438000Y24096D01*
Y25408D01*
X438656Y26064D01*
X441280Y19505D02*
X441936Y20161D01*
Y21473D01*
X441280Y22129D01*
X438656D01*
X438000Y21473D01*
Y20161D01*
X438656Y19505D01*
X438000Y18193D02*
X441936D01*
X438000Y15569D01*
X441936D01*
X451936Y30000D02*
X448656D01*
X448000Y29344D01*
Y28032D01*
X448656Y27376D01*
X451936D01*
X451280Y26064D02*
X451936Y25408D01*
Y24096D01*
X451280Y23440D01*
X450624D01*
X449968Y24096D01*
Y24752D01*
Y24096D01*
X449312Y23440D01*
X448656D01*
X448000Y24096D01*
Y25408D01*
X448656Y26064D01*
X451936Y22129D02*
X448000D01*
Y20161D01*
X448656Y19505D01*
X451280D01*
X451936Y20161D01*
Y22129D01*
X448000Y18193D02*
X451936D01*
X448000Y15569D01*
X451936D01*
X461936Y30000D02*
X458656D01*
X458000Y29344D01*
Y28032D01*
X458656Y27376D01*
X461936D01*
Y23440D02*
Y26064D01*
X459968D01*
X460624Y24752D01*
Y24096D01*
X459968Y23440D01*
X458656D01*
X458000Y24096D01*
Y25408D01*
X458656Y26064D01*
X461936Y22129D02*
X458000D01*
Y20161D01*
X458656Y19505D01*
X461280D01*
X461936Y20161D01*
Y22129D01*
X471936Y30000D02*
X468656D01*
X468000Y29344D01*
Y28032D01*
X468656Y27376D01*
X471936D01*
Y23440D02*
Y26064D01*
X469968D01*
X470624Y24752D01*
Y24096D01*
X469968Y23440D01*
X468656D01*
X468000Y24096D01*
Y25408D01*
X468656Y26064D01*
X471280Y19505D02*
X471936Y20161D01*
Y21473D01*
X471280Y22129D01*
X468656D01*
X468000Y21473D01*
Y20161D01*
X468656Y19505D01*
X468000Y18193D02*
X471936D01*
X468000Y15569D01*
X471936D01*
X481936Y30000D02*
X478656D01*
X478000Y29344D01*
Y28032D01*
X478656Y27376D01*
X481936D01*
Y23440D02*
Y26064D01*
X479968D01*
X480624Y24752D01*
Y24096D01*
X479968Y23440D01*
X478656D01*
X478000Y24096D01*
Y25408D01*
X478656Y26064D01*
X481936Y22129D02*
X478000D01*
Y20161D01*
X478656Y19505D01*
X481280D01*
X481936Y20161D01*
Y22129D01*
X478000Y18193D02*
X481936D01*
X478000Y15569D01*
X481936D01*
X491280Y27376D02*
X491936Y28032D01*
Y29344D01*
X491280Y30000D01*
X488656D01*
X488000Y29344D01*
Y28032D01*
X488656Y27376D01*
X489968D01*
Y28688D01*
X488000Y26064D02*
X491936D01*
X488000Y23440D01*
X491936D01*
Y22129D02*
X488000D01*
Y20161D01*
X488656Y19505D01*
X491280D01*
X491936Y20161D01*
Y22129D01*
X487344Y18193D02*
Y15569D01*
X491936Y14257D02*
X489312D01*
X488000Y12945D01*
X489312Y11633D01*
X491936D01*
Y10321D02*
Y9009D01*
Y9665D01*
X488000D01*
Y10321D01*
Y9009D01*
Y7041D02*
X491936D01*
X488000Y4418D01*
X491936D01*
X501280Y27376D02*
X501936Y28032D01*
Y29344D01*
X501280Y30000D01*
X498656D01*
X498000Y29344D01*
Y28032D01*
X498656Y27376D01*
X499968D01*
Y28688D01*
X498000Y26064D02*
X501936D01*
X498000Y23440D01*
X501936D01*
Y22129D02*
X498000D01*
Y20161D01*
X498656Y19505D01*
X501280D01*
X501936Y20161D01*
Y22129D01*
X497344Y18193D02*
Y15569D01*
X498000Y14257D02*
Y12945D01*
Y13601D01*
X501936D01*
X501280Y14257D01*
X501936Y8353D02*
Y10977D01*
X499968D01*
X500624Y9665D01*
Y9009D01*
X499968Y8353D01*
X498656D01*
X498000Y9009D01*
Y10321D01*
X498656Y10977D01*
X501936Y7041D02*
X499312D01*
X498000Y5730D01*
X499312Y4418D01*
X501936D01*
X431936Y68000D02*
X428656D01*
X428000Y67344D01*
Y66032D01*
X428656Y65376D01*
X431936D01*
X431280Y64064D02*
X431936Y63408D01*
Y62096D01*
X431280Y61440D01*
X430624D01*
X429968Y62096D01*
Y62752D01*
Y62096D01*
X429312Y61440D01*
X428656D01*
X428000Y62096D01*
Y63408D01*
X428656Y64064D01*
X431280Y57505D02*
X431936Y58161D01*
Y59473D01*
X431280Y60128D01*
X428656D01*
X428000Y59473D01*
Y58161D01*
X428656Y57505D01*
X441936Y71000D02*
X438656D01*
X438000Y70344D01*
Y69032D01*
X438656Y68376D01*
X441936D01*
X441280Y67064D02*
X441936Y66408D01*
Y65096D01*
X441280Y64440D01*
X440624D01*
X439968Y65096D01*
Y65752D01*
Y65096D01*
X439312Y64440D01*
X438656D01*
X438000Y65096D01*
Y66408D01*
X438656Y67064D01*
X441280Y60505D02*
X441936Y61161D01*
Y62473D01*
X441280Y63129D01*
X438656D01*
X438000Y62473D01*
Y61161D01*
X438656Y60505D01*
X438000Y59193D02*
X441936D01*
Y57225D01*
X441280Y56569D01*
X439968D01*
X439312Y57225D01*
Y59193D01*
X451936Y71000D02*
X448656D01*
X448000Y70344D01*
Y69032D01*
X448656Y68376D01*
X451936D01*
X451280Y67064D02*
X451936Y66408D01*
Y65096D01*
X451280Y64440D01*
X450624D01*
X449968Y65096D01*
Y65752D01*
Y65096D01*
X449312Y64440D01*
X448656D01*
X448000Y65096D01*
Y66408D01*
X448656Y67064D01*
X451936Y63129D02*
X448000D01*
Y61161D01*
X448656Y60505D01*
X451280D01*
X451936Y61161D01*
Y63129D01*
X448000Y59193D02*
X451936D01*
Y57225D01*
X451280Y56569D01*
X449968D01*
X449312Y57225D01*
Y59193D01*
X461936Y68000D02*
X458656D01*
X458000Y67344D01*
Y66032D01*
X458656Y65376D01*
X461936D01*
Y61440D02*
Y64064D01*
X459968D01*
X460624Y62752D01*
Y62096D01*
X459968Y61440D01*
X458656D01*
X458000Y62096D01*
Y63408D01*
X458656Y64064D01*
X461280Y57505D02*
X461936Y58161D01*
Y59473D01*
X461280Y60128D01*
X458656D01*
X458000Y59473D01*
Y58161D01*
X458656Y57505D01*
X471936Y71000D02*
X468656D01*
X468000Y70344D01*
Y69032D01*
X468656Y68376D01*
X471936D01*
Y64440D02*
Y67064D01*
X469968D01*
X470624Y65752D01*
Y65096D01*
X469968Y64440D01*
X468656D01*
X468000Y65096D01*
Y66408D01*
X468656Y67064D01*
X471280Y60505D02*
X471936Y61161D01*
Y62473D01*
X471280Y63129D01*
X468656D01*
X468000Y62473D01*
Y61161D01*
X468656Y60505D01*
X468000Y59193D02*
X471936D01*
Y57225D01*
X471280Y56569D01*
X469968D01*
X469312Y57225D01*
Y59193D01*
X481936Y71000D02*
X478656D01*
X478000Y70344D01*
Y69032D01*
X478656Y68376D01*
X481936D01*
Y64440D02*
Y67064D01*
X479968D01*
X480624Y65752D01*
Y65096D01*
X479968Y64440D01*
X478656D01*
X478000Y65096D01*
Y66408D01*
X478656Y67064D01*
X481936Y63129D02*
X478000D01*
Y61161D01*
X478656Y60505D01*
X481280D01*
X481936Y61161D01*
Y63129D01*
X478000Y59193D02*
X481936D01*
Y57225D01*
X481280Y56569D01*
X479968D01*
X479312Y57225D01*
Y59193D01*
X491936Y68000D02*
X489312D01*
X488000Y66688D01*
X489312Y65376D01*
X491936D01*
Y64064D02*
Y62752D01*
Y63408D01*
X488000D01*
Y64064D01*
Y62752D01*
Y60785D02*
X491936D01*
X488000Y58161D01*
X491936D01*
X498000Y68000D02*
Y66688D01*
Y67344D01*
X501936D01*
X501280Y68000D01*
X501936Y62096D02*
Y64720D01*
X499968D01*
X500624Y63408D01*
Y62752D01*
X499968Y62096D01*
X498656D01*
X498000Y62752D01*
Y64064D01*
X498656Y64720D01*
X501936Y60785D02*
X499312D01*
X498000Y59473D01*
X499312Y58161D01*
X501936D01*
X511280Y27376D02*
X511936Y28032D01*
Y29344D01*
X511280Y30000D01*
X508656D01*
X508000Y29344D01*
Y28032D01*
X508656Y27376D01*
X509968D01*
Y28688D01*
X508000Y26064D02*
X511936D01*
X508000Y23440D01*
X511936D01*
Y22129D02*
X508000D01*
Y20161D01*
X508656Y19505D01*
X511280D01*
X511936Y20161D01*
Y22129D01*
X511280Y65376D02*
X511936Y66032D01*
Y67344D01*
X511280Y68000D01*
X508656D01*
X508000Y67344D01*
Y66032D01*
X508656Y65376D01*
X509968D01*
Y66688D01*
X508000Y64064D02*
X511936D01*
X508000Y61440D01*
X511936D01*
Y60128D02*
X508000D01*
Y58161D01*
X508656Y57505D01*
X511280D01*
X511936Y58161D01*
Y60128D01*
D18*
X348031Y385315D02*
X349364D01*
X348698D01*
Y389314D01*
X348031Y388647D01*
X353363Y385315D02*
Y389314D01*
X351364Y387314D01*
X354030D01*
X348031Y375315D02*
X349364D01*
X348698D01*
Y379314D01*
X348031Y378647D01*
X351364D02*
X352030Y379314D01*
X353363D01*
X354030Y378647D01*
Y377981D01*
X353363Y377314D01*
X352697D01*
X353363D01*
X354030Y376648D01*
Y375981D01*
X353363Y375315D01*
X352030D01*
X351364Y375981D01*
X278414Y385079D02*
X275748D01*
X278414Y387744D01*
Y388411D01*
X277747Y389077D01*
X276414D01*
X275748Y388411D01*
X276929Y375079D02*
X278262D01*
X277596D01*
Y379078D01*
X276929Y378411D01*
X29921Y330709D02*
Y332042D01*
Y331375D01*
X25923D01*
X26589Y330709D01*
X15686Y364477D02*
X16353Y363144D01*
X17686Y361811D01*
X19019D01*
X19685Y362477D01*
Y363810D01*
X19019Y364477D01*
X18352D01*
X17686Y363810D01*
Y361811D01*
X19921Y332193D02*
Y329528D01*
X17255Y332193D01*
X16589D01*
X15923Y331527D01*
Y330194D01*
X16589Y329528D01*
X25686Y364477D02*
Y361811D01*
X27686D01*
X27019Y363144D01*
Y363810D01*
X27686Y364477D01*
X29019D01*
X29685Y363810D01*
Y362477D01*
X29019Y361811D01*
X130551Y385315D02*
X131884D01*
X131218D01*
Y389314D01*
X130551Y388647D01*
X135883Y385315D02*
Y389314D01*
X133883Y387314D01*
X136549D01*
X130551Y375315D02*
X131884D01*
X131218D01*
Y379314D01*
X130551Y378647D01*
X133883D02*
X134550Y379314D01*
X135883D01*
X136549Y378647D01*
Y377981D01*
X135883Y377314D01*
X135216D01*
X135883D01*
X136549Y376648D01*
Y375981D01*
X135883Y375315D01*
X134550D01*
X133883Y375981D01*
X60934Y385079D02*
X58268D01*
X60934Y387744D01*
Y388411D01*
X60267Y389077D01*
X58934D01*
X58268Y388411D01*
X59449Y375079D02*
X60782D01*
X60115D01*
Y379078D01*
X59449Y378411D01*
X239291Y385315D02*
X240624D01*
X239958D01*
Y389314D01*
X239291Y388647D01*
X244623Y385315D02*
Y389314D01*
X242624Y387314D01*
X245289D01*
X239291Y375315D02*
X240624D01*
X239958D01*
Y379314D01*
X239291Y378647D01*
X242624D02*
X243290Y379314D01*
X244623D01*
X245289Y378647D01*
Y377981D01*
X244623Y377314D01*
X243956D01*
X244623D01*
X245289Y376648D01*
Y375981D01*
X244623Y375315D01*
X243290D01*
X242624Y375981D01*
X169674Y385079D02*
X167008D01*
X169674Y387744D01*
Y388411D01*
X169007Y389077D01*
X167674D01*
X167008Y388411D01*
X168189Y375079D02*
X169522D01*
X168855D01*
Y379078D01*
X168189Y378411D01*
D19*
X313071Y366024D02*
D03*
X95591D02*
D03*
X204331D02*
D03*
D20*
X38976Y346850D02*
D03*
M02*
